<?xml version="1.0" encoding="utf-8"?>
<!-- Generator: Adobe Illustrator 25.2.1, SVG Export Plug-In . SVG Version: 6.00 Build 0)  -->
<svg version="1.1" id="Capa_1" xmlns="http://www.w3.org/2000/svg" x="0px" y="0px"
	 viewBox="0 0 272 114.6" style="enable-background:new 0 0 272 114.6;" xml:space="preserve">
<style type="text/css">
	.st0{fill:url(#SVGID_1_);}
	.st1{fill:url(#SVGID_2_);}
	.st2{fill:url(#SVGID_3_);}
	.st3{fill:url(#SVGID_4_);}
	.st4{fill:url(#SVGID_5_);}
	.st5{fill:#2B388F;}
	.st6{fill-rule:evenodd;clip-rule:evenodd;fill:url(#SVGID_6_);}
	.st7{fill-rule:evenodd;clip-rule:evenodd;fill:url(#SVGID_7_);}
	.st8{fill-rule:evenodd;clip-rule:evenodd;fill:url(#SVGID_8_);}
	.st9{fill-rule:evenodd;clip-rule:evenodd;fill:url(#SVGID_9_);}
	.st10{fill-rule:evenodd;clip-rule:evenodd;fill:url(#SVGID_10_);}
	.st11{fill-rule:evenodd;clip-rule:evenodd;fill:url(#SVGID_11_);}
	.st12{fill-rule:evenodd;clip-rule:evenodd;fill:url(#SVGID_12_);}
	.st13{fill-rule:evenodd;clip-rule:evenodd;fill:url(#SVGID_13_);}
	.st14{fill-rule:evenodd;clip-rule:evenodd;fill:url(#SVGID_14_);}
	.st15{fill-rule:evenodd;clip-rule:evenodd;fill:url(#SVGID_15_);}
	.st16{fill-rule:evenodd;clip-rule:evenodd;fill:url(#SVGID_16_);}
	.st17{fill-rule:evenodd;clip-rule:evenodd;fill:url(#SVGID_17_);}
	.st18{fill-rule:evenodd;clip-rule:evenodd;fill:url(#SVGID_18_);}
	.st19{fill-rule:evenodd;clip-rule:evenodd;fill:url(#SVGID_19_);}
</style>
<g>
	<g>
		<linearGradient id="SVGID_1_" gradientUnits="userSpaceOnUse" x1="52.8848" y1="92.9895" x2="219.1602" y2="92.9895">
			<stop  offset="0" style="stop-color:#FFDD00"/>
			<stop  offset="0.17" style="stop-color:#C9AD01"/>
			<stop  offset="0.355" style="stop-color:#FFDD00"/>
			<stop  offset="0.58" style="stop-color:#C9AD01"/>
			<stop  offset="0.77" style="stop-color:#FFDD00"/>
			<stop  offset="1" style="stop-color:#C9AD01"/>
		</linearGradient>
		<path class="st0" d="M214.3,93c-3.7,0.1-6.5,0-8.3-0.5l-0.3-0.9c1.2-0.7,2.5-0.8,4-0.2l0.6-0.4c0.4-0.2,0.5-0.7,0.3-1.3l-0.3-0.9
			c-1.8,1.1-3.3,0.5-4.5-1.6c-0.4,0.3-0.5,0.9-0.2,1.8l-0.6,0.4c-0.1-0.3-0.1-0.9-0.1-1.6l-1-1l-3.4,2.1l-0.1-0.4
			c1.7-1,2.6-1.8,2.6-2.1c2.5-0.9,4.9-1,7.2-0.5l0.6-0.4c-0.1-0.5-0.7-0.7-1.7-0.6c-0.1-0.3-0.1-0.9-0.1-1.6
			c-0.1-0.3-0.5-0.4-1.2-0.3c-0.2,0.1-0.2,0.5,0,1.1l-1.3,0.8l-0.2-0.5c-1.3-0.2-2-0.4-2.1-0.9l-0.3,0.2l-0.5,0.8L203,83l-0.6,0.4
			l-0.6,1.5l-2-0.5l-1.4,1.4l-0.2-0.5c-0.2-0.6-0.1-1,0.3-1.3l-0.2-0.5c-1.3,0.4-2.4,0.2-3.5-0.6l-0.9,0.6c-0.3,0.2-0.5,0.6-0.3,1.3
			l0.9-0.5l0.3,0.9l-0.3,0.2c-2-0.2-3.1-0.4-3.2-0.8c-3.8,0.5-5.8,0.4-6-0.2c1.9-0.8,3.2-1,3.9-0.7l0.9-0.6l-0.2-0.5l-0.6-0.7
			c2.7,0.2,4.4,0,5.1-0.3c2.9,0.1,6.3-0.2,10.1-0.7l0.3-0.2l0.6-1.4l0.3-0.2c2.5-0.1,4,0.3,4.7,1l3.2,0.8c0.2-0.1,0.5-0.5,0.8-1
			l0.7,0l-0.1-0.4c1-0.6,2.3-1,3.7-1.2l0.3-0.2l-0.3-0.9l-0.6,0.4l-0.3-0.9l1.2-0.7c-2.2-0.7-3.8-1.4-4.7-2.1l-0.4-1.4
			c-0.3-1-2.5-1.3-6.5-0.9l-0.3,0.2l0.3,0.9c0.8-0.5,1.4-0.3,1.7,0.6l0.1,0.4c0.2,0.6,0.1,1-0.3,1.4c-0.3,0.2-0.6,0-0.9-0.6
			c-0.5,1.4-1,2.3-1.7,2.7c-0.8-0.6-1.4-0.8-1.7-0.6c-0.8-1.3-2-1.5-3.5-0.6l0.3,1l-0.3,0.2l-0.1-0.5l0-1.1c-1,0.6-2.1,0-3.2-1.9
			l-0.1-0.4l0.6-0.4l-0.3-0.9c-0.2,0.1-2.6,0.3-7.2,0.5c0.3,0.9,0.2,1.5-0.2,1.7l-0.6,0.4l-1.2-0.3l0-1.1c-0.4-0.5-5.2-0.5-14.4,0
			c-8.7,0.2-13.4,0.4-13.8,0.7l-22.5,1c-3.7-0.1-7.7-0.1-11.8,0.1l-4,0.6l-2.8,0.1c-6.4,0.8-12.3,1.7-17.9,2.8l-6.1,0.9
			c-0.4-0.2-3.9,0.3-10.3,1.4c-6.9,0.9-10.4,1.6-10.6,2.2l0.3,1l-0.8,0.5L73.6,84c-0.3-0.2-0.5-0.7-0.5-1.6
			c-3.4,0.5-5.3,0.7-5.5,0.6l0,0.9l0.5,0.2l0,0.4c-0.4,1.9-1,2.7-1.9,2.3l0.3,1l0,0.5l-0.3-0.1l0-0.9c-1.3-0.6-2.1-0.2-2.4,1.1
			c-0.3-0.1-0.6,0.1-1.1,0.8c-0.6-0.3-1.2-1-1.9-2.2c-0.1,0.6-0.2,0.8-0.5,0.7c-0.4-0.3-0.6-0.7-0.6-1.2l0-0.4
			c0-0.9,0.4-1.2,1.1-0.8l0-0.9l-0.3-0.1c-3.1,0.3-4.6,0.9-4.6,1.8l0,1.3c-0.6,0.8-1.6,1.7-3,2.6l1.1,0.5l0,0.9L53.4,91l0,0.9
			l0.3,0.1c1.1-0.1,2.1,0.1,3,0.5l0,0.4l0.5-0.1c0.4,0.4,0.6,0.7,0.8,0.8l2.2-1.2c0.3-0.7,1.4-1.3,3.3-1.6l0.3,0.1l0.8,1.2l0.3,0.1
			c2.9-0.1,5.5-0.4,7.6-0.9c0.6,0.3,1.8,0.1,3.8-0.4l-0.3,0.7l0,0.5l0.8,0.4c0.4-0.4,1.4-0.4,3,0.1c0,0.6-1.5,0.9-4.4,1.1
			c0,0.4-0.7,0.8-2.2,1.2L73,94.7l0-0.9l0.8,0.4c0-0.6-0.2-1-0.5-1.1l-0.8-0.4c-0.6,0.9-1.4,1.2-2.4,1.1l0,0.5
			c0.4,0.2,0.5,0.5,0.5,1.1l0,0.5l-1.4-1.1l-1.4,0.7L67,94.2l-0.5-0.2l0,1.3l-0.5-0.6l-0.3-0.1c0,0.4-0.5,0.8-1.4,1.1l0,0.5
			l-1.1-0.5c0-0.6-0.1-0.9-0.2-1c-0.6,0-0.8,0.2-0.8,0.5c0.2,0.7,0.3,1.1,0.3,1.5c-0.7,0.1-1.1,0.4-1.1,0.8l0.5,0.2
			c1.6-0.8,3.4-1,5.5-0.6c0.1,0.4,0.9,0.9,2.4,1.6l0,0.4l-3-1.4l-0.5,1.1c0.2,0.7,0.3,1.2,0.3,1.5l-0.5-0.2c0-0.9-0.2-1.4-0.6-1.6
			c-0.4,2.2-1.4,2.9-3,2.2l0,0.9c0,0.6,0.2,1,0.5,1.2l0.5,0.2c1-0.7,2-0.9,3-0.4l0,0.9c-1.2,0.7-3.2,1.3-6,1.7l-3,1.7
			c1.1,0.5,1.8,1.1,2.2,1.9l0.8,0.4l0.5-0.2l0,0.9l-0.2,0.8c5.6,0.7,8.4,0.5,8.4-0.5l0.5,0.6c3.7-0.7,6.7-1.1,8.8-1.4
			c0.1,0.8,0.3,1.6,0.6,2.5c0.2,0.6,0.6,1.2,1.3,1.9c0.5-0.3,0.8-0.7,1.1-1.2l5.2-1l0.2,0.5l-0.6,0.4c-1.5,0.9-2.7,1.3-3.7,1.2
			c-0.3,0.5-0.6,0.9-0.8,1l0.2,0.5l7.7-2.5c-0.1-0.3,0-0.5,0.2-0.6c2.5,0.6,7.2-0.3,13.9-2.5c3.1-0.4,4.6-0.5,4.7-0.1l0.5-0.8
			c-0.2-0.6-0.5-0.8-0.9-0.5l0-1.2c1.5-0.6,5.6-0.8,12.3-0.8l0.5-0.8l0.2,0.5c0.8,0,1.6-0.1,2.2-0.1l0,0c0,0,0,0,0,0
			c3.5-0.2,5.3-0.1,5.5,0.3c0.2,0.5,1.8,0.8,4.8,1l1.2-0.7l-0.6-0.8l-0.1-0.4c2.9-0.3,5.7-0.5,8.3-0.7l0,0l0,0
			c1.7-0.1,3.4-0.2,4.9-0.3c4.7,0.8,7.8,0.8,9.4,0c0.2,0.1,0.3,0.3,0.3,0.5l1.3,0.2c0.9,0.5,1.4,0.7,1.7,0.5l0.3-0.2l3,0.5l0-0.5
			c-0.2-0.1-0.5-0.3-0.8-0.8c0,0,0,0,0,0l0.4-0.8l0.3-0.2c0.3,0.4,0.6,0.6,1,0.8c0-0.1,0.1-0.1,0.1-0.2c0.6,0.9,1.6,1.1,3,0.7
			c0.4-0.2,0.5-0.7,0.3-1.3c7.1-0.3,10.7-0.5,10.9-0.6c0.9-0.5,3.9-0.7,9-0.5c0.8-0.5,6.5-0.8,17-1l0.5-0.8c0.4,1.1,4,0.7,11-1.2
			l-0.6-0.7l-0.3-0.9l0.7,0l0.9-0.6c0.2-0.8,0.9-1.6,2.2-2.4L214.3,93z M210.7,72.3c0.7,0.3,1.2,0.4,1.5,0.2c0,1.1-0.2,1.8-0.5,1.9
			l-0.3,0.2c-0.1-0.5-0.6-1-1.2-1.5l-0.1-0.4L210.7,72.3z M194.2,72.9l0.3,1c0.2,0.5,0.1,0.9-0.3,1.3l-0.3,0.2
			c0-0.7-0.1-1.4-0.3-2.1L194.2,72.9z M192.9,73.2l0.1,0.4l0,1.2c-0.3,0.2-0.6,0-0.9-0.6l-0.1-0.4L192.9,73.2z M58.3,87.5l-0.2-0.1
			c-0.3-0.1-0.5-0.7-0.8-1.7c0.3,0.1,0.6,0,1.1-0.4l0.6,0.3l0,0.4C58.5,86.6,58.3,87.1,58.3,87.5z M71.1,85.5
			c-0.4-0.2-0.5-0.6-0.5-1.1v-0.9l0.5,0.3c0,0.7,0.1,1.3,0.3,1.9L71.1,85.5z M71.9,85l-0.3-1.1v-0.4l0.8,0.4l0,0.4
			C72.4,84.9,72.2,85.1,71.9,85z M68.6,97.1l-0.3-1.1c0.2,0.1,0.3,0,0.3-0.3c0.3,0.4,0.8,0.8,1.6,1.1v0.5
			C69.4,97,68.9,96.9,68.6,97.1z M72.4,97.1l0-0.9l1.1,0.5l0,0.5L72.4,97.1z M164.4,84.4l-0.9,0.6l0-1.1
			C163.9,83.6,164.2,83.8,164.4,84.4z M130.8,105.2l-0.2-0.5l0.3-0.2c0.6-0.4,1-0.3,1.2,0.3L130.8,105.2z M160.7,103.8l0.2-0.3
			c0,0.2,0.1,0.3,0.2,0.4C160.9,103.8,160.8,103.8,160.7,103.8z M170.3,85.7l-0.1-0.4l1.3-0.8l0.3,0.9L170.3,85.7z M175.4,85.4
			l-0.4-1.4c0.4,0.1,1.1-0.2,2-0.7l0.4,1.4C177.2,84.8,176.6,85.1,175.4,85.4z M178,85.4l-0.3-0.9l1.7-0.4l0,1.1
			C178.9,85.1,178.4,85.2,178,85.4z M194.9,87.8l-0.2-0.5l1.3-0.8l0.3,0.9L194.9,87.8z M199.1,86.9c0.9-0.5,1.5-1.1,1.7-1.5
			c0.1,0.3,0.2,0.4,0.5,0.2l0,1.2c-0.4-0.1-1.1,0.1-2,0.6L199.1,86.9z"/>
		<linearGradient id="SVGID_2_" gradientUnits="userSpaceOnUse" x1="217.6387" y1="83.8496" x2="218.7071" y2="83.8496">
			<stop  offset="0" style="stop-color:#FFDD00"/>
			<stop  offset="0.17" style="stop-color:#C9AD01"/>
			<stop  offset="0.355" style="stop-color:#FFDD00"/>
			<stop  offset="0.58" style="stop-color:#C9AD01"/>
			<stop  offset="0.77" style="stop-color:#FFDD00"/>
			<stop  offset="1" style="stop-color:#C9AD01"/>
		</linearGradient>
		<polygon class="st1" points="217.6,83.9 218.3,84.6 218.7,83.8 218.1,83.1 		"/>
		<linearGradient id="SVGID_3_" gradientUnits="userSpaceOnUse" x1="210.8656" y1="84.5176" x2="217.3164" y2="84.5176">
			<stop  offset="0" style="stop-color:#FFDD00"/>
			<stop  offset="0.17" style="stop-color:#C9AD01"/>
			<stop  offset="0.355" style="stop-color:#FFDD00"/>
			<stop  offset="0.58" style="stop-color:#C9AD01"/>
			<stop  offset="0.77" style="stop-color:#FFDD00"/>
			<stop  offset="1" style="stop-color:#C9AD01"/>
		</linearGradient>
		<path class="st2" d="M215.4,83.6l-0.5,0.8c-0.1-0.3-1.1-0.7-3-1.4l-0.6,0.4c-0.3,0.2-0.4,0.6-0.3,1.3l0.1,0.5l3.2,0.8l0.5-0.9
			c0.1,0.3,0.2,0.4,0.4,0.3l0.5-0.9c0.3,0.9,0.6,1.3,1,1l0.6-0.4l-0.4-1.4C216.6,84,216.1,83.9,215.4,83.6z"/>
		<linearGradient id="SVGID_4_" gradientUnits="userSpaceOnUse" x1="55.0235" y1="96.9688" x2="55.8457" y2="96.9688">
			<stop  offset="0" style="stop-color:#FFDD00"/>
			<stop  offset="0.17" style="stop-color:#C9AD01"/>
			<stop  offset="0.355" style="stop-color:#FFDD00"/>
			<stop  offset="0.58" style="stop-color:#C9AD01"/>
			<stop  offset="0.77" style="stop-color:#FFDD00"/>
			<stop  offset="1" style="stop-color:#C9AD01"/>
		</linearGradient>
		<polygon class="st3" points="55,97 55.6,97.7 55.8,97 55.3,96.2 		"/>
		<linearGradient id="SVGID_5_" gradientUnits="userSpaceOnUse" x1="56.3692" y1="96.8318" x2="60.9746" y2="96.8318">
			<stop  offset="0" style="stop-color:#FFDD00"/>
			<stop  offset="0.17" style="stop-color:#C9AD01"/>
			<stop  offset="0.355" style="stop-color:#FFDD00"/>
			<stop  offset="0.58" style="stop-color:#C9AD01"/>
			<stop  offset="0.77" style="stop-color:#FFDD00"/>
			<stop  offset="1" style="stop-color:#C9AD01"/>
		</linearGradient>
		<path class="st4" d="M58.8,98.3l2.1-1.2v-0.5c-0.1-0.6-0.2-1-0.5-1.1l-0.5-0.2C58.7,96.2,58,96.8,58,97l-0.6-0.7
			c-0.4,0.4-0.8,0.5-1.1,0.4l0,1.3l0.5,0.2c0.4,0.2,0.5-0.2,0.5-1.1L58,98c0.2,0.1,0.2,0,0.2-0.3L58.8,98.3z"/>
	</g>
	<g>
		<g>
			<path class="st5" d="M92.6,93l0.3,0c0.2,0,0.6,0.2,1.1,0.6c0,0.6-0.1,1.1-0.5,1.6l-0.1,0L93.3,95l0,0.2c0.1,0,0.2,0,0.2,0.1
				c-0.1,0.1-0.2,0.1-0.3,0.1l0.1,0.1l0,0.1c-0.3,0-0.4,0.2-0.4,0.6l-0.1,0l0,0.2c0.2,0,0.3,0,0.3,0.1c-0.3,0.5-0.5,0.7-0.5,0.7
				l0-0.1l-0.3,0c0,0.1-0.1,0.3-0.2,0.4l0.1,0.1l0,0.1c-0.2,0-0.3,0.1-0.4,0.4l0,0.1l0.1,0.1l0.1-0.1l0.1,0l0,0.1
				c0,0.1,0,0.1-0.1,0.2c0-0.1-0.1-0.1-0.2-0.1c-0.3,0.2-0.4,0.3-0.4,0.4l0.1,0.1l-0.1,0.1c0,0.2,0.1,0.3,0.2,0.3l0,0.1
				c-0.3,0.5-0.5,0.7-0.5,0.7c0-0.1-0.1-0.1-0.2-0.1l-0.1,0c0,0.1-0.1,0.3-0.2,0.6l0,0.2c-0.1,0-0.3,0.2-0.5,0.7
				c-0.1,0-0.2,0.3-0.4,0.8c0,0,0.1,0,0.1,0.1c-0.2,0-0.3,0.2-0.2,0.4l-0.3,0l-0.3,0.4c-0.1,0-0.1-0.1-0.2-0.2
				c0.1,0,0.3-0.4,0.6-1.1c0.5-1.1,0.8-1.7,1-2c0-0.1,0.6-1.4,1.9-3.8c0.5-1.2,0.8-2,0.7-2.2c-0.2,0-0.4,0-0.4-0.1l-0.1,0l0.1,0.3
				c-0.5,0.2-0.7,0.4-0.7,0.5l-0.1,0c0,0-0.1,0-0.1-0.1c-0.8,0.4-1.1,0.8-1.1,1.1l-0.1,0l-0.1-0.1c-0.2,0.4-0.6,0.8-1.2,1.1l0,0.2
				l-0.1,0L88.9,97c0,0.1-0.1,0.2-0.2,0.3l0,0.2c-0.1,0-0.2,0.2-0.3,0.5c-0.2,0-0.3,0.1-0.5,0.4c0,0,0.1,0,0.2,0.1
				c-0.1,0.2-0.2,0.3-0.3,0.4l0-0.3l-0.3,0c0,0.1-0.1,0.3-0.2,0.5l0,0.1l0.1,0l0.1-0.1l0.1,0.1c-0.3,0.2-0.4,0.4-0.4,0.6
				c-1.2,1.5-2,2.7-2.4,3.6l-0.3,0.1c-0.4-0.2-0.7-0.3-0.8-0.6l0-0.1c0.3-0.4,0.7-1.1,1.1-1.9c1.6-2.3,2.6-4.5,3-6.5l-0.1-0.1
				l-0.2,0c-0.4,0.4-0.7,0.5-0.7,0.5c-0.5,0-0.9,0.4-1.1,1c-0.1,0-0.5,0.2-1.1,0.6c0,0,0.1,0,0.1,0.1c0,0-0.1,0-0.1,0.1l-0.1-0.1
				l-0.1,0c0,0.4-0.2,0.7-0.7,1c-0.2,0.4-0.5,0.7-0.7,0.7c-0.2,0.6-0.5,0.9-0.8,1c0,0.2-0.2,0.4-0.5,0.7c0,0.2-0.2,0.6-0.8,1
				c-0.1,0.5-0.6,1.2-1.5,2.2l-0.1,0c-0.6-0.1-0.9-0.3-1-0.7c0-0.1,0.2-0.6,0.5-1.4c0.4-0.8,1.1-2.7,2.2-5.9
				c0.2-0.3,0.4-0.5,0.7-0.5c0.4,0.3,0.7,0.4,0.7,0.5l0,0.1c-0.4,0.8-1,2.3-1.6,4.3l0.1,0c0.1,0,0.5-0.6,1.4-1.7
				c2.2-2.3,3.6-3.6,4.2-3.7c0.4-0.3,0.7-0.4,0.9-0.4c0.9,0.1,1.3,0.3,1.3,0.7l0,0.2c-0.1,0.1-0.1,0.2-0.1,0.3
				c0.1,0.1,0.1,0.2,0.1,0.2c-0.2,0.1-0.4,0.2-0.4,0.4c0.1,0,0.1,0,0.1,0.1c0,0.2-0.1,0.3-0.3,0.3l0.1,0.1l0,0.1
				c0,0.1,0,0.1-0.1,0.2l0.2,0.5c-0.1,0-0.1,0.1-0.1,0.2l0.1,0.1l0.1,0c0.3-0.4,0.8-0.9,1.3-1.4c0-0.2,0.3-0.5,1-1.1
				c0.7-0.7,1.3-1.1,1.5-1.2C92.1,93.4,92.3,93.2,92.6,93z M86.6,100.3L86.6,100.3l0.1,0.1c0,0,0-0.1,0.1-0.2l-0.1,0
				C86.6,100.2,86.6,100.2,86.6,100.3z M91.9,94.3l0,0.1c0.1-0.2,0.3-0.2,0.3-0.2l0-0.1l-0.2,0C91.9,94.2,91.9,94.2,91.9,94.3z
				 M92.4,96.9L92.4,96.9l0.2,0.1l0-0.3C92.6,96.7,92.5,96.8,92.4,96.9z"/>
			<path class="st5" d="M84.4,103.9c0,0-0.1,0-0.1,0c-0.5-0.2-0.9-0.4-1-0.8c0,0,0-0.1,0-0.1c0-0.1,0-0.2,0.1-0.3
				c0.3-0.4,0.7-1,1.1-1.9c1.4-2.1,2.4-4,2.8-5.8c-0.4,0.3-0.5,0.3-0.6,0.3c-0.2,0-0.6,0.1-0.8,0.7c0,0.1-0.2,0.2-0.3,0.3
				c0,0-0.1,0-0.7,0.4c0,0.1,0,0.1-0.1,0.2c0,0,0,0,0,0c0,0-0.1,0.1-0.1,0.1c0,0-0.1,0-0.1,0.1c-0.1,0.3-0.4,0.6-0.7,0.8
				c-0.2,0.3-0.4,0.6-0.7,0.7c-0.2,0.5-0.4,0.8-0.7,0.9c-0.1,0.3-0.3,0.5-0.5,0.6c-0.1,0.3-0.3,0.6-0.8,1c-0.2,0.6-0.7,1.3-1.5,2.2
				c-0.1,0.1-0.2,0.1-0.2,0.1l-0.1,0c-1.1-0.1-1.3-0.7-1.4-1c0-0.1,0-0.3,0.6-1.6c0.4-0.8,1.1-2.7,2.1-5.8c0,0,0-0.1,0-0.1
				c0.3-0.5,0.6-0.7,1-0.7c0.1,0,0.2,0,0.2,0.1c0.6,0.4,0.8,0.6,0.9,0.8l0,0.1c0,0.1,0,0.1,0,0.2c-0.3,0.6-0.6,1.4-1,2.5
				c0.1-0.1,0.2-0.2,0.3-0.4c2.9-3.1,3.9-3.7,4.4-3.8c0.6-0.4,0.9-0.4,1-0.4c1.1,0.1,1.7,0.5,1.7,1.1l0,0.2c0,0.1,0,0.2-0.1,0.2
				c0,0,0,0,0,0c0,0.1,0.1,0.1,0.1,0.2c0,0.2-0.1,0.3-0.2,0.4c0,0,0,0,0,0c0,0,0,0,0,0.1c0,0,0,0.1,0,0.1c0,0.2-0.1,0.3-0.2,0.4
				c0,0.1,0,0.1,0,0.1c0.2-0.2,0.5-0.5,0.7-0.7c0.1-0.2,0.4-0.6,1.1-1.2c0.8-0.8,1.3-1.1,1.5-1.2c0.1-0.1,0.3-0.3,0.6-0.5
				c0.1,0,0.1-0.1,0.2-0.1l0.3,0c0.4,0,0.8,0.2,1.4,0.6c0.1,0.1,0.1,0.2,0.2,0.3c0.1,0.7-0.1,1.3-0.5,1.8c0,0,0,0.1,0,0.1
				c0,0.1-0.1,0.3-0.2,0.3c0,0,0,0,0,0c0,0.1,0,0.1-0.1,0.2c-0.1,0.1-0.2,0.2-0.3,0.2c0,0-0.1,0-0.1,0.2c0.1,0.1,0.2,0.2,0.2,0.3
				c0,0.1,0,0.2-0.1,0.2c-0.5,0.8-0.6,0.9-0.8,0.9c0,0-0.1,0-0.1,0c0,0,0,0,0,0c0,0,0,0,0,0c0,0.1,0,0.2-0.1,0.3
				c0,0-0.1,0.1-0.1,0.1c0,0.1,0.1,0.1,0.1,0.2l0,0.1c0,0.2-0.1,0.3-0.1,0.4c-0.1,0.1-0.2,0.2-0.4,0.2c-0.1,0-0.1,0-0.2,0
				c0,0,0,0.1,0,0.2c0.1,0.1,0.2,0.2,0.2,0.3c0,0.1,0,0.2,0,0.3c-0.5,0.8-0.6,0.9-0.8,0.9c0,0,0,0,0,0c0,0,0,0.1-0.1,0.2l0,0.1
				c0,0.2-0.1,0.3-0.3,0.4c0,0-0.1,0.2-0.3,0.5c0,0-0.1,0.1-0.1,0.1c0,0-0.1,0.2-0.2,0.4c0,0,0,0.1,0,0.1c0,0.1,0,0.2-0.1,0.3
				c0,0.1-0.1,0.1-0.2,0.1c0,0,0,0,0,0.1c0,0.2-0.1,0.4-0.3,0.4l-0.2,0l-0.2,0.3c-0.1,0.1-0.2,0.1-0.3,0.1c0,0,0,0,0,0
				c-0.2,0-0.4-0.1-0.6-0.4c-0.1-0.1-0.1-0.2,0-0.4c0-0.1,0.1-0.1,0.1-0.2c0-0.1,0.2-0.3,0.4-0.9c0.6-1.4,0.9-1.8,1.1-2
				c0.1-0.3,0.5-1.1,1.9-3.8c0.2-0.6,0.4-1,0.5-1.3c-0.1,0.1-0.1,0.1-0.2,0.1c0,0,0,0.1-0.1,0.1c-0.1,0.1-0.2,0.1-0.3,0.1l-0.1,0
				c0,0-0.1,0-0.1,0c-0.7,0.4-0.7,0.6-0.7,0.6c0,0.2-0.1,0.4-0.3,0.4c0,0,0,0-0.1,0c-0.2,0.3-0.5,0.6-1,0.9c0,0.1,0,0.2-0.1,0.3
				c-0.1,0.1-0.2,0.1-0.3,0.1c0,0,0,0,0,0c0,0,0,0,0,0l0,0c0,0.1,0,0.2-0.1,0.3c0,0-0.1,0.1-0.1,0.1c0,0-0.1,0.1-0.1,0.3
				c0,0.1-0.1,0.2-0.2,0.2c0,0.1,0,0.1,0,0.2c-0.1,0.2-0.2,0.5-0.5,0.6c0,0,0,0,0,0c0,0.2,0,0.3-0.2,0.4c-0.1,0-0.3,0.2-0.3,0.3
				c0,0.1,0,0.2-0.1,0.2c-1.2,1.5-2,2.7-2.4,3.5c0,0.1-0.1,0.2-0.2,0.2L84.4,103.9C84.5,103.9,84.5,103.9,84.4,103.9z M84,102.9
				c0.1,0,0.2,0.1,0.4,0.2l0.1,0c0.4-0.7,0.9-1.6,1.7-2.6c0,0,0-0.1,0-0.1c0-0.3,0.1-0.5,0.4-0.6c0,0,0.1,0,0.1,0c0,0,0,0,0,0
				c0,0,0,0,0,0c0-0.1,0.1-0.3,0.2-0.4c0,0,0-0.1,0-0.1l0-0.1c0-0.1,0-0.2,0.1-0.2c0.2-0.2,0.2-0.3,0.2-0.3c0-0.2,0.1-0.4,0.3-0.4
				l0.1,0c0.1-0.3,0.3-0.4,0.5-0.5c0-0.1,0.1-0.2,0.1-0.3c-0.1,0-0.1,0-0.1,0l-0.1-0.1c-0.1-0.1-0.2-0.2-0.2-0.3
				c0-0.1,0-0.2,0.1-0.3l-0.1-0.3c0-0.1,0-0.2,0-0.3c0,0,0,0,0,0c0,0,0-0.1,0-0.1c-0.5,1.6-1.4,3.4-2.7,5.2
				C84.7,101.9,84.3,102.5,84,102.9z M81.2,95.4c-1,3.2-1.7,5.1-2.2,5.9c-0.4,1-0.5,1.2-0.5,1.2c0,0,0,0.2,0.6,0.3
				c0.9-1,1.2-1.6,1.3-1.9c0-0.1,0.1-0.1,0.1-0.2c0.6-0.5,0.6-0.7,0.6-0.7c0-0.1,0-0.2,0.2-0.3c0.3-0.2,0.4-0.3,0.4-0.3
				c0-0.2,0.1-0.3,0.3-0.4c0.1,0,0.3-0.1,0.5-0.8c0.1-0.1,0.2-0.2,0.3-0.2c0,0,0.1-0.1,0.4-0.5c0-0.1,0.1-0.1,0.1-0.1
				c0.4-0.2,0.5-0.4,0.5-0.6c0,0,0,0,0,0c-0.4,0.4-0.9,0.9-1.4,1.4C81,100,81,100,80.8,100c-0.1,0-0.3,0-0.4-0.1
				c-0.1-0.1-0.1-0.2-0.1-0.3c0.6-1.9,1.1-3.3,1.5-4.2c-0.1,0-0.2-0.1-0.3-0.2C81.4,95.1,81.3,95.2,81.2,95.4z M90.9,99.4
				c-0.1,0.2-0.2,0.3-0.2,0.4c0,0,0,0,0,0c0,0,0.1,0,0.1,0c0,0,0,0,0,0c0,0,0.1-0.1,0.1-0.2C91,99.6,91,99.5,90.9,99.4z M85.5,95.1
				c-0.3,0.3-0.7,0.6-1.3,1.1c0.5-0.4,0.8-0.5,0.9-0.6C85.3,95.5,85.4,95.3,85.5,95.1z M88,94.3c0.1,0.1,0.1,0.2,0.1,0.3
				c0,0.2-0.1,0.5-0.2,0.8c0.1-0.1,0.1-0.2,0.2-0.3c0,0,0,0,0,0c0-0.1,0-0.3,0.1-0.4l0-0.1C88.2,94.4,88.1,94.3,88,94.3z M86.9,94.3
				c-0.1,0.1-0.2,0.1-0.4,0.2c0,0-0.1,0-0.1,0c-0.1,0-0.2,0.1-0.4,0.2c0.2-0.1,0.3-0.1,0.5-0.1C86.5,94.6,86.7,94.5,86.9,94.3z
				 M92.8,93.6c0.2,0,0.4,0.2,0.5,0.3c0,0.1,0,0.3-0.1,0.7c0.1,0,0.2-0.1,0.3,0c0.2-0.3,0.3-0.6,0.3-1c-0.5-0.4-0.7-0.4-0.7-0.4
				l-0.2,0c-0.1,0.1-0.2,0.1-0.3,0.2C92.6,93.5,92.7,93.6,92.8,93.6C92.8,93.6,92.8,93.6,92.8,93.6z"/>
		</g>
		<g>
			<path class="st5" d="M106.3,92.4L106.3,92.4l0.7,0.5l0,0.1c-0.2,0.3-0.6,0.8-1.2,1.3c0,0.1-0.1,0.2-0.1,0.4l-0.2,0l-0.2-0.1
				c0,0.1,0,0.1-0.1,0.1l0.1,0.2l0,0.1c-0.1,0-0.2,0.1-0.3,0.2l-0.2-0.1c0,0.2-0.2,0.3-0.5,0.3l0,0.1c0,0.1,0.1,0.2,0.2,0.2
				c0.1-0.1,0.2-0.1,0.3-0.1l0,0.1c0,0.1-0.1,0.2-0.2,0.3c0-0.1-0.1-0.2-0.2-0.2l-0.2,0c0,0.1-0.2,0.3-0.6,0.6c0,0.1-0.3,0.4-1,1.1
				c0.1,0,0.1,0,0.1,0.1c-0.3,0.1-0.4,0.3-0.4,0.6l0.1,0.4c-0.2-0.1-0.3-0.2-0.4-0.1c-0.2,0-0.5,0.4-0.9,1.1l-0.6,0.6
				c0.1,0,0.2,0.1,0.2,0.2c-0.3,0.3-0.5,0.8-0.7,1.3c0,0-0.2,0.2-0.3,0.5l0.1,0.7c0.2,0.2,0.3,0.3,0.3,0.4c-0.1,0.2-0.2,0.4-0.2,0.4
				l-0.1,0c-0.4-0.2-0.6-0.4-0.7-0.7l0-0.3c0-0.6,0.3-1.5,1.2-2.7c0.2-0.3,0.5-0.9,1.1-1.8l0-0.2l-0.2,0l-0.3,0.2l-0.1,0l-0.3-0.1
				c0,0,0,0.1-0.1,0.1l0.1,0.2l0,0.1c0,0-0.2,0-0.5,0.1c-0.1-0.1-0.2-0.1-0.3-0.1c-1.2,1.4-1.9,2.1-2.2,2.2l0,0.1l-0.2-0.1l-0.1,0
				l0,0.1l0.2,0c-1.7,1.5-2.9,2.3-3.5,2.3l-0.3,0c-1-0.1-1.6-0.5-1.6-1.2c-0.1-1.3,1.4-3.4,4.6-6.2c1.6-1.3,2.7-1.9,3.3-2l0.2,0
				c0.6,0,1.4,0.1,2.6,0.5c-2.4,0.6-4.4,1.5-5.9,2.6c-0.5,0.6-1,1-1.5,1.4c-1.5,1.9-2.3,3.1-2.2,3.7c0.1,0.1,0.1,0.2,0.1,0.2
				c0.6,0,1.8-0.7,3.6-1.9l4-3.2l2.3-1.9C105,93.2,106,92.4,106.3,92.4z M101,97.7L101,97.7l0.3,0.1c0.1,0,0.2-0.1,0.2-0.2l0-0.2
				l-0.1,0C101.2,97.6,101.1,97.7,101,97.7z M101.6,96.7l0,0.5l0.6,0l0.1-0.2l0-0.3C101.9,96.7,101.7,96.7,101.6,96.7z M101.7,97.7
				L101.7,97.7l0.3,0.1c0-0.1,0-0.2,0.1-0.3l-0.2,0C101.7,97.5,101.7,97.6,101.7,97.7z"/>
			<path class="st5" d="M100.1,103.9c-0.1,0-0.1,0-0.2,0c-0.7-0.3-0.9-0.7-0.9-1l0-0.3c-0.1-0.7,0.4-1.7,1.2-2.9
				c0.1-0.2,0.3-0.5,0.5-1c-0.1,0-0.2,0.1-0.3,0.1c-0.1,0-0.2,0-0.2,0c-1.2,1.4-1.7,1.8-2,2c0,0,0,0.1-0.1,0.1c0,0-0.1,0-0.1,0
				c-2.4,2.1-3.3,2.4-3.7,2.4l-0.3,0c-1.6-0.2-2-1-2-1.6c-0.1-1.4,1.4-3.6,4.7-6.5c2.3-1.8,3.1-2,3.5-2.1l0.2,0
				c0.6,0,1.5,0.1,2.7,0.5c0.2,0,0.3,0.2,0.3,0.4c0,0.2-0.1,0.3-0.3,0.4c-2.4,0.6-4.3,1.4-5.7,2.6c-0.5,0.5-1,1-1.5,1.4
				c-1.6,2-2,2.8-2.1,3.2c0.5-0.2,1.4-0.6,3.1-1.8l4-3.2l2.3-1.9c2.4-2.3,2.9-2.5,3.1-2.5c0.1,0,0.3,0,0.4,0.1l0.6,0.6
				c0.1,0.1,0.1,0.2,0.1,0.3c0,0.1,0,0.3-0.1,0.3c-0.2,0.3-0.6,0.8-1.2,1.3c0,0,0,0.1,0,0.1c0,0.2-0.1,0.4-0.3,0.4l0,0
				c0,0,0,0.1-0.1,0.1c-0.1,0.1-0.2,0.2-0.3,0.2c0,0,0,0-0.1,0.1c0,0-0.1,0-0.1,0.1c0,0,0,0,0,0c0,0.4-0.3,0.6-0.4,0.7
				c-0.1,0.1-0.3,0.1-0.4,0c0,0,0,0,0,0c-0.1,0.1-0.3,0.2-0.4,0.3c-0.1,0.2-0.3,0.4-0.8,0.9c0,0,0,0,0,0c0,0.2-0.1,0.3-0.2,0.4
				c-0.2,0.1-0.2,0.2-0.2,0.3l0.1,0.4c0,0.2,0,0.3-0.1,0.4c-0.1,0.1-0.3,0.1-0.4,0c-0.1,0-0.1-0.1-0.1-0.1c0,0-0.2,0.2-0.5,0.9
				c0,0,0,0.1-0.1,0.1l-0.3,0.3c0,0,0,0.1,0,0.1c0,0.1,0,0.2-0.1,0.3c-0.2,0.3-0.4,0.7-0.6,1.2c0,0.1-0.1,0.2-0.2,0.2
				c0,0-0.1,0.1-0.1,0.2l0,0.4c0.2,0.2,0.3,0.4,0.3,0.5c0,0.1,0,0.1,0,0.2C100.7,103.4,100.5,103.8,100.1,103.9
				C100.1,103.9,100.1,103.9,100.1,103.9z M100.7,93.8c-0.1,0-0.1,0-0.2,0l-0.2,0c-0.3,0-1.1,0.3-3.1,1.9c-3.8,3.4-4.5,5.1-4.5,5.9
				c0,0.2,0.1,0.8,1.3,0.9l0.2,0c0.3,0,1.1-0.3,3-2c0-0.2,0.2-0.4,0.3-0.4c0,0,0.1,0,0.1,0c0,0,0,0,0,0c0.1,0,0.3-0.2,1.2-1.2
				l-1.7,1.4c-1.9,1.3-3.1,1.9-3.8,2c-0.1,0-0.2,0-0.3-0.1c-0.1-0.1-0.1-0.2-0.1-0.2c0,0,0,0,0-0.1c0-0.1-0.1-0.1-0.1-0.2
				c0-0.5,0.2-1.4,2.3-4c0.5-0.4,1-0.9,1.5-1.4c1.3-1,2.8-1.8,4.7-2.4C101.3,93.8,100.9,93.8,100.7,93.8z M102.1,96.4
				c0.1,0,0.1,0,0.2,0c0.2,0,0.3,0.2,0.3,0.3l0,0.2c0.5-0.5,0.6-0.7,0.7-0.8c0-0.1,0.1-0.1,0.1-0.2c0.3-0.2,0.4-0.3,0.4-0.3
				c0-0.1,0-0.1,0.1-0.2c0,0,0,0,0.1-0.1c0,0,0,0,0,0c0-0.2,0.1-0.4,0.3-0.4c0.1,0,0.1,0,0.2,0c0-0.1,0.1-0.2,0.1-0.2
				c0.1,0,0.2-0.1,0.2-0.1c0-0.1,0-0.1,0-0.2c0,0,0.1-0.1,0.1-0.1c0,0,0.1-0.1,0.1-0.1c0.1-0.1,0.2-0.1,0.3-0.1c0,0,0-0.1,0-0.1
				c0,0,0-0.1,0.1-0.1c0.4-0.4,0.8-0.7,1-1l-0.3-0.2c-0.3,0.1-0.9,0.6-2.7,2.3L102.1,96.4z"/>
		</g>
		<g>
			<path class="st5" d="M114.6,91.7l0,0.2c-0.1,0-0.2,0.1-0.3,0.3c-0.1,0-0.2-0.1-0.2-0.1c0,0.2-0.2,0.3-0.5,0.4
				c0,0.1,0,0.2-0.1,0.2l-0.1,0l0-0.1l-0.1,0l0.2,0.2c-0.4,0.2-0.9,0.6-1.5,1.2c-0.4,0-0.8,0.3-1.2,0.9l0,0.4
				c-0.1,0-0.2,0.1-0.3,0.2l-0.1,0l0-0.1l0.1-0.2l-0.1,0c-0.1,0-0.1,0.1-0.2,0.2l0,0.1l0.1,0c-0.2,0.3-0.3,0.4-0.3,0.4l-0.4,0
				l0.1,0.1l0,0.2l-0.3,0.2l-0.4,0c0,0.1-0.2,0.3-0.6,0.8l0.1,0.1l0.2-0.2c0.1,0,0.1,0,0.2,0.1c-0.4,0.4-0.6,0.6-0.8,0.6l0-0.1
				l-0.1,0c-0.1,0-0.1,0.1-0.1,0.2c0.1,0,0.1,0.1,0.2,0.2c-0.9,1.1-1.6,2.2-2.1,3.3c-0.1,0.5-0.2,0.7-0.4,0.7l-0.1,0
				c-0.5-0.3-0.7-0.5-0.8-0.6c0.1-0.4,0.5-1.1,1.2-2.3l1.5-2.9c0.9-1.9,1.4-2.8,1.5-2.9l0.1,0c0.2,0.3,0.4,0.4,0.5,0.5
				c0,0.3-0.2,0.8-0.7,1.6l0,0.1C110.9,93.7,112.8,92.4,114.6,91.7z M109.1,96.6l0.1,0l0,0.1c0,0.1-0.1,0.2-0.3,0.2l0-0.1
				C108.9,96.7,109,96.7,109.1,96.6z M109.8,95.6l0,0.1l0.2,0C110,95.6,110,95.6,109.8,95.6L109.8,95.6z"/>
			<path class="st5" d="M105.4,102.5c-0.1,0-0.1,0-0.2,0c-0.7-0.4-0.9-0.6-0.9-0.9c0,0,0-0.1,0-0.1c0.1-0.3,0.2-0.8,1.2-2.5l1.5-2.8
				c1.4-3,1.6-3,1.8-3.1l0.2,0c0.1,0,0.3,0.1,0.3,0.2c0.2,0.2,0.3,0.4,0.4,0.4c0.1,0.1,0.2,0.2,0.2,0.3c0,0.1,0,0.2,0,0.3
				c1.6-1.4,3.1-2.3,4.6-2.8c0.1,0,0.2,0,0.3,0c0.1,0.1,0.2,0.2,0.2,0.3l0,0.2c0,0.2-0.1,0.3-0.2,0.4c0,0,0,0.1-0.1,0.1
				c-0.1,0.1-0.2,0.2-0.3,0.2c-0.1,0.1-0.2,0.2-0.4,0.3c0,0.1-0.1,0.2-0.2,0.3c0,0-0.1,0.1-0.1,0.1c-0.2,0.1-0.7,0.4-1.4,1.1
				c-0.1,0.1-0.1,0.1-0.2,0.1c-0.3,0-0.5,0.2-0.8,0.6l0,0.2c0,0.1,0,0.2-0.1,0.3c-0.1,0.1-0.1,0.1-0.2,0.1c0,0,0,0-0.1,0.1
				c0,0-0.1,0.1-0.1,0.1c-0.2,0.3-0.3,0.5-0.5,0.5c0,0.1-0.1,0.2-0.2,0.3l-0.3,0.1c0,0.2-0.1,0.3-0.4,0.4c0,0.1,0,0.2-0.1,0.3
				c-0.3,0.3-0.5,0.5-0.7,0.6c0,0.1,0,0.1-0.1,0.2c-0.9,1.1-1.6,2.2-2.1,3.3c-0.1,0.4-0.2,0.9-0.7,0.9L105.4,102.5
				C105.5,102.5,105.5,102.5,105.4,102.5z M105.1,101.4c0.1,0,0.2,0.1,0.4,0.2c0-0.1,0.1-0.2,0.1-0.4c0.5-1.1,1.2-2.2,2-3.2
				c-0.1-0.1-0.1-0.1-0.1-0.2c0-0.3,0.2-0.5,0.4-0.5c0,0,0.1,0,0.1,0c0,0,0,0,0-0.1c0-0.1,0-0.3,0.1-0.3c0.4-0.4,0.5-0.5,0.5-0.6
				c0-0.1,0.1-0.1,0.1-0.2c0.1-0.1,0.2-0.1,0.3-0.1l0.2,0c0-0.1,0-0.2,0-0.3c0,0-0.1,0.1-0.1,0.1c-0.1,0.1-0.3,0.1-0.4,0.1
				c-0.1-0.1-0.2-0.2-0.2-0.3c0-0.1,0-0.2,0-0.3c0.4-0.7,0.5-1.1,0.6-1.2c-0.1-0.1-0.1-0.1-0.2-0.2c-0.2,0.3-0.5,1-1.3,2.5l-1.5,2.9
				C105.5,100.5,105.2,101.1,105.1,101.4z"/>
		</g>
		<g>
			<path class="st5" d="M127.3,77.4l0.1,0c0.5,0.1,0.8,0.3,0.8,0.3l-2.4,3.7l-2.4,3.6c-0.1,0-0.3,0.4-0.7,1
				c-0.1,0.1-0.5,0.6-1.3,1.8c-0.4,0.7-0.9,1.3-1.4,1.8l0,0c0.4,0,0.8,0,1.2,0l0.1-0.1c0.1,0,0.2,0,0.3,0l1-0.2c0.1,0,0.1,0,0.2,0
				l0.2-0.1c0.3,0,0.6,0,0.8,0l0.2-0.1c0.1,0,0.2,0,0.2,0l0.5-0.1l0,0.1c0,0,0.1,0,0.1-0.1c0,0,0.2,0,0.5,0c0.1,0,0.4,0,0.9-0.1
				c0,0,0.1,0,0.2,0c0.3-0.1,0.6-0.1,0.8-0.1l0.8-0.1c0.1,0,0.2,0,0.3-0.1c0.1,0,0.4,0,1,0c0.3-0.1,0.6-0.1,0.9-0.1
				c0.1,0,0.4,0,0.8,0l0.1-0.1c0.3,0,0.5,0,0.6,0c0.1,0,0.3,0,0.8-0.1l0,0.1c0.1,0,0.2-0.1,0.2-0.1c0.1,0,0.4,0,0.8,0
				c0,0,0.1,0,0.1-0.1l0.5,0l1.4-0.1l0.4,0l0.1-0.1c0.4,0,0.6,0,0.8,0l0.3,0l0.4-0.1l0.1,0.1l0.1,0c0.3,0,0.4,0,0.5,0
				c0.3,0,0.5-0.1,0.6-0.1l0.1,0c0.1,0,0.2,0,0.3-0.1c0,0,0.1,0,0.1,0l0.3-0.1c0,0,0.4,0,1,0l0.4-0.1c1.2,0,1.8,0,1.9,0l0.4-0.1
				c0.8-0.1,1.4-0.1,2-0.1l0.1-0.1l0.4,0.1l0.2,0l0.5,0l0.2,0l0.1,0c0.1,0,0.1,0,0.1,0c0.6,0,1,0,1,0l0.1,0l0.2,0l0.4,0
				c0-0.1,0.1-0.1,0.2-0.1l0.1,0c0.1,0.1,0.3,0.1,0.7,0.1c0-0.1,0.1-0.1,0.2-0.1c0,0.1,0.1,0.1,0.1,0.1l0.5-0.1c0.5,0,0.8,0,0.9,0
				c0.1,0,0.2-0.1,0.3-0.1l0.1,0c0.1,0,0.1,0,0.1,0.1c0.1,0,0.1,0,0.1,0l0.5,0l0.5,0c0,0,0.1,0,0.1,0l0.2-0.1c0.4,0,0.6,0,0.6,0
				l0-0.1c0.1,0.1,0.5,0.1,1.2,0.1l0,0.3l-0.1,0.1c-0.4,0-0.6,0-0.6-0.1l-0.1,0.1l-0.1,0c-0.1,0-0.2,0-0.2-0.1l-0.2,0l0.1,0.1
				l-0.2,0.1l-0.3,0c-0.1,0-0.2,0-0.2-0.1c0,0-0.1,0-0.1,0l-0.5,0l-0.9,0.1c-0.3,0-0.4,0-0.4-0.1l-0.4,0.1l-0.1,0
				c-0.1,0-0.2,0-0.3,0c-0.2,0.1-0.4,0.1-0.7,0.2c0-0.1-0.1-0.1-0.1-0.1c-0.1,0-0.2,0-0.3,0.1l-0.8-0.2l-0.1,0.1l-0.2,0l0,0.1
				c-0.1-0.1-0.2-0.1-0.4-0.1c0,0.1-0.6,0.2-1.7,0.3c-0.2,0-0.3-0.1-0.3-0.1l-0.4,0.1l-0.2,0c-0.1-0.1-0.3-0.1-0.6-0.1
				c0,0.1,0,0.1-0.1,0.1l-0.4,0c-0.1,0-0.1,0-0.1,0l-0.1,0.1l-0.5,0c0,0-0.2,0-0.4,0.1c-0.3,0-0.5,0-0.6,0l-0.1,0.1
				c0,0-0.2,0-0.5-0.2l0,0.1l-0.1,0l0.1-0.1l-0.2,0l0,0.1l-0.2,0l-0.4,0c0,0-0.1,0.1-0.3,0.2c0,0-0.1-0.1-0.3-0.1l-0.1,0.1l-0.7,0.1
				l-0.2,0l-0.1,0.1l-1.4,0l-0.3,0.1c-1,0-1.6,0.1-1.9,0.1l-0.1,0c-0.7,0-1.1,0-1.2,0c-0.2,0.1-0.4,0.1-0.5,0.1c-0.2,0-0.5,0-0.8,0
				c-0.4,0.1-0.6,0.1-0.7,0.1h-0.5l-0.4,0c0,0-0.1,0-0.1,0c-0.1,0-0.1,0-0.1,0.1l-0.4,0c-0.3,0-0.6,0.1-1,0.1c-0.3,0-0.7,0-1.2,0
				l0-0.1l-0.1,0c0,0,0,0.1-0.1,0.1l-0.4,0c-0.6,0.1-0.9,0.1-1,0.1c0,0-0.1-0.1-0.2-0.1c0,0-0.1,0.1-0.2,0.2c-0.1,0-0.2,0-0.2-0.1
				l0.1-0.1l-0.1,0c-0.2,0-0.3,0.1-0.5,0.2l-0.2,0c-0.1,0-0.1,0-0.1,0l-0.1,0l-1.3,0.1l0-0.1l0.4,0l-0.1-0.1l-0.5,0.1l-0.4,0l0,0.1
				l-0.3,0c0,0-0.1,0-0.1,0l-0.2,0c-0.1,0-0.2,0-0.2,0l-0.1,0.1l-0.4,0l-1.3,0.1c0,0-0.2,0-0.4-0.1l-0.4,0c-0.3,0-0.4,0.1-0.4,0.2
				l0.4-0.1l0.2,0l0,0.1l-0.2,0c-0.6,0-0.9,0.2-0.9,0.4c-0.4,0.6-0.7,1-0.9,1.2c0,0.1-0.2,0.3-0.6,0.8c-0.2,0.6-0.5,0.8-0.7,0.9
				c-0.1,0-0.2,0-0.2,0l0,0.1c0.1,0,0.2,0,0.2,0.1c0,0.1-0.4,0.6-1.1,1.5c0,0.1-0.2,0.4-0.6,0.9c-0.1,0.3-0.3,0.5-0.4,0.6l-0.1,0
				l0,0.2l-0.4,0.4c0,0,0.1,0,0.1,0c-0.1,0-0.3,0.4-0.8,1.1c-0.3,0.5-0.5,0.8-0.8,1l-0.1,0l0,0.1c0.2,0,0.2,0,0.2,0.1l-0.3,0.1
				l0.1,0.1l0,0.1l-0.3,0l0,0.1c0.1,0.1,0.2,0.1,0.2,0.2c-0.1,0.1-0.2,0.2-0.3,0.2l-0.1,0c-0.3,0.4-0.6,0.8-0.7,1.1l-0.6,0.2
				l-0.1-0.1l0-0.1l0.4,0l0,0l-0.2-0.1l0-0.1c0.2-0.5,0.6-1.1,1.1-1.9c0-0.1,0.5-0.9,1.5-2.5c0.2-0.4,0.4-0.6,0.6-0.6l-0.1-0.1l0,0
				c0.3-0.2,0.5-0.5,0.7-0.9c0.1,0,0.2-0.1,0.2-0.4c0.8-0.9,1.3-1.8,1.7-2.5c0.1,0,0.3-0.2,0.6-0.6c0.2-0.3,0.4-0.7,0.7-1.2l-0.1,0
				c-0.3,0-0.4,0-0.5,0.1c-0.3,0-0.5,0-0.7,0l-0.3,0c-0.5,0-0.9,0.1-1.2,0.1l-0.5,0c-1.8,0.2-3,0.3-3.5,0.4l-0.1,0l-0.4,0.1l-0.2,0
				c-0.2,0-0.2,0-0.2,0l-0.4,0.1l-0.5,0l-0.4,0c-0.1,0-0.2,0.1-0.2,0.1l0-0.1c0,0-0.1,0-0.1,0.1l-0.4,0l-1,0.1
				c-1.7,0.1-2.6,0-2.7-0.5c-0.1,0-0.1-0.1-0.2-0.3c1.4-0.5,3-1.1,4.9-1.6c1.3-0.3,2.1-0.6,2.4-0.7c0.1,0,0.1,0,0.1,0
				c1.2-0.4,3.1-0.9,5.6-1.4l0.2,0c0.4,0.1,0.5,0.3,0.6,0.5c-2.4,0.5-5.4,1.3-8.9,2.4c-1.9,0.6-2.8,0.9-2.9,0.9l0,0
				c0.6,0,1.5,0,2.9-0.1l0.6,0c0.1,0,0.2,0,0.3,0c0.1,0,0.2,0,0.3-0.1c0.1,0,0.2,0,0.2,0l0.4-0.1l2.1-0.2c0.2,0,0.5-0.1,0.8-0.1
				c0,0,0.1,0,0.1,0l0.5-0.1l0.7-0.1c0.1,0,0.2,0,0.3,0c0,0,0.1,0,0.1-0.1c0.3,0,0.4,0,0.4,0c0.1,0,0.5-0.1,1.2-0.1l0.5,0
				c0.8-0.1,1.3-0.2,1.2-0.4c0.2-0.2,0.7-0.8,1.5-2c0.2-0.2,0.4-0.5,0.5-0.8c0.2,0,0.3-0.3,0.5-0.7c0.5-0.6,0.8-1,1-1.4
				c0.1,0,0.4-0.4,0.7-1.1c0.4-0.5,0.7-1,1-1.5c0.1,0,0.2-0.3,0.5-0.9c0.1-0.1,0.8-1.1,2.1-3.2C126.9,77.7,127.1,77.5,127.3,77.4z
				 M117.4,90.5L117.4,90.5l0.3,0l0-0.1L117.4,90.5z M122.4,90.1L122.4,90.1l0.3,0l0,0L122.4,90.1z M126.7,89.7L126.7,89.7l0.3,0
				l-0.1-0.1C126.8,89.7,126.8,89.7,126.7,89.7z M130.1,89.5L130.1,89.5l0.3,0l0,0L130.1,89.5z M136.1,89L136.1,89l0.5,0l0-0.1
				L136.1,89z M145.5,88.5L145.5,88.5l0.4,0l0-0.1C145.8,88.5,145.6,88.5,145.5,88.5z M148,88.4l0.1,0l0.4,0l0,0.1L148,88.4
				L148,88.4z M153.1,88.1c0,0.1,0.1,0.1,0.2,0.1l0.1-0.1L153.1,88.1z"/>
			<path class="st5" d="M111,102.1c-0.1,0-0.2,0-0.2-0.1l-0.1-0.1c-0.1-0.1-0.1-0.2-0.1-0.3c0-0.1,0-0.3,0.1-0.3
				c0,0,0.1-0.1,0.1-0.1c0,0,0-0.1,0-0.1c0.2-0.5,0.6-1.1,1.1-1.9c0.1-0.2,0.4-0.8,1.6-2.5c0.1-0.2,0.3-0.4,0.4-0.6
				c0-0.1,0.1-0.2,0.2-0.3c0.2-0.1,0.4-0.4,0.5-0.8c0-0.1,0.1-0.1,0.2-0.2c0,0,0-0.1,0-0.1c0-0.1,0-0.1,0.1-0.2
				c0.7-0.9,1.3-1.7,1.7-2.5c0-0.1,0.1-0.2,0.2-0.2c0,0,0.2-0.1,0.5-0.5c0.1-0.1,0.2-0.3,0.3-0.5l-0.1,0c-0.2,0-0.3,0-0.5,0l-0.3,0
				c-0.5,0-0.9,0.1-1.2,0.1l-0.6,0c-1.7,0.2-2.9,0.3-3.5,0.4c-0.1,0-0.1,0-0.2,0l-0.1,0l-0.6,0.1c-0.1,0-0.2,0-0.3,0l-0.2,0.1
				l-0.6,0l-0.4,0c-0.1,0-0.2,0.1-0.3,0.1c0,0,0,0,0,0c0,0-0.1,0-0.1,0l-0.4,0l-1,0.1c-0.4,0-0.8,0-1.1,0c-0.5,0-1.6,0-1.9-0.6
				c-0.1-0.1-0.2-0.2-0.2-0.5c0-0.2,0.1-0.3,0.2-0.4c1.4-0.5,3.1-1.1,4.9-1.7c1.6-0.4,2.2-0.6,2.4-0.7c0,0,0.1,0,0.1,0
				c0,0,0.1,0,0.1,0c1.2-0.4,3.1-0.9,5.5-1.4l0.2,0c0.1,0,0.1,0,0.2,0c0.5,0.2,0.8,0.5,0.8,0.9c0,0.2-0.1,0.4-0.3,0.4
				c-2.4,0.5-5.4,1.3-8.9,2.4c-0.2,0.1-0.3,0.1-0.5,0.2c0.1,0,0.2,0,0.3,0l0.7,0c0.1,0,0.1,0,0.2,0c0.1,0,0.2,0,0.3,0
				c0,0,0.1,0,0.1,0c0.1,0,0.1,0,0.1,0l0.3,0L113,90c0.2,0,0.4-0.1,0.8-0.1c0,0,0.1,0,0.2,0l0.4-0.1l0.7-0.1c0,0,0.1,0,0.1,0
				c0,0,0.1,0,0.1,0c0.1,0,0.1,0,0.2,0c0.2,0,0.3,0,0.4,0c0.1,0,0.5-0.1,1.2-0.1l0.6,0c0.6,0,0.8-0.1,0.9-0.1c0-0.1,0.1-0.1,0.1-0.1
				c0.1-0.1,0.4-0.4,1.4-1.9c0.2-0.2,0.3-0.4,0.4-0.7c0-0.1,0.2-0.2,0.3-0.3c0,0,0.1-0.1,0.2-0.5c0,0,0-0.1,0.1-0.1
				c0.4-0.5,0.7-1,0.9-1.3c0-0.1,0.1-0.2,0.2-0.2c0,0,0.1-0.1,0.5-0.9c0.4-0.6,0.8-1.1,1-1.5c0,0,0.1-0.1,0.1-0.1
				c0-0.1,0.2-0.2,0.4-0.7c0,0,0.1-0.1,0.1-0.1c0,0,0.3-0.5,2-3.1c0.4-0.6,0.6-0.8,0.9-0.9l0.2,0c0,0,0.1,0,0.1,0
				c0.7,0.2,1,0.4,1.1,0.7c0,0.1,0,0.2-0.1,0.2l-4.8,7.3c0,0-0.1,0.1-0.1,0.1c0,0,0,0,0,0c0,0-0.1,0.2-0.6,0.9c0,0-0.1,0.1-0.1,0.1
				c0,0-0.2,0.2-1.2,1.7c-0.3,0.5-0.6,0.9-0.9,1.3c0.1,0,0.2,0,0.4,0l0.1,0c0.1,0,0.2,0,0.3,0c0,0,0.1,0,0.1,0l1-0.2
				c0.1,0,0.2,0,0.3,0l0,0c0,0,0.1,0,0.2,0c0.3,0,0.5,0,0.7,0l0.1,0c0.1,0,0.2,0,0.2,0c0.1,0,0.1,0,0.1,0l0.5-0.1c0,0,0.1,0,0.1,0
				c0,0,0.1,0,0.1,0c0.1,0,0.3,0,0.4,0c0,0,0.3,0,0.8-0.1c0.1,0,0.2,0,0.3,0c0.3-0.1,0.6-0.1,0.8-0.1l0.8-0.1c0.1,0,0.1,0,0.2,0
				c0.1,0,0.1,0,0.2,0c0.1,0,0.2,0,0.5,0l0.4,0c0.3-0.1,0.6-0.1,0.9-0.1c0.1,0,0.3,0,0.6,0l0.1,0l0.1,0c0.1,0,0.1,0,0.2,0
				c0.2,0,0.4,0,0.6,0c0.1,0,0.3,0,0.7-0.1c0,0,0.1,0,0.1,0c0,0,0.1,0,0.1,0c0.1,0,0.3,0,0.6,0l0.1,0c0.1,0,0.1-0.1,0.2-0.1l0.5,0
				l1.4-0.1l0.4,0l0.1,0c0.1,0,0.1,0,0.2,0l0.4,0c0.2,0,0.3,0,0.4,0l0.3,0l0.3-0.1c0.1,0,0.2,0,0.2,0c0,0,0,0,0.1,0l0.3,0l0.1,0
				c0.2,0,0.5-0.1,0.6-0.1l0.1,0c0.1,0,0.2,0,0.3-0.1c0,0,0.1,0,0.1,0l0.2,0c0.1,0,0.4,0,1,0l0.3-0.1c1.2,0,1.8,0,2,0l0.3-0.1
				c0.8-0.1,1.4-0.1,1.9-0.1l0.1,0c0.1,0,0.1,0,0.2,0l0.3,0l0.1,0c0,0,0.1,0,0.1,0l0.6,0c0.1,0,0.1,0,0.2,0l0,0c0,0,0.1,0,0.1,0
				c0.4,0,0.7,0,1,0l0,0c0,0,0.1,0,0.1,0l0.2,0l0.2,0c0.1-0.1,0.2-0.1,0.3-0.1c0.1,0,0.2,0,0.2,0c0,0,0.1,0,0.4,0
				c0.1-0.1,0.2-0.1,0.3-0.1c0.1,0,0.2,0,0.2,0.1l0.3-0.1c0.5,0,0.8,0,0.9,0c0.1,0,0.2-0.1,0.3-0.1c0,0,0.1,0,0.1,0
				c0.1,0,0.1,0,0.2,0c0,0,0,0,0,0l1,0c0,0,0.1,0,0.1,0c0.1,0,0.1,0,0.2,0c0.2,0,0.3,0,0.4,0c0.1-0.1,0.2-0.1,0.3,0c0,0,0.2,0,1,0
				c0.2,0,0.4,0.2,0.4,0.3l0,0.3c0,0.1,0,0.2-0.1,0.3l-0.1,0.1c-0.1,0.1-0.2,0.1-0.3,0.1c-0.2,0-0.4,0-0.6-0.1c0,0-0.1,0-0.1,0
				c0,0-0.1,0-0.1,0c-0.1,0-0.1,0-0.2,0l-0.1,0.1c0,0-0.1,0-0.1,0l-0.3,0c-0.1,0-0.2,0-0.3-0.1l-0.5,0l-0.8,0.1c-0.3,0-0.4,0-0.5,0
				l-0.4,0.1c0,0-0.1,0-0.1,0c-0.1,0-0.1,0-0.2,0c-0.2,0.1-0.4,0.1-0.7,0.2c-0.1,0-0.2,0-0.3-0.1c0,0-0.1,0-0.1,0
				c-0.1,0-0.1,0-0.2,0l-0.2,0c-0.1,0-0.1,0.1-0.2,0.1l-0.5,0c-0.1,0-0.1,0-0.2-0.1c0,0-0.1,0-0.1,0l0,0c0,0,0,0-0.1,0
				c-0.3,0.1-0.8,0.2-1.8,0.3c0,0-0.1,0-0.1,0c-0.1,0-0.2,0-0.3-0.1l-0.4,0.1c-0.1,0-0.2,0-0.3-0.1c0,0,0,0-0.1,0
				c-0.1,0.1-0.2,0.1-0.3,0.1l-0.4,0c0,0-0.1,0-0.1,0c0,0-0.1,0-0.2,0l-0.5,0c0,0-0.1,0-0.3,0.1c0,0-0.1,0-0.1,0c-0.2,0-0.4,0-0.5,0
				l-0.1,0c0,0-0.1,0-0.1,0c-0.1,0-0.2,0-0.3-0.1c0,0-0.1,0-0.1,0l-0.1,0c0,0,0,0-0.1,0c0,0,0,0,0,0l-0.2,0l-0.3,0
				c-0.1,0.1-0.2,0.1-0.3,0.1c-0.1,0-0.2,0-0.3,0c0,0,0,0,0,0c0,0,0,0,0,0l0,0c0,0-0.1,0-0.1,0l-0.7,0.1c0,0,0,0,0,0
				c-0.1,0-0.1,0.1-0.2,0.1l-1.4,0l-0.2,0.1c-1,0-1.6,0.1-1.9,0.1l-0.1,0c0,0-0.1,0-0.1,0c-0.7,0-1,0-1.2,0c-0.2,0-0.4,0.1-0.5,0.1
				c-0.2,0-0.5,0-0.9,0c-0.3,0.1-0.5,0.1-0.6,0.1c0,0-0.1,0-0.1,0l-0.9,0c0,0,0,0-0.1,0c0,0-0.1,0-0.1,0l-0.4,0
				c-0.2,0-0.6,0.1-0.9,0.1c-0.2,0-0.2,0-0.3,0c-0.2,0-0.6,0-0.9,0c0,0,0,0,0,0c-0.1,0-0.2,0.1-0.2,0.1l-0.4,0
				c-0.5,0.1-0.9,0.1-0.9,0.1c-0.1,0-0.1,0-0.2,0c0,0-0.1,0-0.1,0.1c0,0-0.1,0-0.1,0c-0.2,0-0.3,0-0.4-0.1c0,0-0.1,0-0.1,0.1
				c0,0-0.1,0-0.1,0l-0.2,0c0,0-0.1,0-0.1,0l0,0l-1.3,0.1c-0.1,0-0.2,0-0.3-0.1c-0.1,0.1-0.2,0.1-0.3,0.1l-0.3,0c0,0-0.1,0-0.1,0
				l0,0c-0.1,0-0.1,0-0.2,0c-0.1,0.1-0.2,0.1-0.3,0.1l-0.4,0l-1.3,0.1c-0.1,0-0.1,0-0.3-0.1c0,0,0,0,0,0c-0.1,0.1-0.2,0.1-0.3,0.1
				l-0.2,0c-0.3,0-0.5,0.1-0.5,0.1c0,0,0,0.1,0,0.1c-0.3,0.5-0.6,0.9-0.9,1.2c-0.1,0.1-0.2,0.4-0.6,0.8c-0.2,0.5-0.4,0.8-0.6,0.9
				c-0.1,0.2-0.3,0.5-1.1,1.6c0,0.2-0.2,0.5-0.6,0.9c-0.1,0.3-0.3,0.5-0.4,0.6c0,0.1,0,0.2-0.1,0.3l-0.2,0.2c0,0.1-0.1,0.2-0.2,0.3
				c0,0-0.1,0.2-0.7,1c-0.2,0.4-0.4,0.7-0.7,0.9c0,0.2-0.1,0.3-0.2,0.4l0,0c0,0.1-0.1,0.1-0.1,0.2c0,0.1,0,0.1,0,0.2
				c-0.1,0.2-0.3,0.4-0.5,0.4c0,0,0,0-0.1,0c-0.2,0.3-0.4,0.6-0.5,0.8c0,0.1-0.1,0.2-0.2,0.2l-0.6,0.2
				C111.1,102.1,111.1,102.1,111,102.1z M114.4,96.7c0,0-0.1,0.1-0.3,0.4c-0.8,1.2-1.2,1.8-1.4,2.1c0,0,0.1,0,0.1,0l0,0
				c0.1-0.1,0.3-0.3,0.6-0.7c0.4-0.5,0.6-0.8,0.7-1c0-0.1,0-0.2,0.1-0.3l0.3-0.3l0,0c0-0.1,0-0.2,0.1-0.3
				C114.6,96.6,114.5,96.7,114.4,96.7z M114.7,96.3c0,0,0,0.1,0,0.1c0,0,0,0.1,0,0.1c0.1,0,0.1-0.1,0.2-0.1c0,0,0.1-0.1,0.2-0.4
				c0,0,0-0.1,0.1-0.1c0.4-0.5,0.5-0.6,0.5-0.6c0-0.1,0-0.1,0.1-0.2c0.5-0.6,0.7-1,0.9-1.2c0-0.1-0.1-0.1-0.1-0.2c0,0,0,0,0,0
				c-0.3,0.4-0.6,0.8-1,1.3c-0.1,0.2-0.1,0.4-0.2,0.5C115.1,95.8,114.9,96.1,114.7,96.3z M116.9,93.3c0.1,0,0.1,0,0.2,0
				c0.1,0,0.2-0.2,0.4-0.6c0,0,0-0.1,0.1-0.1c0.4-0.4,0.5-0.6,0.5-0.6c0-0.1,0-0.1,0.1-0.2c0.2-0.2,0.5-0.6,0.8-1.1
				c0-0.1,0.1-0.2,0.1-0.3c0.1-0.1,0.2-0.2,0.4-0.2c0.1-0.1,0.2-0.2,0.3-0.2c0,0,0-0.1-0.1-0.2c0-0.1,0-0.2,0.1-0.3
				c0.4-0.5,0.9-1.1,1.3-1.8c0.9-1.3,1.2-1.7,1.3-1.8c0.5-0.7,0.7-1,0.8-1.1l4.6-6.9c-0.1,0-0.2-0.1-0.3-0.1l-0.1,0
				c0,0-0.1,0.1-0.4,0.5c-1.5,2.4-1.9,3-2.1,3.2c-0.3,0.5-0.4,0.8-0.6,0.9c-0.3,0.5-0.6,1-1,1.5c-0.3,0.7-0.6,1-0.7,1.1
				c-0.2,0.4-0.5,0.8-0.9,1.3c-0.1,0.3-0.3,0.7-0.6,0.8c-0.1,0.3-0.3,0.5-0.5,0.7c-0.8,1.3-1.2,1.7-1.4,1.9
				c-0.1,0.3-0.4,0.4-0.8,0.5c0,0,0,0,0,0c0.1,0.1,0.1,0.3,0.1,0.4c-0.2,0.5-0.5,0.9-0.7,1.2c-0.3,0.4-0.5,0.6-0.7,0.6
				C117.1,92.8,116.9,93,116.9,93.3C116.8,93.3,116.8,93.3,116.9,93.3C116.8,93.3,116.8,93.3,116.9,93.3z M105,90.9
				c0,0,0.2,0.2,1.1,0.2c-0.1-0.1-0.2-0.2-0.2-0.3c0-0.1,0-0.2,0.1-0.3c0,0,0,0,0,0C105.7,90.6,105.4,90.7,105,90.9
				C105,90.9,105,90.9,105,90.9C105,90.9,105,90.9,105,90.9z"/>
		</g>
		<g>
			<path class="st5" d="M122.6,90.3c0.4,0.3,0.7,0.5,0.7,0.7c-0.4,1.1-1.7,3.2-3.7,6.2c-0.9,1.4-1.4,2.1-1.5,2.1
				c-0.3,0-0.7,0.6-1.2,1.6c0.2,0,0.3,0,0.3,0.1l-0.1,0.1c-0.1,0-0.2-0.1-0.3,0c0,0.1-0.2,0.2-0.4,0.2l-0.1,0l0-0.1
				c0-0.4,0.8-1.9,2.6-4.7c1.6-2.4,2.3-3.7,2.3-3.8c0.1-0.1,0.5-0.9,1.2-2.3L122.6,90.3z M117.4,100.3l0.1,0l0,0.1
				c-0.1,0.2-0.2,0.3-0.3,0.4l0-0.1C117.4,100.5,117.4,100.4,117.4,100.3z M118.1,99.4l0.1,0.1c-0.1,0.3-0.3,0.6-0.5,0.7l-0.1,0
				l0-0.1c0.1-0.3,0.3-0.5,0.4-0.5C117.9,99.5,118,99.4,118.1,99.4z M118.1,98.9l0,0.1l0.1,0c0.1,0,0.2-0.2,0.3-0.4l-0.1,0
				C118.2,98.7,118.1,98.8,118.1,98.9z M118.8,97.7L118.8,97.7c0.2-0.1,0.2-0.1,0.3-0.1l0-0.1C118.9,97.6,118.8,97.7,118.8,97.7z
				 M124,85.1l0.6,0.5l0.1,0l0.6-0.4l0.1,0c0.1,0,0.2,0.1,0.2,0.3c0,0.6-0.3,1.1-1.1,1.4l-0.5,0c-0.4-0.3-0.7-0.6-0.7-0.9l0-0.3
				C123.5,85.3,123.7,85.1,124,85.1z"/>
			<path class="st5" d="M116.4,101.6c-0.2,0-0.4-0.1-0.4-0.3l0-0.1c0-0.2-0.1-0.7,2.7-4.9c1.9-3,2.2-3.6,2.3-3.7
				c0-0.1,0-0.1,0.1-0.2c0-0.1,0.3-0.4,1.1-2.2c0.1-0.1,0.2-0.2,0.3-0.2l0.2,0c0.1,0,0.2,0,0.2,0.1c0.6,0.4,0.8,0.7,0.8,0.9
				c0,0.1,0,0.1,0,0.2c-0.4,1.1-1.7,3.2-3.7,6.3c-0.9,1.4-1.2,1.9-1.5,2.1c0,0.1,0,0.1,0,0.2c-0.1,0.4-0.3,0.7-0.6,0.9c0,0,0,0,0,0
				c-0.1,0.2-0.1,0.3-0.3,0.5c0,0.1-0.1,0.2-0.2,0.3l-0.1,0.1c-0.1,0.1-0.2,0.1-0.3,0C116.9,101.5,116.7,101.6,116.4,101.6
				C116.5,101.6,116.4,101.6,116.4,101.6z M118.5,97.8c-0.1,0.2-0.2,0.3-0.3,0.5c0,0,0,0,0.1,0l0.1,0c0,0,0,0,0,0
				c0.1-0.1,0.1-0.2,0.2-0.3C118.6,98,118.5,97.9,118.5,97.8z M121.6,92.7c-0.1,0.3-0.5,1.1-2.4,3.9c-0.1,0.2-0.3,0.4-0.4,0.6
				c0,0,0,0,0.1,0c0.1,0,0.2,0,0.2,0c0-0.1,0.1-0.1,0.1-0.2c1.9-2.9,3.1-4.9,3.6-6c0,0-0.1-0.1-0.3-0.2
				C122,92,121.7,92.5,121.6,92.7z M124.1,87.3c-0.1,0-0.2,0-0.2-0.1c-0.5-0.4-0.8-0.8-0.9-1.1l0-0.4c0-0.1,0-0.1,0-0.2
				c0.3-0.7,0.7-0.8,1-0.8c0.1,0,0.2,0,0.3,0.1l0.4,0.4l0.4-0.3c0.1,0,0.1-0.1,0.2-0.1l0.1,0c0,0,0,0,0,0c0.3,0,0.6,0.2,0.6,0.6
				c0,0.6-0.2,1.3-1.3,1.8c0,0-0.1,0-0.1,0L124.1,87.3C124.1,87.3,124.1,87.3,124.1,87.3z M123.7,85.8l0,0.3c0,0,0,0.2,0.4,0.5
				l0.3,0c0.6-0.3,0.8-0.6,0.8-0.9l-0.4,0.3c-0.1,0-0.1,0.1-0.2,0.1c-0.1,0-0.3,0-0.3-0.1l-0.4-0.4
				C123.9,85.5,123.8,85.6,123.7,85.8z"/>
		</g>
		<g>
			<path class="st5" d="M135.3,90.2L135.3,90.2l0.7,0.5l0,0.1c-0.2,0.3-0.6,0.8-1.2,1.3c-0.1,0.1-0.1,0.2-0.1,0.4l-0.2,0l-0.2-0.1
				c0,0.1,0,0.1-0.1,0.1l0.1,0.2l0,0.1c-0.1,0-0.2,0.1-0.3,0.2l-0.2-0.1c0,0.2-0.2,0.3-0.5,0.3l0,0.1c0,0.1,0.1,0.2,0.2,0.2
				c0.1-0.1,0.2-0.1,0.3-0.1l0,0.1c0,0.1-0.1,0.2-0.2,0.3c0-0.1-0.1-0.2-0.2-0.2l-0.2,0c0,0.1-0.2,0.3-0.6,0.6c0,0.1-0.3,0.4-1,1.1
				c0.1,0,0.1,0,0.1,0.1c-0.3,0.1-0.4,0.3-0.4,0.6l0.1,0.4c-0.1-0.1-0.3-0.2-0.4-0.1c-0.2,0-0.5,0.4-0.9,1.1l-0.6,0.6
				c0.1,0,0.2,0.1,0.2,0.2c-0.3,0.3-0.5,0.7-0.7,1.3c0,0-0.2,0.2-0.3,0.5l0.1,0.7c0.2,0.2,0.3,0.3,0.3,0.4c-0.1,0.2-0.2,0.4-0.2,0.4
				l-0.1,0c-0.4-0.2-0.6-0.4-0.7-0.7l0-0.3c0-0.6,0.3-1.5,1.2-2.7c0.2-0.3,0.5-0.9,1.1-1.8l0-0.2l-0.2,0l-0.3,0.2l-0.1,0l-0.3-0.1
				c0,0,0,0.1-0.1,0.1l0.1,0.2l0,0.1c0,0-0.2,0-0.5,0.1c-0.1,0-0.2-0.1-0.3-0.1c-1.2,1.4-2,2.1-2.2,2.2l0,0.1l-0.2-0.1l-0.1,0l0,0.1
				l0.2,0c-1.7,1.5-2.9,2.3-3.5,2.3l-0.3,0c-1-0.1-1.6-0.5-1.6-1.2c-0.1-1.3,1.4-3.4,4.6-6.2c1.6-1.3,2.7-1.9,3.3-2l0.2,0
				c0.6,0,1.4,0.1,2.6,0.5c-2.4,0.6-4.4,1.5-5.9,2.6c-0.5,0.6-1,1-1.5,1.4c-1.5,1.9-2.3,3.1-2.2,3.7c0.1,0.1,0.1,0.2,0.1,0.2
				c0.6,0,1.8-0.7,3.6-1.9l4-3.2l2.3-1.9C134,91,135,90.2,135.3,90.2z M130,95.5L130,95.5l0.3,0.1c0.1,0,0.2-0.1,0.2-0.2l0-0.2
				l-0.1,0C130.2,95.4,130.1,95.5,130,95.5z M130.6,94.5l0,0.5l0.6,0l0.1-0.2l0-0.3C130.9,94.5,130.6,94.5,130.6,94.5z M130.7,95.4
				L130.7,95.4l0.3,0.1c0-0.1,0-0.2,0.1-0.3l-0.2,0C130.7,95.3,130.6,95.3,130.7,95.4z"/>
			<path class="st5" d="M129.1,101.6c-0.1,0-0.1,0-0.2,0c-0.7-0.3-0.9-0.7-0.9-1l0-0.3c-0.1-0.7,0.4-1.7,1.2-2.9
				c0.1-0.2,0.3-0.5,0.5-1c-0.1,0-0.2,0-0.3,0.1c-0.1,0-0.2,0-0.2,0c-1.3,1.4-1.8,1.9-2,2c0,0,0,0.1-0.1,0.1c0,0,0,0-0.1,0
				c-2.4,2.1-3.3,2.4-3.7,2.4l-0.3,0c-1.6-0.2-2-1-2-1.6c-0.1-1.4,1.4-3.6,4.7-6.5c2.3-1.8,3.1-2,3.5-2.1l0.2,0
				c0.6,0,1.5,0.1,2.7,0.5c0.2,0,0.3,0.2,0.3,0.4c0,0.2-0.1,0.3-0.3,0.4c-2.4,0.6-4.3,1.4-5.7,2.6c-0.5,0.5-1,1-1.5,1.4
				c-1.6,2-2,2.8-2.1,3.2c0.5-0.2,1.4-0.6,3.1-1.8l6.2-5.1c2.4-2.3,2.9-2.5,3.1-2.5c0.1,0,0.3,0,0.4,0.1l0.6,0.6
				c0.1,0.1,0.1,0.2,0.1,0.3c0,0.1,0,0.3-0.1,0.3c-0.2,0.3-0.6,0.8-1.2,1.3c0,0,0,0.1,0,0.1c0,0.2-0.1,0.4-0.3,0.4l0,0
				c-0.1,0.1-0.2,0.3-0.3,0.3c0,0,0,0-0.1,0.1c0,0-0.1,0-0.1,0.1c0,0,0,0.1,0,0.1c0,0.3-0.3,0.6-0.4,0.6c-0.1,0.1-0.3,0.1-0.4,0
				c0,0,0,0,0,0c-0.1,0.1-0.3,0.2-0.4,0.3c-0.1,0.2-0.3,0.4-0.8,0.9c0,0,0,0,0,0c0,0.2-0.1,0.3-0.2,0.4c-0.2,0.1-0.2,0.2-0.2,0.3
				l0.1,0.4c0,0.2,0,0.3-0.1,0.4c-0.1,0.1-0.3,0.1-0.4,0c-0.1,0-0.1-0.1-0.1-0.1c0,0-0.2,0.2-0.5,0.9c0,0,0,0.1-0.1,0.1l-0.3,0.3
				c0,0,0,0.1,0,0.1c0,0.1,0,0.2-0.1,0.3c-0.2,0.3-0.4,0.7-0.6,1.2c0,0.1-0.1,0.2-0.2,0.2c0,0-0.1,0.1-0.1,0.2l0,0.4
				c0.2,0.2,0.3,0.4,0.3,0.5c0,0,0,0.1,0,0.1C129.6,101.2,129.5,101.6,129.1,101.6C129.1,101.6,129.1,101.6,129.1,101.6z
				 M129.7,91.6c-0.1,0-0.1,0-0.2,0l-0.2,0c-0.3,0-1.1,0.3-3.1,1.9c-3.8,3.4-4.5,5.1-4.5,5.9c0,0.2,0.1,0.8,1.3,0.9l0.2,0
				c0.3,0,1.1-0.3,3-2c0-0.1,0-0.2,0.1-0.2c0.1-0.1,0.2-0.2,0.3-0.2c0,0,0.1,0,0.1,0c0,0,0,0,0,0c0.1,0,0.3-0.2,1.2-1.2l-1.7,1.4
				c-1.9,1.3-3,1.9-3.8,2c-0.1,0-0.2,0-0.3-0.1c-0.1-0.1-0.1-0.2-0.1-0.2c0,0,0,0,0,0c0,0,0,0,0-0.1c0-0.1-0.1-0.1-0.1-0.2
				c0-0.5,0.2-1.4,2.3-4c0.5-0.4,1-0.9,1.5-1.4c1.3-1,2.8-1.8,4.7-2.4C130.2,91.6,129.9,91.6,129.7,91.6z M131.1,94.2
				c0.1,0,0.1,0,0.2,0c0.2,0,0.3,0.2,0.3,0.3l0,0.2c0.5-0.5,0.6-0.7,0.7-0.8c0-0.1,0.1-0.1,0.1-0.2c0.3-0.2,0.4-0.3,0.4-0.3
				c0-0.1,0-0.1,0.1-0.2c0,0,0,0,0.1-0.1c0,0,0,0,0,0c0-0.1,0-0.2,0.1-0.3c0.1-0.1,0.2-0.1,0.3-0.1c0.1,0,0.1,0,0.2,0
				c0-0.1,0.1-0.2,0.1-0.2c0.1,0,0.1-0.1,0.2-0.1c0-0.1,0-0.1,0-0.2c0,0,0.1-0.1,0.1-0.1c0,0,0.1-0.1,0.1-0.1
				c0.1-0.1,0.2-0.1,0.3-0.1c0,0,0-0.1,0-0.1c0,0,0-0.1,0.1-0.1c0.4-0.4,0.8-0.7,1-1l-0.3-0.2c-0.2,0.1-0.8,0.5-2.6,2.3L131.1,94.2z
				"/>
		</g>
		<g>
			<path class="st5" d="M146,76.3l0.1,0c0.1,0,0.1,0,0.2,0.1c0,0.2-0.4,1.3-1.4,3.2l-2.6,5.3l-1.4,2.6c-0.2,0.3-0.9,1.6-2,3.7
				c-1.1,2-2.2,4-3.3,6.2c-0.5,1-0.9,1.6-1.1,1.8c-0.2,0-0.4,0.2-0.5,0.5l-0.3,0.1l-0.1-0.1c0.9-2.5,2.4-5.6,4.4-9.2
				c0.8-1.7,1.6-3.2,2.4-4.6l1.2-2.3c0.9-1.8,1.3-2.7,1.3-2.8c0.4-0.8,1-2.1,1.7-3.8c0.2-0.4,0.5-0.6,0.7-0.6l0.1,0
				c0,0,0.1,0,0.1,0.1L146,76.3z"/>
			<path class="st5" d="M133.8,100.3c-0.1,0-0.3-0.1-0.3-0.2l-0.1-0.1c-0.1-0.1-0.1-0.2,0-0.3c0.9-2.5,2.4-5.7,4.5-9.3
				c0.8-1.7,1.6-3.2,2.4-4.6l1.2-2.3c1-2,1.3-2.6,1.3-2.7c0,0,0-0.1,0-0.1c0.4-0.8,1-2.1,1.7-3.8c0.3-0.6,0.7-0.8,1-0.9l0.1,0
				c0,0,0,0,0.1,0l0.2-0.1c0.1,0,0.1-0.1,0.2-0.1l0.1,0c0.3,0,0.5,0.2,0.6,0.5c0,0.2,0,0.5-1.4,3.4l-2.6,5.3l-1.4,2.7
				c-0.1,0.2-0.6,1-2,3.7c-1.1,2-2.2,4-3.3,6.2c-0.5,1-0.9,1.6-1.2,2c-0.1,0.1-0.1,0.1-0.2,0.1c-0.1,0-0.1,0.1-0.2,0.3
				c0,0.1-0.1,0.2-0.2,0.2l-0.3,0.1C133.9,100.3,133.8,100.3,133.8,100.3z M143.4,81c-0.1,0.3-0.4,0.9-1.3,2.8l-1.2,2.3
				c-0.8,1.4-1.6,3-2.4,4.6c-1.8,3.2-3.2,6-4.1,8.3c0,0,0,0,0,0c0.2-0.2,0.5-0.7,1-1.7c1-2.2,2.1-4.3,3.3-6.3c0.7-1.4,1.7-3.3,2-3.8
				l1.4-2.6l2.6-5.3c0.7-1.4,1-2.1,1.2-2.6c-0.1,0-0.2,0-0.3,0c0,0,0,0,0,0c-0.1,0-0.2,0.1-0.4,0.4C144.4,79,143.8,80.2,143.4,81z"
				/>
		</g>
		<g>
			<path class="st5" d="M161.4,88.2L161.4,88.2l0.7,0.5l0,0.1c-0.2,0.3-0.6,0.8-1.2,1.3c-0.1,0.1-0.1,0.2-0.1,0.4l-0.2,0l-0.2-0.1
				c0,0.1,0,0.1-0.1,0.1l0.1,0.2l0,0.1c-0.1,0-0.2,0.1-0.3,0.2l-0.2-0.1c0,0.2-0.2,0.3-0.5,0.3l0,0.1c0,0.1,0.1,0.2,0.2,0.2
				c0.1-0.1,0.2-0.1,0.3-0.1l0,0.1c0,0.1-0.1,0.2-0.2,0.3c0-0.1-0.1-0.2-0.2-0.2l-0.2,0c0,0.1-0.2,0.3-0.6,0.6c0,0.1-0.3,0.4-1,1.1
				c0.1,0,0.1,0,0.1,0.1c-0.3,0.1-0.4,0.3-0.4,0.6l0.1,0.4c-0.1-0.1-0.3-0.2-0.4-0.1c-0.2,0-0.5,0.4-0.9,1.1l-0.6,0.6
				c0.1,0,0.2,0.1,0.2,0.2c-0.3,0.3-0.5,0.7-0.7,1.3c0,0-0.2,0.2-0.3,0.5l0.1,0.7c0.2,0.2,0.3,0.3,0.3,0.4c-0.1,0.2-0.2,0.4-0.2,0.4
				l-0.1,0c-0.4-0.2-0.6-0.4-0.7-0.7l0-0.3c0-0.6,0.3-1.5,1.2-2.7c0.2-0.3,0.5-0.9,1.1-1.8l0-0.2l-0.2,0l-0.3,0.2l-0.1,0l-0.3-0.1
				c0,0,0,0.1-0.1,0.1l0.1,0.2l0,0.1c0,0-0.2,0-0.5,0.1c-0.1,0-0.2-0.1-0.3-0.1c-1.2,1.4-2,2.1-2.2,2.2l0,0.1l-0.2-0.1l-0.1,0l0,0.1
				l0.2,0c-1.7,1.5-2.9,2.3-3.5,2.3l-0.3,0c-1-0.1-1.6-0.5-1.6-1.2c-0.1-1.3,1.4-3.4,4.6-6.2c1.6-1.3,2.7-1.9,3.3-2l0.2,0
				c0.6,0,1.4,0.1,2.6,0.5c-2.4,0.6-4.4,1.5-5.9,2.6c-0.5,0.6-1,1-1.5,1.4c-1.5,1.9-2.3,3.1-2.2,3.7c0.1,0.1,0.1,0.2,0.1,0.2
				c0.6,0,1.8-0.7,3.6-1.9l4-3.2l2.3-1.9C160.1,89,161.1,88.2,161.4,88.2z M156.1,93.5L156.1,93.5l0.3,0.1c0.1,0,0.2-0.1,0.2-0.2
				l0-0.2l-0.1,0C156.3,93.4,156.2,93.5,156.1,93.5z M156.7,92.5l0,0.5l0.6,0l0.1-0.2l0-0.3C157,92.5,156.8,92.5,156.7,92.5z
				 M156.8,93.5L156.8,93.5l0.3,0.1c0-0.1,0-0.2,0.1-0.3l-0.2,0C156.8,93.3,156.8,93.3,156.8,93.5z"/>
			<path class="st5" d="M155.2,99.6c-0.1,0-0.2,0-0.2,0c-0.7-0.3-0.9-0.7-0.9-1l0-0.3c-0.1-0.7,0.4-1.7,1.2-2.9
				c0.1-0.2,0.3-0.5,0.5-1c-0.1,0-0.2,0-0.3,0.1c-0.1,0-0.2,0-0.2,0c-1.3,1.4-1.8,1.9-2,2c0,0,0,0.1-0.1,0.1c0,0,0,0-0.1,0
				c-2.4,2.1-3.3,2.4-3.7,2.4l-0.3,0c-1.6-0.2-2-1-2.1-1.6c-0.1-1.4,1.4-3.6,4.7-6.5c2.3-1.8,3.1-2,3.5-2.1l0.2,0
				c0.6,0,1.5,0.1,2.7,0.5c0.2,0,0.3,0.2,0.3,0.4c0,0.2-0.1,0.3-0.3,0.4c-2.4,0.6-4.3,1.4-5.7,2.6c-0.5,0.5-1,1-1.5,1.4
				c-1.6,2-2,2.8-2.1,3.2c0.5-0.2,1.4-0.6,3.1-1.8l4-3.2l2.3-1.9c2.4-2.3,2.9-2.5,3.1-2.5c0.1,0,0.3,0,0.4,0.1l0.6,0.6
				c0.1,0.1,0.1,0.2,0.1,0.3c0,0.1,0,0.3-0.1,0.3c-0.2,0.3-0.6,0.8-1.2,1.3c0,0,0,0.1,0,0.1c0,0.2-0.1,0.4-0.3,0.4l0,0
				c0,0,0,0.1-0.1,0.1c-0.1,0.1-0.2,0.2-0.2,0.2c0,0,0,0-0.1,0.1c0,0-0.1,0-0.1,0.1c0,0,0,0,0,0c0,0.4-0.3,0.6-0.4,0.7
				c-0.1,0.1-0.3,0.1-0.4,0c0,0,0,0,0,0c-0.1,0.1-0.3,0.2-0.4,0.3c-0.1,0.2-0.3,0.4-0.8,0.9c0,0,0,0,0,0c0,0.2-0.1,0.3-0.2,0.4
				c-0.2,0.1-0.2,0.2-0.2,0.3l0.1,0.4c0,0.2,0,0.3-0.1,0.4c-0.1,0.1-0.3,0.1-0.4,0c-0.1,0-0.1-0.1-0.1-0.1c0,0-0.2,0.2-0.5,0.9
				c0,0,0,0.1-0.1,0.1l-0.3,0.3c0,0,0,0.1,0,0.1c0,0.1,0,0.2-0.1,0.3c-0.2,0.3-0.4,0.7-0.6,1.2c0,0.1-0.1,0.2-0.2,0.2
				c0,0-0.1,0.1-0.1,0.2l0,0.4c0.2,0.2,0.3,0.4,0.3,0.5c0,0,0,0.1,0,0.1C155.8,99.2,155.7,99.6,155.2,99.6
				C155.3,99.6,155.2,99.6,155.2,99.6z M155.8,89.6c-0.1,0-0.1,0-0.2,0l-0.2,0c-0.3,0-1.1,0.3-3.1,1.9c-3.8,3.4-4.5,5.1-4.5,5.9
				c0,0.2,0.1,0.8,1.3,0.9l0.2,0c0.3,0,1.1-0.3,3-2c0-0.2,0.2-0.4,0.3-0.4c0,0,0.1,0,0.2,0c0,0,0,0,0,0c0.1,0,0.3-0.2,1.2-1.2
				l-1.7,1.4c-1.9,1.3-3,1.9-3.8,2c-0.2,0-0.4-0.1-0.4-0.3c0,0,0,0,0,0c0,0,0,0,0-0.1c0-0.1-0.1-0.1-0.1-0.2c0-0.5,0.2-1.4,2.3-4
				c0.5-0.4,1-0.9,1.6-1.4c1.3-1,2.8-1.8,4.7-2.4C156.4,89.6,156.1,89.6,155.8,89.6z M157.2,92.2c0.1,0,0.1,0,0.2,0
				c0.2,0,0.3,0.2,0.3,0.3l0,0.2c0.5-0.5,0.6-0.7,0.7-0.8c0-0.1,0.1-0.1,0.1-0.2c0.3-0.2,0.4-0.3,0.4-0.3c0-0.1,0-0.1,0.1-0.2
				c0,0,0,0,0.1-0.1c0,0,0,0,0,0c0-0.1,0-0.2,0.1-0.3c0.1-0.1,0.2-0.1,0.3-0.1c0.1,0,0.1,0,0.2,0c0-0.1,0.1-0.2,0.1-0.2
				c0.1,0,0.2-0.1,0.2-0.1c0-0.1,0-0.1,0-0.2c0,0,0.1-0.1,0.1-0.1c0,0,0.1-0.1,0.1-0.1c0.1-0.1,0.2-0.1,0.3-0.1c0,0,0-0.1,0-0.1
				c0,0,0-0.1,0.1-0.1c0.4-0.4,0.8-0.7,1-1l-0.3-0.2c-0.3,0.1-0.9,0.6-2.7,2.3L157.2,92.2z"/>
		</g>
		<g>
			<path class="st5" d="M169.7,87.5l0,0.2c-0.1,0-0.2,0.1-0.3,0.3c-0.1,0-0.2-0.1-0.2-0.1c0,0.2-0.2,0.3-0.5,0.4
				c0,0.1,0,0.2-0.1,0.2l-0.1,0l0-0.1l-0.1,0l0.2,0.2c-0.4,0.2-0.9,0.6-1.5,1.2c-0.4,0-0.8,0.3-1.2,0.9l0,0.3
				c-0.1,0-0.2,0.1-0.3,0.2l-0.1,0l0-0.1l0.1-0.2l-0.1,0c-0.1,0-0.1,0.1-0.2,0.2l0,0.1l0.1,0c-0.2,0.3-0.3,0.4-0.3,0.4l-0.4,0
				l0.1,0.1l0,0.2l-0.3,0.2l-0.4,0c0,0.1-0.2,0.3-0.6,0.8l0.1,0.1l0.2-0.2c0.1,0,0.1,0,0.2,0.1c-0.4,0.4-0.6,0.6-0.8,0.6l0-0.1
				l-0.1,0c-0.1,0-0.1,0.1-0.1,0.2c0.1,0,0.1,0.1,0.2,0.2c-0.9,1.1-1.6,2.2-2.1,3.3c-0.1,0.5-0.2,0.7-0.4,0.7l-0.1,0
				c-0.5-0.3-0.7-0.5-0.8-0.6c0.1-0.4,0.5-1.1,1.2-2.3l1.5-2.9c0.9-1.9,1.4-2.8,1.5-2.9l0.1,0c0.2,0.3,0.3,0.4,0.5,0.5
				c0,0.3-0.2,0.8-0.7,1.6l0,0.1C166,89.4,167.9,88.2,169.7,87.5z M164.2,92.4l0.1,0l0,0.1c0,0.1-0.1,0.2-0.3,0.2l0-0.1
				C164,92.5,164.1,92.5,164.2,92.4z M164.9,91.4l0,0.1l0.2,0C165.1,91.4,165.1,91.4,164.9,91.4L164.9,91.4z"/>
			<path class="st5" d="M160.5,98.2c-0.1,0-0.1,0-0.2,0c-0.7-0.4-0.9-0.6-0.9-0.9c0,0,0-0.1,0-0.1c0.1-0.3,0.2-0.8,1.2-2.5l1.5-2.8
				c1.4-3,1.6-3,1.8-3.1l0.2,0c0.1,0,0.3,0.1,0.3,0.2c0.1,0.2,0.3,0.3,0.4,0.4c0.1,0.1,0.2,0.2,0.2,0.3c0,0.1,0,0.2,0,0.3
				c1.6-1.4,3.1-2.3,4.6-2.8c0.1,0,0.2,0,0.3,0c0.1,0.1,0.2,0.2,0.2,0.3l0,0.2c0,0.2-0.1,0.3-0.2,0.4c0,0,0,0.1-0.1,0.1
				c-0.1,0.1-0.2,0.2-0.3,0.2c-0.1,0.1-0.2,0.2-0.4,0.3c0,0.1-0.1,0.1-0.1,0.1c0,0-0.1,0.1-0.2,0.1c0,0-0.1,0.1-0.1,0.1
				c-0.4,0.1-0.8,0.5-1.4,1.1c-0.1,0.1-0.1,0.1-0.2,0.1c-0.3,0-0.5,0.2-0.8,0.6l0,0.2c0,0.2-0.1,0.4-0.3,0.4c0,0,0,0-0.1,0.1
				c0,0-0.1,0.1-0.1,0.1c-0.2,0.3-0.3,0.5-0.5,0.5c0,0.1-0.1,0.2-0.2,0.3l-0.3,0.1c0,0.2-0.1,0.3-0.4,0.4c0,0.1,0,0.2-0.1,0.3
				c-0.3,0.3-0.5,0.5-0.7,0.6c0,0.1,0,0.1-0.1,0.2c-0.9,1.1-1.6,2.2-2.1,3.3c-0.1,0.4-0.3,0.9-0.7,0.9L160.5,98.2
				C160.6,98.2,160.6,98.2,160.5,98.2z M160.2,97.2c0.1,0,0.2,0.1,0.4,0.2c0-0.1,0.1-0.2,0.1-0.4c0.5-1.1,1.2-2.2,2-3.2
				c0-0.1-0.1-0.1-0.1-0.2c0-0.3,0.1-0.5,0.4-0.6c0,0,0.1,0,0.1,0c0,0,0,0,0-0.1c0-0.1,0-0.3,0.1-0.3c0.4-0.4,0.5-0.5,0.5-0.6
				c0-0.1,0.1-0.1,0.1-0.2c0.1-0.1,0.2-0.1,0.3-0.1l0.2,0c0-0.1,0-0.2,0-0.3c0,0-0.1,0.1-0.1,0.1c-0.1,0.1-0.3,0.1-0.4,0.1
				c-0.1-0.1-0.2-0.2-0.2-0.3c0-0.1,0-0.2,0-0.3c0.4-0.7,0.5-1.1,0.6-1.2c-0.1-0.1-0.1-0.1-0.2-0.2c-0.2,0.3-0.5,1-1.3,2.5l-1.5,2.9
				C160.6,96.4,160.3,96.9,160.2,97.2z"/>
		</g>
		<g>
			<path class="st5" d="M182.4,73.2l0.1,0c0.5,0.1,0.8,0.3,0.8,0.3l-2.4,3.7l-2.4,3.6c-0.1,0-0.3,0.4-0.7,1
				c-0.1,0.1-0.5,0.6-1.3,1.8c-0.4,0.7-0.9,1.3-1.4,1.8l0,0c0.4,0,0.8,0,1.2,0l0.1-0.1c0.1,0,0.2,0,0.3,0l1-0.2c0.1,0,0.1,0,0.2,0
				l0.2-0.1c0.3,0,0.6,0,0.8,0l0.2-0.1c0.1,0,0.2,0,0.2,0l0.5-0.1l0,0.1c0,0,0.1,0,0.1-0.1c0,0,0.2,0,0.5,0c0.1,0,0.4,0,0.9-0.1
				c0,0,0.1,0,0.2,0c0.3-0.1,0.6-0.1,0.8-0.1l0.8-0.1c0.1,0,0.2,0,0.3-0.1c0.1,0,0.4,0,1,0c0.3-0.1,0.6-0.1,0.9-0.1
				c0.1,0,0.4,0,0.8,0l0.1-0.1c0.3,0,0.5,0,0.6,0c0.1,0,0.3,0,0.8-0.1l0,0.1c0.1,0,0.2-0.1,0.2-0.1c0.1,0,0.4,0,0.8,0
				c0,0,0.1,0,0.1-0.1l0.5,0l1.4-0.1l0.4,0l0.1-0.1c0.4,0,0.6,0,0.8,0l0.3,0l0.4-0.1l0.1,0.1l0.1,0c0.3,0,0.4,0,0.5,0
				c0.3,0,0.5-0.1,0.6-0.1l0.1,0c0.1,0,0.2,0,0.3-0.1c0,0,0.1,0,0.1,0l0.3-0.1c0,0,0.4,0,1,0l0.4-0.1c1.2,0,1.8,0,1.9,0l0.4-0.1
				c0.8-0.1,1.4-0.1,2-0.1l0.1-0.1l0.4,0.1l0.2,0l0.5,0l0.2,0l0.1,0c0.1,0,0.1,0,0.1,0c0.6,0,1,0,1,0l0.1,0l0.2,0l0.4,0
				c0-0.1,0.1-0.1,0.2-0.1l0.1,0c0.1,0,0.3,0.1,0.7,0.1c0-0.1,0.1-0.1,0.2-0.1c0,0.1,0.1,0.1,0.1,0.1l0.5-0.1c0.5,0,0.8,0,0.9,0
				c0.1,0,0.2-0.1,0.3-0.1l0.1,0c0.1,0,0.1,0,0.1,0.1c0.1,0,0.1,0,0.1,0l0.5,0l0.5,0c0,0,0.1,0,0.1,0l0.2-0.1c0.4,0,0.6,0,0.6,0
				l0-0.1c0.1,0.1,0.5,0.1,1.2,0.1l0,0.3l-0.1,0.1c-0.4,0-0.6,0-0.6-0.1l-0.1,0.1l-0.1,0c-0.1,0-0.2,0-0.2-0.1l-0.2,0l0.1,0.1
				l-0.2,0.1l-0.3,0c-0.1,0-0.2,0-0.2-0.1c0,0-0.1,0-0.1,0l-0.5,0l-0.9,0.1c-0.3,0-0.4,0-0.4-0.1l-0.4,0.1l-0.1,0
				c-0.1,0-0.2,0-0.3,0c-0.2,0.1-0.4,0.1-0.7,0.2c0-0.1-0.1-0.1-0.1-0.1c-0.1,0-0.2,0-0.3,0.1l-0.8-0.2l-0.1,0.1l-0.2,0l0,0.1
				c-0.1-0.1-0.2-0.1-0.4-0.1c0,0.1-0.6,0.2-1.7,0.3c-0.2,0-0.3-0.1-0.3-0.1l-0.4,0.1l-0.2,0c-0.1-0.1-0.3-0.1-0.6-0.1
				c0,0.1,0,0.1-0.1,0.1l-0.4,0c-0.1,0-0.1,0-0.1,0l-0.1,0.1l-0.5,0c0,0-0.2,0-0.4,0.1c-0.3,0-0.5,0-0.6,0l-0.1,0.1
				c0,0-0.2,0-0.5-0.2l0,0.1l-0.1,0l0.1-0.1l-0.2,0l0,0.1l-0.2,0l-0.4,0c0,0-0.1,0.1-0.3,0.2c0,0-0.1-0.1-0.3-0.1l-0.1,0.1l-0.7,0.1
				l-0.2,0l-0.1,0.1l-1.4,0l-0.3,0.1c-1,0-1.6,0.1-1.9,0.1l-0.1,0c-0.7,0-1.1,0-1.2,0c-0.2,0-0.4,0.1-0.5,0.1c-0.2,0-0.5,0-0.8,0
				c-0.4,0.1-0.6,0.1-0.7,0.1h-0.5l-0.4,0c0,0-0.1,0-0.1,0c-0.1,0-0.1,0-0.1,0.1l-0.4,0c-0.3,0-0.6,0.1-1,0.1c-0.3,0-0.7,0-1.2,0
				l0-0.1l-0.1,0c0,0,0,0.1-0.1,0.1l-0.4,0c-0.6,0.1-0.9,0.1-1,0.1c0,0-0.1-0.1-0.2-0.1c0,0-0.1,0.1-0.2,0.2c-0.1,0-0.2,0-0.2-0.1
				l0.1-0.1l-0.1,0c-0.2,0-0.3,0.1-0.5,0.2l-0.2,0c-0.1,0-0.1,0-0.1,0l-0.1,0l-1.3,0.1l0-0.1l0.4,0l-0.1-0.1l-0.5,0.1l-0.4,0l0,0.1
				l-0.3,0c0,0-0.1,0-0.1,0l-0.2,0c-0.1,0-0.2,0-0.2,0l-0.1,0.1l-0.4,0l-1.3,0.1c0,0-0.2,0-0.4-0.1l-0.4,0c-0.3,0-0.4,0.1-0.4,0.2
				l0.4-0.1l0.2,0l0,0.1l-0.2,0c-0.6,0-0.9,0.2-0.9,0.4c-0.4,0.6-0.7,1-0.9,1.2c0,0.1-0.2,0.3-0.6,0.8c-0.2,0.6-0.5,0.8-0.7,0.9
				c-0.1,0-0.2,0-0.2,0l0,0.1c0.1,0,0.2,0,0.2,0.1c0,0.1-0.4,0.6-1.1,1.5c0,0.1-0.2,0.4-0.6,0.9c-0.1,0.3-0.3,0.5-0.4,0.6l-0.1,0
				l0,0.2l-0.4,0.4c0,0,0.1,0,0.1,0c-0.1,0-0.3,0.4-0.8,1.1c-0.3,0.5-0.5,0.8-0.8,1l-0.1,0l0,0.1c0.2,0,0.2,0,0.2,0.1l-0.3,0.1
				l0.1,0.1l0,0.1l-0.3,0l0,0.1c0.1,0.1,0.2,0.1,0.2,0.2c-0.1,0.1-0.2,0.2-0.3,0.3l-0.1,0c-0.3,0.4-0.6,0.8-0.7,1.1l-0.6,0.2
				l-0.1-0.1l0-0.1l0.4,0l0,0l-0.2-0.1l0-0.1c0.2-0.5,0.6-1.1,1.1-1.9c0-0.1,0.5-0.9,1.5-2.5c0.2-0.4,0.4-0.6,0.6-0.6l-0.1-0.1l0,0
				c0.3-0.2,0.5-0.5,0.7-1c0.1,0,0.2-0.1,0.2-0.4c0.8-0.9,1.3-1.7,1.7-2.5c0.1,0,0.3-0.2,0.6-0.6c0.2-0.3,0.4-0.7,0.7-1.2l-0.1,0
				c-0.3,0-0.4,0-0.5,0.1c-0.3,0-0.5,0-0.7,0l-0.3,0c-0.5,0-0.9,0.1-1.2,0.1l-0.5,0c-1.8,0.2-3,0.3-3.5,0.4l-0.1,0l-0.4,0.1l-0.2,0
				c-0.2,0-0.2,0-0.2,0l-0.4,0.1l-0.5,0l-0.4,0c-0.1,0-0.2,0.1-0.2,0.1l0-0.1c0,0-0.1,0-0.1,0.1l-0.4,0l-1,0.1
				c-1.7,0.1-2.6,0-2.7-0.5c-0.1,0-0.1-0.1-0.2-0.3c1.4-0.5,3-1.1,4.9-1.6c1.3-0.3,2.1-0.6,2.4-0.7c0.1,0,0.1,0,0.1,0
				c1.2-0.4,3.1-0.9,5.6-1.4l0.2,0c0.4,0.2,0.5,0.3,0.6,0.5c-2.4,0.5-5.4,1.3-8.9,2.4c-1.9,0.6-2.8,0.9-2.9,0.9l0,0
				c0.6,0,1.5,0,2.9-0.1l0.6,0c0.1,0,0.2,0,0.3,0c0.1,0,0.2-0.1,0.3-0.1c0.1,0,0.2,0,0.2,0l0.4-0.1l2.1-0.2c0.2,0,0.5-0.1,0.8-0.1
				c0,0,0.1,0,0.1,0l0.5-0.1l0.7-0.1c0.1,0,0.2,0,0.3,0c0,0,0.1,0,0.1-0.1c0.3,0,0.4,0,0.4,0c0.1,0,0.5-0.1,1.2-0.1l0.5,0
				c0.8-0.1,1.3-0.2,1.2-0.4c0.2-0.2,0.7-0.8,1.5-2c0.2-0.2,0.4-0.5,0.5-0.8c0.2,0,0.3-0.3,0.5-0.7c0.5-0.6,0.8-1,1-1.4
				c0.1,0,0.4-0.4,0.7-1.1c0.4-0.5,0.7-1,1-1.5c0.1,0,0.2-0.3,0.5-0.9c0.1-0.1,0.8-1.1,2.1-3.2C182,73.5,182.2,73.3,182.4,73.2z
				 M172.5,86.3L172.5,86.3l0.3,0l0-0.1L172.5,86.3z M177.5,85.8L177.5,85.8l0.3,0l0,0L177.5,85.8z M181.8,85.5L181.8,85.5l0.3,0
				l-0.1-0.1C181.9,85.5,181.9,85.5,181.8,85.5z M185.2,85.2L185.2,85.2l0.3,0l0,0L185.2,85.2z M191.2,84.8L191.2,84.8l0.5,0l0-0.1
				L191.2,84.8z M200.6,84.3L200.6,84.3l0.4,0l0-0.1C200.9,84.2,200.8,84.3,200.6,84.3z M203.1,84.2l0.1,0l0.4,0l0,0.1L203.1,84.2
				L203.1,84.2z M208.2,83.9c0,0.1,0.1,0.1,0.2,0.1l0.1-0.1L208.2,83.9z"/>
			<path class="st5" d="M166.1,97.9c-0.1,0-0.2,0-0.2-0.1l-0.1-0.1c-0.1-0.1-0.1-0.2-0.1-0.3c0-0.1,0-0.3,0.1-0.3
				c0,0,0.1-0.1,0.1-0.1c0,0,0-0.1,0-0.1c0.2-0.5,0.6-1.1,1.1-1.9c0.1-0.2,0.4-0.8,1.6-2.5c0.1-0.2,0.3-0.4,0.4-0.6
				c0-0.1,0.1-0.2,0.2-0.3c0.2-0.1,0.4-0.4,0.5-0.8c0-0.1,0.1-0.1,0.2-0.2c0,0,0-0.1,0-0.1c0-0.1,0-0.1,0.1-0.2
				c0.7-0.9,1.3-1.7,1.7-2.5c0-0.1,0.1-0.2,0.2-0.2c0,0,0.2-0.1,0.5-0.5c0.1-0.1,0.2-0.3,0.3-0.5h0c-0.2,0-0.4,0-0.5,0l-0.3,0
				c-0.5,0-0.9,0.1-1.2,0.1l-0.6,0c-1.7,0.2-2.9,0.3-3.4,0.4c-0.1,0-0.1,0-0.2,0l-0.1,0l-0.6,0.1c-0.1,0-0.2,0-0.3,0l-0.2,0.1
				l-0.6,0l-0.4,0c-0.1,0-0.2,0.1-0.3,0.1c0,0,0,0,0,0c0,0-0.1,0-0.1,0l-0.4,0l-1,0.1c-0.4,0-0.8,0-1.1,0c0,0,0,0,0,0
				c-0.5,0-1.6,0-1.9-0.6c-0.1-0.1-0.2-0.2-0.2-0.5c0-0.2,0.1-0.3,0.2-0.4c1.4-0.5,3.1-1.1,4.9-1.7c1.3-0.4,2.1-0.6,2.4-0.7
				c0,0,0.1,0,0.1,0c0.1,0,0.1,0,0.1,0c1.2-0.4,3.1-0.9,5.5-1.4l0.2,0c0.1,0,0.1,0,0.2,0c0.5,0.2,0.8,0.5,0.8,0.9
				c0,0.2-0.1,0.4-0.3,0.4c-2.4,0.5-5.4,1.3-8.9,2.4c-0.2,0.1-0.3,0.1-0.5,0.2c0.1,0,0.2,0,0.3,0l0.6,0c0.1,0,0.2,0,0.3,0
				c0.1,0,0.2,0,0.3,0c0,0,0.1,0,0.1,0c0.1,0,0.1,0,0.1,0l0.3,0l2.1-0.2c0.2,0,0.5-0.1,0.8-0.1c0,0,0.1,0,0.2,0l0.4-0.1l0.7-0.1
				c0,0,0.1,0,0.1,0c0,0,0.1,0,0.1,0c0.1,0,0.1,0,0.2,0c0.2,0,0.3,0,0.4,0c0.1,0,0.5-0.1,1.2-0.1l0.6,0c0.6,0,0.8-0.1,0.9-0.1
				c0-0.1,0.1-0.1,0.1-0.1c0.1-0.1,0.4-0.4,1.4-1.9c0.2-0.2,0.3-0.4,0.4-0.7c0-0.1,0.2-0.2,0.3-0.3c0,0,0.1-0.1,0.2-0.5
				c0,0,0-0.1,0.1-0.1c0.4-0.5,0.7-1,0.9-1.3c0-0.1,0.1-0.2,0.2-0.2c0,0,0.1-0.1,0.5-0.9c0.4-0.6,0.8-1.1,1-1.5c0,0,0.1-0.1,0.1-0.1
				c0-0.1,0.2-0.2,0.4-0.7c0-0.1,0.1-0.1,0.1-0.1c0,0,0.4-0.6,2-3.1c0.4-0.6,0.6-0.8,0.9-0.9l0.2,0c0,0,0.1,0,0.1,0
				c0.7,0.2,1,0.3,1.1,0.7c0,0.1,0,0.2-0.1,0.2l-4.8,7.3c0,0-0.1,0.1-0.1,0.1c0,0,0,0,0,0c0,0-0.1,0.2-0.6,0.9c0,0-0.1,0.1-0.1,0.1
				c0,0-0.2,0.3-1.2,1.7c-0.3,0.5-0.6,0.9-0.9,1.3c0.1,0,0.2,0,0.4,0l0.1,0c0.1,0,0.2,0,0.3,0c0,0,0.1,0,0.1,0l1-0.2
				c0.1,0,0.2,0,0.3,0l0,0c0,0,0.1,0,0.2,0l0.3,0c0.1,0,0.3,0,0.4,0l0.1,0c0.1,0,0.2,0,0.2,0c0.1,0,0.1,0,0.1,0l0.5-0.1
				c0,0,0,0,0.1,0c0,0,0.1,0,0.1,0c0.1,0,0.3,0,0.4,0c0,0,0.3,0,0.8-0.1c0.1,0,0.2,0,0.3,0c0.3-0.1,0.6-0.1,0.8-0.1l0.8-0.1
				c0.1,0,0.1,0,0.2,0c0.1,0,0.1,0,0.2,0c0.1,0,0.2,0,0.5,0l0.4,0c0.3-0.1,0.6-0.1,0.9-0.1c0.1,0,0.3,0,0.6,0l0.1,0l0.1,0
				c0.1,0,0.1,0,0.2,0c0.2,0,0.4,0,0.6,0c0.1,0,0.3,0,0.7-0.1c0,0,0.1,0,0.1,0c0,0,0.1,0,0.1,0c0.1,0,0.3,0,0.7,0
				c0.1,0,0.1-0.1,0.2-0.1l0.5,0l1.4-0.1l0.4,0l0.1,0c0.1,0,0.1,0,0.2,0l0.3,0c0.2,0,0.3,0,0.5,0l0.3,0l0.3-0.1c0.1,0,0.2,0,0.3,0
				c0,0,0,0,0.1,0l0.3,0l0.1,0c0.3,0,0.5-0.1,0.6-0.1l0.1,0c0.1,0,0.2,0,0.3,0c0,0,0.1,0,0.1,0l0.2,0c0.1,0,0.4,0,1,0l0.3-0.1
				c1.2,0,1.8,0,2,0l0.3-0.1c0.8-0.1,1.4-0.1,1.9-0.1l0.1,0c0.1,0,0.1,0,0.2,0l0.3,0l0.1,0c0,0,0.1,0,0.1,0l0.6,0c0.1,0,0.1,0,0.2,0
				l0,0c0,0,0.1,0,0.1,0c0.4,0,0.7,0,1,0l0.3,0l0.2,0c0.1-0.1,0.2-0.1,0.3-0.1c0.1,0,0.2,0,0.3,0c0,0,0.1,0,0.4,0
				c0.1-0.1,0.2-0.1,0.3-0.1c0.1,0,0.2,0,0.2,0.1l0.3-0.1c0.5,0,0.8,0,0.9,0c0.1,0,0.2-0.1,0.3-0.1c0,0,0.1,0,0.1,0
				c0.1,0,0.1,0,0.2,0c0,0,0,0,0,0l1,0c0,0,0.1,0,0.1,0l0,0c0.1,0,0.1,0,0.2,0c0.2,0,0.3,0,0.4,0c0.1-0.1,0.2-0.1,0.3,0
				c0,0,0.2,0,1.1,0c0.2,0,0.4,0.2,0.4,0.3l0,0.3c0,0.1,0,0.2-0.1,0.3l-0.1,0.1c-0.1,0.1-0.2,0.1-0.3,0.1c-0.2,0-0.4,0-0.6-0.1
				c0,0-0.1,0-0.1,0c0,0-0.1,0-0.1,0c-0.1,0-0.1,0-0.2,0l-0.1,0.1c0,0-0.1,0-0.1,0l-0.3,0c-0.1,0-0.2,0-0.3-0.1l-0.5,0l-0.8,0.1
				c-0.3,0-0.4,0-0.5,0l-0.4,0.1c0,0-0.1,0-0.1,0c-0.1,0-0.1,0-0.2,0c-0.2,0.1-0.4,0.1-0.7,0.2c-0.1,0-0.2,0-0.3-0.1
				c0,0-0.1,0-0.1,0c-0.1,0-0.1,0-0.2,0l-0.2,0c-0.1,0-0.1,0.1-0.2,0.1l-0.5,0c0,0-0.1,0-0.2-0.1c0,0-0.1,0-0.1,0l0,0c0,0,0,0-0.1,0
				c-0.3,0.1-0.8,0.2-1.8,0.3c-0.1,0-0.3,0-0.4-0.1l-0.4,0.1c-0.1,0-0.2,0-0.3-0.1c0,0,0,0-0.1,0c-0.1,0.1-0.2,0.1-0.3,0.1l-0.4,0
				c-0.1,0-0.1,0-0.1,0c0,0-0.1,0-0.2,0l-0.5,0c0,0-0.1,0-0.3,0.1c0,0-0.1,0-0.1,0c-0.2,0-0.4,0-0.5,0l-0.1,0c0,0-0.1,0-0.1,0
				c-0.1,0-0.1,0-0.3-0.1c0,0-0.1,0-0.1,0l-0.1,0c0,0,0,0-0.1,0c0,0,0,0,0,0l-0.2,0l-0.3,0c-0.1,0.1-0.2,0.1-0.3,0.1
				c-0.1,0-0.2,0-0.3,0c0,0,0,0,0,0c0,0,0,0,0,0l0,0c0,0-0.1,0-0.1,0l-0.7,0.1c0,0,0,0,0,0c-0.1,0-0.1,0.1-0.2,0.1l-1.4,0l-0.2,0.1
				c-1,0-1.6,0.1-1.9,0.1l-0.1,0c0,0-0.1,0-0.1,0c-0.7,0-1,0-1.2,0c-0.2,0-0.4,0.1-0.5,0.1c-0.2,0-0.5,0-0.9,0
				c-0.3,0.1-0.5,0.1-0.6,0.1c0,0-0.1,0-0.1,0l-0.9,0c0,0,0,0-0.1,0c0,0-0.1,0-0.1,0l-0.4,0c-0.2,0-0.6,0.1-0.9,0.1
				c-0.2,0-0.2,0-0.3,0c-0.2,0-0.6,0-0.9,0c0,0,0,0,0,0c-0.1,0-0.2,0.1-0.2,0.1l-0.4,0l-0.2,0c-0.4,0.1-0.7,0.1-0.7,0.1
				c-0.1,0-0.1,0-0.2,0c0,0-0.1,0-0.1,0.1c0,0-0.1,0-0.1,0c-0.2,0-0.3,0-0.4-0.1c0,0-0.1,0-0.1,0.1c0,0-0.1,0-0.1,0l-0.2,0
				c0,0-0.1,0-0.1,0l0,0l-1.4,0.1c-0.1,0-0.2,0-0.3-0.1c-0.1,0.1-0.2,0.1-0.3,0.1l-0.3,0c0,0-0.1,0-0.1,0l0,0c-0.1,0-0.1,0-0.2,0
				c-0.1,0.1-0.2,0.1-0.3,0.1l-0.4,0l-1.3,0.1c-0.1,0-0.2,0-0.3-0.1c-0.1,0.1-0.2,0.2-0.3,0.2l-0.2,0c-0.3,0-0.5,0.1-0.5,0.1
				c0,0,0,0.1,0,0.1c-0.3,0.5-0.6,0.9-0.9,1.2c-0.1,0.1-0.2,0.4-0.6,0.8c-0.2,0.5-0.4,0.8-0.6,0.9c0,0.2-0.3,0.5-1.1,1.6
				c0,0.2-0.2,0.5-0.6,0.9c-0.1,0.3-0.3,0.5-0.4,0.6c0,0.1,0,0.2-0.1,0.3l-0.2,0.2c0,0.1-0.1,0.2-0.2,0.3c0,0-0.1,0.1-0.7,1
				c-0.2,0.4-0.4,0.7-0.7,0.9c0,0.2-0.1,0.3-0.2,0.4c0,0,0,0.1-0.1,0.1c0,0,0,0,0,0c0,0.1,0,0.1,0,0.2c-0.1,0.2-0.3,0.4-0.5,0.4
				c0,0,0,0-0.1,0c-0.3,0.4-0.4,0.6-0.4,0.8c0,0.1-0.1,0.2-0.2,0.2l-0.6,0.2C166.2,97.8,166.2,97.9,166.1,97.9z M169.5,92.4
				c0,0-0.1,0.1-0.3,0.4c-0.8,1.2-1.2,1.8-1.4,2.1c0,0,0.1,0,0.1,0l0,0c0.1-0.1,0.3-0.3,0.6-0.7c0.4-0.5,0.6-0.8,0.7-1
				c0-0.1,0-0.2,0.1-0.3l0.3-0.3l0,0c0-0.1,0-0.2,0.1-0.3C169.7,92.4,169.6,92.4,169.5,92.4z M169.8,92.1c0,0,0,0.1,0,0.1
				c0,0,0,0.1,0,0.1c0.1-0.1,0.1-0.1,0.2-0.1c0,0,0.1-0.1,0.2-0.4c0,0,0-0.1,0.1-0.1c0.4-0.5,0.5-0.6,0.5-0.6c0-0.1,0-0.1,0.1-0.2
				c0.5-0.6,0.7-1,0.9-1.2c0-0.1-0.1-0.1-0.1-0.2c0,0,0,0,0,0c-0.3,0.4-0.6,0.8-1,1.3c0,0.2-0.1,0.4-0.3,0.5
				C170.2,91.6,170,91.9,169.8,92.1z M172.3,88.4c-0.1,0.2-0.2,0.4-0.4,0.7c0,0,0,0,0,0c0.1,0,0.1,0,0.2,0c0.1,0,0.2-0.2,0.4-0.6
				c0,0,0-0.1,0.1-0.1c0.4-0.4,0.5-0.6,0.5-0.7c0-0.1,0-0.1,0.1-0.2c0.2-0.2,0.5-0.6,0.8-1.1c0-0.3,0.3-0.4,0.5-0.5
				c0.1-0.1,0.2-0.2,0.3-0.2c0,0,0-0.1-0.1-0.2c0-0.1,0-0.2,0.1-0.3c0.5-0.5,0.9-1.1,1.3-1.8c0.9-1.4,1.2-1.7,1.3-1.8
				c0.5-0.7,0.7-1,0.8-1.1l4.6-6.9c-0.1,0-0.2-0.1-0.3-0.1l-0.1,0c0,0-0.1,0.1-0.4,0.5c-1.5,2.4-1.9,3-2.1,3.2
				c-0.3,0.5-0.4,0.8-0.6,0.9c-0.3,0.5-0.6,1-1,1.5c-0.3,0.7-0.6,1-0.7,1.1c-0.2,0.4-0.5,0.8-0.9,1.3c-0.1,0.3-0.3,0.7-0.6,0.8
				c-0.1,0.3-0.3,0.5-0.5,0.7c-0.8,1.3-1.2,1.7-1.4,1.9c-0.1,0.3-0.4,0.4-0.8,0.5c0,0,0,0,0,0c0.1,0.1,0.1,0.3,0.1,0.4
				c-0.2,0.5-0.5,0.9-0.7,1.2C172.6,88.1,172.4,88.3,172.3,88.4z M160.1,86.7c0,0,0.2,0.1,1.1,0.2c-0.1-0.1-0.2-0.2-0.2-0.3
				c0-0.1,0-0.2,0.1-0.3C160.8,86.4,160.5,86.5,160.1,86.7C160.1,86.7,160.1,86.7,160.1,86.7L160.1,86.7z"/>
		</g>
		<g>
			<path class="st5" d="M171.8,96.8L171.8,96.8c0.1,0,0.2,0,0.2,0.1l-0.1,0.1L171.8,96.8L171.8,96.8z M172.5,96.5l0.2,0
				c0,0.2-0.2,0.3-0.4,0.4l0-0.1C172.3,96.7,172.4,96.6,172.5,96.5z M179.5,86.6c0.3,0,0.6,0.2,0.9,0.7l0,0.1c0,0.1-0.1,0.1-0.2,0.2
				c-0.3,0-0.5-0.1-0.7-0.1c-1.7,0.5-3.2,1.4-4.3,2.5c-0.1,0.2-0.2,0.3-0.2,0.5c0.3,0.2,1.6,0.4,3.9,0.7c0.3,0,0.7,0.3,1.2,0.9
				l0,0.1c0.1,0.7-0.9,1.6-3,2.6c-0.1,0.1-0.4,0.3-0.9,0.6l-0.1-0.1l0.1,0l0-0.1l-0.1,0c0,0.2-0.2,0.4-0.6,0.6c-0.1,0-0.1,0-0.1-0.1
				c0-0.1,0.1-0.2,0.3-0.2l0-0.1l-0.2,0l-0.2,0.3c-0.1,0-0.2-0.1-0.2-0.1l-0.1,0.1c0.2,0,0.3,0.1,0.3,0.2c-0.1,0.1-0.2,0.1-0.3,0.2
				l-0.2,0c0,0-0.1,0-0.1,0l-0.1,0.1l-0.1,0l-0.1,0.1l0.1,0l0,0.1c0,0-0.1,0-0.2,0.1l-0.3,0l-0.8,0.4l-0.4,0.2l0-0.1
				c0-0.1,0.1-0.2,0.1-0.2c-0.1-0.1-0.1-0.1-0.1-0.2c0.2-0.2,1.4-0.9,3.5-2c1.2-0.8,1.8-1.2,1.9-1.3c0.6-0.4,0.9-0.7,1-1
				c-0.5-0.2-1.4-0.3-2.8-0.4c-1.4-0.2-2.1-0.8-2.2-1.6c0-0.3,0.3-0.8,1.1-1.4C177.1,87.3,178.5,86.7,179.5,86.6z M176,95.2
				l-0.1,0.1l0.2,0C176.1,95.2,176.1,95.2,176,95.2z"/>
			<path class="st5" d="M171.9,97.4c0,0-0.1,0-0.1,0c-0.1,0-0.2-0.1-0.2-0.2l-0.1-0.1c0,0,0-0.1,0-0.1c0-0.2,0.1-0.4,0.3-0.5
				c0,0,0.1,0,0.1,0c0,0,0.1,0,0.1,0c0.1-0.1,0.2-0.2,0.3-0.3c0.1,0,0.1-0.1,0.2-0.1l0.2,0c0.1-0.1,0.6-0.5,3.6-2.1
				c1.4-0.9,1.7-1.1,1.7-1.2c0-0.1,0-0.1,0.1-0.1c0.3-0.2,0.5-0.4,0.6-0.5c-0.5-0.1-1.3-0.2-2.3-0.3c-1.6-0.3-2.5-0.9-2.5-1.9
				c0-0.5,0.3-1,1.2-1.7c1.9-1.3,3.4-2,4.4-2.1c0,0,0,0,0,0c0.5,0,0.9,0.3,1.2,0.8c0,0.1,0.1,0.1,0.1,0.2c0,0.3-0.1,0.5-0.4,0.6
				c-0.1,0-0.2,0.1-0.2,0c-0.2,0-0.4-0.1-0.5-0.1l-0.1,0c-1.6,0.5-3,1.3-4,2.4c0.4,0.1,1.3,0.3,3.5,0.5c0,0,0,0,0,0
				c0.4,0,0.9,0.3,1.5,1.1c0,0.1,0.1,0.1,0.1,0.2c0.1,0.9-0.9,1.9-3.1,3c-0.1,0.1-0.4,0.3-1,0.7c0,0-0.1,0-0.1,0
				c-0.2,0.2-0.4,0.3-0.5,0.4c0,0-0.1,0-0.2,0c0,0,0,0,0,0c0,0,0,0-0.1,0.1c-0.2,0.1-0.4,0.2-0.5,0.2l-0.1,0
				c-0.1,0.1-0.2,0.2-0.3,0.2c-0.1,0-0.2,0.1-0.2,0.1l-0.2,0l-1.1,0.5c-0.1,0-0.2,0-0.3,0c0,0,0,0,0,0c-0.1,0-0.2,0.1-0.3,0.1
				c0,0,0,0,0,0c0,0-0.1,0.1-0.1,0.1l-0.1,0.1C172,97.4,171.9,97.4,171.9,97.4z M176.4,94.8C176.4,94.8,176.5,94.8,176.4,94.8
				c0.4-0.2,0.5-0.3,0.5-0.3c0,0,0.1-0.1,0.1-0.1c2.4-1.2,2.8-1.9,2.8-2.2c-0.1-0.1-0.2-0.2-0.3-0.3c0,0,0,0.1,0,0.2
				c-0.1,0.4-0.4,0.9-1.1,1.3c-0.1,0.2-0.5,0.4-1.9,1.3C176.5,94.7,176.5,94.7,176.4,94.8z M175.6,91c0.2,0.1,0.5,0.2,0.9,0.2
				c1.3,0.1,2.3,0.2,2.8,0.4c-0.2-0.1-0.3-0.2-0.3-0.2C177.2,91.3,176.2,91.1,175.6,91z M179.5,87c-0.9,0.1-2.2,0.7-4,2
				c-0.9,0.7-0.9,1-0.9,1c0,0.1,0,0.2,0.1,0.3c0-0.2,0.1-0.4,0.2-0.5c1.2-1.2,2.7-2.1,4.5-2.7c0.2,0,0.3,0,0.4,0
				C179.6,87,179.5,87,179.5,87z"/>
		</g>
	</g>
	<g>
		<g>
			<path class="st5" d="M48.7,53.1H16.4V67h-4.8V48.5h39c2.4,0,3.6,1.3,3.6,3.9V67h-4.8V55.2C49.4,54.3,49.2,53.6,48.7,53.1z"/>
			<path class="st5" d="M157.9,53.1h-32.4V67h-4.8V48.5h39c2.4,0,3.6,1.3,3.6,3.9V67h-4.8V55.2C158.5,54.3,158.3,53.6,157.9,53.1z"
				/>
			<path class="st5" d="M64.3,59.8V67h-4.8V52.4c0-2.6,1.2-3.9,3.7-3.9H102v4.5H65.2c-0.4,0.4-0.8,0.9-0.9,1.4v0.7H102v4.6H64.3z"/>
			<path class="st5" d="M179.4,48.1H222v4.6h-19v13.9h-4.8V52.7h-18.7V48.1z"/>
			<path class="st5" d="M234.2,59.4v1.2l0.7,0.9H272v5.1h-38.9c-2.4,0-3.7-1.5-3.7-4.5V52c0-2.6,1.2-3.9,3.7-3.9H272v4.6h-36.9
				c-0.4,0.4-0.8,0.9-0.9,1.4v0.7H272v4.6H234.2z"/>
		</g>
		<rect y="48.6" class="st5" width="4.8" height="18.5"/>
		<rect x="109.1" y="48.6" class="st5" width="4.8" height="18.5"/>
		<rect x="169.3" y="48.6" class="st5" width="4.8" height="18.5"/>
	</g>
	<g>
		<linearGradient id="SVGID_6_" gradientUnits="userSpaceOnUse" x1="75.1036" y1="20.4527" x2="186.7217" y2="20.4527">
			<stop  offset="0" style="stop-color:#FFDD15"/>
			<stop  offset="0.17" style="stop-color:#C9B000"/>
			<stop  offset="0.355" style="stop-color:#FFDD15"/>
			<stop  offset="0.58" style="stop-color:#C9B000"/>
			<stop  offset="0.77" style="stop-color:#FFDD15"/>
			<stop  offset="1" style="stop-color:#C9B000"/>
		</linearGradient>
		<path class="st6" d="M183.7,35c0.1-0.2,0.2-0.3,0.1-0.5c-0.1-0.2-0.2-0.5-0.3-0.7c-0.2,0.1-0.4,0.3-0.6,0.4
			c-0.1,0-0.1,0.1-0.1,0.1c-0.2,0.3-0.6,0.4-1,0.2c-0.5-0.2-1-0.4-1.4-0.6c-0.2,0.1-0.4,0.3-0.7,0.3c-0.2,0.1-0.5,0.1-0.8,0.1
			c-0.6,0.1-1.7,0.9-1.8,1.3c-0.2,0-0.4,0-0.6-0.1c0.1,0,0.1-0.1,0.1-0.1c-0.6-0.9-1.6-0.6-2.5-0.5c0.4,0.7,1.4,0.3,2.1,0.6
			c-0.5,0-0.8,0-1.1,0c0,0,0,0,0,0c0.3,0,0.6,0,0.9,0c-0.7,0.1-1.4,0.1-2,0.1c-0.1,0-0.3,0.1-0.4,0.1c-0.2,0-0.3,0.1-0.5,0
			c-0.2,0-0.3-0.2-0.4-0.3c-1-0.2-2-0.4-3-0.6c0,0-0.1,0.1-0.1,0.1c0.4,0.2,0.8,0.5,1.2,0.7c0,0-0.1,0.1-0.1,0.1
			c-0.4,0-0.7-0.1-1.2-0.1c0.2,0.3,0.3,0.4,0.4,0.6c-0.1,0-0.1,0.1-0.2,0.1c-0.2-0.2-0.5-0.3-0.6-0.5c-0.1-0.2-0.2-0.4-0.3-0.6
			c-0.1-0.2-0.2-0.5-0.4-0.8c-0.1,0-0.3,0-0.5-0.1c-1.6-0.4-3.3-0.8-4.8-1.3c-0.8-0.2-1.4-0.7-2.1-1.1c-0.1-0.1-0.4-0.2-0.5-0.1
			c-0.2,0.3-0.4,0-0.5-0.1c-0.3-0.2-0.5-0.4-0.7-0.6c-0.7-0.4-1.6-0.7-1.7-1.5c0.4,0.2,0.9,0.4,1.3,0.6c-0.5-0.5-0.8-1.2-1.9-1.3
			c0.1,0.1,0.1,0.1,0.2,0.2c-0.4,0-0.8,0.1-1.3,0.1c0,0.1-0.1,0.1-0.1,0.2c-1-0.8-2-1.5-3-2.3c0.1,0.1,0.2,0.2,0.3,0.4
			c0,0-0.1,0.1-0.1,0.1c-0.1,0-0.3-0.1-0.3-0.1c-0.4-0.4-0.9-0.8-1.3-1.2c-0.6-0.6-1.1-1.2-1.7-1.8c-0.2-0.2-0.7-0.4-1.1-0.5
			c-0.1,0-0.3,0.3-0.5,0.5c0,0-0.1,0-0.1,0.1c-0.8-0.5-1.5-1-2.3-1.5c-0.7-0.4-1.1-1.1-2-1.4c-0.2-0.1-0.5-0.1-0.8-0.1
			c0.3,0.5,1.3,0.5,1.2,1.1c-0.4-0.2-0.7-0.4-1-0.6c0,0,0,0-0.1,0c0.1,0.1,0.2,0.3,0.3,0.4l0,0l0,0c0,0,0,0,0,0
			c-0.2,0.1-0.4,0.2-0.5,0.2c-0.3-0.1-0.5-0.2-0.7-0.4c-0.1-0.2-0.2-0.4-0.2-0.7c0.3-0.2,0.3-0.3,0-0.6c-0.5-0.4-1.2-0.6-1.4-1.2
			c0-0.1-0.1-0.1-0.2-0.1c-0.8-0.2-1.3-0.7-1.9-1.1c-0.6-0.5-1.4-1-2-1.6c-0.2-0.2-0.4-0.5-0.6-0.7c-0.1-0.1-0.3-0.2-0.4-0.3
			c-1-0.2-1.4-0.5-1.5-1.1c0.2,0.1,0.5,0.2,0.8,0.4c0-0.2,0-0.3,0-0.4c-1-0.9-2-1.8-3-2.7c-0.1-0.1-0.1-0.2-0.2-0.2
			c0.2,0,0.5-0.1,0.7-0.1c0.5,0.6,0.6,0.6,1,0.6c-0.3-0.5-0.7-0.9-1-1.4c0.6,0,0.8,0.3,0.9,0.6c0.1,0.3,0.1,0.6,0.7,0.8
			c0-0.2,0-0.4-0.1-0.4c-0.6-0.4-0.5-1-1.3-1.3c-0.6-0.2-0.7-0.9-0.5-1.4c0.1,0.1,0.1,0.3,0.2,0.4c0.1,0.3,0.1,0.6,0.7,0.6
			c0.1,0,0.2,0.1,0.3,0.1c0.4,0.3,0.8,0.5,1.2,0.8c0.3,0.2,0.6,0.5,0.9,0.7c0,0,0,0.1,0.1,0.2c-0.1-0.1-0.2-0.1-0.3-0.2
			c-0.3,0.4,0.2,0.3,0.4,0.4c0.1,0,0.2,0.1,0.4,0.1c-0.3,0.2,0,0.4,0.2,0.6c0.7,0.6,1.4,1.1,2.1,1.6c0,0,0.1,0.1,0.1,0
			c0.6-0.1,0.6,0.2,0.7,0.4c0.4,0.7,0.9,1.4,1.8,2c0.1,0.1,0.2,0.2,0.2,0.2c1,0.8,2,1.6,3,2.4c0.1,0.1,0.4,0.1,0.6,0.1
			c0.1-0.1,0.1-0.1,0.2-0.2c-0.3-0.1-0.6-0.3-0.8-0.5c-1.1-0.7-2.1-1.5-2.6-2.5c-0.1-0.1-0.2-0.2-0.4-0.4c-1.3-1.1-2.5-2.2-3.8-3.2
			c-0.1-0.1-0.2-0.2-0.2-0.2c0.2-0.4-0.3-0.5-0.6-0.7c-1.2-0.7-1.9-1.7-2.7-2.6c-0.3-0.4-0.4-0.9-1.1-1.1c-0.2-0.1-0.5-0.2-0.5-0.3
			c0-0.4-0.4-0.5-0.7-0.6c-0.3-0.1-0.6-0.2-0.9-0.4c0.2-0.1,0.3-0.2,0.6-0.3c-0.7-0.1-0.7-0.1-0.9-0.5c-0.1-0.2-0.2-0.3-0.3-0.5
			c-0.3-0.4-0.5-0.8-0.1-1.3c-0.4,0-0.7,0-0.9,0.1c-0.5,0.7,0.1,1.3,0.2,1.9c-0.2-0.2-0.4-0.5-0.5-0.7c-0.1-0.3-0.2-0.7-0.4-1
			c-0.1-0.2-0.3-0.5-0.5-0.7c-0.1,0-0.2,0-0.2,0.1c0.3,1.2,0.6,2.5,0.9,3.8c-0.1-0.1-0.2-0.1-0.2-0.1c-0.3-0.5-0.7-0.9-1.3-1.2
			c-0.1,0-0.1-0.1-0.1-0.2c0.1,0,0.2-0.1,0.3-0.1c0.1,0,0.3,0,0.4,0.1c0,0,0-0.1,0-0.1c-0.2-0.1-0.5-0.2-0.7-0.2
			c-0.2-0.1-0.5-0.1-0.3-0.4c0.3,0.1,0.5,0.2,0.8,0.3c-0.1-0.6-0.2-1.1-0.3-1.7c-0.1-0.4-0.4-0.5-0.8-0.4c-0.6,0.1-0.9,0.1-1.3-0.3
			c0.2,0,0.5,0.1,0.6,0c0.5-0.2,0.9-0.1,1.4,0.1c-0.2-0.2-0.3-0.4-0.6-0.5c-0.3-0.1-0.6-0.1-0.9-0.1c-0.2,0-0.3-0.1-0.5-0.1
			c0.2-0.1,0.3-0.2,0.5-0.3c0.1,0,0.1,0,0.2,0c0,0,0-0.1,0-0.1c-0.1,0-0.3,0-0.4,0c-0.3,0-0.7,0.2-1,0.1c-0.6-0.1-1.3-0.4-1.9-0.5
			c-0.2-0.1-0.5-0.1-0.7-0.1c0,0-0.1,0.1,0,0.1c0.2,0.1,0.4,0.2,0.6,0.3c0,0,0.1,0,0.1,0c0.6,0.2,1.1,0.3,1.7,0.5
			c0.1,0,0.1,0.2,0.2,0.2c-0.8-0.2-1.5-0.4-2.2-0.6c-0.5-0.2-1-0.5-1.6-0.7c-0.4-0.1-0.4-0.2-0.1-0.4c-0.3-0.1-0.5-0.1-0.8-0.2
			c0,0.1,0,0.3,0,0.5c-0.9-0.3-1.8-0.5-2.7-0.7c-1.2-0.4-2.4-0.5-3.6-0.6c-0.3,0-0.4,0-0.5-0.3c0-0.3-0.9-0.5-1.2-0.4
			c-0.8,0.4-1.5,0.2-2.2,0c-0.2,0-0.3-0.1-0.5-0.2c-0.1,0.5-0.8,0.8-1.4,0.7c-0.3,0-0.6,0-0.9,0c-0.4,0-0.8,0.1-1.1,0
			c-0.5-0.1-1-0.2-1.4-0.3c-0.2,0.1-0.5,0.4-0.6,0.3c-0.5-0.1-1.2,0-1.4-0.5c0-0.1-0.1-0.2-0.2-0.2c-0.1,0-0.1,0.1-0.2,0.1
			c0.1,0.2,0.3,0.4,0.4,0.6c-1.1-0.1-2.1-0.1-3.2-0.2c-0.4,0-0.8-0.1-1.2-0.2c-0.6-0.2-1.1-0.5-1.7,0.1c-0.1,0.1-0.2,0-0.4,0.1
			c0.2,0.1,0.5,0.1,0.7,0.2c0.3,0.1,0.6,0.2,0.8,0.3c0.3,0.2,0.4,0.4,0.9,0.3c0.1,0,0.3,0.1,0.6,0.3c-0.4,0.1-0.6,0.2-0.7,0.2
			c-0.5,0-1-0.1-1.5-0.2c-0.4-0.1-0.7-0.1-0.7,0.1c-0.8,0-1.6-0.1-2.4-0.1C93,1.9,93,2.1,93.1,2.4c-0.1,0-0.1,0-0.2,0
			c-0.1-0.2-0.2-0.3-0.4-0.6c-0.1,0.2-0.1,0.3-0.1,0.3c-0.2,0-0.5,0.1-0.7,0.1c-0.1-0.1-0.2-0.1-0.3-0.2c0,0.2,0,0.3-0.1,0.5
			c-0.5-0.2-1-0.3-1.4-0.4c-0.3,0-0.7,0.1-0.9,0.3c-0.1,0.1,0,0.4,0.2,0.5c0.2,0.3,0.5,0.6,0.8,0.8c0,0-0.1,0.1-0.1,0.1
			c-2.8-0.5-5.6-0.3-8.4-0.3c0,0,0.1,0.1,0.1,0.1c0.5,0.2,1.1,0.5,1.6,0.7c0,0.1-0.1,0.1-0.1,0.2c-0.2,0-0.5,0-0.7,0
			c-1.2-0.1-2.4-0.3-3.6-0.5c-0.2,0-0.5,0-0.7,0c0,0,0,0.1,0,0.1c1.8,0.3,3.6,0.4,5.1,0.9c0,0.3,0,0.6-0.1,0.8
			c0,0.1-0.1,0.3-0.2,0.4c-0.8,0.4-1.8,0.3-2.7,0.3c-0.4,0-0.8,0-1.2,0c0,0.1,0,0.1,0,0.2c0.2,0,0.4,0.1,0.6,0.1c0.8,0,1.7,0,2.5,0
			c0.7,0,1.4,0,2.2,0c0,0,0,0.1,0,0.1C83.2,7.7,82,8,80.6,8c0.1-0.1,0.2-0.2,0.3-0.3c0,0-0.1-0.1-0.1-0.1c-0.4,0.1-0.9,0.2-1.4,0.4
			c0.7,0.2,1.3,0.5,2,0.3c0.3-0.1,0.8,0,1.2,0.1c-0.1,0.2-0.2,0.3-0.1,0.3c0.3,0.6-0.4,0.7-0.8,0.8c-1,0.2-2.1,0.4-3.1,0.6
			c-0.4,0.1-0.8,0.2-1.2,0.3c0,0,0,0.1,0,0.1c0.6,0,1.3,0.1,1.8-0.3c0.1-0.1,0.3-0.1,0.5,0c0.1,0,0.2,0.2,0.2,0.2
			c-0.1,0.1-0.3,0.2-0.4,0.2c-0.9,0.1-1.8,0.2-2.7,0.3c-0.3,0-0.7,0.2-1,0.3c0,0.1,0,0.1,0,0.2c0.2,0,0.5,0.1,0.7,0.1
			c0.9,0,1.8,0.1,2.7,0.1c0.4,0,0.7,0.1,1.2,0.2c-0.7,0.5-1.4,0.7-2.2,0.5c-0.1,0-0.3,0-0.4,0c-0.1,0.1-0.2,0.2-0.3,0.3
			c0.1,0,0.2,0.1,0.4,0.1c0.4,0,0.8,0,0.8,0.4c0,0.4-0.3,0.6-0.7,0.6c-0.7,0-1.4,0-2.2,0.1c-0.2,0-0.4,0.1-0.6,0.1c0,0,0,0.1,0,0.1
			c1.3,0,2.5,0,3.9,0c-0.5,0.2-1,0.3-1.2,0.5c-0.3,0.3-0.6,0.7-1.3,0.5c0.1,0.1,0.2,0.1,0.2,0.2c0.3,0.1,0.6,0.3,0.9,0.4
			c0.7,0.3,0.7,0.5,0.1,0.9c0.4,0.4,0.4,0.4,0.2,0.9c0,0.1,0,0.1,0,0.2c-0.1,0.6-0.1,1.2-0.2,1.8c0,0.1-0.2,0.3-0.3,0.4
			c-0.1-0.1-0.2-0.3-0.2-0.4c0-0.4,0.1-0.8,0.1-1.2c0-0.1,0-0.4-0.1-0.4c-0.5-0.2-0.5-0.5-0.5-0.8c0-0.2-0.1-0.3-0.2-0.5
			c-0.2,0.4-0.3,0.7-0.1,1.1c0.2,0.6,0,1.2,0,1.8c0,0.2-0.1,0.4-0.1,0.6c0.1,0.7,0.2,1.4,0.2,2.1c0,0.2-0.1,0.5-0.1,0.7
			c-0.1,0-0.1,0-0.2,0c-0.1-0.1-0.1-0.2-0.2-0.2c-0.1-0.1-0.1-0.2-0.2-0.2c-0.3,0.6-0.2,0.7,0.4,1.1c0.2,0.1,0.3,0.4,0.3,0.4
			c-0.4,0.3-0.1,0.6,0,0.8c0.1,0.5,0.4,0.9,0.5,1.4c0.2,0.6,0.4,1.2,1.1,1.7c0.1,0,0.1,0.1,0.1,0.2c0.2,0.4,0.3,0.8,0.5,1.2
			c0,0.1,0,0.2,0,0.4c-0.2,0-0.4,0-0.5,0c0,0.1,0.1,0.3,0.1,0.4c-0.2,0.4,0.1,0.7,0.8,0.6c0.1,0.2,0.1,0.5,0.2,0.8
			c-0.2-0.1-0.4-0.3-0.5-0.4c0.3,0.5,0.7,1,1.2,1.5c0.1,0.1,0.4,0.1,0.6,0.2c0,0.1,0,0.2,0,0.4c0,0,0.1,0,0.1,0c0-0.1,0-0.2,0.1-0.2
			c0.3,0.1,0.7,0.1,0.9,0.3c0.3,0.1,0.5,0.3,0.7,0.5c0.2,0.2,0.4,0.5,0.3,0.6c-0.3,0.3-0.6,0-0.8-0.1c0,0-0.1,0-0.2,0
			c0.4,0.3,0.8,0.6,1.2,0.9c0,0,0,0.1,0,0.1c-0.2,0-0.5,0-0.7,0c-0.4-0.1-0.8-0.2-1.1-0.3c0,0,0,0.1-0.1,0.1
			c0.3,0.3,0.5,0.5,1.1,0.6c0.7,0.1,1.2,0.6,1.8,0.9c0.2,0.1,0.3,0.3,0.5,0.3c0.7,0.3,1.4,0.6,2.1,0.9c0.2,0.1,0.4,0.3,0.6,0.4
			c0,0-0.1,0.1-0.1,0.1c-0.3,0-0.5,0-0.9,0c0.3,0.4,0.7,0.5,1.2,0.4c0.2-0.1,0.5,0,0.7,0.1c0.2,0.1,0.3,0.3,0.5,0.3
			c0.6,0.2,1.3,0.4,2,0.5c0.7,0.1,1.3,0.1,2,0.2c0.2,0,0.3,0,0.5,0.1c0.3,0.1,0.6,0.2,0.9,0.2c0.2,0.1,0.5,0.1,0.7,0.1
			c0,0,0,0.1,0,0.1c-0.2,0.1-0.4,0.2-0.6,0.3c0.2,0.1,0.7,0.1,0.3,0.4c0.1,0,0.1,0,0.2,0c0.5-0.1,0.9-0.3,1.5-0.4
			c0.7,0.2,1,0.2,1.4-0.2c-0.7,0-1.2,0-1.8,0c0,0,0-0.1,0-0.1c0.5-0.1,0.9-0.1,1.4-0.2c0-0.1,0-0.1,0-0.2c-0.4,0-0.9,0.1-1.3,0.1
			c0.6-0.5,1.4-0.4,2.1-0.5c0.7-0.1,1.4,0,2.1-0.1c1.4-0.2,2.7-0.4,4.1-0.7c-0.5,0.4-1.1,0.7-1.8,0.7c-0.7,0-1.4,0.1-2.1,0.4
			c-0.3,0.1-0.7,0.2-1.1,0.2c-0.5,0-1,0.1-1.5,0.1c0,0,0,0.1,0,0.1c0.3,0,0.7,0,0.9,0c0,0.2,0,0.3,0,0.5c-0.8,0.1-1.7,0.1-2.6,0.2
			c0,0,0,0.1,0,0.1c0.9,0,1.7,0,2.6-0.1c0.4,0,0.6-0.5,1.1-0.1c0-0.2-0.1-0.3,0-0.3c0.4-0.2,0.7-0.4,1.1-0.5
			c0.6-0.2,1.2-0.3,1.7-0.4c0.3-0.1,0.6-0.1,0.9-0.1c0,0.1,0.1,0.1,0.1,0.2c-0.5,0.2-1,0.5-1.5,0.7c1.3-0.2,2.5-0.5,3.7-0.8
			c0.6-0.2,1.3-0.4,1.9-0.6c1.2-0.3,2.3-0.8,3.5-1.2c0.9-0.3,1.7-0.8,2.5-1.1c2.9-1.3,5.8-2.6,8.6-3.9c0.2-0.1,0.3-0.2,0.4-0.2
			c0,0-0.1-0.1-0.1-0.1c-1,0.4-2,0.8-3,1.2c0,0-0.1-0.1-0.1-0.1c2.4-0.9,4.7-2,6.6-3.5c-0.3,0.1-0.5,0.1-0.7,0.2
			c2.9-1.4,6.1-2.5,8.7-4.2c0,0-0.1-0.1-0.1-0.1c-1.4,0.7-2.9,1.4-4.3,2.1c0,0,0,0,0,0c0.6-0.4,1.1-0.7,1.7-1.1
			c-2,0.7-3.4,2.1-5.6,2.5c1.9-0.7,3.6-1.6,4.9-2.9c-0.2,0-0.3,0.1-0.5,0.2c-1.6,0.9-3.3,1.8-4.9,2.7c-0.9,0.5-1.9,0.9-2.9,1.3
			c-1.1,0.5-2.2,0.9-3.3,1.4c-0.4,0.2-0.8,0.5-1.2,0.6c-2.2,1-4.4,2-6.7,2.8c-1.9,0.7-3.9,1.2-5.9,1.9c-1,0.3-2.2,0.4-3.1,1
			c0,0-0.1,0-0.1,0c0-0.1,0.1-0.1,0.1-0.1c-1.1,0-2.2,0-3.3,0.1c-0.3,0-0.7,0.1-1,0.1c-0.3,0-0.6,0.1-0.8,0.1
			c-1.1-0.1-2.1-0.3-3.2-0.4c-0.5-0.1-1-0.3-1.5-0.4c0.3-0.1,0.6-0.1,0.9-0.2c0.4-0.2,0.8-0.2,1.2,0c1.7,0.5,3.5,0.6,5.3,0.5
			c3-0.2,5.8-1,8.5-1.9c4-1.3,7.9-2.9,11.6-4.6c2.8-1.3,5.5-2.7,8.2-4.1c0.2-0.1,0.3-0.2,0.4-0.3c0,0-0.1-0.1-0.1-0.1
			c-0.5,0.2-1.1,0.3-1.5,0.6c-0.6,0.3-1.2,0.7-1.8,1c-3.4,1.8-7,3.4-10.7,4.9c-2.7,1-5.4,1.9-8.1,2.8c-1.5,0.5-2.9,1-4.6,1.1
			c-1.4,0.1-2.9,0.2-4.3,0.4c0,0-0.1,0-0.1,0c0.1-0.1,0.1-0.2,0.2-0.3c-0.7-0.1-1.4-0.1-2.2-0.2c0.4-0.1,0.8-0.2,1.1-0.3
			c0,0,0-0.1,0-0.1c-0.3,0-0.7,0-1,0.1c-0.8,0.1-1.1,0-1.3-0.4c1.9,0.1,1.9,0.1,2.3-0.3c-0.4,0-0.7,0-1.1,0c-0.7,0-1.4,0-2.1-0.2
			c-0.6-0.2-1.4-0.1-1.9-0.6c0,0-0.2,0-0.3,0c-0.1,0-0.3,0-0.4,0c-1.2-0.5-2.5-0.9-3.7-1.4c-0.5-0.2-0.8-0.6-1.1-0.9
			c-0.9-0.9-1.7-1.7-2.6-2.6c-0.2-0.2-0.3-0.3-0.4-0.5c-0.1-0.2-0.2-0.4-0.3-0.5c-0.5-0.1-0.6-0.4-0.8-0.7c-0.4-1-0.9-2-1.3-3
			c-0.2-0.5-0.1-1.1-0.1-1.7c0-0.2,0-0.5,0-0.8c-0.1,0.1-0.2,0.2-0.2,0.2c-0.2-0.4,0.3-0.4,0.6-0.5c0,0.2,0.1,0.4,0.1,0.6
			c0.6,1.9,1.1,3.7,2.2,5.5c0.8,1.4,2,2.6,3.5,3.6c1.8,1.3,4.1,2.1,6.5,2.6c0.8,0.2,1.6,0.1,2.5,0.1c0.1,0,0.2-0.1,0.3-0.1
			c-0.1-0.1-0.1-0.2-0.2-0.3c-0.4-0.3-0.8-0.1-1.2-0.1c-2.5-0.3-4.8-1-6.6-2.4c-0.1-0.1-0.2-0.3-0.4-0.3c-0.9-0.2-1.4-0.7-2-1.2
			c-0.2-0.1-0.4-0.2-0.5-0.4c-0.3-0.4-0.6-0.9-0.9-1.4c-0.4-0.5-0.9-1-1.1-1.6c-0.5-1.1-0.8-2.3-1.2-3.4c-0.2-0.8-0.5-1.6,0-2.4
			c0.1-0.2,0.2-0.5,0.2-0.7c0.1-0.4,0.1-0.8,0.1-1.3c0-0.4,0.5-0.7,0.3-1.1c0,0,0.1-0.1,0.1-0.2c0.1,0.3,0.1,0.5,0.2,0.8
			c0.4-0.2,0.5-0.4,0.2-0.6c-0.3-0.2-0.2-0.3-0.1-0.5c0.1-0.4,0.5-0.9-0.2-1.3c-0.1,0-0.1-0.2,0-0.3c0,0,0.2,0,0.3,0
			c0.1,0,0.2,0.1,0.4,0.1c0-0.4,0.1-0.7,0.1-1c0-0.5,0.2-0.8,0.5-1.2c0.5-0.6,1-1.2,1.4-1.8c0.1-0.2,0.1-0.4,0.2-0.6
			c-0.4,0.1-0.6,0.1-0.8,0.2c0,0,0,0-0.1-0.1c0.7-0.5,1.4-1.1,2.3-1.7c-0.5,0.1-0.8,0.2-1.1,0.3c-0.4-0.2-0.8-0.3-1.1-0.5
			c-0.1-0.1-0.1-0.3-0.2-0.4c0.2,0,0.4-0.1,0.6-0.1c0.1,0,0.2,0.1,0.3,0.2c0.5,0.4,0.7,0.4,1.2,0c0.2-0.1,0.3-0.2,0.5-0.3
			c0.5,0.3-0.1,0.9,0.9,0.9c-0.1,0.2-0.2,0.3-0.3,0.5c0.8-0.7,1.6-1.3,2.4-1.9c0.1,0,0.1-0.1,0.1-0.2c-0.1,0-0.2,0-0.3,0
			c0.2-0.5,0.3-0.5,0.7-0.4c0.5,0.1,0.8,0,0.9-0.4C91.3,8,91.5,8,91.7,7.9c0.2-0.1,0.4-0.1,0.6-0.2c-0.4,0.3-0.4,0.3-0.1,0.4
			c0.2,0,0.3,0,0.6-0.1c-0.4,0.2-0.8,0.4-1.1,0.5c0,0,0,0,0.1,0.1c0.2,0,0.4,0,0.7-0.1c-0.2,0.1-0.3,0.2-0.4,0.3
			c1.2-0.2,2.7-1,2.8-1.5c-0.5,0-1-0.1-1.4-0.1c-0.2,0.1-0.4,0.1-0.6,0.2c0.2-0.1,0.4-0.3,0.7-0.4c0.1-0.1,0.2-0.2,0.3-0.3
			c1.6,0.2,3.2,0,4.7-0.6c0-0.3,0.6-0.6,1-0.5c0.8,0.2,1.6,0,2.4,0c0.8-0.1,1.6-0.4,2.4,0c0.3-0.3,0.5-0.4,1-0.3
			c1.3,0.3,2.6,0.6,4,0.8c0.1,0,0.2,0,0.3,0.1c0.3,0.1,0.5,0.3,0.8,0.4c0.8,0.3,1.7,0.5,2.5,0.8c0.8,0.3,1.6,0.6,2.4,0.9
			c0,0,0,0.1-0.1,0.1c-0.9-0.3-1.9-0.6-2.8-1c0,0,0,0.1-0.1,0.1c0.6,0.2,1.3,0.4,1.9,0.7c0.6,0.2,1.2,0.5,1.7,0.8
			c0.7,0.3,1.4,0.6,2,0.9l0,0c0,0,0,0,0,0c0,0,0,0,0,0h0c0,0,0,0,0,0c0,0,0,0,0,0c0.1,0.1,0.2,0.2,0.3,0.3c-0.2,0-0.3,0.1-0.5,0.1
			c0.7,0.3,1.5,0.6,2.1,0.9c0.6,0.3,1,0.8,1.6,1.2c0.6,0.4,1.2,0.8,1.8,1.2c0.4,0.4,0.9,0.8,1,1.2c0.1,0.3,0.2,0.6,0.5,0.7
			c0.5,0.3,0.7,0.6,0.9,1c0.1,0.2,0.3,0.4,0.6,0.3c0.1,0,0.3,0.1,0.4,0.1c0.4,0.4,0.8,0.9,1.2,1.3c0.4,0.4,0.3,1-0.2,1.4
			c0.2,0.2,0.5,0.4,0.7,0.6c0.4-0.2,0.6-0.3,0.9-0.4c0.5-0.1,0.4,0.3,0.6,0.4c1.2,1.1,2.3,2.3,3.7,3.3c1.3,0.9,2.6,1.7,3.9,2.6
			c0.1,0.1,0.1,0.1,0.2,0.2c0,0,0,0,0,0l0,0c0,0,0,0,0.1,0c0,0,0,0-0.1,0c1.5,0.9,3,1.8,4.5,2.8c1.7,1.1,3.6,2,5.3,3
			c1.1,0.7,2.2,1.4,3.3,2c2.4,1.3,5.2,1.9,7.8,2.8c0,0,0.1,0,0.2,0c-0.1-0.1-0.2-0.1-0.4-0.3c2.2,0.4,4.2,1.1,6.4,1.2
			c-0.9-0.2-1.8-0.4-2.7-0.6c1.5-0.1,2.7,0.7,4.2,0.4c0.5,0.3,1.2,0.2,1.8,0.2c1.5,0.1,3,0.2,4.4,0.2c1.5,0.1,3,0.1,4.5,0.1
			c0.8,0,1.7,0,2.5,0c0,0,0-0.1,0-0.1c-0.3,0-0.6,0-0.9,0c-0.3,0-0.5,0-0.8,0c0,0,0-0.1,0-0.1c0.1,0,0.2,0,0.4,0
			c1.9,0,3.6-0.4,5.4-0.9c0.3-0.1,0.6-0.2,0.8-0.4c0.7-0.3,1.6-0.6,1.8-1.3c0.1-0.2,0.3-0.4,0.4-0.7C185.8,34.6,184.7,35,183.7,35z
			 M103.3,1.1c-0.3,0-0.7-0.1-1.1-0.1C102.6,1.1,103,1.1,103.3,1.1z M103.9,1.5c0.2,0,0.3-0.1,0.2-0.3l0,0l0,0l0,0v0l0,0
			c0,0,0,0,0,0l0,0C104.2,1.4,104.1,1.5,103.9,1.5z M104.1,1.2c0.1,0.1,0.2,0.1,0.3,0.2C104.3,1.3,104.2,1.2,104.1,1.2z M117.3,9.5
			C117.3,9.5,117.3,9.5,117.3,9.5C117.3,9.5,117.3,9.5,117.3,9.5z M137.2,26.1C137.3,26.2,137.3,26.2,137.2,26.1
			C137.3,26.2,137.3,26.2,137.2,26.1z"/>
		<linearGradient id="SVGID_7_" gradientUnits="userSpaceOnUse" x1="145.8252" y1="18.7213" x2="197.0946" y2="18.7213">
			<stop  offset="0" style="stop-color:#FFDD15"/>
			<stop  offset="0.17" style="stop-color:#C9B000"/>
			<stop  offset="0.355" style="stop-color:#FFDD15"/>
			<stop  offset="0.58" style="stop-color:#C9B000"/>
			<stop  offset="0.77" style="stop-color:#FFDD15"/>
			<stop  offset="1" style="stop-color:#C9B000"/>
		</linearGradient>
		<path class="st7" d="M197.1,17.6c-0.4-0.3-0.2-0.8-0.3-1.1c-0.2-0.7-0.1-1.4-0.7-2c-0.2-0.3-0.4-0.6-0.4-0.9
			c0.1-0.4-0.1-0.6-0.3-0.9c-0.2-0.3-0.4-0.5-0.6-0.8c-0.5-0.8-1-1.5-1.6-2.3c-0.1,0-0.1,0-0.2,0.1c0.1,0.2,0.3,0.4,0.4,0.7
			c0.1,0.3,0.2,0.6-0.2,0.8c-0.2,0.1-0.6-0.2-0.8-0.3c-0.7-0.7-1.3-1.4-1.9-2.2c0,0,0,0,0-0.1c0.1,0,0.2,0.1,0.5,0.2
			c-0.2-0.4-0.4-0.7-0.6-1c0,0,0.1,0,0.1,0c0.2,0.1,0.4,0.1,0.6,0.2c0,0,0.1-0.1,0.1-0.1c-0.2-0.1-0.4-0.2-0.6-0.2
			c-0.2-0.1-0.5,0-0.8-0.1c0.2-0.2,0.3-0.3,0.5-0.5c-1.3-0.8-2.6-1.6-3.9-2.4c-0.1,0.1-0.1,0.1-0.2,0.2c1.1,0.8,2.2,1.5,3.4,2.3
			c-0.5,0-1-0.3-1.1,0.3c-0.6-0.3-1.2-0.6-1.7-0.9c0,0-0.1,0.1-0.1,0.1c0.2,0.1,0.4,0.3,0.6,0.4c0.4,0.2,0.9,0.4,1.3,0.7
			c0.4,0.3,0.8,0.6,1,1c0.2,0.5,0.5,0.8,1,1.1c0.4,0.2,0.8,0.5,1.2,0.8c0.5,0.4,0.6,0.8,0.2,1.2c0,0-0.1,0-0.1,0
			c-0.2-0.2-0.4-0.4-0.6-0.6c-1.4-1.3-2.9-2.7-4.8-3.7c-0.3-0.1-0.6-0.2-0.9-0.3c0.1,0,0.1-0.1,0.2-0.1c-0.5-0.3-1-0.5-1.4-0.8
			c-0.3-0.2-0.3-0.6-0.5-0.9c0,0,0.3-0.2,0.3-0.1c0.2,0.1,0.4,0.2,0.5,0.4c0.2,0.4,0.8,0.6,1.5,0.4c-0.6-0.4-1.2-0.8-1.8-1.1
			c0,0,0.1-0.1,0.1-0.1c0.2,0.1,0.4,0.1,0.6,0.2c0.5,0.2,0.9,0.5,1.4,0.8c0.3,0.2,0.8,0.5,1.1,0.2c0.3-0.3-0.3-0.5-0.6-0.7
			c-0.5-0.2-1-0.3-1.6-0.4c0.2-0.1,0.3-0.1,0.4-0.1c-0.3-0.5-0.5-1.1-1.4-1.3c-0.1,0.1-0.1,0.3-0.2,0.4c-0.4-0.1-0.8-0.2-1.2-0.3
			c0,0.1,0,0.2,0,0.2c0.3,0.1,0.4,0.4,0.2,0.5c-0.1,0.1-0.5,0.2-0.7,0.1c-0.4-0.1-0.9-0.2-1.2-0.4c-0.5-0.2-1-0.3-1.5-0.2
			c-0.3,0-0.6-0.1-0.9-0.2c-0.6-0.2-1.1-0.5-1.6-0.6c-1.7-0.3-3.5-0.5-5.3-0.2c0,0-0.1,0-0.1,0c-0.6-0.2-1.2,0-1.8,0.1
			c-0.1,0-0.3,0.1-0.4,0.2c-0.2,0.3-0.7,0.4-1.2,0.2c0.4-0.2,0.8-0.4,1.1-0.6c0,0-0.1-0.1-0.1-0.1c-0.4,0.2-0.8,0.4-1.1,0.6
			c-0.3-0.1-0.7-0.4-0.9-0.3c-0.8,0.1-1.4,0.4-2.1,0.9c0.5,0,0.9,0,1.3,0.1c0,0,0,0.1,0.1,0.2c-0.4,0.2-0.8,0.5-1.3,0.7
			c-1.9,0.8-3.9,1.5-5.8,2.2c-0.6,0.2-1,0.6-1.5,0.8c-0.2,0.1-0.4,0.2-0.6,0.4c-0.1-0.1-0.1-0.2-0.1-0.2c-1.2,0.7-2.3,1.3-3.6,2
			c-0.1-0.2-0.1-0.3-0.1-0.5c-0.7,0.4-1.4,0.8-2.2,1.3c1.1,0.1,1.8-0.3,2.4-0.6c0.3,0.2,0.5,0.3,0.7,0.5c0.2-0.1,0.4-0.2,0.6-0.4
			c1-0.6,2.1-1.2,3.2-1.7c0.2-0.1,0.5-0.1,0.8-0.2c-0.1,0.6-0.6,0.9-1,1.2c-0.8,0.5-1.6,0.9-2.4,1.4c-1,0.6-2.1,1.3-3.1,1.9
			c-0.1,0.1-0.3,0.3-0.2,0.4c0.2,0.5,0,0.8-0.7,1c0-0.1,0.1-0.3,0.1-0.4c0,0-0.1,0-0.1-0.1c-0.6,0.3-1.1,0.6-1.7,0.9
			c0.1,0,0.1,0,0.2,0.1c0,0.1,0.1,0.3,0,0.4c-0.2,0.2-0.6,0.4-1,0.2c-0.1,0-0.1-0.1-0.2-0.1c-0.5,0-0.9,0.5-0.9,0.9
			c0,0.1-0.1,0.2-0.2,0.3c0,0-0.1,0-0.1,0c0-0.2,0.1-0.3,0.1-0.6c-0.6,0.3-1.2,0.5-1.7,0.8c0.1,0.1,0.2,0.2,0.3,0.3
			c-0.2,0.1-0.5,0.1-0.8,0.2c0.1,0.2,0.1,0.3,0.2,0.6c0.4-0.3,0.7-0.4,1-0.7c0.3-0.2,0.6-0.2,1-0.1c0.2,0.1,0.5,0.1,0.7,0
			c1-0.5,2-1.1,3-1.6c1-0.6,2-1.3,3-2c0.9-0.6,2-1.1,3.1-1.4c0.9-0.2,1.9-0.5,2.2-1.3c0-0.1,0.1-0.1,0.3-0.2c0,0.1,0,0.2,0,0.4
			c0.3-0.2,0.5-0.3,0.6-0.4c-0.4-0.3,0.1-0.4,0.3-0.5c0.9-0.5,1.8-0.9,2.8-1.3c0.4-0.2,1-0.1,1.4-0.3c0.8-0.2,1.5-0.5,2.3-0.8
			c0.2-0.1,0.3-0.1,0.5-0.1c0,0,0,0.1,0,0.1c-0.3,0.1-0.6,0.2-0.9,0.3c0,0,0.1,0.1,0.1,0.1c0.6-0.2,1.3-0.4,1.9-0.7
			c1.3-0.5,2.7-1,4.2-0.8c1,0.1,1.9-0.1,2.9,0.2c0.5,0.1,1,0.2,1.5,0.3c0.7,0.2,1.4,0.4,2.2,0.6c0.4,0.1,0.9,0.2,1.3,0.3
			c0.4,0.1,0.7,0.4,0.7,0.7c0,0.1,0.1,0.2,0.3,0.3c0.3,0.1,0.6,0.1,0.8,0.2c0.7,0.2,1.5,0.4,2.2,0.7c0.7,0.3,1.3,0.7,2,1
			c0.1-0.1,0.2-0.2,0.3-0.4c0.1,0.1,0.2,0.2,0.2,0.2c-0.3,0.5,0.2,0.7,0.5,1.1c0.5,0.6,1,1.2,1.5,1.8c1,1.4,1.9,2.8,2.2,4.3
			c0.2,1.4,0.2,2.7,0.2,4.1c0,0.5,0.1,1.1-0.5,1.6c-0.1,0.1,0,0.2-0.1,0.3c-0.2,0.5,0.2,1-0.1,1.5c-0.3,0.5-0.4,1-0.6,1.5
			c-0.2,0.7-0.4,1.4-0.7,2.1c-0.1,0.3-0.4,0.5-0.5,0.7c-0.5,0.8-1.1,1.6-1.6,2.4c-0.3,0.4-0.6,0.9-1,1.3c0,0,0.1,0,0.1,0.1
			c0.7-0.7,1.4-1.3,2-2c0.5-0.7,0.8-1.5,1.2-2.3c0.2,0.6,0,1.1-0.4,1.6c-0.4,0.5-0.8,1-1.2,1.4c-0.4,0.5-0.7,0.9-1.1,1.4
			c0,0,0.1,0,0.1,0c0.6-0.5,1.2-0.9,1.8-1.4c0.1,0.1,0.1,0.1,0.2,0.2c-0.9,0.7-1.9,1.4-2.9,2.2c1-0.4,1.9-0.8,2.5-1.4
			c0.2-0.2,0.3-0.5,0.5-0.8c0-0.1,0-0.2,0.1-0.3c0.5-0.8,1-1.5,1.5-2.3c0.1-0.1,0.1-0.2,0.2-0.3c0.4-0.4,0.8-0.9,1.2-1.3
			c0.2-0.2,0.2-0.4,0.5-0.6c0.5-0.3,0.6-0.6,0.7-1c0.2-0.7,0.4-1.3,0.6-2c0-0.1,0.1-0.3,0.2-0.4c0.1,0.1,0.1,0.2,0.1,0.2
			c-0.2,0.6-0.3,1.3-0.5,1.9c0,0.2,0,0.4,0,0.6c0.1,0,0.1,0,0.2,0c0.8-1.9,1.4-3.9,1.8-5.9c0.1-0.5,0.1-1.1,0.2-1.6
			C197,19,197,18.3,197.1,17.6C197.1,17.6,197.1,17.6,197.1,17.6z"/>
		<linearGradient id="SVGID_8_" gradientUnits="userSpaceOnUse" x1="146.4698" y1="20.1752" x2="191.2575" y2="20.1752">
			<stop  offset="0" style="stop-color:#FFDD15"/>
			<stop  offset="0.17" style="stop-color:#C9B000"/>
			<stop  offset="0.355" style="stop-color:#FFDD15"/>
			<stop  offset="0.58" style="stop-color:#C9B000"/>
			<stop  offset="0.77" style="stop-color:#FFDD15"/>
			<stop  offset="1" style="stop-color:#C9B000"/>
		</linearGradient>
		<path class="st8" d="M147.3,18.9c-0.3,0.2-0.5,0.4-0.8,0.7c0.1,0,0.1,0.1,0.2,0.1c0.7-0.2,1.4-0.5,2.1-0.7
			c0.1,0.1,0.1,0.2,0.2,0.4c1.1-0.6,2.1-1.2,3-1.8c0.8-0.5,1.5-0.9,2.2-1.5c1-0.9,2.1-1.7,3.4-2.3c1.2-0.6,2.5-1.1,3.7-1.6
			c2.4-1.1,4.8-2.3,7.5-3c0.5-0.1,1.1-0.3,1.6-0.3c2,0.1,4,0.1,6.1,0.3c1.2,0.1,2.4,0.1,3.5,0.6c0.4,0.2,0.8,0.3,1.2,0.5
			c1,0.5,2,1,3.1,1.5c0.3,0.1,0.6,0.1,0.9,0.2c0.2,0.1,0.4,0.2,0.6,0.3c0.2,0.2,0.3,0.4,0.5,0.6c0.7,0.8,1.3,1.6,2,2.3
			c0.1,0.1,0.2,0.2,0.2,0.3c-0.2,0.5,0.3,0.8,0.5,1.2c0.3,0.4,0.8,0.8,0.9,1.3c0.3,1.1,0.6,2.3,0.7,3.4c0.2,2.4-0.4,4.6-1.4,6.8
			c-0.3,0.7-0.9,1.4-1.3,2.2c-0.2,0.4-0.2,0.8-0.3,1.2c0.1,0.1,0.2,0.1,0.3,0.2c0.1-0.1,0.1-0.3,0.2-0.4c0.3-0.4,0.6-0.7,0.8-1.1
			c1.2-2.1,2.2-4.2,2.4-6.5c0.2-1.9,0.2-3.7-0.2-5.6c-0.6-2.9-2.5-5.2-5.4-7.1c-0.8-0.5-1.8-1-2.8-1.4c-0.9-0.4-2-0.6-3-0.9
			c-1-0.3-1.9-0.5-3-0.5c-1,0-2-0.1-3.1-0.1c-1.6-0.1-3.2-0.1-4.8,0.2c-2.2,0.4-4.2,1.2-6.3,2c-0.1,0-0.2,0.1-0.2,0.2
			c-0.1,0.1-0.2,0.3-0.4,0.4c-0.5,0.2-1,0.5-1.6,0.6c-1.2,0.3-2.3,0.9-3.3,1.5c-0.9,0.6-1.8,1.2-2.6,1.8c-0.5,0.4-1,0.8-1.5,1.1
			c-0.4,0.2-0.9,0.3-1.3,0.5C150.3,17.4,148.8,18.1,147.3,18.9z"/>
		<linearGradient id="SVGID_9_" gradientUnits="userSpaceOnUse" x1="88.9639" y1="10.4537" x2="90.4971" y2="10.4537">
			<stop  offset="0" style="stop-color:#FFDD15"/>
			<stop  offset="0.17" style="stop-color:#C9B000"/>
			<stop  offset="0.355" style="stop-color:#FFDD15"/>
			<stop  offset="0.58" style="stop-color:#C9B000"/>
			<stop  offset="0.77" style="stop-color:#FFDD15"/>
			<stop  offset="1" style="stop-color:#C9B000"/>
		</linearGradient>
		<path class="st9" d="M89,11c0.4-0.2,0.8,0.2,1.2-0.2c0.3-0.3,0.4-0.5,0.3-0.9C89.9,9.9,89.5,10.2,89,11z"/>
		<linearGradient id="SVGID_10_" gradientUnits="userSpaceOnUse" x1="152.7969" y1="14.732" x2="154.5694" y2="14.732">
			<stop  offset="0" style="stop-color:#FFDD15"/>
			<stop  offset="0.17" style="stop-color:#C9B000"/>
			<stop  offset="0.355" style="stop-color:#FFDD15"/>
			<stop  offset="0.58" style="stop-color:#C9B000"/>
			<stop  offset="0.77" style="stop-color:#FFDD15"/>
			<stop  offset="1" style="stop-color:#C9B000"/>
		</linearGradient>
		<path class="st10" d="M154.6,14.2c-0.5,0-1.5,0.6-1.8,1C153.5,15.2,154.4,14.7,154.6,14.2z"/>
		<linearGradient id="SVGID_11_" gradientUnits="userSpaceOnUse" x1="133.9161" y1="13.3374" x2="134.9385" y2="13.3374">
			<stop  offset="0" style="stop-color:#FFDD15"/>
			<stop  offset="0.17" style="stop-color:#C9B000"/>
			<stop  offset="0.355" style="stop-color:#FFDD15"/>
			<stop  offset="0.58" style="stop-color:#C9B000"/>
			<stop  offset="0.77" style="stop-color:#FFDD15"/>
			<stop  offset="1" style="stop-color:#C9B000"/>
		</linearGradient>
		<path class="st11" d="M134.6,12.8c-0.2,0.2-0.3,0.3-0.4,0.4c-0.1-0.1-0.2-0.2-0.3-0.3c0.1,0.4,0,0.9,1,1
			C134.8,13.5,134.7,13.2,134.6,12.8z"/>
		<linearGradient id="SVGID_12_" gradientUnits="userSpaceOnUse" x1="169.876" y1="34.899" x2="171.669" y2="34.899">
			<stop  offset="0" style="stop-color:#FFDD15"/>
			<stop  offset="0.17" style="stop-color:#C9B000"/>
			<stop  offset="0.355" style="stop-color:#FFDD15"/>
			<stop  offset="0.58" style="stop-color:#C9B000"/>
			<stop  offset="0.77" style="stop-color:#FFDD15"/>
			<stop  offset="1" style="stop-color:#C9B000"/>
		</linearGradient>
		<path class="st12" d="M169.9,34.8c0.6,0.1,1.2,0.3,1.8,0.4c-0.3-0.6-0.9-0.5-1.5-0.7C170.1,34.6,170,34.7,169.9,34.8z"/>
		<linearGradient id="SVGID_13_" gradientUnits="userSpaceOnUse" x1="155.0132" y1="13.7135" x2="156.085" y2="13.7135">
			<stop  offset="0" style="stop-color:#FFDD15"/>
			<stop  offset="0.17" style="stop-color:#C9B000"/>
			<stop  offset="0.355" style="stop-color:#FFDD15"/>
			<stop  offset="0.58" style="stop-color:#C9B000"/>
			<stop  offset="0.77" style="stop-color:#FFDD15"/>
			<stop  offset="1" style="stop-color:#C9B000"/>
		</linearGradient>
		<path class="st13" d="M156.1,13.2c-0.8,0.2-1.2,0.5-1.1,1C155.6,14,155.9,13.6,156.1,13.2z"/>
		<linearGradient id="SVGID_14_" gradientUnits="userSpaceOnUse" x1="133.7686" y1="14.7163" x2="134.9082" y2="14.7163">
			<stop  offset="0" style="stop-color:#FFDD15"/>
			<stop  offset="0.17" style="stop-color:#C9B000"/>
			<stop  offset="0.355" style="stop-color:#FFDD15"/>
			<stop  offset="0.58" style="stop-color:#C9B000"/>
			<stop  offset="0.77" style="stop-color:#FFDD15"/>
			<stop  offset="1" style="stop-color:#C9B000"/>
		</linearGradient>
		<path class="st14" d="M133.8,14.7c0.4,0.1,0.7,0.1,1.1,0.2C134.8,14.5,134.2,14.4,133.8,14.7z"/>
		<linearGradient id="SVGID_15_" gradientUnits="userSpaceOnUse" x1="163.1788" y1="9.3184" x2="164.7491" y2="9.3184">
			<stop  offset="0" style="stop-color:#FFDD15"/>
			<stop  offset="0.17" style="stop-color:#C9B000"/>
			<stop  offset="0.355" style="stop-color:#FFDD15"/>
			<stop  offset="0.58" style="stop-color:#C9B000"/>
			<stop  offset="0.77" style="stop-color:#FFDD15"/>
			<stop  offset="1" style="stop-color:#C9B000"/>
		</linearGradient>
		<path class="st15" d="M164.6,9c-0.5,0.2-1,0.4-1.5,0.6c0,0.1,0.1,0.1,0.1,0.2c0.5-0.2,1-0.4,1.5-0.6C164.7,9.1,164.7,9,164.6,9z"
			/>
		<linearGradient id="SVGID_16_" gradientUnits="userSpaceOnUse" x1="127.1358" y1="4.3697" x2="128.0928" y2="4.3697">
			<stop  offset="0" style="stop-color:#FFDD15"/>
			<stop  offset="0.17" style="stop-color:#C9B000"/>
			<stop  offset="0.355" style="stop-color:#FFDD15"/>
			<stop  offset="0.58" style="stop-color:#C9B000"/>
			<stop  offset="0.77" style="stop-color:#FFDD15"/>
			<stop  offset="1" style="stop-color:#C9B000"/>
		</linearGradient>
		<path class="st16" d="M128.1,4.7C128.1,4.7,128.1,4.7,128.1,4.7c-0.1-0.2-0.3-0.4-0.5-0.6c-0.1-0.1-0.2-0.1-0.2-0.2
			c0,0-0.2,0.1-0.2,0.1c0,0.1,0,0.2,0.1,0.3C127.5,4.5,127.8,4.6,128.1,4.7z"/>
		<linearGradient id="SVGID_17_" gradientUnits="userSpaceOnUse" x1="165.0293" y1="38.2345" x2="166.6084" y2="38.2345">
			<stop  offset="0" style="stop-color:#FFDD15"/>
			<stop  offset="0.17" style="stop-color:#C9B000"/>
			<stop  offset="0.355" style="stop-color:#FFDD15"/>
			<stop  offset="0.58" style="stop-color:#C9B000"/>
			<stop  offset="0.77" style="stop-color:#FFDD15"/>
			<stop  offset="1" style="stop-color:#C9B000"/>
		</linearGradient>
		<path class="st17" d="M166.6,38.2c-0.5,0-1.1-0.1-1.6-0.1C166.1,38.4,166.2,38.4,166.6,38.2z"/>
		<linearGradient id="SVGID_18_" gradientUnits="userSpaceOnUse" x1="122.1963" y1="1.9772" x2="123.2686" y2="1.9772">
			<stop  offset="0" style="stop-color:#FFDD15"/>
			<stop  offset="0.17" style="stop-color:#C9B000"/>
			<stop  offset="0.355" style="stop-color:#FFDD15"/>
			<stop  offset="0.58" style="stop-color:#C9B000"/>
			<stop  offset="0.77" style="stop-color:#FFDD15"/>
			<stop  offset="1" style="stop-color:#C9B000"/>
		</linearGradient>
		<path class="st18" d="M123.3,2.1c-0.3-0.2-0.4-0.5-1.1-0.2c0.4,0.1,0.7,0.2,1,0.3C123.2,2.2,123.2,2.1,123.3,2.1z"/>
		<linearGradient id="SVGID_19_" gradientUnits="userSpaceOnUse" x1="125.7413" y1="2.7534" x2="126.585" y2="2.7534">
			<stop  offset="0" style="stop-color:#FFDD15"/>
			<stop  offset="0.17" style="stop-color:#C9B000"/>
			<stop  offset="0.355" style="stop-color:#FFDD15"/>
			<stop  offset="0.58" style="stop-color:#C9B000"/>
			<stop  offset="0.77" style="stop-color:#FFDD15"/>
			<stop  offset="1" style="stop-color:#C9B000"/>
		</linearGradient>
		<path class="st19" d="M126.6,2.7c0,0,0-0.1,0-0.1c-0.3,0-0.5,0-0.8,0.1C125.9,3,126.2,3,126.6,2.7z"/>
	</g>
</g>
</svg>
