<?xml version="1.0" encoding="utf-8"?>
<!-- Generator: Adobe Illustrator 25.2.1, SVG Export Plug-In . SVG Version: 6.00 Build 0)  -->
<svg version="1.1" id="Capa_1" xmlns="http://www.w3.org/2000/svg" x="0px" y="0px"
	 viewBox="0 0 58.5 48.8" style="enable-background:new 0 0 58.5 48.8;" xml:space="preserve">
<style type="text/css">
	.st0{fill:#FFF9DE;}
</style>
<g id="layer1" transform="translate(0,-274.42223)">
	<path id="rect64600" class="st0" d="M36.9,274.4c-3.7,0-6.1,0.9-7.5,2.5c-1.2,1.4-1.5,3.1-1.3,4.8c-1.3,5.2-0.8,11-0.3,14.5
		c-1.4-1.2-2.9-2.2-4.5-2.9c-5.1-2.3-9.6-1.9-11.1,3.2h0c0,0,0,0,0,0c-4.1-0.2-7.2,1.4-9.1,3.9c-1.9,2.5-2.8,5.8-3,9.1
		c-0.2,3.3,0.2,6.6,1.1,9.1c0.4,1.3,1,2.4,1.7,3.2c0.7,0.8,1.6,1.4,2.6,1.4H28c1.9,0,3.7-0.8,4.9-2.2c0.6,1.2,1.9,2,3.3,2h9.2
		c1.6,0,3-1,3.5-2.4h1.9c1.3,0,2.4-1.1,2.4-2.4v-10.5c0-1.3-1.1-2.4-2.4-2.4h-1.9c-0.2-0.5-0.4-0.9-0.8-1.2c0.6-1,1.6-1.5,3-2.6
		c6.2-4.2,7.7-8.6,7.3-11.9c-0.4-3.3-2.5-5.4-2.5-5.4c-1-1-2.2-1.3-3.3-1.2c-1.1,0.1-2.1,0.6-3,1.1c-1.7,1.1-3,2.6-3,2.6
		c-2,2.2-2.4,5.5-2.6,7.9c0,0.5,0.3,1,0.9,1c0.5,0,1-0.3,1-0.9c0.2-2.8,0.5-4.8,2.1-6.9c0,0,1.1-1.3,2.5-2.2
		c0.7-0.5,1.5-0.8,2.1-0.8c0.7-0.1,1.2,0.1,1.8,0.7c0,0,1.6,1.7,1.9,4.3c0.3,2.6-0.6,6.2-6.5,10.1c-1.5,1-2.7,2-3.5,3.2
		c-0.4-0.1-0.7-0.2-1.1-0.2h-9.2c-1,0-1.9,0.4-2.6,1.1c-0.8-2-2-3.9-3.5-5.6c-0.3-1.3-1.3-7.2-0.7-13c0.6,1,1.3,2,2.1,2.8
		c1.3,1.5,3.4,2.7,5.2,3h5.9c0.5,0,1-0.4,1-1c0-0.5-0.4-1-1-1h-5.7c-1.2-0.2-2.7-1.1-4-2.4c-1.3-1.3-2.3-3.1-2.7-4.7
		c-0.4-1.4-0.1-3.1,0.6-4c0.9-1,2.7-1.9,6.1-1.9h5.5c3.1,0,4.9,0.7,5.9,1.6c1,0.9,1.2,2.1,1,3.6c-0.1,0.5,0.3,1,0.8,1.1
		c0.5,0.1,1-0.3,1.1-0.8c0.3-1.9-0.1-3.8-1.6-5.2c-1.5-1.4-3.8-2.2-7.2-2.2L36.9,274.4z M53.6,288.9c-0.5,0-0.8,0.4-0.9,0.8
		c-0.3,2.1-1.5,4.6-5.1,7.3c-0.4,0.3-0.5,0.9-0.2,1.3c0.3,0.4,0.9,0.5,1.3,0.2c3.8-3,5.5-6,5.8-8.6c0.1-0.5-0.3-1-0.8-1.1
		C53.7,288.9,53.7,288.9,53.6,288.9L53.6,288.9z M36,293.3c-0.4,0.4-0.4,1,0,1.3l1.6,1.6l-1.6,1.6c-0.4,0.4-0.4,1,0,1.4
		c0.4,0.4,1,0.4,1.4,0l1.5-1.6l1.5,1.6c0.4,0.4,1,0.4,1.4,0c0.4-0.4,0.4-1,0-1.4l-1.6-1.6l1.6-1.6c0.4-0.4,0.4-1,0-1.3
		c-0.4-0.4-1-0.4-1.4,0l-1.5,1.5l-1.5-1.5C36.8,292.9,36.2,293,36,293.3z M18,293.9c1.3,0,2.9,0.4,4.6,1.2c4.3,2.1,8.8,6.7,9.9,11.8
		v2c0,0.5,0.4,1,1,1c0.5,0,1-0.4,1-1v-2.1c0-1,0.8-1.8,1.8-1.8h9.2c1.2,0,1.8,0.9,1.8,1.8v12.6c0,1-0.8,1.8-1.8,1.8h-9.2
		c-1,0-1.8-0.8-1.8-1.8v-6.7c0-0.5-0.4-1-1-1c-0.5,0-1,0.4-1,1v5.5c-0.6,1.8-2.4,3.2-4.5,3.2H5.4c-0.3,0-0.7-0.2-1.1-0.8
		C3.8,320,3.4,319.1,3,318c-0.8-2.2-1.2-5.3-1-8.4c0.2-3,1-6,2.7-8.1c1.6-2.1,3.9-3.3,7.5-3.1c0,0,1.2,0.1,2.4,0.6
		c1.3,0.6,2.5,1.5,2.9,3.3c0.1,0.5,0.6,0.8,1.1,0.7c0.5-0.1,0.8-0.6,0.7-1.1c-0.5-2.2-1.9-3.5-3.3-4.3c2.3-0.2,4.1,0.7,5,2.3
		c0.3,0.5,0.8,0.6,1.3,0.4c0.5-0.3,0.6-0.8,0.4-1.3c-0.9-1.5-2.3-2.6-4.1-3c-1.2-0.3-2.5-0.3-4,0C15.5,294.4,16.3,294,18,293.9
		L18,293.9z M44.9,299.1c-0.3,0.2-0.6,0.4-0.9,0.7c-0.4,0.3-0.4,0.9-0.1,1.3c0.3,0.4,0.9,0.4,1.3,0.1c0.2-0.2,0.5-0.4,0.8-0.6
		c0.4-0.3,0.5-0.9,0.2-1.3C45.8,298.8,45.2,298.8,44.9,299.1L44.9,299.1z M5.6,304c-0.4,0-0.7,0.3-0.9,0.7c-0.1,0.4-0.2,0.8-0.3,1.2
		c-0.1,0.5,0.2,1,0.7,1.2c0.5,0.1,1-0.2,1.1-0.7c0.1-0.4,0.2-0.7,0.3-1.1c0.2-0.5-0.1-1-0.6-1.2C5.9,304,5.7,304,5.6,304L5.6,304z
		 M15.9,304c-1.5,0-2.7,1-3.5,2.4c-0.8,1.4-1.2,3.2-1.2,5.2c0,2,0.5,3.8,1.2,5.2c0.8,1.4,2,2.4,3.5,2.4s2.7-1,3.5-2.4
		c0.8-1.4,1.2-3.2,1.2-5.2c0-2-0.5-3.8-1.2-5.2C18.6,305.1,17.4,304,15.9,304z M15.9,306c0.6,0,1.3,0.5,1.9,1.5c0.6,1,1,2.6,1,4.3
		c0,1.7-0.4,3.2-1,4.3c-0.6,1-1.3,1.5-1.9,1.5c-0.6,0-1.3-0.5-1.9-1.5s-1-2.6-1-4.3c0-1.7,0.4-3.2,1-4.3
		C14.6,306.4,15.3,306,15.9,306z M38.5,306.9c-1.3,0-2.4,1.1-2.4,2.4v7.6c0,1.3,1.1,2.4,2.4,2.4h4.7c1.3,0,2.4-1.1,2.4-2.4v-7.6
		c0-1.3-1.1-2.4-2.4-2.4H38.5z M49.2,307.3h1.6c0.3,0,0.5,0.2,0.5,0.5v10.5c0,0.3-0.2,0.5-0.5,0.5h-1.6V307.3z M4.9,308.6
		c-0.5,0-1,0.4-1,0.9c-0.2,2.9,0.1,6.1,1.1,9.1c0.2,0.5,0.7,0.8,1.2,0.6c0.5-0.2,0.8-0.7,0.6-1.2c-0.9-2.8-1.2-5.7-1-8.4
		C5.8,309.1,5.4,308.6,4.9,308.6L4.9,308.6z M38.5,308.8h4.7c0.3,0,0.5,0.2,0.5,0.5v7.6c0,0.3-0.2,0.5-0.5,0.5h-4.7
		c-0.3,0-0.5-0.2-0.5-0.5v-7.6C38,309,38.2,308.8,38.5,308.8z"/>
</g>
</svg>
