<?xml version="1.0" encoding="utf-8"?>
<!-- Generator: Adobe Illustrator 25.2.1, SVG Export Plug-In . SVG Version: 6.00 Build 0)  -->
<svg version="1.1" id="Layer_1" xmlns="http://www.w3.org/2000/svg" x="0px" y="0px"
	 viewBox="0 0 100 100" style="enable-background:new 0 0 100 100;" xml:space="preserve">
<g>
	<path d="M50,99.9c-27.6,0-50-22.4-50-50C0,24,19.4,2.6,45.1,0.1c1.6-0.2,3.2,0.7,3.9,2.2c0.7,1.5,0.3,3.3-0.9,4.4
		c-6.3,5.9-9.7,13.9-9.7,22.4c0,17,13.8,30.9,30.9,30.9c9.3,0,18-4.1,23.9-11.3c1-1.3,2.8-1.7,4.3-1.2c1.5,0.6,2.6,2.1,2.5,3.7
		C99.2,78.6,77.3,99.9,50,99.9z M35.8,10C19.3,15.8,7.7,31.5,7.7,49.9c0,23.3,19,42.3,42.3,42.3c19.5,0,35.9-13,40.8-31
		c-6.3,4.2-13.7,6.5-21.5,6.5c-21.3,0-38.6-17.3-38.6-38.6C30.7,22.3,32.5,15.8,35.8,10z"/>
</g>
</svg>
