<svg id="Capa_1" data-name="Capa 1" xmlns="http://www.w3.org/2000/svg" viewBox="0 0 234.19 250"><defs><style>.cls-1{fill:#fff9de;}.cls-2{fill:#231f20;}</style></defs><path class="cls-1" d="M80.07,28.32a.17.17,0,0,0,.16-.17,21.74,21.74,0,0,0,0-3.48c-.06-.67-.14-1.32-.22-2,.13.64.28,1.28.45,1.93a22.82,22.82,0,0,0,1.11,3.29.2.2,0,0,0,.21.12.19.19,0,0,0,.16-.18,21.74,21.74,0,0,0,0-3.48c-.1-1.16-.25-2.31-.44-3.4s-.42-2.2-.73-3.35a21,21,0,0,0-1.11-3.29.2.2,0,0,0-.21-.12.2.2,0,0,0-.16.18,20.74,20.74,0,0,0,.06,3.48c0,.64.12,1.27.2,1.89-.13-.61-.27-1.22-.44-1.85a21.11,21.11,0,0,0-1.11-3.3.19.19,0,0,0-.21-.11.19.19,0,0,0-.16.18,21.74,21.74,0,0,0,0,3.48q.09,1,.21,1.89c-.13-.61-.27-1.23-.44-1.85a20.76,20.76,0,0,0-1.11-3.3A.19.19,0,0,0,76,14.8a.17.17,0,0,0-.16.17,21.73,21.73,0,0,0,0,3.48q.09,1,.21,1.89c-.13-.61-.27-1.22-.44-1.85a22,22,0,0,0-1.11-3.29.2.2,0,0,0-.21-.12.19.19,0,0,0-.16.18,21.74,21.74,0,0,0,.05,3.48c.06.65.13,1.27.21,1.87-.13-.6-.28-1.21-.44-1.83a22.61,22.61,0,0,0-1.11-3.3.19.19,0,0,0-.21-.11.18.18,0,0,0-.16.18,21.74,21.74,0,0,0,0,3.48c.06.64.13,1.27.21,1.88-.13-.61-.28-1.22-.44-1.84a21.82,21.82,0,0,0-1.11-3.3.19.19,0,0,0-.21-.11.17.17,0,0,0-.16.17,21.73,21.73,0,0,0,0,3.48c.06.64.13,1.26.21,1.87-.13-.59-.27-1.2-.44-1.83a22,22,0,0,0-1.11-3.29.2.2,0,0,0-.21-.12.19.19,0,0,0-.16.18,21.74,21.74,0,0,0,0,3.48q.09,1,.21,1.89c-.13-.61-.28-1.23-.44-1.85a21,21,0,0,0-1.12-3.3.19.19,0,0,0-.2-.11.19.19,0,0,0-.16.18,21.74,21.74,0,0,0,.05,3.48q.09,1,.21,1.89c-.13-.61-.28-1.23-.44-1.85a20.69,20.69,0,0,0-1.12-3.3.18.18,0,0,0-.21-.11.19.19,0,0,0-.16.17A23.1,23.1,0,0,0,66,20.17q.09,1,.21,1.89c-.13-.6-.28-1.22-.44-1.85a22,22,0,0,0-1.12-3.29.19.19,0,0,0-.21-.12.21.21,0,0,0-.16.18,23.11,23.11,0,0,0,.06,3.48c.1,1.18.25,2.33.44,3.4s.43,2.22.73,3.35a22.21,22.21,0,0,0,1.11,3.3.19.19,0,0,0,.37-.07A21.86,21.86,0,0,0,66.89,27c0-.66-.13-1.32-.22-2,.14.63.29,1.28.46,1.92a22.21,22.21,0,0,0,1.11,3.3.19.19,0,0,0,.21.11.19.19,0,0,0,.16-.18,21.74,21.74,0,0,0-.06-3.47c0-.67-.13-1.33-.22-2,.14.64.29,1.28.46,1.93a22,22,0,0,0,1.11,3.29.19.19,0,0,0,.21.11.18.18,0,0,0,.16-.17,20.74,20.74,0,0,0-.06-3.48c0-.67-.13-1.32-.22-2,.14.64.29,1.28.46,1.93a22.61,22.61,0,0,0,1.11,3.3.19.19,0,0,0,.37-.07,20.74,20.74,0,0,0-.06-3.48c-.05-.66-.13-1.32-.21-2,.13.64.28,1.29.45,1.93a21.82,21.82,0,0,0,1.11,3.3.19.19,0,0,0,.21.11.18.18,0,0,0,.16-.18,20.62,20.62,0,0,0-.06-3.47c0-.67-.13-1.33-.21-2,.13.64.28,1.29.45,1.94a23.25,23.25,0,0,0,1.11,3.29.19.19,0,0,0,.21.11.17.17,0,0,0,.16-.17,20.74,20.74,0,0,0-.06-3.48c0-.67-.13-1.32-.21-2,.13.64.28,1.28.45,1.93a22.82,22.82,0,0,0,1.11,3.29.2.2,0,0,0,.21.12.19.19,0,0,0,.16-.18,20.74,20.74,0,0,0-.06-3.48c0-.66-.13-1.32-.21-2,.13.64.28,1.29.45,1.93a23,23,0,0,0,1.11,3.3.19.19,0,0,0,.21.11.18.18,0,0,0,.16-.18,21.62,21.62,0,0,0,0-3.47c-.06-.67-.14-1.33-.22-2q.2,1,.45,1.92a23,23,0,0,0,1.11,3.3A.19.19,0,0,0,80.07,28.32Z"/><path class="cls-1" d="M93.32,122.68h-.09l-.1,0L89.9,125.5a.21.21,0,0,0-.07.18.2.2,0,0,0,.12.15A2.59,2.59,0,0,0,93.49,123a.65.65,0,0,0,0-.18A.21.21,0,0,0,93.32,122.68Z"/><path class="cls-1" d="M92,121.15a.19.19,0,0,0-.12-.15,2.58,2.58,0,0,0-3.47,2.77.2.2,0,0,0,.12.15.21.21,0,0,0,.11,0,.18.18,0,0,0,.09,0l3.2-2.56A.2.2,0,0,0,92,121.15Z"/><path class="cls-1" d="M34.78,63.51a.18.18,0,0,0,.14.06h0a.19.19,0,0,0,.1,0l3.07-2.69a.2.2,0,0,0,0-.28l-10.55-12a.16.16,0,0,0-.13-.06h0a.15.15,0,0,0-.09,0l-3.08,2.7a.18.18,0,0,0,0,.27Z"/><path class="cls-1" d="M83.45,175.18a49.48,49.48,0,0,0,16,.15l.77-.12a55.93,55.93,0,0,0,7.1-1.72,50.54,50.54,0,0,0,14.43-7.29,48.65,48.65,0,0,0,6.17-5.28,49.69,49.69,0,0,0,5.29-6.17,51.81,51.81,0,0,0,7.37-14.43,50.66,50.66,0,0,0,2.47-16c0-1.14,0-2.29-.12-3.4l0-.65-.1-.88c-.1-1-.21-2.09-.41-3.12a50.33,50.33,0,0,0-1.92-7.84,49.58,49.58,0,0,0-7.44-14.14.18.18,0,0,0-.18-.08l-.08,0a.18.18,0,0,0-.05.26,53.32,53.32,0,0,1,8.36,29.79,51.47,51.47,0,0,1-34.37,47.29,52.32,52.32,0,0,1-8.4,2.17,53.14,53.14,0,0,1-22.53-1h-.08a.19.19,0,0,0,0,.37A46.2,46.2,0,0,0,83.45,175.18Z"/><path class="cls-1" d="M32,66.13a.19.19,0,0,0,.17.06.18.18,0,0,0,.1,0l1-.93a.18.18,0,0,0,.06-.14A.13.13,0,0,0,33.3,65L22.25,53a.18.18,0,0,0-.17-.06.19.19,0,0,0-.1,0l-1,.93a.16.16,0,0,0-.06.13.16.16,0,0,0,0,.14Z"/><path class="cls-1" d="M152.31,174.38a.14.14,0,0,0-.11.06,89.39,89.39,0,0,1-9.76,9.45,83,83,0,0,1-11.07,7.84,79.46,79.46,0,0,1-25.24,9.57l-2,.37a80.48,80.48,0,0,1-25,.37,77.9,77.9,0,0,1-13.21-3,71.94,71.94,0,0,1-12.49-5.32.17.17,0,0,0-.12,0,.18.18,0,0,0-.14.1.19.19,0,0,0,.07.26,72.45,72.45,0,0,0,12.45,5.66A78.17,78.17,0,0,0,79,202.94a79.94,79.94,0,0,0,25.72-.3c.54-.09,1.07-.19,1.6-.3a78.88,78.88,0,0,0,25.5-9.83,83,83,0,0,0,11.07-8.07,89.3,89.3,0,0,0,9.58-9.75.19.19,0,0,0,0-.27A.18.18,0,0,0,152.31,174.38Z"/><path class="cls-1" d="M19.37,156.74c-.2-.46-.42-.91-.63-1.36-.35-.76-.72-1.55-1-2.33l-1.45-3.79a79.36,79.36,0,0,1-3.92-15.68,71.51,71.51,0,0,1-.52-16.13c0-.42.08-.84.12-1.26.08-.91.16-1.85.31-2.77l.29-2,.37-2a65,65,0,0,1,2-7.86.2.2,0,0,0-.13-.24.1.1,0,0,0-.09,0,.18.18,0,0,0-.15.12,63.1,63.1,0,0,0-3.61,15.93,69.37,69.37,0,0,0,.36,16.38,78.12,78.12,0,0,0,4.12,15.84,84.45,84.45,0,0,0,7.36,14.58.17.17,0,0,0,.19.09l.07,0a.19.19,0,0,0,.07-.26l-2.87-5.38Z"/><path class="cls-1" d="M80.18,62.8a61.91,61.91,0,1,0,71.54,50.47A62,62,0,0,0,80.18,62.8Zm58.91,90.54,3.1,1.88c-.18.3-.37.6-.56.9l-3.06-2Zm-.82,7.55c-.2.26-.42.54-.66.83l-2.82-2.29c.21-.25.41-.51.61-.76Zm-4.54,5.19-.75.75-2.54-2.59.69-.7Zm-5.11,4.64c-.25.21-.53.43-.83.66l-2.22-2.86.76-.62Zm-5.6,4-.9.56-1.89-3.11c.23-.13.47-.28.72-.44l.12-.07Zm-6,3.35-1,.46-1.51-3.3.88-.42Zm-6.37,2.64c-.32.11-.65.23-1,.34l-1.12-3.45.92-.31ZM104,182.63l-1,.23-.72-3.56,1-.2Zm-47.14-8.92,2-3q.41.28.81.54l-2,3.05ZM37.39,95.62c.16-.3.32-.61.51-.94l3.17,1.77c-.15.27-.3.55-.46.86ZM50,79.32c.28-.26.53-.49.79-.71l2.4,2.72-.73.66ZM55.33,75l.87-.62,2.07,3c-.24.16-.49.34-.8.57Zm5.81-3.73.93-.52,1.72,3.2-.86.48Zm6.2-3,1-.4,1.33,3.37-.91.37Zm6.51-2.3,1-.29.94,3.51-.94.27Zm6.72-1.54,1-.17.54,3.59-1,.16Zm7.05,2.85-.21-3.63,1.06,0,.13,3.63-1,0Zm6.48,0,.21-3.63,1.06.07-.29,3.63Zm6.44.75.62-3.57,1,.19-.7,3.56Zm6.3,1.49,1-3.48,1,.31-1.1,3.46Zm6.1,2.2,1.42-3.34,1,.42-1.49,3.31Zm5.8,2.89,1.79-3.16.91.52L119.59,75Zm31.7,40.94c.06.37.1.72.14,1.05L147,117c0-.34-.09-.65-.13-1Zm.57,6.87c0,.36,0,.71,0,1.07l-3.62,0c0-.33,0-.65,0-1Zm-3.84,6.58,3.62.31c0,.34-.07.69-.11,1.06l-3.61-.4C147.11,129.59,147.14,129.26,147.17,128.94Zm-.95,6.41,3.55.73c-.07.35-.14.69-.22,1l-3.53-.83C146.09,136,146.16,135.65,146.22,135.35Zm-.63-25.71,3.52-.91.26,1-3.54.84Q145.72,110.12,145.59,109.64Zm-2-6.17,3.39-1.31c.12.31.24.63.37,1L144,104.38ZM141,97.56l3.22-1.69.48.95-3.25,1.61ZM137.63,92l3-2,.58.88-3,2Zm-3.94-5.14,2.75-2.38.69.81-2.8,2.32Zm-4.51-4.66,2.46-2.68.78.73-2.52,2.62C129.68,82.64,129.44,82.42,129.18,82.19ZM125,78.65l-.79-.58,2.14-2.94.85.64ZM95.8,122.59A4.93,4.93,0,0,1,88,127.37a.15.15,0,0,0-.14,0,.19.19,0,0,0-.1,0L83.5,131,82,129.21l4.38-3.49a.22.22,0,0,0,.06-.24,4.58,4.58,0,0,1-.38-1.21,5,5,0,0,1,4-5.71,5,5,0,0,1,3.84,1,.19.19,0,0,0,.15,0,.2.2,0,0,0,.08,0l31.78-25.39.16.2L95.31,120.84a.2.2,0,0,0,0,.24A4.86,4.86,0,0,1,95.8,122.59ZM45.18,84.26c.22-.26.45-.52.7-.79l2.69,2.43-.65.73Zm4.49,7.47a49.31,49.31,0,0,1,30.1-18.2l.93-.15a47.73,47.73,0,0,1,18,.54,45.42,45.42,0,0,1,14.71,6.24A54.08,54.08,0,0,0,98.33,76.5,51.59,51.59,0,0,0,84.89,77c-1.12.19-2.24.43-3.33.7a49.14,49.14,0,0,0-37.78,48.34,51.36,51.36,0,0,0,2.87,16.57,52.26,52.26,0,0,0,3.47,7.86c.58,1,1.35,2.41,2.23,3.72.47.76,1,1.49,1.5,2.21-.67-.61-1.31-1.23-1.92-1.87-1-1.08-2-2.24-2.91-3.34a47.53,47.53,0,0,1-4.78-7.55,48.28,48.28,0,0,1-4.9-17.38A49.23,49.23,0,0,1,49.67,91.73ZM49.75,163l-2.61,2.52-.73-.78,2.66-2.46Zm-13.1-22.13L33.19,142l-.31-1,3.48-1C36.45,140.23,36.55,140.54,36.65,140.86Zm-6-11.9c0-.38-.06-.73-.09-1.06l3.63-.25c0,.31,0,.63.08,1Zm3.43-6.8-3.63-.09c0-.38,0-.73,0-1.07l3.63.18C34.07,121.51,34.05,121.83,34.05,122.16ZM38.55,146l.39.9-3.31,1.48-.42-1ZM34.6,115.7l-3.6-.51c.06-.37.11-.71.17-1l3.58.59C34.7,115,34.65,115.36,34.6,115.7Zm-2.22-7.27.28-1,3.49,1c-.08.29-.17.6-.26.94Zm9,43.4c.14.24.29.48.43.73l.07.12-3.12,1.86q-.27-.45-.54-.93ZM45,157.27c.19.25.38.52.59.79l-2.89,2.2-.64-.85ZM34.52,101.88v0l.38-.95,3.36,1.39c-.12.29-.24.59-.36.91Zm.55,32.69-3.57.7c-.07-.36-.13-.7-.19-1l3.58-.59Zm16.3,35,2.38-2.74.74.63-2.31,2.79Zm35.69-3.2c29.33-5.06,49.19-32.4,44.26-60.93A51.64,51.64,0,0,0,113.5,74.58a53.63,53.63,0,0,1,32.7,40.52,52.82,52.82,0,0,1-.62,21.14h0c-5.07,21.59-22.8,38-45.17,41.9-20.73,3.58-41.89-4.64-54.3-21A54.88,54.88,0,0,0,87.06,166.32Zm57.47-24.72,3.45,1.13c-.1.34-.22.66-.34,1l-3.42-1.21C144.33,142.21,144.43,141.91,144.53,141.6Zm-2.38,6,3.3,1.52-.46,1-3.26-1.6C141.86,148.24,142,148,142.15,147.62ZM44.51,91l-.55.79-3-2,.61-.87Zm18.26,86.28L64.46,174l.87.45-1.62,3.25Zm6.28,2.85,1.31-3.39.92.35L70,180.47l-.2-.07Zm6.56,2.11.92-3.51.94.23-.84,3.54-.29-.08Zm6.76,1.34L82.9,180l.95.12-.43,3.6C83.08,183.65,82.74,183.6,82.37,183.55Zm6.87.56.1-3.63h1v3.64H89.24Zm6.89-.24-.32-3.61,1-.1.4,3.61Z"/><path class="cls-1" d="M125.05,49.25a.22.22,0,0,0,.1.11l1.26.53a.2.2,0,0,0,.11,0,.21.21,0,0,0,.14-.12l6.41-14.94a.2.2,0,0,0,0-.15.14.14,0,0,0-.1-.1l-1.25-.54a.14.14,0,0,0-.11,0,.21.21,0,0,0-.15.11L125.05,49.1A.19.19,0,0,0,125.05,49.25Z"/><path class="cls-1" d="M79.42,58.43a66.35,66.35,0,1,0,76.67,54.09A66.42,66.42,0,0,0,79.42,58.43Zm22.11,128A63.57,63.57,0,1,1,153.35,113,63.63,63.63,0,0,1,101.53,186.45Z"/><path class="cls-1" d="M162.67,89.4A79.74,79.74,0,0,0,150.6,70.79,73.56,73.56,0,0,0,142.68,63a58.11,58.11,0,0,0-9.13-6.3.2.2,0,0,0-.13,0,.2.2,0,0,0-.13.09.18.18,0,0,0,.06.26,60.7,60.7,0,0,1,8.86,6.51,74.13,74.13,0,0,1,7.7,7.84A81.31,81.31,0,0,1,161.7,89.85a83,83,0,0,1,6.59,20.91,92.73,92.73,0,0,1,1.17,22,.2.2,0,0,0,.18.2h.05a.21.21,0,0,0,.16-.17,93.69,93.69,0,0,0,.4-11.08,83.78,83.78,0,0,0-1.07-11A81.42,81.42,0,0,0,162.67,89.4Z"/><path class="cls-1" d="M165.1,133.19a.21.21,0,0,0-.13,0l-.05,0a.19.19,0,0,0-.11.15c-.33,2.41-.76,4.72-1.28,6.89a76.13,76.13,0,0,1-3.3,10.46,77,77,0,0,1-4.81,9.85,83.16,83.16,0,0,1-6.2,9,80.64,80.64,0,0,1-7.45,8,73.71,73.71,0,0,1-31.54,17c1.18-.35,2.32-.73,3.43-1.12a77.51,77.51,0,0,0,9.88-4.3,76.36,76.36,0,0,0,9.11-5.69,78.57,78.57,0,0,0,8.14-6.95,72.79,72.79,0,0,0,21.78-47.33,77,77,0,0,0-.07-10.6,81.65,81.65,0,0,0-1.61-10.47,72.47,72.47,0,0,0-13.54-28.42,77.23,77.23,0,0,0-7.11-7.81,79.41,79.41,0,0,0-8.17-6.69,80.62,80.62,0,0,0-9-5.45,76.7,76.7,0,0,0-9.75-4.08,74,74,0,0,0-10.23-2.6A73.48,73.48,0,0,0,82,52.43c-1.31.17-2.6.36-3.87.58-2.23.38-4.43.86-6.53,1.41a78,78,0,0,0-10,3.49A72.86,72.86,0,0,0,24.28,94.3a76.29,76.29,0,0,0-3.81,10,73.69,73.69,0,0,0-2.31,10.49,74.89,74.89,0,0,0-.74,10.75c0,1.2,0,2.42.09,3.67A73.45,73.45,0,0,1,23,93.72,80.1,80.1,0,0,1,28,84a82.24,82.24,0,0,1,6.41-8.87A73.94,73.94,0,0,1,50.83,60.7,74.09,74.09,0,0,1,78.41,50a74.06,74.06,0,0,1,48,7.88.2.2,0,0,0,.13,0l.06,0c.8-.42,2.07-1.11,3.5-2a.17.17,0,0,0,.09-.16.22.22,0,0,0-.09-.17A78.82,78.82,0,0,0,17.56,94.27a.17.17,0,0,0,0,.1,26.91,26.91,0,0,0,1.34,6c-4.53,14-7.28,32.18,6.41,60.48a29.32,29.32,0,0,0-.56,6.17.19.19,0,0,0,0,.1A79.76,79.76,0,0,0,49.44,191a.13.13,0,0,0,.08,0,29.82,29.82,0,0,0,7.55,0l.18,0c16.08,7,31.91,9.19,47.05,6.57h0c16-2.76,30.67-10.84,43.72-24a27.9,27.9,0,0,0,5.38-1.92.18.18,0,0,0,.07-.05,79.46,79.46,0,0,0,15-34.24.19.19,0,0,0,0-.13A11.1,11.1,0,0,0,165.1,133.19ZM157,161.43l.51-.9.54-.92.56-.92.34-.54.22-.33c.32-.51.67-1,1-1.53l.52-.69.12-.14v0c-.07.27-.15.61-.27,1a14.6,14.6,0,0,1-.68,1.73l-.15.31a6.25,6.25,0,0,1-.31.64l-.53.94-.59.92-.62.86a14.13,14.13,0,0,1-1.22,1.42,8.7,8.7,0,0,1-.74.69l0,0,.07-.16c.1-.23.22-.5.37-.79C156.45,162.51,156.74,162,157,161.43ZM29.19,166.71l.4.41c.31.32.67.68,1,1.08l2.91,3.07,1.14,1.18c.36.39.75.78,1.13,1.17l.77.8,1.13,1.15,1.48,1.51,2.65,2.66,1.07,1.1.38.4c-.48-.32-1.07-.71-1.72-1.2-.87-.63-1.86-1.43-2.93-2.37l-.5-.44c-.36-.32-.72-.64-1.08-1s-.77-.75-1.16-1.14l-.41-.4-.39-.42-1.1-1.2-1.08-1.25-.31-.37c-.91-1.11-1.67-2.12-2.28-3C29.86,167.8,29.49,167.2,29.19,166.71Zm73.33,25.46A69.37,69.37,0,1,1,159.07,112,69.47,69.47,0,0,1,102.52,192.17Z"/><path class="cls-1" d="M59.2,30.62a.18.18,0,0,0,.09,0,.2.2,0,0,0,0-.27A17.43,17.43,0,0,1,57.08,13a10.58,10.58,0,0,1,.69-1.44l.29-.56c.12-.2.26-.4.39-.6L59,9.62l.36-.45A16.58,16.58,0,0,1,62.49,6a17.81,17.81,0,0,1,3.87-2.2,18.16,18.16,0,0,1,3.36-1,9.66,9.66,0,0,1,1-.13,16.54,16.54,0,0,1,4.44,0A18.34,18.34,0,0,1,79.4,4a17.16,17.16,0,0,1,6.93,5.52,17.43,17.43,0,0,1,3.26,8.33,17,17,0,0,1-.08,4.56,18.57,18.57,0,0,1-1.28,4.43.2.2,0,0,0,.09.25.17.17,0,0,0,.12,0,.19.19,0,0,0,.14-.09,17.36,17.36,0,0,0,2-9.25A17.73,17.73,0,0,0,87.5,8.69,18,18,0,0,0,70.46,1c-.32,0-.64.08-.95.14a19.64,19.64,0,0,0-3.8,1.1l-.38.17a12.83,12.83,0,0,0-1.81.92,15.09,15.09,0,0,0-1.87,1.23l-.19.14a18.2,18.2,0,0,0-3.39,3.51l-.38.5-.54.87a8.1,8.1,0,0,0-.42.7l-.28.57a10.88,10.88,0,0,0-.72,1.64,17.18,17.18,0,0,0-1.11,4.74l-.07,1.2a7.09,7.09,0,0,0,0,.8c0,.14,0,.28,0,.41a13.71,13.71,0,0,0,.19,1.94l.07.48A17.49,17.49,0,0,0,59,30.56.21.21,0,0,0,59.2,30.62Z"/><path class="cls-1" d="M80.27,32.29a2.34,2.34,0,0,1-.7.22,3,3,0,0,1-2.46-.71.17.17,0,0,0-.15,0l-.06,0a.18.18,0,0,0-.1.19c0,.07.83,7.53-4.88,10.7a.18.18,0,0,0-.08.25.19.19,0,0,0,.21.11h0a35.09,35.09,0,0,1,5.72-1.53,19.78,19.78,0,0,1,4-.33h0a.19.19,0,0,0,.11-.07.18.18,0,0,0,0-.16l-1.46-8.5a.19.19,0,0,0-.11-.15.25.25,0,0,0-.12,0Z"/><path class="cls-1" d="M122.93,48.35a.16.16,0,0,0,.1,0h0a.2.2,0,0,0,.11-.11l5.9-14.85a.19.19,0,0,0-.1-.25l-3.8-1.51a.22.22,0,0,0-.11,0l0,0a.16.16,0,0,0-.1.1L119,46.59a.19.19,0,0,0,.11.25Z"/><path class="cls-2" d="M127.74,50.47l7-16.76L124.69,29.5l-7,16.7A81.59,81.59,0,0,0,83.15,42l-1-6a19.25,19.25,0,1,0-12.76,2.2l1,6A81.83,81.83,0,0,0,39.25,59.75L27.07,46.36,19,53.69,31.23,67.14a82.19,82.19,0,1,0,96.51-16.67Zm5.16-15.7-6.42,14.95-1.25-.54,6.41-14.94Zm-7.8-3,3.8,1.51L123,48.17l-3.8-1.51ZM55,22a17.32,17.32,0,0,1-.26-2.38c0-.4-.06-.8,0-1.2l.07-1.2a16.88,16.88,0,0,1,1.1-4.68,19.72,19.72,0,0,1,1-2.2c.2-.35.42-.69.63-1l.32-.52.37-.48a17.92,17.92,0,0,1,3.37-3.48,16.15,16.15,0,0,1,2-1.35,17.05,17.05,0,0,1,2.18-1.09A18.18,18.18,0,0,1,80,2.64a18,18,0,0,1,7.34,6.15,17.69,17.69,0,0,1,3.1,9,17.18,17.18,0,0,1-2,9.14,18.57,18.57,0,0,0,1.29-4.47,17.37,17.37,0,0,0,.08-4.61,17.59,17.59,0,0,0-3.3-8.42,17.32,17.32,0,0,0-7-5.59,18,18,0,0,0-4.33-1.23,16.47,16.47,0,0,0-4.49,0,16.82,16.82,0,0,0-4.36,1.1,17.84,17.84,0,0,0-3.92,2.22,17.52,17.52,0,0,0-3.2,3.18l-.35.44-.31.48c-.2.32-.42.63-.61.95a16.81,16.81,0,0,0-1,2,17.67,17.67,0,0,0,2.28,17.46A17.18,17.18,0,0,1,55,22Zm2.07-.09A15.79,15.79,0,1,1,81.48,32.33L81.2,30.7l.61-.1a2.8,2.8,0,0,0,2.28-3.23L81.76,13.9a2.8,2.8,0,0,0-3.23-2.28L64.56,14a2.8,2.8,0,0,0-2.28,3.23l2.33,13.46A2.8,2.8,0,0,0,67.84,33l.6-.1.28,1.62A15.8,15.8,0,0,1,57.1,21.94Zm22.77-.69c-.2-1.12-.34-2.25-.43-3.39a22,22,0,0,1-.06-3.45,23.33,23.33,0,0,1,1.11,3.27q.44,1.65.72,3.33c.2,1.12.34,2.25.43,3.39a20.85,20.85,0,0,1,.06,3.45,22.05,22.05,0,0,1-1.1-3.27C80.31,23.48,80.06,22.37,79.87,21.25ZM77,32a3.09,3.09,0,0,0,3.38.51L81.83,41A30.1,30.1,0,0,0,72,42.84C77.9,39.57,77,32,77,32Zm-8-5.36c-.3-1.11-.54-2.22-.73-3.34s-.34-2.24-.44-3.38a22,22,0,0,1,0-3.45,22.05,22.05,0,0,1,1.1,3.27c.29,1.1.54,2.21.73,3.33s.34,2.25.43,3.39a23.17,23.17,0,0,1,.06,3.44A21.94,21.94,0,0,1,69,26.59ZM69.91,23c-.2-1.12-.34-2.25-.44-3.39a22,22,0,0,1,0-3.45,22.45,22.45,0,0,1,1.1,3.27c.29,1.1.54,2.21.73,3.33s.34,2.25.43,3.39a22,22,0,0,1,.06,3.45,22.05,22.05,0,0,1-1.1-3.27C70.34,25.2,70.1,24.09,69.91,23Zm1.66-.29c-.2-1.12-.34-2.25-.44-3.38a22,22,0,0,1,0-3.45,21.94,21.94,0,0,1,1.1,3.26c.29,1.11.54,2.22.73,3.34s.34,2.25.43,3.38a22,22,0,0,1,.06,3.45A22.05,22.05,0,0,1,72.3,26C72,24.91,71.76,23.8,71.57,22.68Zm1.66-.29c-.2-1.12-.34-2.24-.43-3.38a20.87,20.87,0,0,1-.06-3.45,22.05,22.05,0,0,1,1.1,3.27c.29,1.1.54,2.21.73,3.33s.34,2.25.43,3.39A21.89,21.89,0,0,1,75.06,29,21.94,21.94,0,0,1,74,25.73C73.67,24.62,73.42,23.51,73.23,22.39Zm1.66-.28c-.2-1.12-.34-2.25-.43-3.39a20.85,20.85,0,0,1-.06-3.45,22.05,22.05,0,0,1,1.1,3.27c.3,1.1.54,2.21.73,3.33s.34,2.25.43,3.39a22,22,0,0,1,.06,3.45,22.05,22.05,0,0,1-1.1-3.27C75.33,24.34,75.08,23.23,74.89,22.11Zm1.66-.29c-.2-1.12-.34-2.25-.43-3.38A20.89,20.89,0,0,1,76.06,15a21.94,21.94,0,0,1,1.1,3.26c.3,1.11.54,2.22.73,3.34s.34,2.25.43,3.38a20.87,20.87,0,0,1,.06,3.45,22.05,22.05,0,0,1-1.1-3.27C77,24.05,76.74,22.94,76.55,21.82Zm2.39,3.05c-.29-1.11-.54-2.22-.73-3.34s-.34-2.24-.43-3.38a22,22,0,0,1-.06-3.45A23.33,23.33,0,0,1,78.83,18q.44,1.65.72,3.33c.2,1.12.34,2.25.43,3.39A20.75,20.75,0,0,1,80,28.13,21.94,21.94,0,0,1,78.94,24.87Zm-11-1.56c.19,1.12.33,2.25.43,3.38a23.31,23.31,0,0,1,.06,3.45,21.67,21.67,0,0,1-1.1-3.27c-.3-1.1-.54-2.21-.73-3.33s-.34-2.25-.44-3.38a22,22,0,0,1-.05-3.45A21.67,21.67,0,0,1,67.2,20C67.49,21.08,67.74,22.19,67.93,23.31Zm-1.66.28c.19,1.12.33,2.25.43,3.39a23.31,23.31,0,0,1,.06,3.45,23.33,23.33,0,0,1-1.11-3.27q-.44-1.65-.72-3.33c-.2-1.12-.34-2.25-.44-3.39a22,22,0,0,1,0-3.45,22.45,22.45,0,0,1,1.1,3.27C65.83,21.36,66.08,22.47,66.27,23.59ZM27.45,48.67,38,60.68l-3.07,2.7-10.55-12Zm-6.34,5.41,1-.93,11,11.93-1,.92Zm-5.54,95.43a78.14,78.14,0,0,1-4.11-15.8,69.18,69.18,0,0,1-.36-16.33,63,63,0,0,1,3.6-15.88,65.38,65.38,0,0,0-2,7.88l-.37,2-.29,2c-.22,1.34-.29,2.69-.43,4a71.21,71.21,0,0,0,.52,16.18,81.27,81.27,0,0,0,3.92,15.72l1.46,3.79c.51,1.25,1.12,2.46,1.68,3.7l.84,1.85,1,1.8,1.91,3.59A85.51,85.51,0,0,1,15.57,149.51ZM142.78,184.3a81.63,81.63,0,0,1-11.05,8,79.06,79.06,0,0,1-25.43,9.82,80.19,80.19,0,0,1-27.25.59,78.36,78.36,0,0,1-13.27-3.25,71.31,71.31,0,0,1-12.42-5.65,71.49,71.49,0,0,0,12.52,5.33,78.3,78.3,0,0,0,13.25,3,80.77,80.77,0,0,0,27-.74,79.93,79.93,0,0,0,25.3-9.6A81.7,81.7,0,0,0,142.56,184a89.32,89.32,0,0,0,9.79-9.47A90.63,90.63,0,0,1,142.78,184.3Zm10.54-12.85a28.31,28.31,0,0,1-5.39,1.92c-27.48,27.8-60.18,30.68-90.66,17.44,0,0-2.33.57-7.73.05A79.21,79.21,0,0,1,24.93,167a28.65,28.65,0,0,1,.57-6.19c-13.75-28.4-10.91-46.54-6.41-60.46a27.81,27.81,0,0,1-1.35-6A78.64,78.64,0,0,1,130,55.65c-1.37.87-2.6,1.55-3.49,2a74.42,74.42,0,0,0-75.82,2.87A73.94,73.94,0,0,0,34.26,75a82.19,82.19,0,0,0-6.42,8.89,80.56,80.56,0,0,0-5,9.72,72.85,72.85,0,0,0-4.43,42.66,82.71,82.71,0,0,1-.77-10.76,72.79,72.79,0,0,1,3-21.18,76.55,76.55,0,0,1,3.81-10A73.15,73.15,0,0,1,52.26,63a74.52,74.52,0,0,1,9.38-4.88,77.07,77.07,0,0,1,10-3.48,79.7,79.7,0,0,1,10.37-2,79,79,0,0,1,10.54-.45A76.74,76.74,0,0,1,103,53.24a73.09,73.09,0,0,1,10.21,2.6,74.41,74.41,0,0,1,9.72,4.06,79.37,79.37,0,0,1,9,5.44A80.06,80.06,0,0,1,140.11,72a75.82,75.82,0,0,1,7.09,7.79,74.55,74.55,0,0,1,5.86,8.75,72.86,72.86,0,0,1,7.64,19.6,79.77,79.77,0,0,1,1.61,10.44,77.52,77.52,0,0,1,.07,10.56,74,74,0,0,1-1.46,10.48,73.18,73.18,0,0,1-20.26,36.73,76.84,76.84,0,0,1-8.13,6.93,75.88,75.88,0,0,1-9.08,5.68,77.73,77.73,0,0,1-9.86,4.29,80.26,80.26,0,0,1-10.39,2.88,72.94,72.94,0,0,0,38.7-18.48,80.74,80.74,0,0,0,7.47-8,82.17,82.17,0,0,0,6.22-9,77,77,0,0,0,4.82-9.87,78.48,78.48,0,0,0,3.31-10.5c.54-2.28,1-4.58,1.28-6.91a11.16,11.16,0,0,1,3.27,3.94A78.85,78.85,0,0,1,153.32,171.45ZM150.46,70.92a79.83,79.83,0,0,1,12,18.56,81.43,81.43,0,0,1,6.5,21.16,83.2,83.2,0,0,1,1.06,11,94.93,94.93,0,0,1-.39,11.06,93.1,93.1,0,0,0-1.18-22,83.59,83.59,0,0,0-6.6-21,82,82,0,0,0-11.82-18.51,73.46,73.46,0,0,0-7.72-7.86,60.67,60.67,0,0,0-8.89-6.53,56.74,56.74,0,0,1,9.11,6.28A74.3,74.3,0,0,1,150.46,70.92Z"/><path class="cls-2" d="M159.26,112a69.56,69.56,0,1,0-56.71,80.39A69.64,69.64,0,0,0,159.26,112ZM25.52,135.06A66.15,66.15,0,1,1,102,189,66.23,66.23,0,0,1,25.52,135.06Z"/><path class="cls-2" d="M153.54,113a63.76,63.76,0,1,0-52,73.68A63.83,63.83,0,0,0,153.54,113ZM29.89,134.31a61.72,61.72,0,1,1,71.32,50.32A61.78,61.78,0,0,1,29.89,134.31Z"/><path class="cls-2" d="M44.06,143.75a48.82,48.82,0,0,0,4.81,7.58c.94,1.16,1.89,2.3,2.92,3.36s2.11,2.07,3.23,3c-.86-1.2-1.73-2.36-2.5-3.6s-1.53-2.46-2.23-3.72a52.38,52.38,0,0,1-3.46-7.83A51.49,51.49,0,0,1,44,126.06,49,49,0,0,1,81.6,77.9a50.85,50.85,0,0,1,16.71-1.21A55.06,55.06,0,0,1,115,81a44.53,44.53,0,0,0-16.19-7.25,47.58,47.58,0,0,0-18.12-.55A49.65,49.65,0,0,0,39.15,126.3,48.3,48.3,0,0,0,44.06,143.75Z"/><path class="cls-2" d="M113.9,72.3h0l1.63-3.63h0l0,0-1.27-.55,0,0-1.56,3.71h0C113.12,72,113.52,72.12,113.9,72.3Z"/><path class="cls-2" d="M107.87,70h0l1.22-3.83h0l-1.33-.4h0l-1.14,3.85h0Z"/><path class="cls-2" d="M125,78.9l0,0,2.44-3.19,0,0-1.11-.83,0,0-2.36,3.25,0,0C124.28,78.38,124.63,78.63,125,78.9Z"/><path class="cls-2" d="M119.62,75.28l0,0,2.06-3.45,0,0c-.38-.23-.79-.46-1.2-.69l0,0-2,3.5h0Z"/><path class="cls-2" d="M101.62,68.37h0l.77-3.94,0-.17,0,.16c-.42-.09-.85-.17-1.33-.25h0l-.69,4h0Z"/><path class="cls-2" d="M88.76,67.35h0l-.14-4v0h0l-1.39.07h0l.23,4h0C87.89,67.39,88.32,67.36,88.76,67.35Z"/><path class="cls-2" d="M95.22,67.49h0l.32-4h0l-1.38-.1h0l-.23,4h0C94.37,67.42,94.81,67.46,95.22,67.49Z"/><path class="cls-2" d="M62.89,74.63c.37-.22.76-.43,1.13-.62h0l-1.9-3.55,0,0c-.43.22-.84.45-1.22.66l0,0,2,3.5Z"/><path class="cls-2" d="M57.45,78.14c.42-.31.75-.54,1.06-.75l0,0-2.28-3.28h-.11l0,0c-.35.24-.71.49-1.09.77l0,0,2.36,3.25Z"/><path class="cls-2" d="M129.88,83.11l0,0,2.75-2.87h0v0c-.36-.35-.69-.66-1-.95l0,0-2.72,3,0,0Z"/><path class="cls-2" d="M82.34,68h0l-.6-4h0l-1.32.21h-.08L81,68.12l.08,0C81.52,68.07,81.94,68,82.34,68Z"/><path class="cls-2" d="M68.68,71.78l1.2-.49h0l-1.59-4,.06.3c-.4.15-.81.32-1.26.51l0,0,1.56,3.7Z"/><path class="cls-2" d="M144.4,141.39c-.13.39-.26.79-.42,1.22v0l3.78,1.34v0c.15-.42.3-.86.45-1.31v0l-3.81-1.25Z"/><path class="cls-2" d="M147.18,122.31c0,.45,0,.88,0,1.29v0l4,0v0q0-.66,0-1.38v0l-4,.11Z"/><path class="cls-2" d="M133.44,86.86l.84,1h0l3.08-2.54,0,0-.91-1.06v0l-3,2.63Z"/><path class="cls-2" d="M142,147.4c-.2.43-.38.81-.56,1.16v0l3.58,1.75h0v0c.2-.39.4-.81.6-1.24v0l-3.65-1.69Z"/><path class="cls-2" d="M139,153.1c-.24.39-.47.75-.68,1.1l0,0,3.35,2.14,0,0,0,0,.73-1.18,0,0L139,153.07Z"/><path class="cls-2" d="M147,128.77c0,.43-.08.86-.13,1.28v0l4,.45v0c0-.46.09-.92.13-1.38v0l-4-.35Z"/><path class="cls-2" d="M137.38,92q.38.54.72,1.08l0,0,3.37-2.19,0,0c-.29-.45-.54-.81-.76-1.15l0,0-3.32,2.26Z"/><path class="cls-2" d="M140.72,97.51l.59,1.15v0l3.6-1.78,0,0-.62-1.23,0,0-3.56,1.87Z"/><path class="cls-2" d="M143.39,103.39c.16.43.31.82.45,1.21v0l3.78-1.36v0l-.48-1.29,0,0-3.74,1.45Z"/><path class="cls-2" d="M146.64,115.87c.05.41.11.83.16,1.29v0l4-.48v0c0-.43-.11-.88-.18-1.37v0l-4,.56Z"/><path class="cls-2" d="M145.37,109.53c.11.43.22.86.31,1.27v0l3.92-.93,0,0c-.09-.42-.2-.86-.32-1.35l0,0-3.88,1Z"/><path class="cls-2" d="M58.87,170.46h0l-2.27,3.31,0,0,1.15.77h0L60,171.2l0,0Z"/><path class="cls-2" d="M53.75,166.53l0,0-2.63,3,0,0,1,.89,0,0,2.54-3.07v0l0,0Z"/><path class="cls-2" d="M135.37,158.39l0,0c-.27.34-.54.69-.81,1l0,0,3.12,2.53,0,0c.3-.37.59-.73.86-1.09l0,0-3.14-2.43Z"/><path class="cls-2" d="M50,163l0,0-.89-.94,0,0-3,2.72v0l1,1,0,0L50,163Z"/><path class="cls-2" d="M64.41,173.8l0,0-1.86,3.52,0,0,0,0,1.24.63,0,0,1.79-3.6,0,0C65.2,174.21,64.82,174,64.41,173.8Z"/><path class="cls-2" d="M45.81,158.1l0,0c-.27-.35-.53-.7-.77-1v0l-3.23,2.36h0v0c.29.39.56.75.84,1.1l0,0,3.16-2.42Z"/><path class="cls-2" d="M76.43,178.47h0l-1,3.85v0h0l1.34.33h0l.93-3.91h0Z"/><path class="cls-2" d="M89.18,180.28v0h0L89,184.26h0l0,0,1.39,0h0v-4h0Z"/><path class="cls-2" d="M95.64,180.08h0l.35,4h0l1.38-.14h0L97,180h0Z"/><path class="cls-2" d="M42.19,152.75l0,0c-.23-.38-.45-.75-.65-1.12l0,0-3.5,2,0,0c.22.4.45.8.7,1.2l0,0,3.41-2Z"/><path class="cls-2" d="M82.75,179.74h0l-.59,3.94v0h0c.48.07.93.13,1.36.17h0l.47-4h0Z"/><path class="cls-2" d="M70.29,176.47h0l-1.44,3.7,0,0h0l1.29.49h0L71.52,177l0,0C71.11,176.8,70.72,176.65,70.29,176.47Z"/><path class="cls-2" d="M38,103.42c.15-.41.31-.81.48-1.21v0l-3.71-1.54v0c-.18.41-.35.84-.52,1.28v0L38,103.45Z"/><path class="cls-2" d="M40.7,97.54c.21-.4.42-.78.62-1.14v0l-3.51-2,0,0c-.24.44-.45.83-.65,1.22v0l3.55,1.87Z"/><path class="cls-2" d="M39.18,147c-.19-.42-.36-.81-.51-1.18v0L35,147.33v0l.55,1.27v0L39.2,147Z"/><path class="cls-2" d="M52.46,82.24l1-.87,0,0-2.66-3,0,0c-.32.27-.66.57-1,.92l0,0,2.72,3Z"/><path class="cls-2" d="M48,86.88c.27-.32.56-.65.85-1l0,0-3-2.69,0,0c-.34.36-.64.7-.92,1l0,0,3,2.62Z"/><path class="cls-2" d="M44,92c.23-.35.48-.69.72-1l0,0v-.08l-3.26-2.34v0c-.28.37-.54.76-.8,1.13v0L44,92Z"/><path class="cls-2" d="M36,109.55c.11-.41.22-.82.33-1.2l.13,0-.13-.09-3.85-1.1v0c-.14.49-.26.93-.37,1.33v0l3.89,1Z"/><path class="cls-2" d="M35.29,134.73v0c-.08-.45-.16-.87-.23-1.27l-3.93.64,0,0c.08.44.16.89.25,1.36v0Z"/><path class="cls-2" d="M36.9,141l0,0c-.13-.4-.26-.82-.38-1.24v0l-3.82,1.11,0,0c.12.42.25.85.4,1.32l0,0,3.79-1.2Z"/><path class="cls-2" d="M34.77,115.89c.06-.44.13-.87.19-1.28v0l-4-.65v0c-.07.41-.14.86-.21,1.36v0l4,.56Z"/><path class="cls-2" d="M34.44,128.77c0-.45-.07-.87-.1-1.29v0l-4,.27v0c0,.44.07.89.11,1.38v0l4-.36Z"/><path class="cls-2" d="M34.23,122.32c0-.42,0-.84.05-1.29v0l-4-.19v0c0,.44,0,.9-.05,1.39v0l4,.11Z"/><path class="cls-2" d="M74.77,69.61,76,69.27h0l-1-3.89,0,0c-.47.12-.91.24-1.33.37h0l1.13,3.86Z"/><path class="cls-2" d="M115.49,174.58h0c-.4.2-.79.39-1.17.56h0l1.67,3.65h0l1.25-.59,0,0-1.74-3.58Z"/><path class="cls-2" d="M103.29,178.87l-1.26.28h0l.79,3.91h0v0c.47-.09.92-.19,1.35-.29h0l-.89-3.91Z"/><path class="cls-2" d="M131.11,163.29l-.91.91,0,0,2.78,2.84h0l.08,0,0,0,.95-1,0,0-2.87-2.8Z"/><path class="cls-2" d="M109.5,177.08c-.41.15-.83.29-1.22.41l0,0,1.23,3.78,0,0,1.31-.45h0l-1.33-3.78Z"/><path class="cls-2" d="M121.1,171.44c-.4.25-.76.48-1.11.68l0,0,2.16,3.56,0-.16c.4-.24.79-.48,1.16-.72h0l-2.16-3.39Z"/><path class="cls-2" d="M126.33,167.65c-.35.29-.68.56-1,.81l0,0,2.47,3.17h0l1.09-.87,0,0-2.53-3.12Z"/><path class="cls-2" d="M42,179.61c-.77-.79-1.67-1.69-2.64-2.67l-1.48-1.5c-.51-.51-1-1-1.52-1.56s-1-1-1.51-1.57-1-1-1.46-1.52l-2.59-2.72c-.75-.8-1.41-1.45-1.85-1.92s-.71-.72-.71-.72.17.32.5.88.82,1.35,1.46,2.25,1.41,1.95,2.29,3c.45.53.91,1.08,1.39,1.63s1,1.08,1.5,1.62,1,1,1.58,1.55,1.07,1,1.58,1.44c1.05.91,2.05,1.72,3,2.38s1.67,1.16,2.21,1.52.87.53.87.53-.25-.28-.7-.74S42.75,180.38,42,179.61Z"/><path class="cls-2" d="M160.08,156.18c-.32.45-.67,1-1,1.54-.18.28-.38.57-.56.88l-.56.91-.54.92-.51.91c-.33.58-.62,1.15-.86,1.64s-.42.92-.57,1.21-.19.48-.19.48a4.87,4.87,0,0,0,.4-.32c.24-.22.61-.52,1-.92a16,16,0,0,0,1.23-1.44c.21-.28.41-.57.63-.86l.59-.92.54-1c.18-.31.31-.65.47-1a14.9,14.9,0,0,0,.68-1.76c.18-.52.27-1,.35-1.3s.09-.51.09-.51-.13.14-.33.4S160.39,155.73,160.08,156.18Z"/><path class="cls-2" d="M87,166.13a54.3,54.3,0,0,1-41.82-9.87,56.72,56.72,0,0,0,100.56-20l0,.13,3.9.92v0c.1-.43.2-.87.29-1.35v0l-3.9-.79h0v0c-.07.36-.16.75-.25,1.19l-.05-.06a53,53,0,0,0,.63-21.21,54.14,54.14,0,0,0-34-41.15,51.32,51.32,0,0,1,18.74,31.5C136.05,133.89,116.3,161.08,87,166.13Zm53.3-57.6a49.63,49.63,0,0,1,1.92,7.8c.25,1.31.36,2.66.51,4s.18,2.68.16,4a50.72,50.72,0,0,1-2.47,15.92,54.69,54.69,0,0,1-3.1,7.47,54,54,0,0,1-4.23,6.9,50.6,50.6,0,0,1-5.27,6.15,49.57,49.57,0,0,1-6.15,5.25,52.45,52.45,0,0,1-6.91,4.21,53.25,53.25,0,0,1-7.47,3.06,54.36,54.36,0,0,1-7.84,1.83,52.56,52.56,0,0,1-8,.58,51.68,51.68,0,0,1-8-.73,46.52,46.52,0,0,1-7.72-2,53.19,53.19,0,0,0,31-1.21,51.7,51.7,0,0,0,34.51-47.46,53.26,53.26,0,0,0-8.4-29.91A49.37,49.37,0,0,1,140.32,108.53Z"/><path class="cls-2" d="M83.48,131.28l4.37-3.76a5.08,5.08,0,0,0,4,1A5.14,5.14,0,0,0,96,122.56a5.2,5.2,0,0,0-.55-1.58l30.93-26.64-.4-.49L94,119.36a5.12,5.12,0,0,0-8.17,4.94,5.37,5.37,0,0,0,.4,1.27l-4.53,3.62ZM93.3,123a2.4,2.4,0,0,1-2,2.78,2.36,2.36,0,0,1-1.32-.15l3.24-2.79S93.29,123,93.3,123Zm-2.78-2a2.35,2.35,0,0,1,1.24.12l-3.21,2.56A2.41,2.41,0,0,1,90.52,121.06Z"/><path class="cls-1" d="M69.86,165.83a.21.21,0,0,0-.12,0,.17.17,0,0,0,0,.22l.25.34c.08.11.19.24.3.4l.34.46c.16.2.32.43.5.67l.38.54c.32.45.64.92.94,1.43s.62,1,.88,1.45c.11.21.22.4.33.59s.29.5.4.73.18.35.27.5.17.32.23.45l.19.36a.16.16,0,0,0,.15.09H75a.18.18,0,0,0,.11-.19L75,173.5l0-.19c-.06-.24-.14-.54-.26-.88s-.33-.92-.58-1.44-.54-1-.86-1.56-.69-1-1-1.44a12.3,12.3,0,0,0-1.05-1.14,6.57,6.57,0,0,0-.69-.61l-.15-.13-.32-.24A.15.15,0,0,0,69.86,165.83Z"/><path class="cls-1" d="M70.34,157.64c.07.11.16.24.27.38l.19.26c.12.15.23.31.38.48l.67.79.71.75c.14.15.29.29.43.42l.23.22.36.31.15.13.2.15a.2.2,0,0,0,.11,0,.19.19,0,0,0,.1,0,.19.19,0,0,0,0-.21l-.12-.24-.08-.14a3,3,0,0,0-.25-.44c0-.06-.09-.14-.14-.21a6.19,6.19,0,0,0-.39-.55l-.67-.83-.74-.75c-.17-.16-.34-.31-.5-.44l-.2-.17c-.15-.12-.29-.21-.41-.29l-.14-.11-.22-.13a.12.12,0,0,0-.09,0,.21.21,0,0,0-.12,0,.18.18,0,0,0,0,.21l.14.23Z"/><path class="cls-1" d="M68,162.53a.18.18,0,0,0,.13.06l.08,0a.16.16,0,0,0,.09-.19,55.72,55.72,0,0,0-2.3-7.6.15.15,0,0,0-.06-.09,30.43,30.43,0,0,0-13.56-5h0a.17.17,0,0,0-.16.12.17.17,0,0,0,.09.2,47.63,47.63,0,0,1,13.13,9.72C66.21,160.52,67.06,161.45,68,162.53Z"/><path class="cls-1" d="M13.89,188H14l.17-.07.1,0a2,2,0,0,0,.28-.15l.15-.1a3.29,3.29,0,0,0,.33-.23l.51-.43.44-.46a3.75,3.75,0,0,0,.26-.33l.1-.14a1.69,1.69,0,0,0,.17-.27l.06-.11.07-.15a.17.17,0,0,0,0-.19.18.18,0,0,0-.12-.05h-.07l-.16.07-.1,0a2,2,0,0,0-.28.15l-.15.09a3.53,3.53,0,0,0-.34.24l-.51.43-.44.46-.25.33-.1.14a1.19,1.19,0,0,0-.17.27l-.06.11-.07.15a.19.19,0,0,0,0,.19A.21.21,0,0,0,13.89,188Z"/><path class="cls-1" d="M90.43,190.64A71.13,71.13,0,0,0,77,164.69a.16.16,0,0,0-.13-.06l-.07,0a.17.17,0,0,0-.1.18,62,62,0,0,1,.28,11,.29.29,0,0,0,0,.09,78.29,78.29,0,0,1,6.82,18.55,73,73,0,0,1,1.81,13,.17.17,0,0,0,.12.16h0a.16.16,0,0,0,.14-.07A23.5,23.5,0,0,0,89.75,199l.25-.11a.18.18,0,0,0,.09-.12.17.17,0,0,0,0-.14l-.18-.26A29.72,29.72,0,0,0,90.43,190.64Zm-4.9,3.5-.24-.87c-.29-1.09-.69-2.39-1-3.54l-.64-2c-.16-.5-.34-1-.52-1.5l-.19-.52-.19-.52c-.18-.5-.36-1-.56-1.48s-.39-1-.59-1.5l-.18-.43c-.52-1.21-1-2.39-1.47-3.37l-.35-.76c-.18-.41-.35-.78-.5-1.1.34.46.74,1,1.15,1.69A33,33,0,0,1,82,181.52l.19.41c.23.49.47,1,.69,1.5s.41,1,.61,1.52l.19.49.17.52c.18.52.35,1,.51,1.56s.28,1,.4,1.44l.15.58a32.24,32.24,0,0,1,.68,3.66,20.16,20.16,0,0,1,.2,2C85.75,194.92,85.64,194.55,85.53,194.14Z"/><path class="cls-1" d="M74.85,235.69c6.93-9.48,8.89-24.58,5.24-40.38-5.8-25.15-23.94-44.85-41.3-44.85-.61,0-1.23,0-1.84.08a20.1,20.1,0,0,0-9.2,3.05l0,0-.06,0a23,23,0,0,0-5.55,5.07.15.15,0,0,0,0,.18.16.16,0,0,0,.15.09l9.21-.76c.6,0,1.21-.07,1.81-.07,7.5,0,15.4,3.86,22.26,10.88A61.68,61.68,0,0,1,70.82,198c3.24,14,1.4,27.6-4.92,36.25a20.94,20.94,0,0,1-15.43,9l-.84.07a.15.15,0,0,0-.15.15.17.17,0,0,0,.11.18,25.57,25.57,0,0,0,7.89,1.31h0c.59,0,1.19,0,1.78-.07C65.46,244.33,70.86,241.16,74.85,235.69ZM38.37,152.16l-.42.07c-.68.11-1.48.27-2.32.45l-1.27.32c-.32.08-.64.18-1,.28l-.34.11-.34.11c-.32.1-.64.2-.94.32s-.65.24-1,.36l-.28.12c-.77.32-1.51.65-2.15,1l-.33.16c-.32.15-.61.29-.85.42a10.87,10.87,0,0,1,1-.88,13.92,13.92,0,0,1,2-1.31l.27-.13c.31-.16.64-.32,1-.46s.66-.26,1-.38l.32-.11.34-.1c.34-.09.69-.19,1-.26a8.49,8.49,0,0,1,1-.18l.38-.06a17.28,17.28,0,0,1,1.79-.11l.64,0a10.5,10.5,0,0,1,1.32.14ZM49,155.28c-.19-.06-.37-.13-.56-.21l-.94-.36-.93-.38-.9-.38c-.59-.24-1.13-.48-1.59-.7-.27-.12-.51-.24-.72-.35l-.17-.08h0a7.76,7.76,0,0,1,1,.09,14,14,0,0,1,1.72.36l1,.29,1,.34,1,.42.59.29.29.15a13.7,13.7,0,0,1,1.5.92c.31.21.56.42.77.59h0l-.19-.05L51,156c-.48-.17-1-.36-1.63-.59ZM70,189a56.89,56.89,0,0,0-20.14-27.51l7-2.46c.86.64,9.59,7.5,18.41,27.34ZM66.46,235.8a23.63,23.63,0,0,0,4.47-6.63c1.95-4.16,4-11.19,2.86-21.09l5.29-3c.1.91.38,4.48,0,13.73a.17.17,0,0,0,.15.17h0a.17.17,0,0,0,.17-.12s.49-2,1.11-6.54c-.31,5.65-2.06,17.84-10.88,26.46Z"/><path class="cls-1" d="M73.84,246.11h0l-.24,0-.17,0-.43.11-.28.09a4.15,4.15,0,0,0-.53.18l-.91.34-.88.4c-.18.08-.34.17-.5.26l-.26.14-.2.11-.34.21-.19.13a.18.18,0,0,0-.07.2.17.17,0,0,0,.16.11l.27,0,.15,0a3.19,3.19,0,0,0,.46-.08l.24-.06a3.93,3.93,0,0,0,.6-.17l.93-.33.88-.42a5.69,5.69,0,0,0,.55-.32l.21-.12c.15-.09.27-.19.38-.27l.13-.1.18-.15a.19.19,0,0,0,0-.21A.16.16,0,0,0,73.84,246.11Z"/><path class="cls-1" d="M89.62,221.34h0a.18.18,0,0,0-.15.1l-.22.46c0,.11-.09.24-.15.38s-.22.51-.33.83-.15.42-.24.66-.26.67-.37,1c-.19.63-.4,1.29-.63,2s-.37,1.34-.56,2c-.11.36-.2.72-.27,1.06s-.11.48-.18.69-.14.61-.18.86-.06.3-.09.42l-.08.5a.18.18,0,0,0,.11.18h.06a.15.15,0,0,0,.14-.07l.3-.41.17-.27a9.18,9.18,0,0,0,.52-.86l.2-.39a11.63,11.63,0,0,0,.6-1.27c.25-.63.49-1.3.73-2s.35-1.38.5-2a12.91,12.91,0,0,0,.21-1.38c0-.16,0-.31,0-.45a7.4,7.4,0,0,0,0-1V222l0-.5A.17.17,0,0,0,89.62,221.34Z"/><path class="cls-1" d="M69.67,245.44a5.55,5.55,0,0,0,.47-.37l.14-.12.22-.2a.17.17,0,0,0,0-.21.17.17,0,0,0-.14-.08h-.06l-.29.1-.22.09c-.14.05-.31.11-.49.19l-.39.17-.58.25-1,.45-.13.05c-.36.19-.73.37-1.08.53l-.57.28-.39.2c-.17.08-.32.17-.45.24l-.23.13-.25.14a.18.18,0,0,0-.07.21.16.16,0,0,0,.16.11l.32,0,.18,0a4.3,4.3,0,0,0,.58-.12l.23-.07a6.77,6.77,0,0,0,.82-.25l1.16-.47.74-.39.35-.19c.27-.15.51-.32.72-.46Z"/><path class="cls-1" d="M84.82,214.9a.16.16,0,0,0-.16.14l-.24,1.37c-.08.53-.2,1.19-.34,2-.09.5-.18,1-.28,1.62-.27,1.53-.69,3.3-1.09,5a40.38,40.38,0,0,1-1.77,5.51,31.24,31.24,0,0,1-2.51,5.16,29.71,29.71,0,0,1-2.92,4.08A26.84,26.84,0,0,1,73,242.26c-.23.21-.43.37-.59.51l-.45.37a.17.17,0,0,0,0,.23.16.16,0,0,0,.14.08.13.13,0,0,0,.08,0l.51-.29c.19-.11.43-.25.69-.42a19.23,19.23,0,0,0,2.9-2.31,24.28,24.28,0,0,0,3.36-4A32.09,32.09,0,0,0,82.37,231a40.61,40.61,0,0,0,1.68-5.75,44,44,0,0,0,.74-5v-.16c.12-1.22.15-2.26.18-3.1v-2a.16.16,0,0,0-.15-.17Z"/><path class="cls-1" d="M53.47,232.74c5.67-7.77,7.27-20.16,4.28-33.14C53,178.93,38.12,162.74,23.9,162.74c-.5,0-1,0-1.5.06a17.24,17.24,0,0,0-12.67,7.44C4.05,178,2.45,190.4,5.45,203.38c4.76,20.67,19.63,36.86,33.85,36.86h0q.75,0,1.5-.06A17.24,17.24,0,0,0,53.47,232.74Zm2.67-30.91v-.14a6.24,6.24,0,0,1,.34.72,9.48,9.48,0,0,1,.44,1.36l.18.79.12.82.06.85a5,5,0,0,1,0,.54c0,.09,0,.18,0,.27a8.55,8.55,0,0,1-.14,1.43,5.3,5.3,0,0,1-.17.77v0l0-.15c0-.19-.1-.4-.14-.64-.08-.41-.16-.89-.22-1.39,0-.1,0-.21,0-.31s0-.31-.06-.48l-.08-.7-.09-.91-.07-.79c0-.51-.07-1-.08-1.41C56.14,202.24,56.14,202,56.14,201.83Zm-7.37-20c.58.78,1.22,1.75,1.9,2.89l.22.39c.25.43.5.87.73,1.33s.46.89.68,1.35l.22.46.2.47c.2.46.4.93.58,1.4s.34.87.49,1.29c.06.19.12.37.19.54.41,1.26.72,2.38.93,3.34.17.72.28,1.36.36,1.88-.09-.23-.19-.49-.31-.78s-.25-.64-.38-1c-.32-.83-.71-1.78-1.12-2.79l-.16-.4-.75-1.77c-.19-.46-.4-.91-.61-1.37l-.42-.92c-.2-.45-.41-.9-.63-1.34s-.43-.91-.65-1.35l-.32-.63c-.52-1-1-2-1.45-2.81l-.88-1.68C47.93,180.77,48.34,181.26,48.77,181.86ZM10,175.15a19.13,19.13,0,0,1,2.64-3.48A14.61,14.61,0,0,1,16.15,169a12.72,12.72,0,0,1,4.26-1.34,14.61,14.61,0,0,1,1.61-.09,13.6,13.6,0,0,1,2.81.28,19.16,19.16,0,0,1,6.63,2.8,28.51,28.51,0,0,0-6.8-1.74A16,16,0,0,0,23,168.8a12.64,12.64,0,0,0-6.14,1.47,17.89,17.89,0,0,0-6,5.47,48.14,48.14,0,0,0-3.66,6A26.25,26.25,0,0,1,10,175.15Zm-2,28.9c-2.4-10.43-1.08-20.42,3.54-26.75A14.59,14.59,0,0,1,22.26,171c.41,0,.84-.06,1.26-.06,11.6,0,23.69,13,27.51,29.58C53.44,211,52.12,221,47.5,227.28a14.61,14.61,0,0,1-10.76,6.29c-.42,0-.84.05-1.26.05C23.87,233.62,11.78,220.63,8,204.05ZM47.4,234.53a18.19,18.19,0,0,1-3.94,2.25,14.15,14.15,0,0,1-4.44,1c-.26,0-.51,0-.77,0a13.5,13.5,0,0,1-6.44-1.67,17.76,17.76,0,0,0,5,.75,14.94,14.94,0,0,0,2.13-.15,16.6,16.6,0,0,0,7.6-3.34,21.58,21.58,0,0,0,3.11-2.86,28.81,28.81,0,0,0,2.63-3.37,34.24,34.24,0,0,0,3.31-6.44,21.83,21.83,0,0,1-2.4,7,22.27,22.27,0,0,1-2.51,3.71A21,21,0,0,1,47.4,234.53Z"/><path class="cls-1" d="M28,205.29a2,2,0,0,0,.83-.18c1.28-.61,1.63-2.57.77-4.37a3.74,3.74,0,0,0-3.05-2.36,1.9,1.9,0,0,0-.82.19c-1.29.6-1.63,2.57-.78,4.37A3.74,3.74,0,0,0,28,205.29Z"/><path class="cls-1" d="M11.61,201.3l0-.46c0-.21-.05-.47-.07-.79l0-.4c0-.33,0-.71,0-1.11,0-.18,0-.36,0-.54,0-.61,0-1.25.09-1.9s.13-1.28.23-1.87c0-.2.08-.39.11-.57.07-.39.14-.75.22-1.06l.1-.42c.08-.29.14-.54.2-.74l.11-.44a.16.16,0,0,0-.1-.2l-.06,0a.19.19,0,0,0-.15.09l-.23.41-.07.14a6.57,6.57,0,0,0-.44,1,12.61,12.61,0,0,0-.53,1.66,19.46,19.46,0,0,0-.33,2c0,.68,0,1.35,0,2a15,15,0,0,0,.24,1.73,7.47,7.47,0,0,0,.28,1l0,.15.16.43a.17.17,0,0,0,.16.12h0A.17.17,0,0,0,11.61,201.3Z"/><path class="cls-1" d="M44.89,224a19.53,19.53,0,0,0,3.24-6.25A31.14,31.14,0,0,0,49,204.05a41,41,0,0,0-1.58-6.67,38.85,38.85,0,0,0-2.68-6.3,33.32,33.32,0,0,0-8.56-10.57,22.55,22.55,0,0,0-5.93-3.39,16.85,16.85,0,0,0-3.32-.84,14.21,14.21,0,0,0-1.84-.12,13.47,13.47,0,0,0-1.56.09.17.17,0,0,0-.15.18.18.18,0,0,0,.17.16H24a15,15,0,0,1,5.92,1.3,21.29,21.29,0,0,1,5.46,3.57,33.61,33.61,0,0,1,7.79,10.43A40.27,40.27,0,0,1,47,204.33a29.4,29.4,0,0,1-.87,12.8,17.5,17.5,0,0,1-2.85,5.59,11.69,11.69,0,0,1-4.81,3.71,10.76,10.76,0,0,1-4.12.79,11.63,11.63,0,0,1-1.94-.16,16.62,16.62,0,0,1-5.9-2.2,29.43,29.43,0,0,1-9.21-9.11,39.39,39.39,0,0,1-3.2-5.77,46.82,46.82,0,0,1-2.25-6.26.17.17,0,0,0-.16-.12h0a.17.17,0,0,0-.13.2,38.83,38.83,0,0,0,4.76,12.61,29.62,29.62,0,0,0,9.32,9.93,21,21,0,0,0,3.1,1.63,16.56,16.56,0,0,0,3.4,1,14,14,0,0,0,2.49.22h0a12.6,12.6,0,0,0,4.62-.84A13.37,13.37,0,0,0,44.89,224Z"/><path class="cls-1" d="M29.91,220.36h0c.25,0,.49,0,.73,0a8.47,8.47,0,0,0,6.22-3.63c2.63-3.6,3.38-9.28,2-15.19-2.17-9.4-9.05-16.76-15.66-16.76q-.36,0-.72,0a8.42,8.42,0,0,0-6.22,3.64c-2.63,3.6-3.39,9.27-2,15.18C16.42,213,23.3,220.36,29.91,220.36ZM21.3,191.91a5.49,5.49,0,0,1,4-2.36l.47,0c4.37,0,8.93,4.91,10.37,11.18.91,3.94.41,7.71-1.32,10.09a5.45,5.45,0,0,1-4,2.35,3.77,3.77,0,0,1-.47,0c-4.38,0-8.93-4.9-10.38-11.17C19.06,198.06,19.56,194.29,21.3,191.91Z"/><path class="cls-1" d="M62.09,216.8a41.45,41.45,0,0,1-1.22,6.48,37.46,37.46,0,0,1-2.24,6.18,36.81,36.81,0,0,1-2.84,5,30.88,30.88,0,0,1-2.52,3.21c-.22.26-.42.48-.59.65l-.46.49a.17.17,0,0,0,0,.23.18.18,0,0,0,.24,0l.5-.46c.18-.16.4-.36.65-.61a27.18,27.18,0,0,0,2.73-3.13,31.56,31.56,0,0,0,3.06-5,36.52,36.52,0,0,0,2.37-6.31A42.14,42.14,0,0,0,63,216.89a48.3,48.3,0,0,0,.17-5.86c0-.35,0-.68,0-1l0-.52c-.07-1-.16-1.83-.25-2.59l-.21-1.55a.16.16,0,0,0-.17-.15h0a.18.18,0,0,0-.16.18l.1,1.56c0,.34,0,.74,0,1.17,0,.86,0,1.84,0,2.92,0,1.5-.1,3.19-.28,5C62.16,216.07,62.11,216.64,62.09,216.8Z"/><path class="cls-1" d="M15.28,176.18l.09,0,.19-.13.14-.1a2.42,2.42,0,0,0,.28-.22l.25-.19.33-.26c.19-.17.41-.35.64-.52a7.21,7.21,0,0,1,.63-.52c.12-.09.22-.19.33-.28l.23-.2.27-.23.14-.13.15-.15a.17.17,0,0,0,0-.2.19.19,0,0,0-.15-.09h0l-.22,0-.11,0a2.64,2.64,0,0,0-.43.14l-.13.06a3.84,3.84,0,0,0-.57.29c-.24.15-.49.32-.74.51s-.44.41-.64.62a5.14,5.14,0,0,0-.4.5l-.08.12a3.31,3.31,0,0,0-.22.39l-.06.11-.08.19a.17.17,0,0,0,.05.2A.15.15,0,0,0,15.28,176.18Z"/><path class="cls-1" d="M69.33,208.73c0,1.15-.11,2.45-.23,3.83L69,213.64a54,54,0,0,1-.88,5.55,52.28,52.28,0,0,1-1.38,5.45l-.31.92c-.44,1.35-.86,2.63-1.33,3.72-.27.67-.53,1.28-.76,1.83s-.43,1-.62,1.39l-.55,1.22a.16.16,0,0,0,.07.22.13.13,0,0,0,.08,0,.18.18,0,0,0,.15-.07l.75-1.11c.25-.37.52-.81.82-1.31.39-.65.71-1.21,1-1.77a40,40,0,0,0,2-4.62,54.15,54.15,0,0,0,1.59-5.58,51.44,51.44,0,0,0,.74-5.75,38.68,38.68,0,0,0,0-5c0-.63-.1-1.27-.2-2-.08-.58-.16-1.1-.24-1.54l-.26-1.31a.16.16,0,0,0-.16-.14h0a.16.16,0,0,0-.15.17l0,1.35c0,.41,0,.91,0,1.52S69.35,208,69.33,208.73Z"/><path class="cls-1" d="M82.91,244h-.07l-.36.16a2.64,2.64,0,0,1-.29.14l-.62.3-.51.25-.75.38c-.45.25-.94.5-1.44.75s-1,.53-1.41.77c-.26.13-.5.27-.73.4l-.51.28-.58.34-.29.18-.33.2a.16.16,0,0,0-.06.21.15.15,0,0,0,.15.1h0l.38-.1.23-.07c.21-.06.47-.14.75-.24l.29-.11c.31-.12.67-.25,1-.42s1-.46,1.48-.71l1.42-.83c.33-.2.64-.42.92-.61l.26-.19c.25-.17.45-.34.62-.48l.19-.16.29-.25a.17.17,0,0,0,0-.22A.16.16,0,0,0,82.91,244Z"/><path class="cls-1" d="M37.15,162.36h0a.16.16,0,0,0-.16.11.18.18,0,0,0,.07.21,41.24,41.24,0,0,1,9.12,7.14,61.58,61.58,0,0,1,15.31,28.92c.07.32.13.63.2.94l.09.44a.15.15,0,0,0,.12.13h0a.16.16,0,0,0,.13-.06,16.3,16.3,0,0,0,3.12-8,.19.19,0,0,0,0-.08C59.68,176.58,48.43,164.63,37.15,162.36Z"/><path class="cls-1" d="M105.2,191.37c2.89,18.5-1,36.1-10.4,47.09-.41.48-.86,1-1.39,1.53a.17.17,0,0,0,0,.23.18.18,0,0,0,.24,0c16.25-15.28,14.82-37.81,14.65-39.82,3.56-1,5.84-4.42,7.14-7.09a.14.14,0,0,0,0-.09l-.18-1.28a81.77,81.77,0,0,0-2-9.33.17.17,0,0,0-.17-.12h0a.17.17,0,0,0-.15.16c-.08,1.49-.2,3-.36,4.46q.09-3.59-.11-7.19c-.5-1.57-1.06-3.14-1.66-4.68a.17.17,0,0,0-.16-.11h0a.17.17,0,0,0-.14.17c.06,2.71,0,5.43-.14,8.13a99.63,99.63,0,0,0-.71-11c-.39-.91-.8-1.8-1.22-2.66a.18.18,0,0,0-.15-.1h0a.17.17,0,0,0-.13.18c.1,3.26.13,6.52.07,9.76-.18-4-.48-8.07-.91-12.13a.14.14,0,0,0,0-.06c-.45-.86-.91-1.71-1.36-2.51a.19.19,0,0,0-.15-.08h0a.18.18,0,0,0-.12.17c.16,4.15.47,10.44,1.06,17.71-1.38-4.82-6.11-17.47-21.18-36.55a14.11,14.11,0,0,1,2.92-.94.16.16,0,0,0,.13-.13.15.15,0,0,0-.06-.17,37.83,37.83,0,0,0-18.18-7.42h0a.17.17,0,0,0-.08.33C87.73,146.75,101.52,167.78,105.2,191.37Z"/><path class="cls-1" d="M11.17,182.08c.24-.55.47-1.07.71-1.52l.2-.41c.23-.45.42-.84.58-1.12l.31-.59a.18.18,0,0,0-.06-.22.16.16,0,0,0-.09,0,.21.21,0,0,0-.14.07l-.41.52-.12.17c-.23.32-.55.75-.86,1.28a21,21,0,0,0-1.2,2.17c-.39.84-.76,1.72-1.1,2.63s-.55,1.85-.76,2.74a23.68,23.68,0,0,0-.4,2.45,14.85,14.85,0,0,0-.11,1.55v.86a.18.18,0,0,0,.15.18h0a.18.18,0,0,0,.17-.14l.12-.66c.05-.32.14-.76.25-1.28l.08-.4c.09-.51.24-1.08.39-1.68l.17-.67c.23-.86.51-1.75.82-2.64s.64-1.76,1-2.58Z"/><path class="cls-1" d="M186,196.89c8.09-10.06,10.58-26.75,6.66-44.64-6.45-29.43-28.26-53.37-48.63-53.37-6.95,0-13.13,3.12-17.87,9-8.22,10.21-11.2,27-8,45a.18.18,0,0,0,.09.12l.08,0,.07,0,2.25-1a.17.17,0,0,0,.1-.18c-2.9-17-.08-32.76,7.53-42.23,4.21-5.22,9.65-8,15.74-8,19.15,0,39.76,23,46,51.22,3.75,17.09,1.46,32.91-6.12,42.33a21.13,21.13,0,0,1-16.91,8.3c-13.07,0-26.46-8.94-35.8-23.92a.18.18,0,0,0-.15-.08l-.07,0-2.17,1a.18.18,0,0,0-.1.11.24.24,0,0,0,0,.14c9.88,15.94,24.19,25.46,38.27,25.46A23.81,23.81,0,0,0,186,196.89Z"/><path class="cls-1" d="M125.08,129h0a.16.16,0,0,0,.14-.09c.48-.81,2.42-1.68,4.54-1.68a7.36,7.36,0,0,1,5.42,2.28c2.43,2.52,3.55,6.87,3.33,12.92a.18.18,0,0,0,.08.15l.09,0,.09,0a5.81,5.81,0,0,1,2.76-.59c1.64,0,4.26.55,7.34,3.17a.15.15,0,0,0,.11,0,.17.17,0,0,0,.1,0,.16.16,0,0,0,.06-.2c-.07-.17-6.78-16.51-2.82-22.71a5.18,5.18,0,0,1,4.47-2.36.18.18,0,0,0,.15-.11.17.17,0,0,0,0-.18,17.81,17.81,0,0,0-12.55-5.42c-9.23,0-13,7.55-13.45,14.63A.15.15,0,0,0,125.08,129Z"/><path class="cls-1" d="M125.29,122.35h-.06a.16.16,0,0,0-.15.11l-.43,1c-.13.34-.28.75-.45,1.22s-.38,1.11-.52,1.62a42,42,0,0,0-1.05,4.11c-.31,1.54-.55,3.16-.74,4.82s-.21,3.29-.21,4.86.09,2.85.23,4.24c0,.53.11,1.06.2,1.68s.14.94.21,1.29l.21,1.12a.16.16,0,0,0,.16.14h0a.16.16,0,0,0,.14-.18l-.09-1.13q-.06-.54-.09-1.29c0-.49-.07-1.05-.1-1.67-.06-1.11,0-2.39,0-3.75v-.43c0-1.55.12-3.16.29-4.78s.37-3.23.64-4.75l.1-.53c.25-1.29.49-2.52.76-3.56.14-.6.28-1.14.41-1.63s.24-.9.35-1.24l.31-1.09A.18.18,0,0,0,125.29,122.35Z"/><path class="cls-1" d="M158.68,130.06c.36.56.73,1.15,1.12,1.74,1,1.58,2,3.27,3,5s1.91,3.44,2.73,5.13c.31.67.62,1.32.93,1.94.46,1,.9,1.84,1.25,2.68l.87,2c.24.51.45,1,.6,1.35l.57,1.28a.16.16,0,0,0,.15.1h0a.18.18,0,0,0,.12-.19l-.23-1.38c-.09-.44-.2-1-.33-1.57s-.28-1.22-.53-2a49.23,49.23,0,0,0-1.72-4.93c-.77-1.77-1.64-3.59-2.6-5.4s-2.13-3.45-3.25-5a47.38,47.38,0,0,0-3.3-4c-.56-.64-1.1-1.17-1.45-1.51s-.84-.8-1.17-1.1l-1-.92a.17.17,0,0,0-.22,0,.16.16,0,0,0,0,.22l.79,1.16c.26.33.54.75.87,1.24l1.2,1.75C157.55,128.28,158.1,129.14,158.68,130.06Z"/><path class="cls-1" d="M160.33,193.42l-.17-.07c-.12,0-.25-.11-.41-.16l-.3-.11-.5-.17-.94-.28-.93-.25-.51-.12-.32-.07-.42-.08-.2,0-.26,0a.18.18,0,0,0-.16.1.18.18,0,0,0,.06.2l.21.15.12.08c.11.07.25.16.42.25l.18.09a6,6,0,0,0,.62.28l1,.33c.33.08.66.16,1,.22a4.2,4.2,0,0,0,.67.08l.21,0,.3,0h.34l.24,0a.17.17,0,0,0,.16-.14.17.17,0,0,0-.1-.18Z"/><path class="cls-1" d="M154.92,198.2a26.7,26.7,0,0,0,8.8,1.56,19,19,0,0,0,15.1-7.44c7.1-8.74,9.33-23.62,6-39.81-5.43-26-23.68-47.18-40.69-47.18-7.51,0-13.86,4.72-17.88,13.29a.16.16,0,0,0,.07.22.11.11,0,0,0,.08,0,.17.17,0,0,0,.14-.07c3.35-4.49,7.69-6.87,12.54-6.87,14.9,0,30.9,19.3,35.68,43,3,15,1,28.73-5.49,36.62a16.25,16.25,0,0,1-12.82,6.34c-.43,0-.91,0-1.41,0h0a.17.17,0,0,0-.06.33Z"/><path class="cls-1" d="M135.88,143.7h-.06A62.91,62.91,0,0,0,124.69,149a.17.17,0,0,0-.07.22.17.17,0,0,0,.16.09h0A64.47,64.47,0,0,0,136,144a.18.18,0,0,0-.09-.32Z"/><path class="cls-1" d="M220.34,117.49a.17.17,0,0,0-.24,0,27.38,27.38,0,0,1-7.46,5.34.19.19,0,0,0-.1.1.23.23,0,0,0,0,.14,96.71,96.71,0,0,1,7.07,17.24.19.19,0,0,0,.11.12h.06l.09,0a40.29,40.29,0,0,1,8.92-4.2.16.16,0,0,0,.12-.2C225.62,122.47,220.39,117.54,220.34,117.49Z"/><path class="cls-1" d="M196,165.49h0a.18.18,0,0,0,.15-.1,17.1,17.1,0,0,1,9.05-8.31.17.17,0,0,0,.12-.18,69.47,69.47,0,0,0-9.63-28.74.17.17,0,0,0-.14-.07.11.11,0,0,0-.08,0,62.12,62.12,0,0,1-8.23,3.44.13.13,0,0,0-.1.09.2.2,0,0,0,0,.15,81,81,0,0,1,8.69,33.53A.15.15,0,0,0,196,165.49Z"/><path class="cls-1" d="M87.15,236.37a33.28,33.28,0,0,0,4.21-6.7A43.12,43.12,0,0,0,93,225.52c.47-1.43.89-2.93,1.23-4.45s.52-3,.69-4.56.24-3,.28-4.44a64.57,64.57,0,0,0-.39-7.84c-.21-2-.52-3.79-.75-5.06l-.07-.43-.42-2.05a.17.17,0,0,0-.17-.13h0a.17.17,0,0,0-.15.18l.19,2.09c.13,1.27.24,3,.38,5.48.12,2.21.13,4.81,0,7.72,0,1.37-.17,2.82-.34,4.32s-.44,3-.75,4.4a41.16,41.16,0,0,1-1.11,4.31,39.52,39.52,0,0,1-5.28,10.69,31.26,31.26,0,0,1-3.53,4.14c-.32.34-.62.6-.85.82l-.67.6a.18.18,0,0,0,0,.23.21.21,0,0,0,.14.07.14.14,0,0,0,.1,0l.72-.52c.27-.19.6-.43,1-.74A26.28,26.28,0,0,0,87.15,236.37Z"/><path class="cls-1" d="M206.1,121.65a.12.12,0,0,0-.08,0l-6,3.15a.16.16,0,0,0-.07.22c6.81,13.33,8.67,20.31,8.69,20.38a.14.14,0,0,0,.09.11h.07a.11.11,0,0,0,.08,0l5.56-3.15a.16.16,0,0,0,.07-.19,107.33,107.33,0,0,0-8.26-20.45A.18.18,0,0,0,206.1,121.65Z"/><path class="cls-1" d="M209.1,154.29a83.37,83.37,0,0,0-1.95-8.95,82.34,82.34,0,0,0-17.05-32,56.32,56.32,0,0,0-14-11.73,38.75,38.75,0,0,0-8.4-3.62,29,29,0,0,0-8-1.17h-1a.18.18,0,0,0-.17.17.17.17,0,0,0,.16.17,34.21,34.21,0,0,1,16.61,5.75,58.45,58.45,0,0,1,13.06,11.88,80.55,80.55,0,0,1,9.67,14.83c1.38,2.74,2.6,5.46,3.63,8.08a88.47,88.47,0,0,1,2.77,8.42,80,80,0,0,1,2.92,17.43,59.06,59.06,0,0,1-1.55,17.5,41.39,41.39,0,0,1-3,8.22,29.68,29.68,0,0,1-5,7.14,23.25,23.25,0,0,1-7.09,5.05,24.1,24.1,0,0,1-8.61,2,.17.17,0,0,0-.16.17.17.17,0,0,0,.17.17l.92,0h0a23.36,23.36,0,0,0,8.06-1.41,24,24,0,0,0,7.79-4.9,31,31,0,0,0,5.64-7.32,41.5,41.5,0,0,0,3.48-8.54,57.63,57.63,0,0,0,2-18.21A73.48,73.48,0,0,0,209.1,154.29Z"/><path class="cls-1" d="M218.93,144.1a88.25,88.25,0,0,0-2.8-9.95,89.7,89.7,0,0,0-4.07-9.51l-1.21-2.29c-.26-.49-.55-1-.83-1.46l-.45-.78c-.45-.8-.94-1.56-1.36-2.2l-.38-.6c-.34-.51-.68-1-1.05-1.55a66.56,66.56,0,0,0-6.49-8,53.79,53.79,0,0,0-7.71-6.78.19.19,0,0,0-.1,0,.16.16,0,0,0-.13.06.17.17,0,0,0,0,.23,79.17,79.17,0,0,1,6.77,7.53A83.25,83.25,0,0,1,204.9,117a95.1,95.1,0,0,1,8.6,18.08,92.09,92.09,0,0,1,2.84,9.62,85.82,85.82,0,0,1,1.8,9.86,72,72,0,0,1-.26,20.11.17.17,0,0,0,.12.19h0a.18.18,0,0,0,.17-.11,54.45,54.45,0,0,0,2.16-20.4A72.35,72.35,0,0,0,218.93,144.1Z"/><path class="cls-1" d="M153.79,194c1,.35,1.9.6,2.67.8s1.2.28,1.65.37l.27.05.73.13h0a.17.17,0,0,0,.05-.33l-.7-.24c-.3-.09-.69-.23-1.14-.38l-.7-.25c-.51-.16-1.07-.38-1.66-.61l-.9-.34c-.93-.37-1.9-.78-2.87-1.23s-1.92-.89-2.81-1.36l-.81-.42c-.58-.31-1.12-.59-1.6-.88l-.61-.34-1.07-.63-.64-.37-.08,0a.16.16,0,0,0-.14.08.16.16,0,0,0,0,.23l.57.47.21.16c.36.28.81.63,1.37,1s1.43,1,2.36,1.48,1.85,1,2.83,1.46S152.82,193.65,153.79,194Z"/><path class="cls-1" d="M147,171.54a15.49,15.49,0,0,0,2.51-1.41,12.85,12.85,0,0,0,3.87-4.26,13.21,13.21,0,0,0,.94-11.21c-.36-.94-.79-1.82-1.17-2.61-.08-.14-.16-.29-.23-.44s-.29-.56-.47-.83-.19-.27-.28-.41a6.76,6.76,0,0,0-.55-.77,13.44,13.44,0,0,0-4.45-3.65,13.19,13.19,0,0,0-11.22-.36c-7.24,3.37-14.31,6.78-20.28,9.67a.17.17,0,0,0-.08.22.18.18,0,0,0,.16.1.11.11,0,0,0,.07,0l10.23-4.6,3.77-1.72c2.11-1,4.3-2,6.44-2.91a12.8,12.8,0,0,1,4.86-1,12,12,0,0,1,5.64,1.37,12.52,12.52,0,0,1,4.15,3.43,6.19,6.19,0,0,1,.49.7l.27.41a6.86,6.86,0,0,1,.42.75l.23.43c.39.81.79,1.68,1.12,2.53a12.33,12.33,0,0,1-.83,10.45,12.06,12.06,0,0,1-3.59,4,14.67,14.67,0,0,1-2.37,1.35l-2.54,1.2c-6.12,2.9-13.25,6.28-20.26,9.69a.17.17,0,0,0-.08.22.18.18,0,0,0,.16.1l.07,0c7.16-3.19,14.31-6.45,20.45-9.26Z"/><path class="cls-1" d="M117.12,201.32h0a.17.17,0,0,0-.16.17,60.51,60.51,0,0,1-1.27,14.66,49.93,49.93,0,0,1-5,13.69,39.56,39.56,0,0,1-9.1,11.29,34.06,34.06,0,0,1-12.87,6.81.16.16,0,0,0-.12.2.17.17,0,0,0,.16.13h0a29.75,29.75,0,0,0,7.17-2.22,31.44,31.44,0,0,0,5.85-3.5l.22-.17.36-.26c.35-.28.69-.56,1.06-.88A38.22,38.22,0,0,0,112,230.58a46.32,46.32,0,0,0,5-14.18,48.79,48.79,0,0,0,.35-14.93A.16.16,0,0,0,117.12,201.32Z"/><path class="cls-1" d="M91.91,236c8.69-10.15,12.25-26.61,9.53-44-4.71-30.14-26.36-54.66-48.27-54.66a27.15,27.15,0,0,0-21.06,10,.17.17,0,0,0,0,.2.17.17,0,0,0,.14.08h.05a24.46,24.46,0,0,1,4.36-.77L48,145.81c.71-.06,1.44-.09,2.15-.09,8.95,0,18.4,4.63,26.61,13,8.77,9,15.31,21.32,18.4,34.76,3.89,16.86,1.7,33.11-5.87,43.47a28.52,28.52,0,0,1-3.92,4.38.18.18,0,0,0,0,.23.17.17,0,0,0,.14.07.16.16,0,0,0,.09,0A29.84,29.84,0,0,0,91.91,236Zm3.49-57.34a89.78,89.78,0,0,0-6.64-14.33c-1.36-2.37-2.78-4.62-4.23-6.69-.73-1.05-1.45-2-2.18-3A66,66,0,0,1,89.28,164a77.12,77.12,0,0,1,6.93,14.34,77.72,77.72,0,0,1,3.84,15.46,75.35,75.35,0,0,1,.69,11.63,103.62,103.62,0,0,0-1.28-11.54c-.45-2.41-1-5.13-1.7-7.72C97,183.36,96.24,180.9,95.4,178.64Z"/><path class="cls-1" d="M88.88,242.32a1.21,1.21,0,0,0,.18-.23l.06-.09a.85.85,0,0,0,.11-.21l0-.08,0-.1a.17.17,0,0,0,0-.17.16.16,0,0,0-.13-.06h0l-.14,0h-.07l-.23.08-.1,0a1,1,0,0,0-.25.12l-.36.25-.29.28a1.21,1.21,0,0,0-.18.23l-.06.09a1.43,1.43,0,0,0-.11.21l0,.08,0,.11a.17.17,0,0,0,0,.17.16.16,0,0,0,.13.06l.13,0h.08a1.53,1.53,0,0,0,.24-.07l.09,0a.88.88,0,0,0,.26-.12l.37-.26Z"/><path class="cls-1" d="M116,177.34a.17.17,0,0,0,.16.11h0a.16.16,0,0,0,.14-.16c.23-3.55,21.89-13.89,33.31-18.86a3.58,3.58,0,0,1,1.45-.33,3,3,0,0,1,2.25,1.08.17.17,0,0,0,.13.07h.06a.18.18,0,0,0,.11-.17,12.71,12.71,0,0,0-6.29-10.85l-.08,0a.16.16,0,0,0-.13.06.18.18,0,0,0,0,.22,1.19,1.19,0,0,1,.19,1c-.71,3-9.52,8.19-14.87,11.09,4.63-2.93,8-5.26,8-5.28a.17.17,0,0,0,0-.23.14.14,0,0,0-.14-.08.11.11,0,0,0-.08,0c-19.19,10.74-27.2,11.29-28.61,11.29h-.32a.17.17,0,0,0-.15.25A78,78,0,0,1,116,177.34Z"/><path class="cls-1" d="M146.85,192.08l-.37-.26c-.56-.38-1.17-.83-1.82-1.32L144,190c-.93-.7-1.86-1.46-2.78-2.27s-1.82-1.61-2.64-2.43l-.6-.59c-.58-.58-1.14-1.14-1.6-1.65l-.22-.25c-.53-.56-1-1-1.28-1.4l-.56-.64a.19.19,0,0,0-.13,0,.19.19,0,0,0-.1,0,.17.17,0,0,0,0,.23l.48.71.13.2c.3.41.7,1,1.21,1.61.73.91,1.41,1.69,2.09,2.41.83.85,1.71,1.7,2.65,2.53s1.92,1.56,2.87,2.26c.8.57,1.65,1.12,2.68,1.73.68.41,1.3.73,1.76,1l.23.11.76.37.08,0a.15.15,0,0,0,.14-.09.16.16,0,0,0-.05-.22l-.71-.47C147.94,192.83,147.44,192.48,146.85,192.08Z"/><path class="cls-1" d="M152.07,171.22a.17.17,0,0,0,.11.12c14.71,4.71,15.48,18,15.49,18.15a.16.16,0,0,0,.12.16h.05a.21.21,0,0,0,.14-.07c9.83-13.57,5-32.67,5-32.86a.15.15,0,0,0-.12-.12h0a.16.16,0,0,0-.13.06c-5.87,6.8-14.41,7.14-16.06,7.14h-.32a.17.17,0,0,0-.16.12,20.06,20.06,0,0,1-4,7.13A.17.17,0,0,0,152.07,171.22Z"/><path class="cls-2" d="M36.75,233.74c12-1,18.46-15.88,14.45-33.25s-17-30.65-28.95-29.65S3.79,186.72,7.79,204.09,24.76,234.74,36.75,233.74ZM15.36,175.82a3,3,0,0,1,.26-.47,5.42,5.42,0,0,1,.46-.61c.2-.2.41-.41.63-.6s.48-.35.72-.5a4.65,4.65,0,0,1,.68-.33,3.83,3.83,0,0,1,.52-.17l.2,0-.15.15c-.1.08-.23.22-.39.35s-.35.31-.56.47-.43.34-.64.53-.45.34-.65.52-.41.31-.57.45-.32.24-.42.32l-.17.12ZM14,187.68c0-.08.11-.21.21-.35a5.6,5.6,0,0,1,.35-.45l.44-.47.49-.41c.16-.13.34-.22.47-.32s.28-.14.37-.19l.15-.06-.07.14a3.17,3.17,0,0,1-.21.36c-.11.13-.21.3-.35.45l-.44.47-.5.41a5.62,5.62,0,0,1-.47.32c-.14.09-.28.14-.36.19l-.15.06ZM22.51,185c6.71-.55,14,6.88,16.21,16.6s-1.38,18-8.09,18.61-14-6.88-16.21-16.6S15.8,185.51,22.51,185Zm-13.61,3c-.21.86-.44,1.66-.57,2.37S8.06,191.58,8,192s-.12.65-.12.65V192c0-.42,0-1,.12-1.74s.2-1.55.39-2.43.47-1.81.76-2.72.71-1.8,1.09-2.61a21.84,21.84,0,0,1,1.19-2.16c.37-.62.74-1.1,1-1.44l.41-.52s-.11.22-.31.59-.47.9-.78,1.53-.65,1.4-1,2.21-.69,1.7-1,2.59S9.12,187.08,8.9,187.93Zm2.4,11.74c0,.49.06.9.1,1.19l0,.46-.16-.44a9.73,9.73,0,0,1-.31-1.17,12.41,12.41,0,0,1-.24-1.7,18.6,18.6,0,0,1,0-2,16.88,16.88,0,0,1,.32-1.95,12.25,12.25,0,0,1,.52-1.64,9.49,9.49,0,0,1,.5-1.1l.23-.4-.12.45c-.08.27-.17.68-.29,1.15s-.21,1-.33,1.64a19,19,0,0,0-.24,1.9c-.06.65-.09,1.3-.09,1.91S11.26,199.18,11.3,199.67Zm20.79,29.11a16.27,16.27,0,0,1-3.37-1,21.33,21.33,0,0,1-3.07-1.61,29.77,29.77,0,0,1-9.27-9.88,38.93,38.93,0,0,1-4.73-12.55,47.38,47.38,0,0,0,2.25,6.28,40.45,40.45,0,0,0,3.22,5.8A29.83,29.83,0,0,0,26.38,225a16.84,16.84,0,0,0,6,2.23,11.45,11.45,0,0,0,6.14-.64,11.91,11.91,0,0,0,4.89-3.76,17.64,17.64,0,0,0,2.87-5.65,29.7,29.7,0,0,0,.87-12.87,40.28,40.28,0,0,0-3.8-12.51,33.83,33.83,0,0,0-7.83-10.47,20.9,20.9,0,0,0-5.5-3.6,15,15,0,0,0-6.46-1.31,13.5,13.5,0,0,1,3.36,0,16.78,16.78,0,0,1,3.28.83,22.06,22.06,0,0,1,5.88,3.37,33.12,33.12,0,0,1,8.52,10.51,38.48,38.48,0,0,1,2.67,6.27,39.69,39.69,0,0,1,1.57,6.65A31,31,0,0,1,48,217.72a19.32,19.32,0,0,1-3.22,6.2,13.37,13.37,0,0,1-5.64,4.25A13.06,13.06,0,0,1,32.09,228.78Z"/><path class="cls-2" d="M30.83,213.32c4.56-.37,7-6,5.5-12.65s-6.46-11.66-11-11.29-7,6.05-5.51,12.66S26.27,213.7,30.83,213.32Zm-5-14.6c1.2-.57,2.83.37,3.65,2.09s.5,3.58-.69,4.15-2.84-.37-3.65-2.09S24.62,199.29,25.82,198.72Z"/><path class="cls-2" d="M80.71,209.19a81.75,81.75,0,0,1-1.5,9.6c.5-11.1,0-14,0-14l-5.6,3.2c2.3,19.21-7.4,27.81-7.4,27.81l3.4,3.2C81.71,227.3,80.71,209.19,80.71,209.19Z"/><path class="cls-2" d="M56.91,158.88l-7.41,2.6a56,56,0,0,1,20.41,27.81l5.6-2.81C66.11,165.28,56.91,158.88,56.91,158.88Z"/><path class="cls-2" d="M55.91,219.29a34.31,34.31,0,0,1-3.8,7.76,28.18,28.18,0,0,1-2.6,3.34,21.25,21.25,0,0,1-3.09,2.84,16.35,16.35,0,0,1-7.53,3.31,17.18,17.18,0,0,1-8.39-1A13.66,13.66,0,0,0,39,237.93a14.46,14.46,0,0,0,4.49-1,18.7,18.7,0,0,0,4-2.27,21.8,21.8,0,0,0,3.28-3.16,22.34,22.34,0,0,0,2.53-3.74A21.4,21.4,0,0,0,55.91,219.29Z"/><path class="cls-2" d="M16.91,170.42a13.22,13.22,0,0,1,7.74-1.37,32.15,32.15,0,0,1,8.05,2.23,20.1,20.1,0,0,0-7.84-3.61,14.22,14.22,0,0,0-4.47-.2,13.2,13.2,0,0,0-4.32,1.36,15.19,15.19,0,0,0-3.58,2.72,19.61,19.61,0,0,0-2.66,3.52,27.22,27.22,0,0,0-3.14,8A57.14,57.14,0,0,1,11,175.84,18,18,0,0,1,16.91,170.42Z"/><path class="cls-2" d="M48.32,182.12c.48.89,1,1.94,1.58,3,.27.56.57,1.14.84,1.73s.56,1.2.84,1.81.56,1.21.81,1.81l.76,1.78c.47,1.16.91,2.24,1.27,3.18s.68,1.73.87,2.28.34.87.34.87,0-.34-.11-.93-.21-1.43-.44-2.42-.54-2.14-.94-3.35c-.22-.6-.42-1.23-.68-1.85s-.52-1.25-.79-1.87-.58-1.23-.9-1.82-.64-1.17-1-1.72a30,30,0,0,0-1.92-2.91c-.59-.83-1.16-1.47-1.54-1.92l-.62-.7s.15.31.43.83S47.85,181.24,48.32,182.12Z"/><path class="cls-2" d="M56,202.48c0,.42,0,.91.08,1.42,0,.26,0,.52.07.79s0,.54.08.81l.09.81c0,.27.08.53.11.79.06.51.15,1,.22,1.4s.17.76.22,1a3.07,3.07,0,0,0,.1.39,3.68,3.68,0,0,0,.13-.38,8.5,8.5,0,0,0,.24-1,8.93,8.93,0,0,0,.14-1.46c0-.26,0-.54,0-.82l-.06-.85c0-.28-.08-.56-.13-.84s-.11-.54-.17-.8a10.84,10.84,0,0,0-.45-1.39c-.16-.4-.34-.72-.45-.94l-.21-.34a3.35,3.35,0,0,0,0,.4C56,201.7,56,202.07,56,202.48Z"/><path class="cls-2" d="M37.94,151.71a14,14,0,0,0-2.45.09c-.44.08-.9.12-1.36.24s-.92.24-1.39.36-.9.32-1.34.51-.85.39-1.25.59a14.14,14.14,0,0,0-2.06,1.33A12.74,12.74,0,0,0,26.81,156c-.29.3-.44.48-.44.48s.22-.1.58-.29.89-.46,1.51-.76,1.35-.62,2.14-1c.39-.15.8-.33,1.22-.47s.86-.29,1.29-.43.86-.28,1.29-.38l1.28-.32c.83-.18,1.62-.35,2.3-.45s1.26-.22,1.67-.25l.64-.09s-.23-.07-.64-.15A12.62,12.62,0,0,0,37.94,151.71Z"/><path class="cls-2" d="M52.1,156.53l.47.12s-.13-.13-.36-.33-.57-.49-1-.78a16.37,16.37,0,0,0-1.52-.93c-.29-.15-.58-.32-.9-.45l-.95-.41-1-.35-1-.29a14,14,0,0,0-1.75-.36,10.56,10.56,0,0,0-1.26-.12,4.54,4.54,0,0,0-.49,0l.43.23c.27.13.66.34,1.13.55s1,.46,1.59.71l.91.37.93.38.94.37c.31.13.62.23.91.34.6.23,1.16.42,1.65.59S51.81,156.43,52.1,156.53Z"/><path class="cls-2" d="M85.8,193.17a33,33,0,0,0-.69-3.67c-.17-.66-.33-1.35-.55-2s-.45-1.38-.68-2.07-.52-1.37-.81-2-.59-1.3-.88-1.92a36,36,0,0,0-1.82-3.26c-.58-.93-1.13-1.66-1.51-2.17s-.61-.79-.61-.79.14.34.42.91.64,1.4,1.09,2.38.95,2.13,1.47,3.37c.26.62.53,1.26.77,1.92s.5,1.33.75,2,.49,1.34.7,2,.44,1.33.64,2c.39,1.29.75,2.49,1,3.53s.53,1.91.68,2.53.26,1,.26,1,0-.37,0-1S86,194.26,85.8,193.17Z"/><path class="cls-2" d="M99.3,193.93a103.62,103.62,0,0,1,1.42,15.76,76.33,76.33,0,0,0-.5-15.91,77.3,77.3,0,0,0-10.8-29.86,61.81,61.81,0,0,0-9.91-12.45,63.62,63.62,0,0,1,4.88,6.25c1.51,2.16,2.91,4.4,4.23,6.68a90,90,0,0,1,6.62,14.3c.92,2.46,1.68,5,2.36,7.52S98.8,191.34,99.3,193.93Z"/><path class="cls-2" d="M215.53,107.77c-7.22-6.83-15.24-10.34-22.8-10-.61,0-1.21.08-1.81.15h-.08a32.55,32.55,0,0,0-16.44-4.1c-.71,0-1.41.09-2.11.18l-1.68.2a35.43,35.43,0,0,0-9.54-1l-13.81.55c-9.41.38-17.6,4.67-23.7,12.4-9,11.39-12.17,29.19-8.53,47.61,0,.2.09.4.13.61l-8.73,4.06C96.28,143.28,81.71,133.32,67,133.32H53.17c-11.7,0-22,6.38-28.48,17.55a29,29,0,0,0-8.37,9.28,21.93,21.93,0,0,0-9.8,7.74c-6.35,8.69-8.2,22.29-4.95,36.39a61.8,61.8,0,0,0,15.36,29c6.94,7.1,14.81,10.94,22.38,10.94.61,0,1.21,0,1.82-.08h.07a32.51,32.51,0,0,0,16.26,4.76c.71,0,1.42,0,2.12-.09l1.69-.14A35,35,0,0,0,70.76,250H84.58c9.42,0,17.78-3.95,24.18-11.43,9.43-11,13.33-28.68,10.43-47.23q-.45-2.88-1.1-5.7l8.12-3.77c10.86,17.18,27.24,28.43,43.31,27.79l13.81-.56c11.69-.47,21.75-7.26,27.75-18.68a29.06,29.06,0,0,0,8-9.61,22,22,0,0,0,9.48-8.13c6-8.94,7.29-22.6,3.48-36.55A61.66,61.66,0,0,0,215.53,107.77ZM88.27,145a13.19,13.19,0,0,0-3.16,1c19.81,25,21.81,38.81,21.81,38.81-.72-8.28-1.08-15.48-1.25-19.91.47.82.92,1.65,1.36,2.49q.93,8.81,1.09,17.67c.22-5.09.25-10.21.09-15.32.42.87.82,1.76,1.21,2.65a102.06,102.06,0,0,1,.62,16.12,103,103,0,0,0,.56-13.27c.59,1.53,1.15,3.09,1.66,4.67a92.8,92.8,0,0,1-.09,11.31q.64-4.29.89-8.62a78.53,78.53,0,0,1,2,9.31l.18,1.27c-1.2,2.49-3.51,6-7.16,7,0,0,2.48,23.76-14.58,39.81.47-.49.94-1,1.39-1.53,9.44-11,13.34-28.68,10.44-47.23-3.79-24.23-18.13-45-35.2-53.71A38.22,38.22,0,0,1,88.27,145ZM40.79,240c-14.46,1.19-30.24-15.25-35.18-36.67-3-12.93-1.39-25.27,4.26-33A17,17,0,0,1,22.41,163c14.46-1.19,30.24,15.25,35.17,36.66,3,12.94,1.4,25.28-4.25,33A17.05,17.05,0,0,1,40.79,240Zm28.72-34.79c0-.85,0-1.34,0-1.34l.25,1.32c.08.42.16.93.24,1.52s.16,1.26.2,2a37.72,37.72,0,0,1,0,5,51.71,51.71,0,0,1-.74,5.73A54.65,54.65,0,0,1,67.89,225a38.45,38.45,0,0,1-2,4.6c-.32.66-.66,1.25-1,1.76s-.58,1-.82,1.31l-.76,1.1s.21-.44.56-1.22c.19-.37.39-.85.62-1.4s.49-1.15.75-1.83c.58-1.33,1.08-2.94,1.65-4.65a53.94,53.94,0,0,0,1.39-5.47c.39-1.87.69-3.77.88-5.57s.32-3.47.32-4.92c0-.72,0-1.39,0-2S69.54,205.64,69.51,205.22Zm-7.6-5.13c-.09-.46-.18-.92-.29-1.39a61.69,61.69,0,0,0-15.35-29,41.91,41.91,0,0,0-9.15-7.17C48.36,164.79,59.51,176.6,65,192.16A15.87,15.87,0,0,1,61.91,200.09Zm.65,8c0-.44,0-.84-.05-1.18-.06-1-.1-1.56-.1-1.56s.08.56.21,1.55c.08.67.18,1.55.25,2.58l0,.52c0,.33,0,.66.05,1a47.77,47.77,0,0,1-.17,5.84,42.8,42.8,0,0,1-1.17,6.6,37.21,37.21,0,0,1-2.36,6.28,32.08,32.08,0,0,1-3,5,26.22,26.22,0,0,1-2.71,3.11c-.35.35-.65.61-.84.79l-.31.27.29-.29c.18-.2.45-.47.77-.85a30.93,30.93,0,0,0,2.53-3.23,34.93,34.93,0,0,0,2.85-5A36.22,36.22,0,0,0,61,223.32a41.45,41.45,0,0,0,1.23-6.5c0-.25.05-.49.07-.73.18-1.83.27-3.55.28-5.05C62.61,209.93,62.59,209,62.56,208.12Zm-3.32,36.55a24.42,24.42,0,0,1-9.59-1.23l.84-.07A21.11,21.11,0,0,0,66,234.31c6.35-8.69,8.19-22.29,4.94-36.38a61.68,61.68,0,0,0-15.35-29c-7.5-7.67-16.09-11.53-24.2-10.86l-9.2.76a22.61,22.61,0,0,1,5.51-5l.05,0a.41.41,0,0,1,.05-.09,20,20,0,0,1,9.13-3c17.67-1.46,36.94,18.56,43,44.64,3.63,15.75,1.68,30.79-5.21,40.24C70.75,241,65.4,244.16,59.24,244.67Zm-6.9-94.85a30.31,30.31,0,0,1,13.48,5,54.79,54.79,0,0,1,2.29,7.58c-.84-1-1.7-1.93-2.59-2.85A47.87,47.87,0,0,0,52.34,149.82ZM71,167a11.89,11.89,0,0,1,1,1.13c.35.44.7.92,1,1.42s.59,1,.84,1.55a13.36,13.36,0,0,1,.58,1.42c.15.43.23.8.3,1l.08.4-.19-.36c-.11-.24-.3-.56-.5-1s-.47-.84-.73-1.32-.57-1-.89-1.47-.62-1-.94-1.43-.61-.88-.88-1.22-.49-.66-.65-.86l-.25-.33.33.25C70.39,166.42,70.69,166.65,71,167Zm-.77-9.81.22.14c.12.09.32.21.53.38s.45.37.69.6l.74.75.66.81c.21.26.37.54.52.76s.25.43.33.57l.11.22a2,2,0,0,1-.2-.15c-.12-.1-.31-.24-.5-.42s-.43-.39-.65-.64l-.72-.75-.67-.79c-.22-.25-.39-.52-.56-.72s-.27-.41-.37-.54Zm19.69,41.59-.33.15a23.29,23.29,0,0,1-3.82,8.53,74.1,74.1,0,0,0-1.81-13,78.57,78.57,0,0,0-6.84-18.59,61.6,61.6,0,0,0-.28-11,71,71,0,0,1,13.42,25.89,30.36,30.36,0,0,1-.57,7.74C89.78,198.54,89.85,198.65,89.93,198.75ZM89.6,222a10.78,10.78,0,0,1,0,1.3,17.9,17.9,0,0,1-.26,1.81c-.14.66-.31,1.35-.49,2s-.48,1.35-.72,2-.56,1.17-.8,1.65-.52.84-.68,1.11l-.3.4.08-.49c.07-.3.13-.75.27-1.26s.25-1.13.44-1.75.38-1.3.56-2,.45-1.32.64-1.95.44-1.2.6-1.7.38-.91.48-1.2l.21-.45S89.59,221.69,89.6,222Zm-4.78-6.94v1.39c0,.87,0,2.14-.19,3.64a45.57,45.57,0,0,1-.74,5.13A43.69,43.69,0,0,1,82.22,231a32.58,32.58,0,0,1-2.77,5.32,24.51,24.51,0,0,1-3.33,4,19.34,19.34,0,0,1-2.87,2.29c-.37.24-.68.4-.88.52l-.31.19.27-.24c.18-.15.46-.36.78-.66a25.69,25.69,0,0,0,2.52-2.56,29.71,29.71,0,0,0,2.94-4.11,30.84,30.84,0,0,0,2.53-5.19A40.23,40.23,0,0,0,82.87,225c.44-1.81.84-3.5,1.09-5s.5-2.71.63-3.58S84.82,215.07,84.82,215.07Zm-16.5,31-.74.39-1.14.46a10.32,10.32,0,0,1-1,.31c-.31.09-.57.12-.75.16l-.29,0,.25-.15c.16-.08.39-.22.67-.36s.59-.32.95-.48l1.09-.52.12-.06,1-.44c.35-.17.69-.29,1-.42s.53-.21.7-.28l.28-.1-.22.2c-.14.11-.34.29-.6.47s-.56.4-.9.59Zm5.34.35c-.13.08-.29.22-.5.35a8.09,8.09,0,0,1-.74.43l-.88.42-.64.23-.28.1a6.79,6.79,0,0,1-.82.22c-.25.07-.46.08-.6.11l-.24,0,.2-.13.32-.2.2-.11c.22-.11.47-.27.75-.39l.88-.4.9-.34c.29-.12.57-.19.81-.27s.44-.11.59-.15l.23,0Zm9-2c-.19.15-.45.39-.79.63s-.74.53-1.18.8l-1.41.82c-.5.25-1,.49-1.47.7s-.94.38-1.33.53-.73.23-1,.31l-.37.09.33-.2c.21-.12.5-.31.86-.51s.78-.45,1.24-.68l1.42-.77c.49-.25,1-.5,1.43-.75s.9-.44,1.26-.63.69-.33.91-.43l.35-.16Zm.48-4.24c-.51.43-1,.72-1.24.94l-.44.32.4-.37c.26-.25.66-.58,1.12-1.06a31.11,31.11,0,0,0,3.55-4.16,37.05,37.05,0,0,0,3.77-6.68c.57-1.29,1.08-2.65,1.54-4s.81-2.87,1.11-4.33.56-2.95.75-4.42S94,213.45,94,212c.11-2.82.12-5.47,0-7.73s-.25-4.17-.38-5.49l-.19-2.08.42,2.05c.23,1.31.59,3.19.82,5.46a62,62,0,0,1,.39,7.83c0,1.44-.13,2.92-.28,4.43s-.39,3-.69,4.53a43.15,43.15,0,0,1-1.22,4.43,44.07,44.07,0,0,1-1.65,4.14A33.6,33.6,0,0,1,87,236.26,26.44,26.44,0,0,1,83.1,240.18Zm6.28-3.09c7.59-10.4,9.8-26.7,5.9-43.61-3.11-13.47-9.66-25.84-18.45-34.84-9-9.19-19.23-13.81-28.89-13l-11.32.93a25.52,25.52,0,0,0-4.39.78,27,27,0,0,1,20.94-9.89c21.83,0,43.41,24.46,48.1,54.52,2.72,17.37-.83,33.78-9.49,43.89a29.85,29.85,0,0,1-6.34,5.63A30,30,0,0,0,89.38,237.09Zm-1.26,5.64a2,2,0,0,1-.34.15,1.44,1.44,0,0,1-.26.08h-.11l0-.11a1.21,1.21,0,0,1,.13-.25,1.71,1.71,0,0,1,.22-.29l.29-.29c.11-.08.23-.15.33-.23a3.23,3.23,0,0,1,.34-.15,1.3,1.3,0,0,1,.27-.08l.11,0,0,.11a1.51,1.51,0,0,1-.13.24,2.25,2.25,0,0,1-.22.3l-.29.29Zm28.65-26.36a46.24,46.24,0,0,1-4.93,14.13,38.16,38.16,0,0,1-8.55,10.61c-.35.29-.69.59-1.06.87-.18.15-.38.29-.57.43a31.36,31.36,0,0,1-5.83,3.49,29.81,29.81,0,0,1-7.12,2.2,33.87,33.87,0,0,0,12.93-6.84,39.84,39.84,0,0,0,9.15-11.34,50.26,50.26,0,0,0,5.06-13.73,60.73,60.73,0,0,0,1.27-14.7A49.2,49.2,0,0,1,116.77,216.37Zm-.65-39.09a77.44,77.44,0,0,0-4.8-10.8s7.4.8,29-11.3c0,0-5.3,3.7-11.9,7.7,0,0,21.7-10.71,18.8-14.51a12.43,12.43,0,0,1,6.2,10.71,3.16,3.16,0,0,0-3.9-.8S116.42,172.68,116.12,177.28Zm7.83,4.54c6.73-3.27,13.49-6.48,20.25-9.68l2.54-1.21a15.3,15.3,0,0,0,2.4-1.36,12.19,12.19,0,0,0,3.64-4,12.57,12.57,0,0,0,.84-10.59c-.33-.85-.73-1.7-1.13-2.54-.22-.4-.41-.82-.65-1.21a12.65,12.65,0,0,0-15.62-5c-3.41,1.51-6.81,3.1-10.22,4.64l-10.23,4.6c6.73-3.26,13.47-6.5,20.27-9.66a13,13,0,0,1,11.07.35,13.13,13.13,0,0,1,4.4,3.61c.31.35.54.78.82,1.17s.46.84.69,1.25c.41.85.81,1.69,1.16,2.59a13.11,13.11,0,0,1-.93,11.07,12.7,12.7,0,0,1-3.82,4.2,15.17,15.17,0,0,1-2.48,1.4l-2.55,1.16C137.59,175.67,130.79,178.77,124,181.82Zm24.13,9.39c-.88-.5-1.67-1-2.34-1.47s-1.2-.88-1.57-1.17-.57-.47-.57-.47l.63.38c.4.25,1,.57,1.69,1s1.53.83,2.41,1.3,1.85.93,2.82,1.37,1.95.86,2.88,1.23,1.81.7,2.57,1,1.39.49,1.84.63l.7.24-.73-.12c-.46-.1-1.13-.21-1.91-.42s-1.69-.46-2.65-.8-2-.74-2.95-1.17S149,191.7,148.08,191.21Zm.86,2.47-.77-.37c-.48-.25-1.18-.59-2-1.07s-1.72-1.05-2.67-1.72-1.91-1.45-2.86-2.25-1.82-1.69-2.63-2.52-1.51-1.67-2.09-2.4-1-1.36-1.33-1.8l-.48-.7.57.63c.35.41.87,1,1.5,1.65s1.39,1.44,2.2,2.25,1.72,1.64,2.65,2.44,1.87,1.58,2.78,2.28,1.77,1.35,2.54,1.86,1.39,1,1.85,1.25Zm7.34-29.7s9.91.45,16.51-7.2c0,0,5,19.05-4.95,32.71,0,0-.6-13.51-15.61-18.31A20.15,20.15,0,0,0,156.28,164Zm-1.2-39.54-.79-1.14,1.05.91c.32.31.72.67,1.16,1.1s.94.93,1.44,1.5a47.81,47.81,0,0,1,3.3,4c1.09,1.55,2.2,3.26,3.23,5s1.84,3.64,2.59,5.39a46.32,46.32,0,0,1,1.71,4.91,18.36,18.36,0,0,1,.53,2c.14.6.24,1.13.33,1.56.15.88.23,1.38.23,1.38l-.56-1.27c-.16-.41-.39-.9-.64-1.46s-.53-1.19-.84-1.87c-.57-1.39-1.4-2.93-2.18-4.62s-1.74-3.43-2.73-5.15-2-3.45-3-5-1.91-3.06-2.79-4.27L156,125.75C155.64,125.24,155.35,124.79,155.08,124.44Zm5.41,69.23-.24,0a4.31,4.31,0,0,1-.61,0,5.69,5.69,0,0,1-.86-.1l-1-.21-.93-.33a8.52,8.52,0,0,1-.79-.37,4.84,4.84,0,0,1-.53-.32l-.19-.13.24,0c.14,0,.35.05.6.11s.53.1.83.19l.93.24.93.29c.3.08.57.2.8.27s.43.18.57.23Zm-4.09,4.42c15,0,23.27-19.33,18.48-43.17S154,111.76,139,111.76c-5.13,0-9.43,2.58-12.68,6.94,3.79-8.07,9.91-13.2,17.73-13.2,17,0,35.1,21.06,40.52,47s-3.92,47.05-20.88,47.05A26.5,26.5,0,0,1,155,198C155.45,198.07,155.93,198.09,156.4,198.09Zm-5.57-78.32c-12.1.5-1.8,25.3-1.8,25.3-6-5.1-10.3-2.6-10.3-2.6.7-19-12.2-16-13.6-13.6C126.23,111.56,142.83,111.46,150.83,119.77Zm-15,24.1a62.11,62.11,0,0,1-11.1,5.25,56.3,56.3,0,0,1,5.42-2.89A54.33,54.33,0,0,1,135.88,143.87Zm-11-20.27c-.11.34-.22.76-.34,1.25s-.27,1-.41,1.63c-.32,1.19-.58,2.6-.87,4.1s-.49,3.13-.64,4.76-.26,3.26-.29,4.79,0,3,0,4.2c0,.61.06,1.18.1,1.68s0,.93.09,1.29l.09,1.13s-.07-.41-.2-1.12c-.07-.35-.14-.78-.21-1.28s-.15-1.06-.2-1.68c-.13-1.23-.22-2.67-.23-4.22s.07-3.2.21-4.85.44-3.28.73-4.8.69-2.91,1-4.09c.17-.6.35-1.13.52-1.61s.32-.88.45-1.22l.42-1S125.12,122.91,124.92,123.6Zm42,82.44c-14.41,0-28.59-10-38.12-25.38l2.17-1c9.09,14.56,22.43,24,36,24a21.31,21.31,0,0,0,17-8.36c7.61-9.46,9.92-25.34,6.16-42.48-6.21-28.31-26.89-51.35-46.12-51.35-6.14,0-11.63,2.79-15.87,8.06-7.65,9.51-10.45,25.49-7.57,42.36l-2.25,1c-3.18-17.78-.22-34.76,8-44.92,4.71-5.85,10.85-9,17.74-9,20.29,0,42,23.88,48.47,53.24,3.91,17.84,1.43,34.47-6.64,44.5A23.65,23.65,0,0,1,166.93,206Zm20.41-74.32a61.27,61.27,0,0,0,8.26-3.45,68.49,68.49,0,0,1,9.6,28.66,17.1,17.1,0,0,0-9.15,8.4A80.31,80.31,0,0,0,187.34,131.72Zm20.49,49.85a41,41,0,0,1-3.47,8.5,31.25,31.25,0,0,1-5.61,7.28,23.67,23.67,0,0,1-7.73,4.86,23.28,23.28,0,0,1-8.92,1.38,24.45,24.45,0,0,0,8.67-2,23.25,23.25,0,0,0,7.14-5.1,30.12,30.12,0,0,0,5-7.17,40.9,40.9,0,0,0,3-8.26,58.8,58.8,0,0,0,1.56-17.55A80.36,80.36,0,0,0,204.63,146c-.79-2.85-1.71-5.67-2.78-8.43s-2.31-5.46-3.64-8.1a80.55,80.55,0,0,0-9.69-14.86,58.43,58.43,0,0,0-13.1-11.91A34.13,34.13,0,0,0,158.73,97a28.42,28.42,0,0,1,9,1.16,38.06,38.06,0,0,1,8.35,3.59A56.73,56.73,0,0,1,190,113.41a83.48,83.48,0,0,1,19,40.9,73.07,73.07,0,0,1,.93,9.1A58.35,58.35,0,0,1,207.83,181.57Zm1-36.2s-1.8-6.9-8.7-20.4l6-3.15a106.28,106.28,0,0,1,8.25,20.4ZM218,174.68a71.27,71.27,0,0,0,.27-20.15,87.08,87.08,0,0,0-1.8-9.88A96.45,96.45,0,0,0,205,116.9a82.13,82.13,0,0,0-5.78-8.26,79,79,0,0,0-6.78-7.54,53.58,53.58,0,0,1,7.69,6.76,63.92,63.92,0,0,1,6.47,8c.51.69,1,1.42,1.43,2.14s.93,1.45,1.35,2.2.88,1.48,1.28,2.24l1.21,2.27a79.09,79.09,0,0,1,6.85,19.43,71.89,71.89,0,0,1,1.44,10.21A54,54,0,0,1,218,174.68Zm1.75-34.41A95.79,95.79,0,0,0,212.7,123a27.22,27.22,0,0,0,7.52-5.38s5.21,4.8,8.54,18.45A39.74,39.74,0,0,0,219.79,140.27Z"/></svg>