<svg id="Capa_1" data-name="Capa 1" xmlns="http://www.w3.org/2000/svg" viewBox="0 0 174.39 250"><defs><style>.cls-1{fill:#fff9de;}.cls-2{fill:#231f20;}</style></defs><path class="cls-1" d="M171.75,132.19c-.46-.26-.9-.55-1.33-.85V99.5c.64-.62,1.31-1.24,2-1.83A4.36,4.36,0,0,0,174,94.3V69a4.71,4.71,0,0,0-3.89-4.65c-1.4-.25-3.3-.54-5.82-.84V55.4h2.11a6.71,6.71,0,0,0,6.7-6.7V33.11a6.69,6.69,0,0,0-4.27-6.23V24a4.34,4.34,0,0,0-4.34-4.34H125.34l-.76-15.93A3.09,3.09,0,0,0,121.81.76,129.23,129.23,0,0,0,108,0,126.36,126.36,0,0,0,94,.76a3.08,3.08,0,0,0-2.76,3l-.76,15.93h0a4.32,4.32,0,0,0-2.92,1.13c-9.58,1.45-19-9.19-35.26-8.32C17.93,14.2,19.57,57.39,41,64.63c19.21,6.51,31.16-1.78,38.31-.32l-.37.07A4.72,4.72,0,0,0,75,69V94.3a4.37,4.37,0,0,0,1.61,3.37c.71.59,1.38,1.21,2,1.83v12c-12.8,4.76-28.1,16.2-27.24,43.71l-.36.08a13.1,13.1,0,0,1-.63-4.68c0-2.53.18-5.22.08-8a24.71,24.71,0,0,0-1.64-8.61,15.94,15.94,0,0,0-2.39-4A18.07,18.07,0,0,0,43,126.67l-3.07,4.59A11.29,11.29,0,0,1,44.21,136a20.16,20.16,0,0,1,1.68,6.85c.24,2.5.21,5.11.37,7.88a21.87,21.87,0,0,0,.6,4.15c-15.61-3.56-28.79-.74-37.35,8.07C0,172.69-2.55,188.44,2.61,205.05c6.53,21,14.45,36.28,28.92,40.89-12.59.36-21.14,1.06-21.14,1.87,0,1.18,18.1,2.14,40.42,2.14s40.41-1,40.41-2.14c0-.72-6.87-1.36-17.35-1.75a23.68,23.68,0,0,0,2.3-1.17,26.37,26.37,0,0,0,3.27-2.3,11.49,11.49,0,0,0,3.43,1.71c15,4.62,30.43,5.63,40.49,5.69h2.32c10-.06,25.46-1.07,40.48-5.69a11.58,11.58,0,0,0,8.23-11.14V136.87A5.42,5.42,0,0,0,171.75,132.19Zm-97.11,16v6.91a41.1,41.1,0,0,0-10.77-1.39A73.54,73.54,0,0,0,74.64,148.17ZM64.56,62.76c-9,3.86-23.84,6.14-28.22-16.13s15.25-31.67,24-31.2c8.48.45,17.29,7.12,25.79,8.3a2,2,0,0,0,0,.25v2.43H82.6a6.71,6.71,0,0,0-6.7,6.7V48.7a6.71,6.71,0,0,0,6.7,6.7h2.11v6.13C80.06,63.49,72.86,59.21,64.56,62.76Z"/><path class="cls-1" d="M131.47,193.77a49.8,49.8,0,0,0-6.34-.36,53.77,53.77,0,0,0-6.34.36.19.19,0,0,0-.17.19.2.2,0,0,0,.17.2,51.59,51.59,0,0,0,6.34.35h0a49.68,49.68,0,0,0,6.34-.35.2.2,0,0,0,.17-.2A.19.19,0,0,0,131.47,193.77Z"/><path class="cls-1" d="M131.47,195.77a57.6,57.6,0,0,0-12.68,0,.21.21,0,0,0-.17.2.2.2,0,0,0,.18.2,51.43,51.43,0,0,0,6.33.35h0a51.69,51.69,0,0,0,6.34-.35.2.2,0,0,0,.17-.2A.2.2,0,0,0,131.47,195.77Z"/><path class="cls-1" d="M131.47,191.76a57.51,57.51,0,0,0-12.67,0,.2.2,0,0,0-.18.2.19.19,0,0,0,.17.19,49.9,49.9,0,0,0,6.34.36h0a49.8,49.8,0,0,0,6.34-.36.19.19,0,0,0,.17-.19A.2.2,0,0,0,131.47,191.76Z"/><path class="cls-1" d="M131.47,197.78a57.6,57.6,0,0,0-12.68,0,.2.2,0,0,0-.17.2.19.19,0,0,0,.17.19,49.8,49.8,0,0,0,6.34.36h0a49.8,49.8,0,0,0,6.34-.36.19.19,0,0,0,.17-.19A.2.2,0,0,0,131.47,197.78Z"/><path class="cls-1" d="M131.47,187.75a55.92,55.92,0,0,0-12.67,0,.19.19,0,0,0-.18.19.2.2,0,0,0,.17.2,51.69,51.69,0,0,0,6.34.35h0a49.68,49.68,0,0,0,6.34-.35.2.2,0,0,0,.17-.2A.19.19,0,0,0,131.47,187.75Z"/><path class="cls-1" d="M131.47,189.75a57.6,57.6,0,0,0-12.68,0,.2.2,0,0,0,0,.4,51.59,51.59,0,0,0,6.34.35h0a51.59,51.59,0,0,0,6.34-.35.2.2,0,0,0,0-.4Z"/><path class="cls-1" d="M131.47,203.8a57.6,57.6,0,0,0-12.68,0,.2.2,0,0,0-.17.2.21.21,0,0,0,.18.2,51.43,51.43,0,0,0,6.33.35h0a51.69,51.69,0,0,0,6.34-.35.2.2,0,0,0,.17-.2A.2.2,0,0,0,131.47,203.8Z"/><path class="cls-1" d="M131.47,205.81a47.92,47.92,0,0,0-6.34-.35,51.43,51.43,0,0,0-6.33.35.2.2,0,0,0-.18.2.19.19,0,0,0,.17.19,51.59,51.59,0,0,0,6.34.35h0a48,48,0,0,0,6.34-.35.19.19,0,0,0,.17-.19A.2.2,0,0,0,131.47,205.81Z"/><path class="cls-1" d="M131.47,207.82a56,56,0,0,0-12.68,0,.19.19,0,0,0-.17.19.2.2,0,0,0,.18.2,51.43,51.43,0,0,0,6.33.35h0a51.69,51.69,0,0,0,6.34-.35.2.2,0,0,0,.17-.2A.19.19,0,0,0,131.47,207.82Z"/><path class="cls-1" d="M131.47,209.82a57.51,57.51,0,0,0-12.67,0,.2.2,0,0,0-.18.2.21.21,0,0,0,.17.2,51.59,51.59,0,0,0,6.34.35h0a51.69,51.69,0,0,0,6.34-.35.2.2,0,0,0,.17-.2A.2.2,0,0,0,131.47,209.82Z"/><path class="cls-1" d="M131.47,201.79a57.6,57.6,0,0,0-12.68,0,.21.21,0,0,0-.17.2.2.2,0,0,0,.17.2,51.59,51.59,0,0,0,6.34.35h0a51.59,51.59,0,0,0,6.34-.35.2.2,0,0,0,.17-.2A.2.2,0,0,0,131.47,201.79Z"/><path class="cls-1" d="M131.47,185.74a57.6,57.6,0,0,0-12.68,0,.2.2,0,0,0-.17.2.19.19,0,0,0,.17.19,49.8,49.8,0,0,0,6.34.36h0a49.8,49.8,0,0,0,6.34-.36.19.19,0,0,0,.17-.19A.2.2,0,0,0,131.47,185.74Z"/><path class="cls-1" d="M131.47,199.79a48,48,0,0,0-6.34-.35,49.78,49.78,0,0,0-6.34.35.19.19,0,0,0-.17.19.2.2,0,0,0,.18.2,51.43,51.43,0,0,0,6.33.35h0a48,48,0,0,0,6.34-.35.2.2,0,0,0,.17-.2A.19.19,0,0,0,131.47,199.79Z"/><path class="cls-1" d="M131.47,183.73a57.51,57.51,0,0,0-12.67,0,.2.2,0,0,0,0,.4,51.69,51.69,0,0,0,6.34.35h0a51.59,51.59,0,0,0,6.34-.35.2.2,0,0,0,0-.4Z"/><path class="cls-1" d="M131.47,167.68a47.92,47.92,0,0,0-6.34-.35,51.33,51.33,0,0,0-6.33.35.2.2,0,0,0,0,.39,51.59,51.59,0,0,0,6.34.35h0a48,48,0,0,0,6.34-.35.2.2,0,0,0,.17-.2A.19.19,0,0,0,131.47,167.68Z"/><path class="cls-1" d="M131.47,163.66a57.51,57.51,0,0,0-12.67,0,.21.21,0,0,0-.18.2.2.2,0,0,0,.17.2,51.59,51.59,0,0,0,6.34.35h0a51.69,51.69,0,0,0,6.34-.35.2.2,0,0,0,0-.4Z"/><path class="cls-1" d="M131.47,171.69a57.51,57.51,0,0,0-12.67,0,.2.2,0,0,0-.18.2.21.21,0,0,0,.17.2,51.59,51.59,0,0,0,6.34.35h0a51.59,51.59,0,0,0,6.34-.35.2.2,0,0,0,.17-.2A.2.2,0,0,0,131.47,171.69Z"/><path class="cls-1" d="M131.47,161.66a47.92,47.92,0,0,0-6.34-.35,49.44,49.44,0,0,0-6.33.35.19.19,0,0,0-.18.19.2.2,0,0,0,.18.2,51.43,51.43,0,0,0,6.33.35h0a49.78,49.78,0,0,0,6.34-.35.2.2,0,0,0,.17-.2A.19.19,0,0,0,131.47,161.66Z"/><path class="cls-1" d="M131.47,169.68a57.6,57.6,0,0,0-12.68,0,.21.21,0,0,0-.17.2.2.2,0,0,0,.18.2,51.33,51.33,0,0,0,6.33.35h0a51.59,51.59,0,0,0,6.34-.35.2.2,0,0,0,.17-.2A.2.2,0,0,0,131.47,169.68Z"/><path class="cls-1" d="M131.47,181.73a56,56,0,0,0-12.68,0,.19.19,0,0,0-.17.19.2.2,0,0,0,.18.2,51.43,51.43,0,0,0,6.33.35h0a51.59,51.59,0,0,0,6.34-.35.2.2,0,0,0,.17-.2A.19.19,0,0,0,131.47,181.73Z"/><path class="cls-1" d="M131.47,173.7a48,48,0,0,0-6.34-.35,51.59,51.59,0,0,0-6.34.35.2.2,0,0,0-.17.2.19.19,0,0,0,.18.19,49.53,49.53,0,0,0,6.33.35h0a48,48,0,0,0,6.34-.35.19.19,0,0,0,.17-.19A.2.2,0,0,0,131.47,173.7Z"/><path class="cls-1" d="M131.47,179.72a49.78,49.78,0,0,0-6.34-.35,51.43,51.43,0,0,0-6.33.35.2.2,0,0,0-.18.2.19.19,0,0,0,.17.19,51.59,51.59,0,0,0,6.34.35h0a48,48,0,0,0,6.34-.35.19.19,0,0,0,.17-.19A.2.2,0,0,0,131.47,179.72Z"/><path class="cls-1" d="M131.47,175.7a57.51,57.51,0,0,0-12.67,0,.21.21,0,0,0-.18.2.2.2,0,0,0,.17.2,51.59,51.59,0,0,0,6.34.35h0a51.69,51.69,0,0,0,6.34-.35.2.2,0,0,0,.17-.2A.2.2,0,0,0,131.47,175.7Z"/><path class="cls-1" d="M131.47,177.71a57.6,57.6,0,0,0-12.68,0,.2.2,0,0,0,0,.4,51.43,51.43,0,0,0,6.33.35h0a51.69,51.69,0,0,0,6.34-.35.2.2,0,0,0,0-.4Z"/><path class="cls-1" d="M160.29,62.21,151.15,62l-4.73,0a.2.2,0,0,0,0,.4c2.31.1,4.54.22,6.63.36h0l7.24-.14a.2.2,0,0,0,0-.4Z"/><path class="cls-1" d="M160.29,58l-9.14-.18L142,57.74l-18.28-.09-18.28.09c-5.51,0-11.91.11-18.28.27a.19.19,0,0,0-.19.19.19.19,0,0,0,.19.2c6.37.15,12.77.22,18.28.27l18.28.08L142,58.67l9.14-.1,9.14-.17a.2.2,0,0,0,.19-.2A.2.2,0,0,0,160.29,58Z"/><path class="cls-1" d="M160.29,56.6l-9.14-.17-9.14-.1-18.28-.08-18.28.08c-5.51.05-11.91.12-18.28.27a.2.2,0,0,0-.19.2.19.19,0,0,0,.19.2c6.37.15,12.77.22,18.28.27l18.28.08L142,57.27l9.14-.1,9.14-.17a.2.2,0,0,0,0-.4Z"/><path class="cls-1" d="M160.29,59.41l-9.14-.17-9.14-.1-18.28-.08-18.28.08c-5.51,0-11.91.12-18.28.27a.19.19,0,0,0-.19.2.19.19,0,0,0,.19.19c6.37.16,12.77.22,18.28.27l18.28.09L142,60.07l9.14-.09,9.14-.18a.2.2,0,0,0,.19-.19A.2.2,0,0,0,160.29,59.41Z"/><path class="cls-1" d="M48.2,17.57h-.07a21.39,21.39,0,0,0-7.58,5.12,23.91,23.91,0,0,0-5,7.75,26.78,26.78,0,0,0-1.72,9,38.69,38.69,0,0,0,.22,4.58c.07.49.15,1,.23,1.46l.12.8c.15.75.32,1.49.49,2.23a.19.19,0,0,0,.19.15h0a.21.21,0,0,0,.16-.23,42.79,42.79,0,0,1-.51-9,32.31,32.31,0,0,1,.54-4.41,26.73,26.73,0,0,1,1.26-4.26,23.57,23.57,0,0,1,4.64-7.5,23.92,23.92,0,0,1,3.27-3,21.42,21.42,0,0,1,3.78-2.39.2.2,0,0,0,.09-.25A.18.18,0,0,0,48.2,17.57Z"/><path class="cls-1" d="M160.29,55.2,151.15,55l-9.14-.1-18.28-.08-18.28.08c-5.51,0-11.91.12-18.28.27a.19.19,0,0,0-.19.2.2.2,0,0,0,.19.2c6.37.15,12.77.22,18.28.27l18.28.08L142,55.87l9.14-.1,9.14-.17a.2.2,0,0,0,0-.4Z"/><path class="cls-1" d="M103.07,62c-5.07.05-10.5.11-15.9.24a.2.2,0,0,0-.19.2.19.19,0,0,0,.19.2c2.83.07,5.67.11,8.5.16h0c2.3-.15,4.79-.28,7.4-.39a.2.2,0,0,0,0-.4Z"/><path class="cls-1" d="M33,55.48c-.09-.24-.2-.47-.3-.7a7.78,7.78,0,0,1-.46-1.18c-.11-.33-.23-.66-.35-1A24.93,24.93,0,0,1,31,49.78a33.76,33.76,0,0,1-1.3-7.69A37.49,37.49,0,0,1,30,34.27l.31-2,.12-.6q.14-.69.3-1.38c.29-1.35.68-2.71,1.05-4a.2.2,0,0,0-.09-.23l-.1,0a.19.19,0,0,0-.15.07,20.61,20.61,0,0,0-4,7.52,24.23,24.23,0,0,0-1,8.58,22.71,22.71,0,0,0,2.05,8.39,17.87,17.87,0,0,0,1.73,3.16l.37.58a10.74,10.74,0,0,0,1,1.35l.3.34c.44.51.92,1,1.43,1.55a.2.2,0,0,0,.14.06.2.2,0,0,0,.11,0,.2.2,0,0,0,.08-.23C33.47,56.73,33.19,56.05,33,55.48Z"/><path class="cls-1" d="M131.47,159.65a57.51,57.51,0,0,0-12.67,0,.2.2,0,0,0-.18.2.19.19,0,0,0,.17.19,49.8,49.8,0,0,0,6.34.36h0a49.9,49.9,0,0,0,6.34-.36.19.19,0,0,0,.17-.19A.2.2,0,0,0,131.47,159.65Z"/><path class="cls-1" d="M94,19.83h.32a.2.2,0,0,0,.2-.17L96,8.45l.13,11.19a.19.19,0,0,0,.2.19h.13a.2.2,0,0,0,.2-.17L97.94,8.45l.24,11.19a.19.19,0,0,0,.2.19h.13a.19.19,0,0,0,.2-.17L99.94,8.45l.34,11.19a.2.2,0,0,0,.2.19h.14a.19.19,0,0,0,.19-.18l1.12-11.2.46,11.19a.19.19,0,0,0,.19.19h.14a.2.2,0,0,0,.2-.18l1-11.2.57,11.2a.19.19,0,0,0,.2.18h.13a.2.2,0,0,0,.2-.18l.89-11.2.68,11.2a.2.2,0,0,0,.2.18h.13a.19.19,0,0,0,.2-.18l.79-11.2.78,11.2a.2.2,0,0,0,.2.18H109a.2.2,0,0,0,.2-.18l.67-11.2.89,11.2a.2.2,0,0,0,.2.18h.14a.2.2,0,0,0,.2-.18l.56-11.2,1,11.2a.19.19,0,0,0,.2.18h.13a.19.19,0,0,0,.2-.19l.46-11.19L115,19.65a.2.2,0,0,0,.2.18h.13a.19.19,0,0,0,.2-.19l.35-11.19,1.22,11.21a.2.2,0,0,0,.2.17h.13a.19.19,0,0,0,.2-.19l.24-11.19,1.34,11.21a.19.19,0,0,0,.19.17h.14a.19.19,0,0,0,.19-.19l.13-11.19,1.45,11.21a.2.2,0,0,0,.2.17h.32a.21.21,0,0,0,.2-.2L121.29,4.2a.2.2,0,0,0-.18-.19A124.26,124.26,0,0,0,108,3.31h-.12A124.14,124.14,0,0,0,94.7,4a.19.19,0,0,0-.17.19l-.74,15.43a.24.24,0,0,0,0,.14A.2.2,0,0,0,94,19.83Z"/><path class="cls-1" d="M89.63,26.61h75.74a.19.19,0,0,0,.19-.2V24a1,1,0,0,0-1-1H90.47a1.05,1.05,0,0,0-1,1,.2.2,0,0,0,.2.2l46.44.49-46.44.49a.2.2,0,0,0-.2.2v1.06A.2.2,0,0,0,89.63,26.61Z"/><path class="cls-1" d="M160.29,60.81l-9.14-.17-9.14-.1-18.28-.08-18.28.08c-5.51.05-11.91.12-18.28.27a.2.2,0,0,0,0,.4c6.37.15,12.77.22,18.28.27l18.28.08L142,61.48l9.14-.1,9.14-.17a.2.2,0,0,0,0-.4Z"/><path class="cls-1" d="M82.6,52.09h83.84a3.39,3.39,0,0,0,3.39-3.39V33.11a3.39,3.39,0,0,0-3.39-3.39H82.6a3.39,3.39,0,0,0-3.39,3.39V48.7A3.39,3.39,0,0,0,82.6,52.09ZM166.71,36.3c.09-1.25.2-2.29.35-3.25.15,1,.26,2,.35,3.25.11,1.49.14,3,.15,4.37s0,2.87-.15,4.37c-.09,1.25-.2,2.3-.35,3.26-.15-1-.26-2-.35-3.26-.11-1.51-.14-3-.15-4.37S166.6,37.79,166.71,36.3Zm-83.4,4.37c0,1.38,0,2.87-.15,4.37-.09,1.25-.2,2.3-.35,3.26-.15-1-.26-2-.35-3.26-.11-1.5-.14-3-.15-4.37s0-2.88.15-4.37c.09-1.25.2-2.29.35-3.25.15,1,.26,2,.35,3.25C83.27,37.79,83.3,39.28,83.31,40.67Zm.65,0c0-1.39,0-2.88.15-4.37.09-1.25.2-2.29.35-3.25.15,1,.26,2,.35,3.25.11,1.49.14,3,.15,4.37s0,2.85-.15,4.37c-.09,1.25-.2,2.3-.35,3.26-.15-1-.26-2-.35-3.26C84,43.54,84,42.05,84,40.67Zm1.65,0c0-1.39,0-2.88.16-4.37.09-1.25.2-2.29.34-3.25.15,1,.26,2,.35,3.25.11,1.49.14,3,.16,4.37s0,2.87-.16,4.37c-.09,1.25-.2,2.3-.35,3.26-.15-1-.26-2-.35-3.26C85.65,43.54,85.62,42.05,85.61,40.67Zm1.65,0c0-1.39,0-2.88.16-4.37.09-1.25.2-2.29.35-3.25.14,1,.25,2,.34,3.25.12,1.49.14,3,.16,4.37s0,2.87-.16,4.37c-.08,1.25-.19,2.3-.34,3.26-.15-1-.26-2-.35-3.26C87.3,43.54,87.28,42.05,87.26,40.67Zm1.66,0c0-1.38,0-2.87.15-4.37.09-1.25.2-2.29.35-3.25.15,1,.26,2,.34,3.25.12,1.49.15,3,.16,4.37s0,2.87-.15,4.37c-.09,1.26-.2,2.3-.35,3.26-.15-1-.26-2-.35-3.26C89,43.52,88.93,42,88.92,40.67Zm1.65,0c0-1.39,0-2.88.15-4.37.09-1.25.2-2.29.35-3.25.15,1,.26,2,.35,3.25.11,1.49.14,3,.15,4.37s0,2.87-.15,4.37c-.09,1.26-.2,2.3-.35,3.26-.15-1-.26-2-.35-3.26C90.61,43.54,90.58,42.05,90.57,40.67Zm1.65,0c0-1.39,0-2.88.16-4.37.08-1.25.19-2.29.34-3.25.15,1,.26,2,.35,3.25.11,1.5.14,3,.15,4.37s0,2.85-.15,4.37c-.09,1.25-.2,2.3-.35,3.26-.15-1-.26-2-.35-3.26C92.26,43.54,92.23,42.05,92.22,40.67Zm1.65,0c0-1.38,0-2.87.16-4.37.09-1.25.2-2.29.34-3.25.15,1,.26,2,.35,3.25.11,1.49.14,3,.16,4.37s0,2.87-.16,4.37c-.09,1.26-.2,2.3-.35,3.26-.15-1-.26-2-.35-3.26C93.91,43.53,93.88,42.05,93.87,40.67Zm1.65,0c0-1.39,0-2.88.16-4.37.09-1.25.2-2.29.35-3.25.14,1,.25,2,.34,3.25.12,1.49.14,3,.16,4.37s0,2.87-.16,4.37c-.08,1.26-.19,2.3-.34,3.26-.15-1-.27-2-.35-3.26C95.56,43.54,95.54,42.05,95.52,40.67Zm1.66,0c0-1.39,0-2.88.15-4.37.09-1.25.2-2.29.35-3.25.15,1,.26,2,.34,3.25.12,1.5.15,3,.16,4.37s0,2.87-.15,4.37c-.09,1.25-.2,2.3-.35,3.26-.15-1-.26-2-.35-3.26C97.21,43.52,97.19,42,97.18,40.67Zm1.65,0c0-1.39,0-2.88.15-4.37.09-1.25.2-2.29.35-3.25.15,1,.26,2,.35,3.25.11,1.49.14,3,.15,4.37s0,2.87-.15,4.37c-.09,1.26-.2,2.3-.35,3.26-.15-1-.26-2-.35-3.26C98.87,43.54,98.84,42.05,98.83,40.67Zm1.65,0c0-1.39,0-2.88.15-4.37.09-1.25.2-2.29.35-3.25.15,1,.26,2,.35,3.25.11,1.49.14,3,.15,4.37s0,2.86-.15,4.37c-.09,1.25-.2,2.3-.35,3.26-.15-1-.26-2-.35-3.26C100.52,43.54,100.49,42.05,100.48,40.67Zm1.65,0c0-1.39,0-2.88.16-4.37.08-1.25.2-2.29.34-3.25.15,1,.26,2,.35,3.25.11,1.49.14,3,.16,4.37s0,2.87-.16,4.37c-.09,1.25-.2,2.3-.35,3.26-.15-1-.26-2-.35-3.26C102.17,43.53,102.14,42.05,102.13,40.67Zm1.65,0c0-1.39,0-2.88.16-4.37.09-1.25.2-2.29.35-3.25.14,1,.25,2,.34,3.25.12,1.49.14,3,.16,4.37s0,2.87-.16,4.37c-.08,1.25-.19,2.3-.34,3.26-.15-1-.27-2-.35-3.26C103.82,43.54,103.8,42.05,103.78,40.67Zm1.66,0c0-1.39,0-2.88.15-4.37.09-1.25.2-2.29.35-3.25.15,1,.26,2,.34,3.25.12,1.49.15,3,.16,4.37s0,2.85-.15,4.37c-.09,1.25-.2,2.3-.35,3.26-.15-1-.26-2-.35-3.26C105.47,43.54,105.45,42.05,105.44,40.67Zm1.65,0c0-1.39,0-2.88.15-4.37.09-1.25.2-2.29.35-3.25.15,1,.26,2,.35,3.25.11,1.49.14,3,.15,4.37s0,2.87-.15,4.37c-.09,1.25-.2,2.3-.35,3.26-.15-1-.26-2-.35-3.26C107.13,43.54,107.1,42.05,107.09,40.67Zm1.65,0c0-1.39,0-2.88.15-4.37.09-1.25.2-2.29.35-3.25.15,1,.26,2,.35,3.25.11,1.49.14,3,.15,4.37s0,2.87-.15,4.37c-.09,1.25-.2,2.3-.35,3.26-.15-1-.26-2-.35-3.26C108.78,43.54,108.75,42.05,108.74,40.67Zm1.65,0c0-1.38,0-2.87.16-4.37.09-1.25.2-2.29.34-3.25.15,1,.26,2,.35,3.25.11,1.49.14,3,.16,4.37s0,2.87-.16,4.37c-.09,1.26-.2,2.3-.35,3.26-.15-1-.26-2-.35-3.26C110.43,43.52,110.4,42,110.39,40.67Zm1.65,0c0-1.39,0-2.88.16-4.37.09-1.25.2-2.29.35-3.25.14,1,.25,2,.34,3.25.12,1.49.14,3,.16,4.37s0,2.87-.16,4.37c-.08,1.26-.2,2.3-.34,3.26-.15-1-.27-2-.35-3.26C112.08,43.54,112.06,42.05,112,40.67Zm1.66,0c0-1.39,0-2.88.15-4.37.09-1.25.2-2.29.35-3.25.15,1,.26,2,.34,3.25.12,1.5.15,3,.16,4.37s0,2.85-.15,4.37c-.09,1.25-.2,2.3-.35,3.26-.15-1-.26-2-.35-3.26C113.73,43.54,113.71,42.05,113.7,40.67Zm1.65,0c0-1.38,0-2.87.15-4.37.09-1.25.2-2.29.35-3.25.15,1,.26,2,.35,3.25.11,1.49.14,3,.15,4.37s0,2.87-.15,4.37c-.09,1.26-.2,2.3-.35,3.26-.15-1-.26-2-.35-3.26C115.38,43.53,115.36,42.05,115.35,40.67Zm1.65,0c0-1.39,0-2.88.15-4.37.09-1.25.2-2.29.35-3.25.15,1,.26,2,.35,3.25.11,1.49.14,3,.15,4.37s0,2.87-.15,4.37c-.09,1.26-.2,2.3-.35,3.26-.15-1-.26-2-.35-3.26C117,43.54,117,42.05,117,40.67Zm1.65,0c0-1.39,0-2.88.16-4.37.09-1.25.2-2.29.34-3.25.15,1,.26,2,.35,3.25.11,1.5.14,3,.16,4.37s0,2.87-.16,4.37c-.09,1.25-.2,2.3-.35,3.26-.15-1-.26-2-.35-3.26C118.69,43.52,118.66,42,118.65,40.67Zm1.65,0c0-1.39,0-2.88.16-4.37.09-1.25.2-2.29.35-3.25.14,1,.25,2,.34,3.25.12,1.49.14,3,.16,4.37s0,2.87-.16,4.37c-.08,1.26-.19,2.3-.34,3.26-.15-1-.27-2-.35-3.26C120.34,43.54,120.31,42.05,120.3,40.67Zm1.66,0c0-1.39,0-2.88.15-4.37.09-1.25.2-2.29.35-3.25.15,1,.26,2,.34,3.25.12,1.49.15,3,.16,4.37s0,2.86-.15,4.37c-.09,1.25-.2,2.3-.35,3.26-.15-1-.26-2-.35-3.26C122,43.54,122,42.05,122,40.67Zm1.65,0c0-1.39,0-2.88.15-4.37.09-1.25.2-2.29.35-3.25.15,1,.26,2,.35,3.25.11,1.49.14,3,.15,4.37s0,2.87-.15,4.37c-.09,1.25-.2,2.3-.35,3.26-.15-1-.26-2-.35-3.26C123.65,43.53,123.62,42.05,123.61,40.67Zm1.65,0c0-1.39,0-2.88.15-4.37.09-1.25.2-2.29.35-3.25.15,1,.26,2,.35,3.25.11,1.49.14,3,.15,4.37s0,2.87-.15,4.37c-.09,1.25-.2,2.3-.35,3.26-.15-1-.26-2-.35-3.26C125.3,43.54,125.27,42.05,125.26,40.67Zm1.65,0c0-1.39,0-2.88.16-4.37.08-1.25.2-2.29.34-3.25.15,1,.26,2,.35,3.25.11,1.49.14,3,.16,4.37s0,2.85-.16,4.37c-.09,1.25-.2,2.3-.35,3.26-.15-1-.26-2-.35-3.26C127,43.54,126.92,42.05,126.91,40.67Zm1.65,0c0-1.39,0-2.88.16-4.37.09-1.25.2-2.29.35-3.25.14,1,.25,2,.34,3.25.12,1.49.14,3,.16,4.37s0,2.87-.16,4.37c-.08,1.25-.2,2.3-.34,3.26-.15-1-.27-2-.35-3.26C128.6,43.54,128.57,42.05,128.56,40.67Zm1.66,0c0-1.39,0-2.88.15-4.37.09-1.25.2-2.29.35-3.25.15,1,.26,2,.34,3.25.12,1.49.15,3,.16,4.37s0,2.87-.15,4.37c-.09,1.25-.2,2.3-.35,3.26-.15-1-.26-2-.35-3.26C130.25,43.54,130.23,42.05,130.22,40.67Zm1.65,0c0-1.38,0-2.87.15-4.37.09-1.25.2-2.29.35-3.25.15,1,.26,2,.35,3.25.11,1.49.14,3,.15,4.37s0,2.87-.15,4.37c-.09,1.26-.2,2.3-.35,3.26-.15-1-.26-2-.35-3.26C131.9,43.52,131.88,42,131.87,40.67Zm1.65,0c0-1.39,0-2.88.15-4.37.09-1.25.2-2.29.35-3.25.15,1,.26,2,.35,3.25.11,1.49.14,3,.15,4.37s0,2.87-.15,4.37c-.09,1.26-.2,2.3-.35,3.26-.15-1-.26-2-.35-3.26C133.56,43.54,133.53,42.05,133.52,40.67Zm1.65,0c0-1.39,0-2.88.16-4.37.08-1.25.2-2.29.34-3.25.15,1,.26,2,.35,3.25.11,1.5.14,3,.15,4.37s0,2.85-.15,4.37c-.09,1.25-.2,2.3-.35,3.26-.15-1-.26-2-.35-3.26C135.21,43.54,135.18,42.05,135.17,40.67Zm1.65,0c0-1.38,0-2.87.16-4.37.09-1.25.2-2.29.35-3.25.14,1,.25,2,.34,3.25.12,1.49.14,3,.16,4.37s0,2.87-.16,4.37c-.08,1.26-.2,2.3-.34,3.26-.15-1-.27-2-.35-3.26C136.86,43.53,136.83,42.05,136.82,40.67Zm1.65,0c0-1.39.05-2.88.16-4.37.09-1.25.2-2.29.35-3.25.15,1,.26,2,.34,3.25.12,1.49.15,3,.16,4.37s0,2.87-.15,4.37c-.09,1.26-.2,2.3-.35,3.26-.15-1-.26-2-.35-3.26C138.51,43.54,138.49,42.05,138.47,40.67Zm1.66,0c0-1.39,0-2.88.15-4.37.09-1.25.2-2.29.35-3.25.15,1,.26,2,.35,3.25.11,1.5.14,3,.15,4.37s0,2.87-.15,4.37c-.09,1.25-.2,2.3-.35,3.26-.15-1-.26-2-.35-3.26C140.16,43.52,140.14,42,140.13,40.67Zm1.65,0c0-1.39,0-2.88.15-4.37.09-1.25.2-2.29.35-3.25.15,1,.26,2,.35,3.25.11,1.49.14,3,.15,4.37s0,2.87-.15,4.37c-.09,1.26-.2,2.3-.35,3.26-.15-1-.26-2-.35-3.26C141.82,43.54,141.79,42.05,141.78,40.67Zm1.65,0c0-1.39,0-2.88.16-4.37.08-1.25.2-2.29.34-3.25.15,1,.26,2,.35,3.25.11,1.49.14,3,.16,4.37s0,2.86-.16,4.37c-.09,1.25-.2,2.3-.35,3.26-.15-1-.26-2-.35-3.26C143.47,43.54,143.44,42.05,143.43,40.67Zm1.65,0c0-1.39,0-2.88.16-4.37.09-1.25.2-2.29.34-3.25.15,1,.26,2,.35,3.25.12,1.49.14,3,.16,4.37s0,2.87-.16,4.37c-.08,1.25-.2,2.3-.35,3.26-.14-1-.26-2-.34-3.26C145.12,43.53,145.09,42.05,145.08,40.67Zm1.66,0c0-1.39,0-2.88.15-4.37.09-1.25.2-2.29.35-3.25.14,1,.26,2,.34,3.25.12,1.49.15,3,.16,4.37s0,2.87-.15,4.37c-.09,1.25-.2,2.3-.35,3.26-.15-1-.26-2-.35-3.26C146.77,43.54,146.75,42.05,146.74,40.67Zm1.65,0c0-1.39,0-2.88.15-4.37.09-1.25.2-2.29.35-3.25.15,1,.26,2,.35,3.25.11,1.49.14,3,.15,4.37s0,2.85-.15,4.37c-.09,1.25-.2,2.3-.35,3.26-.15-1-.26-2-.35-3.26C148.43,43.54,148.4,42.05,148.39,40.67Zm1.65,0c0-1.39,0-2.88.15-4.37.09-1.25.2-2.29.35-3.25.15,1,.26,2,.35,3.25.11,1.49.14,3,.15,4.37s0,2.87-.15,4.37c-.09,1.25-.2,2.3-.35,3.26-.15-1-.26-2-.35-3.26C150.08,43.54,150.05,42.05,150,40.67Zm1.65,0c0-1.39,0-2.88.16-4.37.08-1.25.19-2.29.34-3.25.15,1,.26,2,.35,3.25.11,1.49.14,3,.15,4.37s0,2.87-.15,4.37c-.09,1.25-.2,2.3-.35,3.26-.15-1-.26-2-.35-3.26C151.73,43.54,151.7,42.05,151.69,40.67Zm1.65,0c0-1.38,0-2.87.16-4.37.09-1.25.2-2.29.34-3.25.15,1,.26,2,.35,3.25.12,1.49.14,3,.16,4.37s0,2.87-.16,4.37c-.08,1.26-.2,2.3-.35,3.26-.14-1-.26-2-.34-3.26C153.38,43.52,153.35,42,153.34,40.67Zm1.65,0c0-1.39,0-2.88.16-4.37.09-1.25.2-2.29.35-3.25.14,1,.26,2,.34,3.25.12,1.49.15,3,.16,4.37s0,2.87-.15,4.37c-.09,1.26-.2,2.3-.35,3.26-.15-1-.26-2-.35-3.26C155,43.54,155,42.05,155,40.67Zm1.66,0c0-1.39,0-2.88.15-4.37.09-1.25.2-2.29.35-3.25.15,1,.26,2,.35,3.25.11,1.5.14,3,.15,4.37s0,2.85-.15,4.37c-.09,1.25-.2,2.3-.35,3.26-.15-1-.26-2-.35-3.26C156.68,43.54,156.66,42.05,156.65,40.67Zm1.65,0c0-1.38,0-2.87.15-4.37.09-1.25.2-2.29.35-3.25.15,1,.26,2,.35,3.25.11,1.49.14,3,.15,4.37s0,2.87-.15,4.37c-.09,1.26-.2,2.3-.35,3.26-.15-1-.26-2-.35-3.26C158.34,43.53,158.31,42.05,158.3,40.67Zm1.65,0c0-1.39,0-2.88.16-4.37.08-1.25.19-2.29.34-3.25.15,1,.26,2,.35,3.25.11,1.49.14,3,.15,4.37s0,2.87-.15,4.37c-.09,1.26-.2,2.3-.35,3.26-.15-1-.26-2-.35-3.26C160,43.54,160,42.05,160,40.67Zm1.65,0c0-1.39,0-2.88.16-4.37.09-1.25.2-2.29.34-3.25.15,1,.26,2,.35,3.25.12,1.5.14,3,.16,4.37s0,2.87-.16,4.37c-.08,1.25-.2,2.3-.35,3.26-.14-1-.26-2-.34-3.26C161.64,43.52,161.61,42,161.6,40.67Zm1.65,0c0-1.39.05-2.88.16-4.37.09-1.25.2-2.29.35-3.25.14,1,.26,2,.34,3.25.12,1.49.15,3,.16,4.37s0,2.87-.15,4.37c-.09,1.26-.2,2.3-.35,3.26-.15-1-.26-2-.35-3.26C163.29,43.54,163.27,42.05,163.25,40.67Zm1.66,0c0-1.39,0-2.88.15-4.37.09-1.25.2-2.29.35-3.25.15,1,.26,2,.35,3.25.11,1.49.14,3,.15,4.37s0,2.86-.15,4.37c-.09,1.25-.2,2.3-.35,3.26-.15-1-.26-2-.35-3.26C164.94,43.54,164.92,42.05,164.91,40.67Zm-83.25,0c0,1.38,0,2.87-.15,4.37-.09,1.25-.2,2.3-.35,3.26-.15-1-.26-2-.35-3.26-.12-1.51-.14-3-.15-4.37s0-2.88.15-4.37c.09-1.25.2-2.29.35-3.25.15,1,.26,2,.34,3.25C81.62,37.79,81.65,39.28,81.66,40.67Z"/><path class="cls-1" d="M131.47,219.86a56,56,0,0,0-12.68,0,.19.19,0,0,0-.17.19.2.2,0,0,0,.18.2,51.43,51.43,0,0,0,6.33.35h0a51.59,51.59,0,0,0,6.34-.35.2.2,0,0,0,.17-.2A.19.19,0,0,0,131.47,219.86Z"/><path class="cls-1" d="M131.47,217.85a49.78,49.78,0,0,0-6.34-.35,51.43,51.43,0,0,0-6.33.35.2.2,0,0,0-.18.2.19.19,0,0,0,.17.19,51.71,51.71,0,0,0,6.34.36h0a49.9,49.9,0,0,0,6.34-.36.19.19,0,0,0,.17-.19A.2.2,0,0,0,131.47,217.85Z"/><path class="cls-1" d="M131.47,211.83a48,48,0,0,0-6.34-.35,51.59,51.59,0,0,0-6.34.35.2.2,0,0,0-.17.2.19.19,0,0,0,.18.19,49.53,49.53,0,0,0,6.33.35h0a48,48,0,0,0,6.34-.35.19.19,0,0,0,.17-.19A.2.2,0,0,0,131.47,211.83Z"/><path class="cls-1" d="M131.47,215.84a57.6,57.6,0,0,0-12.68,0,.2.2,0,0,0,0,.4,51.43,51.43,0,0,0,6.33.35h0a51.69,51.69,0,0,0,6.34-.35.2.2,0,0,0,0-.4Z"/><path class="cls-1" d="M131.47,221.86a57.51,57.51,0,0,0-12.67,0,.2.2,0,0,0,0,.4,51.69,51.69,0,0,0,6.34.35h0a51.59,51.59,0,0,0,6.34-.35.2.2,0,0,0,0-.4Z"/><path class="cls-1" d="M131.47,213.84a55.92,55.92,0,0,0-12.67,0,.19.19,0,0,0-.18.19.2.2,0,0,0,.17.2,51.59,51.59,0,0,0,6.34.35h0a51.69,51.69,0,0,0,6.34-.35.2.2,0,0,0,.17-.2A.19.19,0,0,0,131.47,213.84Z"/><path class="cls-1" d="M166.9,103.41a.21.21,0,0,0-.16.08,21.94,21.94,0,0,0-4.32,14.4.21.21,0,0,0,.19.18h.09c2.78,0,4.19-9.93,4.4-14.45a.21.21,0,0,0-.13-.2Z"/><path class="cls-1" d="M89.69,114.46a.17.17,0,0,0,.08.14.21.21,0,0,0,.12,0h0c3.8-.93,14.36-1.63,27.58-1.83a.19.19,0,0,0,.19-.2V74.15a51.68,51.68,0,0,1,8.28-.67h0a50.75,50.75,0,0,1,8.16.67v38.49a.19.19,0,0,0,.19.2l2.79.06h0a.19.19,0,0,0,.13-.05.2.2,0,0,0,.06-.14c.13-6.77.3-13.54.52-20.19.23,6.66.4,13.44.52,20.23a.2.2,0,0,0,.19.19c9.57.28,17.07.84,20.58,1.54h0a.15.15,0,0,0,.11,0,.16.16,0,0,0,.08-.14c.65-7,4.55-13.84,11-19.17a1.1,1.1,0,0,0,.41-.83V69a1.42,1.42,0,0,0-1.17-1.4c-4.26-.75-17.16-2.53-45-2.61-27.89.08-40.8,1.86-45,2.61A1.42,1.42,0,0,0,78.3,69V94.3a1.1,1.1,0,0,0,.41.83C85.18,100.5,89.08,107.36,89.69,114.46Zm75-17a27.53,27.53,0,0,0-3.44,4.4l-.36.61c-.34.6-.7,1.21-1,1.85l-.23.44c-.13.27-.27.55-.4.83l-.53,1.31-.28.67-.23.67-.46,1.35c-.1.29-.18.59-.26.89l0,.12c0-.35.06-.7.11-1l.24-1.43.12-.71.18-.71a26,26,0,0,1,2-5.48,24.52,24.52,0,0,1,3.36-4.86,11.69,11.69,0,0,1,1-1.07c.26-.27.55-.52.83-.76l.27-.23a19,19,0,0,1,2-1.43.18.18,0,0,0,.1-.16l0-5c0-.59,0-1.18,0-1.76,0-1.28.07-2.6.13-3.89.07-1.91.19-3.85.31-5.65l0-.28c.09-1.16.18-2.36.29-3.55.12,1.21.21,2.41.3,3.59l0,.24c.11,1.8.23,3.73.3,5.65.07,1.29.1,2.61.13,3.88,0,.59,0,1.18,0,1.76l.07,6.16-.48.26a15.12,15.12,0,0,0-2.22,1.51A22.36,22.36,0,0,0,164.65,97.41ZM127.82,70.24l-2.39,0h-1.27l-4.89,0-4.88.06h-.32c-1.22,0-2.44,0-3.66.06l-.91,0c-.73,0-1.46,0-2.19.05-.9,0-1.8,0-2.69.07-5.44.14-11,.43-16.34.73,5.3-.9,10.76-1.56,16.27-2,6.33-.47,12.65-.71,18.79-.71h1.24c1.06,0,2.11,0,3.17,0l2.24,0c1.31,0,2.66.05,4,.11,3,.13,6.43.28,9.8.53,6.18.44,11.47,1,16.37,1.7l-16.43-.46-4-.08c-1.9,0-3.87-.08-5.8-.09q-2.44,0-4.89-.06ZM88.35,101.8a26.21,26.21,0,0,0-3.44-4.38,21,21,0,0,0-2-1.88A15.63,15.63,0,0,0,80.67,94l-.49-.26.07-6.15c0-.59,0-1.18,0-1.77,0-1.27.07-2.59.13-3.88.07-1.92.19-3.85.31-5.65l0-.28c.09-1.16.18-2.35.29-3.55.12,1.2.21,2.39.29,3.55l0,.28c.11,1.8.23,3.73.3,5.65.07,1.29.1,2.61.13,3.88,0,.59,0,1.18,0,1.76l.06,5.06a.17.17,0,0,0,.09.16,19.37,19.37,0,0,1,2,1.42l.27.24a10.1,10.1,0,0,1,.84.76,13.07,13.07,0,0,1,1,1.07,23.71,23.71,0,0,1,3.36,4.86,25.45,25.45,0,0,1,2,5.48l.18.7.12.72.25,1.43c0,.34.07.69.1,1l0-.12c-.08-.3-.16-.6-.26-.89l-.69-2-.28-.66-.53-1.31c-.13-.28-.26-.56-.4-.83s-.15-.29-.22-.44a20.54,20.54,0,0,0-1-1.85Zm21.79-6.33a.19.19,0,0,0,0-.25.18.18,0,0,0-.12,0,.24.24,0,0,0-.14,0,137.18,137.18,0,0,0-13.61,15.31,34.13,34.13,0,0,0-2.67-6.89c.68-.73,5.12-5.51,16.74-17.6a.2.2,0,0,0,0-.27.21.21,0,0,0-.15-.07.28.28,0,0,0-.12,0c-.08.07-7.59,5.76-15.79,13.29,3.19-4,11.3-13.62,21.49-21,0,1.53-.17,7.31-.17,15.29a97.13,97.13,0,0,0-10.76,10.84ZM134,66.26c3,.12,6.43.27,9.8.52,6.18.44,11.47,1,16.37,1.7L143.71,68c-1.32,0-2.65,0-4-.07-1.9,0-3.87-.09-5.8-.1q-2.44,0-4.89-.06h-9.78l-4.88.06h-.32c-1.22,0-2.44,0-3.66.06l-.91,0-2.19,0c-.9,0-1.8,0-2.69.06-5.44.15-11,.44-16.34.73,5.3-.9,10.76-1.56,16.27-2,6.33-.47,12.65-.71,18.79-.71h1.24c1.06,0,2.11,0,3.17,0l2.24,0C131.3,66.17,132.65,66.2,134,66.26Z"/><path class="cls-1" d="M131.47,225.88a55.92,55.92,0,0,0-12.67,0,.19.19,0,0,0-.18.19.2.2,0,0,0,.17.2,51.69,51.69,0,0,0,6.34.35h0a49.68,49.68,0,0,0,6.34-.35.2.2,0,0,0,.17-.2A.19.19,0,0,0,131.47,225.88Z"/><path class="cls-1" d="M131.47,227.88a57.6,57.6,0,0,0-12.68,0,.2.2,0,0,0,0,.4,51.59,51.59,0,0,0,6.34.35h0a51.59,51.59,0,0,0,6.34-.35.2.2,0,0,0,0-.4Z"/><path class="cls-1" d="M131.47,223.87a57.6,57.6,0,0,0-12.68,0,.2.2,0,0,0-.17.2.19.19,0,0,0,.17.19,49.8,49.8,0,0,0,6.34.36h0a49.8,49.8,0,0,0,6.34-.36.19.19,0,0,0,.17-.19A.2.2,0,0,0,131.47,223.87Z"/><path class="cls-1" d="M131.47,165.67a57.51,57.51,0,0,0-12.67,0,.2.2,0,0,0-.18.2.21.21,0,0,0,.17.2,51.59,51.59,0,0,0,6.34.35h0a51.59,51.59,0,0,0,6.34-.35.2.2,0,0,0,.17-.2A.2.2,0,0,0,131.47,165.67Z"/><path class="cls-1" d="M131.47,99.44a57.6,57.6,0,0,0-12.68,0,.21.21,0,0,0-.17.2.2.2,0,0,0,.18.2,51.33,51.33,0,0,0,6.33.35h0a51.59,51.59,0,0,0,6.34-.35.2.2,0,0,0,.17-.2A.2.2,0,0,0,131.47,99.44Z"/><path class="cls-1" d="M131.47,95.43a57.51,57.51,0,0,0-12.67,0,.2.2,0,0,0-.18.2.21.21,0,0,0,.17.2,51.59,51.59,0,0,0,6.34.35h0a51.59,51.59,0,0,0,6.34-.35.2.2,0,0,0,.17-.2A.2.2,0,0,0,131.47,95.43Z"/><path class="cls-1" d="M131.47,97.44a47.92,47.92,0,0,0-6.34-.35,51.59,51.59,0,0,0-6.34.35.2.2,0,0,0,0,.39,51.33,51.33,0,0,0,6.33.35h0a47.92,47.92,0,0,0,6.34-.35.19.19,0,0,0,.17-.19A.2.2,0,0,0,131.47,97.44Z"/><path class="cls-1" d="M131.47,91.42a47.92,47.92,0,0,0-6.34-.35,49.44,49.44,0,0,0-6.33.35.19.19,0,0,0-.18.19.2.2,0,0,0,.17.2,51.59,51.59,0,0,0,6.34.35h0a49.78,49.78,0,0,0,6.34-.35.2.2,0,0,0,.17-.2A.19.19,0,0,0,131.47,91.42Z"/><path class="cls-1" d="M131.47,93.42a57.6,57.6,0,0,0-12.68,0,.21.21,0,0,0-.17.2.2.2,0,0,0,.18.2,51.33,51.33,0,0,0,6.33.35h0a51.59,51.59,0,0,0,6.34-.35.2.2,0,0,0,.17-.2A.2.2,0,0,0,131.47,93.42Z"/><path class="cls-1" d="M131.47,109.48a49.78,49.78,0,0,0-6.34-.35,51.33,51.33,0,0,0-6.33.35.2.2,0,0,0-.18.2.19.19,0,0,0,.18.19,49.55,49.55,0,0,0,6.33.36h0a49.8,49.8,0,0,0,6.34-.36.19.19,0,0,0,.17-.19A.2.2,0,0,0,131.47,109.48Z"/><path class="cls-1" d="M131.47,89.41a57.51,57.51,0,0,0-12.67,0,.2.2,0,0,0-.18.2.19.19,0,0,0,.17.19,49.8,49.8,0,0,0,6.34.36h0a49.8,49.8,0,0,0,6.34-.36.19.19,0,0,0,.17-.19A.2.2,0,0,0,131.47,89.41Z"/><path class="cls-1" d="M131.47,107.47a57.51,57.51,0,0,0-12.67,0,.2.2,0,0,0,0,.4,51.33,51.33,0,0,0,6.33.35h0a51.59,51.59,0,0,0,6.34-.35.2.2,0,0,0,0-.4Z"/><path class="cls-1" d="M131.47,103.46a49.68,49.68,0,0,0-6.34-.35,51.59,51.59,0,0,0-6.34.35.2.2,0,0,0-.17.2.19.19,0,0,0,.18.19,49.44,49.44,0,0,0,6.33.35h0a47.92,47.92,0,0,0,6.34-.35.19.19,0,0,0,.17-.19A.2.2,0,0,0,131.47,103.46Z"/><path class="cls-1" d="M131.47,105.47a56,56,0,0,0-12.68,0,.19.19,0,0,0-.17.19.2.2,0,0,0,.18.2,51.33,51.33,0,0,0,6.33.35h0a51.59,51.59,0,0,0,6.34-.35.2.2,0,0,0,.17-.2A.19.19,0,0,0,131.47,105.47Z"/><path class="cls-1" d="M131.47,101.45a57.6,57.6,0,0,0-12.68,0,.2.2,0,0,0-.17.2.21.21,0,0,0,.18.2,51.33,51.33,0,0,0,6.33.35h0a51.59,51.59,0,0,0,6.34-.35.2.2,0,0,0,0-.4Z"/><path class="cls-1" d="M164.84,241.21h0a189.43,189.43,0,0,1-20.75,3.23c-3.88.37-7.15.66-10.45.83-3.78.22-7.2.33-10.47.34l-2.29,0c-2.68,0-5.43-.07-8.17-.21-3.2-.14-6.6-.42-10.41-.87A79.11,79.11,0,0,1,82,239.64h-.07a.19.19,0,0,0-.18.11.2.2,0,0,0,.08.26c5.38,3,12,5.17,20.15,6.56a119.65,119.65,0,0,0,20.17,1.56h1c3.64-.05,7.21-.2,10.6-.46,2.88-.24,6.69-.6,10.54-1.19a110.34,110.34,0,0,0,20.61-4.87.19.19,0,0,0,.12-.24A.18.18,0,0,0,164.84,241.21Z"/><path class="cls-1" d="M131.47,75.36a57.51,57.51,0,0,0-12.67,0,.2.2,0,0,0,0,.4,51.33,51.33,0,0,0,6.33.35h0a51.69,51.69,0,0,0,6.34-.35.2.2,0,0,0,0-.4Z"/><path class="cls-1" d="M131.47,87.4a57.51,57.51,0,0,0-12.67,0,.2.2,0,0,0,0,.4,51.59,51.59,0,0,0,6.34.35h0a51.69,51.69,0,0,0,6.34-.35.2.2,0,0,0,0-.4Z"/><path class="cls-1" d="M131.47,111.49a55.92,55.92,0,0,0-12.67,0,.19.19,0,0,0-.18.19.2.2,0,0,0,.18.2,51.33,51.33,0,0,0,6.33.35h0a51.69,51.69,0,0,0,6.34-.35.2.2,0,0,0,.17-.2A.19.19,0,0,0,131.47,111.49Z"/><path class="cls-1" d="M170.08,135.05a21.32,21.32,0,0,1-10.75-16.82c-.05-.64-.07-1.32-.06-2.13a.24.24,0,0,0-.07-.16.21.21,0,0,0-.13,0h0c-3.53.69-11,1.24-20.4,1.52a.19.19,0,0,0-.19.2l0,1.6c.07,3.57.1,7.21.13,10.73,0,1.8,0,3.6,0,5.39l.05,16.13-.05,16.13c0,1.71,0,3.43,0,5.14,0,3.6-.06,7.32-.13,11-.11,8.84-.32,17.79-.62,26.68-.3-8.89-.5-17.84-.62-26.68-.06-3.66-.09-7.38-.13-11,0-1.71,0-3.43,0-5.14L137,151.47l0-16.13c0-1.79,0-3.59.05-5.39,0-3.52.06-7.16.13-10.74l0-1.55a.19.19,0,0,0-.05-.14.2.2,0,0,0-.14-.06h0l-2.71.06a.19.19,0,0,0-.19.2V230.2a40.62,40.62,0,0,1-8.23.85h-.1a41,41,0,0,1-8.11-.85V117.76a.19.19,0,0,0-.19-.2c-13.1-.2-23.64-.89-27.5-1.81H90a.18.18,0,0,0-.12.05.16.16,0,0,0-.07.16c0,.87,0,1.59-.06,2.28A21.36,21.36,0,0,1,79,135.05a2.09,2.09,0,0,0-1,1.82v96.29a8.37,8.37,0,0,0,.73,3.42.2.2,0,0,0,.18.12h0c8.23-1.72,19.58-2.75,33.74-3.07a.2.2,0,0,0,.19-.19l.82-85.7.82,85.66a.19.19,0,0,0,.2.19h0c2.36,0,4.81-.06,7.28-.06,3.28,0,6.33,0,9,.09-3.85.12-7.09.34-9.55.67-5.05.67-5.05,1.5-5.05,1.78,0,1.31,5.23,1.78,9.71,1.78.71,0,1.44,0,2.2,0l4.16-.11c14.38-.39,19.83-.64,20-1.76,0-.28-.14-.6-1.44-1.07,1.05,0,2.1,0,3.14,0a115.41,115.41,0,0,1,16.39,1h0a.2.2,0,0,0,.19-.14,8.34,8.34,0,0,0,.39-2.52V136.87A2.1,2.1,0,0,0,170.08,135.05Zm-11.92-13.12a33.46,33.46,0,0,0,4.64,10.13c1.81,2.7-2.15,8.72-7.16,16.33-6,9.12-13.35,20.31-15.38,32v-32c.61,2.3,1.83,6.12,3.31,6.12.41,0,.78-.27,1.13-.81a1.13,1.13,0,0,0,1,.75C149.15,154.42,156.94,136.9,158.16,121.93ZM144.7,215.4c17.62-9.83,22.13-54,23.19-69.91.23,14.77.82,54.06,1,88-1.75-.14-13.77-1-27.33-1C142.24,231.15,144.83,225.74,144.7,215.4Zm-33-37.83c-.67,5.32-8.85,25.9-14,25.9-.86,0-1.63-.6-2.27-1.78-1-1.79-2-2.7-3-2.7a2,2,0,0,0-1.57.9c-2.66,3.34-3.56,15.41-.74,28.25-1.25-1.4-4.58-5.95-5.43-15.21,0-.06-2.18-5.44-2.12-15.54.57,2.55,1.6,6.33,2.62,6.33.51,0,.77-.78.92-1.42-.3-4.41,1.37-9.88,3.78-12.46a4.16,4.16,0,0,1,3-1.55c1.26,0,2.52.81,3.74,2.4a3.91,3.91,0,0,0,2.92,1.86c5.16,0,9.6-17.12,12.07-46.13C111.62,152.48,111.59,163.19,111.7,177.57Zm-31-14.77c0,1.92-.46,46.71,2.57,50.8,0,1.19.38,16.8,12,19.47a130.54,130.54,0,0,0-14.7,1.8,18,18,0,0,1-1.06-6.61V138.37a25.08,25.08,0,0,0,4.29-4C82,140.49,80.78,161.83,80.73,162.8Z"/><path class="cls-1" d="M82.07,103.42a.2.2,0,0,0-.13.2c.21,4.52,1.61,14.45,4.4,14.45h.09a.19.19,0,0,0,.18-.18,22,22,0,0,0-4.31-14.4.21.21,0,0,0-.16-.08Z"/><path class="cls-1" d="M131.47,77.37a49.78,49.78,0,0,0-6.34-.35,51.33,51.33,0,0,0-6.33.35.2.2,0,0,0-.18.2.19.19,0,0,0,.18.19,49.55,49.55,0,0,0,6.33.36h0a49.9,49.9,0,0,0,6.34-.36.19.19,0,0,0,.17-.19A.2.2,0,0,0,131.47,77.37Z"/><path class="cls-1" d="M131.47,157.64a57.51,57.51,0,0,0-12.67,0,.2.2,0,0,0,0,.4,51.43,51.43,0,0,0,6.33.35h0a51.69,51.69,0,0,0,6.34-.35.2.2,0,0,0,0-.4Z"/><path class="cls-1" d="M131.47,85.4a55.92,55.92,0,0,0-12.67,0,.19.19,0,0,0-.18.19.2.2,0,0,0,.18.2,51.43,51.43,0,0,0,6.33.35h0a49.78,49.78,0,0,0,6.34-.35.2.2,0,0,0,.17-.2A.19.19,0,0,0,131.47,85.4Z"/><path class="cls-1" d="M131.47,81.38a57.51,57.51,0,0,0-12.67,0,.2.2,0,0,0,0,.4,51.43,51.43,0,0,0,6.33.35h0a51.69,51.69,0,0,0,6.34-.35.2.2,0,0,0,0-.4Z"/><path class="cls-1" d="M131.47,79.38a55.92,55.92,0,0,0-12.67,0,.19.19,0,0,0-.18.19.2.2,0,0,0,.18.2,51.33,51.33,0,0,0,6.33.35h0a51.69,51.69,0,0,0,6.34-.35.2.2,0,0,0,.17-.2A.19.19,0,0,0,131.47,79.38Z"/><path class="cls-1" d="M131.47,83.39a57.51,57.51,0,0,0-12.67,0,.2.2,0,0,0-.18.2.19.19,0,0,0,.17.19,49.8,49.8,0,0,0,6.34.36h0a49.9,49.9,0,0,0,6.34-.36.19.19,0,0,0,.17-.19A.2.2,0,0,0,131.47,83.39Z"/><path class="cls-1" d="M131.47,143.6a56,56,0,0,0-12.68,0,.19.19,0,0,0-.17.19.2.2,0,0,0,.18.2,51.33,51.33,0,0,0,6.33.35h0a51.59,51.59,0,0,0,6.34-.35.2.2,0,0,0,.17-.2A.19.19,0,0,0,131.47,143.6Z"/><path class="cls-1" d="M131.47,141.59a49.68,49.68,0,0,0-6.34-.35,51.59,51.59,0,0,0-6.34.35.2.2,0,0,0-.17.2.19.19,0,0,0,.18.19,51.45,51.45,0,0,0,6.33.36h0a49.8,49.8,0,0,0,6.34-.36.19.19,0,0,0,.17-.19A.2.2,0,0,0,131.47,141.59Z"/><path class="cls-1" d="M131.47,139.58a57.6,57.6,0,0,0-12.68,0,.2.2,0,0,0-.17.2.21.21,0,0,0,.18.2,51.33,51.33,0,0,0,6.33.35h0a51.59,51.59,0,0,0,6.34-.35.2.2,0,0,0,0-.4Z"/><path class="cls-1" d="M131.47,145.6a57.51,57.51,0,0,0-12.67,0,.2.2,0,0,0,0,.4,51.33,51.33,0,0,0,6.33.35h0a51.59,51.59,0,0,0,6.34-.35.2.2,0,0,0,0-.4Z"/><path class="cls-1" d="M131.47,137.57a57.6,57.6,0,0,0-12.68,0,.21.21,0,0,0-.17.2.2.2,0,0,0,.18.2,51.33,51.33,0,0,0,6.33.35h0a51.59,51.59,0,0,0,6.34-.35.2.2,0,0,0,.17-.2A.2.2,0,0,0,131.47,137.57Z"/><path class="cls-1" d="M131.47,153.63a49.78,49.78,0,0,0-6.34-.35,51.33,51.33,0,0,0-6.33.35.2.2,0,0,0-.18.2.19.19,0,0,0,.18.19,49.55,49.55,0,0,0,6.33.36h0a49.9,49.9,0,0,0,6.34-.36.19.19,0,0,0,.17-.19A.2.2,0,0,0,131.47,153.63Z"/><path class="cls-1" d="M131.47,113.49a57.51,57.51,0,0,0-12.67,0,.2.2,0,0,0,0,.4,51.33,51.33,0,0,0,6.33.35h0a51.69,51.69,0,0,0,6.34-.35.2.2,0,0,0,0-.4Z"/><path class="cls-1" d="M131.47,155.64a55.92,55.92,0,0,0-12.67,0,.19.19,0,0,0-.18.19.2.2,0,0,0,.18.2,51.33,51.33,0,0,0,6.33.35h0a49.78,49.78,0,0,0,6.34-.35.2.2,0,0,0,.17-.2A.19.19,0,0,0,131.47,155.64Z"/><path class="cls-1" d="M131.47,151.62a57.51,57.51,0,0,0-12.67,0,.2.2,0,0,0,0,.4,51.33,51.33,0,0,0,6.33.35h0a51.69,51.69,0,0,0,6.34-.35.2.2,0,0,0,0-.4Z"/><path class="cls-1" d="M131.47,147.61a49.78,49.78,0,0,0-6.34-.35,51.33,51.33,0,0,0-6.33.35.2.2,0,0,0-.18.2.19.19,0,0,0,.18.19,49.55,49.55,0,0,0,6.33.36h0a49.8,49.8,0,0,0,6.34-.36.19.19,0,0,0,.17-.19A.2.2,0,0,0,131.47,147.61Z"/><path class="cls-1" d="M131.47,149.62a55.92,55.92,0,0,0-12.67,0,.19.19,0,0,0-.18.19.2.2,0,0,0,.18.2,51.33,51.33,0,0,0,6.33.35h0a49.78,49.78,0,0,0,6.34-.35.2.2,0,0,0,.17-.2A.19.19,0,0,0,131.47,149.62Z"/><path class="cls-1" d="M131.47,133.56a57.51,57.51,0,0,0-12.67,0,.2.2,0,0,0-.18.2.21.21,0,0,0,.17.2,51.59,51.59,0,0,0,6.34.35h0a51.59,51.59,0,0,0,6.34-.35.2.2,0,0,0,.17-.2A.2.2,0,0,0,131.47,133.56Z"/><path class="cls-1" d="M131.47,131.55a57.6,57.6,0,0,0-12.68,0,.21.21,0,0,0-.17.2.2.2,0,0,0,.18.2,51.33,51.33,0,0,0,6.33.35h0a51.59,51.59,0,0,0,6.34-.35.2.2,0,0,0,.17-.2A.2.2,0,0,0,131.47,131.55Z"/><path class="cls-1" d="M131.47,123.53a49.8,49.8,0,0,0-6.34-.36,51.45,51.45,0,0,0-6.33.36.19.19,0,0,0-.18.19.2.2,0,0,0,.18.2,51.43,51.43,0,0,0,6.33.35h0a49.78,49.78,0,0,0,6.34-.35.2.2,0,0,0,.17-.2A.19.19,0,0,0,131.47,123.53Z"/><path class="cls-1" d="M131.47,127.54a57.51,57.51,0,0,0-12.67,0,.2.2,0,0,0-.18.2.19.19,0,0,0,.17.19,49.8,49.8,0,0,0,6.34.36h0a49.8,49.8,0,0,0,6.34-.36.19.19,0,0,0,.17-.19A.2.2,0,0,0,131.47,127.54Z"/><path class="cls-1" d="M131.47,125.53a57.51,57.51,0,0,0-12.67,0,.21.21,0,0,0-.18.2.2.2,0,0,0,.17.2,51.59,51.59,0,0,0,6.34.35h0a51.69,51.69,0,0,0,6.34-.35.2.2,0,0,0,0-.4Z"/><path class="cls-1" d="M131.47,121.52a57.51,57.51,0,0,0-12.67,0,.2.2,0,0,0-.18.2.19.19,0,0,0,.17.19,49.8,49.8,0,0,0,6.34.36h0a49.9,49.9,0,0,0,6.34-.36.19.19,0,0,0,.17-.19A.2.2,0,0,0,131.47,121.52Z"/><path class="cls-1" d="M131.47,129.55a47.92,47.92,0,0,0-6.34-.35,51.33,51.33,0,0,0-6.33.35.19.19,0,0,0-.18.19.2.2,0,0,0,.17.2,51.59,51.59,0,0,0,6.34.35h0a48,48,0,0,0,6.34-.35.2.2,0,0,0,.17-.2A.19.19,0,0,0,131.47,129.55Z"/><path class="cls-1" d="M131.47,115.5a49.78,49.78,0,0,0-6.34-.35,51.33,51.33,0,0,0-6.33.35.2.2,0,0,0-.18.2.19.19,0,0,0,.18.19,49.55,49.55,0,0,0,6.33.36h0a49.9,49.9,0,0,0,6.34-.36.19.19,0,0,0,.17-.19A.2.2,0,0,0,131.47,115.5Z"/><path class="cls-1" d="M131.47,117.51a55.92,55.92,0,0,0-12.67,0,.19.19,0,0,0-.18.19.2.2,0,0,0,.18.2,51.33,51.33,0,0,0,6.33.35h0a49.78,49.78,0,0,0,6.34-.35.2.2,0,0,0,.17-.2A.19.19,0,0,0,131.47,117.51Z"/><path class="cls-1" d="M131.47,119.51a57.51,57.51,0,0,0-12.67,0,.2.2,0,0,0,0,.4,51.43,51.43,0,0,0,6.33.35h0a51.69,51.69,0,0,0,6.34-.35.2.2,0,0,0,0-.4Z"/><path class="cls-1" d="M131.47,135.57a47.92,47.92,0,0,0-6.34-.35,51.59,51.59,0,0,0-6.34.35.2.2,0,0,0,0,.39,51.33,51.33,0,0,0,6.33.35h0a47.92,47.92,0,0,0,6.34-.35.19.19,0,0,0,.17-.19A.2.2,0,0,0,131.47,135.57Z"/><path class="cls-2" d="M81.16,31.91a36.4,36.4,0,0,0-.55,4.38c-.11,1.46-.14,2.92-.15,4.38s0,2.92.15,4.39a34.49,34.49,0,0,0,.55,4.38,36.4,36.4,0,0,0,.55-4.38c.11-1.47.14-2.93.15-4.39s0-2.92-.16-4.38A34.46,34.46,0,0,0,81.16,31.91Z"/><path class="cls-2" d="M82.11,40.67c0,1.46,0,2.92.15,4.39a36.4,36.4,0,0,0,.55,4.38,36.4,36.4,0,0,0,.55-4.38c.11-1.47.14-2.93.15-4.39s0-2.92-.15-4.38a36.4,36.4,0,0,0-.55-4.38,36.4,36.4,0,0,0-.55,4.38C82.15,37.75,82.12,39.21,82.11,40.67Z"/><path class="cls-2" d="M84.46,49.44A34.49,34.49,0,0,0,85,45.06c.11-1.47.14-2.93.15-4.39s0-2.92-.15-4.38a36.4,36.4,0,0,0-.55-4.38,34.46,34.46,0,0,0-.54,4.38c-.12,1.46-.14,2.92-.16,4.38s0,2.92.15,4.39A36.4,36.4,0,0,0,84.46,49.44Z"/><path class="cls-2" d="M86.11,49.44a32.77,32.77,0,0,0,.55-4.38c.11-1.47.14-2.93.15-4.39s0-2.92-.15-4.38a34.49,34.49,0,0,0-.55-4.38,34.46,34.46,0,0,0-.54,4.38c-.11,1.46-.14,2.92-.16,4.38s0,2.92.16,4.39A34.46,34.46,0,0,0,86.11,49.44Z"/><path class="cls-2" d="M87.77,49.44a34.46,34.46,0,0,0,.54-4.38c.11-1.47.14-2.93.16-4.39s0-2.92-.16-4.38a34.46,34.46,0,0,0-.54-4.38,34.49,34.49,0,0,0-.55,4.38c-.11,1.46-.14,2.92-.15,4.38s0,2.92.15,4.39A32.77,32.77,0,0,0,87.77,49.44Z"/><path class="cls-2" d="M89.42,49.44A36.4,36.4,0,0,0,90,45.06c.11-1.47.14-2.93.15-4.39s-.05-2.92-.16-4.38a34.46,34.46,0,0,0-.54-4.38,36.4,36.4,0,0,0-.55,4.38c-.11,1.46-.14,2.92-.15,4.38s0,2.92.15,4.39A34.49,34.49,0,0,0,89.42,49.44Z"/><path class="cls-2" d="M91.07,49.44a36.4,36.4,0,0,0,.55-4.38c.11-1.47.14-2.93.15-4.39s0-2.92-.16-4.38a34.46,34.46,0,0,0-.54-4.38,36.4,36.4,0,0,0-.55,4.38c-.11,1.46-.14,2.92-.15,4.38s0,2.92.15,4.39A36.4,36.4,0,0,0,91.07,49.44Z"/><path class="cls-2" d="M92.72,49.44a34.49,34.49,0,0,0,.55-4.38c.11-1.47.14-2.93.15-4.39s0-2.92-.15-4.38a36.4,36.4,0,0,0-.55-4.38,34.46,34.46,0,0,0-.54,4.38c-.12,1.46-.15,2.92-.16,4.38s0,2.92.15,4.39A36.4,36.4,0,0,0,92.72,49.44Z"/><path class="cls-2" d="M94.37,49.44a32.77,32.77,0,0,0,.55-4.38c.11-1.47.14-2.93.15-4.39s0-2.92-.15-4.38a34.49,34.49,0,0,0-.55-4.38,34.46,34.46,0,0,0-.54,4.38c-.11,1.46-.14,2.92-.16,4.38s0,2.92.16,4.39A34.46,34.46,0,0,0,94.37,49.44Z"/><path class="cls-2" d="M96,49.44a34.46,34.46,0,0,0,.54-4.38c.11-1.47.14-2.93.16-4.39s0-2.92-.16-4.38A34.46,34.46,0,0,0,96,31.91a34.49,34.49,0,0,0-.55,4.38c-.11,1.46-.14,2.92-.16,4.38s.05,2.92.16,4.39A32.77,32.77,0,0,0,96,49.44Z"/><path class="cls-2" d="M97.68,49.44a34.46,34.46,0,0,0,.54-4.38c.12-1.47.15-2.93.16-4.39s0-2.92-.16-4.38a34.46,34.46,0,0,0-.54-4.38,36.4,36.4,0,0,0-.55,4.38C97,37.75,97,39.21,97,40.67s0,2.92.15,4.39A34.49,34.49,0,0,0,97.68,49.44Z"/><path class="cls-2" d="M99.33,49.44a36.4,36.4,0,0,0,.55-4.38c.11-1.47.14-2.93.15-4.39s0-2.92-.16-4.38a34.46,34.46,0,0,0-.54-4.38,36.4,36.4,0,0,0-.55,4.38c-.11,1.46-.14,2.92-.15,4.38s0,2.92.15,4.39A36.4,36.4,0,0,0,99.33,49.44Z"/><path class="cls-2" d="M101,49.44a34.49,34.49,0,0,0,.55-4.38c.11-1.47.14-2.93.15-4.39s0-2.92-.15-4.38a36.4,36.4,0,0,0-.55-4.38,34.46,34.46,0,0,0-.54,4.38c-.12,1.46-.15,2.92-.16,4.38s0,2.92.15,4.39A36.4,36.4,0,0,0,101,49.44Z"/><path class="cls-2" d="M102.63,49.44a32.77,32.77,0,0,0,.55-4.38c.11-1.47.14-2.93.15-4.39s0-2.92-.15-4.38a34.49,34.49,0,0,0-.55-4.38,34.46,34.46,0,0,0-.54,4.38c-.11,1.46-.14,2.92-.16,4.38s0,2.92.16,4.39A34.46,34.46,0,0,0,102.63,49.44Z"/><path class="cls-2" d="M104.29,49.44a34.46,34.46,0,0,0,.54-4.38c.11-1.47.14-2.93.16-4.39s0-2.92-.16-4.38a34.46,34.46,0,0,0-.54-4.38,34.49,34.49,0,0,0-.55,4.38c-.11,1.46-.14,2.92-.16,4.38s0,2.92.16,4.39A32.77,32.77,0,0,0,104.29,49.44Z"/><path class="cls-2" d="M105.94,49.44a34.46,34.46,0,0,0,.54-4.38c.12-1.47.15-2.93.16-4.39s0-2.92-.16-4.38a34.46,34.46,0,0,0-.54-4.38,36.4,36.4,0,0,0-.55,4.38c-.11,1.46-.14,2.92-.15,4.38s0,2.92.15,4.39A34.49,34.49,0,0,0,105.94,49.44Z"/><path class="cls-2" d="M107.59,49.44a36.4,36.4,0,0,0,.55-4.38c.11-1.47.14-2.93.15-4.39s0-2.92-.16-4.38a34.46,34.46,0,0,0-.54-4.38,36.4,36.4,0,0,0-.55,4.38c-.11,1.46-.14,2.92-.15,4.38s0,2.92.15,4.39A36.4,36.4,0,0,0,107.59,49.44Z"/><path class="cls-2" d="M109.24,49.44a34.49,34.49,0,0,0,.55-4.38c.11-1.47.14-2.93.15-4.39s0-2.92-.15-4.38a36.4,36.4,0,0,0-.55-4.38,34.46,34.46,0,0,0-.54,4.38c-.12,1.46-.15,2.92-.16,4.38s0,2.92.15,4.39A36.4,36.4,0,0,0,109.24,49.44Z"/><path class="cls-2" d="M110.89,49.44a32.77,32.77,0,0,0,.55-4.38c.11-1.47.14-2.93.15-4.39s0-2.92-.15-4.38a34.49,34.49,0,0,0-.55-4.38,34.46,34.46,0,0,0-.54,4.38c-.11,1.46-.14,2.92-.16,4.38s0,2.92.16,4.39A34.46,34.46,0,0,0,110.89,49.44Z"/><path class="cls-2" d="M112.55,49.44a34.46,34.46,0,0,0,.54-4.38c.11-1.47.14-2.93.16-4.39s0-2.92-.16-4.38a34.46,34.46,0,0,0-.54-4.38,34.49,34.49,0,0,0-.55,4.38c-.11,1.46-.14,2.92-.16,4.38s0,2.92.16,4.39A32.77,32.77,0,0,0,112.55,49.44Z"/><path class="cls-2" d="M114.2,49.44a34.46,34.46,0,0,0,.54-4.38c.12-1.47.15-2.93.16-4.39s-.05-2.92-.16-4.38a34.46,34.46,0,0,0-.54-4.38,36.4,36.4,0,0,0-.55,4.38c-.11,1.46-.14,2.92-.15,4.38s0,2.92.15,4.39A34.49,34.49,0,0,0,114.2,49.44Z"/><path class="cls-2" d="M115.85,49.44a36.4,36.4,0,0,0,.55-4.38c.11-1.47.14-2.93.15-4.39s0-2.92-.16-4.38a34.46,34.46,0,0,0-.54-4.38,36.4,36.4,0,0,0-.55,4.38c-.11,1.46-.14,2.92-.15,4.38s0,2.92.15,4.39A34.49,34.49,0,0,0,115.85,49.44Z"/><path class="cls-2" d="M117.5,49.44a34.49,34.49,0,0,0,.55-4.38c.11-1.47.14-2.93.15-4.39s0-2.92-.15-4.38a36.4,36.4,0,0,0-.55-4.38,34.46,34.46,0,0,0-.54,4.38c-.12,1.46-.15,2.92-.16,4.38s0,2.92.15,4.39A36.4,36.4,0,0,0,117.5,49.44Z"/><path class="cls-2" d="M119.15,49.44a32.77,32.77,0,0,0,.55-4.38c.11-1.47.14-2.93.15-4.39s0-2.92-.15-4.38a34.49,34.49,0,0,0-.55-4.38,34.46,34.46,0,0,0-.54,4.38c-.11,1.46-.14,2.92-.16,4.38s0,2.92.16,4.39A34.46,34.46,0,0,0,119.15,49.44Z"/><path class="cls-2" d="M120.81,49.44a34.46,34.46,0,0,0,.54-4.38c.11-1.47.14-2.93.16-4.39s-.05-2.92-.16-4.38a34.46,34.46,0,0,0-.54-4.38,34.49,34.49,0,0,0-.55,4.38c-.11,1.46-.14,2.92-.16,4.38s.05,2.92.16,4.39A32.77,32.77,0,0,0,120.81,49.44Z"/><path class="cls-2" d="M122.46,49.44a34.46,34.46,0,0,0,.54-4.38c.12-1.47.15-2.93.16-4.39s0-2.92-.16-4.38a34.46,34.46,0,0,0-.54-4.38,36.4,36.4,0,0,0-.55,4.38c-.11,1.46-.14,2.92-.15,4.38s0,2.92.15,4.39A34.49,34.49,0,0,0,122.46,49.44Z"/><path class="cls-2" d="M124.11,49.44a36.4,36.4,0,0,0,.55-4.38c.11-1.47.14-2.93.15-4.39s0-2.92-.16-4.38a34.46,34.46,0,0,0-.54-4.38,36.4,36.4,0,0,0-.55,4.38c-.11,1.46-.14,2.92-.15,4.38s0,2.92.15,4.39A34.49,34.49,0,0,0,124.11,49.44Z"/><path class="cls-2" d="M125.76,49.44a34.49,34.49,0,0,0,.55-4.38c.11-1.47.14-2.93.15-4.39s0-2.92-.15-4.38a36.4,36.4,0,0,0-.55-4.38,34.46,34.46,0,0,0-.54,4.38c-.12,1.46-.15,2.92-.16,4.38s0,2.92.15,4.39A36.4,36.4,0,0,0,125.76,49.44Z"/><path class="cls-2" d="M127.41,49.44a32.77,32.77,0,0,0,.55-4.38c.11-1.47.14-2.93.15-4.39s0-2.92-.15-4.38a34.49,34.49,0,0,0-.55-4.38,34.46,34.46,0,0,0-.54,4.38c-.11,1.46-.14,2.92-.16,4.38s0,2.92.16,4.39A34.46,34.46,0,0,0,127.41,49.44Z"/><path class="cls-2" d="M129.07,49.44a34.46,34.46,0,0,0,.54-4.38c.11-1.47.14-2.93.16-4.39s-.05-2.92-.16-4.38a34.46,34.46,0,0,0-.54-4.38,32.77,32.77,0,0,0-.55,4.38c-.11,1.46-.14,2.92-.16,4.38s0,2.92.16,4.39A32.77,32.77,0,0,0,129.07,49.44Z"/><path class="cls-2" d="M130.72,49.44a34.46,34.46,0,0,0,.54-4.38c.12-1.47.15-2.93.16-4.39s0-2.92-.16-4.38a34.46,34.46,0,0,0-.54-4.38,36.4,36.4,0,0,0-.55,4.38c-.11,1.46-.14,2.92-.15,4.38s0,2.92.15,4.39A34.49,34.49,0,0,0,130.72,49.44Z"/><path class="cls-2" d="M132.37,49.44a36.4,36.4,0,0,0,.55-4.38c.11-1.47.14-2.93.15-4.39s0-2.92-.16-4.38a34.46,34.46,0,0,0-.54-4.38,36.4,36.4,0,0,0-.55,4.38c-.11,1.46-.14,2.92-.15,4.38s0,2.92.15,4.39A34.49,34.49,0,0,0,132.37,49.44Z"/><path class="cls-2" d="M134,49.44a34.49,34.49,0,0,0,.55-4.38c.11-1.47.14-2.93.15-4.39s0-2.92-.15-4.38a36.4,36.4,0,0,0-.55-4.38,34.46,34.46,0,0,0-.54,4.38c-.12,1.46-.15,2.92-.16,4.38s0,2.92.15,4.39A36.4,36.4,0,0,0,134,49.44Z"/><path class="cls-2" d="M135.67,49.44a32.77,32.77,0,0,0,.55-4.38c.11-1.47.14-2.93.15-4.39s0-2.92-.15-4.38a34.49,34.49,0,0,0-.55-4.38,34.46,34.46,0,0,0-.54,4.38c-.11,1.46-.14,2.92-.16,4.38s0,2.92.16,4.39A34.46,34.46,0,0,0,135.67,49.44Z"/><path class="cls-2" d="M137.33,49.44a34.46,34.46,0,0,0,.54-4.38c.11-1.47.14-2.93.16-4.39s-.05-2.92-.16-4.38a34.46,34.46,0,0,0-.54-4.38,32.77,32.77,0,0,0-.55,4.38c-.11,1.46-.14,2.92-.16,4.38s0,2.92.16,4.39A32.77,32.77,0,0,0,137.33,49.44Z"/><path class="cls-2" d="M139,49.44a34.46,34.46,0,0,0,.54-4.38c.12-1.47.15-2.93.16-4.39s-.05-2.92-.16-4.38a34.46,34.46,0,0,0-.54-4.38,34.49,34.49,0,0,0-.55,4.38c-.11,1.46-.14,2.92-.15,4.38s0,2.92.15,4.39A34.49,34.49,0,0,0,139,49.44Z"/><path class="cls-2" d="M140.63,49.44a36.4,36.4,0,0,0,.55-4.38c.11-1.47.14-2.93.15-4.39s0-2.92-.16-4.38a34.46,34.46,0,0,0-.54-4.38,36.4,36.4,0,0,0-.55,4.38c-.11,1.46-.14,2.92-.15,4.38s0,2.92.15,4.39A34.49,34.49,0,0,0,140.63,49.44Z"/><path class="cls-2" d="M142.28,49.44a34.49,34.49,0,0,0,.55-4.38c.11-1.47.14-2.93.15-4.39s0-2.92-.15-4.38a36.4,36.4,0,0,0-.55-4.38,34.46,34.46,0,0,0-.54,4.38c-.12,1.46-.15,2.92-.16,4.38s0,2.92.15,4.39A36.4,36.4,0,0,0,142.28,49.44Z"/><path class="cls-2" d="M143.93,49.44a34.49,34.49,0,0,0,.55-4.38c.11-1.47.14-2.93.15-4.39s0-2.92-.15-4.38a36.4,36.4,0,0,0-.55-4.38,34.46,34.46,0,0,0-.54,4.38c-.11,1.46-.14,2.92-.16,4.38s0,2.92.16,4.39A34.46,34.46,0,0,0,143.93,49.44Z"/><path class="cls-2" d="M145.58,49.44a32.77,32.77,0,0,0,.55-4.38c.11-1.47.14-2.93.16-4.39s0-2.92-.16-4.38a32.77,32.77,0,0,0-.55-4.38,34.46,34.46,0,0,0-.54,4.38c-.11,1.46-.14,2.92-.16,4.38s.05,2.92.16,4.39A34.46,34.46,0,0,0,145.58,49.44Z"/><path class="cls-2" d="M147.24,49.44a34.46,34.46,0,0,0,.54-4.38c.12-1.47.15-2.93.16-4.39s-.05-2.92-.16-4.38a34.46,34.46,0,0,0-.54-4.38,34.49,34.49,0,0,0-.55,4.38c-.11,1.46-.14,2.92-.15,4.38s0,2.92.15,4.39A34.49,34.49,0,0,0,147.24,49.44Z"/><path class="cls-2" d="M148.89,49.44a36.4,36.4,0,0,0,.55-4.38c.11-1.47.14-2.93.15-4.39s0-2.92-.16-4.38a34.46,34.46,0,0,0-.54-4.38,36.4,36.4,0,0,0-.55,4.38c-.11,1.46-.14,2.92-.15,4.38s0,2.92.15,4.39A34.49,34.49,0,0,0,148.89,49.44Z"/><path class="cls-2" d="M150.54,49.44a34.49,34.49,0,0,0,.55-4.38c.11-1.47.14-2.93.15-4.39s0-2.92-.15-4.38a36.4,36.4,0,0,0-.55-4.38,34.46,34.46,0,0,0-.54,4.38c-.12,1.46-.15,2.92-.16,4.38s0,2.92.15,4.39A36.4,36.4,0,0,0,150.54,49.44Z"/><path class="cls-2" d="M152.19,49.44a34.49,34.49,0,0,0,.55-4.38c.11-1.47.14-2.93.15-4.39s0-2.92-.15-4.38a36.4,36.4,0,0,0-.55-4.38,34.46,34.46,0,0,0-.54,4.38c-.11,1.46-.14,2.92-.16,4.38s0,2.92.16,4.39A34.46,34.46,0,0,0,152.19,49.44Z"/><path class="cls-2" d="M153.84,49.44a32.77,32.77,0,0,0,.55-4.38c.11-1.47.14-2.93.16-4.39s-.05-2.92-.16-4.38a34.49,34.49,0,0,0-.55-4.38,34.46,34.46,0,0,0-.54,4.38c-.11,1.46-.14,2.92-.16,4.38s.05,2.92.16,4.39A34.46,34.46,0,0,0,153.84,49.44Z"/><path class="cls-2" d="M155.5,49.44a34.46,34.46,0,0,0,.54-4.38c.12-1.47.15-2.93.16-4.39s0-2.92-.16-4.38a34.46,34.46,0,0,0-.54-4.38,34.49,34.49,0,0,0-.55,4.38c-.11,1.46-.14,2.92-.15,4.38s0,2.92.15,4.39A32.77,32.77,0,0,0,155.5,49.44Z"/><path class="cls-2" d="M157.15,49.44a36.4,36.4,0,0,0,.55-4.38c.11-1.47.14-2.93.15-4.39s0-2.92-.16-4.38a34.46,34.46,0,0,0-.54-4.38,36.4,36.4,0,0,0-.55,4.38c-.11,1.46-.14,2.92-.15,4.38s0,2.92.15,4.39A34.49,34.49,0,0,0,157.15,49.44Z"/><path class="cls-2" d="M158.8,49.44a34.49,34.49,0,0,0,.55-4.38c.11-1.47.14-2.93.15-4.39s0-2.92-.15-4.38a36.4,36.4,0,0,0-.55-4.38,34.46,34.46,0,0,0-.54,4.38c-.12,1.46-.15,2.92-.16,4.38s0,2.92.15,4.39A36.4,36.4,0,0,0,158.8,49.44Z"/><path class="cls-2" d="M160.45,49.44a34.49,34.49,0,0,0,.55-4.38c.11-1.47.14-2.93.15-4.39s0-2.92-.15-4.38a36.4,36.4,0,0,0-.55-4.38,34.46,34.46,0,0,0-.54,4.38c-.11,1.46-.14,2.92-.16,4.38s0,2.92.16,4.39A34.46,34.46,0,0,0,160.45,49.44Z"/><path class="cls-2" d="M162.1,49.44a32.77,32.77,0,0,0,.55-4.38c.11-1.47.14-2.93.16-4.39s-.05-2.92-.16-4.38a34.49,34.49,0,0,0-.55-4.38,34.46,34.46,0,0,0-.54,4.38c-.11,1.46-.14,2.92-.16,4.38s0,2.92.16,4.39A34.46,34.46,0,0,0,162.1,49.44Z"/><path class="cls-2" d="M163.76,49.44a34.46,34.46,0,0,0,.54-4.38c.12-1.47.15-2.93.16-4.39s-.05-2.92-.16-4.38a34.46,34.46,0,0,0-.54-4.38,34.49,34.49,0,0,0-.55,4.38c-.11,1.46-.14,2.92-.15,4.38s0,2.92.15,4.39A32.77,32.77,0,0,0,163.76,49.44Z"/><path class="cls-2" d="M165.41,49.44a36.4,36.4,0,0,0,.55-4.38c.11-1.47.14-2.93.15-4.39s0-2.92-.16-4.38a34.46,34.46,0,0,0-.54-4.38,36.4,36.4,0,0,0-.55,4.38c-.11,1.46-.14,2.92-.15,4.38s0,2.92.15,4.39A34.49,34.49,0,0,0,165.41,49.44Z"/><path class="cls-2" d="M167.06,49.44a34.49,34.49,0,0,0,.55-4.38c.11-1.47.14-2.93.15-4.39s0-2.92-.15-4.38a36.4,36.4,0,0,0-.55-4.38,34.46,34.46,0,0,0-.54,4.38c-.12,1.46-.15,2.92-.16,4.38s0,2.92.15,4.39A36.4,36.4,0,0,0,167.06,49.44Z"/><path class="cls-2" d="M171.75,132.19c-.46-.26-.9-.55-1.33-.85V99.5c.64-.62,1.31-1.24,2-1.83A4.36,4.36,0,0,0,174,94.3V69a4.71,4.71,0,0,0-3.89-4.65c-1.4-.25-3.3-.54-5.82-.84V55.4h2.11a6.71,6.71,0,0,0,6.7-6.7V33.11a6.69,6.69,0,0,0-4.27-6.23V24a4.34,4.34,0,0,0-4.34-4.34H125.34l-.76-15.93A3.09,3.09,0,0,0,121.81.76,129.23,129.23,0,0,0,108,0,126.36,126.36,0,0,0,94,.76a3.08,3.08,0,0,0-2.76,3l-.76,15.93h0a4.32,4.32,0,0,0-2.92,1.13c-9.58,1.45-19-9.19-35.26-8.32C17.93,14.2,19.57,57.39,41,64.63c19.21,6.51,31.16-1.78,38.31-.32l-.37.07A4.72,4.72,0,0,0,75,69V94.3a4.37,4.37,0,0,0,1.61,3.37c.71.59,1.38,1.21,2,1.83v31.84c-.43.3-.87.59-1.33.85a5.43,5.43,0,0,0-2.65,4.68v96.29a11.6,11.6,0,0,0,8.23,11.14c15,4.62,30.43,5.63,40.49,5.69h2.32c10-.06,25.46-1.07,40.48-5.69a11.58,11.58,0,0,0,8.23-11.14V136.87A5.42,5.42,0,0,0,171.75,132.19Zm-77-128a124.51,124.51,0,0,1,26.37,0l.74,15.43h-.32l-1.81-14-.16,14h-.14l-1.67-14-.3,14h-.13l-1.53-14-.44,14h-.13l-1.4-14-.57,14h-.13l-1.26-14-.71,14H111l-1.12-14-.84,14h-.14l-1-14-1,14h-.14l-.85-14-1.12,14h-.13l-.71-14-1.26,14h-.14l-.57-14-1.39,14h-.14l-.43-14-1.54,14h-.13l-.3-14-1.67,14h-.13l-.16-14-1.81,14H94ZM89.63,25.35,155,24.66,89.63,24a.85.85,0,0,1,.84-.83h74.06a.85.85,0,0,1,.84.84v2.43H89.63Zm76.81,4.57a3.19,3.19,0,0,1,3.19,3.19V48.7a3.19,3.19,0,0,1-3.19,3.19H82.6a3.2,3.2,0,0,1-3.2-3.19V33.11a3.2,3.2,0,0,1,3.2-3.19Zm-15.3,31.26-9.13.1-18.28.08-18.28-.08c-6.09-.06-12.18-.13-18.27-.27,6.09-.15,12.18-.21,18.27-.27l18.28-.08,18.28.08,9.13.1,9.14.17Zm9.14,1.23-7.23.14q-3-.19-6.63-.36l4.72.05Zm-57.21-.24q-4,.18-7.4.4-4.24-.06-8.49-.16C92.47,62.29,97.77,62.22,103.07,62.17Zm48.07-2.39-9.13.1L123.73,60l-18.28-.09c-6.09,0-12.18-.12-18.27-.26,6.09-.15,12.18-.22,18.27-.27l18.28-.08,18.28.08,9.13.09,9.14.18Zm0-1.4-9.13.09-18.28.08-18.28-.08c-6.09,0-12.18-.12-18.27-.27,6.09-.14,12.18-.21,18.27-.26l18.28-.09,18.28.08,9.13.1,9.14.17Zm0-1.41-9.13.1-18.28.08-18.28-.08C99.36,57,93.27,57,87.18,56.8c6.09-.14,12.18-.21,18.27-.27l18.28-.08,18.28.08,9.13.1,9.14.17Zm0-1.4-9.13.1-18.28.08-18.28-.08c-6.09-.06-12.18-.13-18.27-.27,6.09-.15,12.18-.21,18.27-.27l18.28-.08,18.28.08,9.13.1,9.14.17ZM32.11,56a13.93,13.93,0,0,1-1.32-1.66,22.51,22.51,0,0,1-2.09-3.71,23,23,0,0,1-2-8.33,23.94,23.94,0,0,1,1-8.51A20.33,20.33,0,0,1,31.6,26.3c-.4,1.34-.77,2.65-1.06,4-.16.66-.28,1.32-.41,2l-.32,2a37.84,37.84,0,0,0-.35,7.87,34.26,34.26,0,0,0,1.31,7.74A36.08,36.08,0,0,0,32,53.66a19.37,19.37,0,0,0,.77,1.9c.26.63.52,1.27.76,1.94C33,57,32.57,56.49,32.11,56Zm3-7.46q-.26-1.09-.48-2.22c-.12-.74-.25-1.49-.35-2.24a36.46,36.46,0,0,1-.22-4.56,26.76,26.76,0,0,1,1.7-9,23.53,23.53,0,0,1,4.94-7.68,21.25,21.25,0,0,1,7.5-5.07,21.45,21.45,0,0,0-3.81,2.4,24.59,24.59,0,0,0-8,10.6,26.44,26.44,0,0,0-1.27,4.29,31.5,31.5,0,0,0-.55,4.44A43.83,43.83,0,0,0,35.11,48.5ZM64.56,62.76c-9,3.86-23.84,6.14-28.22-16.13s15.25-31.67,24-31.2c8.48.45,17.29,7.12,25.79,8.3a2,2,0,0,0,0,.25v2.43H82.6a6.71,6.71,0,0,0-6.7,6.7V48.7a6.71,6.71,0,0,0,6.7,6.7h2.11v6.13C80.06,63.49,72.86,59.21,64.56,62.76ZM78.5,94.3V69a1.21,1.21,0,0,1,1-1.2c4.31-.77,17.21-2.53,45-2.61,27.81.08,40.71,1.84,45,2.61a1.21,1.21,0,0,1,1,1.2V94.3a.92.92,0,0,1-.34.68c-6.51,5.4-10.38,12.27-11,19.31-3.52-.71-11.06-1.27-20.61-1.55q-.23-12.88-.72-25.79-.48,12.89-.71,25.75l-2.79-.06V74a50.93,50.93,0,0,0-16.83,0V112.6c-13.24.2-23.86.91-27.63,1.84-.6-7.09-4.49-14-11-19.46A.89.89,0,0,1,78.5,94.3Zm88.4,9.31c-.23,4.89-1.72,14.45-4.28,14.26A21.78,21.78,0,0,1,166.9,103.61ZM125.13,226.42a49.43,49.43,0,0,1-6.31-.35,57.06,57.06,0,0,1,12.62,0A49.33,49.33,0,0,1,125.13,226.42Zm6.31,1.66a57.06,57.06,0,0,1-12.62,0,57.06,57.06,0,0,1,12.62,0Zm-6.31-3.66a51.33,51.33,0,0,1-6.31-.35,57.06,57.06,0,0,1,12.62,0A51.22,51.22,0,0,1,125.13,224.42Zm0-2a49.43,49.43,0,0,1-6.31-.35,57.06,57.06,0,0,1,12.62,0A49.33,49.33,0,0,1,125.13,222.41Zm0-2a49.43,49.43,0,0,1-6.31-.35,57.06,57.06,0,0,1,12.62,0A49.33,49.33,0,0,1,125.13,220.4Zm0-2a51.33,51.33,0,0,1-6.31-.35,57.06,57.06,0,0,1,12.62,0A51.22,51.22,0,0,1,125.13,218.4Zm0-2a49.43,49.43,0,0,1-6.31-.35,57.06,57.06,0,0,1,12.62,0A49.33,49.33,0,0,1,125.13,216.39Zm0-2a49.43,49.43,0,0,1-6.31-.35,57.06,57.06,0,0,1,12.62,0A49.33,49.33,0,0,1,125.13,214.38Zm0-2a53.38,53.38,0,0,1-6.31-.35,57.06,57.06,0,0,1,12.62,0A51.22,51.22,0,0,1,125.13,212.38Zm0-2a51.33,51.33,0,0,1-6.31-.35,57.06,57.06,0,0,1,12.62,0A49.33,49.33,0,0,1,125.13,210.37Zm0-2a49.43,49.43,0,0,1-6.31-.35,51.33,51.33,0,0,1,6.31-.35,49.33,49.33,0,0,1,6.31.35A49.33,49.33,0,0,1,125.13,208.36Zm0-2a53.38,53.38,0,0,1-6.31-.35,51.34,51.34,0,0,1,6.31-.36,49.34,49.34,0,0,1,6.31.36A51.22,51.22,0,0,1,125.13,206.36Zm0-2a51.33,51.33,0,0,1-6.31-.35,57.06,57.06,0,0,1,12.62,0A49.33,49.33,0,0,1,125.13,204.35Zm0-2a49.43,49.43,0,0,1-6.31-.35,51.33,51.33,0,0,1,6.31-.35,49.33,49.33,0,0,1,6.31.35A49.33,49.33,0,0,1,125.13,202.34Zm0-2a51.34,51.34,0,0,1-6.31-.36,53.38,53.38,0,0,1,6.31-.35,51.22,51.22,0,0,1,6.31.35A49.34,49.34,0,0,1,125.13,200.34Zm0-2a51.33,51.33,0,0,1-6.31-.35,57.06,57.06,0,0,1,12.62,0A49.33,49.33,0,0,1,125.13,198.33Zm0-2a49.43,49.43,0,0,1-6.31-.35,51.33,51.33,0,0,1,6.31-.35,49.33,49.33,0,0,1,6.31.35A49.33,49.33,0,0,1,125.13,196.32Zm0-2a49.43,49.43,0,0,1-6.31-.35,57.06,57.06,0,0,1,12.62,0A49.33,49.33,0,0,1,125.13,194.31Zm0-2a51.33,51.33,0,0,1-6.31-.35,57.06,57.06,0,0,1,12.62,0A51.22,51.22,0,0,1,125.13,192.31Zm0-2a49.43,49.43,0,0,1-6.31-.35,57.06,57.06,0,0,1,12.62,0A49.33,49.33,0,0,1,125.13,190.3Zm0-2a49.43,49.43,0,0,1-6.31-.35,57.06,57.06,0,0,1,12.62,0A49.33,49.33,0,0,1,125.13,188.29Zm0-2a51.33,51.33,0,0,1-6.31-.35,57.06,57.06,0,0,1,12.62,0A51.22,51.22,0,0,1,125.13,186.29Zm0-2a49.43,49.43,0,0,1-6.31-.35,57.06,57.06,0,0,1,12.62,0A49.33,49.33,0,0,1,125.13,184.28Zm0-2a49.43,49.43,0,0,1-6.31-.35,57.06,57.06,0,0,1,12.62,0A49.33,49.33,0,0,1,125.13,182.27Zm0-2a51.33,51.33,0,0,1-6.31-.35,57.06,57.06,0,0,1,12.62,0A51.22,51.22,0,0,1,125.13,180.27Zm0-2a51.33,51.33,0,0,1-6.31-.35,57.06,57.06,0,0,1,12.62,0A49.33,49.33,0,0,1,125.13,178.26Zm0-2a49.43,49.43,0,0,1-6.31-.35,51.33,51.33,0,0,1,6.31-.35,49.33,49.33,0,0,1,6.31.35A49.33,49.33,0,0,1,125.13,176.25Zm0-2a53.38,53.38,0,0,1-6.31-.35,49.43,49.43,0,0,1,6.31-.35,47.58,47.58,0,0,1,6.31.35A51.22,51.22,0,0,1,125.13,174.25Zm0-2a51.33,51.33,0,0,1-6.31-.35,57.06,57.06,0,0,1,12.62,0A49.33,49.33,0,0,1,125.13,172.24Zm0-2a49.43,49.43,0,0,1-6.31-.35,51.33,51.33,0,0,1,6.31-.35,49.33,49.33,0,0,1,6.31.35A49.33,49.33,0,0,1,125.13,170.23Zm0-2a51.34,51.34,0,0,1-6.31-.36,53.38,53.38,0,0,1,6.31-.35,51.22,51.22,0,0,1,6.31.35A49.34,49.34,0,0,1,125.13,168.23Zm0-2a51.33,51.33,0,0,1-6.31-.35,57.06,57.06,0,0,1,12.62,0A49.33,49.33,0,0,1,125.13,166.22Zm0-2a49.43,49.43,0,0,1-6.31-.35,51.33,51.33,0,0,1,6.31-.35,49.33,49.33,0,0,1,6.31.35A49.33,49.33,0,0,1,125.13,164.21Zm0-2a49.43,49.43,0,0,1-6.31-.35,53.38,53.38,0,0,1,6.31-.35,51.22,51.22,0,0,1,6.31.35A49.33,49.33,0,0,1,125.13,162.2Zm0-2a51.33,51.33,0,0,1-6.31-.35,57.06,57.06,0,0,1,12.62,0A51.22,51.22,0,0,1,125.13,160.2Zm0-2a49.43,49.43,0,0,1-6.31-.35,57.06,57.06,0,0,1,12.62,0A49.33,49.33,0,0,1,125.13,158.19Zm0-2a49.43,49.43,0,0,1-6.31-.35,57.06,57.06,0,0,1,12.62,0A49.33,49.33,0,0,1,125.13,156.18Zm0-2a51.33,51.33,0,0,1-6.31-.35,57.06,57.06,0,0,1,12.62,0A51.22,51.22,0,0,1,125.13,154.18Zm0-2a49.43,49.43,0,0,1-6.31-.35,57.06,57.06,0,0,1,12.62,0A49.33,49.33,0,0,1,125.13,152.17Zm0-2a49.43,49.43,0,0,1-6.31-.35,57.06,57.06,0,0,1,12.62,0A49.33,49.33,0,0,1,125.13,150.16Zm0-2a51.33,51.33,0,0,1-6.31-.35,57.06,57.06,0,0,1,12.62,0A51.22,51.22,0,0,1,125.13,148.16Zm0-2a49.43,49.43,0,0,1-6.31-.35,57.06,57.06,0,0,1,12.62,0A49.33,49.33,0,0,1,125.13,146.15Zm0-2a49.43,49.43,0,0,1-6.31-.35,57.06,57.06,0,0,1,12.62,0A49.33,49.33,0,0,1,125.13,144.14Zm0-2a53.38,53.38,0,0,1-6.31-.35,57.06,57.06,0,0,1,12.62,0A51.22,51.22,0,0,1,125.13,142.14Zm0-2a51.33,51.33,0,0,1-6.31-.35,57.06,57.06,0,0,1,12.62,0A49.33,49.33,0,0,1,125.13,140.13Zm0-2a49.43,49.43,0,0,1-6.31-.35,51.33,51.33,0,0,1,6.31-.35,49.33,49.33,0,0,1,6.31.35A49.33,49.33,0,0,1,125.13,138.12Zm0-2a53.38,53.38,0,0,1-6.31-.35,51.34,51.34,0,0,1,6.31-.36,49.34,49.34,0,0,1,6.31.36A51.22,51.22,0,0,1,125.13,136.12Zm0-2a51.33,51.33,0,0,1-6.31-.35,57.06,57.06,0,0,1,12.62,0A49.33,49.33,0,0,1,125.13,134.11Zm0-2a49.43,49.43,0,0,1-6.31-.35,51.33,51.33,0,0,1,6.31-.35,49.33,49.33,0,0,1,6.31.35A49.33,49.33,0,0,1,125.13,132.1Zm0-2a51.34,51.34,0,0,1-6.31-.36,53.38,53.38,0,0,1,6.31-.35,51.22,51.22,0,0,1,6.31.35A49.34,49.34,0,0,1,125.13,130.1Zm0-2a51.33,51.33,0,0,1-6.31-.35,57.06,57.06,0,0,1,12.62,0A49.33,49.33,0,0,1,125.13,128.09Zm0-2a49.43,49.43,0,0,1-6.31-.35,51.33,51.33,0,0,1,6.31-.35,49.33,49.33,0,0,1,6.31.35A49.33,49.33,0,0,1,125.13,126.08Zm0-2a49.43,49.43,0,0,1-6.31-.35,53.38,53.38,0,0,1,6.31-.35,51.22,51.22,0,0,1,6.31.35A49.33,49.33,0,0,1,125.13,124.07Zm0-2a51.33,51.33,0,0,1-6.31-.35,57.06,57.06,0,0,1,12.62,0A51.22,51.22,0,0,1,125.13,122.07Zm0-2a49.43,49.43,0,0,1-6.31-.35,57.06,57.06,0,0,1,12.62,0A49.33,49.33,0,0,1,125.13,120.06Zm0-2a49.43,49.43,0,0,1-6.31-.35,57.06,57.06,0,0,1,12.62,0A49.33,49.33,0,0,1,125.13,118.05Zm0-2a51.33,51.33,0,0,1-6.31-.35,57.06,57.06,0,0,1,12.62,0A51.22,51.22,0,0,1,125.13,116.05Zm0-2a49.43,49.43,0,0,1-6.31-.35,57.06,57.06,0,0,1,12.62,0A49.33,49.33,0,0,1,125.13,114Zm0-2a49.43,49.43,0,0,1-6.31-.35,57.06,57.06,0,0,1,12.62,0A49.33,49.33,0,0,1,125.13,112Zm0-2a51.33,51.33,0,0,1-6.31-.35,57.06,57.06,0,0,1,12.62,0A51.22,51.22,0,0,1,125.13,110Zm0-2a49.43,49.43,0,0,1-6.31-.35,57.06,57.06,0,0,1,12.62,0A49.33,49.33,0,0,1,125.13,108Zm0-2a49.43,49.43,0,0,1-6.31-.35,57.06,57.06,0,0,1,12.62,0A49.33,49.33,0,0,1,125.13,106Zm0-2a53.38,53.38,0,0,1-6.31-.35,57.06,57.06,0,0,1,12.62,0A51.22,51.22,0,0,1,125.13,104Zm0-2a51.33,51.33,0,0,1-6.31-.35,57.06,57.06,0,0,1,12.62,0A49.33,49.33,0,0,1,125.13,102Zm0-2a49.43,49.43,0,0,1-6.31-.35,51.33,51.33,0,0,1,6.31-.35,49.33,49.33,0,0,1,6.31.35A49.33,49.33,0,0,1,125.13,100Zm0-2a53.38,53.38,0,0,1-6.31-.35,51.34,51.34,0,0,1,6.31-.36,49.34,49.34,0,0,1,6.31.36A51.22,51.22,0,0,1,125.13,98Zm0-2a51.33,51.33,0,0,1-6.31-.35,57.06,57.06,0,0,1,12.62,0A49.33,49.33,0,0,1,125.13,96Zm0-2a49.43,49.43,0,0,1-6.31-.35,51.33,51.33,0,0,1,6.31-.35,49.33,49.33,0,0,1,6.31.35A49.33,49.33,0,0,1,125.13,94Zm0-2a49.43,49.43,0,0,1-6.31-.35,53.38,53.38,0,0,1,6.31-.35,51.22,51.22,0,0,1,6.31.35A49.33,49.33,0,0,1,125.13,92Zm0-2a51.33,51.33,0,0,1-6.31-.35,57.06,57.06,0,0,1,12.62,0A51.22,51.22,0,0,1,125.13,90Zm0-2a49.43,49.43,0,0,1-6.31-.35,51.33,51.33,0,0,1,6.31-.35,49.33,49.33,0,0,1,6.31.35A49.33,49.33,0,0,1,125.13,88Zm0-2a49.43,49.43,0,0,1-6.31-.35,57.06,57.06,0,0,1,12.62,0A49.33,49.33,0,0,1,125.13,85.94Zm0-2a51.33,51.33,0,0,1-6.31-.35,57.06,57.06,0,0,1,12.62,0A51.22,51.22,0,0,1,125.13,83.94Zm0-2a49.43,49.43,0,0,1-6.31-.35,57.06,57.06,0,0,1,12.62,0A49.33,49.33,0,0,1,125.13,81.93Zm0-2a49.43,49.43,0,0,1-6.31-.35,57.06,57.06,0,0,1,12.62,0A49.33,49.33,0,0,1,125.13,79.92Zm0-2a51.33,51.33,0,0,1-6.31-.35,57.06,57.06,0,0,1,12.62,0A51.22,51.22,0,0,1,125.13,77.92Zm0-2a49.43,49.43,0,0,1-6.31-.35,57.06,57.06,0,0,1,12.62,0A49.33,49.33,0,0,1,125.13,75.91Zm-38.72,42c-2.55.19-4-9.37-4.27-14.26A21.77,21.77,0,0,1,86.41,117.87Zm57.86,128.4c-3.49.53-7,.88-10.53,1.18s-7.05.42-10.59.46A121.92,121.92,0,0,1,102,246.37c-7-1.19-13.92-3.08-20.08-6.54a79.9,79.9,0,0,0,20.32,4.92c3.46.41,6.94.72,10.43.87s7,.24,10.46.19,7-.14,10.48-.35,7-.49,10.46-.82a188.26,188.26,0,0,0,20.77-3.24A110.52,110.52,0,0,1,144.27,246.27Zm26.62-13.11a8.33,8.33,0,0,1-.38,2.46,126.85,126.85,0,0,0-20.75-.94c8.07,2.34-5.14,2.46-21.5,2.93s-18.7-4.33,13.44-3.86c0,0-12.24-.62-27-.37l-1-106.45-1,106.49c-11.45.26-24.14,1.07-33.77,3.08a8.17,8.17,0,0,1-.71-3.34V136.87a1.92,1.92,0,0,1,.9-1.65,21.53,21.53,0,0,0,10.86-17,22.26,22.26,0,0,0,0-2.31c3.84.92,14.4,1.62,27.55,1.82v112.6a40.22,40.22,0,0,0,16.83,0V117.72l2.71-.06,0,1.55c-.1,5.38-.12,10.75-.17,16.13l-.06,16.13.06,16.13c.06,5.37.08,10.75.17,16.13q.21,16.13.82,32.25.61-16.12.82-32.25c.1-5.38.12-10.76.18-16.13l0-16.13,0-16.13c-.06-5.38-.08-10.75-.18-16.13,0-.53,0-1.06,0-1.59,9.42-.28,16.88-.84,20.43-1.53,0,.72,0,1.44.06,2.16a21.54,21.54,0,0,0,10.85,17,1.91,1.91,0,0,1,.91,1.65Z"/><path class="cls-2" d="M83.5,213.53c-3.07-3.68-2.58-50.72-2.58-50.72s1.41-25,3.39-29.34a25.7,25.7,0,0,1-5,4.79v90a17.16,17.16,0,0,0,1.14,6.83A134.62,134.62,0,0,1,97,233.16C83.32,231.67,83.5,213.53,83.5,213.53Z"/><path class="cls-2" d="M168,139.72s-1.76,63.64-23.5,75.56c.18,12.1-3.33,17.36-3.33,17.36,14.9,0,27.88,1.05,27.88,1.05-.16-38.73-.9-84.71-1-92.74C168,140.15,168,139.72,168,139.72Z"/><path class="cls-2" d="M109.51,68.1c1.62,0,3.25-.09,4.88-.08l4.89-.06h4.88c1.63,0,3.26,0,4.89,0s3.25,0,4.88.06c3.26,0,6.52.13,9.78.17l19.58.55c-6.46-1.07-13-1.72-19.5-2.19-3.27-.24-6.54-.39-9.81-.52-1.63-.08-3.27-.09-4.9-.12s-3.28-.08-4.91-.07q-9.83,0-19.63.71a171.65,171.65,0,0,0-19.47,2.54c6.53-.36,13-.74,19.55-.91C106.25,68.14,107.88,68.15,109.51,68.1Z"/><path class="cls-2" d="M109.51,70.55c1.62,0,3.25-.08,4.88-.08l4.89-.06,4.88,0c1.63,0,3.26,0,4.89,0s3.25,0,4.88.06c3.26,0,6.52.12,9.78.17l19.58.54c-6.46-1.06-13-1.72-19.5-2.18-3.27-.24-6.54-.39-9.81-.52-1.63-.08-3.27-.1-4.9-.13s-3.28-.07-4.91-.06c-6.55,0-13.1.22-19.63.7a171.67,171.67,0,0,0-19.47,2.55c6.53-.36,13-.74,19.55-.92C106.25,70.59,107.88,70.61,109.51,70.55Z"/><path class="cls-2" d="M157.9,106.61l-.18.71-.13.72-.24,1.44c-.12,1-.16,1.94-.22,2.89l.4-1.38c.13-.47.23-.93.39-1.38l.46-1.35.23-.68.27-.65.54-1.31c.19-.43.41-.85.61-1.27.39-.85.89-1.64,1.35-2.45a27.31,27.31,0,0,1,3.42-4.35,22,22,0,0,1,2-1.86A15,15,0,0,1,169,94.21l.59-.32v-.62l-.06-5.66c0-1.88-.08-3.77-.17-5.65s-.19-3.77-.31-5.66-.28-3.76-.51-5.65c-.23,1.89-.37,3.77-.51,5.65s-.24,3.77-.3,5.66-.12,3.77-.18,5.65l-.05,5.06a18.19,18.19,0,0,0-2,1.43c-.37.33-.76.65-1.12,1a13.26,13.26,0,0,0-1,1.08,24,24,0,0,0-3.38,4.9A26.1,26.1,0,0,0,157.9,106.61Z"/><path class="cls-2" d="M82.75,95.69a20.9,20.9,0,0,1,2,1.86,27.26,27.26,0,0,1,3.41,4.35c.46.81,1,1.6,1.35,2.45.2.42.43.84.62,1.27l.53,1.31.28.65.22.68.46,1.35c.16.45.26.91.39,1.38l.41,1.38c-.06-1-.1-1.93-.23-2.89L92,108l-.13-.72-.18-.71a25.53,25.53,0,0,0-2-5.52,24.49,24.49,0,0,0-3.39-4.9,13.26,13.26,0,0,0-1-1.08c-.35-.36-.74-.68-1.12-1a19.08,19.08,0,0,0-2-1.43L82,87.61c0-1.88-.08-3.77-.17-5.65s-.19-3.77-.31-5.66-.28-3.76-.51-5.65c-.23,1.89-.37,3.77-.51,5.65s-.24,3.77-.31,5.66-.11,3.77-.17,5.65L80,93.27v.62l.59.32A15,15,0,0,1,82.75,95.69Z"/><path class="cls-2" d="M163,132a30.27,30.27,0,0,1-4.91-11.45c-.93,17.53-11.45,38.57-13.32,32.72-2.34,4.44-4.68-6.54-4.68-6.54v36.7C142.17,160.47,167.18,138.26,163,132Z"/><path class="cls-2" d="M96.82,190.56C91,183,85.42,194.42,86,202.31c-1.23,4.91-3.51-6.66-3.51-6.66C82.09,207,84.55,213,84.55,213c1,11.57,6,15.78,6,15.78-4.38-19.11-.35-36.29,4.73-27s16-18.58,16.66-24.19c-.18-23.32,0-36.81,0-36.81C108.92,181.8,102.6,198.1,96.82,190.56Z"/><path class="cls-2" d="M92.61,100.8c8.94-8.41,17.53-14.9,17.53-14.9-12.79,13.33-16.83,17.71-16.83,17.71A31.73,31.73,0,0,1,96.12,111,136.06,136.06,0,0,1,110,95.37l-6.66,10.87a98.24,98.24,0,0,1,12.44-12.8c0-9.47.18-15.78.18-15.78C102.43,87.31,92.61,100.8,92.61,100.8Z"/><ellipse class="cls-2" cx="50.81" cy="247.81" rx="40.41" ry="2.14"/><path class="cls-1" d="M53.78,152.89h0a.14.14,0,0,0,.13-.12A59.42,59.42,0,0,1,55.68,144c-.16,1.61-.38,4.37-.49,7.49a.14.14,0,0,0,.1.13h0a.11.11,0,0,0,.11-.06c1.76-2.92,3.44-5.5,5.13-7.89a85.49,85.49,0,0,1,9-10.66.2.2,0,0,0,0-.08,24.93,24.93,0,0,1,1.6-6.41c.38-1,.82-2,1.27-3-.39,1-.76,2-1.08,3.06A25.61,25.61,0,0,0,70.21,132a.12.12,0,0,0,.07.13h.06a.16.16,0,0,0,.09,0c.76-.74,1.54-1.48,2.33-2.19l2.73-2.44,1.14-1.07.4-.38a.16.16,0,0,0,0-.07,33.66,33.66,0,0,1,1.8-7A34.51,34.51,0,0,0,77.79,125a.14.14,0,0,0,.07.13h.06a.16.16,0,0,0,.09,0c.92-.89,1.84-1.78,2.75-2.68,2-2,4.15-4.14,6.41-6.46-2.15,2.42-4.17,4.66-6.1,6.76l-1.58,1.68-.16.18a.12.12,0,0,0,0,.16.14.14,0,0,0,.11.06h0l3.47-1.27-5,2.55-.08.09c-.6.62-1.2,1.25-1.81,1.87l-2.61,2.56c-.94.93-1.77,1.79-2.53,2.61a78.76,78.76,0,0,0-7.27,9.13.14.14,0,0,0,0,.15.14.14,0,0,0,.11.06h0c3-.72,6.08-1.49,9-2.29-3.22,1.08-6.5,2.11-9.81,3.08l-.08.05c-.28.44-.57.87-.85,1.3-.46.72-.91,1.46-1.35,2.18l-.06.1a.13.13,0,0,0,.11.2h0L68,144.82,60,148l-.06.06c-1.06,1.78-2.12,3.69-3.17,5.66a.16.16,0,0,0,0,.16.14.14,0,0,0,.09,0,.07.07,0,0,0,.06,0c1.62-1,4.79-2.9,10.82-6.84-1.49,1.26-4.17,3.44-8.16,6.4a.13.13,0,0,0,0,.17.12.12,0,0,0,.11.07h.05a45.12,45.12,0,0,0,7-4,86,86,0,0,0,15.72-14,46.46,46.46,0,0,1-5.27,8.13.14.14,0,0,0,0,.17.14.14,0,0,0,.1,0h.07c.09-.06,8.84-5.3,13.7-21.91a79.71,79.71,0,0,1-2.23,9.52.13.13,0,0,0,.08.15l.05,0a.15.15,0,0,0,.11-.07c.07-.11,6.86-11.15,4.13-21.94a.12.12,0,0,0-.12-.1h0a42.58,42.58,0,0,0-27.25,13.75,38.12,38.12,0,0,1,3.46-5.65.12.12,0,0,0,0-.17.11.11,0,0,0-.09,0,.13.13,0,0,0-.08,0,26,26,0,0,0-4.37,4.83,52.6,52.6,0,0,0-7.45,15.06,42.15,42.15,0,0,1,2-8.08.14.14,0,0,0-.07-.16h-.05a.14.14,0,0,0-.12.06,47.57,47.57,0,0,0-5.39,23.52A.13.13,0,0,0,53.78,152.89Zm31.57-21.08a.12.12,0,0,0-.16,0c-.07.06-6.85,5.63-19.26,8.81.65-.86,2.55-3.36,3.35-4.36l.09-.1a95.2,95.2,0,0,1,7.09-7.76,8.58,8.58,0,0,0,2.68.48h.46a43,43,0,0,1-5.47,6.38.12.12,0,0,0,0,.17.16.16,0,0,0,.11.05l.07,0a44.19,44.19,0,0,0,8-7.25,23.28,23.28,0,0,0,7.75-6,34.68,34.68,0,0,1-5.57,11.85c.27-.59.61-1.37.91-2.13A.11.11,0,0,0,85.35,131.81Zm7.28-13.29a35.11,35.11,0,0,0-9.49,2.8c1.57-1.66,6.89-7.32,9.18-10.47A21.07,21.07,0,0,1,92.63,118.52ZM68.06,131a.13.13,0,0,0,.11.14h0a.13.13,0,0,0,.13-.1,34.59,34.59,0,0,1,2.46-6.88,52.77,52.77,0,0,0-2,7.69c-.65.46-8.07,5.81-12.18,12.36a46.22,46.22,0,0,1,4.24-14l-2.42,8.63a.13.13,0,0,0,.09.16h0a.14.14,0,0,0,.13-.1,54.94,54.94,0,0,1,2.9-7.66c.3-.2,2.83-1.88,7.2-4.51C68.61,127.44,68.28,129.12,68.06,131Z"/><path class="cls-1" d="M44.81,132.22c.32.63.72,1.58,1.27,3a20.5,20.5,0,0,1,1.14,4.31,29.3,29.3,0,0,1,.29,5.16c0,.61,0,1.23,0,1.84,0,1.16,0,2.35.09,3.48a22.33,22.33,0,0,0,.78,4.67,12.67,12.67,0,0,0,1.36,3.09c.24.37.41.61.53.77l.2.26a.12.12,0,0,0,.1.05l.07,0a.14.14,0,0,0,0-.17l-.14-.29c-.08-.17-.19-.44-.35-.84a16.48,16.48,0,0,1-.81-3.08,28.9,28.9,0,0,1-.34-4.5c0-1.08,0-2.2,0-3.39,0-.62,0-1.25,0-1.88a32.37,32.37,0,0,0-.49-5.4A17.13,17.13,0,0,0,47,134.77a20.49,20.49,0,0,0-1.54-2.51l-.21-.31-.76-1a.16.16,0,0,0-.11,0l-.07,0a.14.14,0,0,0,0,.17S44.49,131.5,44.81,132.22Z"/><path class="cls-1" d="M81.83,220.77c.13-.32.26-.63.36-.93l.27-.86c.16-.54.29-1,.4-1.41l.27-1.23a.14.14,0,0,0-.08-.15h0a.11.11,0,0,0-.1.06l-.69,1.07c-.18.32-.42.69-.7,1.11l-.06.09-1,1.56c-.4.68-.91,1.39-1.45,2.15-.37.51-.75,1-1.12,1.6a50.93,50.93,0,0,1-3.19,4.09,48.29,48.29,0,0,1-3.4,3.89c-.46.46-.9.92-1.33,1.37-.65.69-1.27,1.34-1.88,1.88l-1.4,1.33c-.37.36-.68.68-1,.92l-.91.87a.12.12,0,0,0,0,.16.14.14,0,0,0,.11.06h.05l1.17-.51,1.3-.65.79-.43c.27-.16.55-.34.84-.53a31.28,31.28,0,0,0,3.81-2.84,52.36,52.36,0,0,0,3.82-3.9,52.16,52.16,0,0,0,3.1-4.48A31.77,31.77,0,0,0,81.83,220.77Z"/><path class="cls-1" d="M50.51,244.06h0a26.81,26.81,0,0,1-7.39,1,28.47,28.47,0,0,1-9.55-1.65,39,39,0,0,1-4-1.65c-.46-.21-.91-.46-1.35-.71l-.54-.3-.33-.18-.6-.34-.89-.59a32.42,32.42,0,0,1-6.43-5.61,46.63,46.63,0,0,1-5-7c-1.37-2.22-2.53-4.62-3.66-6.93l-.36-.73-.25-.54c-.52-1.12-1.05-2.27-1.54-3.43s-1-2.28-1.43-3.41l-.25-.6c-.37-.86-.72-1.74-1.07-2.59-.19-.48-.38-1-.58-1.44l-1.61-4a.14.14,0,0,0-.12-.09h0a.13.13,0,0,0-.08.16c.81,2.49,1.71,5.11,2.84,8.25.48,1.3,1,2.68,1.57,4.07.46,1.18,1,2.36,1.45,3.5l.23.54a58.49,58.49,0,0,0,9.05,15,33,33,0,0,0,14.69,9.52,30,30,0,0,0,4.29,1,27.19,27.19,0,0,0,4.4.38h.15a26,26,0,0,0,4.23-.36,23.94,23.94,0,0,0,4.25-1.11.13.13,0,0,0,.08-.16A.14.14,0,0,0,50.51,244.06Z"/><path class="cls-1" d="M83.35,170.65l.06-.19a2.67,2.67,0,0,0,.12-.68,1.31,1.31,0,0,1,0-.28,2.63,2.63,0,0,0-.09-.87c-.12-.4-.27-.8-.44-1.23s-.53-.68-.8-1a2.6,2.6,0,0,0-.7-.52l-.24-.15a2.06,2.06,0,0,0-.64-.25l-.21-.06-.37-.06a.09.09,0,0,0-.08,0,.12.12,0,0,0,0,.1l0,.37a1.59,1.59,0,0,1,0,.26,2.25,2.25,0,0,0,.09.55,3.29,3.29,0,0,1,.1.37,2.16,2.16,0,0,0,.19.61c.15.31.29.64.44,1s.42.58.61.86a2.22,2.22,0,0,0,.42.49,3.5,3.5,0,0,1,.27.28,2.07,2.07,0,0,0,.42.37l.22.17.29.2a.08.08,0,0,0,.07,0h0a.15.15,0,0,0,.08-.08Z"/><path class="cls-1" d="M86.2,198.69c-.07.76-.12,1.5-.17,2.22-.06,1-.12,2-.24,2.82-.07.63-.13,1.23-.18,1.77l0,.39c0,.55-.09,1-.15,1.43l-.13,1.38a.12.12,0,0,0,.09.14h0a.15.15,0,0,0,.12-.07l.56-1.28,0-.08c.15-.4.34-.87.54-1.41a18.29,18.29,0,0,0,.63-2,42.29,42.29,0,0,0,1.13-5.09c.25-1.91.42-3.91.52-6s-.14-4-.33-5.95a41.63,41.63,0,0,0-.94-5l0-.09a18.2,18.2,0,0,0-.58-2c-.17-.53-.34-1-.48-1.39l0-.12L86,177.11a.13.13,0,0,0-.12-.08h0a.12.12,0,0,0-.1.13l.08,1.4c.06.39.08.87.11,1.42l0,.35c0,.56.08,1.17.13,1.83.09.84.12,1.77.15,2.75,0,.74,0,1.5.1,2.29.09,1.85.1,3.79,0,5.75S86.35,196.84,86.2,198.69Z"/><path class="cls-1" d="M78.18,235.55H77.8a1.35,1.35,0,0,0-.37,0,1.15,1.15,0,0,1-.28.06,2,2,0,0,0-.62.19l-.88.5L75,237a2,2,0,0,0-.33.55,1.26,1.26,0,0,1-.13.26,1.63,1.63,0,0,0-.17.53c0,.07,0,.14,0,.22l0,.31a.1.1,0,0,0,0,.09.12.12,0,0,0,.09.05l.34,0h.37a1.43,1.43,0,0,0,.38,0l.28-.06a2,2,0,0,0,.62-.19l.88-.49.66-.71a1.91,1.91,0,0,0,.34-.56c0-.09.08-.18.12-.25a1.63,1.63,0,0,0,.17-.53c0-.07,0-.14,0-.22l0-.31a.12.12,0,0,0,0-.1.19.19,0,0,0-.09,0Z"/><path class="cls-1" d="M56.24,215.35a.12.12,0,0,0,0-.18.11.11,0,0,0-.08,0,.14.14,0,0,0-.1.05,41.7,41.7,0,0,1-16,11.45c-.34-.45-.57-.79-.67-1,19.78-9.21,21.55-22.82,20.92-29.88a34,34,0,0,1,.49,9.9.14.14,0,0,0,.1.15h0a.13.13,0,0,0,.13-.09c7-21.86.54-29.11-.4-30l.87-.87.42.67a22.14,22.14,0,0,1,1.56,3,28.24,28.24,0,0,1,1.91,6.62,49.73,49.73,0,0,1,.07,13.93.12.12,0,0,0,.11.14h0a.14.14,0,0,0,.13-.11,50.79,50.79,0,0,0,.61-14.1,29.87,29.87,0,0,0-1.65-7,25.22,25.22,0,0,0-1.5-3.29c-.17-.32-.38-.67-.63-1.07l.84-1a36.39,36.39,0,0,1,3.46,5.95,17.69,17.69,0,0,1,1.35,4.5c.07.44.12.89.17,1.34A13.51,13.51,0,0,0,69,188a.13.13,0,0,0,.12.09h0a.13.13,0,0,0,.08-.16,13,13,0,0,1-.43-3.37c0-.46,0-.92-.08-1.38a18.8,18.8,0,0,0-1.07-4.78,39.88,39.88,0,0,0-3.41-6.86,15.41,15.41,0,0,0,.89-1.39c.85,1.57,1.64,3.12,2.37,4.61.59,1.2,1.15,2.39,1.66,3.54L70,180a5.11,5.11,0,0,1,.48,1.83.12.12,0,0,0,.13.12h0a.14.14,0,0,0,.13-.13,5.53,5.53,0,0,0-.34-2L69.77,178c-.41-1.2-.87-2.44-1.35-3.7-.73-1.9-1.54-3.86-2.41-5.84.15-.33.28-.68.4-1,.67.88,1.21,1.64,1.69,2.38A19.57,19.57,0,0,1,70.86,176a.12.12,0,0,0,.12.1h0a.12.12,0,0,0,.1-.14,19.92,19.92,0,0,0-2.19-6.54c-.55-1.07-1.19-2.16-2.07-3.55a12,12,0,0,0,.16-1.29,22.11,22.11,0,0,1,4.13,5.27.12.12,0,0,0,.11.07h.06a.14.14,0,0,0,.06-.17,22.66,22.66,0,0,0-4.44-7,8.49,8.49,0,0,0-.33-1.41,22.59,22.59,0,0,1,5,3.56.09.09,0,0,0,.08,0,.12.12,0,0,0,.09,0,.14.14,0,0,0,0-.18,23.27,23.27,0,0,0-6.09-5.33,10.39,10.39,0,0,0-1.24-1.68l.08,0a15.27,15.27,0,0,1,3.24-.33,20.11,20.11,0,0,1,3.11.25,36.33,36.33,0,0,1,6.32,1.59,16.83,16.83,0,0,1,5.67,3.13.11.11,0,0,0,.08,0,.13.13,0,0,0,.09-.22,16.9,16.9,0,0,0-5.63-3.5,37.72,37.72,0,0,0-6.36-2,22,22,0,0,0-4.2-.45,16.39,16.39,0,0,0-2.56.2,15.4,15.4,0,0,0-1.65.37c-1.1,0-2.24.1-3.43.22a12,12,0,0,0-4.16,3.14,7.42,7.42,0,0,1-2.72,2.11,11.65,11.65,0,0,1-4.26.62,31.88,31.88,0,0,1-4.09-.29c1.15-.27,1.7-.6,1.71-1,0-1.15-4.33-2.26-4.84-2.38a32.38,32.38,0,0,0-7.07-.69,59.59,59.59,0,0,0-8.75.71,43.22,43.22,0,0,1,12.45-1.91,46.84,46.84,0,0,1,8.5.85l.56.1h0a.13.13,0,0,0,.13-.1.14.14,0,0,0-.1-.16,54,54,0,0,0-12.31-1.52c-9.29,0-17.11,3-22.59,8.63-8.36,8.61-10.83,22.66-6.61,37.6.26.67.54,1.36.83,2a85.34,85.34,0,0,0,12.25,24.14.12.12,0,0,0,.1.05l.08,0a.14.14,0,0,0,0-.18A84.64,84.64,0,0,1,10.79,214c.69,1.05,1.41,2.05,2.13,3a62,62,0,0,0,13.45,16.45l.09,0a.14.14,0,0,0,.1,0,.14.14,0,0,0,0-.18,61.22,61.22,0,0,1-9.38-11.7,27.65,27.65,0,0,0,4.9,3.5,80.61,80.61,0,0,0,7.73,6.92.11.11,0,0,0,.08,0,.13.13,0,0,0,.1,0,.14.14,0,0,0,0-.18c-1.62-1.63-3.23-3.39-4.77-5.25a22.68,22.68,0,0,0,2.8.87,54,54,0,0,0,7.31,4.7l.06,0a.13.13,0,0,0,.11-.06.14.14,0,0,0,0-.18,51.82,51.82,0,0,1-5-4,21.56,21.56,0,0,0,2.39.14,14.37,14.37,0,0,0,3.25-.32c7.34,6.16,13.25,6.64,14.89,6.64h.49a.13.13,0,0,0,.11-.12.12.12,0,0,0-.1-.14,21,21,0,0,1-6.88-3A24.49,24.49,0,0,0,47,228.7a.14.14,0,0,0,0-.17.12.12,0,0,0-.1,0h-.06a24.23,24.23,0,0,1-3.35,1.65l-.63-.51a16.81,16.81,0,0,0,2.28-1.54,15.55,15.55,0,0,0,1.36-1.18,8,8,0,0,1,2.41-1.77A.13.13,0,0,0,49,225a.13.13,0,0,0-.13-.09h0a6.89,6.89,0,0,0-2.22,1.1l-.27.19c-.58.4-1.13.79-1.73,1.13a16.78,16.78,0,0,1-2.84,1.33c-.28-.26-.54-.53-.78-.8A42.8,42.8,0,0,0,56.24,215.35ZM23.87,223.8l-.39-.16a7,7,0,0,1-.78-.33l-.11.07h0l.1-.08a.16.16,0,0,0-.1-.05l-.06,0c-.34-.16-.68-.35-1-.53l-.3-.17-.31-.2c-.31-.21-.64-.42-.94-.64s-.61-.49-.89-.73l-.23-.19a13.45,13.45,0,0,1-1.76-1.88,7.86,7.86,0,0,1-.58-.83l-.41-.67c0-.07-.07-.14-.11-.2l.18.12a5.81,5.81,0,0,0,.65.45l.82.57,1.28.87.75.51.26.17c.29.19.59.39.89.56s.59.38.88.55l.64.39c.29.17.59.36.9.52l1.19.68,3.09,1.65c.25.13.46.25.65.33l.19.1h-.23c-.22,0-.48,0-.78-.05a5.9,5.9,0,0,1-1-.13A13.19,13.19,0,0,1,23.87,223.8Zm3.66-7.75c.11.12.22.23.31.34-.33-.25-.74-.54-1.18-.91-.6-.49-1.28-1.09-2-1.79l-.33-.33c-.25-.24-.51-.49-.75-.76s-.54-.57-.8-.87l-.26-.28-.25-.3c-.26-.3-.52-.61-.76-.91l-.73-.94-.21-.27c-.6-.83-1.11-1.58-1.51-2.24-.31-.48-.55-.92-.75-1.28l.3.35.66.78L21.2,209l.76.89.76.87.52.6.78.87,1,1.12,1.81,2Zm-5.84-3c.36.43.69.82,1,1.16l.39.44-.45-.38c-.43-.37-.78-.69-1.13-1a32.16,32.16,0,0,1-2.59-2.82l-.36-.46c-.32-.41-.65-.82-.95-1.27s-.65-.93-.95-1.39l-.3-.47-.29-.48c-.28-.48-.57-1-.82-1.47s-.53-1-.77-1.52l-.2-.42a31,31,0,0,1-1.37-3.59c-.16-.45-.29-.92-.43-1.47-.05-.2-.1-.38-.14-.55.07.17.15.34.22.53.17.42.37.89.59,1.4.38.89.88,2,1.62,3.44l.22.42c.26.48.52,1,.8,1.46s.55,1,.83,1.42l.29.49.3.47c.29.46.59.93.91,1.37.41.61.83,1.19,1.23,1.76C20,211,20.89,212.16,21.69,213.09ZM10.83,201c-.28-.67-.52-1.39-.75-2.09-.08-.23-.16-.47-.23-.7s-.13-.48-.2-.72c-.19-.71-.38-1.44-.52-2.16s-.28-1.49-.38-2.21l-.09-.62a32.56,32.56,0,0,1-.22-5.07v-.29c0-.27,0-.53,0-.77l.1-1c0-.28.05-.53.08-.76v1.72l.05,1.05a43.22,43.22,0,0,0,.49,5l.11.61c.12.71.25,1.44.43,2.15s.34,1.42.53,2.11c.07.24.14.48.2.72s.16.48.23.71c.22.69.44,1.39.71,2.05s.59,1.5.9,2.21l.17.41a46.78,46.78,0,0,0,2.34,4.45l.55.9.52.8.42.65-.49-.6-.6-.74c-.16-.21-.31-.43-.47-.65l-.16-.22a32.73,32.73,0,0,1-2.6-4.35l-.3-.65C11.39,202.37,11.08,201.71,10.83,201Zm1.68-34.09.17-.16a1,1,0,0,1-.09.21c-.1.21-.21.47-.33.77s-.25.6-.4.94l-1,2.34c-.1.2-.19.41-.28.63s-.2.46-.31.68c-.18.37-.34.75-.5,1.12l-.1.24c-.08.16-.15.32-.22.48s-.27.59-.39.87l0,.12c-.18.39-.37.81-.53,1.2l-.54,1.24-.51,1.12c-.15.35-.31.67-.45.94l-.11.24c-.09.18-.17.35-.23.49s-.07.14-.1.21v-.23l0-.82c0-.25.05-.63.1-1.06s.12-.8.21-1.23.18-.84.33-1.35.27-.87.42-1.33l0-.09c.11-.32.24-.63.37-.94s.14-.33.2-.49l.11-.23c.19-.39.38-.78.58-1.16s.4-.73.61-1.07l.14-.22a15.66,15.66,0,0,1,1.57-2.13,11.63,11.63,0,0,1,1.08-1.11ZM4.84,191.67l0-.43c0-.42-.06-.84-.07-1.26s0-1.11,0-1.65v-.05c0-.57.09-1.13.15-1.63a19.69,19.69,0,0,1,.57-2.85A14.78,14.78,0,0,1,6,182.23l.14-.36c0-.09.07-.17.1-.24v.25c0,.23,0,.52,0,.84s0,.76,0,1.2v2.81c0,.26,0,.52,0,.78s0,.53,0,.81v.08c0,.51,0,1,0,1.54s0,.8,0,1.19l0,.86c0,.4,0,.79.05,1.16L6.51,196c0,.43,0,.82,0,1.17s0,.63,0,.86v.25l-.1-.22-.1-.25a15.73,15.73,0,0,1-.64-1.67,17.49,17.49,0,0,1-.68-2.82c-.07-.39-.12-.8-.17-1.21ZM10,209.39,9.8,209l-.2-.39q-.3-.56-.57-1.11c-.21-.46-.41-.93-.6-1.39L8.36,206c-.2-.47-.35-.94-.51-1.4l0-.14a20.64,20.64,0,0,1-.71-2.81A15.22,15.22,0,0,1,6.9,200c0-.15,0-.29,0-.41s0-.17,0-.25l.11.22c.09.21.22.46.36.73s.35.69.54,1.1.53,1.12.83,1.75l.38.8c.09.23.2.45.31.67s.25.5.36.77l.08.16c.2.44.41.88.62,1.31l.51,1.09.19.4.19.41c.16.35.32.69.49,1l.24.52c.35.73.67,1.43.95,2.06.19.42.35.81.49,1.15s.21.52.31.72l.09.23-.17-.17-.26-.27c-.32-.33-.72-.74-1.13-1.25a21.09,21.09,0,0,1-1.7-2.34C10.43,210.07,10.24,209.73,10,209.39Zm20.25,7.11c-.22-.16-.44-.32-.66-.5s-.47-.4-.71-.6l-.23-.19-.22-.21-.68-.63-.65-.67-.18-.19a18,18,0,0,1-1.35-1.63c-.27-.35-.49-.68-.67-.95l.26.23.61.55,1.73,1.59c.22.2.44.41.68.61s.44.4.67.6l.47.42.67.59.89.77,1.6,1.36c.23.19.44.37.62.54l.26.22c-.29-.14-.65-.32-1-.55a20.28,20.28,0,0,1-1.77-1.14Zm25.31-34.64c.12.38.25.76.36,1.16s.19.72.27,1.09l.09.35,0,.28c.08.39.15.78.22,1.17s.1.65.14,1q0,.24.06.45c.1.9.17,1.77.2,2.52,0,.51,0,1,0,1.33v.07a1.36,1.36,0,0,0,0-.17c-.07-.34-.17-.74-.25-1.19l-.48-2.47L56,186c-.07-.38-.15-.76-.23-1.14l-.14-.64c-.08-.36-.15-.72-.24-1.06s-.19-.78-.29-1.15l-.06-.22c-.26-1-.49-1.73-.71-2.39l-.33-.95q-.06-.19-.12-.36l.2.33a8.71,8.71,0,0,1,.49.88,17,17,0,0,1,1,2.33Zm1.57,1.56h0a3.39,3.39,0,0,1,.34.42,5.12,5.12,0,0,1,.45.82l0,.1c.06.13.11.26.16.4l.12.41,0,.11,0,.13c0,.14.06.28.08.42s0,.24,0,.36a.91.91,0,0,0,0,.17,5.52,5.52,0,0,1,0,.94,4.22,4.22,0,0,1-.11.52h0a.65.65,0,0,0,0-.13c0-.11-.08-.24-.11-.38s-.16-.56-.23-.88a1.6,1.6,0,0,1,0-.21,2.86,2.86,0,0,1-.07-.28L57.7,186l0-.13,0-.14c0-.13-.05-.25-.08-.37l-.09-.39,0-.11c-.08-.32-.14-.62-.19-.89s0-.27-.07-.39S57.17,183.46,57.16,183.42Zm-3.83-3,.15.51c.14.5.28,1,.4,1.53s.23,1,.32,1.43c0,.19.08.37.11.55a33.79,33.79,0,0,1,.48,3.58c.05.44.08.9.09,1.44,0,.19,0,.38,0,.55,0-.17-.07-.35-.1-.54q-.12-.64-.27-1.41c-.2-1.08-.48-2.32-.75-3.5-.16-.64-.32-1.29-.5-1.95-.13-.5-.28-1-.42-1.49l-.15-.51-.16-.51c-.15-.48-.31-1-.48-1.47s-.34-1-.51-1.48l-.15-.42c-.41-1.07-.88-2.31-1.32-3.33-.2-.48-.39-.92-.56-1.31l-.22-.5c.09.14.19.29.29.46.28.45.51.84.73,1.24a34.26,34.26,0,0,1,1.58,3.24l.17.4c.19.49.4,1,.58,1.5s.35,1,.51,1.49Zm-3.09-4.5c.29.78.57,1.59.84,2.4s.5,1.68.68,2.37c.35,1.33.67,2.76,1,4.24.17.9.29,1.7.39,2.34v0l-.79-2.75c-.32-1.12-.68-2.39-1.09-3.72-.15-.53-.33-1.07-.51-1.62l-.23-.7c-.27-.8-.56-1.6-.86-2.36s-.63-1.58-1-2.31-.71-1.54-1.06-2.19A34.6,34.6,0,0,0,45.37,168c-.51-.73-1-1.38-1.43-1.9a20.81,20.81,0,0,1,1.64,1.74,25.24,25.24,0,0,1,2.5,3.58c.37.65.75,1.36,1.15,2.18S49.92,175.13,50.24,175.93Z"/><path class="cls-1" d="M60.84,225.93h0l-.4.14-.26.12a3.44,3.44,0,0,0-.62.33l-.36.24a3.32,3.32,0,0,0-.69.51l-1,1-.82,1.13a3.26,3.26,0,0,0-.41.75c-.07.14-.13.27-.2.39a3.15,3.15,0,0,0-.24.66l-.09.29-.09.39a.13.13,0,0,0,0,.12.1.1,0,0,0,.09,0h0l.42-.08.24-.08a2.94,2.94,0,0,0,.71-.26,2.74,2.74,0,0,1,.34-.19,3.7,3.7,0,0,0,.81-.5l1.11-1c.29-.41.57-.82.83-1.21a3.75,3.75,0,0,0,.4-.87c0-.13.09-.26.13-.37a2.77,2.77,0,0,0,.18-.73,2.51,2.51,0,0,1,0-.27l0-.41a.16.16,0,0,0,0-.11Z"/><path class="cls-1" d="M97.65,189.59a44.8,44.8,0,0,0-2.55-13.36c-.3-.9-.69-1.78-1.07-2.63l-.24-.53c-.16-.33-.33-.65-.51-1l-.28-.53-.14-.27c-.09-.16-.17-.33-.27-.48l-.46-.72a21.48,21.48,0,0,0-4.41-5.19.11.11,0,0,0-.08,0,.12.12,0,0,0-.1,0,.13.13,0,0,0,0,.18,21.44,21.44,0,0,1,4.27,5.18l.44.73c.09.15.17.31.25.47l.14.27.27.53c.17.32.34.64.48,1l.23.53c.36.84.74,1.72,1,2.61A44.55,44.55,0,0,1,97,189.61a61.36,61.36,0,0,1-1,13.44c0,.2-.07.4-.11.6s-.12.71-.2,1l-.4,1.64c-.29,1.16-.58,2.23-.88,3.27-.64,2.24-1.32,4.41-2,6.46s-1.47,4.17-2.39,6.33c-.27.68-.58,1.35-.88,2l-.48,1.08-1.11,2.27L86.34,230l-1,1.71c-.1.15-.19.31-.28.45l-.48.7-.33.5-.62.9a41.52,41.52,0,0,1-4.35,5.13,25.79,25.79,0,0,1-5.34,4l-.53.29c-.31.17-.63.34-.95.48l-1.55.66-.38.12a20.69,20.69,0,0,1-2.85.8l-.83.18a4.34,4.34,0,0,1-.52.08l-.3,0-.6.08c-.36,0-.71.09-1.07.12l-.79,0c-.51,0-1,0-1.54,0s-.72,0-1,0a40.17,40.17,0,0,1-6.7-.87h0a.13.13,0,0,0-.13.1.13.13,0,0,0,.1.15,39.6,39.6,0,0,0,6.73,1c.42,0,.86.06,1.39.06l1.22,0,.81,0,1.1-.11.6-.06.3,0a5.17,5.17,0,0,0,.55-.07l.84-.17a21.41,21.41,0,0,0,2.88-.77l.43-.14,1.58-.65a9.33,9.33,0,0,0,1-.5l.53-.28a26,26,0,0,0,5.51-4.07,44.55,44.55,0,0,0,8.06-11l.41-.75,1.13-2.29.49-1.08c.3-.67.62-1.35.89-2,.93-2.17,1.74-4.42,2.43-6.37s1.37-4.18,2-6.5c.3-1.05.59-2.13.88-3.29l.4-1.66c.07-.36.14-.72.2-1.08,0-.2.07-.4.1-.6A59.65,59.65,0,0,0,97.65,189.59Z"/><path class="cls-2" d="M63.87,153.69C78,147.85,98.62,134.63,95.41,108c0,0-45.5.23-44,47.12l-.36.08a13.1,13.1,0,0,1-.63-4.68c0-2.53.18-5.22.08-8a24.71,24.71,0,0,0-1.64-8.61,15.94,15.94,0,0,0-2.39-4A18.07,18.07,0,0,0,43,126.67l-3.07,4.59A11.29,11.29,0,0,1,44.21,136a20.16,20.16,0,0,1,1.68,6.85c.24,2.5.21,5.11.37,7.88a21.87,21.87,0,0,0,.6,4.15c-15.61-3.56-28.79-.74-37.35,8.07C0,172.69-2.55,188.44,2.61,205.05c8.9,28.66,20.39,46.67,47.56,41.45a1.71,1.71,0,0,1,.81,0,42.76,42.76,0,0,0,11.78,1.83,26,26,0,0,0,13.41-3.47c12.15-7.07,17.68-24.15,21.49-39.94,4.13-17.1,1-32.32-8.63-41.74C82.64,156.93,74,153.71,63.87,153.69Zm21.68,53.64c.07-.43.11-1,.16-1.57s.13-1.28.21-2c.2-1.47.24-3.21.41-5s.22-3.79.21-5.75.06-3.92,0-5.76-.1-3.57-.25-5.05c-.06-.74-.1-1.42-.14-2s-.06-1.15-.12-1.58c0-.88-.08-1.38-.08-1.38l.52,1.29c.15.41.33.92.52,1.5a17.88,17.88,0,0,1,.57,2,41.61,41.61,0,0,1,1,5.1c.19,1.89.3,3.91.33,6s-.27,4-.52,5.93A43,43,0,0,1,87.18,204c-.19.74-.42,1.39-.63,2L86,207.44l-.56,1.27S85.46,208.21,85.55,207.33ZM83.4,169.79a3.17,3.17,0,0,1-.17.83l-.14.32-.29-.19a8.08,8.08,0,0,1-1.29-1.27c-.19-.29-.39-.59-.61-.88s-.28-.68-.43-1a8.69,8.69,0,0,1-.29-1,6.25,6.25,0,0,1-.12-.8l0-.35.35.06a2.92,2.92,0,0,1,.8.29,4.28,4.28,0,0,1,.91.65c.27.3.53.63.79,1s.31.8.43,1.18A4.49,4.49,0,0,1,83.4,169.79Zm-6.84,59.65a52,52,0,0,1-3.81,3.88A31.45,31.45,0,0,1,69,236.15c-.29.19-.56.37-.83.53l-.79.42c-.5.27-.94.48-1.3.66l-1.16.5.91-.87c.31-.25.65-.59,1-1l1.33-1.27c1-.89,2-2.08,3.21-3.24A50.53,50.53,0,0,0,74.79,228,50.43,50.43,0,0,0,78,223.9c.92-1.38,1.9-2.61,2.58-3.77l1-1.55c.3-.46.57-.86.76-1.21.44-.67.68-1.06.68-1.06s-.09.45-.27,1.24c-.1.38-.23.86-.39,1.39-.09.27-.18.56-.27.86s-.23.6-.36.92A32.63,32.63,0,0,1,79.65,225,52.63,52.63,0,0,1,76.56,229.44Zm2,6.27,0,.32a3.7,3.7,0,0,1-.21.69,4.14,4.14,0,0,1-.44.79l-.67.71-.84.47a4.46,4.46,0,0,1-.88.24,3,3,0,0,1-.72,0l-.32,0,0-.31a3,3,0,0,1,.2-.69,3.71,3.71,0,0,1,.45-.79l.66-.71.84-.47a3.41,3.41,0,0,1,.88-.24,3,3,0,0,1,.72,0ZM59.16,129.32c-2.06,6.17-2.06,9.26-2.06,9.26,4.57-15.1,12.12-20.93,12.12-20.93-3.09,4.35-3.77,6.41-3.77,6.41a42.05,42.05,0,0,1,27.68-14.3C95.87,120.63,89,131.61,89,131.61c2.4-8.47,2.4-11.1,2.4-11.1-4.8,18-14.07,23.33-14.07,23.33a47.15,47.15,0,0,0,5.72-9c-12.47,14.3-23.33,18.76-23.33,18.76,6.63-4.92,9.61-7.67,9.61-7.67-7.05,4.64-10.63,6.85-12.41,7.89q1.51-2.86,3.16-5.66l11.53-4.64-10.87,3.56c.47-.77.93-1.53,1.41-2.28.28-.43.56-.86.85-1.29q7.11-2.08,14.08-4.56-6.65,1.94-13.37,3.52A77.65,77.65,0,0,1,71,133.32c.82-.89,1.66-1.75,2.52-2.61l2.61-2.56c.64-.65,1.27-1.3,1.9-2L85,122.67l-5.53,2,1.74-1.86c3.31-3.59,6.55-7.24,9.76-10.91q-5.07,5.28-10.25,10.43c-.91.9-1.83,1.79-2.75,2.67a33.55,33.55,0,0,1,1.94-8.75A34.1,34.1,0,0,0,76.94,126l-1.54,1.45-2.72,2.43q-1.2,1.08-2.34,2.19a25.71,25.71,0,0,1,1.12-5.39,71.55,71.55,0,0,1,2.71-7A70.46,70.46,0,0,0,71,126.49a25.31,25.31,0,0,0-1.61,6.45,84.83,84.83,0,0,0-9,10.68c-1.81,2.56-3.51,5.21-5.13,7.89.17-4.93.63-8.92.63-8.92a61.32,61.32,0,0,0-2.17,10.18A46.89,46.89,0,0,1,59.16,129.32Zm-13,5.83c-.49-1.24-.92-2.28-1.27-3S44.4,131,44.4,131s.29.36.76,1a21.91,21.91,0,0,1,1.75,2.8,17,17,0,0,1,1.61,4.45,30.58,30.58,0,0,1,.49,5.38c0,1.82-.1,3.61-.06,5.28a28.79,28.79,0,0,0,.34,4.51,16.52,16.52,0,0,0,.82,3.11c.14.37.26.65.35.84l.14.3-.19-.26c-.14-.17-.32-.43-.54-.76a13.29,13.29,0,0,1-1.33-3.05,21.75,21.75,0,0,1-.78-4.65c-.1-1.71-.08-3.52-.12-5.31a30,30,0,0,0-.29-5.18A20,20,0,0,0,46.2,135.15Zm.09,110.14a25.48,25.48,0,0,1-4.36.36,26.8,26.8,0,0,1-4.38-.38,31.73,31.73,0,0,1-4.28-1,33.1,33.1,0,0,1-14.62-9.48,59.49,59.49,0,0,1-9-15c-.57-1.34-1.15-2.68-1.68-4S6.88,213,6.38,211.68c-1-2.74-1.95-5.48-2.85-8.25l1.61,4c.55,1.35,1.08,2.7,1.65,4s1.1,2.69,1.69,4,1.17,2.64,1.78,4c1.27,2.6,2.51,5.22,4,7.68a48.18,48.18,0,0,0,5,7,32.47,32.47,0,0,0,6.46,5.64l.89.59.94.53c.63.34,1.24.71,1.9,1a38.4,38.4,0,0,0,4,1.66,28,28,0,0,0,17,.62A24.24,24.24,0,0,1,46.29,245.29ZM41.76,228.8a17.16,17.16,0,0,0,3-1.37c.69-.39,1.33-.86,2-1.32A6.74,6.74,0,0,1,48.89,225c-1.51.62-2.47,2-3.79,3a19,19,0,0,1-2.43,1.62c.26.23.54.45.83.68a24.72,24.72,0,0,0,3.43-1.68,25.34,25.34,0,0,1-2.5,2.35,20.89,20.89,0,0,0,7.06,3.12s-6.63.68-15.32-6.64a16.91,16.91,0,0,1-6.06.14,52.31,52.31,0,0,0,5.26,4.32,53.91,53.91,0,0,1-7.32-4.71,23,23,0,0,1-3.28-1.06q2.41,2.94,5.11,5.66a82.64,82.64,0,0,1-7.72-6.91,28.12,28.12,0,0,1-5.57-4.12,61.56,61.56,0,0,0,9.87,12.5A62,62,0,0,1,13,216.85a44.61,44.61,0,0,1-2.84-4.08,84.66,84.66,0,0,0,8.1,16,85.45,85.45,0,0,1-12.23-24.1c-.28-.66-.56-1.35-.83-2C1,187.7,3.43,173.79,11.81,165.16c7.83-8.06,20.11-10.53,34.78-7.07a42.86,42.86,0,0,0-23.35,1.54s10-2.06,17.62-.35c0,0,8.8,2.18,2.4,3.32,0,0,6.06,1,9.15-.23,2.67-1.08,3-3.45,6.88-5.26,1.15-.1,2.28-.17,3.39-.2a13.69,13.69,0,0,1,1.66-.37,18.87,18.87,0,0,1,6.71.25,37.25,37.25,0,0,1,6.34,2A17.11,17.11,0,0,1,83,162.22a16.91,16.91,0,0,0-5.71-3.15,36.57,36.57,0,0,0-6.34-1.6,17.86,17.86,0,0,0-6.4.08l-.29.08a10.54,10.54,0,0,1,1.39,1.84,23,23,0,0,1,6.07,5.32,22.73,22.73,0,0,0-5.32-3.74,9.23,9.23,0,0,1,.43,1.74,22.62,22.62,0,0,1,4.44,7,22.23,22.23,0,0,0-4.36-5.49,10.06,10.06,0,0,1-.18,1.59c.74,1.17,1.46,2.35,2.09,3.59A20.15,20.15,0,0,1,71,175.92a19.74,19.74,0,0,0-2.77-6.15c-.58-.89-1.2-1.74-1.85-2.59a12.23,12.23,0,0,1-.49,1.3c.85,2,1.67,3.91,2.43,5.89q.7,1.83,1.35,3.69l.63,1.86a5.35,5.35,0,0,1,.33,1.94,5.34,5.34,0,0,0-.49-1.88l-.79-1.79c-.53-1.19-1.09-2.38-1.66-3.55-.79-1.62-1.62-3.23-2.48-4.81-.31.53-.65,1.08-1,1.65a39.65,39.65,0,0,1,3.44,6.9,19,19,0,0,1,1.06,4.75,22.43,22.43,0,0,0,.52,4.78,22.47,22.47,0,0,1-.86-4.74,18.22,18.22,0,0,0-1.36-4.53,36.12,36.12,0,0,0-3.58-6.12c-.31.39-.64.79-1,1.2.24.38.47.76.68,1.16a24.68,24.68,0,0,1,1.49,3.27,30.14,30.14,0,0,1,1.64,6.93,50.54,50.54,0,0,1-.61,14.06,50.66,50.66,0,0,0-.07-14,28.73,28.73,0,0,0-1.92-6.64A22.5,22.5,0,0,0,62,175.48c-.16-.27-.34-.54-.52-.8-.33.35-.69.71-1.06,1.07,0,0,8,6.41.45,30a35.65,35.65,0,0,0-1.44-13.89c.93,3.35,4.86,22.16-20.29,33.79A11.57,11.57,0,0,0,40,226.8a42,42,0,0,0,16.18-11.53A42.57,42.57,0,0,1,40.8,227.81C41.09,228.12,41.41,228.46,41.76,228.8Zm19.08-2.74,0,.4a4.43,4.43,0,0,1-.21,1,5.88,5.88,0,0,1-.52,1.21c-.25.39-.54.81-.83,1.21s-.74.68-1.09,1a6.19,6.19,0,0,1-1.13.67,4.94,4.94,0,0,1-.93.34l-.39.07.08-.39a7.13,7.13,0,0,1,.33-.92,8.14,8.14,0,0,1,.59-1.12c.27-.36.55-.75.82-1.14s.7-.65,1-1a8,8,0,0,1,1-.74,7.08,7.08,0,0,1,.86-.44Zm31.64-55.18c.15.24.27.49.41.74.26.5.54,1,.79,1.51.46,1,.94,2.06,1.3,3.14a44.78,44.78,0,0,1,2.54,13.32,59.85,59.85,0,0,1-1,13.56c-.11.56-.19,1.12-.31,1.68l-.4,1.65c-.27,1.1-.56,2.2-.87,3.29q-.93,3.27-2,6.49c-.76,2.14-1.53,4.27-2.43,6.35-.42,1.06-.92,2.08-1.38,3.12l-.75,1.52L88,228l-.41.75a44.35,44.35,0,0,1-8,11,26.17,26.17,0,0,1-5.48,4c-.51.25-1,.55-1.52.77l-1.58.65a24.59,24.59,0,0,1-3.29.9l-.83.17c-.28.06-.56.07-.85.11-.56,0-1.12.13-1.69.17a29.67,29.67,0,0,1-3.4,0,38.94,38.94,0,0,1-6.71-1,40,40,0,0,0,6.72.88,29.35,29.35,0,0,0,3.38,0c.56,0,1.12-.13,1.68-.2a7.54,7.54,0,0,0,.83-.12l.83-.18a24.39,24.39,0,0,0,3.24-.92l1.56-.66c.51-.22,1-.52,1.49-.77a25.93,25.93,0,0,0,5.37-4,41.3,41.3,0,0,0,4.37-5.15c.33-.45.63-.93,1-1.39l.47-.7c.16-.24.3-.48.44-.72l.88-1.45.81-1.48.4-.75.37-.76.75-1.52c.45-1,.94-2,1.36-3.09.89-2.08,1.65-4.21,2.4-6.34s1.4-4.29,2-6.46c.31-1.09.6-2.18.88-3.27l.4-1.65c.12-.54.2-1.1.31-1.66a61.33,61.33,0,0,0,1-13.46,44.47,44.47,0,0,0-2.4-13.27c-.34-1.07-.81-2.1-1.25-3.14-.23-.51-.5-1-.76-1.51-.13-.25-.24-.51-.39-.75l-.44-.72A21.55,21.55,0,0,0,87.64,165,21.47,21.47,0,0,1,92,170.16Z"/><path class="cls-2" d="M59.43,191.83c-.1-.34-.16-.52-.16-.52C59.33,191.48,59.38,191.66,59.43,191.83Z"/><path class="cls-2" d="M13.12,212.26c-.33-.77-.75-1.64-1.18-2.57-.24-.46-.45-.95-.68-1.44s-.48-1-.7-1.48-.47-1-.7-1.47-.47-1-.67-1.44c-.44-.93-.85-1.81-1.21-2.56s-.7-1.37-.9-1.82-.37-.7-.37-.7,0,.29,0,.79A17.7,17.7,0,0,0,7,201.62a18.28,18.28,0,0,0,.71,2.83c.16.51.33,1,.55,1.55s.43,1,.67,1.55.52,1,.78,1.51.56,1,.84,1.4a22.68,22.68,0,0,0,1.71,2.36c.53.66,1,1.15,1.39,1.51s.58.54.58.54-.09-.28-.28-.73S13.48,213,13.12,212.26Z"/><path class="cls-2" d="M6.71,198c0-.49,0-1.21-.07-2s-.07-1.79-.11-2.83c0-.51,0-1-.06-1.57s0-1.08,0-1.63,0-1.09,0-1.62,0-1.07,0-1.58c0-1,0-2,0-2.82s0-1.54,0-2,0-.78,0-.78a7,7,0,0,0-.33.72,18.73,18.73,0,0,0-.68,2,19.45,19.45,0,0,0-.58,2.86c-.06.53-.13,1.08-.15,1.64s0,1.14,0,1.71.06,1.14.1,1.7.13,1.11.22,1.63a19.47,19.47,0,0,0,.68,2.84c.26.82.56,1.47.75,1.93s.35.7.35.7S6.72,198.49,6.71,198Z"/><path class="cls-2" d="M7.05,179.72c.14-.28.3-.59.45-.94s.33-.72.5-1.12.36-.8.55-1.23.38-.88.58-1.32.4-.9.6-1.36l.6-1.35c.22-.44.39-.89.59-1.31.39-.86.75-1.66,1.05-2.35s.54-1.3.74-1.7l.28-.66a4.19,4.19,0,0,0-.57.45,13.17,13.17,0,0,0-1.33,1.35,15.05,15.05,0,0,0-1.58,2.14c-.26.42-.53.84-.76,1.3s-.46.92-.69,1.39-.4,1-.57,1.44-.32,1-.45,1.43-.25.93-.34,1.37-.17.85-.21,1.24-.08.75-.1,1.06,0,.6,0,.83c0,.45,0,.72,0,.72s.13-.23.33-.64C6.8,180.25,6.92,180,7.05,179.72Z"/><path class="cls-2" d="M27.53,224.07l-.88-.46-2.16-1.16-1.19-.67c-.41-.22-.81-.47-1.21-.72s-.81-.47-1.2-.73-.78-.5-1.15-.74c-.73-.5-1.43-1-2-1.38l-.83-.56c-.25-.17-.47-.31-.64-.45-.35-.25-.58-.38-.58-.38s.1.23.32.62c.11.19.24.42.41.68A10.26,10.26,0,0,0,17,219a14.44,14.44,0,0,0,1.77,1.89c.36.3.73.62,1.13.92s.83.57,1.25.85.89.5,1.34.71l.09,0h0l0,0c.4.2.82.34,1.21.51a14.31,14.31,0,0,0,2.5.68,6.78,6.78,0,0,0,1,.13c.31,0,.58,0,.8.05.44,0,.69,0,.69,0s-.22-.14-.6-.33C28,224.35,27.8,224.22,27.53,224.07Z"/><path class="cls-2" d="M16.74,210.89l.92,1s-.28-.4-.79-1.1c-.26-.34-.55-.78-.87-1.28l-.53-.8-.54-.9a47,47,0,0,1-2.33-4.43c-.36-.85-.74-1.71-1.07-2.61s-.63-1.83-.93-2.76-.55-1.87-.73-2.81-.38-1.87-.55-2.77a42.41,42.41,0,0,1-.48-5c0-.37,0-.72-.05-1.06v-.95c0-.6,0-1.12,0-1.55,0-.86.06-1.36.06-1.36s-.09.49-.23,1.34c-.08.43-.14.95-.2,1.55,0,.3-.06.63-.09,1s0,.7,0,1.07a32.7,32.7,0,0,0,.22,5.09c.14.93.26,1.89.47,2.85s.47,1.92.72,2.89.61,1.9,1,2.8.77,1.79,1.16,2.64a33.77,33.77,0,0,0,2.62,4.38l.62.86.61.75C16.1,210.17,16.44,210.58,16.74,210.89Z"/><path class="cls-2" d="M12.23,196.74l-.37-1s.07.37.2,1c.07.33.16.71.28,1.15s.24.95.42,1.48a33.2,33.2,0,0,0,1.38,3.6c.31.64.62,1.3,1,1.95s.74,1.31,1.12,2,.81,1.27,1.25,1.87.89,1.17,1.32,1.73a30,30,0,0,0,2.61,2.84c.39.4.78.74,1.13,1s.65.55.91.76c.51.41.81.63.81.63l-.69-.76c-.23-.23-.49-.53-.79-.88s-.63-.72-1-1.15c-.73-.84-1.52-1.87-2.36-3-.4-.57-.82-1.15-1.22-1.75s-.81-1.22-1.21-1.84-.77-1.26-1.11-1.9-.7-1.27-1-1.88c-.62-1.24-1.18-2.41-1.62-3.43-.22-.51-.42-1-.59-1.4S12.33,197.05,12.23,196.74Z"/><path class="cls-2" d="M18.93,206.86c.41.68.93,1.45,1.52,2.25l.93,1.21,1,1.21c.36.39.71.78,1.07,1.16s.73.74,1.08,1.09c.71.68,1.41,1.3,2,1.8s1.16.88,1.53,1.16.6.41.6.41l-.48-.54c-.32-.34-.75-.84-1.28-1.41l-1.81-2-1-1.13c-.35-.38-.69-.77-1-1.16s-.7-.78-1-1.18-.66-.77-1-1.14l-1.73-2.05c-.5-.61-.94-1.1-1.23-1.46l-.48-.55.33.65C18.2,205.6,18.5,206.19,18.93,206.86Z"/><path class="cls-2" d="M32.59,217.55,31,216.19l-.89-.77c-.31-.26-.61-.53-.91-.8l-.91-.8-.87-.79-1.54-1.42c-.45-.42-.84-.75-1.1-1s-.43-.38-.43-.38.1.18.29.49.48.75.86,1.24a17.52,17.52,0,0,0,1.36,1.64c.26.28.54.57.83.86l.9.85c.32.26.63.54.95.79s.65.49,1,.72A18.38,18.38,0,0,0,32.29,218c.53.31,1,.53,1.33.69l.53.23-.43-.38C33.44,218.29,33.06,217.94,32.59,217.55Z"/><path class="cls-2" d="M45.27,168.06a35.46,35.46,0,0,1,2.22,3.67c.37.7.72,1.43,1.06,2.18s.66,1.52,1,2.31.59,1.57.85,2.35.52,1.56.75,2.31c.46,1.51.86,2.94,1.21,4.16s.64,2.24.85,3l.33,1.12s0-.42-.16-1.15-.27-1.79-.51-3-.54-2.71-.94-4.26c-.21-.77-.43-1.57-.69-2.37s-.54-1.6-.84-2.4-.66-1.59-1-2.35-.76-1.5-1.16-2.19a24.89,24.89,0,0,0-2.51-3.61,21,21,0,0,0-2.16-2.21c-.27-.25-.51-.43-.66-.56l-.24-.19.77.87A26.92,26.92,0,0,1,45.27,168.06Z"/><path class="cls-2" d="M49.41,172.15c.17.39.36.83.56,1.31.41,1,.85,2.1,1.32,3.32.22.62.45,1.25.66,1.9s.42,1.31.63,2,.4,1.33.57,2,.35,1.31.5,1.95c.3,1.27.56,2.46.75,3.49.11.51.19,1,.27,1.41s.15.78.19,1.09c.09.61.16.95.16.95s0-.35,0-1c0-.3,0-.68,0-1.11s0-.91-.09-1.44a32.23,32.23,0,0,0-.48-3.59c-.14-.65-.25-1.33-.43-2s-.36-1.36-.55-2-.43-1.35-.68-2-.5-1.29-.75-1.9a35.43,35.43,0,0,0-1.59-3.25c-.25-.47-.5-.89-.73-1.25l-.6-.94c-.34-.51-.55-.8-.55-.8s.14.33.4.89C49.09,171.41,49.24,171.75,49.41,172.15Z"/><path class="cls-2" d="M53.84,178.51c.1.28.21.6.32,1,.24.69.48,1.51.72,2.39.11.44.24.89.34,1.36s.22.94.32,1.41.21.95.3,1.43.18.93.27,1.38c.17.9.34,1.75.48,2.47s.29,1.33.38,1.75.17.66.17.66,0-.25,0-.68,0-1,0-1.79-.1-1.61-.21-2.53c-.06-.46-.1-.94-.2-1.42s-.17-1-.27-1.46-.22-1-.36-1.44-.28-.93-.42-1.38a19.08,19.08,0,0,0-1-2.35,9.79,9.79,0,0,0-.5-.89c-.16-.26-.3-.49-.42-.67-.25-.36-.4-.55-.4-.55s.08.23.24.63C53.66,178,53.74,178.23,53.84,178.51Z"/><path class="cls-2" d="M57.12,184c.05.26.11.57.19.89,0,.16.08.33.11.5s.08.33.12.51.09.33.12.5.08.33.12.5.16.62.23.88.16.48.2.64a2.56,2.56,0,0,0,.09.25,2.56,2.56,0,0,0,.09-.25c0-.16.11-.39.15-.67a5.89,5.89,0,0,0,0-1c0-.17,0-.36,0-.54s-.07-.37-.1-.55-.1-.37-.16-.54-.13-.35-.2-.51a4.21,4.21,0,0,0-.47-.85,5,5,0,0,0-.43-.53L57,183a1.73,1.73,0,0,0,0,.27C57,183.46,57.07,183.7,57.12,184Z"/><path class="cls-2" d="M82.22,128.1a43.35,43.35,0,0,1-8,7.24,41.17,41.17,0,0,0,5.64-6.63,7.85,7.85,0,0,1-3.43-.46,99.38,99.38,0,0,0-7.25,7.93c-1,1.22-3.58,4.65-3.58,4.65,12.81-3.2,19.67-8.92,19.67-8.92-.61,1.53-1.37,3.13-1.37,3.13a34,34,0,0,0,6.41-13.35A22.88,22.88,0,0,1,82.22,128.1Z"/><path class="cls-2" d="M92.75,118.64c.61-5.33-.39-8.08-.39-8.08-2.59,3.66-9.76,11.13-9.76,11.13A34.55,34.55,0,0,1,92.75,118.64Z"/><path class="cls-2" d="M68.88,132a52.21,52.21,0,0,1,2.63-9.38A32.8,32.8,0,0,0,68.19,131c.29-2.46.75-4.51.75-4.51-4.86,2.91-7.5,4.69-7.5,4.69a54.35,54.35,0,0,0-2.92,7.71l2.81-10c-4.4,8.69-5,16-4.92,15.84C60.64,137.67,68.88,132,68.88,132Z"/></svg>