<svg id="Capa_1" data-name="Capa 1" xmlns="http://www.w3.org/2000/svg" viewBox="0 0 233.98 250"><defs><style>.cls-1{fill:#231f20;}.cls-2{fill:#fd0;}</style></defs><path class="cls-1" d="M25.62,103l-.2-2.08a10.2,10.2,0,0,0-2.93-5.27l-.06,0a.18.18,0,0,0-.2,0,.2.2,0,0,0,0,.27A8.63,8.63,0,0,1,24,102.2,9.08,9.08,0,0,1,13.83,110a9.59,9.59,0,0,1-2.7-.7,8.87,8.87,0,0,1-5.52-9.14A8.37,8.37,0,0,1,7.1,96.2a.19.19,0,0,0,0-.26.05.05,0,0,0,0,0,.2.2,0,0,0-.22,0,9.81,9.81,0,0,0-2.59,5.61,10.26,10.26,0,0,0,6.4,10.56,11.3,11.3,0,0,0,3.13.82,10.52,10.52,0,0,0,11.84-9A9.46,9.46,0,0,0,25.62,103Z"/><path class="cls-1" d="M3.17,74.09c-.09-3.23-.24-6.55-.37-9.48-.13-3.36-.31-6.67-.47-9.45a13.77,13.77,0,0,1,.2-1.85A10.37,10.37,0,0,1,3,51.53a9.34,9.34,0,0,1,.85-1.64A6.17,6.17,0,0,1,5.07,48.5a.19.19,0,0,0,0-.27A.21.21,0,0,0,5,48.17a.19.19,0,0,0-.19,0,7.59,7.59,0,0,0-2.4,3.1,10.82,10.82,0,0,0-.62,1.88,12,12,0,0,0-.28,2c.05,2.79.12,6.11.25,9.48.09,2.93.19,6.25.35,9.48.29,7.21.62,13.23,1,18.95a.22.22,0,0,0,.12.17l.09,0a.2.2,0,0,0,.18-.2C3.54,87.33,3.42,81.3,3.17,74.09Z"/><path class="cls-1" d="M47.65,116a13.54,13.54,0,0,1,3.07.9,13.38,13.38,0,0,1,4.84,3.51.18.18,0,0,0,.07,0,.2.2,0,0,0,.15,0,.2.2,0,0,0,.12-.19L54.16,81.12a8.91,8.91,0,0,0-5.58-8.42A9.64,9.64,0,0,0,45,71.93a9.75,9.75,0,0,0-4.57,1,.2.2,0,0,0-.11.17c-.4,24.77,0,39.83.06,41.23A22.37,22.37,0,0,0,35.2,120a.19.19,0,0,0,0,.26l0,0a.21.21,0,0,0,.22,0A13.3,13.3,0,0,1,47.65,116Zm5.18-17.75c.17,4.76.45,11.44.84,18a11.73,11.73,0,0,0-2.43-1.35,19.12,19.12,0,0,0-4.08-1.19l-.77-40.37a7.1,7.1,0,0,1,1.8.48,5.09,5.09,0,0,1,3.1,3.73l.83,33.74a.19.19,0,0,0,.12.17l.07,0a.21.21,0,0,0,.2-.19Z"/><path class="cls-1" d="M35.53,89.67c0-3.36,0-6.68,0-9.46a11.94,11.94,0,0,1,.29-1.83,9.92,9.92,0,0,1,.58-1.75,8.74,8.74,0,0,1,.93-1.6,6.56,6.56,0,0,1,1.28-1.33.18.18,0,0,0,0-.26.18.18,0,0,0-.08-.07.19.19,0,0,0-.18,0,7.72,7.72,0,0,0-2.57,3,10.76,10.76,0,0,0-.71,1.84,12.77,12.77,0,0,0-.38,2c-.1,2.79-.2,6.11-.26,9.49-.06,2.91-.13,6.21-.15,9.48-.08,7.11-.07,13.32,0,19a.2.2,0,0,0,.12.18h.07a.2.2,0,0,0,.2-.18c.28-5.73.47-11.76.6-19C35.47,95.92,35.5,92.6,35.53,89.67Z"/><path class="cls-1" d="M56.3,129.21l-.1-2.08a10.18,10.18,0,0,0-2.64-5.43.12.12,0,0,0-.07,0,.19.19,0,0,0-.23.29A8.56,8.56,0,0,1,51,134.06a9.43,9.43,0,0,1-6.89,1.49,10.3,10.3,0,0,1-2.2-.64,8.94,8.94,0,0,1-5.49-9.63,8.48,8.48,0,0,1,1.69-3.83.21.21,0,0,0,0-.27l-.06,0a.19.19,0,0,0-.21,0A9.86,9.86,0,0,0,35,126.65a10.34,10.34,0,0,0,6.38,11.13,11.67,11.67,0,0,0,2.55.74,10.53,10.53,0,0,0,12.29-8.33C56.24,129.88,56.27,129.57,56.3,129.21Z"/><path class="cls-1" d="M46.39,27.56h0a.19.19,0,0,0-.24.07A34.16,34.16,0,0,0,43.83,32c-.72,1.73-1.26,3.2-1.7,4.61a48.52,48.52,0,0,0-1.23,4.77l-.44,2.43-.31,2.43c-.08.58-.11,1.17-.14,1.75l0,.72c0,.21,0,.43,0,.65,0,.59-.06,1.2,0,1.81l0,2.45c0,.58.07,1.16.12,1.72,0,.25.05.49.07.73a34.86,34.86,0,0,0,.48,3.73c.07.38.13.76.19,1.13a14.34,14.34,0,0,0,.36,1.66c.06.25.13.5.19.75l.6,2.36a.23.23,0,0,0,.11.14.25.25,0,0,0,.12,0,.19.19,0,0,0,.15-.22c-.1-.67-.23-1.34-.35-2-.18-.92-.35-1.86-.46-2.8,0-.42-.1-.84-.16-1.26A35.13,35.13,0,0,1,41,56a54.7,54.7,0,0,1,.19-9.66A52.63,52.63,0,0,1,43,36.84a47.49,47.49,0,0,1,3.45-9A.18.18,0,0,0,46.39,27.56Z"/><path class="cls-1" d="M231.45,84.57a.2.2,0,0,0-.11-.23h0a.19.19,0,0,0-.24.11A34.54,34.54,0,0,1,229.5,88c-.3.57-.6,1.14-.92,1.69l-.36.6c-.21.36-.42.71-.64,1l-.51.76c-.19.28-.37.57-.57.84l-1.13,1.56L224.13,96c-.25.31-.54.61-.81.9l-.49.51-.65.7-.7.66-.5.48c-.29.28-.59.57-.91.83l-1.51,1.22a8.35,8.35,0,0,1-.76.57l-.79.56a46.05,46.05,0,0,1-6.71,3.85.2.2,0,0,0-.09.25.16.16,0,0,0,.1.1.2.2,0,0,0,.15,0c.61-.23,1.22-.47,1.82-.72l.45-.18a11.92,11.92,0,0,0,1.37-.61l1.73-.91a10.15,10.15,0,0,0,1.11-.66l.58-.37a33.08,33.08,0,0,0,6.09-5,34.5,34.5,0,0,0,4.75-6.32A28.9,28.9,0,0,0,231.45,84.57Z"/><path class="cls-1" d="M134.17,79.63c-1.25-1.28-2.54-2.6-3.75-3.94-.37-.41-.76-.82-1.14-1.22-.64-.69-1.29-1.38-1.91-2.08l-3-3.37A165.49,165.49,0,0,1,113.3,54.9a81.51,81.51,0,0,1-8.73-15.58l-.3-.75c-.18-.44-.36-.88-.53-1.32l-1-3.19-.77-3.26a31.74,31.74,0,0,1-.38-8.89.2.2,0,0,0-.12-.2h0a.21.21,0,0,0-.22.16,30.69,30.69,0,0,0,.06,9.07l.47,2.22.24,1.12,1,3.26c.16.46.34.92.52,1.38l.28.74a78.15,78.15,0,0,0,8.7,15.86A149.82,149.82,0,0,0,123.7,69.63c3.64,4.05,7.78,8.25,12.67,12.84l.06,0a.19.19,0,0,0,.21,0,.19.19,0,0,0,0-.27C135.83,81.33,135,80.48,134.17,79.63Z"/><path class="cls-1" d="M13.78,33.65h0a.18.18,0,0,0,.24-.08,30.08,30.08,0,0,1,9.42-10A29.79,29.79,0,0,1,36.37,19.1a44.59,44.59,0,0,1,13.8.65,56,56,0,0,1,6.74,1.71A64.31,64.31,0,0,1,63,23.72l.44.19a.19.19,0,0,0,.25-.1.18.18,0,0,0-.08-.25C62.51,23,61.38,22.47,60.23,22a54.83,54.83,0,0,0-9.88-3.13A43.82,43.82,0,0,0,36.25,18,30.07,30.07,0,0,0,23,22.82a27.55,27.55,0,0,0-5.3,4.72,31.62,31.62,0,0,0-3.95,5.85A.19.19,0,0,0,13.78,33.65Z"/><path class="cls-1" d="M16.3,90.25a13.47,13.47,0,0,1,3.76,1,13.13,13.13,0,0,1,4.36,3l.07,0a.22.22,0,0,0,.16,0,.21.21,0,0,0,.11-.2l-3.8-39a9,9,0,0,0-5.55-7.93,9.84,9.84,0,0,0-8.57.47.19.19,0,0,0-.1.18C7.64,72.55,8.85,87.58,9,89a22.07,22.07,0,0,0-4.89,6,.19.19,0,0,0,0,.26l0,0a.2.2,0,0,0,.23-.06A13.29,13.29,0,0,1,16.3,90.25Zm1.61-38.63L20.5,85.27a.22.22,0,0,0,.12.16.14.14,0,0,0,.09,0,.18.18,0,0,0,.18-.2l-.36-13c.43,4.75,1.06,11.4,1.78,17.9a9.94,9.94,0,0,0-1.78-1A18.7,18.7,0,0,0,15.68,88L12.79,47.68a6.67,6.67,0,0,1,2.12.5A5,5,0,0,1,17.91,51.62Z"/><path class="cls-2" d="M22.56,90.57c-1.39-12.26-2.41-25-2.41-25l.55,19.73L18.1,51.61c-1.11-4.18-5.52-4.13-5.52-4.13L15.5,88.12C20.46,88.72,22.56,90.57,22.56,90.57Z"/><path class="cls-2" d="M53.89,116.64c-.74-12.31-1.08-25.14-1.08-25.14l-.5,19.73L51.49,77.5c-.89-4.23-5.3-4.42-5.3-4.42L47,113.82C51.89,114.68,53.89,116.64,53.89,116.64Z"/><path class="cls-2" d="M209.8,39.76a213.46,213.46,0,0,0-41.4-22.65,79.72,79.72,0,0,0-8.76-5.87c-8.55-5.12-17.89-10-28.21-11.06a33.49,33.49,0,0,0-17.11,2.64c-1.42-.18-2.84-.34-4.26-.5-22.64-2.41-39,.4-51.36,8.85a40.14,40.14,0,0,0-7.47,6.62,42.47,42.47,0,0,0-19.54-.13c-12.24,3-22.14,15.06-22.17,26.72a11.64,11.64,0,0,0-6.31,3.26,10.9,10.9,0,0,0-3.21,8l1.79,44.86c0,.26-.1.52-.13.79a12.88,12.88,0,0,0,8,13.19,13.5,13.5,0,0,0,3.84,1A13.07,13.07,0,0,0,28.1,104.26a12.27,12.27,0,0,0-.69-5.64L23.16,55A11.34,11.34,0,0,0,12.27,44.21C12.38,33.79,21.32,23,32.35,20.33a39,39,0,0,1,16.9-.15C38.72,33.89,35.48,54.23,42.38,70a11.24,11.24,0,0,0-9.17,10.59l-.58,44.88c-.06.26-.13.52-.17.78a12.92,12.92,0,0,0,7.89,13.9,14.51,14.51,0,0,0,3.13.91,13.08,13.08,0,0,0,15.23-10.43,12.45,12.45,0,0,0-.4-5.68l-2-43.8A11.36,11.36,0,0,0,45.3,69.75C38.07,54.37,41.4,34,52.21,20.85A69.21,69.21,0,0,1,65.81,26c5.56,2.75,11,6.09,16.16,9.32,4.71,2.93,9.59,5.95,14.61,8.56q5,2.6,10.27,4.69c1.37,2.29,2.82,4.45,4.23,6.46A177.06,177.06,0,0,0,141.8,88.74c12.2,10.33,23.64,16.91,35,20.11,14.36,4.06,28.88,2.54,39.83-4.17,12.57-7.7,19.48-22.26,16.8-35.42C230.68,55.88,219.36,46.47,209.8,39.76ZM34.56,99.14c0-3.16.08-6.32.15-9.48s.14-6.32.25-9.48h0a14,14,0,0,1,.37-1.91A12.13,12.13,0,0,1,36,76.44a7.57,7.57,0,0,1,2.49-2.89,6.3,6.3,0,0,0-1.32,1.36,8.69,8.69,0,0,0-1,1.64,11,11,0,0,0-.59,1.79,14.55,14.55,0,0,0-.3,1.85c0,3.16,0,6.32,0,9.48s0,6.32-.13,9.48c-.11,6.33-.29,12.65-.61,19C34.47,111.79,34.48,105.47,34.56,99.14Zm21.45,28,.09,2.07c0,.31-.05.62-.1.93a10.33,10.33,0,0,1-12.07,8.18,10.33,10.33,0,0,1-8.76-11.65A9.58,9.58,0,0,1,38,121.33a8.67,8.67,0,0,0-1.73,3.92,9.47,9.47,0,0,0,18.67,3.11,8.83,8.83,0,0,0-1.52-6.53A10.07,10.07,0,0,1,56,127.15Zm-11-55a9,9,0,0,1,8.95,9l1.74,39.16a13.62,13.62,0,0,0-8-4.47,13.41,13.41,0,0,0-12.32,4.33,21.94,21.94,0,0,1,5.24-5.7s-.49-15.14-.06-41.33A9.56,9.56,0,0,1,45,72.12Zm86.13-69.2a48.31,48.31,0,0,1,14,3.8,102.19,102.19,0,0,1,11.63,6,214,214,0,0,0-36.54-9.07A31.82,31.82,0,0,1,131.15,2.92Zm-16.4,2.73A210.58,210.58,0,0,1,167,19.5a32.45,32.45,0,0,1,5.39,5.41C176.3,30,177.7,36.25,176,41.2,174.6,45.4,171,49,166,51.12s-10.51,2.5-14.84,2.61a109.56,109.56,0,0,1-42.44-7.35,49.13,49.13,0,0,1-5.36-12.58c-1.94-7.71-1-15.27,2.68-20.75A21.75,21.75,0,0,1,114.75,5.65ZM2.33,74.12C2.18,71,2.08,67.8,2,64.64s-.18-6.32-.24-9.49h0A12.63,12.63,0,0,1,2,53.21a9.93,9.93,0,0,1,.61-1.84,7.5,7.5,0,0,1,2.33-3A6.35,6.35,0,0,0,3.7,49.78a9.21,9.21,0,0,0-.87,1.68,10.41,10.41,0,0,0-.49,1.82,13,13,0,0,0-.2,1.87c.18,3.15.34,6.31.47,9.46s.28,6.32.36,9.48c.22,6.32.38,12.64.4,19C2.91,86.75,2.59,80.43,2.33,74.12Zm22.9,26.82.2,2.06a7.69,7.69,0,0,1-.06,1,10.32,10.32,0,0,1-11.61,8.8,10.33,10.33,0,0,1-9.37-11.17,9.61,9.61,0,0,1,2.55-5.49,8.7,8.7,0,0,0-1.52,4,9.25,9.25,0,0,0,8.39,10.05,9.25,9.25,0,0,0,10.41-7.93,8.81,8.81,0,0,0-1.86-6.45A10.05,10.05,0,0,1,25.23,100.94ZM11.36,46.58a9,9,0,0,1,9.41,8.5l3.79,39A13.58,13.58,0,0,0,4.24,95a21.83,21.83,0,0,1,4.93-6S7.89,74,6.93,47.79A9.47,9.47,0,0,1,11.36,46.58ZM41,46.31A54,54,0,0,0,40.84,56c0,1.62.29,3.22.47,4.83s.57,3.19.82,4.81l-.61-2.37c-.18-.79-.42-1.57-.54-2.38-.25-1.61-.57-3.22-.67-4.85-.07-.81-.17-1.63-.19-2.44l0-2.46c0-.81,0-1.63.08-2.45s.06-1.63.17-2.44l.31-2.44.45-2.41a45.26,45.26,0,0,1,1.21-4.75c.49-1.56,1.07-3.09,1.7-4.59a33.72,33.72,0,0,1,2.28-4.33,48.18,48.18,0,0,0-3.47,9.07A53.09,53.09,0,0,0,41,46.31ZM57,21.28a58.4,58.4,0,0,0-6.77-1.73,45.07,45.07,0,0,0-13.85-.64,29.86,29.86,0,0,0-13,4.5,30.67,30.67,0,0,0-9.48,10.07,31.72,31.72,0,0,1,3.93-5.81A27.31,27.31,0,0,1,23.06,23a29.71,29.71,0,0,1,13.21-4.75,43.57,43.57,0,0,1,14,.81,54.64,54.64,0,0,1,13.22,4.69A62.39,62.39,0,0,0,57,21.28ZM97.85,41.47c-4.93-2.56-9.76-5.56-14.43-8.45C78.15,29.75,72.7,26.38,67,23.56c-1.51-.75-3-1.44-4.5-2.07a68.88,68.88,0,0,0-8.29-2.94,37.9,37.9,0,0,1,6-5.11C72.07,5.38,87.81,2.72,109.77,5.06l.45.05a23.5,23.5,0,0,0-6.46,6.42c-4.07,6.12-5.18,14.48-3.05,22.94a47.59,47.59,0,0,0,4,10.25C102.37,43.72,100.09,42.63,97.85,41.47Zm26,28a151.54,151.54,0,0,1-11.26-14.1,78.73,78.73,0,0,1-8.68-15.82c-.26-.7-.55-1.4-.8-2.11l-.65-2.17-.32-1.09-.24-1.1-.47-2.22a30.85,30.85,0,0,1-.06-9,32,32,0,0,0,.39,9l.51,2.18.26,1.09.34,1.07.69,2.13c.27.7.56,1.38.84,2.08A81.74,81.74,0,0,0,113.14,55a164.32,164.32,0,0,0,11.1,14.14l3,3.37c1,1.12,2,2.2,3.06,3.3,2,2.23,4.16,4.32,6.22,6.51C132.13,78.22,127.86,74,123.84,69.5ZM226.66,93.05c.37-.53.71-1.08,1.08-1.61s.67-1.1,1-1.66.62-1.13.92-1.7a32.43,32.43,0,0,0,1.59-3.56,28.57,28.57,0,0,1-3.07,7.2A34.33,34.33,0,0,1,223.47,98a32.25,32.25,0,0,1-6.05,5c-.56.34-1.08.74-1.68,1l-1.73.91a17.79,17.79,0,0,1-1.8.78l-1.82.72a46.72,46.72,0,0,0,6.74-3.87l.79-.56c.26-.18.52-.37.77-.58l1.5-1.22c.5-.41.95-.88,1.42-1.31l.71-.67.65-.71c.43-.47.91-.92,1.31-1.42l1.24-1.49Zm-11.48,9.29c-10.31,6.31-24,7.72-37.65,3.87-10.95-3.1-22.06-9.5-34-19.56a174.5,174.5,0,0,1-30.24-33.17c-.74-1.06-1.49-2.16-2.24-3.3a112.23,112.23,0,0,0,40.15,6.3c4.57-.12,10.5-.56,15.85-2.83,5.66-2.41,9.86-6.62,11.54-11.57,2-5.81.4-13-4.08-18.85-.19-.24-.38-.49-.58-.73A210.17,210.17,0,0,1,208.22,42c9.14,6.41,20,15.37,22.5,27.8C233.13,81.67,226.6,95.35,215.18,102.34Z"/><path class="cls-1" d="M111.57,224.6c-.66-2.5-1.41-5.15-2.22-7.86-.68-2.3-1.39-4.58-2.1-6.8a.16.16,0,0,0-.11-.1,27.4,27.4,0,0,1-4.45-2,16.34,16.34,0,0,1-4.9-3.89,10,10,0,0,1-1.74-3,7.92,7.92,0,0,1,.92-7,10.84,10.84,0,0,1,2.22-2.45,14,14,0,0,1,2.61-1.71,12.7,12.7,0,0,1,3-1.06l.38-.09.29,0,1-.07a2.69,2.69,0,0,1,.56,0l.25,0,.24,0,.57.07.83.24.39.11.25.12.86.43a6.3,6.3,0,0,1,.53.37l.14.1a5.24,5.24,0,0,1,.89.8l.28.28a3.08,3.08,0,0,1,.3.39l.16.21.16.22a3.6,3.6,0,0,1,.28.4l.19.35a7.14,7.14,0,0,1,.48,1l.27.7c.05.15.09.3.13.46s0,.17.06.24a10.94,10.94,0,0,1,.17,4.58,12.32,12.32,0,0,0-1.24-4.19,7.89,7.89,0,0,0-3.34-3.61,5,5,0,0,0-3.49-.51,10.55,10.55,0,0,0-4.86,2.75,6.06,6.06,0,0,0-2,3.61,4,4,0,0,0,.3,1.79,5.59,5.59,0,0,0,1.09,1.73,11.84,11.84,0,0,0,1.69,1.57,19.69,19.69,0,0,0,2.07,1.35c.65.38,1.37.76,2.19,1.14a.15.15,0,0,0,.09,0,23.41,23.41,0,0,0,3.69-.44,21.37,21.37,0,0,0,8.71-3.79.16.16,0,0,0,.06-.13,13.47,13.47,0,0,0,0-1.89,20.45,20.45,0,0,0-.77-4,16.74,16.74,0,0,0-3.73-6.95,9.54,9.54,0,0,0-3.05-2.15,8.48,8.48,0,0,0-3.57-.67,12,12,0,0,0-2,.22,18.68,18.68,0,0,0-5.21,2,16,16,0,0,0-5.71,4.75,9.29,9.29,0,0,0-1.75,6.52,11.71,11.71,0,0,0,2.94,6.3,19.12,19.12,0,0,0,5.92,4.46l.43.22.24.3c.13.15.18.22.27.34l.2.29.36.57q.32.51.63,1.11c.36.69.71,1.43,1.07,2.25.28.67.55,1.37.89,2.29.23.68.46,1.39.74,2.32.78,2.72,1.53,5.62,2.34,9.14.36,1.57.7,3.12,1,4.61.37,1.84.62,3.3.81,4.73l.08.61.08,1a2.91,2.91,0,0,1,0,.3v.53a2.55,2.55,0,0,1-.07.48,5.27,5.27,0,0,1-.14.57,2.83,2.83,0,0,1-.17.4l-.06.12a3.58,3.58,0,0,1-.63.9,2.72,2.72,0,0,1-.34.34l-.38.3a4.62,4.62,0,0,1-.55.35l-.18.11a9.56,9.56,0,0,1-2.59.86.16.16,0,0,0-.13.11.16.16,0,0,0,0,.16l.62.77a.18.18,0,0,0,.16.06l.25,0,.15,0a13.54,13.54,0,0,0,1.5-.38,12.19,12.19,0,0,0,2.71-1.19,7.37,7.37,0,0,0,2-1.8,6,6,0,0,0,.91-2.2,67.59,67.59,0,0,0-1.24-7.57C113,230.12,112.36,227.61,111.57,224.6Z"/><path class="cls-1" d="M183.94,229.35h0a.17.17,0,0,0-.14.16l0,1.88,0,1.6a1.07,1.07,0,0,1-.06.42c0,.11-.19.18-.48.24l-.24,0-1.68.29c-2.14.37-4.68.73-6.89,1-2.66.36-5.33.65-7.94.87l-2.76.24c-1.74.14-3.54.28-5.22.53-.49.07-1,.15-1.43.25-1.47.29-2.87.67-4.11,1l-1.3.35c-1.43.39-2.65.69-3.61.88-.43.08-.82.15-1.17.19-.54.08-1,.14-1.36.16l-.51,0a.18.18,0,0,0-.14.18.17.17,0,0,0,.17.16h.49c.25,0,.7,0,1.4-.08a29.47,29.47,0,0,0,3-.45q.93-.18,1.89-.42l1-.23c1.14-.27,2.31-.56,3.57-.8.79-.16,1.53-.28,2.25-.38,1.65-.23,3.35-.35,5.16-.48.92-.06,1.86-.13,2.79-.21,2.61-.24,5.29-.56,8-.95,2.37-.35,4.59-.77,6.26-1.09l.63-.13,1.65-.34c.16,0,.32-.07.48-.12a1,1,0,0,0,.67-.55,1.28,1.28,0,0,0,.08-.62l-.06-1.64-.08-1.87A.17.17,0,0,0,183.94,229.35Z"/><path class="cls-1" d="M45.46,154.69l.07,0,1.11-.84c.71-.54,1.74-1.26,3-2.1s2.67-1.69,4.4-2.66l1.26-.67.27-.14a3.51,3.51,0,0,1,1-.4c.62-.12,1.37.22,2.28,1a16.75,16.75,0,0,1,1.36,1.42l.67.74A10.69,10.69,0,0,0,63.17,153c1.07.65,2.14,1.22,3.08,1.73l1.46.8c.88.48,1.66.89,2.32,1.23l.92.49,1.24.64a.14.14,0,0,0,.11,0,.16.16,0,0,0,.12-.08.18.18,0,0,0-.06-.23l-1.18-.74-.88-.54c-.63-.4-1.39-.86-2.25-1.38l-1.42-.85c-.94-.56-2-1.17-3-1.81a9.81,9.81,0,0,1-2.14-1.8c-.21-.23-.43-.48-.64-.73a16.87,16.87,0,0,0-1.43-1.52,6.58,6.58,0,0,0-1.34-.94,2.71,2.71,0,0,0-1.75-.29h0a4.09,4.09,0,0,0-1.16.49l-.3.15c-.44.24-.86.47-1.27.71a47.24,47.24,0,0,0-4.37,2.86c-1.2.87-2.14,1.66-2.82,2.24l-1.1,1a.17.17,0,0,0,0,.24A.18.18,0,0,0,45.46,154.69Z"/><path class="cls-1" d="M141.28,240.29l-1,.19-.74.16c-.53.1-1.16.23-1.86.39l-1.18.27c-.77.17-1.61.35-2.48.57l-4.17,1-4.15,1.1-2.44.68-1.17.33-.5.15c-.26.08-.51.15-.74.2l-.17,0a1.15,1.15,0,0,1-.91-.15.62.62,0,0,1-.14-.14.81.81,0,0,0-.16-.16,1,1,0,0,0-.32-.19.35.35,0,0,0-.2,0,.27.27,0,0,0-.2.15.33.33,0,0,0,0,.14.18.18,0,0,0,.17.17h0a.15.15,0,0,0,.11-.08l.17.15a.59.59,0,0,1,.09.11,1.09,1.09,0,0,0,.17.22,1.66,1.66,0,0,0,1.27.38,5.12,5.12,0,0,0,.68-.09l.51-.11,1.51-.34c.78-.17,1.61-.36,2.48-.57l4.17-1,4.16-1.1,2.44-.68,1.17-.34c.69-.19,1.31-.38,1.83-.54l.71-.22,1-.31a.17.17,0,0,0,.12-.2A.18.18,0,0,0,141.28,240.29Z"/><path class="cls-1" d="M200.14,113.5c-.45-.19-.9-.38-1.36-.55-1-.41-2.12-.76-3.12-1.08-1.93-.6-4-1.14-6.47-1.65-2.09-.45-4.16-.77-6.64-1.12-.71-.1-1.43-.17-2.14-.25l-1.21-.14-1.58-.14h-.05a.16.16,0,0,0-.13.12c-.13.46-.26.92-.4,1.39-.33,1.07-.71,2.12-1.12,3.13a30.7,30.7,0,0,1-1.49,3,18.38,18.38,0,0,1-2.07,2.88l-1,1.12-1.29-.67a2.47,2.47,0,0,1-.34-.2l-.09-.07-.21-.16c-.15-.12-.26-.23-.38-.33a7.83,7.83,0,0,1-.57-.66,10.11,10.11,0,0,1-.85-1.31,15.8,15.8,0,0,1-1.13-2.61l-.07-.18,0-.23c-.21-2-.35-3.89-.48-5.63s-.23-3.56-.34-5.59c-.15-3-.26-6.07-.34-9.52a.16.16,0,0,0-.14-.17c-.44-.07-.89-.13-1.34-.18l-.21,0c-1.27-.12-2.31-.18-3.28-.2-2.25,0-4.5,0-6.7.19-.73,0-1.48.11-2.2.18l-1.17.11-3.37.4-3.36.49-1.64.28a.17.17,0,0,0-.13.17v1.42c0,1,0,2.1.07,3.19.08,2.14.22,4.28.43,6.33l.14,1.47-1.48.58-.12,0-.23.08-.36.09-.19,0c-.24,0-.48.08-.71.11a8.34,8.34,0,0,1-1.66,0,8.89,8.89,0,0,1-1.6-.35,9.79,9.79,0,0,1-1.47-.63l-.79-.41-.18-.9c-.3-1.49-.57-3-.88-5-.28-1.81-.51-3.45-.7-5-.33-2.7-.6-5.51-.8-8.35a.23.23,0,0,0-.19-.16l-.87-.08c-.82-.06-1.7-.09-2.62-.09a47.34,47.34,0,0,0-5.3.31c-1.7.18-3.45.45-5.21.79s-3.52.77-5.3,1.27c-.57.14-1.13.31-1.68.49l-.91.28c-.9.26-1.8.58-2.56.85l-.39.14a.18.18,0,0,0-.1.09.17.17,0,0,0,0,.14l0,.12.32.8a48.23,48.23,0,0,1,2.74,11.16l.07.57-.32.66a22.34,22.34,0,0,1-2.31,3.88c-.83,1.2-1.63,2.39-2.58,3.82l-.36.53c-.72,1.09-1.46,2.22-2.14,3.35l-.06.1c-.59,1-1.21,2-1.75,3.07l0-.16.2-1.16c.11-.53.23-1,.36-1.57a.31.31,0,0,0,0-.1,42.61,42.61,0,0,0-5.87-10.92.19.19,0,0,0-.17-.07l0,0a.18.18,0,0,0-.08.21L95.65,110c-1.84-3-6.67-9.9-13.35-12.13h-.09l-.29.08-.42.13-.37.13c-1.08.36-2.19.74-3.25,1.18s-2,.82-3,1.25l-.59.27c-.75.33-1.5.72-2.22,1.09l-.42.21a.18.18,0,0,0-.08.21c.48,1.43,1.45,4.24,2.75,7.48A16.74,16.74,0,0,1,71,105.51a.19.19,0,0,0-.19-.09h0a.17.17,0,0,0-.1.22,18.14,18.14,0,0,0,4.81,7.21.19.19,0,0,0,.09,0c.7,1.63,1.41,3.17,2.11,4.61a25.94,25.94,0,0,1-5.11-6.36.18.18,0,0,0-.18-.08h0a.18.18,0,0,0-.08.23,26.71,26.71,0,0,0,7.09,9.4,35.82,35.82,0,0,0,3.44,5.17c0,.13,0,.44-.06.89a26.57,26.57,0,0,1-6.08-7.31.19.19,0,0,0-.19-.09l0,0a.17.17,0,0,0-.08.22,28,28,0,0,0,6.36,9c.07,5.31,1.34,15.39,9,23.73a.16.16,0,0,0,.16,0,.09.09,0,0,0,.07,0,.17.17,0,0,0,0-.23c0-.05-3.22-4.5-3.93-8.86a47.14,47.14,0,0,0,10.3,10.24c6.93,5.2,19.1,11.88,37.72,14.2h0a.16.16,0,0,0,.13-.11.16.16,0,0,0-.07-.2,80.07,80.07,0,0,0-15.11-6.67c8.39,1.64,35.08,7.77,55,22.27a50.7,50.7,0,0,0,3.22,12.41.16.16,0,0,0,.19.11h0a.18.18,0,0,0,.12-.21,29.46,29.46,0,0,1-.24-8.5,35.42,35.42,0,0,0,5.41,17.36,16.58,16.58,0,0,1-2.26.59,29,29,0,0,1-13.64-.8,5.08,5.08,0,0,0-.23-1.62,31.83,31.83,0,0,0,6.71.63h0a.17.17,0,0,0,.14-.16.18.18,0,0,0-.16-.18,31.91,31.91,0,0,1-7.09-1.4c-.15-.38-.34-.8-.55-1.26a29.51,29.51,0,0,0,4.18.26h0a.17.17,0,0,0,0-.33,29,29,0,0,1-4.82-1.14c-.37-.69-.78-1.41-1.22-2.13.76.06,1.45.08,2.09.07h0a.18.18,0,0,0,.14-.15.2.2,0,0,0-.14-.19,23.58,23.58,0,0,1-2.73-.67c-.43-.68-.9-1.36-1.39-2a27.74,27.74,0,0,1,3.2.54h.07a.16.16,0,0,0,.13-.12.18.18,0,0,0-.1-.21,28.51,28.51,0,0,0-4.1-1.29c-.42-.56-.86-1.14-1.33-1.71,1,.09,2,.2,2.95.33a.06.06,0,0,0,.06,0,.16.16,0,0,0,.13-.13.18.18,0,0,0-.11-.2c-1.24-.39-2.56-.76-3.92-1.08-.42-.5-.85-1-1.3-1.51,1.4.12,2.75.3,4,.54h.07a.17.17,0,0,0,.13-.13.18.18,0,0,0-.11-.2,44.87,44.87,0,0,0-5.28-1.46c-.61-.66-1.27-1.33-1.95-2a40.17,40.17,0,0,1,4.69.73h.07a.19.19,0,0,0,.13-.13.16.16,0,0,0-.11-.2,38.82,38.82,0,0,0-6.07-1.64c-.82-.78-1.68-1.54-2.55-2.27a35.88,35.88,0,0,1,7,1.27h.08a.18.18,0,0,0,.13-.12.17.17,0,0,0-.09-.21,37.24,37.24,0,0,0-8.78-2.3c-1.09-.86-2.24-1.71-3.43-2.51a52.18,52.18,0,0,1,6.37,1H154a.17.17,0,0,0,.14-.12.18.18,0,0,0-.11-.21,54.46,54.46,0,0,0-8.78-2.19c-1.38-.85-2.76-1.6-4.11-2.26a79,79,0,0,1,8.18,1h.07a.16.16,0,0,0,.13-.13.17.17,0,0,0-.12-.2,80.49,80.49,0,0,0-11.53-2.06,37.85,37.85,0,0,0-7.42-2.11c-.25-.08-6.09-2.09-10.08-1.31-2,.39-3.15,1.4-3.51,3a13.26,13.26,0,0,1-1.08-1,13,13,0,0,1-1.94-2.63.2.2,0,0,0-.19-.08h0a.18.18,0,0,0-.1.21,14.67,14.67,0,0,0,1.51,3.08c.13.19.27.4.43.62-.5-.07-1-.15-1.58-.25a41.52,41.52,0,0,1-3.09-4.43.18.18,0,0,0-.18-.08l0,0a.17.17,0,0,0-.08.22,43.55,43.55,0,0,0,1.91,4c-.63-.13-1.28-.28-1.94-.44a28.18,28.18,0,0,1-3.12-6.29.17.17,0,0,0-.19-.1h0a.18.18,0,0,0-.12.21,43,43,0,0,0,1.3,4.47c.15.41.32.83.53,1.29l-1.89-.56a40.11,40.11,0,0,1-3-6.88.19.19,0,0,0-.2-.12h0a.16.16,0,0,0-.12.2,40.77,40.77,0,0,0,1.82,6.28c-1-.33-1.93-.69-2.89-1.08-.33-.76-.61-1.46-.85-2.11A41.43,41.43,0,0,1,100,161a.18.18,0,0,0-.2-.13h0a.18.18,0,0,0-.14.19,42.78,42.78,0,0,0,1,5.8c.11.41.22.83.34,1.24-.7-.3-1.41-.63-2.13-1a21.22,21.22,0,0,1-2-6.23.16.16,0,0,0-.18-.14h0a.18.18,0,0,0-.14.17,21.52,21.52,0,0,0,.77,5.44c-.64-.32-1.24-.65-1.83-1A41.5,41.5,0,0,1,94,158.71a.18.18,0,0,0-.19-.14h0a.16.16,0,0,0-.14.17,41.74,41.74,0,0,0,.51,5.81c-.83-.5-1.68-1-2.52-1.6a36.47,36.47,0,0,1-1.17-5,.17.17,0,0,0-.18-.15h0a.16.16,0,0,0-.14.16,36.47,36.47,0,0,0,.27,4.1c-.65-.46-1.26-.91-1.86-1.37a16.82,16.82,0,0,1-.85-4.85.17.17,0,0,0-.16-.17h0a.17.17,0,0,0-.14.14,16.94,16.94,0,0,0-.1,3.84c-.61-.5-1.18-1-1.73-1.47a39.41,39.41,0,0,1-1.73-6.54.18.18,0,0,0-.19-.14h0a.18.18,0,0,0-.14.18,38.67,38.67,0,0,0,.54,5.09c-.65-.61-1.21-1.16-1.77-1.73l-.09-.05a53.1,53.1,0,0,1-2.83-15.68.17.17,0,0,0-.17-.16h0a.16.16,0,0,0-.14.16,54.08,54.08,0,0,0,1.52,14.79l-.25-.14a.14.14,0,0,0-.11,0h0a.18.18,0,0,0-.1.11,7.15,7.15,0,0,1-.59,1.61,7.36,7.36,0,0,1-1,1.5,8.38,8.38,0,0,1-.59.68l-.35.32-.19.16-.1.08,0,0c-.46.37-1.14.92-1.76,1.48s-1.1,1-1.73,1.61c-1,1-2.09,2.13-3.26,3.49a35.22,35.22,0,0,0-2.87,3.86,27.93,27.93,0,0,0-1.79,3.19,26.5,26.5,0,0,1,1-3.59,34.44,34.44,0,0,1,2-4.57,38.2,38.2,0,0,1,2.16-3.57.17.17,0,0,0,0-.23.17.17,0,0,0-.14,0,.16.16,0,0,0-.1,0,34.41,34.41,0,0,0-5.49,8.58,16.41,16.41,0,0,0-4.93-2,70.23,70.23,0,0,1,5.2-7.07.17.17,0,0,0-.16-.28l0,0a26.19,26.19,0,0,0-7.43,6.45c-.15-.14-.4-.38-.76-.7.22-.32.48-.64.73-.95l.55-.71,2.11-2.71a.18.18,0,0,0,0-.23.17.17,0,0,0-.15,0l-.08,0L56.32,164l-.3.29-.91-.77,3.35-4.56a.18.18,0,0,0,0-.24.17.17,0,0,0-.14,0,.13.13,0,0,0-.09,0l-4,4c-.36-.3-.75-.61-1.15-.92a45.43,45.43,0,0,1,3.9-4.91.18.18,0,0,0,0-.24.18.18,0,0,0-.16,0l-.08,0a44.84,44.84,0,0,0-4.66,4.4c-.5-.38-1-.77-1.56-1.15a65.91,65.91,0,0,1,4.65-5.49.18.18,0,0,0,0-.24.18.18,0,0,0-.16,0l-.07,0a67,67,0,0,0-5.51,5c-.6-.41-1.2-.81-1.79-1.18a58.74,58.74,0,0,1,7-5.59.16.16,0,0,0,0-.23.18.18,0,0,0-.18-.08l0,0a59.82,59.82,0,0,0-8,5.13c-.82-.48-1.62-.93-2.39-1.32a.14.14,0,0,0-.11,0,.18.18,0,0,0-.09,0,24.1,24.1,0,0,0-4.14,5.42,23.25,23.25,0,0,0-2.36,6.33.17.17,0,0,0,0,.15l18.39,21c.54.59,1.05,1.24,1.52,1.85l1.49,1.9c.67.82,1.34,1.62,2,2.43l1,1.23c3.91,4.53,8.22,9,13.17,13.77s9.69,8.86,14.34,12.56l.21.16.16.22c2.91,4,5.91,8,8.94,11.94l4.56,5.89.41.51a.16.16,0,0,0,.17.06h0a.18.18,0,0,0,.12-.16V241a12.13,12.13,0,0,0,1.92-.21,5.58,5.58,0,0,0,1.56-.51l.1-.06.14-.09,0,0h0a.18.18,0,0,0,.12-.13.14.14,0,0,0,0-.14h0v-.3l-.06-.75-.07-.54c-.17-1.3-.43-2.76-.77-4.46-.29-1.46-.62-3-1-4.5-.78-3.39-1.53-6.31-2.28-8.91-.25-.84-.46-1.51-.67-2.12-.31-.84-.56-1.47-.81-2.06s-.61-1.37-.93-2c-.16-.31-.33-.62-.51-.91l-.25-.39a.23.23,0,0,0-.07-.07,21.09,21.09,0,0,1-6.82-5.1,15.14,15.14,0,0,1-3.78-8.57,12.65,12.65,0,0,1,.52-4.82,13.41,13.41,0,0,1,2.23-4.22A17.3,17.3,0,0,1,95.85,187a20.54,20.54,0,0,1,3.87-2.22c.56-.27,1.14-.49,1.7-.7l.34-.13c.21-.08.45-.15.68-.22l.58-.18a8.42,8.42,0,0,1,.86-.24c.3-.08.59-.14.89-.2a13.9,13.9,0,0,1,3.63-.24,10.71,10.71,0,0,1,4.43,1.25,10.91,10.91,0,0,1,3.43,2.93,17.14,17.14,0,0,1,3.22,7.92,21.35,21.35,0,0,1,.23,4.2c0,.59-.08,1.08-.15,1.54a.16.16,0,0,0,.08.17.17.17,0,0,0,.12,0,.15.15,0,0,0,.07,0,14.42,14.42,0,0,0,2.1-2c14.95,1.33,31.71,2.47,37.66,2.86-4.3.3-8.92.18-13.06.08-4.35-.11-8.11-.2-10.25.22-1.22.24-1.87.64-2,1.23a.55.55,0,0,0,.13.48c1.57,1.82,18.86,1.32,27,1-12.78,1.46-26.94,1.44-34.12,1.44-2.6,0-4.16,0-4.52.06-1.09.22-8.76,1.08-12,1.44h0a.15.15,0,0,0-.11.08.16.16,0,0,0,0,.15c.77,2.36,1.56,4.9,2.41,7.76s1.56,5.39,2.24,8c.54,2,1,3.85,1.4,5.62a.17.17,0,0,0,.2.13h0a.17.17,0,0,0,.14-.18,70.75,70.75,0,0,0-1.94-10.81,118.94,118.94,0,0,1,4.32,14.49.2.2,0,0,0,.09.11.14.14,0,0,0,.11,0h0c.09,0,8.54-2.59,21.22-5.09a.63.63,0,0,0,.19.42c.3.3.94.35,2,.15,3.47-.69,10.8-4.2,13-5.49.91-.52,1.22-1.68.88-3.25-.66-3.06-3.54-6.68-6.47-7.14a1.07,1.07,0,0,0,0-.6,2.93,2.93,0,0,0-1.61-1.63c5,0,7.21,3.26,9.55,7.43l.69,1.26c1.81,3.37,3.15,5.87,8.88,6.4a48.71,48.71,0,0,1-9.22.85.45.45,0,0,0-.14-.26,3.6,3.6,0,0,0-2.69-.29c-1,.2-1.65.63-1.7,1.17h0c-2.4.47-23.8,4.75-35.88,9.93a.16.16,0,0,0-.1.18l0,.24.12.8a.13.13,0,0,0,.08.12.13.13,0,0,0,.12,0h0l.7-.28a.12.12,0,0,1,.14.09.08.08,0,0,1,0,.09.12.12,0,0,1-.07.07c-.29.12-.57.23-.83.35a.18.18,0,0,0-.11.17l0,.27c0,.36.08.73.11,1.1l0,.23,0,.22c-.08.41-.2.86-.35,1.37a.15.15,0,0,0,0,.17.14.14,0,0,0,.15,0h0c9.2-3.86,24.49-7.16,32.78-8.79l3.81-.73c-10.49,2.67-17.34,4.26-17.41,4.28a.17.17,0,0,0-.13.2.18.18,0,0,0,.19.14c20.53-3.43,27.28-4.44,27.36-4.45A92.17,92.17,0,0,0,181.79,227c.54-.25,1-.45,1.34-.59a.17.17,0,0,0,.1-.12l.05-.25c.15-.72.31-1.61.49-2.8.15-1,.29-1.92.42-2.89.24-1.85.46-3.75.66-5.84.19-1.85.35-3.68.53-5.87.14-1.8.27-3.72.41-5.88v-.1l0-.12c.58-3.35,1.14-7,1.78-11.48.59-4.16,1.08-7.93,1.52-11.54.93-7.66,1.72-15.45,2.35-23.16v-.23l.1-.28c.05-.13.12-.37.18-.58l.18-.64c.12-.44.23-.89.33-1.34.19-.81.37-1.67.56-2.73.3-1.67.57-3.49.8-5.58.21-1.78.35-3.55.49-5.66l.15-2.84.1-2.84v-.25l5.87-19.68A.17.17,0,0,0,200.14,113.5Zm-77.69,95.43,3-.1a.12.12,0,0,1,.13.12.15.15,0,0,1-.12.14l-1.47,0-1.56.05a.12.12,0,0,1-.09,0,.13.13,0,0,1,0-.1.12.12,0,0,1,.1-.12Zm-1.68.19a.14.14,0,0,1-.12.14l-3,.1a.13.13,0,0,1-.1,0,.12.12,0,0,1,0-.08.12.12,0,0,1,.1-.13h0l3-.1A.12.12,0,0,1,120.77,209.12Zm-8,.15h0l3-.1c.07,0,.12,0,.14.12a.16.16,0,0,1-.13.14l-3,.1a.16.16,0,0,1-.09,0,.13.13,0,0,1,0-.1A.12.12,0,0,1,112.74,209.27Zm14.42-.37a.14.14,0,0,1,.11-.13l1.07-.05,2-.06c.07,0,.12,0,.13.13s0,.11-.11.13l-3,.1A.13.13,0,0,1,127.16,208.9Zm4.85-.17a.12.12,0,0,1,.09-.13l.63,0,2.43-.09a.15.15,0,0,1,.14.13.14.14,0,0,1-.12.13l-.7,0c-.61,0-1.21,0-1.82.06l-.51,0a.15.15,0,0,1-.1,0A.1.1,0,0,1,132,208.73Zm4.84-.17a.13.13,0,0,1,.11-.13l1.53-.05,1.52-.06c.07,0,.11.05.12.14s0,.11-.11.12h0l-3,.11a.12.12,0,0,1-.1,0A.1.1,0,0,1,136.85,208.56Zm4.84-.17a.13.13,0,0,1,.11-.13l3-.1c.07,0,.12,0,.14.12s0,.12-.13.14l-.52,0-2.51.08-.09,0A.19.19,0,0,1,141.69,208.39Zm4.84-.16a.13.13,0,0,1,.1-.13l3.05-.11c.07,0,.13,0,.14.13a.14.14,0,0,1-.12.13l-3,.1a.17.17,0,0,1-.11,0S146.53,208.26,146.53,208.23Zm4.84-.16a.14.14,0,0,1,.11-.14h0l3-.11a.14.14,0,0,1,.13.13.13.13,0,0,1-.11.13l-3,.11a.13.13,0,0,1-.1,0A.12.12,0,0,1,151.37,208.07Zm4.85-.17a.14.14,0,0,1,.1-.14l2.62-.08h.45a.12.12,0,0,1,.12.12.15.15,0,0,1-.13.14l-3,.1a.13.13,0,0,1-.09,0A.15.15,0,0,1,156.22,207.9Zm18.29,11.42a.09.09,0,0,1,0-.1.18.18,0,0,1,.07-.08h0a.13.13,0,0,1,.14.07,12.05,12.05,0,0,1,1.1,2.74.31.31,0,0,1,0,.11.13.13,0,0,1-.11.15.15.15,0,0,1-.15-.08.62.62,0,0,0,0-.13A12.76,12.76,0,0,0,174.51,219.32Zm-1.77,6a5.4,5.4,0,0,0,2.42-1.6.11.11,0,0,1,.09,0,.12.12,0,0,1,.1,0,.1.1,0,0,1,.05.08.15.15,0,0,1,0,.1,5.7,5.7,0,0,1-2.57,1.7c-.06,0-.12,0-.15-.11A.12.12,0,0,1,172.74,225.3Zm1.06-7.51a.13.13,0,0,1-.14-.07c-.42-.76-.91-1.61-1.52-2.62a.24.24,0,0,1,0-.08.22.22,0,0,1,.07-.09l0,0a.15.15,0,0,1,.14.06c.58,1,1.09,1.85,1.53,2.66C173.91,217.69,173.89,217.74,173.8,217.79Zm-2.47-4.17s-.08,0-.14-.06v0c-.68-1.1-1.25-2-1.6-2.53a.12.12,0,0,1,0-.1s0,0,.06-.08a.05.05,0,0,1,0,0,.13.13,0,0,1,.14.06c.55.86,1.09,1.7,1.62,2.55a.43.43,0,0,1,0,.05C171.45,213.52,171.42,213.58,171.33,213.62ZM171.2,226a.13.13,0,0,1-.09.16c-.76.21-1.67.43-2.71.63l-.26,0a.12.12,0,0,1-.14-.1.13.13,0,0,1,.1-.16l.25-.05c1-.2,1.92-.41,2.69-.62A.14.14,0,0,1,171.2,226Zm-5.18-18a13.51,13.51,0,0,1,2.66,1.49s0,0,0,.07a.12.12,0,0,1,0,.1c0,.05-.06.06-.08.06a.12.12,0,0,1-.1,0,12.58,12.58,0,0,0-2.59-1.45.13.13,0,0,1-.09-.16.14.14,0,0,1,.11-.09Zm11.5,14.67c-.34-1.73-2-8.15-9.15-16.1,1.82.45,7.71,1.75,12.6.79a11.7,11.7,0,0,0,3.66-1.33c-.31,1.65-1.53,8.26-2.2,13.85a4.17,4.17,0,0,0-1.28.05A5.69,5.69,0,0,0,177.52,222.58Zm-13.18-14.85a.14.14,0,0,1-.14.12h0c-.74,0-1.7,0-3,0a.19.19,0,0,1-.09,0,.18.18,0,0,1,0-.09.13.13,0,0,1,.11-.14h0c1.44,0,2.3,0,3,0C164.27,207.59,164.32,207.64,164.34,207.73Zm-1.12,19.7a.13.13,0,0,1,.11-.14l0-.17,0,.17.85-.12c.74-.11,1.46-.21,2.12-.32a.13.13,0,0,1,.11,0,.11.11,0,0,1,.05.09.12.12,0,0,1-.11.14l-2.13.33-.79.11h-.06A.15.15,0,0,1,163.22,227.43Zm-1.53.25a.13.13,0,0,1-.1.15l-3,.52-.09,0a.12.12,0,0,1-.06-.1.13.13,0,0,1,.11-.14h0l2.95-.51a.12.12,0,0,1,.1,0A.11.11,0,0,1,161.69,227.68Zm-4.76.84a.12.12,0,0,1-.1.15l-3,.57a.13.13,0,0,1-.15-.1.14.14,0,0,1,.1-.16l3-.56a.12.12,0,0,1,.1,0A.1.1,0,0,1,156.93,228.52Zm-8,1.57a.11.11,0,0,1,0-.09.16.16,0,0,1,.08-.06l2.9-.59H152a.13.13,0,1,1,.05.25l-.42.09-2.53.52A.14.14,0,0,1,149,230.09Zm-1.52.34a.13.13,0,0,1-.1.15c-1,.2-2,.42-2.95.64a.13.13,0,0,1-.16-.1.18.18,0,0,1,0-.1.1.1,0,0,1,.08-.05l2.95-.65A.13.13,0,0,1,147.45,230.43Zm-7.84,1.62h0l2.92-.68a.15.15,0,0,1,.16.09.15.15,0,0,1-.1.17l-2.95.68c-.07,0-.13,0-.15-.11a.12.12,0,0,1,.08-.14Zm-1.74.41a.13.13,0,0,1,.15.1.13.13,0,0,1-.1.16l-2.94.73a.14.14,0,0,1-.15-.11.13.13,0,0,1,.09-.15l3-.72-.05-.17Zm-4.72,1,0,.17a.13.13,0,0,1,.14.1.1.1,0,0,1,0,.09.09.09,0,0,1-.08.06l-2.62.7-.3.08a.13.13,0,0,1-.16-.09.15.15,0,0,1,.09-.16c.94-.26,1.8-.48,2.64-.7l.3-.08,0-.17Zm-4.68,1.27,0,.17a.14.14,0,0,1,.16.09.13.13,0,0,1-.09.16l-2.91.86a.14.14,0,0,1-.15-.11.12.12,0,0,1,.09-.14c1-.3,1.93-.59,2.89-.86l0-.17Zm-4.61,1.4,0,.16a.13.13,0,0,1,.14.09.11.11,0,0,1,0,.1.12.12,0,0,1-.07.07c-1.15.37-2.06.68-2.88,1a.15.15,0,0,1-.15-.1.12.12,0,0,1,.08-.15c.9-.33,1.86-.66,2.87-1l0-.17Zm61.83-48.83-.29,1.75-.32,1.69c-.21,1.06-.44,2.09-.66,3-.13.57-.27,1.07-.39,1.49,0,.05,0,.09,0,.14v-.14c0-.44,0-1,.08-1.55.06-.91.16-2,.29-3l.21-1.7.26-1.76.29-1.75c.06-.37.13-.74.2-1.09l.12-.6c.2-1.05.43-2.08.65-3,.14-.57.28-1.07.4-1.49l0-.14v.14c0,.44,0,1-.08,1.55-.06.92-.16,2-.29,3,0,.2,0,.4-.07.6,0,.36-.09.73-.14,1.11Zm-36-23.31c-2.83-1-5.93-1.9-9.49-2.81-3.09-.79-6.36-1.51-10-2.2s-7.12-1.28-10.09-1.75c-3.7-.6-6.76-1.13-9.79-1.9a37.25,37.25,0,0,1-8.75-3.3,30.2,30.2,0,0,1-6.74-4.95,30.78,30.78,0,0,1-5.83-7.7,32.27,32.27,0,0,0,6.07,7.45,30.94,30.94,0,0,0,6.76,4.71,37.79,37.79,0,0,0,8.66,3.09c3,.74,6.2,1.24,9.74,1.78,3,.47,6.53,1,10.13,1.72s6.94,1.45,10,2.25,6.33,1.79,9.53,2.93a78.85,78.85,0,0,1,15.9,7.67,60,60,0,0,1,7.74,5.82,65.47,65.47,0,0,0-7.93-5.52A83.76,83.76,0,0,0,149.68,164Zm-39-60.14c0-.16.24-3.93-2.77-11.67a71.53,71.53,0,0,1,9.69-2.63,54,54,0,0,1,6.24-.88,25.11,25.11,0,0,0-8,3.4.15.15,0,0,0-.07.17,26.09,26.09,0,0,0,4.55,8.94c-1.2.53-7.35,3.47-10.59,8.65a.16.16,0,0,0,.17.25.14.14,0,0,0,.1,0c.05-.06,5.43-5.87,12-7.54.12.78.77,3.79,4.27,8.63-.68.08-2.46.3-4.89.78a67.71,67.71,0,0,0-20.25,7.25c1-1.62,4.09-6.66,9.57-15.22A.19.19,0,0,0,110.68,103.86Zm16.7-2.52-.09-.5-.06-.53,0-.54c0-.11,0-.22,0-.32s0-.13,0-.18a5.27,5.27,0,0,1,.11-.92,3.91,3.91,0,0,1,.11-.46l0-.07,0,.07a3.85,3.85,0,0,1,.19.44,6.56,6.56,0,0,1,.25.88l0,.18a3,3,0,0,1,.06.32l.06.52,0,.53v.52a6.4,6.4,0,0,1-.12.92,3.71,3.71,0,0,1-.11.45l0,.08,0-.07a2.67,2.67,0,0,1-.18-.44A5.36,5.36,0,0,1,127.38,101.34ZM162,107.57l0,.2c0,.11,0,.22,0,.34l0,.56v.56l0,.55a6.62,6.62,0,0,1-.16,1,4,4,0,0,1-.14.48l0,.07,0-.07a2.92,2.92,0,0,1-.17-.48,7.74,7.74,0,0,1-.2-.94l-.06-.54,0-.56v-.58c0-.11,0-.23,0-.34a1.23,1.23,0,0,0,0-.19,6.62,6.62,0,0,1,.16-1c0-.18.1-.34.14-.48l0-.07,0,.07a3,3,0,0,1,.16.48A5.2,5.2,0,0,1,162,107.57ZM97.4,126.15c1.06-.68,2.17-1.37,3.28-2s2.29-1.29,3.37-1.86,2.19-1.11,3.26-1.62l.08,0c2-.93,4-1.79,6.1-2.54,1.31-.49,2.47-.86,3.44-1.15-.86.37-2,.86-3.31,1.48-2.19,1-4.12,1.93-5.91,2.85-.78.4-1.57.82-2.36,1.25l-.91.48c-1.08.59-2.2,1.22-3.32,1.89s-2.22,1.31-3.27,2-2.07,1.31-3.12,2c-.29.21-.58.4-.88.6A13.9,13.9,0,0,0,92,130.83a3.06,3.06,0,0,0-.81,1.22,3.22,3.22,0,0,0-.08,1.41,14.61,14.61,0,0,0,1,3.41,12.1,12.1,0,0,1-1.37-3.36,3.51,3.51,0,0,1,0-1.58,3.31,3.31,0,0,1,.85-1.48,13.83,13.83,0,0,1,2-1.62c.27-.19.54-.38.8-.58C95.35,127.52,96.39,126.82,97.4,126.15Zm-.48,15.71c.2.14.44.29.7.45.54.35,1.19.7,1.81,1l.06,0c.32.16.65.33,1,.47s.55.26.83.38l.42.17c.33.14.65.28,1,.4l1.09.44,2,.76.92.39.17.08h0c-.31,0-.7,0-1.14-.12a16.66,16.66,0,0,1-2.08-.42l-.38-.1q-.39-.1-.78-.24c-.36-.12-.71-.26-1.07-.4l-.09,0L101,145c-.3-.14-.59-.27-.87-.43s-.69-.4-1-.62a9.47,9.47,0,0,1-1.66-1.38,5,5,0,0,1-.56-.64l-.2-.26Zm63.21-11.05a2.85,2.85,0,0,1-.35-.08,6.44,6.44,0,0,1-.66-.25l-.15-.07-.21-.1-.35-.19-.39-.25-.28-.2c-.18-.14-.37-.3-.54-.46A1.84,1.84,0,0,1,157,129a.46.46,0,0,1-.07-.07h.05a3,3,0,0,1,.41,0,2.7,2.7,0,0,1,.71.14l.39.15.41.21.35.24a1,1,0,0,1,.2.16l.11.09a3.63,3.63,0,0,1,.49.57c.08.12.14.24.2.35l0,.05Zm14.61,36.57c-.4-.34-.8-.69-1.2-1.06l-1.9-1.71-1.88-1.75-1.8-1.69c-1.24-1.14-2.34-2.11-3.28-2.89-.77-.62-1.4-1.1-1.91-1.47a20.75,20.75,0,0,1,2.11,1.19,34.51,34.51,0,0,1,3.55,2.63l1.89,1.62,1.9,1.72,1.87,1.74c.41.37.79.75,1.18,1.12l.62.59c1.11,1.07,2.18,2.15,3.11,3.1.6.61,1.11,1.17,1.54,1.63l.13.14-.15-.12c-.5-.38-1.1-.85-1.76-1.39-1-.83-2.19-1.81-3.36-2.83C175.18,167.77,175,167.58,174.74,167.38Zm-2.68-6.46L171,159.81c.37.22.83.49,1.33.84.68.45,1.44,1,2.27,1.69l1.22,1,1.22,1.12,1.16,1.18c.26.27.5.54.74.81l.33.38c.7.8,1.29,1.55,1.77,2.22.36.48.65.94.88,1.31l-1.15-1.08-2-2Zm6.68,1.22.56.55c.12.11.22.24.33.36l.16.18a8.2,8.2,0,0,1,.78,1.07,6,6,0,0,1,.35.61l0,0-.11-.06c-.15-.1-.33-.21-.52-.35-.35-.25-.7-.51-1-.79l-.21-.17-.35-.3-.56-.49-.54-.51-.52-.52c-.3-.3-.61-.63-.88-.95a5.1,5.1,0,0,1-.4-.49l-.07-.09h0a5,5,0,0,1,.66.29,9.6,9.6,0,0,1,1.12.68l.59.44Zm1.08-1.85-.22-.13-.38-.27-.29-.25-.3-.3a4.26,4.26,0,0,1-.47-.6,2.3,2.3,0,0,1-.19-.33.16.16,0,0,0,0-.07l.08,0a2.4,2.4,0,0,1,.38.1,4.89,4.89,0,0,1,.68.3l.35.22.35.24.34.29a1.53,1.53,0,0,1,.18.18l.11.11a5,5,0,0,1,.46.59,2.37,2.37,0,0,1,.19.34.43.43,0,0,1,0,.07l-.08,0a2.4,2.4,0,0,1-.38-.1,3.67,3.67,0,0,1-.67-.31Zm.42-3-.19-.2-.16-.22a1.25,1.25,0,0,1-.18-.45,1.15,1.15,0,0,1,0-.26v-.07l.11,0,.22.06a2.1,2.1,0,0,1,.4.18l.19.12.18.14.19.18a.36.36,0,0,1,.08.09l.06.07a2.73,2.73,0,0,1,.23.38,1,1,0,0,1,.09.21.51.51,0,0,0,0,.1h-.06a1.36,1.36,0,0,1-.29,0,1.42,1.42,0,0,1-.44-.11l-.09-.05-.14-.07Zm-.1-15c-.2-.19-.42-.41-.65-.66L178,140l-.87-.9c-.21-.23-.44-.46-.66-.69l-.47-.47c-.22-.24-.44-.47-.67-.69l-.69-.7-1.76-1.78c-.23-.23-.44-.46-.63-.66l-.23-.24c.31.16.68.37,1.09.63a20.13,20.13,0,0,1,1.82,1.32l.21.18c.25.21.51.43.76.66s.48.45.72.69l.23.22.23.24.66.74c.2.21.38.45.56.67s.17.21.25.31a20.83,20.83,0,0,1,1.27,1.87c.25.41.45.79.6,1.1Zm1.83,7.22-.07,0-.07-.05-.05,0-.11-.11-.09-.16a.76.76,0,0,1-.1-.31,1.09,1.09,0,0,1,0-.19v-.09h.09a.74.74,0,0,1,.21,0,.88.88,0,0,1,.29.06l.15.07.12.09.14.15,0,0s0,.05,0,.06a.81.81,0,0,1,.1.31.61.61,0,0,1,0,.19.2.2,0,0,0,0,.09h-.11a.66.66,0,0,1-.2,0,1.24,1.24,0,0,1-.29-.06Zm-.23-3-.18-.23-.15-.26a1.81,1.81,0,0,1-.18-.49,1.33,1.33,0,0,1,0-.28.2.2,0,0,1,0-.07l.09,0a2.16,2.16,0,0,1,.25.1,2.34,2.34,0,0,1,.43.26l.22.17.19.19.19.24a.41.41,0,0,1,.08.13l.06.09a3.22,3.22,0,0,1,.21.46,1.38,1.38,0,0,1,.06.26.64.64,0,0,0,0,.09h-.07a1.11,1.11,0,0,1-.29-.07,2.08,2.08,0,0,1-.45-.22l-.1-.07-.13-.11Zm-74.35-27.79.76-.33,1.06-.43c1.07-.43,2.18-.88,3.27-1.26s2.26-.79,3.37-1.14l.9-.28c2.29-.66,4.25-1.15,6-1.5q.93-.18,1.77-.3l.37-.07,1.28-.2,1.21-.12,1.49-.16-2.66.52-1.62.37c-2,.44-4.42,1.12-7.62,2.14-1.35.47-2.78,1-4.2,1.51-1.08.39-2.17.84-3.23,1.28l-1.05.43-.79.34c-1.13.49-2.31,1-3.43,1.52s-2,.92-3,1.38l-1.1.52c-2.77,1.36-5.17,2.54-7.11,3.52l-3.93,2,.06,0c1-.62,2.26-1.4,3.7-2.23,2-1.18,4.4-2.52,7-3.86l1.08-.55c1-.48,1.94-1,2.94-1.45S106.24,119.18,107.39,118.67Zm46.39,37.22a75.19,75.19,0,0,0-9.25-3.21,94.73,94.73,0,0,0-9.85-2.31,54.92,54.92,0,0,0-10.05-.89c-1.46,0-2.93,0-4.36,0-1.81,0-3.68,0-5.49,0a39.4,39.4,0,0,1-9.19-1.15,26.23,26.23,0,0,1-12.84-7.94c-.57-.65-1.11-1.31-1.62-2a27.43,27.43,0,0,0,7.08,6.27,25.67,25.67,0,0,0,7.52,3.13,40.78,40.78,0,0,0,9.07,1c1.78,0,3.56,0,5.44-.05,1.43,0,2.92-.06,4.4-.06a56.52,56.52,0,0,1,10.19.85,97,97,0,0,1,9.92,2.38,71.34,71.34,0,0,1,9.32,3.33,62,62,0,0,1,14.65,9.53c2.83,2.4,5.18,4.67,7.05,6.53-1.85-1.69-4.35-3.91-7.27-6.26A65.52,65.52,0,0,0,153.78,155.89Zm27.72-1.14-.11-.05-.13-.09,0,0-.16-.14-.14-.18a1.27,1.27,0,0,1-.2-.36.87.87,0,0,1-.05-.22.51.51,0,0,1,0-.09H181a1.3,1.3,0,0,1,.39.09l.19.09.18.11.19.18a.3.3,0,0,1,.07.08l.05.07a1.37,1.37,0,0,1,.19.36,1.8,1.8,0,0,1,.06.22s0,.07,0,.09H182a1.18,1.18,0,0,1-.38-.09Zm.15-3.15a1.13,1.13,0,0,1,0-.18s0-.1,0-.11l.1,0,.11,0h.08a.84.84,0,0,1,.28,0l.14,0,.12.06.13.11a.21.21,0,0,0,0,.06l0,.05a.79.79,0,0,1,.12.28,1,1,0,0,1,0,.18.77.77,0,0,0,0,.1l-.1,0-.11,0h-.08a.6.6,0,0,1-.27,0l-.08,0-.06,0-.06,0-.06,0-.11-.1-.1-.13A.73.73,0,0,1,181.65,151.6Zm-.72-40.51h-.05a.15.15,0,0,0-.13.15.18.18,0,0,0,.14.19,30.5,30.5,0,0,1,7.71,2,25.52,25.52,0,0,0-5.53,6.28,25.34,25.34,0,0,1-1-4.94.17.17,0,0,0-.17-.15h0a.17.17,0,0,0-.14.16,25.24,25.24,0,0,0,.47,6.53,22.39,22.39,0,0,0-1.05,2.42,25,25,0,0,1-1-4.5.18.18,0,0,0-.17-.15h0a.17.17,0,0,0-.14.16,25,25,0,0,0,.7,6.71,20.16,20.16,0,0,0-.39,2.12,14.33,14.33,0,0,1-1.4-4.79.17.17,0,0,0-.18-.15h0a.16.16,0,0,0-.13.16,15,15,0,0,0,1.6,7.27,13.65,13.65,0,0,0,.18,2.08l-.1-.14a12.39,12.39,0,0,1-2-4.26.18.18,0,0,0-.2-.13h0a.18.18,0,0,0-.14.19,13.09,13.09,0,0,0,1.56,4.71c.34.6.71,1.17,1.07,1.72s.67,1,.94,1.5c.71,2.06,1.45,4.47,1.93,6a37.88,37.88,0,0,0-10.57-12.45c4-5.59,3.8-5.82,3.73-5.93a.21.21,0,0,0-.19-.08.22.22,0,0,0-.11,0,8.51,8.51,0,0,1-3.26,1.68,1.76,1.76,0,0,1-1.38-.13,30.68,30.68,0,0,0-7.69-3.14,15.18,15.18,0,0,0,2.25-5,9.54,9.54,0,0,0,3.5,5.24.19.19,0,0,0,.13,0h0c5.47-1.66,8.57-11,9-12.2a53.32,53.32,0,0,1,11.49,1.65C185.67,111.33,181,111.09,180.93,111.09Zm-17.86-7c0-.28,0-.57,0-.84-.06-1.54-.09-3-.09-4.35,0-.84,0-1.58,0-2.2v-.2l0,.19c.09.62.2,1.35.3,2.19.16,1.29.32,2.79.46,4.32,0,.28.05.56.07.85,0,.52.1,1,.13,1.59l.18,2.53c.05.8.09,1.67.1,2.54s0,1.72-.11,2.49a17.36,17.36,0,0,1-1,4.28c-.31.88-.64,1.61-.91,2.22.17-.64.36-1.43.58-2.32a23.69,23.69,0,0,0,.6-4.24c0-.75,0-1.56,0-2.41s-.08-1.71-.13-2.51l-.14-2.53C163.11,105.11,163.09,104.58,163.07,104.05Zm-13.21-9.34a41.47,41.47,0,0,0-4.62,1.12.17.17,0,0,0-.12.2.18.18,0,0,0,.2.13,53.21,53.21,0,0,1,8.17-.94,23.55,23.55,0,0,0-.62,8.79A24.43,24.43,0,0,1,150,99.33a.16.16,0,0,0-.18-.09h0a.16.16,0,0,0-.1.21,25,25,0,0,0,3.54,7.08c.15,1,.33,2,.55,3a23.84,23.84,0,0,1-3.37-4.34.18.18,0,0,0-.18-.08l-.05,0a.18.18,0,0,0-.08.22,25.21,25.21,0,0,0,4.26,6.65c.26,1,.54,2,.85,3a37.46,37.46,0,0,1-3.72-4,.18.18,0,0,0-.17-.06l-.06,0a.16.16,0,0,0-.05.23,39.08,39.08,0,0,0,4.84,6.35c.53,1.54.92,2.5.93,2.5h0c0,.16.07.32.11.47-.39-.32-.78-.65-1.14-1a43.35,43.35,0,0,1-3.17-3.49.17.17,0,0,0-.16-.06l-.07,0a.18.18,0,0,0-.05.23c.81,1.24,1.72,2.64,2.76,3.93a17.25,17.25,0,0,0,2.53,2.58,24.5,24.5,0,0,0,1.29,2.86,19.52,19.52,0,0,0-8.2-4.62c-2.58-.88-4.29-1.46-4.24-3.59a4.17,4.17,0,0,0-1.34-3.49,5.55,5.55,0,0,0-4.46-.92,1,1,0,0,0-.26.06l-.1,0a6.75,6.75,0,0,1-3.5-.94c5.72-1.46,6.91-4.58,7-4.71a.14.14,0,0,0,0-.09,80.52,80.52,0,0,1-.81-12.29,128.55,128.55,0,0,1,13.34-1.34C154.15,94,152,94.3,149.86,94.71Zm-6.38,24.92c.87.5,1.7,1,2.48,1.54,1.38.91,2.78,1.94,4.17,3.06.87.7,1.6,1.34,2.2,1.86l-2.41-1.57c-1.34-.87-2.78-1.8-4.34-2.74-.61-.37-1.25-.73-1.9-1.09l-.61-.34c-.88-.48-1.77-.93-2.64-1.34s-1.83-.83-2.72-1.18-1.88-.7-2.71-1a35.29,35.29,0,0,0-5-1.14c-1-.15-2-.24-2.81-.28a21,21,0,0,1,2.85-.07,25.29,25.29,0,0,1,5.12.8c.87.22,1.78.51,2.81.87s1.86.74,2.79,1.16S142.59,119.13,143.48,119.63ZM129.23,90.22c0,.2,0,.43.07.67,0,.43.09.9.13,1.42l.41,3.76.26,2.12c.09.72.2,1.45.31,2.17s.23,1.54.34,2.17.24,1.42.37,2.1c.24,1.35.5,2.62.72,3.71a2.73,2.73,0,0,0,.63,1.3,5.29,5.29,0,0,0,.41.41,5.52,5.52,0,0,1-.49-.34,2.65,2.65,0,0,1-.88-1.26c-.41-1.17-.78-2.4-1.09-3.67q-.25-1-.48-2.1c-.12-.64-.24-1.33-.38-2.19s-.2-1.48-.28-2.21-.11-1.22-.14-1.8l0-.35c-.07-1.27-.08-2.59,0-3.81C129.11,91.51,129.17,90.8,129.23,90.22ZM92.77,109.15a22.31,22.31,0,0,1,1.28,2.18c.38.73.7,1.5,1,2.22a9.85,9.85,0,0,0,1,2l.11.16a3.4,3.4,0,0,1,.45.8,2.71,2.71,0,0,1,.09,1c-.07.82-.15,1.55-.22,2.16,0,.06,0,.12,0,.18s0-.12,0-.18c0-.61-.07-1.34-.1-2.17a2.21,2.21,0,0,0-.17-.87,3.89,3.89,0,0,0-.48-.67l-.1-.11a10,10,0,0,1-1.16-2c-.31-.68-.65-1.4-1.06-2.12s-.74-1.29-1.27-2.09c-.42-.63-.89-1.27-1.45-2l-.22-.27c-.43-.51-.87-1-1.33-1.51A31.59,31.59,0,0,0,86,103c-.6-.48-1.23-1-1.88-1.4a17.11,17.11,0,0,1,2.09,1.12,21.34,21.34,0,0,1,3.41,2.62,22.1,22.1,0,0,1,1.68,1.77A23.13,23.13,0,0,1,92.77,109.15ZM187.23,171c0-1.35.05-2.95.11-4.75a43.45,43.45,0,0,1,1.1-9.34l.39-1.54c.29-1.16.59-2.37.82-3.58a36.48,36.48,0,0,0,.58-5.35c0-.69.07-1.39.09-2.09.05-1.1.1-2.25.18-3.37.11-1.57.3-3.24.6-5.27a65.58,65.58,0,0,1,2.11-9.16c.57-1.85,1.17-3.46,1.73-4.86-.46,1.46-.94,3.17-1.39,5a83,83,0,0,0-1.74,9.16c-.19,1.5-.35,3.16-.49,5.23-.07,1.1-.11,2.24-.15,3.34,0,.7,0,1.4-.08,2.1a36.18,36.18,0,0,1-.63,5.47c-.26,1.25-.59,2.45-.91,3.62-.14.51-.28,1-.41,1.51a49.59,49.59,0,0,0-1.45,9.19c-.15,1.8-.3,3.4-.43,4.73l0,.39Zm-76.34,9c-.31-.09-.62-.15-.93-.21l-.27-.06c-.69-.12-1.49-.25-2.16-.32l-.87-.09-.35,0,.61-.14a5.24,5.24,0,0,1,.61-.09,11.64,11.64,0,0,1,2.25,0l.27,0c.32,0,.66.08,1,.15a9,9,0,0,1,1,.22l.3.07.32.11c.31.11.63.21.94.35a5.69,5.69,0,0,1,.83.38l.32.16a11.09,11.09,0,0,1,1.88,1.27,6.88,6.88,0,0,1,.65.6l.25.25-.32-.16-.78-.4c-.59-.3-1.3-.61-2-.91-.37-.14-.75-.29-1.13-.42a9.3,9.3,0,0,0-.89-.3l-.32-.1-.31-.09C111.48,180.15,111.18,180.06,110.89,180Zm-10.93.8-.44.1a18.8,18.8,0,0,1-2.27.26h-.44a8.59,8.59,0,0,1-1.13,0c-.4,0-.81-.06-1.21-.11l-.38,0-.39-.07c-.4-.07-.81-.15-1.2-.25s-.79-.22-1.17-.35l-.32-.1a14.65,14.65,0,0,1-2.51-1.14,8.49,8.49,0,0,1-.92-.58l-.34-.24.39.15,1,.35c.78.28,1.69.54,2.57.78l.33.08c.37.09.75.18,1.13.24s.76.15,1.13.21l.4.07.4.05c.37.05.76.11,1.13.13l1.5.12c.92,0,1.87,0,2.68,0l1.08,0,.43,0-.41.13A8.5,8.5,0,0,1,100,180.8ZM85.37,198.41a.16.16,0,0,0,.14.18h.06a.15.15,0,0,0,.13-.13,17.74,17.74,0,0,1,3.69-7c-1.57,3.33-5.42,13.42-.44,23.94L87.21,214a22.22,22.22,0,0,1-2.79-7.3.17.17,0,0,0-.19-.14h0a.17.17,0,0,0-.13.18,22.36,22.36,0,0,0,1,5.4l-1.67-1.48a31,31,0,0,1-1.88-5.76.18.18,0,0,0-.19-.14h0a.19.19,0,0,0-.14.18,32.64,32.64,0,0,0,.57,4.23c-4-3.6-9.5-8.71-13.82-13.3-.15-.44-1.7-5.23-1.92-14.47a.16.16,0,0,0-.16-.16h0a.17.17,0,0,0-.14.14,76.5,76.5,0,0,0-.69,9.61,50.23,50.23,0,0,1-.44-14.46c.13.77.33,1.94.52,3.33a.18.18,0,0,0,.16.15h0a.15.15,0,0,0,.13-.13,41.42,41.42,0,0,1,2.82-8.32A32.16,32.16,0,0,0,67,177.08a.18.18,0,0,0,.14.19h.06a.2.2,0,0,0,.14-.14c0-.07,1.59-6.94,9.8-15.13-.22,3.1-.8,20.6,13.42,23.45C89.56,186.34,86.31,189.8,85.37,198.41Zm5.71,23.23c-.16-.16-.31-.3-.47-.44L90.4,221a2.54,2.54,0,0,0-.4-.32l-.25-.17-.22-.14-.13-.08a6.51,6.51,0,0,1-.67-.43,53.92,53.92,0,0,1-4.5-3.72L84,216c-1.62-1.45-3.16-2.9-4.45-4.12-2.79-2.65-5.47-5.3-8.64-8.48a119.4,119.4,0,0,1-8.14-9c-2.24-2.74-4.64-5.74-7.55-9.46-4-5-8.19-10.24-12.76-15.45,1.94,1.9,3.8,3.84,5.57,5.71,2.58,2.77,5.2,5.74,8,9.07l7.77,9.25.73.85c1.05,1.21,2.14,2.47,3.24,3.67s2.41,2.55,3.7,3.85l.47.48c3,3.09,5.85,5.88,8.55,8.53,1.26,1.24,2.76,2.71,4.34,4.18.73.69,1.47,1.36,2.21,2s1.5,1.33,2.27,1.91a6.49,6.49,0,0,0,.58.42l.29.19.38.27a3.42,3.42,0,0,1,.45.37l.21.21c.17.16.34.32.5.5.66.7,1.32,1.45,2,2.3,1.19,1.46,2.41,3,3.71,4.8,1.53,2.12,3.13,4.35,4.69,6.62-1.66-2.08-3.38-4.22-5.12-6.29-1.06-1.28-2.46-3-3.92-4.58C92.51,223.14,91.81,222.36,91.08,221.64ZM46.3,163.25l.57.54.34.36.17.19a8.89,8.89,0,0,1,.82,1,5,5,0,0,1,.37.61l0,0-.11-.06a5.14,5.14,0,0,1-.54-.34c-.35-.24-.72-.51-1.06-.78l-.22-.17a4.57,4.57,0,0,1-.36-.29l-.58-.49-.56-.51-.54-.52c-.31-.3-.63-.63-.91-.95l-.4-.49-.08-.1,0,0a5.53,5.53,0,0,1,.65.29,11.21,11.21,0,0,1,1.15.67l.61.45Zm.44,4.3.9.88c.19.18.38.37.55.56l.3.3c.52.55,1,1.1,1.44,1.61.27.31.5.61.69.86l.06.09-.09-.06c-.25-.17-.56-.38-.9-.63-.52-.38-1.11-.84-1.69-1.33-.1-.1-.21-.19-.32-.28s-.4-.33-.6-.52l-.93-.84-.9-.88-.85-.87c-.53-.55-1-1.11-1.45-1.6-.27-.32-.49-.61-.68-.86l-.06-.08.09.06c.26.17.57.38.9.63.52.38,1.11.84,1.69,1.33l.92.79Zm2.21,5.6L50.78,175l1.8,1.9c.39.4.76.81,1.12,1.21l.6.65c1.07,1.17,2.09,2.33,3,3.37.57.65,1.06,1.24,1.46,1.74l.13.16-.15-.13c-.48-.43-1.06-.94-1.7-1.54-1-.92-2.11-2-3.24-3.1l-.62-.62L52,177.49l-1.82-1.87-1.8-1.9-1.72-1.86c-1.07-1.18-2.1-2.34-3-3.37-.57-.65-1.06-1.25-1.47-1.75l-.12-.15.15.13c.48.43,1.06.94,1.68,1.53,1,.91,2.11,2,3.25,3.1Zm39.47,8.57a11.91,11.91,0,0,1-2.53-1.07,12.37,12.37,0,0,1-1.32-.83c-.43-.32-.86-.67-1.25-1a15.39,15.39,0,0,1-1.12-1.17c-.35-.42-.66-.84-.94-1.25A11.13,11.13,0,0,1,80,173.92a7.69,7.69,0,0,1-.35-1.47,13.81,13.81,0,0,0,.67,1.33,18.7,18.7,0,0,0,1.5,2.18,14,14,0,0,0,1,1.12,13.76,13.76,0,0,0,1.08,1.08,14,14,0,0,0,1.17,1l.17.13c.33.25.68.52,1,.75a22.15,22.15,0,0,0,2.29,1.35c.54.28,1,.49,1.34.65A10.3,10.3,0,0,1,88.42,181.72Z"/><path class="cls-1" d="M70.14,118.72l.08.29a27.27,27.27,0,0,0,1.45,4A21,21,0,0,0,73,125.25c.35.56.72,1.13,1,1.7a16.82,16.82,0,0,1,1.5,4.19,31,31,0,0,1,.52,4.35c.06,1.2.09,2.37.12,3.5,0,1.57.08,3,.19,4.4a20.46,20.46,0,0,0,1.07,5.54,7.32,7.32,0,0,0,.46,1.17l.13.31.23.5a.18.18,0,0,0,.19.1h0a.18.18,0,0,0,.1-.22l-.2-.51c0-.1-.08-.21-.12-.32a8.62,8.62,0,0,1-.39-1.16,22.58,22.58,0,0,1-.82-5.44c-.07-1.18-.07-2.46-.07-3.83s0-2.65-.06-4.07a31.8,31.8,0,0,0-.49-4.49,17.41,17.41,0,0,0-1.56-4.46c-.34-.62-.72-1.2-1.09-1.77a22.09,22.09,0,0,1-1.28-2.15A26.57,26.57,0,0,1,71,118.71s-.52-1.64-.73-2.32c-.62-2-1.21-3.81-1.67-5.46-.63-2.2-1.12-4.06-1.42-5.39s-.46-2.06-.46-2.07a.16.16,0,0,0-.19-.13h0a.16.16,0,0,0-.13.19s.1.77.34,2.1.63,3.27,1.21,5.48C68.61,113.53,69.35,116.16,70.14,118.72Z"/><path class="cls-1" d="M84.84,97l1.13-.3.83-.23c.59-.17,1.31-.36,2.1-.6l1.33-.39C91.1,95.23,92,95,93,94.68l.61-.14a5.54,5.54,0,0,1,1.63-.11c.64.08,1.45.31,1.63.94.07.2.13.43.2.67l.15.51,0,.16c.11.35.23.7.36,1a20.87,20.87,0,0,0,1,2.27,21.19,21.19,0,0,0,2.41,3.65,20,20,0,0,0,2.15,2.21c.21.19.4.34.55.46l.35.28a.15.15,0,0,0,.14,0,.15.15,0,0,0,.09-.06.16.16,0,0,0,0-.23l-.32-.32c-.13-.13-.3-.29-.49-.5a23.78,23.78,0,0,1-1.93-2.3,23,23,0,0,1-2.17-3.62,21,21,0,0,1-.92-2.19c-.12-.33-.23-.66-.33-1l0-.16c-.05-.16-.09-.32-.14-.48a7.63,7.63,0,0,0-.22-.76,1.83,1.83,0,0,0-.42-.69,2.06,2.06,0,0,0-.64-.46,4,4,0,0,0-1.36-.36,6.32,6.32,0,0,0-1.75.12c-.27,0-.54.12-.81.19-1,.3-1.94.64-2.78.93-.45.17-.89.32-1.31.46-.78.27-1.48.53-2.06.75l-.8.29-1.08.41a.18.18,0,0,0-.11.21A.17.17,0,0,0,84.84,97Z"/><path class="cls-2" d="M202.76,110.24l-.84-.39q-.84-.36-1.68-.69c-1.12-.43-2.25-.81-3.38-1.17-2.26-.7-4.55-1.26-6.85-1.74s-4.61-.85-6.92-1.17c-1.16-.16-2.32-.27-3.48-.41l-3.48-.3-1.84-.15-.39,1.86c-.18.88-.45,1.89-.74,2.81s-.62,1.87-1,2.77a25.48,25.48,0,0,1-1.25,2.57l0,0a11.58,11.58,0,0,1-.46-1.13c-.17-1.7-.32-3.47-.44-5.21s-.24-3.68-.34-5.52q-.27-5.52-.37-11.06l0-1.52-1.4-.44c-.48-.15-.74-.2-1.08-.28l-.94-.18c-.62-.1-1.23-.17-1.84-.24-1.21-.11-2.41-.19-3.6-.21q-3.57-.08-7.09.19c-1.17.06-2.33.2-3.5.3l-3.48.42-3.46.5-3.44.59-1.7.28,0,1.74c0,1.13,0,2.21,0,3.31s0,2.2.08,3.3c0,1.51.15,3,.27,4.53a3.8,3.8,0,0,1-.67-.14c-.23-1.24-.45-2.5-.64-3.75-.25-1.62-.48-3.25-.68-4.88q-.6-4.91-.9-9.83L135,83.4l-1.55-.29L133,83l-.39-.06c-.25,0-.51-.08-.75-.1-.5-.06-1-.1-1.48-.14-1-.07-1.94-.1-2.91-.1a54.75,54.75,0,0,0-5.74.33,68.83,68.83,0,0,0-11.16,2.19c-.92.22-1.81.54-2.72.81s-1.79.57-2.68.89l-1.33.47-.34.12a3.36,3.36,0,0,0-.63.27A2.82,2.82,0,0,0,101.5,90a2.78,2.78,0,0,0,.26,1.36l.14.3.26.59c.17.39.33.79.49,1.2a44,44,0,0,1,2.39,9.46,6.26,6.26,0,0,0-.34.55l-.29-.33a35.24,35.24,0,0,1-2.27-3.1,37.3,37.3,0,0,1-2-3.36c-.31-.57-.58-1.17-.87-1.75l-.8-1.79L98,91.94l-1.18-.12c-.47,0-.8-.06-1.18-.08s-.72,0-1.08,0c-.71,0-1.42,0-2.12.08-1.4.08-2.78.27-4.15.48a57.38,57.38,0,0,0-8,2c-1.3.44-2.61.87-3.87,1.39s-2.53,1.06-3.78,1.62-2.44,1.21-3.67,1.82-2.37,1.33-3.56,2l-1,.59,0,1.23c0,.42,0,.7.06,1s0,.62.08.93c.08.62.15,1.23.25,1.83.19,1.21.44,2.4.71,3.57a69.52,69.52,0,0,0,2,6.91c.79,2.26,1.7,4.47,2.67,6.64.48,1.1,1,2.16,1.52,3.23l1.38,2.65c0,.87,0,1.66,0,2.48,0,1,.1,2,.18,3,.16,2,.39,3.94.67,5.9s.63,3.89,1,5.82c.18,1,.41,1.93.61,2.89l.57,2.41c-.06.26-.12.52-.2.77a7.41,7.41,0,0,1-.35.93,6.6,6.6,0,0,1-.47.87c-.09.14-.19.27-.29.4l-.14.18-.06.07,0,0s0,0,0,0l-.12.1-.22.24h0a9,9,0,0,1-1-.42c-.34-.15-.69-.36-1-.53l-1-.62c-1.4-.86-2.75-1.88-4.1-2.91s-2.65-2.16-3.93-3.31-2.55-2.32-3.81-3.51l-.83-.78-1.07.24c-.45.1-.78.19-1.16.3l-1.07.32c-.72.23-1.41.48-2.11.75a40.9,40.9,0,0,0-4,1.84,34.18,34.18,0,0,0-7.33,5.13,27.54,27.54,0,0,0-8.63,15.67l-.18,1,.67.77,12.66,14.45,6.33,7.23c.54.59,1,1.22,1.53,1.85l1.49,1.89c1,1.26,2.07,2.5,3.11,3.75,4.25,4.93,8.77,9.59,13.45,14.06s9.37,8.61,14.4,12.63q4.35,5.94,8.83,11.78l4.59,5.93c1.55,2,3.09,3.92,4.69,5.88l.7.85,1.07-.08c.41,0,.7-.08,1-.12s.64-.1,1-.17a17.86,17.86,0,0,0,1.88-.48,15.62,15.62,0,0,0,3.66-1.62,11.35,11.35,0,0,0,1.77-1.35l2.89,1.69.74.43.83-.2c5.23-1.27,10.5-2.48,15.77-3.64s10.55-2.25,15.84-3.28,10.59-2,15.9-2.78a141.78,141.78,0,0,1,15.88-1.7H184l.39-.19,1.88-.88,1.06-.5.14-1.14c.08-.71.13-1.32.16-2s.05-1.3,0-1.95a21.11,21.11,0,0,0-.34-3.57c.18-.91.31-1.75.45-2.62s.3-2,.43-3c.26-2,.48-4,.68-6s.37-4,.53-6,.29-3.89.41-5.84c.66-3.85,1.23-7.66,1.78-11.49s1.06-7.74,1.53-11.62q1.4-11.5,2.34-23.06l.16-.52.21-.75c.13-.49.25-1,.37-1.47.22-1,.42-2,.59-2.93.36-1.95.62-3.9.84-5.85s.38-3.9.51-5.85l.16-2.93.08-2.63,6.24-20.88.48-1.62-1.45-.81C203.3,110.5,203.06,110.38,202.76,110.24ZM85.89,96.43c.69-.25,1.67-.62,2.86-1s2.55-.93,4.08-1.38a7.25,7.25,0,0,1,2.49-.31,4.16,4.16,0,0,1,1.31.34,2.17,2.17,0,0,1,.59.43,1.72,1.72,0,0,1,.38.63c.15.45.23.83.35,1.23s.24.79.38,1.17a20.92,20.92,0,0,0,.93,2.21,23.8,23.8,0,0,0,2.18,3.64,22.71,22.71,0,0,0,2,2.32c.24.27.45.47.59.61l.22.21-.24-.19c-.15-.12-.38-.3-.65-.55a18.08,18.08,0,0,1-2.13-2.19,19.75,19.75,0,0,1-2.39-3.62,20.93,20.93,0,0,1-1-2.25c-.15-.39-.28-.79-.41-1.19s-.23-.84-.35-1.19c-.2-.69-1-1-1.77-1a6.62,6.62,0,0,0-2.3.25c-1.49.42-2.91.86-4.12,1.21s-2.22.62-2.93.82l-1.11.3ZM70.3,118.67c-.84-2.76-1.57-5.36-2.16-7.61s-1-4.13-1.2-5.46-.34-2.09-.34-2.09.14.75.45,2.07.79,3.17,1.42,5.4,1.47,4.78,2.33,7.54a27.79,27.79,0,0,0,1.53,4.13c.65,1.34,1.61,2.55,2.37,3.93A17.39,17.39,0,0,1,76.24,131a31.8,31.8,0,0,1,.49,4.47c.12,2.9,0,5.6.13,7.9a22.18,22.18,0,0,0,.83,5.49,12.38,12.38,0,0,0,.51,1.47l.2.52-.23-.51a10.76,10.76,0,0,1-.59-1.45,20.94,20.94,0,0,1-1.06-5.5c-.18-2.31-.17-5-.31-7.89a30.21,30.21,0,0,0-.52-4.38,16.92,16.92,0,0,0-1.52-4.24c-.72-1.33-1.67-2.56-2.35-4A29.08,29.08,0,0,1,70.3,118.67ZM46.46,153.59c.68-.57,1.64-1.39,2.87-2.29a50,50,0,0,1,4.35-2.84c.41-.24.84-.47,1.27-.71a5.79,5.79,0,0,1,1.42-.62,2.55,2.55,0,0,1,1.64.28,6.2,6.2,0,0,1,1.3.91c.77.7,1.39,1.52,2,2.24a10.14,10.14,0,0,0,2.18,1.82c1.59,1,3.13,1.89,4.43,2.67s2.36,1.46,3.12,1.91l1.18.75L71,157.07c-.78-.42-1.9-1-3.23-1.72s-2.9-1.53-4.54-2.52A10.87,10.87,0,0,1,61,150.94a28.3,28.3,0,0,0-2.05-2.17,3.14,3.14,0,0,0-2.42-1.09,5.55,5.55,0,0,0-1.28.55l-1.26.68c-1.65.92-3.16,1.83-4.41,2.67s-2.29,1.57-3,2.1l-1.11.84Zm68,41.56c-.06-.24-.11-.48-.19-.72l-.27-.7a9.8,9.8,0,0,0-.68-1.38c-.12-.22-.3-.42-.45-.64a6.87,6.87,0,0,0-.48-.62,8.3,8.3,0,0,0-1.19-1.1c-.23-.16-.45-.33-.68-.48l-.76-.37c-.12-.06-.25-.13-.38-.18l-.41-.13-.82-.23c-.28,0-.56-.08-.84-.11a5,5,0,0,0-.85-.05l-.85.06-.42,0-.4.09a12.83,12.83,0,0,0-3,1.08,13.55,13.55,0,0,0-2.65,1.73,11,11,0,0,0-2.25,2.48,8.3,8.3,0,0,0-1.3,3.39,8.14,8.14,0,0,0,.36,3.74,10.21,10.21,0,0,0,1.76,3.06,16.65,16.65,0,0,0,5,3.93,27.56,27.56,0,0,0,4.48,2c.72,2.24,1.43,4.52,2.1,6.79q1.17,3.92,2.21,7.86c.7,2.62,1.35,5.26,1.9,7.89a68,68,0,0,1,1.24,7.56,5.74,5.74,0,0,1-.88,2.08,7.15,7.15,0,0,1-1.94,1.75,11.23,11.23,0,0,1-2.68,1.18,13.73,13.73,0,0,1-1.47.37l-.4.08-.62-.77a9.37,9.37,0,0,0,2.64-.87,7.71,7.71,0,0,0,.75-.47l.38-.31a2.5,2.5,0,0,0,.37-.36,3.57,3.57,0,0,0,.65-.94,3.32,3.32,0,0,0,.25-.54c0-.19.1-.39.14-.59a2.33,2.33,0,0,0,.07-.52v-.42c0-.13,0-.29,0-.41l0-.33-.06-.67-.08-.61c-.22-1.64-.5-3.19-.81-4.74s-.65-3.09-1-4.62c-.71-3.06-1.46-6.09-2.35-9.15-.23-.76-.47-1.54-.74-2.33s-.57-1.53-.9-2.29-.67-1.52-1.07-2.27c-.2-.37-.41-.75-.64-1.12q-.16-.28-.36-.57l-.2-.3c-.08-.1-.13-.18-.27-.35h0l-.26-.33-.46-.23A19,19,0,0,1,96.7,205a11.47,11.47,0,0,1-2.9-6.21,9.14,9.14,0,0,1,1.72-6.4,15.77,15.77,0,0,1,5.65-4.7,16,16,0,0,1,7.15-2.18,8.34,8.34,0,0,1,3.49.66,9.16,9.16,0,0,1,3,2.11,16.46,16.46,0,0,1,3.7,6.88,20.53,20.53,0,0,1,.76,4,14.6,14.6,0,0,1,0,1.87,21.81,21.81,0,0,1-12.3,4.2c-.75-.36-1.49-.73-2.19-1.13a21.36,21.36,0,0,1-2-1.35,12.39,12.39,0,0,1-1.67-1.54,5.57,5.57,0,0,1-1-1.68,3.67,3.67,0,0,1-.28-1.72,5.83,5.83,0,0,1,1.89-3.5c2.31-2.15,5.46-3.73,8.15-2.21a7.7,7.7,0,0,1,3.27,3.54,12.81,12.81,0,0,1,1.32,5.2A11,11,0,0,0,114.45,195.15ZM107.57,240h0S107.58,240,107.57,240Zm0,0h0Zm32.77.84c-.61.19-1.48.47-2.54.77s-2.28.67-3.61,1l-4.15,1.11-4.17,1c-1.33.33-2.59.59-3.65.84a10.16,10.16,0,0,1-1.5.27,1.54,1.54,0,0,1-1.14-.33c-.12-.12-.18-.25-.26-.34a1.16,1.16,0,0,0-.24-.19c-.08,0-.15,0-.17,0l0,.06,0-.06c0-.05.09-.08.18-.05a.92.92,0,0,1,.27.17c.11.08.19.22.3.3a1.29,1.29,0,0,0,1,.19,11.68,11.68,0,0,0,1.43-.37c1.06-.3,2.28-.67,3.61-1l4.15-1.1,4.17-1c1.33-.33,2.59-.59,3.66-.84s2-.41,2.59-.55l1-.19ZM184,231.39q0,.45,0,1c0,.18,0,.36,0,.56a1.48,1.48,0,0,1-.07.64.84.84,0,0,1-.56.45c-.23.07-.45.1-.67.16l-1.44.29c-2,.4-4.35.85-6.89,1.22s-5.24.7-8,1-5.44.34-7.95.69a68.36,68.36,0,0,0-6.81,1.42,35.63,35.63,0,0,1-4.87.86c-.6,0-1.07.07-1.39.07H145l.49,0c.32,0,.78-.07,1.37-.16a38.08,38.08,0,0,0,4.81-1.07,58.28,58.28,0,0,1,6.81-1.61c2.55-.38,5.28-.51,8-.77s5.41-.53,7.94-.87,4.89-.68,6.9-1l1.44-.25c.45-.08.94-.1,1.09-.42a1.34,1.34,0,0,0,.07-.54c0-.2,0-.38,0-.56,0-.36,0-.69,0-1,0-1.19,0-1.87,0-1.87S184,230.2,184,231.39Zm10.24-98.31-.08.26v.29l-.1,2.85-.15,2.83c-.13,1.89-.27,3.78-.49,5.65s-.46,3.73-.8,5.57c-.16.92-.35,1.83-.55,2.73l-.33,1.32-.18.65c-.06.2-.14.44-.18.56l-.1.28,0,.27q-.94,11.6-2.35,23.16-.7,5.77-1.52,11.54c-.55,3.83-1.13,7.68-1.77,11.47l0,.12v.12c-.13,2-.26,3.92-.41,5.88s-.33,3.91-.53,5.86-.41,3.9-.66,5.83c-.13,1-.27,1.94-.42,2.89s-.31,1.94-.49,2.79l-.05.25a95.81,95.81,0,0,1-18,6.32s-6.58,1-27.34,4.45c0,0,8.73-2,21.81-5.42,0,0-27.22,4.52-41.1,10.34a14.21,14.21,0,0,0,.36-1.39l0-.22,0-.28c0-.46-.1-.91-.16-1.37l.84-.34a.29.29,0,0,0,.16-.39.29.29,0,0,0-.39-.17c-.24.09-.46.18-.67.28,0-.35-.1-.7-.16-1.05,12.74-5.45,36-9.95,36-9.95-.12-1.43,4.45-1.64,4.2-.59a51.32,51.32,0,0,0,10.71-1.1c-7.52-.29-8.37-3.44-10.74-7.66s-4.76-7.77-10.4-7.5c3,1.34,2,2.52,2,2.52,4.48.43,8.59,8.47,5.76,10.1s-15.43,7.65-14.9,4.86c-13,2.54-21.46,5.13-21.46,5.13-3.1-12.62-5.29-16.73-5.29-16.73a72.15,72.15,0,0,1,2.57,13.1q-.66-2.83-1.4-5.62-1.06-4-2.25-8c-.77-2.6-1.56-5.17-2.41-7.77,3-.34,10.91-1.22,12-1.44,1.38-.27,24.63.6,42.79-2,0,0-31.78,1.73-31.19-1.06s15.83-.34,27.39-1.58c0,0-21.3-1.36-40-3a13.78,13.78,0,0,1-2.13,2c.07-.51.12-1,.15-1.55a22.24,22.24,0,0,0-.23-4.23,17.26,17.26,0,0,0-3.26-8,10.77,10.77,0,0,0-8-4.25,14.19,14.19,0,0,0-4.57.45,9.55,9.55,0,0,0-1.08.3c-.36.11-.73.21-1.07.34-.68.26-1.37.51-2,.83a20.81,20.81,0,0,0-3.9,2.24,16.81,16.81,0,0,0-3.38,3.21,13.62,13.62,0,0,0-2.26,4.28,12.46,12.46,0,0,0-.53,4.89,15.31,15.31,0,0,0,3.82,8.66,21.47,21.47,0,0,0,6.87,5.15l.25.39q.27.44.51.9c.33.62.64,1.28.92,1.95s.55,1.35.8,2.05.46,1.38.67,2.11c.85,2.91,1.6,5.91,2.29,8.9.34,1.5.67,3,1,4.5s.58,3,.77,4.44l.07.54,0,.49,0,.25v.36a0,0,0,0,0,0,0s-.09.06-.11.1a2.55,2.55,0,0,1-.24.14,9.17,9.17,0,0,1-3.54.7v.31l-.41-.52-4.56-5.89q-4.53-5.91-8.94-11.93l-.17-.23-.24-.19c-4.91-3.92-9.72-8.17-14.32-12.55s-9-9-13.16-13.76c-1-1.22-2-2.41-3-3.65l-1.49-1.9c-.49-.63-1-1.26-1.53-1.86l-6.36-7.26-12-13.74a23.17,23.17,0,0,1,2.34-6.28A23.78,23.78,0,0,1,43.88,156c.84.43,1.67.89,2.48,1.38a58.67,58.67,0,0,1,8.11-5.19A58.7,58.7,0,0,0,47.3,158c.72.45,1.41.91,2.09,1.37a67.05,67.05,0,0,1,5.6-5.07,67.22,67.22,0,0,0-4.77,5.65c.63.45,1.25.9,1.83,1.34a45.73,45.73,0,0,1,4.74-4.5,46.14,46.14,0,0,0-4,5.06c.5.39,1,.76,1.4,1.12l4.14-4.13-3.45,4.69,1.16,1,.41-.39L57.71,163l2.55-2.29-2.1,2.7c-.46.61-1,1.2-1.38,1.8.65.58,1,.92,1,.92a25.82,25.82,0,0,1,7.49-6.55,68.81,68.81,0,0,0-5.34,7.29A15.23,15.23,0,0,1,65.22,169a33.12,33.12,0,0,1,5.55-8.74,37.89,37.89,0,0,0-4.23,8.18,25.09,25.09,0,0,0-1.17,4.84A29.3,29.3,0,0,1,67.68,169a34.82,34.82,0,0,1,2.85-3.85c1-1.21,2.11-2.38,3.25-3.48.56-.55,1.14-1.09,1.73-1.61s1.21-1,1.75-1.46l-.12.09.26-.2.19-.16L78,158c.21-.22.42-.45.61-.69a7.91,7.91,0,0,0,1-1.53,8.18,8.18,0,0,0,.61-1.65l.59.32a53.59,53.59,0,0,1-1.61-15.11A53.18,53.18,0,0,0,82,155.15l.15.08c.7.72,1.4,1.4,2.11,2.06a39.06,39.06,0,0,1-.63-5.58,40,40,0,0,0,1.76,6.61c.69.62,1.39,1.2,2.08,1.76a17.42,17.42,0,0,1,.06-4.21,16.71,16.71,0,0,0,.88,4.95c.74.57,1.48,1.11,2.21,1.63a37.14,37.14,0,0,1-.31-4.46,36,36,0,0,0,1.2,5.07c1,.65,1.93,1.26,2.89,1.82a41,41,0,0,1-.57-6.14,41.66,41.66,0,0,0,1.64,6.76c.75.42,1.5.82,2.24,1.19a21.92,21.92,0,0,1-.87-5.77,21.54,21.54,0,0,0,2,6.33c.86.42,1.7.8,2.53,1.15-.16-.53-.31-1.05-.44-1.59A40.62,40.62,0,0,1,99.85,161a41.32,41.32,0,0,0,1.63,5.6c.27.73.57,1.46.88,2.18,1.14.46,2.25.87,3.31,1.23a41.58,41.58,0,0,1-2-6.6,41,41,0,0,0,3.09,7c.81.26,1.58.48,2.32.68-.25-.53-.48-1.06-.68-1.61a41.72,41.72,0,0,1-1.29-4.45,28.1,28.1,0,0,0,3.18,6.37c.86.21,1.65.39,2.36.53a43.53,43.53,0,0,1-2.07-4.3,42.67,42.67,0,0,0,3.15,4.5c.84.15,1.53.24,2,.31-.23-.31-.46-.62-.66-.94a14,14,0,0,1-1.49-3,13.69,13.69,0,0,0,3.15,3.78l.14.11c1-6.17,13.41-1.84,13.41-1.84a37.9,37.9,0,0,1,7.42,2.11,81.53,81.53,0,0,1,11.54,2.06,81.71,81.71,0,0,0-9.07-1,49.3,49.3,0,0,1,4.91,2.65,54.2,54.2,0,0,1,8.78,2.19,54.94,54.94,0,0,0-7.07-1.1q2.09,1.38,4,2.91a37.12,37.12,0,0,1,8.78,2.3,36.38,36.38,0,0,0-7.58-1.32c1,.86,2,1.74,3,2.64a37.33,37.33,0,0,1,6.1,1.64,38.4,38.4,0,0,0-5.2-.78c.81.79,1.59,1.58,2.33,2.37a45.27,45.27,0,0,1,5.31,1.47,42.71,42.71,0,0,0-4.49-.57c.57.62,1.11,1.24,1.63,1.86,1.33.32,2.66.68,4,1.1-1.12-.16-2.24-.29-3.36-.38.57.7,1.11,1.39,1.61,2.07a28,28,0,0,1,4.14,1.3,29.64,29.64,0,0,0-3.6-.58c.6.82,1.14,1.62,1.64,2.39a24,24,0,0,0,2.81.7c-.81,0-1.61,0-2.42-.1.55.87,1,1.7,1.43,2.47a27.2,27.2,0,0,0,4.91,1.16,29.05,29.05,0,0,1-4.46-.29c.28.57.52,1.11.71,1.61a31.78,31.78,0,0,0,7.21,1.43,32.1,32.1,0,0,1-7-.69,4.6,4.6,0,0,1,.29,2c9.79,2.85,16.35.18,16.35.18a35.12,35.12,0,0,1-5.5-20.16,32.43,32.43,0,0,0-.1,11.25,48.78,48.78,0,0,1-3.21-12.45c-24.08-17.58-57.74-22.82-57.74-22.82a82,82,0,0,1,17.63,7.46c-36-4.48-48.31-25-48.31-25,.46,4.68,4.06,9.67,4.06,9.67-7.81-8.49-8.93-18.86-9-23.7a27.76,27.76,0,0,1-6.37-9,27,27,0,0,0,6.38,7.58c0-.82.08-1.29.08-1.29a35.41,35.41,0,0,1-3.47-5.23,26.51,26.51,0,0,1-7.08-9.36,25.9,25.9,0,0,0,5.81,7c-.93-1.82-1.8-3.72-2.58-5.55l-.06.07a18,18,0,0,1-4.76-7.14,17.5,17.5,0,0,0,4,5c-1.41-3.49-2.48-6.55-3-8.17.87-.44,1.74-.9,2.63-1.29,1.18-.53,2.34-1.08,3.55-1.52s2.4-.9,3.61-1.31l.69-.2c8.65,2.88,14.09,13.48,14.09,13.48l-2-6.27a42.29,42.29,0,0,1,5.85,10.88c-.13.52-.24,1-.35,1.57l-.21,1.17-.13,1.17a39.93,39.93,0,0,1,2.24-4.06c.79-1.32,1.64-2.6,2.49-3.88s1.71-2.55,2.58-3.81a21.61,21.61,0,0,0,2.32-3.92h0l.34-.69-.07-.62a48,48,0,0,0-2.75-11.2c-.12-.31-.25-.62-.38-.93l.4-.14c.84-.3,1.69-.6,2.55-.85s1.71-.55,2.58-.77a65.25,65.25,0,0,1,10.49-2,46.88,46.88,0,0,1,5.28-.31q1.32,0,2.61.09l.9.08c.19,2.8.46,5.58.8,8.36.2,1.68.44,3.35.7,5s.53,3.32.88,5l.19,1,.87.45a9.53,9.53,0,0,0,1.5.64,8.18,8.18,0,0,0,1.63.36,8.68,8.68,0,0,0,1.69,0,8.55,8.55,0,0,0,.86-.14,3.54,3.54,0,0,0,.44-.11l.23-.07.13,0,.18-.07,1.42-.56-.15-1.59q-.31-3.15-.42-6.33c0-1.06-.07-2.12-.08-3.18V94.35l1.63-.28,3.36-.49,3.36-.4c1.12-.1,2.24-.24,3.36-.29,2.24-.18,4.47-.23,6.68-.19,1.11,0,2.2.1,3.28.2.52.06,1,.12,1.53.2.08,3.17.18,6.35.34,9.52.1,1.87.21,3.74.34,5.6s.28,3.72.48,5.64l0,.22.08.22a15.83,15.83,0,0,0,1.14,2.64,10,10,0,0,0,.86,1.33,8.65,8.65,0,0,0,.59.68c.12.11.24.22.39.34a2.51,2.51,0,0,0,.24.19,3.13,3.13,0,0,0,.43.26l1.41.74,1.08-1.22a19.53,19.53,0,0,0,2.09-2.91,30,30,0,0,0,1.5-3.07c.42-1,.79-2.08,1.12-3.14.15-.47.28-.93.41-1.4l1.58.14c1.11.13,2.23.24,3.34.39,2.22.31,4.44.65,6.62,1.12s4.35,1,6.46,1.64c1,.34,2.09.68,3.1,1.08.47.17.91.36,1.36.55Z"/><path class="cls-2" d="M142.53,231.2c-1.05.23-2,.46-2.92.67h-.05a.31.31,0,0,0-.2.35h0a.31.31,0,0,0,.36.23h0c.88-.21,1.81-.43,2.94-.68a.32.32,0,0,0,.23-.37A.3.3,0,0,0,142.53,231.2Z"/><path class="cls-2" d="M137.84,232.3h0l-2.94.73a.3.3,0,0,0-.22.35h0a.3.3,0,0,0,.35.22h0l2.93-.72a.31.31,0,0,0,.23-.37A.3.3,0,0,0,137.84,232.3Z"/><path class="cls-2" d="M147.26,230.16l-2.95.64a.24.24,0,0,0-.19.13.31.31,0,0,0,0,.23.3.3,0,0,0,.35.23h0c1-.22,2-.44,2.95-.64a.3.3,0,0,0,.23-.36A.3.3,0,0,0,147.26,230.16Z"/><path class="cls-2" d="M152,229.17l-3,.61a.24.24,0,0,0-.19.13.24.24,0,0,0,0,.23.29.29,0,0,0,.35.23l3-.61a.3.3,0,0,0,.24-.35A.31.31,0,0,0,152,229.17Z"/><path class="cls-2" d="M133.12,233.48l-2.92.77a.3.3,0,0,0-.21.36v0a.3.3,0,0,0,.35.21h0l2.92-.78a.3.3,0,1,0-.16-.58Z"/><path class="cls-2" d="M123.81,236.15c-1,.33-2,.66-2.87,1a.3.3,0,0,0-.19.34.09.09,0,0,0,0,.05.31.31,0,0,0,.34.19h.05c.9-.33,1.85-.66,2.85-1a.31.31,0,0,0,.2-.38A.3.3,0,0,0,123.81,236.15Z"/><path class="cls-2" d="M164.22,207.42c-.74,0-1.64,0-3,0a.31.31,0,0,0-.29.32.3.3,0,0,0,.31.29c1.34,0,2.27-.06,3,0h.08a.31.31,0,0,0,.24-.28.25.25,0,0,0,0-.08A.3.3,0,0,0,164.22,207.42Z"/><path class="cls-2" d="M156.75,228.25l-3,.56a.31.31,0,0,0-.24.36.3.3,0,0,0,.36.24h0l2.93-.56a.3.3,0,0,0,.24-.35.3.3,0,0,0-.35-.24Z"/><path class="cls-2" d="M128.46,234.74c-1,.28-2,.56-2.91.86a.3.3,0,0,0-.21.35v0a.29.29,0,0,0,.35.2h0c.91-.28,1.88-.57,2.89-.85a.32.32,0,0,0,.21-.38A.33.33,0,0,0,128.46,234.74Z"/><path class="cls-2" d="M175,223.59a5.34,5.34,0,0,1-2.35,1.55.3.3,0,0,0-.19.33.14.14,0,0,0,0,.06.3.3,0,0,0,.34.19l.05,0a5.86,5.86,0,0,0,2.62-1.75.33.33,0,0,0,0-.22.27.27,0,0,0-.12-.2A.3.3,0,0,0,175,223.59Z"/><path class="cls-2" d="M173.83,218l.09,0a.28.28,0,0,0,.15-.32.36.36,0,0,0,0-.09c-.43-.79-.95-1.68-1.51-2.63a.31.31,0,0,0-.56.09.27.27,0,0,0,0,.23c.56.93,1.07,1.81,1.51,2.6A.3.3,0,0,0,173.83,218Z"/><path class="cls-2" d="M174.49,219a.3.3,0,0,0-.15.18.26.26,0,0,0,0,.23,12.41,12.41,0,0,1,1.06,2.62.38.38,0,0,1,0,.1h0a.32.32,0,0,0,.35.24h0A.29.29,0,0,0,176,222a.43.43,0,0,0,0-.12,12,12,0,0,0-1.12-2.78A.3.3,0,0,0,174.49,219Z"/><path class="cls-2" d="M171.05,213.65v0a.3.3,0,0,0,.3.12l.11,0a.3.3,0,0,0,.13-.32.14.14,0,0,0,0-.06h0l0,0c-.5-.83-1.05-1.69-1.62-2.57a.31.31,0,0,0-.42-.09.28.28,0,0,0-.13.2.29.29,0,0,0,0,.22c.36.55.92,1.43,1.61,2.53C171,213.64,171.05,213.64,171.05,213.65Z"/><path class="cls-2" d="M168.77,209.25a14,14,0,0,0-2.69-1.5.33.33,0,0,0-.39.19.3.3,0,0,0,.19.38,12.51,12.51,0,0,1,2.56,1.44.29.29,0,0,0,.22,0,.35.35,0,0,0,.2-.14.33.33,0,0,0,0-.22.35.35,0,0,0-.12-.19Z"/><path class="cls-2" d="M154.52,207.65l-3,.1a.32.32,0,0,0-.3.32.31.31,0,0,0,.32.29l2.34-.08.68,0h.05a.29.29,0,0,0,.24-.3s0,0,0,0A.31.31,0,0,0,154.52,207.65Z"/><path class="cls-2" d="M166.29,226.68c-.66.11-1.38.21-2.13.32l-.85.12h0a.3.3,0,0,0-.24.34v0a.31.31,0,0,0,.34.24l.85-.12,2.14-.33h0a.3.3,0,0,0,.24-.34.32.32,0,0,0-.12-.2A.32.32,0,0,0,166.29,226.68Z"/><path class="cls-2" d="M171,225.69q-1.17.33-2.67.63l-.25.05a.3.3,0,0,0-.24.35.3.3,0,0,0,.32.24l.28-.05c1-.2,1.93-.41,2.72-.63a.31.31,0,0,0,.21-.38A.32.32,0,0,0,171,225.69Z"/><path class="cls-2" d="M161.51,227.4l-2.95.51h-.05a.29.29,0,0,0-.22.34.31.31,0,0,0,.12.19.28.28,0,0,0,.23,0l3-.51h0a.3.3,0,0,0-.11-.59Z"/><path class="cls-2" d="M135.15,208.32l-2.43.09-.59,0a.28.28,0,0,0-.29.3.29.29,0,0,0,.09.22.35.35,0,0,0,.22.08l2.33-.08.69,0s0,0,.05,0a.31.31,0,0,0,.25-.31v-.05A.3.3,0,0,0,135.15,208.32Z"/><path class="cls-2" d="M120.63,208.82l-1.75.07-1.28,0a.31.31,0,0,0-.29.31.28.28,0,0,0,.1.21.28.28,0,0,0,.21.08l1.28,0,1.75-.06h0a.29.29,0,0,0,.24-.31v0A.31.31,0,0,0,120.63,208.82Z"/><path class="cls-2" d="M125.47,208.65l-3,.11a.3.3,0,0,0-.29.31.29.29,0,0,0,.31.29l2.11-.07.91,0h.05a.3.3,0,0,0,.24-.31s0,0,0,0A.31.31,0,0,0,125.47,208.65Z"/><path class="cls-2" d="M130.32,208.49l-2,.06-1,0a.32.32,0,0,0-.3.31.3.3,0,0,0,.32.29l1.06,0,2-.07h0a.31.31,0,0,0,.25-.31.43.43,0,0,0,0-.05A.29.29,0,0,0,130.32,208.49Z"/><path class="cls-2" d="M149.68,207.82l-3,.1a.31.31,0,0,0-.29.31.31.31,0,0,0,.09.21.27.27,0,0,0,.22.08l2.11-.07.92,0h.05a.31.31,0,0,0,.24-.31v-.05A.3.3,0,0,0,149.68,207.82Z"/><path class="cls-2" d="M144.84,208l-.61,0-2.42.08a.3.3,0,0,0-.29.31.29.29,0,0,0,.31.29l2.5-.08.53,0h0a.3.3,0,0,0,.24-.3.07.07,0,0,0,0-.05A.3.3,0,0,0,144.84,208Z"/><path class="cls-2" d="M140,208.15l-1.52,0-1.51.06a.3.3,0,1,0,0,.6l3-.11h.05a.29.29,0,0,0,.24-.31s0,0,0,0A.29.29,0,0,0,140,208.15Z"/><path class="cls-2" d="M159.4,207.49h0l-.44,0-2.59.08a.3.3,0,0,0-.29.32.32.32,0,0,0,.31.29l2.59-.09h.49a.3.3,0,0,0,.24-.3s0,0,0,0A.31.31,0,0,0,159.4,207.49Z"/><path class="cls-2" d="M115.78,209l-3,.11a.3.3,0,0,0-.29.31.29.29,0,0,0,.09.21.27.27,0,0,0,.22.08l3-.1h0a.31.31,0,0,0,.24-.31v0A.31.31,0,0,0,115.78,209Z"/><path class="cls-2" d="M91.88,220.84a7.4,7.4,0,0,0-.56-.56,5.06,5.06,0,0,0-.63-.55l-.37-.26-.29-.2a4.94,4.94,0,0,1-.57-.4c-.77-.58-1.52-1.24-2.26-1.91s-1.48-1.34-2.21-2c-1.47-1.37-2.91-2.78-4.34-4.19q-4.32-4.22-8.54-8.52c-1.43-1.44-2.84-2.84-4.17-4.32s-2.65-3-4-4.52l-7.77-9.25c-2.6-3.08-5.26-6.12-8-9.08s-5.6-5.83-8.58-8.55c5.43,6,10.5,12.21,15.5,18.52q3.73,4.75,7.55,9.46c2.56,3.11,5.31,6.16,8.16,9s5.71,5.7,8.64,8.49c1.47,1.39,2.94,2.76,4.45,4.12A56.62,56.62,0,0,0,88.63,220a7.26,7.26,0,0,0,.68.44c.11.07.26.15.34.21l.25.17a3.8,3.8,0,0,1,.52.43c.18.16.36.31.53.49.7.68,1.38,1.42,2,2.16,1.34,1.49,2.64,3,3.92,4.58,2.59,3.08,5.08,6.25,7.61,9.39-2.2-3.38-4.55-6.66-6.91-9.93-1.2-1.63-2.43-3.23-3.71-4.81C93.26,222.36,92.59,221.59,91.88,220.84Z"/><path class="cls-2" d="M167.85,206.16c8.76,9.57,9.58,16.9,9.58,16.9,2.23-3.83,5.14-3.07,5.14-3.07.78-6.51,2.31-14.4,2.31-14.4C179.06,209.4,167.85,206.16,167.85,206.16Z"/><path class="cls-2" d="M77.37,161.55C68.72,170,67.19,177.1,67.19,177.1A27.3,27.3,0,0,1,69.86,168a42.41,42.41,0,0,0-4.6,11.83c-.35-2.55-.7-4.33-.7-4.33-1.45,8.29.62,17.27.62,17.27a74.77,74.77,0,0,1,.69-11.37c.23,9.8,1.94,14.55,1.94,14.55,4.34,4.61,9.86,9.75,14.24,13.69a31.55,31.55,0,0,1-.67-4.72,31.67,31.67,0,0,0,1.91,5.84l2.17,1.91a22.63,22.63,0,0,1-1.2-5.95A22.21,22.21,0,0,0,87.07,214l2.4,2.08c-6.73-13.14.66-25.68.66-25.68a17.91,17.91,0,0,0-4.59,8c1.1-10.07,5.43-13.08,5.43-13.08C75,182.48,77.37,161.55,77.37,161.55Z"/><path class="cls-2" d="M126.54,111.27c-4.2-5.74-4.43-9-4.43-9-6.76,1.63-12.25,7.64-12.25,7.64,3.59-5.74,10.71-8.67,10.71-8.67a26,26,0,0,1-4.65-9c4-2.83,10-3.82,10-3.82-9,.23-18.26,3.69-18.26,3.69,3.09,7.91,2.82,11.76,2.82,11.76-6.82,10.68-9.92,15.8-9.92,15.8C112.44,112.6,126.54,111.27,126.54,111.27Z"/><path class="cls-2" d="M146.42,117.42c-.11,4.64,7.75,2.37,13.57,9.54a23.33,23.33,0,0,1-2.11-4.3,16.3,16.3,0,0,1-2.54-2.58,45.06,45.06,0,0,1-2.74-3.91,46.16,46.16,0,0,0,3.18,3.51,19.58,19.58,0,0,0,1.56,1.33c-.09-.32-.17-.64-.25-1,0,0-.39-1-.94-2.55a38.9,38.9,0,0,1-4.84-6.35,38.4,38.4,0,0,0,4.2,4.44c-.34-1.08-.7-2.32-1-3.66a25.26,25.26,0,0,1-4.25-6.64,24.27,24.27,0,0,0,3.81,4.78c-.26-1.15-.49-2.36-.67-3.58a25.24,25.24,0,0,1-3.55-7.07,24.69,24.69,0,0,0,3.3,5.15,23.7,23.7,0,0,1,.63-9.51,47.4,47.4,0,0,0-8.44.94,68.27,68.27,0,0,1,15.11-2.45s-5.11-.44-17.47,1.38a79.51,79.51,0,0,0,.8,12.46s-1.19,3.31-7.28,4.71c0,0,2.66,1.53,4.12,1.14S146.54,112.78,146.42,117.42Z"/><path class="cls-2" d="M163.4,122.39s2.53.33,7.91,3.17c0,0,1.34,1.07,4.82-1.56.26-.2-.32,1-3.77,5.87,0,0,6.58,4.24,11.48,14,0,0-1.26-4.31-2.43-7.75-.61-1.07-1.39-2.1-2-3.24a13,13,0,0,1-1.54-4.65,12.48,12.48,0,0,0,2,4.32c.17.24.36.47.55.69a12.06,12.06,0,0,1-.32-2.77,14.93,14.93,0,0,1-1.6-7.22,14.32,14.32,0,0,0,1.68,5.35,20.26,20.26,0,0,1,.45-2.7,25,25,0,0,1-.7-6.7,25,25,0,0,0,1.19,5,21.82,21.82,0,0,1,1.23-2.93,25.77,25.77,0,0,1-.48-6.54,24.44,24.44,0,0,0,1.14,5.33,24.76,24.76,0,0,1,5.9-6.73,28.6,28.6,0,0,0-8-2.12,111.51,111.51,0,0,1,11.52,1.22,48.07,48.07,0,0,0-14-2.38s-3.17,10.48-8.88,12.21a9.57,9.57,0,0,1-3.62-5.85A14.45,14.45,0,0,1,163.4,122.39Z"/><path class="cls-2" d="M185.94,180.73c-.22.87-.45,1.88-.66,3-.1.55-.23,1.11-.32,1.69s-.19,1.17-.29,1.75-.17,1.18-.26,1.76-.14,1.15-.21,1.71c-.13,1.11-.23,2.15-.29,3s-.08,1.64-.11,2.17,0,.82,0,.82.1-.28.24-.79.35-1.22.56-2.09.44-1.89.66-3c.1-.55.21-1.11.31-1.69l.3-1.75c.09-.59.17-1.18.25-1.76s.15-1.15.22-1.7c.13-1.11.23-2.15.29-3s.08-1.64.11-2.16,0-.83,0-.83-.1.29-.24.79S186.14,179.85,185.94,180.73Z"/><path class="cls-2" d="M195.34,120.24a64.7,64.7,0,0,0-2.3,6.23,66.29,66.29,0,0,0-2.11,9.18c-.25,1.71-.48,3.48-.6,5.29s-.17,3.65-.27,5.46a34.63,34.63,0,0,1-.58,5.33c-.33,1.73-.8,3.43-1.2,5.11a43,43,0,0,0-1.11,9.37c-.09,2.75-.1,5-.14,6.63s0,2.52,0,2.52.1-.91.26-2.51.38-3.87.6-6.6a48.71,48.71,0,0,1,1.45-9.15c.42-1.65.94-3.35,1.32-5.14a37.67,37.67,0,0,0,.64-5.5c.08-1.84.1-3.66.22-5.44s.27-3.53.49-5.22a84.59,84.59,0,0,1,1.73-9.14c.67-2.64,1.33-4.83,1.85-6.34.26-.76.47-1.35.61-1.75l.22-.62-.28.59C195.92,118.93,195.66,119.5,195.34,120.24Z"/><path class="cls-2" d="M163.24,110.69c0,.83,0,1.63,0,2.41a22.93,22.93,0,0,1-.6,4.2c-.29,1.23-.55,2.26-.76,3s-.29,1.14-.29,1.14.19-.38.51-1.06.77-1.64,1.2-2.85a17.47,17.47,0,0,0,1-4.33c.07-.81.11-1.65.11-2.5s0-1.7-.1-2.55-.12-1.7-.18-2.53-.14-1.65-.2-2.45c-.15-1.58-.3-3.06-.46-4.32s-.33-2.32-.42-3.06-.2-1.16-.2-1.16,0,.43,0,1.18-.05,1.81,0,3.08,0,2.76.09,4.35c0,.8,0,1.62.1,2.45s.09,1.68.14,2.53S163.22,109.87,163.24,110.69Z"/><path class="cls-2" d="M161.7,111.74a1.63,1.63,0,0,0,.12-.27c0-.17.15-.41.21-.7a6.27,6.27,0,0,0,.16-1c0-.18,0-.36,0-.55s0-.38,0-.57l0-.57c0-.19-.05-.37-.07-.55a7.17,7.17,0,0,0-.2-1c-.08-.29-.19-.52-.25-.69a1.74,1.74,0,0,0-.12-.26,2.6,2.6,0,0,0-.11.27,5.74,5.74,0,0,0-.22.69,6.69,6.69,0,0,0-.16,1c0,.18,0,.37,0,.56s0,.38,0,.57,0,.38,0,.57l.06.55a6.09,6.09,0,0,0,.21,1c.07.28.19.52.24.69Z"/><path class="cls-2" d="M131.35,108.51a2.81,2.81,0,0,0,.94,1.34c.39.3.73.48,1,.66a2.88,2.88,0,0,1,.75.67,1.63,1.63,0,0,0-.12-.25,3.3,3.3,0,0,0-.49-.6c-.23-.23-.55-.49-.83-.8a2.62,2.62,0,0,1-.59-1.23c-.22-1.06-.48-2.35-.72-3.7-.13-.68-.26-1.38-.37-2.1s-.23-1.44-.34-2.16-.22-1.46-.31-2.18-.18-1.42-.26-2.11l-.41-3.76c-.09-1.1-.2-2-.25-2.68s-.1-1-.1-1-.06.37-.13,1-.17,1.58-.21,2.7,0,2.43,0,3.83c0,.7.08,1.43.16,2.16s.17,1.47.28,2.22.24,1.47.39,2.19.31,1.43.47,2.11C130.59,106.19,131,107.43,131.35,108.51Z"/><path class="cls-2" d="M127.57,97.64a1.72,1.72,0,0,0-.14-.24,2.56,2.56,0,0,0-.09.25,6.12,6.12,0,0,0-.18.67,6.33,6.33,0,0,0-.12.94c0,.17,0,.35,0,.52s0,.36,0,.54,0,.36.07.54l.09.51a7.84,7.84,0,0,0,.25.91c.09.26.22.48.28.63s.14.24.14.24,0-.09.1-.26a5.57,5.57,0,0,0,.17-.66,6.33,6.33,0,0,0,.12-.94c0-.17,0-.35,0-.52s0-.36,0-.54l-.06-.54c0-.17-.07-.35-.09-.51a5.87,5.87,0,0,0-.26-.91C127.76,98,127.63,97.79,127.57,97.64Z"/><path class="cls-2" d="M85.85,103.17A30.73,30.73,0,0,1,88.93,106c.54.55,1,1.16,1.55,1.77s1,1.28,1.43,2a20.06,20.06,0,0,1,1.26,2.07c.4.7.73,1.4,1.06,2.11a9.57,9.57,0,0,0,1.19,2,3.72,3.72,0,0,1,.55.76,2,2,0,0,1,.16.8c0,1.24.11,2.29.14,3s.09,1.15.09,1.15.06-.42.15-1.14.21-1.76.31-3a2.75,2.75,0,0,0-.1-1.11,4.61,4.61,0,0,0-.57-1,9.27,9.27,0,0,1-.94-1.92c-.3-.72-.62-1.5-1-2.24a22.14,22.14,0,0,0-4.51-6,21,21,0,0,0-3.44-2.65,21.72,21.72,0,0,0-2.72-1.4c-.68-.27-1.08-.41-1.08-.41l1,.62C84,101.81,84.88,102.4,85.85,103.17Z"/><path class="cls-2" d="M93.18,126.57c2.08-1,4.51-2.25,7.11-3.53,1.32-.61,2.66-1.28,4-1.89s2.8-1.25,4.22-1.86,2.84-1.2,4.27-1.71,2.82-1,4.19-1.5c2.75-.88,5.34-1.65,7.61-2.14l1.62-.38,1.47-.28L129,113c.4-.07.77-.11,1.11-.16l2.11-.32-2.14.09c-.34,0-.72,0-1.12.06l-1.33.14-1.5.15-1.66.27a61.57,61.57,0,0,0-7.79,1.8c-1.39.45-2.84.87-4.28,1.43s-2.89,1.11-4.33,1.69-2.86,1.25-4.24,1.91-2.73,1.35-4,2c-2.58,1.35-5,2.67-7,3.86s-3.65,2.21-4.81,2.91L86.23,130l1.92-.93Z"/><path class="cls-2" d="M88.63,181.24a23.33,23.33,0,0,1-2.27-1.34c-.4-.27-.79-.57-1.19-.88A14.92,14.92,0,0,1,84,178c-.38-.34-.74-.7-1.08-1.07a14.24,14.24,0,0,1-1-1.12,18,18,0,0,1-1.49-2.16,11.13,11.13,0,0,1-.81-1.69c-.15-.44-.23-.7-.23-.7a4.82,4.82,0,0,0,0,.75,8.06,8.06,0,0,0,.41,1.93,11,11,0,0,0,1.26,2.49c.29.43.61.86.95,1.27a14,14,0,0,0,1.13,1.18c.41.37.84.72,1.27,1a11.93,11.93,0,0,0,1.34.84,12.08,12.08,0,0,0,4.48,1.47c.47,0,.74,0,.74,0l-.68-.28C89.92,181.88,89.33,181.59,88.63,181.24Z"/><path class="cls-2" d="M101,180.23l-1.07.05c-.79,0-1.7,0-2.67,0-.48,0-1-.06-1.49-.11s-1-.12-1.53-.18-1-.16-1.51-.27-1-.22-1.46-.33c-.93-.25-1.81-.5-2.55-.77-.38-.12-.72-.24-1-.35s-.57-.21-.78-.31l-.69-.26s.2.18.58.47c.18.14.41.31.69.49a7.13,7.13,0,0,0,.93.59A15,15,0,0,0,91,180.39c.49.15,1,.32,1.51.44s1.06.23,1.59.33,1.09.13,1.62.15,1.07,0,1.58,0A16.13,16.13,0,0,0,100,181a9.54,9.54,0,0,0,1.07-.29c.32-.1.59-.19.81-.28.44-.17.68-.28.68-.28l-.73,0A6.47,6.47,0,0,1,101,180.23Z"/><path class="cls-2" d="M117.39,182.24a5.9,5.9,0,0,0-.67-.62,11,11,0,0,0-1.9-1.28,11.51,11.51,0,0,0-1.17-.55c-.41-.18-.83-.31-1.26-.46s-.87-.23-1.31-.3-.86-.13-1.28-.18a11.41,11.41,0,0,0-2.29,0,6.74,6.74,0,0,0-.9.15l-.68.17-.58.18s.22,0,.6.05a6.56,6.56,0,0,1,.69.05l.87.09c.64.07,1.37.19,2.15.32.38.08.78.15,1.18.27s.8.21,1.21.32.8.24,1.18.39.77.28,1.14.42c.72.31,1.4.61,2,.9l.78.4c.24.12.45.23.61.33l.53.29s-.13-.17-.39-.47A5.26,5.26,0,0,0,117.39,182.24Z"/><path class="cls-2" d="M43.54,168.6c.85,1,1.87,2.16,3,3.37.55.61,1.13,1.23,1.72,1.87l1.79,1.9,1.83,1.87c.6.62,1.21,1.21,1.79,1.79,1.17,1.15,2.28,2.21,3.25,3.11s1.8,1.62,2.37,2.13.92.79.92.79l-.75-1c-.5-.59-1.17-1.45-2-2.45s-1.87-2.15-3-3.37c-.56-.6-1.12-1.24-1.72-1.86l-1.8-1.9L49.07,173l-1.79-1.8C46.11,170.08,45,169,44,168.12s-1.8-1.61-2.36-2.13-.92-.79-.92-.79.26.36.75,1S42.68,167.61,43.54,168.6Z"/><path class="cls-2" d="M42.82,165c.41.49.9,1,1.45,1.61l.86.87.9.88.93.85c.31.28.63.54.93.8.61.51,1.19,1,1.7,1.34s1,.66,1.27.88l.5.31s-.12-.19-.34-.49-.55-.73-1-1.21-.9-1-1.45-1.62c-.28-.28-.55-.58-.85-.87l-.9-.87-.93-.84-.93-.8c-.6-.51-1.18-1-1.7-1.34s-1-.66-1.27-.88-.5-.31-.5-.31.11.18.34.48S42.41,164.47,42.82,165Z"/><path class="cls-2" d="M43.6,162c.26.3.57.63.92,1l.53.51.57.52.58.49c.19.17.39.31.58.47.38.3.75.56,1.07.78s.63.38.82.51.33.18.33.18a3.62,3.62,0,0,0-.16-.34c-.12-.2-.27-.51-.5-.84a9.78,9.78,0,0,0-.83-1.07,6.82,6.82,0,0,0-.53-.55l-.57-.54-.61-.5-.61-.44A8.85,8.85,0,0,0,44,161.5a8.75,8.75,0,0,0-.89-.39l-.36-.12a3,3,0,0,0,.22.31C43.14,161.47,43.33,161.75,43.6,162Z"/><path class="cls-2" d="M177.13,180c-.41-.42-.86-.92-1.41-1.43a60.54,60.54,0,0,0-9.81-7.74A78.8,78.8,0,0,0,150,163.16c-3-1.09-6.25-2.09-9.54-2.93s-6.67-1.6-10.05-2.25-6.79-1.2-10.14-1.72-6.62-1-9.73-1.78a37.86,37.86,0,0,1-8.62-3.08,30.66,30.66,0,0,1-6.73-4.69,31.59,31.59,0,0,1-8.66-13.08l-.4-1.17.33,1.19a29.36,29.36,0,0,0,1.18,3.3,31.53,31.53,0,0,0,7.08,10.27,30.4,30.4,0,0,0,6.78,5,37.83,37.83,0,0,0,8.78,3.32c3.16.8,6.47,1.35,9.81,1.9s6.72,1.09,10.09,1.75,6.72,1.36,10,2.2,6.46,1.75,9.49,2.8a84.72,84.72,0,0,1,15.91,7.27,62.84,62.84,0,0,1,10,7.32c.57.49,1,1,1.47,1.36s.77.75,1.05,1l.87.88-.82-.93C177.87,180.8,177.54,180.43,177.13,180Z"/><path class="cls-2" d="M177.84,173.1c-2.11-2.11-5.1-5.16-9-8.48a62.38,62.38,0,0,0-14.69-9.55,72.09,72.09,0,0,0-9.34-3.34,92.85,92.85,0,0,0-9.94-2.38,57,57,0,0,0-10.22-.87c-3.37,0-6.67.17-9.84.12a40.19,40.19,0,0,1-9-1,25.8,25.8,0,0,1-7.47-3.1A27.27,27.27,0,0,1,89.65,136,26.63,26.63,0,0,1,88,133l-.5-1.12.43,1.15a26.91,26.91,0,0,0,1.52,3.12,27.35,27.35,0,0,0,3.17,4.37,26.41,26.41,0,0,0,5.31,4.6,25.76,25.76,0,0,0,7.62,3.39,39.87,39.87,0,0,0,9.23,1.16c3.21.08,6.52,0,9.85,0a56.45,56.45,0,0,1,10,.88,97.57,97.57,0,0,1,9.83,2.32,75.87,75.87,0,0,1,9.23,3.19,65.47,65.47,0,0,1,14.68,9.12c4,3.19,7.11,6.08,9.29,8.11l3.43,3.19S179.94,175.22,177.84,173.1Z"/><path class="cls-2" d="M161.12,155.9l1,.65c.63.42,1.48,1.07,2.47,1.87s2.1,1.79,3.27,2.88l1.8,1.69,1.88,1.74,1.9,1.72c.63.57,1.26,1.1,1.87,1.63,1.21,1.06,2.36,2,3.36,2.84s1.87,1.46,2.45,1.93,1,.71,1,.71-.28-.33-.79-.89-1.23-1.35-2.14-2.27-2-2-3.12-3.1c-.58-.56-1.17-1.14-1.79-1.71l-1.88-1.75-1.9-1.71-1.89-1.63a34.45,34.45,0,0,0-3.56-2.64,23.09,23.09,0,0,0-2.76-1.51c-.34-.16-.62-.27-.81-.34Z"/><path class="cls-2" d="M182.64,171.31s-.13-.24-.39-.66-.63-1-1.12-1.68-1.1-1.44-1.78-2.23c-.35-.38-.69-.8-1.08-1.19l-1.16-1.18-1.22-1.12-1.23-1c-.81-.66-1.59-1.24-2.28-1.7s-1.3-.82-1.71-1.07l-.68-.37.53.56,1.42,1.41,2,2,1.14,1.1,1.17,1.14,1.17,1.13,1.14,1.1,2,2,1.47,1.37C182.42,171.13,182.64,171.31,182.64,171.31Z"/><path class="cls-2" d="M177,161.88l.52.52.55.51.56.5c.18.17.38.32.56.47.37.31.72.58,1,.8s.61.39.8.52a3.11,3.11,0,0,0,.32.18s-.05-.13-.15-.34-.25-.51-.46-.84a11.87,11.87,0,0,0-.8-1.08c-.17-.18-.32-.38-.51-.55l-.55-.55-.59-.5-.61-.45a9.19,9.19,0,0,0-1.15-.69c-.34-.19-.67-.29-.88-.39a3.34,3.34,0,0,0-.35-.11,3.05,3.05,0,0,0,.21.3c.15.18.34.45.6.74A12.51,12.51,0,0,0,177,161.88Z"/><path class="cls-2" d="M181.37,161s0-.09-.09-.22-.15-.32-.28-.51a3.65,3.65,0,0,0-.48-.61c-.1-.1-.19-.21-.3-.3l-.34-.29-.36-.25-.37-.22a3.39,3.39,0,0,0-.71-.32,5.41,5.41,0,0,0-.56-.15,1.22,1.22,0,0,0-.23,0l.09.21c.07.12.15.32.28.51a4.26,4.26,0,0,0,.48.61l.3.31.34.28.36.26a2.77,2.77,0,0,0,.37.22,4,4,0,0,0,.71.32,5.41,5.41,0,0,0,.56.15Z"/><path class="cls-2" d="M181.52,157.78a.63.63,0,0,0,.17,0,.67.67,0,0,0-.05-.16,3.12,3.12,0,0,0-.15-.36,2.06,2.06,0,0,0-.25-.4,1.46,1.46,0,0,0-.16-.19l-.18-.18-.19-.15-.21-.13a2.69,2.69,0,0,0-.43-.19c-.14,0-.29-.07-.38-.1l-.17,0a1.33,1.33,0,0,0,0,.17,1.26,1.26,0,0,0,0,.41,1.65,1.65,0,0,0,.19.49c.06.07.11.15.17.23l.2.21.24.17a1.23,1.23,0,0,0,.25.14,1.58,1.58,0,0,0,.92.11Z"/><path class="cls-2" d="M182.17,154.1a1.29,1.29,0,0,0-.16-.18l-.17-.16-.21-.13-.21-.11a1.85,1.85,0,0,0-.44-.1,2.26,2.26,0,0,0-.37,0l-.16,0s0,.07,0,.16,0,.23.09.36a1.31,1.31,0,0,0,.22.4l.15.19.17.16.21.13a.81.81,0,0,0,.21.1,1.49,1.49,0,0,0,.44.11,2.25,2.25,0,0,0,.37,0l.16,0s0-.07,0-.17,0-.23-.09-.36A1.93,1.93,0,0,0,182.17,154.1Z"/><path class="cls-2" d="M182.82,152.32l.14,0v-.14a2,2,0,0,0,0-.31.9.9,0,0,0-.13-.32c0-.05-.06-.11-.11-.14l-.13-.12-.15-.08-.17-.06a1.35,1.35,0,0,0-.35,0,1.67,1.67,0,0,0-.3.07.52.52,0,0,0-.13,0,.94.94,0,0,0,0,.14,1.92,1.92,0,0,0,0,.3,1,1,0,0,0,.14.33l.1.14.13.11.15.09a1.09,1.09,0,0,0,.17.05.82.82,0,0,0,.35,0A1.76,1.76,0,0,0,182.82,152.32Z"/><path class="cls-2" d="M181.52,149.32l.13.14.15.11a1.3,1.3,0,0,0,.17.08,1,1,0,0,0,.37.08,2.88,2.88,0,0,0,.32,0l.14,0,0-.14a1.89,1.89,0,0,0,0-.32,1.37,1.37,0,0,0-.11-.36c0-.05-.06-.12-.1-.16l-.13-.14-.15-.11-.17-.08a1,1,0,0,0-.37-.08,3.11,3.11,0,0,0-.32,0l-.14,0s0,.06,0,.15,0,.21,0,.32a1.42,1.42,0,0,0,.11.35Z"/><path class="cls-2" d="M183,147.32a.69.69,0,0,0,.19,0,1.11,1.11,0,0,0,0-.18c0-.1,0-.26-.1-.42a2.16,2.16,0,0,0-.23-.49,1.94,1.94,0,0,0-.15-.24l-.18-.24-.21-.2-.23-.19a2.83,2.83,0,0,0-.46-.28c-.15-.07-.31-.1-.41-.14l-.18,0a.86.86,0,0,0,0,.18,2.53,2.53,0,0,0,0,.43,1.91,1.91,0,0,0,.2.53l.15.27.19.25.23.21a1.43,1.43,0,0,0,.24.19,2,2,0,0,0,.51.25A1.67,1.67,0,0,0,183,147.32Z"/><path class="cls-2" d="M179.37,141.71c.45.48.85.85,1.12,1.14s.44.42.44.42-.08-.2-.25-.56-.41-.85-.76-1.42a18.22,18.22,0,0,0-1.29-1.88c-.26-.33-.51-.68-.81-1s-.59-.65-.9-1l-.95-.92-1-.84a20.15,20.15,0,0,0-1.84-1.33,15.2,15.2,0,0,0-1.41-.8c-.34-.18-.55-.27-.55-.27s.15.18.41.45.65.69,1.11,1.15l1.57,1.59c.29.29.59.58.88.89l.9.92c.3.31.61.62.9.93l.86.9Z"/><path class="cls-2" d="M107.78,121.41c2.14-1.1,4.16-2,5.91-2.86s3.22-1.45,4.25-1.88l1.63-.69-1.7.47c-1.08.34-2.63.79-4.44,1.46s-3.92,1.51-6.11,2.54c-1.1.52-2.23,1.06-3.35,1.66s-2.26,1.22-3.38,1.86-2.21,1.34-3.28,2-2.09,1.41-3.08,2.11a21.4,21.4,0,0,0-2.79,2.22,3.64,3.64,0,0,0-.89,1.56,3.7,3.7,0,0,0,0,1.66,13.26,13.26,0,0,0,1.94,4.31,9.78,9.78,0,0,0,.8,1l.31.35-.25-.39c-.17-.25-.39-.63-.66-1.12a14.13,14.13,0,0,1-1.46-4.31,3.07,3.07,0,0,1,.07-1.32,2.75,2.75,0,0,1,.77-1.15,27.08,27.08,0,0,1,2.74-2c1-.66,2-1.33,3.11-2s2.16-1.32,3.26-2,2.21-1.27,3.32-1.87S106.72,122,107.78,121.41Z"/><path class="cls-2" d="M103.85,145.07l-1.09-.44c-.37-.14-.74-.3-1.11-.46s-.75-.3-1.1-.48-.71-.33-1-.5c-.67-.35-1.28-.69-1.8-1l-.7-.45a4.64,4.64,0,0,1-.53-.38c-.29-.21-.48-.33-.48-.33l.31.5c.1.15.23.33.4.54a5.33,5.33,0,0,0,.57.66A9.88,9.88,0,0,0,99,144.1c.34.21.69.43,1.06.63s.76.37,1.14.56.79.31,1.19.44.79.24,1.16.35a19.58,19.58,0,0,0,2.11.42c.62.1,1.15.12,1.52.16l.58,0s-.19-.1-.53-.25-.81-.37-1.39-.6Z"/><path class="cls-2" d="M126.39,115.38c-.44.05-.78.12-1,.16l-.36.07h.37c.23,0,.58,0,1,0a27,27,0,0,1,3.6.3A34.88,34.88,0,0,1,135,117c.89.27,1.79.59,2.7.95s1.81.75,2.7,1.17,1.78.87,2.64,1.34,1.7.94,2.5,1.43c1.6,1,3.07,1.91,4.34,2.73l3,2,1.17.75s-.36-.35-1-.94-1.6-1.43-2.79-2.37-2.59-2-4.17-3.07c-.8-.52-1.63-1-2.5-1.55s-1.77-1-2.69-1.41-1.87-.82-2.81-1.17-1.89-.64-2.82-.88a25.71,25.71,0,0,0-5.17-.8A21.41,21.41,0,0,0,126.39,115.38Z"/><path class="cls-2" d="M157.64,129.81l.33.23.35.22.36.2c.11.07.25.11.36.17a5,5,0,0,0,.69.26c.21.07.42.1.54.13l.23,0a1.21,1.21,0,0,0-.08-.22,3.22,3.22,0,0,0-.27-.5,3.1,3.1,0,0,0-.52-.59,3,3,0,0,0-.33-.28l-.37-.25-.4-.2-.4-.16a3.92,3.92,0,0,0-.77-.16,4.9,4.9,0,0,0-.57,0l-.23,0a2.06,2.06,0,0,0,.14.19c.1.09.22.26.38.41A7.27,7.27,0,0,0,157.64,129.81Z"/></svg>