<svg id="Capa_1" data-name="Capa 1" xmlns="http://www.w3.org/2000/svg" viewBox="0 0 250 113.51"><defs><style>.cls-1{fill:#fff9de;}.cls-2{fill:#231f20;}</style></defs><path class="cls-1" d="M2.7,53.15v7.21a2.48,2.48,0,0,0,2.48,2.48H6.76V50.68H5.18A2.48,2.48,0,0,0,2.7,53.15Z"/><path class="cls-1" d="M23.93,35.13H13a3.56,3.56,0,0,0-3.55,3.55V74.83A3.55,3.55,0,0,0,13,78.38H23.93a3.55,3.55,0,0,0,3.55-3.55V38.68A3.56,3.56,0,0,0,23.93,35.13Z"/><path class="cls-1" d="M44.65,18H33.73a3.55,3.55,0,0,0-3.55,3.54V92a3.55,3.55,0,0,0,3.55,3.54H44.65A3.55,3.55,0,0,0,48.2,92V21.56A3.55,3.55,0,0,0,44.65,18Z"/><path class="cls-1" d="M65.37,2.7H54.45A3.55,3.55,0,0,0,50.9,6.25v101a3.55,3.55,0,0,0,3.55,3.55H65.37a3.55,3.55,0,0,0,3.55-3.55V6.25A3.55,3.55,0,0,0,65.37,2.7Z"/><path class="cls-1" d="M237,35.13H226.07a3.56,3.56,0,0,0-3.55,3.55V74.83a3.55,3.55,0,0,0,3.55,3.55H237a3.55,3.55,0,0,0,3.55-3.55V38.68A3.56,3.56,0,0,0,237,35.13Z"/><path class="cls-1" d="M244.82,50.68h-1.58V62.84h1.58a2.48,2.48,0,0,0,2.48-2.48V53.15A2.48,2.48,0,0,0,244.82,50.68Z"/><rect class="cls-1" x="71.62" y="50.68" width="106.76" height="12.16"/><path class="cls-1" d="M195.55,2.7H184.63a3.55,3.55,0,0,0-3.55,3.55v101a3.55,3.55,0,0,0,3.55,3.55h10.92a3.55,3.55,0,0,0,3.55-3.55V6.25A3.55,3.55,0,0,0,195.55,2.7Z"/><path class="cls-1" d="M216.27,18H205.35a3.55,3.55,0,0,0-3.55,3.54V92a3.55,3.55,0,0,0,3.55,3.54h10.92A3.55,3.55,0,0,0,219.82,92V21.56A3.55,3.55,0,0,0,216.27,18Z"/><path class="cls-2" d="M244.82,48h-1.58V38.68A6.26,6.26,0,0,0,237,32.43H226.07a6.21,6.21,0,0,0-3.55,1.12v-12a6.26,6.26,0,0,0-6.25-6.25H205.35a6.21,6.21,0,0,0-3.55,1.12V6.25A6.25,6.25,0,0,0,195.55,0H184.63a6.25,6.25,0,0,0-6.25,6.25V48H71.62V6.25A6.25,6.25,0,0,0,65.37,0H54.45A6.25,6.25,0,0,0,48.2,6.25V16.43a6.21,6.21,0,0,0-3.55-1.12H33.73a6.26,6.26,0,0,0-6.25,6.25v12a6.21,6.21,0,0,0-3.55-1.12H13a6.26,6.26,0,0,0-6.25,6.25V48H5.18A5.19,5.19,0,0,0,0,53.15v7.21a5.18,5.18,0,0,0,5.18,5.18H6.76v9.29A6.25,6.25,0,0,0,13,81.08H23.93A6.2,6.2,0,0,0,27.48,80V92a6.26,6.26,0,0,0,6.25,6.25H44.65a6.21,6.21,0,0,0,3.55-1.12v10.18a6.25,6.25,0,0,0,6.25,6.25H65.37a6.25,6.25,0,0,0,6.25-6.25V65.54H178.38v41.72a6.25,6.25,0,0,0,6.25,6.25h10.92a6.25,6.25,0,0,0,6.25-6.25V97.08a6.21,6.21,0,0,0,3.55,1.12h10.92A6.26,6.26,0,0,0,222.52,92V80a6.2,6.2,0,0,0,3.55,1.11H237a6.25,6.25,0,0,0,6.25-6.25V65.54h1.58A5.18,5.18,0,0,0,250,60.36V53.15A5.19,5.19,0,0,0,244.82,48Zm-94.51,6.56-2.93-3.85h5.86Zm4.31-1.2v6.85L152,56.76Zm-6,3.43L145.4,61l-3.22-4.22,3.22-4.23Zm-8.13-2.23-2.93-3.85h5.86Zm-1.69,2.23L135.57,61l-3.21-4.22,3.21-4.23Zm-8.13-2.23-2.93-3.85h5.86ZM129,56.76,125,62l-4-5.2,4-5.2Zm-9.62-2.23-2.93-3.85h5.86Zm-1.7,2.23L114.43,61l-3.22-4.22,3.22-4.23Zm-8.12-2.23-2.93-3.85h5.86Zm-1.7,2.23L104.6,61l-3.21-4.22,3.21-4.23Zm-8.13-2.23-2.93-3.85h5.86ZM98,56.76l-2.61,3.42V53.33Zm-5.31,6.08H91.33V50.68h1.35Zm7-3.85,2.93,3.85H96.76Zm9.83,0,2.93,3.85h-5.86Zm9.82,0,2.93,3.85h-5.86Zm11.32,0,2.93,3.85h-5.86Zm9.82,0,2.93,3.85h-5.86Zm9.83,0,2.93,3.85h-5.86Zm7-8.31h1.35V62.84h-1.35ZM5.18,62.84A2.48,2.48,0,0,1,2.7,60.36V53.15a2.48,2.48,0,0,1,2.48-2.47H6.76V62.84ZM23.93,78.38H13a3.55,3.55,0,0,1-3.55-3.55V38.68A3.56,3.56,0,0,1,13,35.13H23.93a3.56,3.56,0,0,1,3.55,3.55V74.83A3.55,3.55,0,0,1,23.93,78.38ZM44.65,95.49H33.73A3.55,3.55,0,0,1,30.18,92V21.56A3.55,3.55,0,0,1,33.73,18H44.65a3.55,3.55,0,0,1,3.55,3.54V92A3.55,3.55,0,0,1,44.65,95.49Zm24.27,11.77a3.55,3.55,0,0,1-3.55,3.55H54.45a3.55,3.55,0,0,1-3.55-3.55V6.25A3.55,3.55,0,0,1,54.45,2.7H65.37a3.55,3.55,0,0,1,3.55,3.55v101Zm2.7-56.58h17V62.84h-17Zm89.75,12.16V50.68h17V62.84Zm37.73,44.42a3.55,3.55,0,0,1-3.55,3.55H184.63a3.55,3.55,0,0,1-3.55-3.55V6.25a3.55,3.55,0,0,1,3.55-3.55h10.92a3.55,3.55,0,0,1,3.55,3.55v101ZM219.82,92a3.55,3.55,0,0,1-3.55,3.54H205.35A3.55,3.55,0,0,1,201.8,92V21.56A3.55,3.55,0,0,1,205.35,18h10.92a3.55,3.55,0,0,1,3.55,3.54V92Zm20.72-17.12A3.55,3.55,0,0,1,237,78.38H226.07a3.55,3.55,0,0,1-3.55-3.55V38.68a3.56,3.56,0,0,1,3.55-3.55H237a3.56,3.56,0,0,1,3.55,3.55V74.83Zm6.76-14.47a2.48,2.48,0,0,1-2.48,2.48h-1.58V50.68h1.58a2.48,2.48,0,0,1,2.48,2.47Z"/><path class="cls-2" d="M2.87,51c-.4,2.83.31,5.71.18,8.56.26-3.28.63-6.57.9-9.85C3.52,50.3,3,50.33,2.87,51Z"/><path class="cls-2" d="M9.46,35.16l.39,25.76c.29-8.9.62-17.63.91-26.53C10.37,34.4,9.46,34.77,9.46,35.16Z"/><path class="cls-2" d="M30.09,18.27q.68,17.31.47,34.63c.54-11.84.79-23.61.78-35.46A2.61,2.61,0,0,0,30.09,18.27Z"/><path class="cls-2" d="M50.91,3q.68,17.09.36,34.2c.78-11.88.74-23.73,1.42-35.5C52.07,2.09,51.53,2.59,50.91,3Z"/><path class="cls-2" d="M71.13,50.18c5.39.58,10.81.92,16.23,1a169.22,169.22,0,0,0-17,1C70.61,51.43,71.23,51,71.13,50.18Z"/><path class="cls-2" d="M180.37,108q.1-25.47,1.31-50.9a53.76,53.76,0,0,1,.32,5.68c.19,16.15.37,32.3-.13,48.45A5.12,5.12,0,0,1,180.37,108Z"/><path class="cls-2" d="M201.09,94.48q.34-18.53,1.34-37.05c.29,12.83.28,25.45-.4,38.27C201.59,95.49,201.35,94.9,201.09,94.48Z"/><path class="cls-2" d="M222.31,77.82q.44-12.28.57-24.58c.06,8.48.39,17.05.46,25.53C222.94,78.31,222.71,78.28,222.31,77.82Z"/><path class="cls-2" d="M243.07,50.2q.1,4.3.53,8.6a74.8,74.8,0,0,1,.59-8.71.22.22,0,0,0,0-.16.2.2,0,0,0-.14-.06C243.55,49.8,243.52,50,243.07,50.2Z"/><path class="cls-2" d="M6.39,62.49A6.73,6.73,0,0,0,6.05,61c-.12-.38-.35-.79-.74-.85a1,1,0,0,0-.75.32,1,1,0,0,0-.29.35,1.31,1.31,0,0,0-.07.56,2.51,2.51,0,0,0,.12.82.75.75,0,0,0,.57.46,2.27,2.27,0,0,1-1.52-1.69,6.79,6.79,0,0,1,0-2.38l.42-3.91a3.29,3.29,0,0,0,.18,2,1,1,0,0,0,.27.44.78.78,0,0,0,.81.06,2,2,0,0,0,.88-1.5A32.94,32.94,0,0,0,6.59,51,79.71,79.71,0,0,0,6.39,62.49Z"/><path class="cls-2" d="M27.15,46.56a31.43,31.43,0,0,1-1.77,9.95,23.51,23.51,0,0,1-1.38,3,14.29,14.29,0,0,1-1.14,1.76A10.05,10.05,0,0,1,13,64.81a4.24,4.24,0,0,1-2.8-1.66,5.29,5.29,0,0,1-.47-1.72l.12,13.68a7.44,7.44,0,0,1,3-3.58,11.53,11.53,0,0,1,2.19-1,13.09,13.09,0,0,1,5.12-.93,7,7,0,0,1,4.72,2A9.37,9.37,0,0,1,26.94,76c.32-5.17-.1-10.28,0-15.45C27,55.91,27.31,51.21,27.15,46.56Z"/><path class="cls-2" d="M47.46,79.44a5.17,5.17,0,0,0-4.73-3.72,8,8,0,0,0-5.81,2.34,18.56,18.56,0,0,0-3.65,5.27,55.57,55.57,0,0,0-2.84,6.81q.41-18.45-.06-36.9c.45,2.34,1.21,5.1,3.28,6.3s5.11.58,7.07-1A17,17,0,0,0,45,52.28q1.68-3.6,3.07-7.34C47.54,56.33,47.17,68,47.46,79.44Z"/><path class="cls-2" d="M68.37,83.46a15.91,15.91,0,0,0-2.1-4.94,8,8,0,0,0-11.72-1.29,26.48,26.48,0,0,0-3.3,4.19q.24-17.74.17-35.48a59.19,59.19,0,0,0,1.11,5.94,8.8,8.8,0,0,0,1.52,3.5,5.76,5.76,0,0,0,6,1.57A8.92,8.92,0,0,0,65,52.79a21,21,0,0,0,2.2-6.18c.44-2,.79-4,1.06-6C68.17,55,68.44,69.09,68.37,83.46Z"/><path class="cls-2" d="M68.31,85.66q.16,10-.07,20a6.91,6.91,0,0,1-.36,2.48A2.37,2.37,0,0,1,66,109.71a4,4,0,0,1-1.62-.35,13.05,13.05,0,0,0-7.13-.58c-.63.14-1.42.64-1.17,1.24s.83.5,1.33.45a11.11,11.11,0,0,1-3.36-.27,3.71,3.71,0,0,1-2.5-2.1,5.41,5.41,0,0,1-.22-2l.06-6.27A5.54,5.54,0,0,0,55.25,104a7.45,7.45,0,0,0,5.66-.78A11.89,11.89,0,0,0,65,99.1C67.47,95.23,68.29,90.24,68.31,85.66Z"/><path class="cls-2" d="M47.45,93a3.25,3.25,0,0,1-1.62,1.9,5.18,5.18,0,0,1-2.11.35c-3.46.08-6.8.11-10.26.07.73-.65,1.81-.72,2.65-1.22a2.9,2.9,0,0,0,1.23-3.28,3.37,3.37,0,0,0-2.81-2.18A5,5,0,0,0,31,89.65a29.11,29.11,0,0,1,4.19-8.49A5.51,5.51,0,0,0,36,86.64a7.72,7.72,0,0,0,5,2.65,6,6,0,0,0,3.75-.6A5.45,5.45,0,0,0,47,85.87a11.6,11.6,0,0,0,.62-3.61C47.65,85,47.74,92.16,47.45,93Z"/><path class="cls-2" d="M26.52,76.3a2.86,2.86,0,0,1-1.7,1.42,7.64,7.64,0,0,1-2.23.35,70,70,0,0,1-8.81,0,5.63,5.63,0,0,1-2.08-.41A2.07,2.07,0,0,1,10.43,76c.24.92,1.34,1.16,2.28,1.29a25.76,25.76,0,0,0,2.77.18A13,13,0,0,0,19.75,77,5.33,5.33,0,0,0,23,74.37a3.42,3.42,0,0,0-.68-4A7.7,7.7,0,0,1,26.52,76.3Z"/><path class="cls-2" d="M87.61,62.42l-15.45,0c.36-1.35.52-2.61.77-4,.06-.34,0-.79-.28-.87s-.52.27-.64.55a25.36,25.36,0,0,0,0-5.37,16.78,16.78,0,0,0,2.72,4.89,9.84,9.84,0,0,0,2,2A11.45,11.45,0,0,0,81,61.26,31.92,31.92,0,0,0,87.61,62.42Z"/><path class="cls-2" d="M91,50.28q.39,5.37.64,10.76c.21-3.63.37-7,.59-10.66a.4.4,0,0,0,0-.25.38.38,0,0,0-.23-.08A3.22,3.22,0,0,0,91,50.28Z"/><path class="cls-2" d="M157,49.94l.54,11c.14-3.77.33-7.44.58-11.21A1.56,1.56,0,0,0,157,49.94Z"/><path class="cls-2" d="M177.92,62.4a61.38,61.38,0,0,1-7.55.13c.28.08.56-.23.52-.52a.76.76,0,0,0-.58-.59,2.37,2.37,0,0,0-.88,0l-7.74,1.07c.08-3.66.11-7.32.07-11l.35,2.34c.28,1.9.67,4,2.21,5.16a6.26,6.26,0,0,0,3.4,1,18.59,18.59,0,0,1,3.58.38,20.64,20.64,0,0,1,2.14.84A13.27,13.27,0,0,0,177.92,62.4Z"/><path class="cls-2" d="M97.65,56.63a14.46,14.46,0,0,1-1.43-1.7,4.25,4.25,0,0,0-.58-.76c0,1.62,0,3.24,0,4.87.1-.51.14-1,.24-1.51a1.6,1.6,0,0,1,.56-1.11.8.8,0,0,1,.72-.06C97.34,56.45,97.41,56.58,97.65,56.63Z"/><path class="cls-2" d="M107.49,56.81a20.54,20.54,0,0,0-1.85,2.51,6.53,6.53,0,0,0,.58-1.58,2.19,2.19,0,0,0-.27-1.63,2.13,2.13,0,0,0-2.23-.73,4.44,4.44,0,0,0-2.07,1.29q1.41-1.87,2.91-3.66c.73.53.84,1.54,1.3,2.32.16.29.44.57.76.53.07,0,.13,0,.19,0a.27.27,0,0,1,.11.1C107.12,56.24,107.29,56.52,107.49,56.81Z"/><path class="cls-2" d="M117.32,56.74c-.49.7-1,1.38-1.39,2.12a2.43,2.43,0,0,0-.44-2.66,2.29,2.29,0,0,0-2.08-.37,6.79,6.79,0,0,0-2,1l2.83-3.89a1.12,1.12,0,0,0-.14.48,2,2,0,0,0,0,1,1.25,1.25,0,0,0,.77.7.54.54,0,0,0,.51,0,.5.5,0,0,0,.15-.41,1.71,1.71,0,0,0,0-.45c.08.15.18.29.27.43C116.31,55.32,116.85,56,117.32,56.74Z"/><path class="cls-2" d="M128.73,56.85c-.42.5-.77,1-1.17,1.47a2.28,2.28,0,0,0-1-2.38,3.59,3.59,0,0,0-2.63-.48,5.19,5.19,0,0,0-2.59,1.19q1.77-2.24,3.4-4.57c0,.06,0,.15,0,.21a4,4,0,0,0-.39,1.21,1.2,1.2,0,0,0,.2,1,1,1,0,0,0,.72.29.76.76,0,0,0,.45-.08.78.78,0,0,0,.25-.29,1.72,1.72,0,0,0,.12-1.35l.86,1.54a7.23,7.23,0,0,0,.45.76A8,8,0,0,0,128.73,56.85Z"/><path class="cls-2" d="M138.52,56.78a26.21,26.21,0,0,1-1.76-2.42,1.51,1.51,0,0,1,.18.64.35.35,0,0,1-.13.27.39.39,0,0,1-.41-.06,2,2,0,0,1-.66-1.15,7,7,0,0,1-.22-1.2,32.14,32.14,0,0,1-3,3.82,2.66,2.66,0,0,1,3.06-.52A2.7,2.7,0,0,1,137,59,13.19,13.19,0,0,1,138.52,56.78Z"/><path class="cls-2" d="M148.45,56.81a9.21,9.21,0,0,0-1,1.35,2.18,2.18,0,0,0-.93-1.87,2.91,2.91,0,0,0-2.09-.45,4.26,4.26,0,0,0-2,.84,40.75,40.75,0,0,0,2.94-3.75c.39.75.82,1.47,1.22,2.22a.57.57,0,0,0,.2.26.23.23,0,0,0,.3,0c.08-.1,0-.25.09-.36Z"/><path class="cls-2" d="M154.5,59c0-1.18,0-2.36,0-3.54,0,.17-.17.34-.33.28s-.16-.26-.14-.42a5.06,5.06,0,0,1,.37-1.37c-.84.83-1.35,1.93-2.18,2.76a1.33,1.33,0,0,1,1.17-.31,1.24,1.24,0,0,1,.64.74A4.66,4.66,0,0,1,154.5,59Z"/><path class="cls-2" d="M152.33,51a34.16,34.16,0,0,1-4.29-.12c.39.08.74.2,1.13.29a3.71,3.71,0,0,1,1.41.53,1.35,1.35,0,0,1,.43.46,1.72,1.72,0,0,1,0,1.3A19.82,19.82,0,0,0,152.33,51Z"/><path class="cls-2" d="M138.27,50.78l4.6,0a2.35,2.35,0,0,0-.92.93c0,.05,0,.11,0,.15a.11.11,0,0,0,.07,0,.78.78,0,0,0,.47-.13c-.59.82-1.21,1.61-1.87,2.37a2.45,2.45,0,0,0,.6-1.8A1.8,1.8,0,0,0,140,51.08,5.57,5.57,0,0,0,138.27,50.78Z"/><path class="cls-2" d="M131,53.83c.53-.72,1.09-1.47,1.69-2.14a2.59,2.59,0,0,1-.58.42.48.48,0,0,1-.62-.19c-.11-.26.13-.53.37-.67a2.57,2.57,0,0,1,1.16-.41,48.08,48.08,0,0,1-4.95-.05,7.27,7.27,0,0,1,1.6.36,2.49,2.49,0,0,1,1.31,1A1.63,1.63,0,0,1,131,53.83Z"/><path class="cls-2" d="M121.65,51c-1.6,0-3.2,0-4.79-.13l.61.06a3.19,3.19,0,0,1,2.14.72,1.56,1.56,0,0,1,.44,1.23,2.76,2.76,0,0,1-.25.88C120.43,52.81,121.06,51.9,121.65,51Z"/><path class="cls-2" d="M111.83,50.85a39.23,39.23,0,0,1-4.6-.06c.46.06.91.12,1.37.21a2.15,2.15,0,0,1,1.42.68,1.51,1.51,0,0,1,.23,1.06,4.61,4.61,0,0,1-.32,1.06c.59-.74,1.14-1.46,1.69-2.22a.49.49,0,0,1-.23.11.18.18,0,0,1-.2-.12.2.2,0,0,1,0-.13A1.19,1.19,0,0,1,111.83,50.85Z"/><path class="cls-2" d="M100,53.84l1.8-2.33c-.13.07-.24.18-.37.26a.34.34,0,0,1-.42,0,.3.3,0,0,1,0-.35.89.89,0,0,1,.26-.25,2.87,2.87,0,0,1,.84-.37,36.48,36.48,0,0,1-4.79.05c.59.12,1.14.21,1.73.32a2.64,2.64,0,0,1,.66.2,1.39,1.39,0,0,1,.71,1.15A1.88,1.88,0,0,1,100,53.84Z"/><path class="cls-2" d="M102.23,62.68l-1.8-2.33a.48.48,0,0,1-.62.4.62.62,0,0,1-.36-.53,2.27,2.27,0,0,1,.12-.72c-.66.8-1.29,1.62-1.9,2.46l.4-.23a3.15,3.15,0,0,1,.57-.31,2.4,2.4,0,0,1,1.87.13A8.51,8.51,0,0,1,102.23,62.68Z"/><path class="cls-2" d="M111.9,62.54a3.29,3.29,0,0,0-2.36-1.1,3.15,3.15,0,0,0-2.38.91c.75-1,1.5-2,2.26-3a2.77,2.77,0,0,0,.82,1.34,8.79,8.79,0,0,1,1.09,1.11A4.18,4.18,0,0,0,111.9,62.54Z"/><path class="cls-2" d="M121.91,62.56l-1-1.19a2.33,2.33,0,0,1-.43-.61c0,.25,0,.57-.25.64a.38.38,0,0,1-.38-.14,1.07,1.07,0,0,1-.18-.39,8.78,8.78,0,0,1-.29-1.46l-2.24,2.74a2.34,2.34,0,0,1,1.16-.45,12.56,12.56,0,0,1,1.46.29c.2,0,.41,0,.61,0A3,3,0,0,1,121.91,62.56Z"/><path class="cls-2" d="M132.92,62.35l-1.7-2.14a.59.59,0,0,1,0,.74.58.58,0,0,1-.73.08.77.77,0,0,1-.27-.67,2.52,2.52,0,0,1,.21-.71l-2,2.56a3.07,3.07,0,0,1,2.22-.65A4.88,4.88,0,0,1,132.92,62.35Z"/><path class="cls-2" d="M143,62.48a10.58,10.58,0,0,1-1.66-2.11A.47.47,0,0,1,141,61a.61.61,0,0,1-.62-.46,1.6,1.6,0,0,1,0-.84c-.66.8-1.34,1.58-2,2.35a3.57,3.57,0,0,1,2.31-.63A4.13,4.13,0,0,1,143,62.48Z"/><path class="cls-2" d="M152.74,62.48a2.7,2.7,0,0,0-1.59-1.12,2.63,2.63,0,0,0-.83-.14A4,4,0,0,0,148,62.27a7.54,7.54,0,0,1,.79-.92,13.08,13.08,0,0,1,1.41-1.79c.16.09.23.27.34.41A17.64,17.64,0,0,1,152.74,62.48Z"/><path class="cls-2" d="M198.22,78.35c-.45-4.48-.92-9-2.59-13.2s-4.74-8-9-9.55a6,6,0,0,0-2.82-.42,2.64,2.64,0,0,0-2.21,1.35,200.2,200.2,0,0,0,.18-23c.75,2.69,1.57,5.78,3.77,7.49a6.91,6.91,0,0,0,5.31,1.32,7.18,7.18,0,0,0,4.61-2.94,12.3,12.3,0,0,0,1.3-2.65,31,31,0,0,0,1.69-6.71C198.09,46.2,198,62.21,198.22,78.35Z"/><path class="cls-2" d="M198.8,93.24q-.13,6.39-.59,12.78a4.69,4.69,0,0,1-.89,2.9,4.36,4.36,0,0,1-2.87,1.09,37.28,37.28,0,0,1-7.76.06c-1.41-.14-3-.51-3.63-1.77a4.44,4.44,0,0,1-.3-2q0-7.39,0-14.8a21.32,21.32,0,0,0,2.2,7.88,7,7,0,0,0,3.23,3.42,5.11,5.11,0,0,0,4-.19,8.88,8.88,0,0,0,3.17-2.61C197,98,198.48,95.84,198.8,93.24Z"/><path class="cls-2" d="M219.36,76c-.31-2.33-.62-4.65-.94-7a31.72,31.72,0,0,0-1.85-8.19,10.77,10.77,0,0,0-5.6-6,8,8,0,0,0-8.52,1.9q.33-11.43.14-22.86c.6,3.16,1.65,6.15,4.13,8.2s6.32,2.68,8.93.8c2.25-1.62,3.07-4.52,3.71-7.21A92.83,92.83,0,0,0,219,48.06C219.11,57.52,219.2,66.55,219.36,76Z"/><path class="cls-2" d="M218.93,84.23l0,6.6a4.52,4.52,0,0,1-.8,3.14,3.88,3.88,0,0,1-2.77,1,13.76,13.76,0,0,1-4-.48c-1.57-.44-3.17-1.16-4.75-.79a1.34,1.34,0,0,0,1.31,1.24,5.84,5.84,0,0,1-3.47-.69c-1.62-1.15-1.62-3.5-1.49-5.48q.38-5.9.24-11.81a35.92,35.92,0,0,0,1.29,7,11.18,11.18,0,0,0,3.68,5.66,6.8,6.8,0,0,0,6.48,1.11A7.19,7.19,0,0,0,218.93,84.23Z"/><path class="cls-2" d="M239.8,71.84A40.21,40.21,0,0,0,237,61.22a15.33,15.33,0,0,0-7.4-7.83c-2.08-.9-4.53-1.31-6.52-.23q.25-6.19.09-12.39a7,7,0,0,0,3.36,4.12,10.72,10.72,0,0,0,5.3,1.55,8.47,8.47,0,0,0,2.66-.25c2.82-.8,4.69-3.59,5.33-6.45C239.87,50.55,239.75,61,239.8,71.84Z"/><path class="cls-2" d="M239.78,73.11a8.08,8.08,0,0,1,.1,2.45,2.81,2.81,0,0,1-1.25,2,3.78,3.78,0,0,1-1.4.41,30.63,30.63,0,0,1-12.17-.68A1.18,1.18,0,0,1,224,76a61.1,61.1,0,0,1-.28-9.37,10.24,10.24,0,0,0,3.63,6.56,7.43,7.43,0,0,0,7.24,1.18,4.44,4.44,0,0,0,2-1.49,5.4,5.4,0,0,0,.82-2.67,13.21,13.21,0,0,0-.18-3.66C237.56,68.86,239.46,70.83,239.78,73.11Z"/><path class="cls-2" d="M247,53.32c0,2.16,0,4.31,0,6.47a3.53,3.53,0,0,1-.34,1.91,1.84,1.84,0,0,1-2.08.77,2.2,2.2,0,0,0,1.55-.7.94.94,0,0,0,.29-.88.8.8,0,0,0-1-.43,2,2,0,0,0-.92.68,8.5,8.5,0,0,0-.95,1.36c0-1.13,0-2.25,0-3.38a1,1,0,0,0,1.13.47,1.52,1.52,0,0,0,1-.72,4.54,4.54,0,0,0,.43-1.15A26.58,26.58,0,0,0,247,53.32Z"/></svg>