<svg id="Capa_1" data-name="Capa 1" xmlns="http://www.w3.org/2000/svg" viewBox="0 0 496.14 496.43"><path d="M887.42,511.67c0,34.8-.7,69.7.2,104.5,1.5,61.6-37.2,109.2-86.5,130.4a156.43,156.43,0,0,1-62.1,13c-67.3.1-134.7,1-202-.3-50.7-1-92.4-22.2-122.3-64-15.7-22-23.2-47-23.2-74.1v-215c0-58.5,28.5-99.4,79.1-126,22-11.5,45.9-16.4,70.8-16.5,65.3,0,130.7-.4,196,.2,50.7.4,93,19.8,124.2,60.6,17.4,22.8,25.8,49,25.8,77.8Zm-459,0v110c0,16.4,3.8,31.8,12.3,45.7,22.3,36.5,56,54.3,97.8,55,67.1,1,134.3.4,201.5.2a109.32,109.32,0,0,0,47.4-10.5c40.6-19.4,63.3-50.3,63.1-96.7-.4-71-.1-142-.1-213,0-20.1-5.7-38.5-17.6-54.7-23-31.1-54.8-46.4-92.8-46.8-67-.8-134-.3-201-.2a118.05,118.05,0,0,0-41.5,7.9c-36.8,13.7-71,48.4-69.4,99.5C429.32,442.67,428.42,477.17,428.42,511.67Z" transform="translate(-391.52 -263.53)"/><path d="M640,617.67c-64.5,0-116.5-51.4-116.6-115.4-.1-63,52.3-114.6,116.4-114.6,64.3-.1,116.5,51.4,116.6,114.9S704.32,617.57,640,617.67Zm0-37c43.9,0,79.5-35.1,79.4-78.3-.1-42.8-35.7-77.8-79.4-77.8-43.9,0-79.7,34.9-79.7,78S596.12,580.77,640,580.67Z" transform="translate(-391.52 -263.53)"/><path d="M769.92,352.67c13.5,0,24.5,11.5,24.5,25.6s-11.2,25.5-24.7,25.4c-13.3-.1-24.2-11.5-24.2-25.3C745.42,364.27,756.42,352.67,769.92,352.67Z" transform="translate(-391.52 -263.53)"/></svg>