<?xml version="1.0" encoding="utf-8"?>
<!-- Generator: Adobe Illustrator 25.2.1, SVG Export Plug-In . SVG Version: 6.00 Build 0)  -->
<svg version="1.1" id="Layer_1" xmlns="http://www.w3.org/2000/svg" x="0px" y="0px"
	 viewBox="0 0 100 100" style="enable-background:new 0 0 100 100;" xml:space="preserve">
<g>
	<g>
		<path d="M50.9,74.8c-13.6,0-24.6-11-24.6-24.6s11-24.6,24.6-24.6s24.6,11,24.6,24.6C75.6,63.8,64.5,74.8,50.9,74.8z M50.9,30.5
			c-10.9,0-19.7,8.8-19.7,19.7c0,10.9,8.8,19.7,19.7,19.7s19.7-8.8,19.7-19.7C70.6,39.3,61.8,30.5,50.9,30.5z"/>
	</g>
	<g>
		<path d="M50.9,16.2c-1.4,0-2.5-1.1-2.5-2.5V3.5c0-1.4,1.1-2.5,2.5-2.5c1.4,0,2.5,1.1,2.5,2.5v10.3C53.4,15.1,52.3,16.2,50.9,16.2z
			"/>
	</g>
	<g>
		<path d="M75.4,28.7c-0.6,0-1.3-0.2-1.7-0.7c-1-1-1-2.5,0-3.5l8.8-8.8c1-1,2.5-1,3.5,0c1,1,1,2.5,0,3.5L77.2,28
			C76.7,28.5,76.1,28.7,75.4,28.7z"/>
	</g>
	<g>
		<path d="M22.5,28.7c-0.6,0-1.3-0.2-1.7-0.7l-8.8-8.8c-1-1-1-2.5,0-3.5c1-1,2.5-1,3.5,0l8.8,8.8c1,1,1,2.5,0,3.5
			C23.8,28.5,23.1,28.7,22.5,28.7z"/>
	</g>
	<g>
		<path d="M49,99c-1.4,0-2.5-1.1-2.5-2.5V86.3c0-1.4,1.1-2.5,2.5-2.5c1.4,0,2.5,1.1,2.5,2.5v10.3C51.4,97.9,50.3,99,49,99z"/>
	</g>
	<g>
		<path d="M15.6,85c-0.6,0-1.3-0.2-1.7-0.7c-1-1-1-2.5,0-3.5l8.8-8.8c1-1,2.5-1,3.5,0c1,1,1,2.5,0,3.5l-8.8,8.8
			C16.9,84.8,16.3,85,15.6,85z"/>
	</g>
	<g>
		<path d="M86.2,85c-0.6,0-1.3-0.2-1.7-0.7l-8.8-8.8c-1-1-1-2.5,0-3.5c1-1,2.5-1,3.5,0l8.8,8.8c1,1,1,2.5,0,3.5
			C87.5,84.8,86.9,85,86.2,85z"/>
	</g>
	<g>
		<path d="M13.7,52.6H2.6c-1.4,0-2.5-1.1-2.5-2.5c0-1.4,1.1-2.5,2.5-2.5h11.1c1.4,0,2.5,1.1,2.5,2.5C16.1,51.5,15,52.6,13.7,52.6z"
			/>
	</g>
	<g>
		<path d="M97.4,52.6H84.3c-1.4,0-2.5-1.1-2.5-2.5c0-1.4,1.1-2.5,2.5-2.5h13.1c1.4,0,2.5,1.1,2.5,2.5C99.9,51.5,98.8,52.6,97.4,52.6
			z"/>
	</g>
</g>
</svg>
