<svg id="Capa_1" data-name="Capa 1" xmlns="http://www.w3.org/2000/svg" viewBox="0 0 179.56 287.17"><path d="M647.21,353.39c46.57,0,85.37,34.58,90,79.68,2,19.77-1.48,39-6.93,57.89-8.06,28-20.44,54.05-34.72,79.3a609,609,0,0,1-44.8,68.07c-1.79,2.37-3,3.25-5.17.29C617,600.33,591.89,560,574.21,515.36a234.74,234.74,0,0,1-15.14-58.07c-6.4-52,27.62-94.77,74.17-102.81A64.07,64.07,0,0,1,647.21,353.39ZM606.4,444.6a41.73,41.73,0,1,0,41.72-42.07A42,42,0,0,0,606.4,444.6Z" transform="translate(-558.29 -353.33)"/></svg>