<?xml version="1.0" encoding="utf-8"?>
<!-- Generator: Adobe Illustrator 25.2.1, SVG Export Plug-In . SVG Version: 6.00 Build 0)  -->
<svg version="1.1" id="Capa_1" xmlns="http://www.w3.org/2000/svg" x="0px" y="0px"
	 viewBox="0 0 272 114.6" style="enable-background:new 0 0 272 114.6;" xml:space="preserve">
<style type="text/css">
	.st0{fill:url(#SVGID_1_);}
	.st1{fill:url(#SVGID_2_);}
	.st2{fill:url(#SVGID_3_);}
	.st3{fill:url(#SVGID_4_);}
	.st4{fill:url(#SVGID_5_);}
	.st5{fill:url(#SVGID_6_);}
	.st6{fill:url(#SVGID_7_);}
	.st7{fill:url(#SVGID_8_);}
	.st8{fill:url(#SVGID_9_);}
	.st9{fill:url(#SVGID_10_);}
	.st10{fill:url(#SVGID_11_);}
	.st11{fill:url(#SVGID_12_);}
	.st12{fill:url(#SVGID_13_);}
	.st13{fill:url(#SVGID_14_);}
	.st14{fill:url(#SVGID_15_);}
	.st15{fill:url(#SVGID_16_);}
	.st16{fill-rule:evenodd;clip-rule:evenodd;fill:url(#SVGID_17_);}
	.st17{fill-rule:evenodd;clip-rule:evenodd;fill:url(#SVGID_18_);}
	.st18{fill-rule:evenodd;clip-rule:evenodd;fill:url(#SVGID_19_);}
	.st19{fill-rule:evenodd;clip-rule:evenodd;fill:url(#SVGID_20_);}
	.st20{fill-rule:evenodd;clip-rule:evenodd;fill:url(#SVGID_21_);}
	.st21{fill-rule:evenodd;clip-rule:evenodd;fill:url(#SVGID_22_);}
	.st22{fill-rule:evenodd;clip-rule:evenodd;fill:url(#SVGID_23_);}
	.st23{fill-rule:evenodd;clip-rule:evenodd;fill:url(#SVGID_24_);}
	.st24{fill-rule:evenodd;clip-rule:evenodd;fill:url(#SVGID_25_);}
	.st25{fill-rule:evenodd;clip-rule:evenodd;fill:url(#SVGID_26_);}
	.st26{fill-rule:evenodd;clip-rule:evenodd;fill:url(#SVGID_27_);}
	.st27{fill-rule:evenodd;clip-rule:evenodd;fill:url(#SVGID_28_);}
	.st28{fill-rule:evenodd;clip-rule:evenodd;fill:url(#SVGID_29_);}
	.st29{fill-rule:evenodd;clip-rule:evenodd;fill:url(#SVGID_30_);}
</style>
<g>
	<g>
		<linearGradient id="SVGID_1_" gradientUnits="userSpaceOnUse" x1="149.2572" y1="93.7266" x2="158.3074" y2="93.7266">
			<stop  offset="0" style="stop-color:#FFDD00"/>
			<stop  offset="0.17" style="stop-color:#C9AD01"/>
			<stop  offset="0.355" style="stop-color:#FFDD00"/>
			<stop  offset="0.58" style="stop-color:#C9AD01"/>
			<stop  offset="0.77" style="stop-color:#FFDD00"/>
			<stop  offset="1" style="stop-color:#C9AD01"/>
		</linearGradient>
		<path class="st0" d="M151.2,94.2c-1.3,1.7-1.8,2.5-2,2.9c0.5-0.2,1.3-0.7,2.8-1.7l6.2-5.1c0,0,0.1-0.1,0.1-0.1
			c-2.3,0.6-4.2,1.4-5.6,2.5C152.3,93.3,151.7,93.8,151.2,94.2z"/>
		<linearGradient id="SVGID_2_" gradientUnits="userSpaceOnUse" x1="207.4682" y1="83.0955" x2="208.7177" y2="83.0955">
			<stop  offset="0" style="stop-color:#FFDD00"/>
			<stop  offset="0.17" style="stop-color:#C9AD01"/>
			<stop  offset="0.355" style="stop-color:#FFDD00"/>
			<stop  offset="0.58" style="stop-color:#C9AD01"/>
			<stop  offset="0.77" style="stop-color:#FFDD00"/>
			<stop  offset="1" style="stop-color:#C9AD01"/>
		</linearGradient>
		<path class="st1" d="M207.6,83c-0.1,0-0.1,0.1-0.1,0.2l0.2,0c0,0,0.1,0,0.1,0c0.1,0,0.1,0,0.2,0c0.2,0,0.3,0,0.4,0
			c0.1-0.1,0.3-0.1,0.4,0c0,0,0,0,0,0C208.6,83,208.2,82.9,207.6,83z"/>
		<linearGradient id="SVGID_3_" gradientUnits="userSpaceOnUse" x1="202.4318" y1="83.2774" x2="202.949" y2="83.2774">
			<stop  offset="0" style="stop-color:#FFDD00"/>
			<stop  offset="0.17" style="stop-color:#C9AD01"/>
			<stop  offset="0.355" style="stop-color:#FFDD00"/>
			<stop  offset="0.58" style="stop-color:#C9AD01"/>
			<stop  offset="0.77" style="stop-color:#FFDD00"/>
			<stop  offset="1" style="stop-color:#C9AD01"/>
		</linearGradient>
		<path class="st2" d="M202.4,83.4c0.1,0,0.2,0,0.4,0c0,0,0.1,0,0.1,0l0.1,0l-0.1-0.3L202.4,83.4z"/>
		<linearGradient id="SVGID_4_" gradientUnits="userSpaceOnUse" x1="193.6483" y1="83.464" x2="196.0041" y2="83.464">
			<stop  offset="0" style="stop-color:#FFDD00"/>
			<stop  offset="0.17" style="stop-color:#C9AD01"/>
			<stop  offset="0.355" style="stop-color:#FFDD00"/>
			<stop  offset="0.58" style="stop-color:#C9AD01"/>
			<stop  offset="0.77" style="stop-color:#FFDD00"/>
			<stop  offset="1" style="stop-color:#C9AD01"/>
		</linearGradient>
		<path class="st3" d="M193.9,83.6c-0.1,0.1-0.2,0.1-0.2,0.2c0.1,0,0.1,0,0.2,0c0,0,0.1,0,0.1,0l0,0c0.1,0,0.2,0,0.3,0
			c0,0,0.1,0,0.1,0l0.2,0c0.1,0,0.4,0,1,0l0.3-0.1c0,0,0,0,0.1,0c-0.4-0.1-0.8-0.3-1.2-0.6L193.9,83.6z"/>
		<linearGradient id="SVGID_5_" gradientUnits="userSpaceOnUse" x1="176.5951" y1="85.3903" x2="176.709" y2="85.3903">
			<stop  offset="0" style="stop-color:#FFDD00"/>
			<stop  offset="0.17" style="stop-color:#C9AD01"/>
			<stop  offset="0.355" style="stop-color:#FFDD00"/>
			<stop  offset="0.58" style="stop-color:#C9AD01"/>
			<stop  offset="0.77" style="stop-color:#FFDD00"/>
			<stop  offset="1" style="stop-color:#C9AD01"/>
		</linearGradient>
		<path class="st4" d="M176.7,85.6L176.7,85.6l0-0.5c0,0-0.1,0-0.1,0L176.7,85.6z"/>
		<linearGradient id="SVGID_6_" gradientUnits="userSpaceOnUse" x1="53.414" y1="93.1062" x2="218.9937" y2="93.1062">
			<stop  offset="0" style="stop-color:#FFDD00"/>
			<stop  offset="0.17" style="stop-color:#C9AD01"/>
			<stop  offset="0.355" style="stop-color:#FFDD00"/>
			<stop  offset="0.58" style="stop-color:#C9AD01"/>
			<stop  offset="0.77" style="stop-color:#FFDD00"/>
			<stop  offset="1" style="stop-color:#C9AD01"/>
		</linearGradient>
		<path class="st5" d="M218.1,77.7l-0.3-0.9l1.2-0.7c-2.2-0.7-3.7-1.4-4.7-2.1l-0.4-1.4c-0.3-1-2.5-1.3-6.5-0.9l-0.3,0.2l0.3,0.9
			c0.8-0.5,1.4-0.3,1.7,0.6l0.1,0.4c0.2,0.6,0.1,1-0.3,1.4c-0.3,0.2-0.6,0-0.9-0.6c-0.5,1.4-1,2.3-1.7,2.7c-0.8-0.6-1.4-0.8-1.7-0.6
			c-0.8-1.3-2-1.5-3.5-0.6l0.3,1l-0.3,0.2l-0.1-0.5l0-1.1c-1,0.6-2.1,0-3.2-1.9l-0.1-0.4l0.6-0.4l-0.3-0.9c-0.2,0.1-2.6,0.3-7.2,0.5
			c0.3,0.9,0.2,1.5-0.2,1.7l-0.6,0.4l-1.2-0.3l0-1.1c-0.4-0.5-5.2-0.5-14.3,0c-8.7,0.2-13.3,0.4-13.8,0.7l-22.4,1
			c-3.7-0.1-7.6-0.1-11.7,0.1l-4,0.6l-2.7,0.1c-6.3,0.7-12.3,1.7-17.8,2.8l-6,0.9c-0.4-0.2-3.8,0.3-10.3,1.4
			c-6.8,0.9-10.4,1.6-10.6,2.2l0.3,1l-0.8,0.5L74,84.1c-0.3-0.2-0.5-0.7-0.5-1.6C70,83,68.2,83.2,68,83.2l0,0.9l0.5,0.2l0,0.4
			c-0.4,1.9-1,2.7-1.9,2.2l0.3,1l0,0.5l-0.3-0.1l0-0.9c-1.3-0.6-2.1-0.2-2.4,1.1c-0.3-0.1-0.6,0.1-1.1,0.8c-0.6-0.3-1.2-1-1.9-2.2
			c-0.1,0.6-0.2,0.8-0.5,0.7c-0.4-0.3-0.6-0.7-0.6-1.2l0-0.4c0-0.9,0.4-1.2,1.1-0.8l0-0.9L61,84.3c-3.1,0.3-4.6,0.9-4.6,1.8l0,1.3
			c-0.5,0.8-1.5,1.7-3,2.6l1.1,0.5l0,0.9l-0.5-0.2l0,0.9l0.3,0.1c1.1-0.1,2.1,0.1,3,0.5l0,0.4l0.5-0.1c0.4,0.4,0.6,0.7,0.8,0.8
			l2.2-1.2c0.3-0.7,1.4-1.2,3.2-1.6l0.3,0.1l0.8,1.2l0.3,0.1c2.9-0.1,5.4-0.4,7.6-0.9c0.6,0.3,1.8,0.1,3.8-0.4l-0.3,0.7l0,0.5
			l0.8,0.4c0.4-0.4,1.4-0.4,3,0.1c0,0.6-1.5,0.9-4.3,1c0,0.4-0.7,0.8-2.2,1.2l-0.2-0.1l0-0.9l0.8,0.4c0-0.6-0.2-1-0.5-1.1l-0.8-0.4
			c-0.6,0.9-1.4,1.2-2.4,1.1l0,0.5c0.4,0.2,0.5,0.5,0.5,1.1l0,0.5l-1.3-1.1l-1.3,0.7l-0.8-1.2L66.9,94l0,1.3l-0.5-0.6l-0.3-0.1
			c0,0.4-0.5,0.8-1.4,1.1l0,0.5l-1.1-0.5c0-0.6-0.1-0.9-0.2-1c-0.5,0-0.8,0.2-0.8,0.5c0.2,0.7,0.3,1.1,0.3,1.5
			c-0.7,0.1-1.1,0.4-1.1,0.8l0.5,0.2c1.6-0.8,3.4-1,5.4-0.6c0.1,0.4,0.9,0.9,2.4,1.6l0,0.4l-3-1.4l-0.5,1.1c0.2,0.7,0.3,1.1,0.3,1.5
			l-0.5-0.2c0-0.9-0.2-1.4-0.6-1.6c-0.4,2.2-1.4,2.9-2.9,2.2l0,0.9c0,0.6,0.2,1,0.5,1.2l0.5,0.2c1-0.7,1.9-0.9,3-0.4l0,0.9
			c-1.2,0.7-3.2,1.3-6,1.7l-3,1.7c1.1,0.5,1.8,1.1,2.2,1.9l0.8,0.4l0.5-0.2l0,0.9l-0.2,0.8c5.6,0.7,8.4,0.5,8.4-0.5l0.5,0.6
			c3.7-0.7,6.6-1.1,8.7-1.4c0.1,0.8,0.3,1.6,0.6,2.4c0.2,0.6,0.6,1.2,1.3,1.9c0.5-0.3,0.8-0.7,1.1-1.2l5.2-1l0.2,0.5l-0.6,0.4
			c-1.5,0.9-2.7,1.3-3.7,1.1c-0.3,0.5-0.6,0.8-0.8,1l0.2,0.5l7.6-2.5c-0.1-0.3,0-0.5,0.2-0.6c2.5,0.6,7.1-0.3,13.9-2.5
			c3-0.4,4.6-0.5,4.7-0.1l0.5-0.8c-0.2-0.6-0.5-0.8-0.9-0.5l0-1.2c1.5-0.5,5.6-0.8,12.2-0.8l0.5-0.8l0.2,0.5c0.8,0,1.6-0.1,2.2-0.1
			l0,0c0,0,0,0,0,0c3.5-0.2,5.3-0.1,5.5,0.3c0.2,0.5,1.7,0.8,4.8,1l1.2-0.7l-0.6-0.8l-0.1-0.4c2.9-0.3,5.7-0.5,8.3-0.7
			c1.7-0.1,3.4-0.2,4.9-0.3c4.7,0.8,7.8,0.8,9.4,0c0.2,0.1,0.3,0.3,0.3,0.5l1.3,0.2c0.8,0.5,1.4,0.7,1.7,0.5l0.3-0.2l3,0.5l0-0.5
			c-0.2-0.1-0.5-0.3-0.8-0.8c0,0,0,0,0,0l0.4-0.8l0.3-0.2c0.3,0.4,0.6,0.6,1,0.8c0-0.1,0.1-0.1,0.1-0.2c0.6,0.9,1.6,1.1,3,0.7
			c0.4-0.2,0.5-0.7,0.3-1.3c7.1-0.3,10.7-0.5,10.8-0.6c0.9-0.5,3.9-0.7,9-0.5c0.8-0.5,6.5-0.8,16.9-1l0.5-0.8c0.4,1.1,4,0.7,11-1.2
			L215,98l-0.3-0.9l0.7,0l0.9-0.6c0.2-0.8,0.9-1.6,2.2-2.4l-4.4-1.1c-3.7,0.1-6.4,0-8.3-0.5l-0.3-0.9c1.2-0.7,2.5-0.8,4-0.2l0.6-0.4
			c0.4-0.2,0.5-0.7,0.3-1.3l-0.3-0.9c-1.8,1.1-3.3,0.5-4.5-1.6c-0.4,0.3-0.5,0.9-0.2,1.8l-0.6,0.4c-0.1-0.3-0.1-0.8-0.1-1.6l-1-1
			l-3.4,2.1l-0.1-0.4c1.7-1,2.6-1.7,2.6-2.1c2.5-0.9,4.9-1,7.2-0.5l0.6-0.4c-0.1-0.5-0.7-0.7-1.7-0.6c0-0.1-0.1-0.2-0.1-0.3
			c0,0,0,0,0,0c-0.1,0-0.1,0-0.2,0l-0.1,0.1c-0.1,0-0.1,0-0.2,0l-0.3,0c0,0,0,0,0,0c-0.1,0-0.2,0-0.3-0.1l-0.4,0l-0.7,0.1l-0.2,0.1
			l0-0.1c-0.2,0-0.3,0-0.4,0l-0.4,0.1c0,0-0.1,0-0.1,0c-0.1,0-0.1,0-0.2,0c-0.2,0.1-0.4,0.1-0.7,0.2c-0.1,0-0.2,0-0.3-0.1
			c0,0,0,0,0,0c-0.1,0-0.2,0-0.3,0l-0.1,0c-0.1,0-0.1,0.1-0.2,0.1l-0.5,0c-0.1,0-0.2,0-0.2-0.1c-0.1,0-0.1,0-0.2,0c0,0,0,0,0,0
			c-0.3,0.2-0.9,0.2-1.8,0.3c0,0-0.1,0-0.1,0c-0.1,0-0.2,0-0.3-0.1l-0.4,0.1c-0.1,0-0.2,0-0.3-0.1c0,0,0,0,0,0
			c-0.1,0.1-0.2,0.1-0.3,0.1l-0.2,0l-0.7,0.8l-0.2-0.5c0-0.1,0-0.2,0-0.2c-0.1,0-0.1,0-0.3,0.1c0,0-0.1,0-0.1,0c-0.2,0-0.3,0-0.4,0
			l0,0c-0.1,0-0.1,0-0.2,0c-0.1,0-0.1,0-0.3-0.1c0,0-0.1,0-0.1,0l-0.1,0c0,0,0,0-0.1,0c0,0,0,0,0,0l-0.2,0l-0.3,0
			c-0.1,0.1-0.2,0.1-0.3,0.1c-0.1,0-0.3,0-0.4-0.1c0,0-0.1,0-0.1,0l-0.7,0.1c0,0,0,0,0,0c-0.1,0-0.2,0.1-0.3,0.1l-1.4,0l-0.2,0.1
			c0,0-0.1,0-0.1,0c-0.9,0-1.5,0.1-1.8,0.1l-0.1,0c0,0-0.1,0-0.1,0c-0.6,0-1,0-1.2,0c-0.2,0-0.4,0.1-0.5,0.1c-0.2,0-0.5,0-0.8,0
			c-0.3,0.1-0.5,0.1-0.6,0.1c0,0-0.1,0-0.1,0l-0.9,0c0,0,0,0-0.1,0c-0.1,0-0.1,0-0.2,0l-0.4,0c-0.2,0-0.5,0.1-0.8,0.1
			c0,0-0.1,0-0.1,0c-0.3,0-0.6,0-1.1,0c0,0,0,0,0,0c-0.1,0.1-0.2,0.1-0.3,0.1l-0.4,0l-0.2,0c-0.4,0.1-0.7,0.1-0.7,0.1
			c-0.1,0-0.1,0-0.2,0c0,0,0,0-0.1,0c0,0-0.1,0-0.1,0c0,0,0,0,0,0c-0.2,0-0.3,0-0.4-0.1c0,0-0.1,0-0.1,0c-0.1,0-0.1,0.1-0.2,0.1
			l-0.2,0c0,0-0.1,0-0.1,0c0,0-0.1,0-0.1,0l-0.3,0c0.3,0.1,0.5,0.4,0.7,0.7c0,0.1,0.1,0.2,0.1,0.2c0,0.2,0,0.5-0.4,0.7
			c-0.1,0.1-0.2,0.1-0.3,0.1c-0.2,0-0.3,0-0.5,0l-0.1,0c-1.5,0.5-2.8,1.2-3.8,2.2c0.5,0.1,1.4,0.3,3.2,0.5c0,0,0,0,0,0
			c0.5,0,0.9,0.3,1.6,1.1c0.1,0.1,0.1,0.2,0.1,0.3c0.1,1-0.9,1.9-3.2,3.1c-0.1,0.1-0.4,0.3-1,0.7c0,0-0.1,0-0.1,0
			c-0.2,0.2-0.4,0.3-0.5,0.4c-0.1,0-0.1,0.1-0.2,0.1c0,0,0,0,0,0c0,0,0,0,0,0c-0.2,0.2-0.4,0.2-0.6,0.2l0,0
			c-0.1,0.1-0.2,0.2-0.4,0.2c-0.1,0-0.2,0.1-0.3,0.1l-0.2,0l-1.1,0.5c-0.1,0.1-0.3,0-0.4,0c-0.1,0-0.2,0-0.3,0.1
			c0,0-0.1,0.1-0.1,0.1l-0.1,0.1c-0.1,0-0.2,0.1-0.2,0.1c-0.1,0-0.1,0-0.2,0c-0.1,0-0.2-0.1-0.3-0.2l-0.1-0.1c0-0.1,0-0.1-0.1-0.2
			c0-0.3,0.2-0.6,0.5-0.6c0,0,0.1,0,0.1,0c0,0,0,0,0,0c0.1-0.1,0.2-0.2,0.3-0.3c0.1-0.1,0.2-0.1,0.3-0.1l0.1,0
			c0.2-0.2,0.8-0.6,3.5-2.1c1.3-0.8,1.6-1.1,1.7-1.2c0-0.1,0.1-0.1,0.1-0.1c0.2-0.1,0.3-0.2,0.4-0.3c-0.4-0.1-1.1-0.2-2-0.2
			c-1.7-0.3-2.6-1-2.7-2c0-0.5,0.3-1.1,1.2-1.8c1.3-0.9,2.3-1.5,3.2-1.8c0,0,0,0,0,0l0,0c-0.1,0-0.1,0-0.2,0
			c-0.1,0.1-0.2,0.1-0.3,0.1l-0.4,0l-1.3,0.1c-0.1,0-0.2,0-0.3,0c-0.1,0.1-0.2,0.1-0.3,0.1l-0.2,0c-0.2,0-0.4,0-0.4,0.1
			c0,0,0,0.1,0,0.1c-0.3,0.5-0.6,0.9-0.9,1.2c-0.1,0.2-0.3,0.4-0.6,0.8c-0.2,0.3-0.4,0.7-0.6,0.9c-0.1,0.2-0.3,0.5-1.1,1.6
			c-0.1,0.2-0.3,0.5-0.6,0.9c-0.1,0.3-0.3,0.5-0.4,0.6c0,0.1-0.1,0.2-0.2,0.3l-0.2,0.2c0,0.1-0.1,0.2-0.2,0.3c0.1,0-0.1,0.2-0.6,1
			c-0.2,0.4-0.4,0.7-0.6,0.9c0,0.2-0.1,0.3-0.3,0.4c0,0,0,0.1-0.1,0.1c0,0,0,0,0,0c0,0.1,0,0.1-0.1,0.2c-0.2,0.4-0.4,0.5-0.6,0.5
			c0,0,0,0,0,0c-0.2,0.3-0.4,0.5-0.4,0.7c0,0.1-0.2,0.3-0.3,0.3l-0.6,0.2c-0.1,0-0.1,0-0.2,0c-0.1,0-0.2,0-0.3-0.1l-0.1-0.1
			c-0.1-0.1-0.2-0.2-0.2-0.3c0-0.1,0-0.3,0.1-0.4c0,0,0.1-0.1,0.1-0.1c0,0,0,0,0-0.1c0.2-0.5,0.6-1.1,1.1-1.9
			c0.1-0.3,0.4-0.8,1.6-2.5c0.1-0.2,0.2-0.4,0.4-0.5c0-0.1,0.1-0.2,0.2-0.3c0.2-0.1,0.3-0.3,0.5-0.7c0-0.1,0.1-0.2,0.2-0.2
			c0,0,0,0,0-0.1c0-0.1,0.1-0.2,0.1-0.2c0.7-0.9,1.3-1.7,1.7-2.4c0.1-0.1,0.2-0.2,0.3-0.2c0,0,0.2-0.1,0.4-0.4
			c0.1-0.1,0.1-0.2,0.2-0.3c-0.1,0-0.3,0-0.4,0l-0.3,0c-0.5,0-0.9,0.1-1.1,0.1l-0.6,0c0,0,0,0,0,0h0c0.1,0.1,0.2,0.2,0.2,0.4l0,0.2
			c0,0.2-0.1,0.4-0.3,0.5c0,0,0,0.1-0.1,0.1c-0.1,0.2-0.2,0.2-0.4,0.3c-0.1,0.1-0.2,0.2-0.4,0.2c0,0-0.1,0.1-0.1,0.1
			c0,0-0.1,0.1-0.1,0.1c-0.1,0.1-0.1,0.1-0.2,0.1c-0.2,0.1-0.7,0.4-1.4,1.1c-0.1,0.1-0.2,0.1-0.3,0.1c-0.2,0-0.5,0.2-0.7,0.5l0,0.2
			c0,0.3-0.2,0.5-0.5,0.5c0,0,0,0,0,0c-0.2,0.3-0.3,0.5-0.5,0.6c0,0.1-0.1,0.2-0.3,0.3l-0.2,0.1c0,0.2-0.1,0.3-0.4,0.4
			c0,0.1-0.1,0.2-0.1,0.3c-0.3,0.3-0.5,0.5-0.7,0.6c0,0.1,0,0.1-0.1,0.2c-0.8,1.1-1.5,2.1-2.1,3.2c-0.1,0.4-0.3,1-0.8,1.1l-0.1,0
			c0,0,0,0,0,0c-0.1,0-0.2,0-0.2-0.1c-0.7-0.4-1-0.6-1-1c0,0,0-0.1,0-0.1c0.1-0.3,0.2-0.8,1.2-2.5l1.5-2.8c1.5-3,1.6-3,1.8-3.1
			l0.2,0c0.2,0,0.4,0.1,0.5,0.2c0.2,0.2,0.3,0.3,0.3,0.4c0.2,0.1,0.3,0.2,0.3,0.4c1.4-1.2,2.8-2,4.1-2.5c-1.3,0.1-2.2,0.2-2.7,0.3
			c-0.1,0-0.1,0-0.2,0l0,0l-0.6,0.1c-0.1,0-0.2,0-0.3,0l-0.2,0l-0.6,0.1l-0.4,0c-0.1,0-0.2,0.1-0.3,0.1c0,0,0,0,0,0c0,0-0.1,0-0.1,0
			l-0.4,0l-1,0.1c-0.3,0-0.6,0-0.8,0c0.1,0,0.1,0,0.1,0.1l0.6,0.5c0.1,0.1,0.2,0.2,0.2,0.3c0,0.1,0,0.3-0.1,0.4
			c-0.2,0.3-0.6,0.8-1.2,1.3c0,0,0,0,0,0c0,0.3-0.2,0.5-0.4,0.5c0,0,0,0.1-0.1,0.1c-0.1,0.1-0.2,0.2-0.3,0.2c0,0,0,0-0.1,0.1
			c0,0,0,0,0,0c0,0.3-0.2,0.6-0.5,0.7c-0.1,0.1-0.3,0.1-0.4,0c-0.1,0.1-0.2,0.2-0.4,0.3c-0.1,0.2-0.3,0.4-0.7,0.9
			c0,0.2-0.1,0.3-0.3,0.4c-0.1,0.1-0.1,0.1-0.1,0.1l0.1,0.3c0.1,0.2,0,0.4-0.2,0.5c-0.2,0.1-0.4,0.1-0.6,0c0,0,0,0,0,0
			c-0.1,0.1-0.2,0.3-0.5,0.8c0,0-0.1,0.1-0.1,0.1l-0.2,0.2c0,0,0,0.1,0,0.1c0,0.1,0,0.3-0.1,0.4c-0.2,0.2-0.4,0.6-0.6,1.1
			c0,0.1-0.1,0.2-0.2,0.3c0,0-0.1,0.1-0.1,0.2l0,0.3c0.2,0.2,0.3,0.4,0.3,0.6c0,0.1,0,0.1,0,0.2c-0.1,0.2-0.2,0.7-0.7,0.7
			c0,0,0,0-0.1,0c-0.1,0-0.2,0-0.2,0c-0.8-0.3-0.9-0.8-1-1.1l0-0.3c-0.1-0.7,0.4-1.7,1.3-3c0.1-0.1,0.2-0.4,0.4-0.7c0,0,0,0,0,0
			c-0.1,0-0.1,0-0.2,0c-1.2,1.3-1.7,1.8-2,1.9c0,0-0.1,0.1-0.1,0.1c0,0,0,0-0.1,0c-2.4,2.1-3.3,2.4-3.8,2.4l-0.3,0
			c-1.7-0.2-2.1-1-2.2-1.7c-0.1-1.5,1.4-3.6,4.8-6.6c2.3-1.8,3.2-2.1,3.6-2.1l0.2,0c0.6,0,1.5,0.1,2.7,0.5c0.2,0.1,0.4,0.3,0.4,0.5
			c0,0,0,0,0,0.1c1.5-1.4,2.1-1.9,2.4-2c-0.6,0-1.5-0.1-1.8-0.7c-0.1-0.1-0.2-0.3-0.2-0.6c0-0.2,0.1-0.4,0.3-0.5
			c1.2-0.5,2.5-0.9,4-1.4l0-0.7c0.4-0.2,0.7-0.1,0.8,0.4c0,0,0,0,0,0c1.3-0.3,2.1-0.6,2.3-0.7c0.1,0,0.1,0,0.2,0c0,0,0.1,0,0.1,0
			c1.2-0.4,3-0.9,5.5-1.4l0.2,0c0.1,0,0.2,0,0.2,0c0.5,0.2,0.8,0.5,0.9,1c0,0.2-0.1,0.5-0.4,0.5c-2.3,0.5-5,1.2-8.3,2.2
			c0,0,0.1,0,0.1,0c0.1,0,0.2,0,0.3,0c0,0,0.1,0,0.1,0c0,0,0.1,0,0.1,0l0.2,0l2.1-0.2c0.2,0,0.4-0.1,0.8-0.1c0.1,0,0.1,0,0.2,0
			l0.4-0.1l0.7-0.1c0,0,0,0,0.1,0l0-0.1l1.3-0.8l0.3,0.8c0.1,0,0.3,0,0.4-0.1l0.6,0c0.5,0,0.7-0.1,0.8-0.1c0-0.1,0.1-0.1,0.1-0.1
			c0.1,0,0.3-0.3,1.4-1.9c0.2-0.2,0.3-0.4,0.4-0.6c0.1-0.2,0.2-0.3,0.3-0.3c0,0,0.1-0.2,0.2-0.4c0,0,0-0.1,0.1-0.1
			c0.4-0.5,0.7-1,0.9-1.3c0-0.1,0.1-0.2,0.2-0.2c0,0,0.2-0.2,0.5-0.8c0.4-0.6,0.8-1.1,1-1.5c0-0.1,0.1-0.1,0.1-0.1
			c0-0.1,0.2-0.2,0.4-0.7c0-0.1,0.1-0.1,0.2-0.2c0,0,0.3-0.5,1.9-3c0.4-0.6,0.7-0.9,1-0.9l0.2,0c0.1,0,0.1,0,0.2,0
			c0.7,0.2,1.1,0.3,1.1,0.8c0,0.1,0,0.2-0.1,0.3l-4.8,7.3c0,0.1-0.1,0.1-0.2,0.1c0.1,0-0.1,0.1-0.6,0.9c0,0.1-0.1,0.1-0.1,0.1
			c0,0-0.2,0.3-0.9,1.4l0.3,1.1c-0.1,0-0.3,0.1-0.7,0.3l0.9-0.2c0,0,0.1,0,0.2,0l-0.1-0.3l1.7-0.4l0,0.6l0.3,0c0,0,0.1,0,0.1,0
			c0,0,0.1,0,0.1,0c0.1,0,0.3,0,0.5,0c0,0,0.3,0,0.8-0.1c0.1,0,0.2,0,0.3,0c0.3-0.1,0.6-0.1,0.8-0.1l0.8-0.1c0.1,0,0.1,0,0.2,0
			c0.1,0,0.2,0,0.2,0c0.1,0,0.2,0,0.5,0l0.4,0c0.3-0.1,0.6-0.1,0.9-0.1c0.1,0,0.2,0,0.3,0c1.8-0.7,3-0.9,3.7-0.6l0.9-0.6l-0.2-0.5
			l-0.6-0.7c2.7,0.2,4.4,0,5.1-0.3c2.9,0.1,6.3-0.2,10.1-0.7l0.3-0.2l0.6-1.4l0.3-0.2c2.5-0.1,4,0.3,4.7,0.9l3.2,0.8
			c0.2-0.1,0.5-0.5,0.8-1l0.7,0l-0.1-0.4c1-0.6,2.3-1,3.7-1.2l0.3-0.2l-0.3-0.9L218.1,77.7z M59.4,86.1c-0.4,0.6-0.6,1.1-0.6,1.5
			l-0.2-0.1c-0.3-0.1-0.5-0.7-0.8-1.7c0.3,0.1,0.6,0,1.1-0.4l0.6,0.3L59.4,86.1z M71.5,85.6C71.2,85.4,71,85,71,84.5v-0.9l0.5,0.3
			c0,0.7,0.1,1.3,0.3,1.9L71.5,85.6z M72.9,84.5c-0.1,0.6-0.2,0.8-0.5,0.7l-0.3-1.1v-0.4l0.8,0.4L72.9,84.5z M70.7,97.5
			c-0.8-0.4-1.3-0.5-1.6-0.3l-0.3-1.1c0.2,0.1,0.3,0,0.3-0.3c0.3,0.4,0.8,0.8,1.6,1.1V97.5z M73.9,97.3l-1.1-0.1l0-0.9l1.1,0.5
			L73.9,97.3z M200.7,85.5c0.1,0.3,0.2,0.4,0.5,0.2l0,1.2c-0.4-0.1-1.1,0.1-2,0.6L199,87C199.9,86.5,200.5,86,200.7,85.5z M196,86.7
			l0.3,0.9l-1.4,0.3l-0.2-0.5L196,86.7z M160.9,103.5c0,0.2,0.1,0.3,0.2,0.4c-0.1,0-0.2-0.1-0.3-0.1L160.9,103.5z M91.5,100.9
			C91.5,100.9,91.4,100.9,91.5,100.9l0,0.1c0,0.2-0.1,0.4-0.3,0.5c0,0-0.1,0.2-0.3,0.4c0,0.1-0.1,0.1-0.1,0.1c0,0-0.1,0.1-0.1,0.4
			c0,0,0,0.1,0,0.1c0,0.1,0,0.3-0.1,0.4c0,0-0.1,0.1-0.1,0.1c0,0.2-0.2,0.5-0.5,0.5l-0.1,0l-0.2,0.2c-0.1,0.1-0.2,0.2-0.3,0.2
			c0,0,0,0,0,0c-0.3,0-0.5-0.1-0.7-0.4c-0.1-0.1-0.1-0.3,0-0.5c0-0.1,0.1-0.1,0.2-0.2c0-0.1,0.2-0.3,0.4-0.8
			c0.6-1.3,0.9-1.8,1.1-2.1c0.1-0.4,0.6-1.2,1.9-3.8c0.1-0.3,0.2-0.6,0.3-0.8c-0.1,0-0.1,0-0.2,0.1l-0.1,0c0,0-0.1,0-0.1,0
			c-0.6,0.3-0.6,0.5-0.6,0.5c0,0.3-0.2,0.5-0.4,0.5c-0.2,0.3-0.5,0.6-0.9,0.9c0,0.1-0.1,0.2-0.1,0.3c-0.1,0.1-0.2,0.1-0.3,0.2
			c0,0.1,0,0.2-0.1,0.3c0,0-0.1,0.1-0.1,0.1c0,0-0.1,0.1-0.1,0.3c0,0.1-0.1,0.2-0.2,0.3c0,0.1,0,0.1,0,0.2c0,0.1-0.2,0.5-0.5,0.6
			c0,0.2-0.1,0.3-0.2,0.4c-0.2,0.1-0.2,0.2-0.2,0.2c0,0.1,0,0.2-0.1,0.3c-1.1,1.5-1.9,2.7-2.3,3.5c-0.1,0.1-0.2,0.2-0.3,0.3
			l-0.3,0.1c0,0-0.1,0-0.1,0c-0.1,0-0.1,0-0.2,0c-0.6-0.2-0.9-0.5-1.1-0.8c0-0.1,0-0.1,0-0.2c0-0.1,0-0.3,0.1-0.4
			c0.3-0.4,0.7-1,1.1-1.8c1.3-1.9,2.2-3.7,2.7-5.4c-0.2,0.1-0.2,0.1-0.3,0.1c-0.2,0-0.5,0.1-0.7,0.7c-0.1,0.2-0.2,0.3-0.4,0.3h0
			c0,0-0.1,0.1-0.6,0.4c0,0.1-0.1,0.1-0.1,0.2c0,0,0,0,0,0c0,0-0.1,0.1-0.1,0.1c0,0-0.1,0-0.1,0.1c-0.1,0.3-0.3,0.5-0.7,0.8
			c-0.2,0.3-0.4,0.6-0.6,0.7c-0.2,0.4-0.4,0.7-0.7,0.9c-0.1,0.3-0.3,0.5-0.5,0.6c-0.1,0.3-0.4,0.6-0.8,1c-0.2,0.6-0.7,1.3-1.5,2.2
			c-0.1,0.1-0.2,0.2-0.3,0.2l-0.1,0c-1.3-0.1-1.5-0.8-1.5-1.2c0-0.2,0-0.4,0.6-1.6c0.4-0.8,1.1-2.7,2.1-5.8c0,0,0-0.1,0.1-0.1
			c0.3-0.5,0.7-0.7,1-0.8c0.1,0,0.2,0,0.3,0.1c0.6,0.4,0.9,0.6,0.9,0.9l0,0.1c0,0.1,0,0.2-0.1,0.3c-0.2,0.4-0.5,1.1-0.8,1.8
			c2.8-2.9,3.8-3.5,4.3-3.7c0.6-0.4,0.9-0.4,1-0.5c1.5,0.1,1.8,0.7,1.9,1.2l0,0.2c0,0.1,0,0.2-0.1,0.3c0,0.1,0,0.1,0,0.2
			c0,0.2-0.1,0.4-0.2,0.5c0,0,0,0.1,0,0.1c0,0,0,0,0,0c0.1-0.1,0.2-0.2,0.3-0.3c0.1-0.3,0.4-0.6,1.1-1.2c0.8-0.7,1.2-1,1.5-1.2
			c0.1-0.2,0.3-0.3,0.6-0.5c0.1,0,0.2-0.1,0.2-0.1l0.3,0c0,0,0,0,0,0c0.4,0,0.8,0.2,1.4,0.6c0.1,0.1,0.2,0.2,0.2,0.4
			c0.1,0.7-0.1,1.3-0.5,1.8c0,0,0,0.1,0,0.1c0,0.2-0.1,0.3-0.2,0.4c0,0,0,0,0,0c0,0.1,0,0.1-0.1,0.2c-0.1,0.1-0.2,0.2-0.3,0.2
			c0,0,0,0,0,0c0.1,0.1,0.2,0.2,0.2,0.4c0,0.1,0,0.2-0.1,0.3c-0.5,0.8-0.6,1-0.9,1c0,0.1,0,0.2-0.1,0.3c0,0,0,0,0,0c0,0,0,0.1,0,0.1
			l0,0.1c0,0.2,0,0.3-0.1,0.5c-0.1,0.1-0.3,0.2-0.4,0.2c0,0,0,0,0,0c0.1,0.1,0.1,0.2,0.1,0.3c0,0.1,0,0.3-0.1,0.4
			C91.9,100.6,91.7,100.8,91.5,100.9z M131,105.3l-0.2-0.5l0.3-0.2c0.6-0.4,1-0.3,1.2,0.3L131,105.3z M155.2,88.5L155.2,88.5
			c-0.2,0.2-0.3,0.3-0.5,0.3c-0.2,0-0.4,0-0.6,0c0,0-0.1,0-0.1,0c0,0-0.1,0-0.1,0c-0.1,0-0.1,0-0.2,0l-0.1,0c-0.1,0-0.1,0-0.2,0
			l-0.3,0c-0.1,0-0.3,0-0.4-0.1l-0.4,0l-0.8,0.1c-0.3,0-0.4,0-0.5,0l-0.4,0.1c0,0-0.1,0-0.1,0c-0.1,0-0.1,0-0.2,0
			c-0.2,0.1-0.4,0.1-0.7,0.2c-0.1,0-0.2,0-0.3-0.1c0,0,0,0,0,0c-0.1,0-0.2,0-0.3,0l-0.1,0c-0.1,0-0.1,0.1-0.2,0.1l-0.5,0
			c-0.1,0-0.2,0-0.2-0.1c-0.1,0-0.1,0-0.2,0l0,0c-0.3,0.2-0.9,0.2-1.9,0.3c0,0-0.1,0-0.1,0c-0.1,0-0.2,0-0.3-0.1l-0.4,0.1
			c-0.1,0-0.2,0-0.3-0.1c0,0,0,0,0,0c-0.1,0.1-0.2,0.1-0.3,0.1l-0.4,0c0,0-0.1,0-0.1,0c-0.1,0-0.1,0-0.2,0l-0.5,0c0,0-0.1,0-0.3,0.1
			c0,0-0.1,0-0.1,0c-0.2,0-0.3,0-0.5,0l0,0c-0.1,0-0.1,0-0.2,0c-0.1,0-0.2,0-0.3-0.1c0,0-0.1,0-0.1,0l-0.1,0c0,0,0,0-0.1,0
			c0,0,0,0,0,0l-0.2,0l-0.2,0c-0.1,0.1-0.2,0.1-0.3,0.1c0,0,0,0-0.1,0c-0.3,0.5-0.6,1.1-1,2c-1.1,2-2.2,4-3.2,6.2
			c-0.5,1-0.9,1.7-1.2,2c-0.1,0.1-0.2,0.1-0.3,0.1c0,0-0.1,0-0.1,0.2c-0.1,0.1-0.2,0.2-0.3,0.3l-0.3,0.1c-0.1,0-0.1,0-0.2,0
			c-0.2,0-0.3-0.1-0.4-0.2l-0.1-0.1c-0.1-0.1-0.1-0.3,0-0.4c0.9-2.5,2.4-5.6,4.5-9.3c0.1-0.2,0.2-0.5,0.3-0.7l-0.5,0l-0.2,0.1
			c0,0-0.1,0-0.1,0c-0.8,0-1.4,0-1.7,0.1c0,0,0.1,0,0.1,0.1l0.6,0.5c0.1,0.1,0.2,0.2,0.2,0.3c0,0.1,0,0.3-0.1,0.4
			c-0.2,0.3-0.6,0.8-1.2,1.3c0,0,0,0,0,0c0,0.3-0.2,0.5-0.4,0.5c-0.1,0.1-0.2,0.3-0.4,0.3c0,0,0,0-0.1,0.1c0,0,0,0-0.1,0
			c0,0.5-0.3,0.7-0.5,0.7c-0.1,0.1-0.3,0.1-0.4,0c-0.1,0.1-0.2,0.2-0.4,0.3c-0.1,0.2-0.3,0.4-0.7,0.9c0,0.2-0.1,0.3-0.3,0.4
			c-0.1,0.1-0.1,0.1-0.1,0.1l0.1,0.3c0.1,0.2,0,0.4-0.2,0.5c-0.2,0.1-0.4,0.1-0.6,0c0,0,0,0,0,0c-0.1,0.1-0.2,0.3-0.5,0.8
			c0,0-0.1,0.1-0.1,0.1l-0.2,0.2c0,0,0,0.1,0,0.1c0,0.1,0,0.3-0.1,0.4c-0.2,0.2-0.4,0.6-0.6,1.1c0,0.1-0.1,0.2-0.2,0.3
			c0,0-0.1,0.1-0.1,0.2l0,0.3c0.2,0.2,0.3,0.4,0.3,0.6c0,0.1,0,0.1,0,0.2c-0.1,0.2-0.2,0.7-0.7,0.7c0,0,0,0-0.1,0
			c-0.1,0-0.2,0-0.2,0c-0.8-0.3-0.9-0.8-1-1.1l0-0.3c-0.1-0.7,0.4-1.7,1.3-3c0.1-0.1,0.2-0.4,0.4-0.7c0,0,0,0,0,0
			c-0.1,0-0.1,0-0.2,0c-1.2,1.3-1.7,1.8-2,1.9c0,0-0.1,0.1-0.1,0.1c0,0,0,0-0.1,0c-2.4,2.1-3.3,2.4-3.8,2.4l-0.3,0
			c-1.7-0.2-2.1-1-2.2-1.7c-0.1-1.5,1.4-3.6,4.8-6.6c2.3-1.8,3.2-2.1,3.6-2.1l0.2,0c0.6-0.1,1.5,0.1,2.7,0.5
			c0.2,0.1,0.4,0.3,0.4,0.5c0,0,0,0,0,0.1c1.4-1.3,2-1.8,2.3-1.9c-0.4,0-0.7,0-0.8,0c-0.2,0-0.4,0.1-0.5,0.1c-0.2,0-0.5,0-0.8,0
			c-0.3,0.1-0.5,0.1-0.6,0.1c0,0-0.1,0-0.1,0l-0.9,0c0,0-0.1,0-0.1,0c-0.1,0-0.1,0-0.2,0l-0.4,0c-0.2,0-0.5,0.1-0.8,0.1
			c0,0-0.1,0-0.1,0c-0.3,0-0.6,0-1.1,0c0,0,0,0,0,0c-0.1,0.1-0.2,0.1-0.3,0.1l-0.3,0c-0.6,0.1-0.9,0.1-0.9,0.1c-0.1,0-0.1,0-0.2,0
			c0,0,0,0-0.1,0c0,0-0.1,0-0.2,0c-0.2,0-0.3,0-0.4-0.1c0,0-0.1,0-0.1,0c-0.1,0-0.1,0.1-0.2,0.1l-0.2,0c0,0-0.1,0-0.1,0
			c0,0-0.1,0-0.1,0l-1.3,0.1c-0.1,0-0.2,0-0.3-0.1c0,0,0,0-0.1,0c0.1,0.1,0.1,0.2,0.1,0.4c0,0.1,0,0.1,0,0.2
			c-0.4,1.1-1.7,3.2-3.7,6.3c-0.8,1.3-1.2,1.8-1.4,2.1c0,0.1,0,0.1,0,0.2c-0.1,0.4-0.3,0.7-0.6,0.9c0,0,0,0,0,0
			c-0.1,0.2-0.1,0.3-0.3,0.5c0,0.1-0.1,0.3-0.2,0.3l-0.1,0.1c-0.1,0.1-0.2,0.1-0.3,0.1c-0.1,0.1-0.3,0.2-0.6,0.2c0,0,0,0,0,0
			c-0.3,0-0.5-0.2-0.6-0.5l0-0.1c0-0.3-0.1-0.7,2.7-5c1.8-2.8,2.2-3.5,2.2-3.6c0-0.1,0.1-0.2,0.1-0.3c0-0.1,0.2-0.3,0.8-1.5
			l-0.7,0.1c-0.1,0-0.2,0-0.3,0c-0.1,0.1-0.2,0.1-0.3,0.1l-0.2,0c-0.2,0-0.4,0-0.4,0.1c0,0,0,0.1,0,0.1c-0.3,0.5-0.6,0.9-0.9,1.2
			c-0.1,0.2-0.3,0.4-0.6,0.8c-0.2,0.3-0.4,0.7-0.6,0.9c-0.1,0.2-0.3,0.5-1.1,1.5c-0.1,0.2-0.3,0.5-0.6,0.9c-0.1,0.3-0.3,0.5-0.4,0.6
			c0,0.1-0.1,0.2-0.2,0.3l-0.2,0.2c0,0.1-0.1,0.2-0.2,0.3c0.1,0-0.1,0.1-0.6,1c-0.2,0.4-0.4,0.7-0.6,0.9c0,0.2-0.1,0.3-0.3,0.4
			c0,0,0,0.1-0.1,0.1c0,0.1,0,0.1-0.1,0.2c-0.2,0.3-0.4,0.4-0.6,0.5c0,0,0,0,0,0c-0.2,0.3-0.4,0.5-0.4,0.7c0,0.1-0.2,0.3-0.3,0.3
			l-0.6,0.2c-0.1,0-0.1,0-0.2,0c-0.1,0-0.2,0-0.3-0.1l-0.1-0.1c-0.1-0.1-0.2-0.2-0.2-0.3c0-0.1,0-0.3,0.1-0.4c0,0,0.1-0.1,0.1-0.1
			c0,0,0,0,0-0.1c0.2-0.5,0.6-1.1,1.1-1.9c0.1-0.3,0.4-0.8,1.6-2.5c0.1-0.2,0.3-0.4,0.4-0.5c0-0.1,0.1-0.2,0.2-0.3
			c0.2-0.1,0.3-0.3,0.5-0.7c0-0.1,0.1-0.2,0.2-0.2c0,0,0,0,0-0.1c0-0.1,0.1-0.2,0.1-0.2c0.7-0.9,1.3-1.7,1.7-2.4
			c0.1-0.1,0.2-0.2,0.3-0.2c0,0,0.2-0.1,0.4-0.4c0.1-0.1,0.1-0.2,0.2-0.3c-0.1,0-0.3,0-0.3,0l-0.3,0c-0.5,0-0.9,0.1-1.1,0.1l-0.6,0
			c0,0,0,0-0.1,0l0,0c0.1,0.1,0.2,0.2,0.2,0.4l0,0.2c0,0.2-0.1,0.4-0.3,0.5c0,0,0,0-0.1,0.1c-0.1,0.2-0.2,0.3-0.4,0.3
			c-0.1,0.1-0.2,0.2-0.4,0.2c-0.1,0.1-0.2,0.2-0.3,0.3c0,0.1-0.1,0.1-0.2,0.1c-0.2,0.1-0.6,0.3-1.4,1.1c-0.1,0.1-0.2,0.1-0.3,0.1
			c-0.2,0-0.5,0.2-0.7,0.5l0,0.2c0,0.1,0,0.3-0.1,0.4c-0.1,0.1-0.2,0.1-0.3,0.2c0,0-0.1,0.1-0.1,0.1c-0.1,0.3-0.3,0.5-0.5,0.6
			c0,0.1-0.1,0.2-0.3,0.3l-0.2,0.1c0,0.2-0.1,0.3-0.4,0.4c0,0.1-0.1,0.2-0.1,0.3c-0.3,0.3-0.5,0.5-0.7,0.6c0,0.1,0,0.1-0.1,0.2
			c-0.8,1.1-1.5,2.1-2.1,3.2c-0.1,0.4-0.3,1-0.8,1.1l-0.1,0c0,0,0,0,0,0c-0.1,0-0.2,0-0.2-0.1c-0.7-0.4-1-0.6-1-1c0-0.1,0-0.1,0-0.1
			c0.1-0.3,0.2-0.8,1.2-2.5l1.5-2.8c1.5-3,1.6-3,1.8-3.1l0.2,0c0.2,0,0.4,0.1,0.5,0.2c0.2,0.2,0.3,0.3,0.3,0.4
			c0.2,0.1,0.3,0.2,0.3,0.4c1.4-1.2,2.8-2,4.1-2.5c-1.3,0.1-2.2,0.2-2.7,0.3c-0.1,0-0.1,0-0.2,0l0,0l-0.6,0.1c0,0-0.1,0-0.1,0
			c-0.1,0-0.1,0-0.2,0l-0.2,0l-0.6,0l-0.4,0c-0.1,0-0.2,0.1-0.3,0.1c0,0,0,0,0,0c0,0-0.1,0-0.1,0l-0.4,0l-1,0.1c-0.3,0-0.6,0-0.8,0
			c0,0,0.1,0,0.1,0.1l0.6,0.5c0.1,0.1,0.2,0.2,0.2,0.3c0,0.1,0,0.3-0.1,0.4c-0.2,0.3-0.6,0.8-1.2,1.3c0,0,0,0,0,0
			c0,0.3-0.2,0.5-0.4,0.5c0,0,0,0.1-0.1,0.1c-0.1,0.1-0.2,0.2-0.3,0.2c0,0,0,0-0.1,0.1c0,0,0,0,0,0c0,0.5-0.3,0.7-0.5,0.7
			c-0.1,0.1-0.3,0.1-0.4,0c-0.1,0.1-0.2,0.2-0.4,0.3c-0.1,0.2-0.3,0.4-0.7,0.9c0,0.2-0.1,0.3-0.3,0.4c-0.1,0.1-0.1,0.1-0.1,0.1
			l0.1,0.3c0.1,0.2,0,0.4-0.2,0.5c-0.2,0.1-0.4,0.1-0.6,0c0,0,0,0,0,0c-0.1,0.1-0.2,0.3-0.5,0.8c0,0-0.1,0.1-0.1,0.1l-0.2,0.2
			c0,0,0,0.1,0,0.1c0,0.1,0,0.3-0.1,0.4c-0.2,0.2-0.4,0.6-0.6,1.1c0,0.1-0.1,0.2-0.2,0.3c0,0-0.1,0.1-0.1,0.2l0,0.3
			c0.2,0.2,0.3,0.4,0.3,0.6c0,0.1,0,0.1,0,0.2c-0.1,0.2-0.2,0.7-0.7,0.7c0,0,0,0-0.1,0c-0.1,0-0.2,0-0.2,0c-0.8-0.3-0.9-0.8-1-1.1
			l0-0.3c-0.1-0.7,0.4-1.7,1.3-3c0.1-0.1,0.2-0.4,0.4-0.7c0,0,0,0,0,0c-0.1,0-0.1,0-0.2,0c-1.2,1.3-1.7,1.8-1.9,1.9
			c0,0-0.1,0.1-0.1,0.1c0,0-0.1,0-0.1,0c-2.4,2.1-3.3,2.4-3.8,2.4l-0.3,0c-1.7-0.2-2.1-1-2.2-1.7c-0.1-1.5,1.4-3.6,4.8-6.6
			c2.3-1.8,3.2-2.1,3.6-2.1l0.2,0c0.6,0,1.5,0.1,2.7,0.5c0.2,0.1,0.4,0.3,0.4,0.5c0,0,0,0,0,0c1.5-1.5,2.1-1.9,2.4-2
			c-0.6,0-1.5-0.1-1.8-0.7c-0.1-0.1-0.2-0.3-0.2-0.6c0-0.2,0.1-0.4,0.3-0.5c1.4-0.5,3-1.1,4.9-1.6c1.6-0.4,2.2-0.6,2.4-0.7
			c0.1,0,0.1,0,0.2,0c0,0,0.1,0,0.1,0c1.2-0.4,3.1-0.9,5.5-1.4l0.2,0c0.1,0,0.2,0,0.2,0c0.5,0.2,0.8,0.5,0.9,1
			c0,0.2-0.1,0.5-0.4,0.5c-2.2,0.5-5,1.2-8.3,2.2c0.1,0,0.1,0,0.1,0c0.1,0,0.2,0,0.3,0c0,0,0.1,0,0.1,0c0,0,0.1,0,0.1,0l0.2,0
			l2.1-0.2c0.2,0,0.4-0.1,0.8-0.1c0.1,0,0.2,0,0.2,0l0.3-0.1l0.7-0.1c0,0,0.1,0,0.1,0c0,0,0.1,0,0.1,0c0.1,0,0.1,0,0.2,0
			c0.2,0,0.3,0,0.4,0c0.1,0,0.5-0.1,1.2-0.1l0.6,0c0.5,0,0.7-0.1,0.8-0.1c0-0.1,0.1-0.1,0.1-0.1c0.1,0,0.3-0.3,1.4-1.9
			c0.2-0.2,0.3-0.4,0.4-0.6c0.1-0.2,0.2-0.3,0.3-0.3c0,0,0.1-0.2,0.2-0.4c0,0,0-0.1,0.1-0.1c0.4-0.5,0.7-1,0.9-1.3
			c0.1-0.1,0.2-0.2,0.3-0.3c0,0,0,0,0,0c0,0,0.1-0.2,0.4-0.8c0.4-0.6,0.8-1.1,1-1.5c0-0.1,0.1-0.1,0.1-0.2c0-0.1,0.2-0.2,0.4-0.7
			c0-0.1,0.1-0.1,0.1-0.2c0,0,0.3-0.4,1.9-3c0.4-0.6,0.7-0.9,1-0.9l0.2,0c0.1,0,0.1,0,0.2,0c0.7,0.2,1.1,0.3,1.1,0.8
			c0,0.1,0,0.2-0.1,0.3l-4.4,6.6c0,0,0.1,0,0.1,0l0.3,0.3l0.3-0.2c0.1,0,0.2-0.1,0.2-0.1l0.1,0c0,0,0,0,0,0c0.4,0,0.7,0.2,0.8,0.7
			c0,0.6-0.2,1.4-1.4,1.9c0,0-0.1,0-0.2,0l-0.5,0c0,0,0,0,0,0c-0.1,0-0.2,0-0.3-0.1c-0.4-0.3-0.7-0.6-0.8-0.9c0,0,0,0.1-0.1,0.1
			c0,0,0,0,0,0c0,0-0.2,0.2-1.1,1.6c-0.2,0.4-0.5,0.7-0.8,1.1c0,0,0,0,0.1,0l0.1,0c0.1-0.1,0.2-0.1,0.3,0l0.1,0.5h0l0-0.5l0.9-0.2
			c0.1,0,0.2,0,0.3,0l0,0c0.1,0,0.1,0,0.2,0l0.3,0c0.1,0,0.2,0,0.3,0l0.1,0c0.1,0,0.2,0,0.3,0l0.5-0.1c0,0,0.1,0,0.1,0
			c0,0,0.1,0,0.1,0c0.1,0,0.3,0,0.5,0c0,0,0.3,0,0.8-0.1c0.1,0,0.2,0,0.3,0c0.3-0.1,0.6-0.1,0.7-0.1l0.8-0.1c0.1,0,0.1,0,0.2,0
			c0.1,0,0.1,0,0.2,0c0.1,0,0.2,0,0.5,0l0.4,0c0.3-0.1,0.6-0.1,0.9-0.1c0.1,0,0.3,0,0.7,0l0.1,0l0,0c0.1,0,0.2-0.1,0.2,0
			c0.2,0,0.4,0,0.5,0c0.1,0,0.3,0,0.7-0.1c0,0,0.1,0,0.1,0c0,0,0.1,0,0.1,0c0.1,0,0.3,0,0.7,0l0,0c0.1,0,0.2-0.1,0.2-0.1l0.5,0
			l1.4-0.1l0.4,0l0,0c0.1,0,0.2-0.1,0.2,0l0.4,0c0.2,0,0.3,0,0.4,0l0.6-0.1c0.1,0,0.2,0,0.3,0c0,0,0,0,0.1,0l0.3,0l0.1,0
			c0.2,0,0.5-0.1,0.6-0.1c0,0,0.1,0,0.1,0l0,0c0.4-0.8,0.8-1.5,1.2-2.2l1.2-2.3c1-2,1.2-2.6,1.3-2.7c0,0,0-0.1,0-0.1
			c0.4-0.8,1-2,1.7-3.7c0.4-0.6,0.7-0.9,1.1-0.9l0.1,0c0,0,0,0,0,0l0.1-0.1c0.1-0.1,0.2-0.1,0.3-0.1l0.1,0c0.4,0,0.7,0.3,0.7,0.6
			c0,0.2,0,0.5-1.4,3.4l-2.5,5.2l-1.4,2.6c0.8,0,1.3,0,1.5,0l0.3-0.1c0.8-0.1,1.4-0.1,1.9-0.1l0,0c0.1,0,0.2-0.1,0.3,0l0.3,0l0,0
			c0,0,0.1,0,0.1,0l0.5,0c0.1,0,0.1,0,0.2,0c0,0,0.1,0,0.1,0c0.4,0,0.7,0,1,0c0,0,0.1,0,0.1,0l0.2,0l0.2,0c0.1-0.1,0.2-0.1,0.3-0.1
			c0.1,0,0.2,0,0.3,0c0,0,0.1,0,0.3,0c0.1-0.1,0.2-0.1,0.3-0.1c0.1,0,0.2,0,0.3,0.1l0.3-0.1c0,0,0.1,0,0.1,0c0.4,0,0.7,0,0.8,0
			c0.1,0,0.2-0.1,0.3-0.1c0,0,0.1,0,0.1,0c0.1,0,0.1,0,0.2,0l1,0c0,0,0.1,0,0.1,0c0.1,0,0.1,0,0.2,0c0.2,0,0.3,0,0.4,0
			c0.1-0.1,0.3-0.1,0.4,0c0,0,0.2,0,1,0c0.3,0,0.5,0.2,0.5,0.5l0,0.3C155.3,88.3,155.3,88.4,155.2,88.5z M193,75
			c-0.3,0.2-0.6,0-0.9-0.6l-0.1-0.4l0.9-0.6l0.1,0.4L193,75z M194.2,75.3l-0.3,0.2c0-0.7-0.1-1.4-0.3-2.1l0.6-0.4l0.3,1
			C194.7,74.6,194.5,75,194.2,75.3z M211.5,74.6l-0.3,0.2c-0.1-0.5-0.6-1-1.2-1.5l-0.1-0.4l0.6-0.4c0.7,0.3,1.2,0.4,1.5,0.2
			C212,73.8,211.8,74.4,211.5,74.6z"/>
		<linearGradient id="SVGID_7_" gradientUnits="userSpaceOnUse" x1="123.2344" y1="95.7158" x2="132.2889" y2="95.7158">
			<stop  offset="0" style="stop-color:#FFDD00"/>
			<stop  offset="0.17" style="stop-color:#C9AD01"/>
			<stop  offset="0.355" style="stop-color:#FFDD00"/>
			<stop  offset="0.58" style="stop-color:#C9AD01"/>
			<stop  offset="0.77" style="stop-color:#FFDD00"/>
			<stop  offset="1" style="stop-color:#C9AD01"/>
		</linearGradient>
		<path class="st6" d="M125.2,96.2c-1.3,1.7-1.8,2.5-2,2.9c0.5-0.2,1.3-0.7,2.8-1.7l6.2-5.1c0,0,0.1-0.1,0.1-0.1
			c-2.3,0.6-4.2,1.4-5.6,2.5C126.2,95.3,125.7,95.8,125.2,96.2z"/>
		<linearGradient id="SVGID_8_" gradientUnits="userSpaceOnUse" x1="94.3837" y1="97.9232" x2="103.435" y2="97.9232">
			<stop  offset="0" style="stop-color:#FFDD00"/>
			<stop  offset="0.17" style="stop-color:#C9AD01"/>
			<stop  offset="0.355" style="stop-color:#FFDD00"/>
			<stop  offset="0.58" style="stop-color:#C9AD01"/>
			<stop  offset="0.77" style="stop-color:#FFDD00"/>
			<stop  offset="1" style="stop-color:#C9AD01"/>
		</linearGradient>
		<path class="st7" d="M96.4,98.4c-1.3,1.7-1.8,2.5-2,2.9c0.5-0.2,1.3-0.7,2.8-1.7l6.2-5.1c0,0,0.1-0.1,0.1-0.1
			c-2.3,0.6-4.2,1.4-5.6,2.5C97.4,97.5,96.9,98,96.4,98.4z"/>
	</g>
	<g>
		<g>
			<linearGradient id="SVGID_9_" gradientUnits="userSpaceOnUse" x1="-28.4823" y1="56.9534" x2="309.0934" y2="62.9282">
				<stop  offset="0" style="stop-color:#FFDD00"/>
				<stop  offset="0.17" style="stop-color:#C9AD01"/>
				<stop  offset="0.355" style="stop-color:#FFDD00"/>
				<stop  offset="0.58" style="stop-color:#C9AD01"/>
				<stop  offset="0.77" style="stop-color:#FFDD00"/>
				<stop  offset="1" style="stop-color:#C9AD01"/>
			</linearGradient>
			<path class="st8" d="M49.3,53.4H17.1v13.9h-4.8V48.8h38.8c2.4,0,3.6,1.3,3.6,3.9v14.5h-4.8V55.5C49.9,54.6,49.7,53.8,49.3,53.4z"
				/>
			<linearGradient id="SVGID_10_" gradientUnits="userSpaceOnUse" x1="-28.4475" y1="55.0307" x2="309.1291" y2="61.0056">
				<stop  offset="0" style="stop-color:#FFDD00"/>
				<stop  offset="0.17" style="stop-color:#C9AD01"/>
				<stop  offset="0.355" style="stop-color:#FFDD00"/>
				<stop  offset="0.58" style="stop-color:#C9AD01"/>
				<stop  offset="0.77" style="stop-color:#FFDD00"/>
				<stop  offset="1" style="stop-color:#C9AD01"/>
			</linearGradient>
			<path class="st9" d="M157.9,53.4h-32.2v13.9H121V48.8h38.8c2.4,0,3.6,1.3,3.6,3.9v14.5h-4.8V55.5
				C158.6,54.6,158.4,53.8,157.9,53.4z"/>
			<linearGradient id="SVGID_11_" gradientUnits="userSpaceOnUse" x1="-28.4701" y1="56.1008" x2="309.1123" y2="62.0757">
				<stop  offset="0" style="stop-color:#FFDD00"/>
				<stop  offset="0.17" style="stop-color:#C9AD01"/>
				<stop  offset="0.355" style="stop-color:#FFDD00"/>
				<stop  offset="0.58" style="stop-color:#C9AD01"/>
				<stop  offset="0.77" style="stop-color:#FFDD00"/>
				<stop  offset="1" style="stop-color:#C9AD01"/>
			</linearGradient>
			<path class="st10" d="M64.7,60.1v7.2H60V52.7c0-2.6,1.2-3.9,3.7-3.9h38.7v4.5H65.6c-0.4,0.4-0.7,0.9-0.9,1.4v0.7h37.6v4.6H64.7z"
				/>
			<linearGradient id="SVGID_12_" gradientUnits="userSpaceOnUse" x1="-28.4138" y1="53.3857" x2="309.1553" y2="59.3604">
				<stop  offset="0" style="stop-color:#FFDD00"/>
				<stop  offset="0.17" style="stop-color:#C9AD01"/>
				<stop  offset="0.355" style="stop-color:#FFDD00"/>
				<stop  offset="0.58" style="stop-color:#C9AD01"/>
				<stop  offset="0.77" style="stop-color:#FFDD00"/>
				<stop  offset="1" style="stop-color:#C9AD01"/>
			</linearGradient>
			<path class="st11" d="M179.4,48.4h42.4v4.5h-18.9v13.9h-4.8V52.9h-18.7V48.4z"/>
			<linearGradient id="SVGID_13_" gradientUnits="userSpaceOnUse" x1="-28.409" y1="52.6376" x2="309.1723" y2="58.6125">
				<stop  offset="0" style="stop-color:#FFDD00"/>
				<stop  offset="0.17" style="stop-color:#C9AD01"/>
				<stop  offset="0.355" style="stop-color:#FFDD00"/>
				<stop  offset="0.58" style="stop-color:#C9AD01"/>
				<stop  offset="0.77" style="stop-color:#FFDD00"/>
				<stop  offset="1" style="stop-color:#C9AD01"/>
			</linearGradient>
			<path class="st12" d="M234,59.6v1.2l0.7,0.9h36.9v5.1h-38.8c-2.4,0-3.7-1.5-3.7-4.5v-10c0-2.6,1.2-3.9,3.7-3.9h38.7v4.5h-36.7
				c-0.4,0.4-0.7,0.9-0.9,1.4v0.7h37.6v4.6H234z"/>
		</g>
		<linearGradient id="SVGID_14_" gradientUnits="userSpaceOnUse" x1="-28.4977" y1="57.5081" x2="309.1289" y2="63.4838">
			<stop  offset="0" style="stop-color:#FFDD00"/>
			<stop  offset="0.17" style="stop-color:#C9AD01"/>
			<stop  offset="0.355" style="stop-color:#FFDD00"/>
			<stop  offset="0.58" style="stop-color:#C9AD01"/>
			<stop  offset="0.77" style="stop-color:#FFDD00"/>
			<stop  offset="1" style="stop-color:#C9AD01"/>
		</linearGradient>
		<rect x="0.8" y="48.9" class="st13" width="4.8" height="18.4"/>
		<linearGradient id="SVGID_15_" gradientUnits="userSpaceOnUse" x1="-28.4667" y1="55.5853" x2="309.1304" y2="61.5605">
			<stop  offset="0" style="stop-color:#FFDD00"/>
			<stop  offset="0.17" style="stop-color:#C9AD01"/>
			<stop  offset="0.355" style="stop-color:#FFDD00"/>
			<stop  offset="0.58" style="stop-color:#C9AD01"/>
			<stop  offset="0.77" style="stop-color:#FFDD00"/>
			<stop  offset="1" style="stop-color:#C9AD01"/>
		</linearGradient>
		<rect x="109.4" y="48.9" class="st14" width="4.8" height="18.4"/>
		<linearGradient id="SVGID_16_" gradientUnits="userSpaceOnUse" x1="-28.474" y1="54.5247" x2="309.1621" y2="60.5006">
			<stop  offset="0" style="stop-color:#FFDD00"/>
			<stop  offset="0.17" style="stop-color:#C9AD01"/>
			<stop  offset="0.355" style="stop-color:#FFDD00"/>
			<stop  offset="0.58" style="stop-color:#C9AD01"/>
			<stop  offset="0.77" style="stop-color:#FFDD00"/>
			<stop  offset="1" style="stop-color:#C9AD01"/>
		</linearGradient>
		<rect x="169.3" y="48.9" class="st15" width="4.8" height="18.4"/>
	</g>
	<g>
		<linearGradient id="SVGID_17_" gradientUnits="userSpaceOnUse" x1="75.5402" y1="20.8741" x2="186.6904" y2="20.8741">
			<stop  offset="0" style="stop-color:#FFDD00"/>
			<stop  offset="0.17" style="stop-color:#C9AD01"/>
			<stop  offset="0.355" style="stop-color:#FFDD00"/>
			<stop  offset="0.58" style="stop-color:#C9AD01"/>
			<stop  offset="0.77" style="stop-color:#FFDD00"/>
			<stop  offset="1" style="stop-color:#C9AD01"/>
		</linearGradient>
		<path class="st16" d="M183.6,35.4c0.1-0.2,0.2-0.3,0.1-0.4c-0.1-0.2-0.2-0.5-0.3-0.7c-0.2,0.1-0.4,0.3-0.6,0.4
			c-0.1,0-0.1,0.1-0.1,0.1c-0.2,0.3-0.6,0.4-1,0.2c-0.5-0.2-1-0.4-1.4-0.6c-0.2,0.1-0.4,0.3-0.7,0.3c-0.2,0.1-0.5,0.1-0.8,0.1
			c-0.6,0.1-1.7,0.9-1.8,1.3c-0.2,0-0.4,0-0.6-0.1c0.1,0,0.1-0.1,0.1-0.1c-0.6-0.9-1.6-0.6-2.5-0.5c0.4,0.7,1.4,0.3,2.1,0.6
			c-0.5,0-0.8,0-1.1,0c0,0,0,0,0,0c0.3,0,0.6,0,0.9,0c-0.7,0.1-1.4,0.1-2,0.1c-0.1,0-0.3,0.1-0.4,0.1c-0.2,0-0.3,0.1-0.5,0
			c-0.2,0-0.3-0.2-0.4-0.2c-1-0.2-2-0.4-3-0.6c0,0-0.1,0.1-0.1,0.1c0.4,0.2,0.8,0.5,1.2,0.7c0,0-0.1,0.1-0.1,0.1
			c-0.4,0-0.7-0.1-1.2-0.1c0.2,0.3,0.3,0.4,0.4,0.6c-0.1,0-0.1,0.1-0.2,0.1c-0.2-0.2-0.5-0.3-0.6-0.5c-0.1-0.2-0.2-0.4-0.3-0.6
			c-0.1-0.2-0.2-0.5-0.4-0.8c-0.1,0-0.3,0-0.5-0.1c-1.6-0.4-3.2-0.8-4.8-1.3c-0.8-0.2-1.4-0.7-2.1-1.1c-0.1-0.1-0.4-0.2-0.5-0.1
			c-0.2,0.3-0.3,0-0.5-0.1c-0.3-0.2-0.4-0.4-0.7-0.6c-0.7-0.4-1.6-0.7-1.7-1.5c0.4,0.2,0.9,0.4,1.3,0.6c-0.5-0.5-0.8-1.2-1.9-1.3
			c0.1,0.1,0.1,0.1,0.2,0.2c-0.4,0-0.8,0.1-1.3,0.1c0,0.1-0.1,0.1-0.1,0.2c-1-0.8-2-1.5-3-2.3c0.1,0.1,0.2,0.2,0.3,0.4
			c0,0-0.1,0.1-0.1,0.1c-0.1,0-0.3-0.1-0.3-0.1c-0.4-0.4-0.9-0.8-1.3-1.2c-0.6-0.6-1-1.2-1.7-1.8c-0.2-0.2-0.7-0.4-1.1-0.5
			c-0.1,0-0.3,0.3-0.5,0.5c0,0-0.1,0-0.1,0.1c-0.8-0.5-1.5-1-2.3-1.5c-0.7-0.4-1.1-1.1-2-1.4c-0.2-0.1-0.5-0.1-0.8-0.1
			c0.3,0.5,1.3,0.5,1.2,1.1c-0.4-0.2-0.7-0.4-1-0.6c0,0,0,0-0.1,0c0.1,0.1,0.2,0.3,0.3,0.4l0,0l0,0c0,0,0,0,0,0
			c-0.2,0.1-0.4,0.2-0.5,0.2c-0.3-0.1-0.5-0.2-0.7-0.4c-0.1-0.2-0.2-0.4-0.2-0.7c0.3-0.2,0.3-0.3,0-0.6c-0.5-0.4-1.2-0.6-1.4-1.2
			c0-0.1-0.1-0.1-0.2-0.1c-0.8-0.2-1.3-0.7-1.9-1.1c-0.6-0.5-1.4-1-2-1.6c-0.2-0.2-0.4-0.5-0.6-0.7c-0.1-0.1-0.3-0.2-0.4-0.3
			c-1-0.2-1.4-0.5-1.5-1.1c0.2,0.1,0.5,0.2,0.8,0.4c0-0.2,0-0.3,0-0.4c-1-0.9-2-1.8-3-2.7c-0.1-0.1-0.1-0.2-0.2-0.2
			c0.2,0,0.5-0.1,0.7-0.1c0.5,0.6,0.6,0.6,1,0.6c-0.3-0.5-0.7-0.9-1-1.4c0.6,0,0.8,0.3,0.9,0.6c0.1,0.3,0.1,0.6,0.7,0.8
			c0-0.2,0-0.4-0.1-0.4c-0.6-0.4-0.5-1-1.3-1.3c-0.6-0.2-0.7-0.9-0.5-1.4c0.1,0.1,0.1,0.3,0.2,0.4c0.1,0.3,0.1,0.6,0.7,0.6
			c0.1,0,0.2,0.1,0.3,0.1c0.4,0.3,0.8,0.5,1.2,0.8c0.3,0.2,0.6,0.5,0.9,0.7c0,0,0,0.1,0.1,0.1c-0.1-0.1-0.2-0.1-0.3-0.2
			c-0.3,0.4,0.2,0.3,0.4,0.4c0.1,0,0.2,0.1,0.4,0.1c-0.3,0.2,0,0.4,0.2,0.6c0.7,0.6,1.4,1.1,2.1,1.6c0,0,0.1,0.1,0.1,0
			c0.6-0.1,0.6,0.2,0.7,0.4c0.4,0.7,0.9,1.4,1.8,1.9c0.1,0.1,0.2,0.2,0.2,0.2c1,0.8,2,1.6,3,2.4c0.1,0.1,0.4,0.1,0.6,0.1
			c0.1-0.1,0.1-0.1,0.2-0.2c-0.3-0.1-0.6-0.3-0.8-0.4c-1.1-0.7-2.1-1.4-2.6-2.4c-0.1-0.1-0.2-0.2-0.4-0.4c-1.3-1.1-2.5-2.1-3.8-3.2
			c-0.1-0.1-0.2-0.2-0.2-0.2c0.2-0.4-0.3-0.5-0.6-0.7c-1.2-0.7-1.9-1.7-2.7-2.6c-0.3-0.4-0.4-0.9-1.1-1.1c-0.2-0.1-0.5-0.2-0.5-0.3
			c0-0.4-0.4-0.5-0.7-0.6c-0.3-0.1-0.6-0.2-0.9-0.4c0.2-0.1,0.3-0.2,0.6-0.3c-0.7-0.1-0.7-0.1-0.9-0.5c-0.1-0.2-0.2-0.3-0.3-0.5
			c-0.3-0.4-0.5-0.8-0.1-1.3c-0.4,0-0.7,0-0.9,0.1c-0.5,0.7,0.1,1.3,0.2,1.9c-0.2-0.2-0.4-0.5-0.5-0.7c-0.1-0.3-0.2-0.7-0.4-1
			c-0.1-0.2-0.3-0.5-0.5-0.7c-0.1,0-0.2,0-0.2,0.1c0.3,1.2,0.6,2.5,0.9,3.8c-0.1-0.1-0.2-0.1-0.2-0.1c-0.3-0.5-0.7-0.9-1.3-1.2
			c-0.1,0-0.1-0.1-0.1-0.2c0.1,0,0.2-0.1,0.3-0.1c0.1,0,0.3,0,0.4,0.1c0,0,0-0.1,0-0.1c-0.2-0.1-0.5-0.2-0.7-0.2
			c-0.2-0.1-0.5-0.1-0.3-0.4c0.3,0.1,0.5,0.2,0.8,0.3c-0.1-0.6-0.2-1.1-0.3-1.7c-0.1-0.4-0.4-0.5-0.8-0.4c-0.6,0.1-0.9,0.1-1.3-0.3
			c0.2,0,0.5,0.1,0.6,0c0.5-0.2,0.9-0.1,1.3,0.1c-0.2-0.2-0.3-0.4-0.6-0.5c-0.3-0.1-0.6-0.1-0.9-0.1c-0.2,0-0.3-0.1-0.5-0.1
			c0.2-0.1,0.3-0.2,0.5-0.3c0.1,0,0.1,0,0.2,0c0,0,0-0.1,0-0.1c-0.1,0-0.3,0-0.4,0c-0.3,0-0.7,0.2-1,0.1c-0.6-0.1-1.2-0.4-1.9-0.5
			C121.8,3,121.6,3,121.3,3c0,0-0.1,0.1,0,0.1c0.2,0.1,0.4,0.2,0.6,0.3c0,0,0.1,0,0.1,0c0.6,0.2,1.1,0.3,1.7,0.5
			c0.1,0,0.1,0.2,0.2,0.2c-0.8-0.2-1.5-0.4-2.2-0.6c-0.5-0.2-1-0.5-1.6-0.6c-0.4-0.1-0.4-0.2-0.1-0.4c-0.3-0.1-0.5-0.1-0.8-0.2
			c0,0.1,0,0.3,0,0.5c-0.9-0.3-1.8-0.5-2.6-0.7c-1.2-0.4-2.4-0.5-3.6-0.6c-0.3,0-0.4,0-0.5-0.3c0-0.3-0.9-0.5-1.2-0.4
			c-0.7,0.4-1.5,0.2-2.2,0c-0.2,0-0.3-0.1-0.5-0.2c-0.1,0.5-0.8,0.8-1.4,0.7c-0.3,0-0.6,0-0.9,0c-0.4,0-0.8,0.1-1.1,0
			c-0.5-0.1-1-0.2-1.3-0.3c-0.2,0.1-0.5,0.3-0.6,0.3c-0.5-0.1-1.2,0-1.4-0.5c0-0.1-0.1-0.2-0.2-0.2c-0.1,0-0.1,0.1-0.2,0.1
			c0.1,0.2,0.3,0.4,0.4,0.6c-1.1-0.1-2.1-0.1-3.1-0.2c-0.4,0-0.8-0.1-1.2-0.2c-0.6-0.2-1.1-0.5-1.7,0.1C95.8,1,95.6,1,95.5,1
			c0.2,0.1,0.5,0.1,0.7,0.2c0.3,0.1,0.6,0.2,0.8,0.3c0.3,0.2,0.4,0.4,0.9,0.3c0.1,0,0.3,0.1,0.6,0.3c-0.4,0.1-0.6,0.2-0.7,0.2
			c-0.5,0-1-0.1-1.5-0.2C95.9,2,95.7,2,95.6,2.2c-0.8,0-1.6-0.1-2.3-0.1c0.1,0.3,0.1,0.5,0.2,0.8c-0.1,0-0.1,0-0.2,0
			c-0.1-0.2-0.2-0.3-0.4-0.6c-0.1,0.2-0.1,0.3-0.1,0.3c-0.2,0-0.5,0.1-0.7,0.1c-0.1-0.1-0.2-0.1-0.3-0.2c0,0.2,0,0.3-0.1,0.5
			c-0.5-0.2-1-0.3-1.4-0.4c-0.3,0-0.6,0.1-0.9,0.3c-0.1,0.1,0,0.4,0.2,0.5c0.2,0.3,0.5,0.6,0.8,0.8c0,0-0.1,0.1-0.1,0.1
			c-2.8-0.5-5.6-0.3-8.4-0.3c0,0,0.1,0.1,0.1,0.1C82.5,4.5,83,4.7,83.6,5c0,0.1-0.1,0.1-0.1,0.2c-0.2,0-0.5,0-0.7,0
			c-1.2-0.1-2.4-0.3-3.6-0.5c-0.2,0-0.5,0-0.7,0c0,0,0,0.1,0,0.1c1.8,0.3,3.6,0.4,5.1,0.9c0,0.3,0,0.6-0.1,0.8
			c0,0.1-0.1,0.3-0.2,0.4c-0.8,0.4-1.8,0.3-2.7,0.3c-0.4,0-0.8,0-1.2,0c0,0.1,0,0.1,0,0.1c0.2,0,0.4,0.1,0.6,0.1c0.8,0,1.7,0,2.5,0
			c0.7,0,1.4,0,2.2,0c0,0,0,0.1,0,0.1c-1,0.6-2.2,0.9-3.6,0.9c0.1-0.1,0.2-0.2,0.3-0.3c0,0-0.1-0.1-0.1-0.1
			c-0.4,0.1-0.9,0.2-1.4,0.4c0.7,0.2,1.3,0.5,2,0.3c0.3-0.1,0.8,0,1.2,0.1c-0.1,0.2-0.2,0.3-0.1,0.3c0.3,0.6-0.4,0.7-0.8,0.8
			c-1,0.2-2.1,0.4-3.1,0.6c-0.4,0.1-0.8,0.2-1.2,0.3c0,0,0,0.1,0,0.1c0.6,0,1.3,0.1,1.8-0.3c0.1-0.1,0.3-0.1,0.5,0
			c0.1,0,0.2,0.2,0.2,0.2c-0.1,0.1-0.3,0.2-0.4,0.2c-0.9,0.1-1.8,0.2-2.7,0.3c-0.3,0-0.7,0.2-1,0.3c0,0.1,0,0.1,0,0.2
			c0.2,0.1,0.5,0.1,0.7,0.1c0.9,0,1.8,0.1,2.7,0.1c0.4,0,0.7,0.1,1.2,0.2c-0.7,0.4-1.4,0.7-2.2,0.5c-0.1,0-0.3,0-0.4,0
			c-0.1,0.1-0.2,0.2-0.3,0.3c0.1,0,0.2,0.1,0.4,0.1c0.4,0,0.8,0,0.8,0.4c0,0.4-0.3,0.6-0.7,0.6c-0.7,0.1-1.4,0-2.1,0.1
			c-0.2,0-0.4,0.1-0.6,0.1c0,0,0,0.1,0,0.1c1.3,0,2.5,0,3.9,0c-0.5,0.2-1,0.3-1.2,0.5c-0.3,0.3-0.6,0.7-1.3,0.5
			c0.1,0.1,0.2,0.1,0.2,0.2c0.3,0.1,0.6,0.3,0.9,0.4c0.7,0.3,0.7,0.5,0.1,0.9c0.4,0.4,0.4,0.4,0.2,0.9c0,0.1,0,0.1,0,0.2
			c-0.1,0.6-0.1,1.2-0.2,1.7c0,0.1-0.2,0.3-0.3,0.4c-0.1-0.1-0.2-0.3-0.2-0.4c0-0.4,0.1-0.8,0.1-1.2c0-0.1,0-0.4-0.1-0.4
			c-0.5-0.2-0.5-0.5-0.5-0.8c0-0.2-0.1-0.3-0.2-0.5c-0.2,0.4-0.3,0.7-0.1,1.1c0.2,0.6,0,1.2,0,1.8c0,0.2-0.1,0.4-0.1,0.6
			c0.1,0.7,0.2,1.4,0.2,2.1c0,0.2-0.1,0.5-0.1,0.7c-0.1,0-0.1,0-0.2,0c-0.1-0.1-0.1-0.2-0.2-0.2c-0.1-0.1-0.1-0.2-0.2-0.2
			c-0.3,0.6-0.2,0.7,0.4,1.1c0.2,0.1,0.3,0.4,0.3,0.4c-0.4,0.3-0.1,0.6,0,0.8c0.1,0.5,0.4,0.9,0.5,1.4c0.2,0.6,0.4,1.2,1.1,1.7
			c0.1,0,0.1,0.1,0.1,0.2c0.2,0.4,0.3,0.8,0.5,1.2c0,0.1,0,0.2,0,0.4c-0.2,0-0.4,0-0.5,0c0,0.1,0.1,0.3,0.1,0.4
			c-0.2,0.4,0.1,0.7,0.8,0.6c0.1,0.2,0.1,0.5,0.2,0.8c-0.2-0.1-0.4-0.3-0.5-0.4c0.3,0.5,0.7,1,1.1,1.5c0.1,0.1,0.4,0.1,0.6,0.2
			c0,0.1,0,0.2,0,0.4c0,0,0.1,0,0.1,0c0-0.1,0-0.2,0.1-0.2c0.3,0.1,0.7,0.1,0.9,0.3c0.3,0.1,0.5,0.3,0.7,0.5
			c0.2,0.2,0.4,0.5,0.3,0.6c-0.3,0.3-0.6,0-0.8-0.1c0,0-0.1,0-0.2,0c0.4,0.3,0.8,0.6,1.2,0.9c0,0,0,0.1,0,0.1c-0.2,0-0.5,0-0.7,0
			c-0.4-0.1-0.8-0.2-1.1-0.3c0,0,0,0.1-0.1,0.1c0.3,0.3,0.5,0.5,1.1,0.6c0.7,0.1,1.2,0.6,1.8,0.9c0.2,0.1,0.3,0.3,0.5,0.3
			c0.7,0.3,1.4,0.6,2.1,0.9c0.2,0.1,0.4,0.3,0.6,0.4c0,0-0.1,0.1-0.1,0.1c-0.3,0-0.5,0-0.9,0c0.3,0.4,0.7,0.5,1.2,0.4
			c0.2-0.1,0.5,0,0.7,0.1c0.2,0.1,0.3,0.3,0.5,0.3c0.6,0.2,1.3,0.4,1.9,0.5c0.6,0.1,1.3,0.1,2,0.2c0.2,0,0.3,0,0.5,0.1
			c0.3,0.1,0.6,0.2,0.9,0.2c0.2,0.1,0.5,0.1,0.7,0.1c0,0,0,0.1,0,0.1c-0.2,0.1-0.4,0.2-0.6,0.3c0.2,0.1,0.7,0.1,0.3,0.4
			c0.1,0,0.1,0,0.2,0c0.5-0.1,0.9-0.3,1.5-0.4c0.7,0.2,1,0.2,1.4-0.2c-0.7,0-1.2,0-1.8,0c0,0,0-0.1,0-0.1c0.5-0.1,0.9-0.1,1.4-0.2
			c0-0.1,0-0.1,0-0.2c-0.4,0-0.9,0.1-1.3,0.1c0.6-0.5,1.4-0.4,2.1-0.5c0.7-0.1,1.4,0,2.1-0.1c1.4-0.2,2.7-0.4,4.1-0.7
			c-0.5,0.4-1.1,0.7-1.8,0.7c-0.7,0-1.4,0.1-2.1,0.4c-0.3,0.1-0.7,0.2-1.1,0.2c-0.5,0-1,0.1-1.4,0.1c0,0,0,0.1,0,0.1
			c0.3,0,0.7,0,0.9,0c0,0.2,0,0.3,0,0.5c-0.8,0.1-1.7,0.1-2.5,0.2c0,0,0,0.1,0,0.1c0.9,0,1.7-0.1,2.6-0.1c0.3,0,0.6-0.5,1-0.1
			c0-0.2-0.1-0.3,0-0.3c0.4-0.2,0.7-0.4,1.1-0.5c0.6-0.2,1.1-0.3,1.7-0.4c0.3-0.1,0.6-0.1,0.9-0.1c0,0.1,0.1,0.1,0.1,0.2
			c-0.5,0.2-1,0.5-1.5,0.7c1.3-0.2,2.5-0.5,3.7-0.8c0.6-0.2,1.3-0.4,1.9-0.6c1.2-0.3,2.3-0.8,3.4-1.2c0.9-0.3,1.7-0.8,2.5-1.1
			c2.9-1.3,5.7-2.6,8.6-3.9c0.2-0.1,0.3-0.2,0.4-0.2c0,0-0.1-0.1-0.1-0.1c-1,0.4-2,0.8-3,1.2c0,0-0.1-0.1-0.1-0.1
			c2.4-0.9,4.6-2,6.6-3.5c-0.3,0.1-0.5,0.1-0.7,0.2c2.9-1.4,6.1-2.5,8.7-4.2c0,0-0.1-0.1-0.1-0.1c-1.4,0.7-2.9,1.4-4.3,2.1
			c0,0,0,0,0,0c0.6-0.4,1.1-0.7,1.7-1.1c-2,0.7-3.3,2.1-5.6,2.5c1.9-0.7,3.6-1.6,4.9-2.8c-0.2,0-0.3,0.1-0.5,0.2
			c-1.6,0.9-3.3,1.8-4.9,2.7c-0.9,0.5-1.9,0.9-2.9,1.3c-1.1,0.5-2.2,0.9-3.3,1.4c-0.4,0.2-0.8,0.5-1.2,0.6c-2.2,1-4.4,2-6.7,2.8
			c-1.9,0.7-3.9,1.2-5.9,1.9c-1,0.3-2.2,0.4-3.1,0.9c0,0-0.1,0-0.1,0c0-0.1,0.1-0.1,0.1-0.1c-1.1,0-2.2,0-3.3,0.1
			c-0.3,0-0.7,0.1-1,0.1c-0.3,0-0.6,0.1-0.8,0.1c-1.1-0.1-2.1-0.3-3.2-0.4c-0.5-0.1-1-0.3-1.5-0.4c0.3-0.1,0.6-0.1,0.9-0.2
			c0.4-0.2,0.8-0.2,1.2,0c1.7,0.5,3.5,0.6,5.2,0.5c2.9-0.2,5.7-1,8.4-1.8c4-1.3,7.8-2.9,11.5-4.6c2.8-1.3,5.4-2.7,8.2-4.1
			c0.2-0.1,0.3-0.2,0.4-0.3c0,0-0.1-0.1-0.1-0.1c-0.5,0.2-1.1,0.3-1.5,0.6c-0.6,0.3-1.2,0.7-1.8,1c-3.4,1.8-7,3.4-10.7,4.8
			c-2.6,1-5.4,1.9-8.1,2.8c-1.5,0.5-2.9,1-4.6,1.1c-1.4,0.1-2.9,0.2-4.3,0.4c0,0-0.1,0-0.1,0c0.1-0.1,0.1-0.2,0.2-0.3
			c-0.7-0.1-1.4-0.1-2.1-0.2c0.4-0.1,0.8-0.2,1.1-0.3c0,0,0-0.1,0-0.1c-0.3,0-0.7,0-1,0.1c-0.8,0.1-1.1,0-1.3-0.4
			c1.8,0.1,1.8,0.1,2.3-0.3c-0.4,0-0.7,0-1.1,0c-0.7,0-1.4,0-2.1-0.2c-0.6-0.2-1.4-0.1-1.9-0.6c0,0-0.2,0-0.3,0c-0.1,0-0.3,0-0.4,0
			C89.4,35,88.2,34.5,87,34c-0.5-0.2-0.8-0.6-1.1-0.9c-0.9-0.8-1.7-1.7-2.6-2.6c-0.2-0.2-0.3-0.3-0.4-0.5c-0.1-0.2-0.2-0.4-0.3-0.5
			c-0.5-0.1-0.6-0.4-0.8-0.7c-0.4-1-0.9-2-1.3-3c-0.2-0.5-0.1-1.1-0.1-1.6c0-0.2,0-0.5,0-0.8c-0.1,0.1-0.2,0.2-0.2,0.2
			c-0.2-0.4,0.3-0.4,0.6-0.5c0,0.2,0.1,0.4,0.1,0.6c0.6,1.9,1.1,3.7,2.2,5.5c0.8,1.4,2,2.6,3.5,3.6c1.8,1.3,4.1,2,6.5,2.6
			c0.8,0.2,1.6,0.1,2.4,0.1c0.1,0,0.2-0.1,0.3-0.1c-0.1-0.1-0.1-0.2-0.2-0.3c-0.4-0.3-0.8-0.1-1.2-0.1c-2.5-0.3-4.8-0.9-6.5-2.4
			c-0.1-0.1-0.2-0.3-0.4-0.3c-0.9-0.2-1.4-0.7-2-1.2c-0.2-0.1-0.4-0.2-0.5-0.4c-0.3-0.4-0.6-0.9-0.9-1.4c-0.4-0.5-0.9-1-1.1-1.6
			c-0.5-1.1-0.8-2.2-1.2-3.4c-0.2-0.8-0.4-1.6,0-2.4c0.1-0.2,0.2-0.5,0.2-0.7c0.1-0.4,0.1-0.8,0.1-1.3c0-0.4,0.5-0.7,0.3-1.1
			c0,0,0.1-0.1,0.1-0.2c0.1,0.3,0.1,0.5,0.2,0.8c0.4-0.2,0.5-0.4,0.2-0.6c-0.3-0.2-0.2-0.3-0.1-0.5c0.1-0.4,0.5-0.9-0.2-1.3
			c-0.1,0-0.1-0.2,0-0.3c0,0,0.2,0,0.3,0c0.1,0,0.2,0.1,0.4,0.1c0-0.4,0.1-0.7,0.1-1c0-0.5,0.2-0.8,0.5-1.2c0.5-0.6,0.9-1.2,1.4-1.8
			c0.1-0.2,0.1-0.4,0.2-0.6c-0.4,0.1-0.6,0.1-0.8,0.2c0,0,0,0-0.1-0.1c0.7-0.5,1.4-1.1,2.3-1.7c-0.5,0.1-0.8,0.2-1.1,0.3
			c-0.4-0.2-0.8-0.3-1.1-0.5c-0.1-0.1-0.1-0.3-0.2-0.4c0.2,0,0.4-0.1,0.6-0.1c0.1,0,0.2,0.1,0.3,0.2c0.5,0.4,0.7,0.4,1.2,0
			c0.2-0.1,0.3-0.2,0.5-0.3c0.5,0.3-0.1,0.9,0.9,0.9c-0.1,0.2-0.2,0.3-0.3,0.5c0.8-0.7,1.6-1.3,2.4-1.9c0.1,0,0.1-0.1,0.1-0.2
			c-0.1,0-0.2,0-0.3,0C90,8.9,90.1,8.9,90.6,9c0.5,0.1,0.8,0,0.9-0.4c0.2-0.1,0.4-0.1,0.6-0.2c0.2-0.1,0.4-0.1,0.6-0.2
			c-0.4,0.3-0.4,0.3-0.1,0.4c0.2,0,0.3-0.1,0.6-0.1c-0.4,0.2-0.8,0.4-1.1,0.5c0,0,0,0,0.1,0.1c0.2,0,0.4,0,0.7-0.1
			c-0.2,0.1-0.2,0.2-0.4,0.3c1.2-0.2,2.7-1,2.7-1.5c-0.5,0-1-0.1-1.4-0.1c-0.2,0.1-0.4,0.1-0.6,0.2c0.2-0.1,0.4-0.3,0.6-0.4
			c0.1-0.1,0.2-0.2,0.3-0.3c1.6,0.2,3.2,0,4.7-0.6c0-0.3,0.6-0.6,1-0.5c0.8,0.2,1.6,0,2.4,0c0.8-0.1,1.6-0.4,2.4,0
			c0.3-0.3,0.5-0.4,1-0.3c1.3,0.3,2.6,0.6,4,0.8c0.1,0,0.2,0,0.3,0.1c0.3,0.1,0.5,0.3,0.8,0.4c0.8,0.3,1.7,0.5,2.5,0.8
			c0.8,0.3,1.6,0.6,2.4,0.9c0,0,0,0.1-0.1,0.1c-0.9-0.3-1.9-0.6-2.8-1c0,0,0,0.1-0.1,0.1c0.6,0.2,1.3,0.4,1.9,0.7
			c0.6,0.2,1.1,0.5,1.7,0.8c0.7,0.3,1.4,0.6,2,0.9l0,0c0,0,0,0,0,0c0,0,0,0,0,0h0c0,0,0,0,0,0c0,0,0,0,0,0c0.1,0.1,0.2,0.2,0.3,0.3
			c-0.2,0-0.3,0.1-0.5,0.1c0.7,0.3,1.4,0.6,2.1,0.9c0.6,0.3,1,0.8,1.6,1.2c0.6,0.4,1.2,0.8,1.7,1.2c0.4,0.4,0.9,0.8,1,1.2
			c0.1,0.3,0.2,0.6,0.5,0.7c0.5,0.3,0.7,0.6,0.9,1c0.1,0.2,0.3,0.4,0.6,0.3c0.1,0,0.3,0.1,0.4,0.1c0.4,0.4,0.8,0.9,1.2,1.3
			c0.4,0.4,0.3,1-0.2,1.4c0.2,0.2,0.5,0.4,0.7,0.6c0.4-0.2,0.6-0.3,0.9-0.4c0.5-0.1,0.4,0.3,0.6,0.4c1.2,1.1,2.3,2.3,3.6,3.3
			c1.3,0.9,2.6,1.7,3.9,2.5c0.1,0.1,0.1,0.1,0.2,0.2c0,0,0,0,0,0l0,0c0,0,0,0,0.1,0c0,0,0,0-0.1,0c1.5,0.9,3,1.8,4.5,2.8
			c1.7,1,3.5,2,5.3,3c1.1,0.7,2.2,1.3,3.3,2c2.4,1.3,5.2,1.9,7.8,2.8c0,0,0.1,0,0.2,0c-0.1-0.1-0.2-0.1-0.4-0.3
			c2.2,0.4,4.2,1.1,6.3,1.2c-0.9-0.2-1.8-0.4-2.7-0.6c1.5-0.1,2.7,0.7,4.2,0.4c0.5,0.3,1.2,0.2,1.8,0.2c1.5,0.1,2.9,0.2,4.4,0.2
			c1.5,0.1,3,0.1,4.5,0.1c0.8,0,1.7,0,2.5,0c0,0,0-0.1,0-0.1c-0.3,0-0.6,0-0.8,0c-0.3,0-0.5,0-0.8,0c0,0,0-0.1,0-0.1
			c0.1,0,0.2,0,0.4,0c1.9,0,3.6-0.4,5.4-0.9c0.3-0.1,0.6-0.2,0.8-0.4c0.7-0.3,1.6-0.6,1.8-1.3c0.1-0.2,0.3-0.4,0.4-0.7
			C185.7,35,184.7,35.3,183.6,35.4z M103.6,1.6c-0.3,0-0.7-0.1-1.1-0.1C102.9,1.6,103.3,1.6,103.6,1.6z M104.2,2
			c0.2,0,0.3-0.1,0.2-0.3l0,0l0,0l0,0l0,0l0,0l0,0l0,0C104.5,1.9,104.5,2,104.2,2z M104.4,1.7c0.1,0.1,0.2,0.1,0.3,0.2
			C104.7,1.8,104.5,1.8,104.4,1.7z M117.6,10C117.6,10,117.6,10,117.6,10C117.6,10,117.6,10,117.6,10z M137.4,26.5
			C137.4,26.6,137.5,26.6,137.4,26.5C137.5,26.6,137.4,26.6,137.4,26.5z"/>
		<linearGradient id="SVGID_18_" gradientUnits="userSpaceOnUse" x1="145.9659" y1="19.1501" x2="197.02" y2="19.1501">
			<stop  offset="0" style="stop-color:#FFDD00"/>
			<stop  offset="0.17" style="stop-color:#C9AD01"/>
			<stop  offset="0.355" style="stop-color:#FFDD00"/>
			<stop  offset="0.58" style="stop-color:#C9AD01"/>
			<stop  offset="0.77" style="stop-color:#FFDD00"/>
			<stop  offset="1" style="stop-color:#C9AD01"/>
		</linearGradient>
		<path class="st17" d="M197,18c-0.4-0.3-0.2-0.8-0.3-1.1c-0.2-0.7-0.1-1.4-0.7-2c-0.2-0.3-0.4-0.6-0.4-0.9c0.1-0.4-0.1-0.6-0.3-0.9
			c-0.2-0.3-0.4-0.5-0.6-0.8c-0.5-0.8-1-1.5-1.6-2.3c-0.1,0-0.1,0.1-0.2,0.1c0.1,0.2,0.3,0.4,0.4,0.7c0.1,0.3,0.2,0.6-0.2,0.8
			c-0.1,0.1-0.6-0.2-0.8-0.3c-0.7-0.7-1.3-1.4-1.9-2.2c0,0,0,0,0-0.1c0.1,0,0.2,0.1,0.5,0.2c-0.2-0.4-0.4-0.7-0.6-1c0,0,0.1,0,0.1,0
			c0.2,0.1,0.4,0.1,0.6,0.2c0,0,0.1-0.1,0.1-0.1c-0.2-0.1-0.4-0.2-0.6-0.2c-0.2-0.1-0.5,0-0.8-0.1c0.2-0.2,0.3-0.3,0.5-0.5
			c-1.3-0.8-2.6-1.6-3.9-2.4c-0.1,0.1-0.1,0.1-0.2,0.2c1.1,0.8,2.2,1.5,3.4,2.3c-0.5,0-1-0.3-1.1,0.3c-0.6-0.3-1.2-0.6-1.7-0.9
			c0,0-0.1,0.1-0.1,0.1c0.2,0.1,0.4,0.3,0.6,0.4c0.4,0.2,0.9,0.4,1.3,0.7c0.4,0.3,0.8,0.6,1,1c0.2,0.5,0.5,0.8,1,1.1
			c0.4,0.2,0.8,0.5,1.2,0.8c0.5,0.4,0.6,0.8,0.2,1.2c0,0-0.1,0-0.1,0c-0.2-0.2-0.4-0.4-0.6-0.6c-1.4-1.3-2.9-2.7-4.7-3.7
			c-0.3-0.1-0.6-0.2-0.9-0.3c0.1,0,0.1-0.1,0.2-0.1c-0.5-0.3-1-0.5-1.4-0.8c-0.3-0.2-0.3-0.6-0.5-0.9c0,0,0.3-0.2,0.3-0.1
			c0.2,0.1,0.4,0.2,0.5,0.4c0.2,0.4,0.8,0.6,1.5,0.4c-0.6-0.4-1.2-0.8-1.8-1.1c0,0,0.1-0.1,0.1-0.1c0.2,0.1,0.4,0.1,0.6,0.2
			c0.5,0.2,0.9,0.5,1.3,0.8c0.3,0.2,0.8,0.5,1.1,0.2c0.3-0.3-0.3-0.5-0.6-0.7c-0.5-0.2-1-0.3-1.6-0.4c0.2-0.1,0.3-0.1,0.4-0.1
			c-0.3-0.5-0.5-1.1-1.4-1.3c-0.1,0.1-0.1,0.3-0.2,0.4c-0.4-0.1-0.8-0.2-1.2-0.3c0,0.1,0,0.2,0,0.2c0.3,0.1,0.4,0.4,0.2,0.5
			c-0.1,0.1-0.5,0.2-0.7,0.1c-0.4-0.1-0.9-0.2-1.2-0.4c-0.5-0.2-1-0.3-1.5-0.2c-0.3,0-0.6-0.1-0.9-0.2c-0.6-0.2-1.1-0.5-1.6-0.6
			c-1.7-0.3-3.5-0.5-5.2-0.2c0,0-0.1,0-0.1,0c-0.6-0.2-1.2,0-1.8,0.1c-0.1,0-0.3,0.1-0.4,0.2c-0.2,0.3-0.7,0.4-1.2,0.2
			c0.4-0.2,0.8-0.4,1.1-0.6c0,0-0.1-0.1-0.1-0.1c-0.4,0.2-0.8,0.4-1.1,0.6c-0.3-0.1-0.7-0.4-0.9-0.3c-0.8,0.1-1.4,0.4-2,0.9
			c0.5,0,0.9,0,1.3,0.1c0,0.1,0,0.1,0.1,0.2c-0.4,0.2-0.8,0.5-1.3,0.7c-1.9,0.8-3.9,1.5-5.8,2.2c-0.6,0.2-1,0.5-1.5,0.8
			c-0.2,0.1-0.4,0.2-0.6,0.4c-0.1-0.1-0.1-0.2-0.1-0.2c-1.2,0.7-2.3,1.3-3.5,2c-0.1-0.2-0.1-0.3-0.1-0.5c-0.7,0.4-1.4,0.8-2.2,1.3
			c1.1,0.1,1.8-0.3,2.4-0.6c0.3,0.2,0.5,0.3,0.7,0.5c0.2-0.1,0.4-0.2,0.6-0.4c1-0.6,2.1-1.2,3.1-1.7c0.2-0.1,0.4-0.1,0.8-0.2
			c-0.1,0.6-0.6,0.9-1,1.2c-0.8,0.5-1.6,0.9-2.4,1.4c-1,0.6-2.1,1.3-3.1,1.9c-0.1,0.1-0.3,0.3-0.2,0.4c0.2,0.5,0,0.8-0.7,0.9
			c0-0.1,0.1-0.3,0.1-0.4c0,0-0.1,0-0.1-0.1c-0.6,0.3-1.1,0.6-1.7,0.9c0.1,0,0.1,0,0.2,0.1c0,0.1,0.1,0.3,0,0.4
			c-0.2,0.2-0.6,0.4-1,0.2c-0.1,0-0.1-0.1-0.2-0.1c-0.5,0-0.9,0.5-0.9,0.9c0,0.1-0.1,0.2-0.2,0.3c0,0-0.1,0-0.1,0
			c0-0.2,0.1-0.3,0.1-0.5c-0.6,0.3-1.2,0.5-1.7,0.8c0.1,0.1,0.2,0.2,0.3,0.3c-0.2,0.1-0.5,0.1-0.8,0.2c0.1,0.2,0.1,0.3,0.2,0.6
			c0.4-0.3,0.7-0.4,1-0.6c0.3-0.2,0.6-0.2,1-0.1c0.2,0.1,0.5,0.1,0.7,0c1-0.5,2-1.1,2.9-1.6c1-0.6,2-1.3,3-2c0.9-0.6,2-1.1,3.1-1.4
			c0.9-0.2,1.9-0.5,2.2-1.3c0-0.1,0.1-0.1,0.3-0.2c0,0.1,0,0.2,0,0.4c0.3-0.2,0.5-0.3,0.6-0.4c-0.4-0.3,0.1-0.4,0.3-0.5
			c0.9-0.5,1.8-0.9,2.8-1.3c0.4-0.2,1-0.1,1.4-0.3c0.8-0.2,1.5-0.5,2.3-0.8c0.2-0.1,0.3-0.1,0.5-0.1c0,0,0,0.1,0,0.1
			c-0.3,0.1-0.6,0.2-0.9,0.3c0,0,0.1,0.1,0.1,0.1c0.6-0.2,1.3-0.4,1.9-0.7c1.3-0.5,2.7-1,4.2-0.8c1,0.1,1.9-0.1,2.9,0.2
			c0.5,0.1,1,0.2,1.5,0.3c0.7,0.2,1.4,0.4,2.2,0.6c0.4,0.1,0.9,0.2,1.3,0.3c0.4,0.1,0.7,0.4,0.7,0.7c0,0.1,0.1,0.2,0.3,0.3
			c0.3,0.1,0.6,0.1,0.8,0.2c0.7,0.2,1.5,0.4,2.2,0.7c0.7,0.3,1.3,0.7,2,1c0.1-0.1,0.2-0.2,0.3-0.4c0.1,0.1,0.2,0.2,0.2,0.2
			c-0.3,0.5,0.2,0.7,0.5,1c0.5,0.6,1,1.2,1.5,1.8c1,1.4,1.9,2.7,2.1,4.3c0.2,1.4,0.2,2.7,0.2,4.1c0,0.5,0.1,1.1-0.5,1.5
			c-0.1,0.1,0,0.2-0.1,0.3c-0.2,0.5,0.2,1-0.1,1.5c-0.3,0.5-0.4,1-0.6,1.5c-0.2,0.7-0.4,1.4-0.7,2.1c-0.1,0.3-0.4,0.5-0.5,0.7
			c-0.5,0.8-1.1,1.6-1.6,2.4c-0.3,0.4-0.6,0.9-0.9,1.3c0,0,0.1,0,0.1,0.1c0.7-0.7,1.4-1.3,2-2c0.5-0.7,0.8-1.5,1.2-2.3
			c0.2,0.6,0,1.1-0.4,1.6c-0.4,0.5-0.8,1-1.2,1.4c-0.4,0.5-0.7,0.9-1.1,1.4c0,0,0.1,0,0.1,0c0.6-0.5,1.2-0.9,1.8-1.4
			c0.1,0.1,0.1,0.1,0.2,0.2c-0.9,0.7-1.9,1.4-2.8,2.2c1-0.4,1.9-0.8,2.5-1.4c0.2-0.2,0.3-0.5,0.5-0.8c0-0.1,0-0.2,0.1-0.3
			c0.5-0.8,1-1.5,1.5-2.3c0.1-0.1,0.1-0.2,0.2-0.3c0.4-0.4,0.8-0.9,1.2-1.3c0.2-0.2,0.2-0.4,0.5-0.6c0.5-0.3,0.6-0.6,0.7-1
			c0.2-0.7,0.4-1.3,0.6-2c0-0.1,0.1-0.3,0.2-0.4c0.1,0.1,0.1,0.2,0.1,0.2c-0.2,0.6-0.3,1.3-0.5,1.9c0,0.2,0,0.4,0,0.6
			c0.1,0,0.1,0,0.2,0c0.8-1.9,1.4-3.9,1.7-5.9c0.1-0.5,0.1-1,0.2-1.6C196.9,19.4,197,18.8,197,18C197,18,197,18,197,18z"/>
		<linearGradient id="SVGID_19_" gradientUnits="userSpaceOnUse" x1="146.6078" y1="20.598" x2="191.2078" y2="20.598">
			<stop  offset="0" style="stop-color:#FFDD00"/>
			<stop  offset="0.17" style="stop-color:#C9AD01"/>
			<stop  offset="0.355" style="stop-color:#FFDD00"/>
			<stop  offset="0.58" style="stop-color:#C9AD01"/>
			<stop  offset="0.77" style="stop-color:#FFDD00"/>
			<stop  offset="1" style="stop-color:#C9AD01"/>
		</linearGradient>
		<path class="st18" d="M147.4,19.3c-0.3,0.2-0.5,0.4-0.8,0.7c0.1,0,0.1,0.1,0.2,0.1c0.7-0.2,1.4-0.5,2.1-0.7
			c0.1,0.1,0.1,0.2,0.2,0.4c1-0.6,2.1-1.2,3-1.8c0.8-0.5,1.5-0.9,2.2-1.5c1-0.9,2.1-1.7,3.4-2.3c1.2-0.6,2.4-1.1,3.6-1.6
			c2.4-1.1,4.7-2.3,7.4-3c0.5-0.1,1.1-0.3,1.6-0.3c2,0.1,4,0.1,6,0.3c1.2,0.1,2.4,0.1,3.5,0.6c0.4,0.2,0.8,0.3,1.2,0.5
			c1,0.5,2,1,3,1.5c0.3,0.1,0.6,0.1,0.9,0.2c0.2,0.1,0.4,0.2,0.6,0.3c0.2,0.2,0.3,0.4,0.5,0.6c0.7,0.8,1.3,1.6,2,2.3
			c0.1,0.1,0.2,0.2,0.2,0.3c-0.2,0.5,0.3,0.8,0.5,1.2c0.3,0.4,0.8,0.8,0.9,1.2c0.3,1.1,0.6,2.3,0.7,3.4c0.2,2.3-0.4,4.6-1.4,6.8
			c-0.3,0.7-0.9,1.4-1.3,2.2c-0.2,0.4-0.2,0.8-0.3,1.2c0.1,0.1,0.2,0.1,0.3,0.2c0.1-0.1,0.1-0.3,0.2-0.4c0.3-0.4,0.6-0.7,0.8-1.1
			c1.2-2.1,2.2-4.2,2.4-6.4c0.2-1.9,0.2-3.7-0.2-5.5c-0.6-2.8-2.5-5.2-5.4-7.1c-0.8-0.5-1.8-1-2.7-1.4c-0.9-0.4-2-0.6-3-0.9
			c-0.9-0.3-1.9-0.5-3-0.5c-1,0-2-0.1-3.1-0.1c-1.6-0.1-3.2-0.1-4.7,0.2c-2.2,0.4-4.2,1.2-6.2,1.9c-0.1,0-0.2,0.1-0.2,0.2
			c-0.1,0.1-0.2,0.3-0.4,0.4c-0.5,0.2-1,0.5-1.6,0.6c-1.2,0.3-2.3,0.9-3.3,1.5c-0.9,0.6-1.8,1.2-2.6,1.8c-0.5,0.4-1,0.8-1.5,1.1
			c-0.4,0.2-0.9,0.3-1.3,0.5C150.4,17.9,148.9,18.6,147.4,19.3z"/>
		<linearGradient id="SVGID_20_" gradientUnits="userSpaceOnUse" x1="89.3431" y1="10.9169" x2="90.8691" y2="10.9169">
			<stop  offset="0" style="stop-color:#FFDD00"/>
			<stop  offset="0.17" style="stop-color:#C9AD01"/>
			<stop  offset="0.355" style="stop-color:#FFDD00"/>
			<stop  offset="0.58" style="stop-color:#C9AD01"/>
			<stop  offset="0.77" style="stop-color:#FFDD00"/>
			<stop  offset="1" style="stop-color:#C9AD01"/>
		</linearGradient>
		<path class="st19" d="M89.3,11.5c0.4-0.2,0.8,0.2,1.2-0.2c0.3-0.3,0.4-0.5,0.3-0.9C90.3,10.4,89.9,10.7,89.3,11.5z"/>
		<linearGradient id="SVGID_21_" gradientUnits="userSpaceOnUse" x1="152.9076" y1="15.1775" x2="154.6731" y2="15.1775">
			<stop  offset="0" style="stop-color:#FFDD00"/>
			<stop  offset="0.17" style="stop-color:#C9AD01"/>
			<stop  offset="0.355" style="stop-color:#FFDD00"/>
			<stop  offset="0.58" style="stop-color:#C9AD01"/>
			<stop  offset="0.77" style="stop-color:#FFDD00"/>
			<stop  offset="1" style="stop-color:#C9AD01"/>
		</linearGradient>
		<path class="st20" d="M154.7,14.7c-0.5,0-1.5,0.5-1.8,1C153.6,15.7,154.5,15.1,154.7,14.7z"/>
		<linearGradient id="SVGID_22_" gradientUnits="userSpaceOnUse" x1="134.106" y1="13.7888" x2="135.1243" y2="13.7888">
			<stop  offset="0" style="stop-color:#FFDD00"/>
			<stop  offset="0.17" style="stop-color:#C9AD01"/>
			<stop  offset="0.355" style="stop-color:#FFDD00"/>
			<stop  offset="0.58" style="stop-color:#C9AD01"/>
			<stop  offset="0.77" style="stop-color:#FFDD00"/>
			<stop  offset="1" style="stop-color:#C9AD01"/>
		</linearGradient>
		<path class="st21" d="M134.8,13.3c-0.2,0.2-0.3,0.3-0.4,0.4c-0.1-0.1-0.2-0.2-0.3-0.3c0.1,0.4,0,0.9,1,1
			C135,13.9,134.9,13.6,134.8,13.3z"/>
		<linearGradient id="SVGID_23_" gradientUnits="userSpaceOnUse" x1="169.9157" y1="35.2592" x2="171.7006" y2="35.2592">
			<stop  offset="0" style="stop-color:#FFDD00"/>
			<stop  offset="0.17" style="stop-color:#C9AD01"/>
			<stop  offset="0.355" style="stop-color:#FFDD00"/>
			<stop  offset="0.58" style="stop-color:#C9AD01"/>
			<stop  offset="0.77" style="stop-color:#FFDD00"/>
			<stop  offset="1" style="stop-color:#C9AD01"/>
		</linearGradient>
		<path class="st22" d="M169.9,35.2c0.6,0.1,1.2,0.3,1.8,0.4c-0.3-0.6-0.9-0.5-1.5-0.6C170.2,34.9,170,35.1,169.9,35.2z"/>
		<linearGradient id="SVGID_24_" gradientUnits="userSpaceOnUse" x1="155.1152" y1="14.163" x2="156.1817" y2="14.163">
			<stop  offset="0" style="stop-color:#FFDD00"/>
			<stop  offset="0.17" style="stop-color:#C9AD01"/>
			<stop  offset="0.355" style="stop-color:#FFDD00"/>
			<stop  offset="0.58" style="stop-color:#C9AD01"/>
			<stop  offset="0.77" style="stop-color:#FFDD00"/>
			<stop  offset="1" style="stop-color:#C9AD01"/>
		</linearGradient>
		<path class="st23" d="M156.2,13.6c-0.8,0.2-1.2,0.5-1,1C155.7,14.5,156,14.1,156.2,13.6z"/>
		<linearGradient id="SVGID_25_" gradientUnits="userSpaceOnUse" x1="133.9598" y1="15.1614" x2="135.0942" y2="15.1614">
			<stop  offset="0" style="stop-color:#FFDD00"/>
			<stop  offset="0.17" style="stop-color:#C9AD01"/>
			<stop  offset="0.355" style="stop-color:#FFDD00"/>
			<stop  offset="0.58" style="stop-color:#C9AD01"/>
			<stop  offset="0.77" style="stop-color:#FFDD00"/>
			<stop  offset="1" style="stop-color:#C9AD01"/>
		</linearGradient>
		<path class="st24" d="M134,15.2c0.4,0.1,0.7,0.1,1.1,0.2C135,15,134.4,14.8,134,15.2z"/>
		<linearGradient id="SVGID_26_" gradientUnits="userSpaceOnUse" x1="163.2459" y1="9.7868" x2="164.8104" y2="9.7868">
			<stop  offset="0" style="stop-color:#FFDD00"/>
			<stop  offset="0.17" style="stop-color:#C9AD01"/>
			<stop  offset="0.355" style="stop-color:#FFDD00"/>
			<stop  offset="0.58" style="stop-color:#C9AD01"/>
			<stop  offset="0.77" style="stop-color:#FFDD00"/>
			<stop  offset="1" style="stop-color:#C9AD01"/>
		</linearGradient>
		<path class="st25" d="M164.7,9.4c-0.5,0.2-1,0.4-1.5,0.6c0,0.1,0.1,0.1,0.1,0.2c0.5-0.2,1-0.4,1.5-0.6
			C164.8,9.5,164.7,9.5,164.7,9.4z"/>
		<linearGradient id="SVGID_27_" gradientUnits="userSpaceOnUse" x1="127.3547" y1="4.8585" x2="128.3073" y2="4.8585">
			<stop  offset="0" style="stop-color:#FFDD00"/>
			<stop  offset="0.17" style="stop-color:#C9AD01"/>
			<stop  offset="0.355" style="stop-color:#FFDD00"/>
			<stop  offset="0.58" style="stop-color:#C9AD01"/>
			<stop  offset="0.77" style="stop-color:#FFDD00"/>
			<stop  offset="1" style="stop-color:#C9AD01"/>
		</linearGradient>
		<path class="st26" d="M128.3,5.2C128.3,5.2,128.3,5.2,128.3,5.2c-0.1-0.2-0.3-0.4-0.5-0.6c-0.1-0.1-0.2-0.1-0.2-0.2
			c0,0-0.2,0.1-0.2,0.1c0,0.1,0,0.2,0.1,0.3C127.7,5,128,5.1,128.3,5.2z"/>
		<linearGradient id="SVGID_28_" gradientUnits="userSpaceOnUse" x1="165.089" y1="38.5813" x2="166.662" y2="38.5813">
			<stop  offset="0" style="stop-color:#FFDD00"/>
			<stop  offset="0.17" style="stop-color:#C9AD01"/>
			<stop  offset="0.355" style="stop-color:#FFDD00"/>
			<stop  offset="0.58" style="stop-color:#C9AD01"/>
			<stop  offset="0.77" style="stop-color:#FFDD00"/>
			<stop  offset="1" style="stop-color:#C9AD01"/>
		</linearGradient>
		<path class="st27" d="M166.7,38.6c-0.5,0-1.1-0.1-1.6-0.1C166.2,38.8,166.3,38.8,166.7,38.6z"/>
		<linearGradient id="SVGID_29_" gradientUnits="userSpaceOnUse" x1="122.4355" y1="2.4762" x2="123.5031" y2="2.4762">
			<stop  offset="0" style="stop-color:#FFDD00"/>
			<stop  offset="0.17" style="stop-color:#C9AD01"/>
			<stop  offset="0.355" style="stop-color:#FFDD00"/>
			<stop  offset="0.58" style="stop-color:#C9AD01"/>
			<stop  offset="0.77" style="stop-color:#FFDD00"/>
			<stop  offset="1" style="stop-color:#C9AD01"/>
		</linearGradient>
		<path class="st28" d="M123.5,2.6c-0.3-0.2-0.4-0.5-1.1-0.2c0.4,0.1,0.7,0.2,1,0.3C123.5,2.7,123.5,2.6,123.5,2.6z"/>
		<linearGradient id="SVGID_30_" gradientUnits="userSpaceOnUse" x1="125.9655" y1="3.249" x2="126.8063" y2="3.249">
			<stop  offset="0" style="stop-color:#FFDD00"/>
			<stop  offset="0.17" style="stop-color:#C9AD01"/>
			<stop  offset="0.355" style="stop-color:#FFDD00"/>
			<stop  offset="0.58" style="stop-color:#C9AD01"/>
			<stop  offset="0.77" style="stop-color:#FFDD00"/>
			<stop  offset="1" style="stop-color:#C9AD01"/>
		</linearGradient>
		<path class="st29" d="M126.8,3.2c0-0.1,0-0.1,0-0.1c-0.3,0-0.5,0-0.8,0.1C126.1,3.5,126.4,3.5,126.8,3.2z"/>
	</g>
</g>
</svg>
