<svg id="Capa_1" data-name="Capa 1" xmlns="http://www.w3.org/2000/svg" viewBox="0 0 508.15 357.11"><path d="M643.47,690.67c-57.1-1.8-111.4-3.2-165.7-5.3a188.08,188.08,0,0,1-35-5c-21.4-5-36.2-17.9-43.8-39-6.1-17-8.3-34.5-9.9-52.3-3.5-41.8-3.5-83.6-1.8-125.4,1-23.6,1.6-47.4,7.9-70.3,3.8-13.7,8.4-27.1,19.5-37,11.7-10.5,25.4-16.8,41-17.5,42.8-2.1,85.5-4.7,128.3-5.1,57.6-.6,115.3.2,172.9,1.3,24.9.5,50,1.8,74.7,5,22.6,3,39.5,15.6,48.5,37.6,6.9,16.9,9.5,34.6,11,52.6,3.9,45.1,4,90.2,1.8,135.3-1.1,22.9-2.2,45.9-8.7,68.2-7.4,25.6-23.1,42.5-49.3,48.3-10.2,2.2-20.8,3-31.2,3.4C749.27,687.37,695,689.07,643.47,690.67ZM588.17,577c45.6-23.6,90.7-47,136.7-70.9-45.9-24-91-47.5-136.7-71.4Z" transform="translate(-386.16 -333.56)"/></svg>