<svg xmlns:xlink="http://www.w3.org/1999/xlink"
     id="Capa_1"
     data-name="Capa 1"
     xmlns="http://www.w3.org/2000/svg"
     viewBox="0 0 192 80.86">
    <defs>
        <style>
            .cls-1{fill:url(#linear-gradient);}.cls-2{fill:url(#linear-gradient-2);}.cls-3{fill:url(#linear-gradient-3);}.cls-4{fill:url(#linear-gradient-4);}.cls-5{fill:url(#linear-gradient-5);}.cls-6{fill:url(#linear-gradient-6);}.cls-7{fill:url(#linear-gradient-7);}.cls-8{fill:url(#linear-gradient-8);}.cls-9{fill:url(#linear-gradient-9);}.cls-10{fill:url(#linear-gradient-10);}.cls-11{fill:url(#linear-gradient-11);}.cls-12{fill:url(#linear-gradient-12);}.cls-13{fill:url(#linear-gradient-13);}.cls-14{fill:url(#linear-gradient-14);}.cls-15{fill:url(#linear-gradient-15);}.cls-16{fill:url(#linear-gradient-16);}.cls-17,.cls-18,.cls-19,.cls-20,.cls-21,.cls-22,.cls-23,.cls-24,.cls-25,.cls-26,.cls-27,.cls-28,.cls-29,.cls-30{fill-rule:evenodd;}.cls-17{fill:url(#linear-gradient-17);}.cls-18{fill:url(#linear-gradient-18);}.cls-19{fill:url(#linear-gradient-19);}.cls-20{fill:url(#linear-gradient-20);}.cls-21{fill:url(#linear-gradient-21);}.cls-22{fill:url(#linear-gradient-22);}.cls-23{fill:url(#linear-gradient-23);}.cls-24{fill:url(#linear-gradient-24);}.cls-25{fill:url(#linear-gradient-25);}.cls-26{fill:url(#linear-gradient-26);}.cls-27{fill:url(#linear-gradient-27);}.cls-28{fill:url(#linear-gradient-28);}.cls-29{fill:url(#linear-gradient-29);}.cls-30{fill:url(#linear-gradient-30);}
        </style>
        <linearGradient id="linear-gradient" x1="105.25" y1="122.11" x2="111.67" y2="122.11"
                        gradientUnits="userSpaceOnUse">
            <stop offset="0" stop-color="#fd0"/>
            <stop offset="0.17" stop-color="#c9ad01"/>
            <stop offset="0.35" stop-color="#fd0"/>
            <stop offset="0.58" stop-color="#c9ad01"/>
            <stop offset="0.77" stop-color="#fd0"/>
            <stop offset="1" stop-color="#c9ad01"/>
        </linearGradient>
        <linearGradient id="linear-gradient-2" x1="146.51" y1="114.58" x2="147.39" y2="114.58"
                        xlink:href="#linear-gradient"/>
        <linearGradient id="linear-gradient-3" x1="142.94" y1="114.71" x2="143.3" y2="114.71"
                        xlink:href="#linear-gradient"/>
        <linearGradient id="linear-gradient-4" x1="136.71" y1="114.84" x2="138.38" y2="114.84"
                        xlink:href="#linear-gradient"/>
        <linearGradient id="linear-gradient-5" x1="124.63" y1="116.2" x2="124.71" y2="116.2"
                        xlink:href="#linear-gradient"/>
        <linearGradient id="linear-gradient-6" x1="37.32" y1="121.67" x2="154.68" y2="121.67"
                        xlink:href="#linear-gradient"/>
        <linearGradient id="linear-gradient-7" x1="86.81" y1="123.52" x2="93.23" y2="123.52"
                        xlink:href="#linear-gradient"/>
        <linearGradient id="linear-gradient-8" x1="66.36" y1="125.09" x2="72.78" y2="125.09"
                        xlink:href="#linear-gradient"/>
        <linearGradient id="linear-gradient-9" x1="-20.72" y1="96.05" x2="218.53" y2="100.28"
                        xlink:href="#linear-gradient"/>
        <linearGradient id="linear-gradient-10" x1="-20.69" y1="94.69" x2="218.56" y2="98.92"
                        xlink:href="#linear-gradient"/>
        <linearGradient id="linear-gradient-11" x1="-20.71" y1="95.44" x2="218.55" y2="99.68"
                        xlink:href="#linear-gradient"/>
        <linearGradient id="linear-gradient-12" x1="-20.67" y1="93.52" x2="218.58" y2="97.75"
                        xlink:href="#linear-gradient"/>
        <linearGradient id="linear-gradient-13" x1="-20.67" y1="92.99" x2="218.59" y2="97.22"
                        xlink:href="#linear-gradient"/>
        <linearGradient id="linear-gradient-14" x1="-20.73" y1="40.4" x2="218.56" y2="44.63"
                        xlink:href="#linear-gradient"/>
        <linearGradient id="linear-gradient-15" x1="-20.71" y1="39.04" x2="218.56" y2="43.27"
                        xlink:href="#linear-gradient"/>
        <linearGradient id="linear-gradient-16" x1="-20.71" y1="38.28" x2="218.58" y2="42.52"
                        xlink:href="#linear-gradient"/>
        <linearGradient id="linear-gradient-17" x1="53.01" y1="70.48" x2="131.78" y2="70.48"
                        xlink:href="#linear-gradient"/>
        <linearGradient id="linear-gradient-18" x1="102.92" y1="69.26" x2="139.1" y2="69.26"
                        xlink:href="#linear-gradient"/>
        <linearGradient id="linear-gradient-19" x1="103.37" y1="70.28" x2="134.98" y2="70.28"
                        xlink:href="#linear-gradient"/>
        <linearGradient id="linear-gradient-20" x1="62.79" y1="63.42" x2="63.87" y2="63.42"
                        xlink:href="#linear-gradient"/>
        <linearGradient id="linear-gradient-21" x1="107.84" y1="66.44" x2="109.09" y2="66.44"
                        xlink:href="#linear-gradient"/>
        <linearGradient id="linear-gradient-22" x1="94.51" y1="65.46" x2="95.23" y2="65.46"
                        xlink:href="#linear-gradient"/>
        <linearGradient id="linear-gradient-23" x1="119.89" y1="80.67" x2="121.16" y2="80.67"
                        xlink:href="#linear-gradient"/>
        <linearGradient id="linear-gradient-24" x1="109.4" y1="65.72" x2="110.16" y2="65.72"
                        xlink:href="#linear-gradient"/>
        <linearGradient id="linear-gradient-25" x1="94.41" y1="66.43" x2="95.21" y2="66.43"
                        xlink:href="#linear-gradient"/>
        <linearGradient id="linear-gradient-26" x1="115.17" y1="62.62" x2="116.27" y2="62.62"
                        xlink:href="#linear-gradient"/>
        <linearGradient id="linear-gradient-27" x1="89.73" y1="59.13" x2="90.4" y2="59.13"
                        xlink:href="#linear-gradient"/>
        <linearGradient id="linear-gradient-28" x1="116.47" y1="83.03" x2="117.59" y2="83.03"
                        xlink:href="#linear-gradient"/>
        <linearGradient id="linear-gradient-29" x1="86.24" y1="57.44" x2="87" y2="57.44" xlink:href="#linear-gradient"/>
        <linearGradient id="linear-gradient-30" x1="88.74" y1="57.99" x2="89.34" y2="57.99"
                        xlink:href="#linear-gradient"/>
    </defs>
    <path class="cls-1"
          d="M106.66,122.45a9.31,9.31,0,0,0-1.41,2.08,10.57,10.57,0,0,0,2-1.18l4.39-3.61.06,0a10.43,10.43,0,0,0-4,1.78A9.47,9.47,0,0,1,106.66,122.45Z"
          transform="translate(0 -56.04)"/>
    <path class="cls-2"
          d="M146.59,114.51c-.05,0-.07.08-.08.16h.19a.39.39,0,0,1,.15,0l.25,0a.34.34,0,0,1,.28,0h0C147.27,114.5,147,114.44,146.59,114.51Z"
          transform="translate(0 -56.04)"/>
    <path class="cls-3" d="M142.94,114.79a1.1,1.1,0,0,1,.25,0h.11l-.06-.19Z" transform="translate(0 -56.04)"/>
    <path class="cls-4"
          d="M136.87,115a.57.57,0,0,0-.16.15H137a.66.66,0,0,1,.21,0s.06,0,.09,0l.12,0,.74,0,.22,0h0a3.1,3.1,0,0,1-.85-.43Z"
          transform="translate(0 -56.04)"/>
    <path class="cls-5" d="M124.68,116.37h0l0-.34-.08,0Z" transform="translate(0 -56.04)"/>
    <path class="cls-6"
          d="M154,110.78l-.2-.63.86-.52a11.32,11.32,0,0,1-3.35-1.47l-.31-1c-.22-.68-1.75-.89-4.61-.64l-.22.13.2.64c.59-.36,1-.22,1.2.44l.09.29a.85.85,0,0,1-.24,1c-.25.15-.46,0-.65-.42a3.34,3.34,0,0,1-1.21,1.89c-.58-.43-1-.58-1.2-.44-.58-.93-1.4-1.08-2.46-.44l.22.68-.23.14-.11-.34,0-.77q-1.1.65-2.25-1.38l-.09-.29.43-.26-.2-.63a43.27,43.27,0,0,1-5.12.35q.32,1-.12,1.23l-.43.26-.86-.23,0-.78c-.3-.36-3.68-.37-10.16,0q-9.25.17-9.75.47l-15.87.72c-2.64-.09-5.42,0-8.33.1l-2.81.4-2,.08q-6.73.8-12.6,2l-4.29.61c-.29-.13-2.73.2-7.3,1-4.86.64-7.35,1.15-7.49,1.53l.2.7-.58.34-.38-.17c-.24-.12-.37-.49-.36-1.11a26.27,26.27,0,0,1-3.86.43v.61l.37.17v.28c-.26,1.35-.7,1.89-1.34,1.59l.2.71v.32l-.2-.09v-.66c-.92-.42-1.5-.17-1.72.76-.19-.09-.45.11-.78.58a3.48,3.48,0,0,1-1.32-1.55c0,.42-.17.58-.38.48a.93.93,0,0,1-.4-.84v-.28c0-.63.26-.82.78-.58v-.61l-.21-.09c-2.16.19-3.24.61-3.25,1.27v.94a7.3,7.3,0,0,1-2.13,1.84l.76.34v.62l-.37-.18v.61l.21.09a4.35,4.35,0,0,1,2.11.37v.28l.37-.11A2.21,2.21,0,0,0,41,122l1.54-.84c.23-.52,1-.89,2.3-1.1l.2.09.54.86.21.1a30,30,0,0,0,5.36-.63,4.94,4.94,0,0,0,2.69-.31l-.2.52v.33l.57.26c.29-.27,1-.26,2.12,0,0,.41-1,.65-3.08.74,0,.25-.51.53-1.54.84l-.17-.08v-.61l.55.26c0-.43-.16-.69-.37-.79l-.58-.27a1.66,1.66,0,0,1-1.71.77v.32c.25.12.37.38.37.79v.33l-.95-.77-1,.5-.58-.88-.37-.18v.89l-.37-.45-.2-.09c0,.28-.33.54-1,.77v.34l-.79-.37c0-.4,0-.63-.16-.68-.39,0-.58.12-.58.34a4.76,4.76,0,0,1,.19,1c-.52.07-.78.26-.78.58l.37.17a5.74,5.74,0,0,1,3.86-.43c.07.26.64.63,1.7,1.12v.28l-2.11-1-.38.77a3.83,3.83,0,0,1,.19,1l-.37-.17c0-.63-.13-1-.4-1.13-.3,1.52-1,2-2.09,1.53v.6c0,.45.12.72.37.83l.38.18a1.94,1.94,0,0,1,2.12-.3v.62A12.74,12.74,0,0,1,42.63,130l-2.12,1.18A2.94,2.94,0,0,1,42,132.5l.58.27.38-.11v.6l-.18.54c4,.51,5.93.38,5.94-.37l.37.46q4-.7,6.19-1a13,13,0,0,0,.43,1.74,3.56,3.56,0,0,0,.94,1.35,2.36,2.36,0,0,0,.8-.83l3.66-.71.11.35-.43.26a4.36,4.36,0,0,1-2.61.81,2.08,2.08,0,0,1-.56.69l.11.35,5.42-1.75a.33.33,0,0,1,.13-.44q2.67.6,9.83-1.74c2.16-.29,3.27-.33,3.35-.1l.36-.57q-.19-.63-.66-.36v-.81q1.64-.58,8.67-.58l.32-.6.1.34,1.59-.09h0c2.47-.11,3.76-.05,3.89.2s1.23.59,3.36.7l.86-.51-.45-.55-.09-.29c2.08-.22,4-.39,5.85-.53,1.22-.09,2.38-.17,3.49-.22q5,.83,6.65,0a.38.38,0,0,1,.2.38l.92.16c.61.35,1,.48,1.18.37l.19-.11,2.11.38v-.33a2.05,2.05,0,0,1-.57-.55h0l.25-.57.23-.14a2,2,0,0,0,.71.58,1.47,1.47,0,0,0,.06-.14,1.76,1.76,0,0,0,2.12.49c.29-.17.37-.47.23-.89,5-.24,7.58-.38,7.68-.45.62-.37,2.74-.49,6.38-.36q.88-.53,12-.72l.33-.55c.25.78,2.84.5,7.79-.86l-.4-.52-.21-.62.53,0,.66-.4a3.05,3.05,0,0,1,1.54-1.69l-3.12-.79a21.51,21.51,0,0,1-5.85-.36l-.2-.64a3.06,3.06,0,0,1,2.82-.13l.43-.26c.29-.17.36-.48.21-.94l-.2-.63c-1.25.76-2.32.37-3.2-1.15-.31.18-.35.6-.15,1.25l-.43.26a3.65,3.65,0,0,1-.08-1.11l-.74-.72-2.4,1.45-.1-.29c1.21-.73,1.83-1.24,1.84-1.52a9.33,9.33,0,0,1,5.12-.35l.43-.26c-.11-.33-.51-.47-1.2-.44a.71.71,0,0,1,0-.22h0l-.12,0-.08,0a.27.27,0,0,1-.12,0l-.21,0h0a.6.6,0,0,1-.24,0h-.32l-.51.06-.13.08,0-.06a.87.87,0,0,1-.27,0l-.28,0h-.22l-.48.12a.37.37,0,0,1-.23,0h0a.31.31,0,0,1-.19,0l-.1,0a.2.2,0,0,1-.15.06h-.36a.22.22,0,0,1-.16,0,.2.2,0,0,1-.11,0h0a4.84,4.84,0,0,1-1.29.22h-.09a.74.74,0,0,1-.23,0l-.28,0a.33.33,0,0,1-.24-.07h0a.5.5,0,0,1-.25.09h-.16l-.52.53-.11-.34a1,1,0,0,1,0-.17l-.18,0h-.44l-.13,0a1.78,1.78,0,0,1-.22,0l-.09,0h-.16l-.15,0h-.18a1.49,1.49,0,0,1-.23.09.33.33,0,0,1-.29,0l-.1,0-.52,0h0a.37.37,0,0,1-.18,0h-1l-.17,0h-.07c-.63,0-1.06,0-1.28,0h0a.16.16,0,0,1-.1,0,8,8,0,0,1-.83,0l-.37.06a5.14,5.14,0,0,1-.58,0l-.45.09H132l-.61,0h0a.21.21,0,0,1-.11,0l-.26,0-.59.09s-.06,0-.08,0c-.19,0-.46,0-.8,0h0a.29.29,0,0,1-.2.05l-.26,0-.15,0-.49.06a.26.26,0,0,1-.15,0l0,0-.11,0h0a.6.6,0,0,1-.29-.06l-.06,0a.22.22,0,0,1-.13,0l-.15,0h-.09l-.08,0-.22,0a1.5,1.5,0,0,1,.51.5.49.49,0,0,1,.06.17.51.51,0,0,1-.31.51.37.37,0,0,1-.23,0,1.5,1.5,0,0,0-.35,0h0a6.65,6.65,0,0,0-2.69,1.54c.33.07,1,.18,2.3.33h0c.32,0,.67.24,1.1.8a.33.33,0,0,1,.08.19c0,.69-.64,1.36-2.23,2.2a2.91,2.91,0,0,1-.72.46.11.11,0,0,1-.08,0,1.48,1.48,0,0,1-.36.26.33.33,0,0,1-.15,0h0l0,0a.77.77,0,0,1-.42.18h0a.37.37,0,0,1-.26.15.32.32,0,0,1-.19.05h-.12l-.78.33a.35.35,0,0,1-.3,0l-.21,0a.47.47,0,0,1-.09.06l-.08,0a.53.53,0,0,1-.17,0l-.11,0a.32.32,0,0,1-.2-.18l0-.08a.22.22,0,0,1,0-.13.39.39,0,0,1,.32-.42h.11a1.11,1.11,0,0,1,.2-.19.34.34,0,0,1,.19-.07h.08a26.44,26.44,0,0,1,2.5-1.45,10.62,10.62,0,0,0,1.19-.82.52.52,0,0,1,.11-.1,1.58,1.58,0,0,0,.29-.2c-.3,0-.75-.11-1.42-.16-1.2-.21-1.82-.7-1.88-1.45,0-.37.24-.76.88-1.27a11.23,11.23,0,0,1,2.27-1.29h0a.25.25,0,0,1-.12,0,.43.43,0,0,1-.22.06l-.26,0-.89.07a.49.49,0,0,1-.2,0,.32.32,0,0,1-.22.1h-.16l-.31,0,0,.06a6.41,6.41,0,0,1-.61.84,2.8,2.8,0,0,1-.44.58,1.74,1.74,0,0,1-.44.64,7.81,7.81,0,0,1-.77,1.1,2,2,0,0,1-.46.65,1.4,1.4,0,0,1-.28.45.29.29,0,0,1-.11.21l-.13.13a.34.34,0,0,1-.17.22s-.07.11-.45.69a2.14,2.14,0,0,1-.46.63.35.35,0,0,1-.19.27.25.25,0,0,1,0,.07h0a.34.34,0,0,1-.05.14.62.62,0,0,1-.44.35h0a1.92,1.92,0,0,0-.28.47.31.31,0,0,1-.21.22l-.41.16-.12,0a.36.36,0,0,1-.24-.09l-.06,0a.33.33,0,0,1-.12-.25.39.39,0,0,1,.09-.29.46.46,0,0,1,.07-.07s0,0,0,0a12.23,12.23,0,0,1,.78-1.36,14.6,14.6,0,0,1,1.13-1.8,1.82,1.82,0,0,1,.29-.38.44.44,0,0,1,.15-.22.87.87,0,0,0,.33-.49.42.42,0,0,1,.11-.16s0,0,0,0a.37.37,0,0,1,.08-.18,9.38,9.38,0,0,0,1.19-1.71.41.41,0,0,1,.19-.18,3,3,0,0,0,.3-.31,1.4,1.4,0,0,0,.12-.18h-.46l-.81.09H120a.37.37,0,0,1,.16.27v.15a.35.35,0,0,1-.18.33.43.43,0,0,0,0,.07.36.36,0,0,1-.28.19,1.48,1.48,0,0,1-.26.16l-.06.09-.11.08a.38.38,0,0,1-.13.09,3.28,3.28,0,0,0-1,.75.39.39,0,0,1-.22.11.85.85,0,0,0-.52.36v.12a.33.33,0,0,1-.32.37l0,0a.93.93,0,0,1-.36.43.36.36,0,0,1-.19.21l-.14.07a.48.48,0,0,1-.26.31.34.34,0,0,1-.09.19,3.1,3.1,0,0,1-.47.42.35.35,0,0,1-.06.14,13.25,13.25,0,0,0-1.46,2.26c-.07.28-.19.72-.57.75h-.12a.47.47,0,0,1-.17,0c-.51-.28-.69-.46-.71-.69a.41.41,0,0,1,0-.11,7.25,7.25,0,0,1,.85-1.75l1-2c1-2.12,1.12-2.15,1.3-2.2l.17,0a.33.33,0,0,1,.32.16.63.63,0,0,0,.24.24.38.38,0,0,1,.2.29,10.74,10.74,0,0,1,2.89-1.79l-1.88.2a.32.32,0,0,1-.14,0h0l-.43.06a.71.71,0,0,1-.22,0l-.15,0-.42,0h-.28a.77.77,0,0,1-.19.05h-.1l-.27,0-.69.06-.56,0,.1,0,.45.39a.35.35,0,0,1,.12.25.52.52,0,0,1,0,.28,6.41,6.41,0,0,1-.82.91,0,0,0,0,0,0,0,.35.35,0,0,1-.29.37l0,.06a.46.46,0,0,1-.22.15l-.06,0,0,0a.6.6,0,0,1-.33.53.36.36,0,0,1-.32,0,1.82,1.82,0,0,1-.25.2,5.46,5.46,0,0,1-.52.61.34.34,0,0,1-.2.3c-.07,0-.07.06-.07.11l.07.23a.36.36,0,0,1-.13.39.38.38,0,0,1-.41,0h0a2.9,2.9,0,0,0-.34.55.22.22,0,0,1-.07.09l-.16.17s0,0,0,.06a.39.39,0,0,1-.09.26,2.16,2.16,0,0,0-.4.82.38.38,0,0,1-.13.18l-.07.12v.25a.62.62,0,0,1,.22.42.25.25,0,0,1,0,.12c0,.12-.15.49-.48.51h0a.42.42,0,0,1-.17,0,.93.93,0,0,1-.69-.81l0-.19a3.82,3.82,0,0,1,.89-2.12l.27-.49h0a.29.29,0,0,1-.16,0,10.19,10.19,0,0,1-1.38,1.38.46.46,0,0,1-.07.07l0,0c-1.69,1.48-2.34,1.69-2.67,1.71l-.19,0c-1.22-.14-1.5-.73-1.54-1.21-.08-1,1-2.53,3.38-4.68,1.64-1.29,2.23-1.47,2.54-1.49h.12a5.89,5.89,0,0,1,1.95.34.35.35,0,0,1,.25.34v0A7.52,7.52,0,0,1,113.7,118c-.4,0-1.06-.07-1.25-.49a.75.75,0,0,1-.16-.39.36.36,0,0,1,.23-.38c.83-.32,1.78-.64,2.84-1l0-.49c.26-.16.46-.06.59.3h0a15,15,0,0,0,1.66-.49l.12,0h.07a39.75,39.75,0,0,1,3.87-1h.16a.3.3,0,0,1,.16,0c.38.17.58.39.61.68a.35.35,0,0,1-.28.37c-1.6.36-3.58.89-5.89,1.57h.1l.21,0H117l.17,0,1.5-.12c.13,0,.32,0,.55-.07a.25.25,0,0,1,.12,0l.28-.06.52,0h0l0-.1.89-.54.19.58.31,0h.43a2.57,2.57,0,0,0,.56-.08.31.31,0,0,1,.09-.11,8.25,8.25,0,0,0,1-1.33,1.17,1.17,0,0,0,.29-.45.36.36,0,0,1,.23-.22,1.74,1.74,0,0,0,.17-.32.41.41,0,0,1,0-.09,4.75,4.75,0,0,0,.62-.92.46.46,0,0,1,.17-.17,2.48,2.48,0,0,0,.35-.59,11.49,11.49,0,0,0,.73-1.08.28.28,0,0,1,.09-.1,3.89,3.89,0,0,0,.28-.49.29.29,0,0,1,.1-.12s.23-.33,1.37-2.15c.27-.42.47-.61.69-.64h.13a.25.25,0,0,1,.12,0c.47.13.78.24.81.55a.32.32,0,0,1-.06.23l-3.41,5.14a.52.52,0,0,1-.11.1s-.06.09-.42.63a.32.32,0,0,1-.1.1s-.14.2-.67,1l.24.75-.46.18.61-.11h.11l-.06-.19,1.19-.32v.42l.23,0H127l.32,0,.55-.09.22,0a5,5,0,0,1,.54-.07l.58,0,.12,0a.44.44,0,0,1,.16,0h.63l.61-.09h.24c1.28-.5,2.14-.64,2.59-.43l.66-.4-.11-.34-.43-.49c1.92.11,3.12,0,3.58-.24a51.69,51.69,0,0,0,7.13-.46l.23-.14.42-1,.23-.13c1.75,0,2.85.18,3.32.67l2.26.55a2.07,2.07,0,0,0,.57-.69l.52,0-.09-.28a6.13,6.13,0,0,1,2.61-.82l.23-.14-.2-.63Zm-112.45,6a2,2,0,0,0-.41,1.08l-.18-.08c-.19-.1-.38-.49-.57-1.21.19.09.44,0,.76-.26l.4.19Zm8.6-.36a.89.89,0,0,1-.37-.78v-.66l.38.18a4.75,4.75,0,0,0,.19,1.36Zm1-.82c0,.42-.16.58-.38.48l-.2-.75V115l.58.27Zm-1.58,9.23c-.56-.25-.93-.32-1.13-.19l-.2-.75c.14.06.21,0,.2-.19a2.73,2.73,0,0,0,1.13.8Zm2.32-.15-.78-.08v-.61l.78.36Zm89.83-8.34c.06.2.17.25.32.15v.83c-.3-.1-.76,0-1.4.43l-.1-.34A3,3,0,0,0,141.7,116.29Zm-3.35.86.2.63-1,.24-.11-.34ZM113.52,129a2,2,0,0,0,.11.29l-.24-.06Zm-49.23-1.86,0,0v0a.35.35,0,0,1-.21.35,1.89,1.89,0,0,0-.19.32.61.61,0,0,1-.07.1,1.87,1.87,0,0,0-.11.25.64.64,0,0,0,0,.07.41.41,0,0,1-.09.26.24.24,0,0,1-.09.08.38.38,0,0,1-.32.35h-.1l-.14.16a.35.35,0,0,1-.24.12h0a.55.55,0,0,1-.49-.31.34.34,0,0,1,0-.34.3.3,0,0,1,.12-.13,4.47,4.47,0,0,0,.25-.61,7.3,7.3,0,0,1,.76-1.45c.09-.26.4-.88,1.34-2.68.09-.24.17-.43.24-.6l-.14,0h-.16c-.4.24-.45.36-.45.37a.33.33,0,0,1-.32.35,2.47,2.47,0,0,1-.66.61.27.27,0,0,1-.08.18.35.35,0,0,1-.19.12.32.32,0,0,1-.08.2l-.09.08a1.26,1.26,0,0,0-.07.17.31.31,0,0,1-.16.19.53.53,0,0,1,0,.13.81.81,0,0,1-.34.45.37.37,0,0,1-.17.31c-.12.07-.15.12-.15.13a.31.31,0,0,1-.07.2,17.51,17.51,0,0,0-1.66,2.47.43.43,0,0,1-.22.18l-.25.06-.09,0-.12,0a1.29,1.29,0,0,1-.78-.58.32.32,0,0,1,0-.14.47.47,0,0,1,.07-.28,7.65,7.65,0,0,0,.75-1.3,12.67,12.67,0,0,0,1.9-3.82.45.45,0,0,1-.24.1c-.16,0-.36.07-.48.46a.33.33,0,0,1-.31.24h0a4.73,4.73,0,0,0-.41.27.37.37,0,0,1-.07.12l0,0a.3.3,0,0,1-.08.08l-.07,0a1.24,1.24,0,0,1-.52.58,1.33,1.33,0,0,1-.46.51,1.45,1.45,0,0,1-.5.65,1.09,1.09,0,0,1-.35.43,1.57,1.57,0,0,1-.56.7,5.25,5.25,0,0,1-1.07,1.55.32.32,0,0,1-.24.11h-.1c-.89-.09-1-.55-1.06-.82,0-.12,0-.28.4-1.14a36.67,36.67,0,0,0,1.51-4.12l0-.08a1,1,0,0,1,.74-.54.33.33,0,0,1,.21,0c.43.25.63.4.64.64v.09a.31.31,0,0,1,0,.19,12.1,12.1,0,0,0-.54,1.31c2-2.07,2.66-2.51,3-2.62a2,2,0,0,1,.73-.32c1,.09,1.29.51,1.32.85v.15a.43.43,0,0,1-.06.22.31.31,0,0,1,0,.13.32.32,0,0,1-.17.33v.09l.23-.23c.07-.19.28-.43.79-.84a6.15,6.15,0,0,1,1-.83,2,2,0,0,1,.43-.35.58.58,0,0,1,.17-.06h.21a1.8,1.8,0,0,1,1,.45.36.36,0,0,1,.14.26,1.84,1.84,0,0,1-.35,1.27s0,0,0,.06a.35.35,0,0,1-.15.31h0a.23.23,0,0,1-.06.12.39.39,0,0,1-.23.15v0a.48.48,0,0,1,.12.26.46.46,0,0,1,0,.21c-.34.56-.43.68-.64.7a.35.35,0,0,1-.08.22l0,0a.49.49,0,0,1,0,.11v.1a.44.44,0,0,1-.1.33.46.46,0,0,1-.32.15h0a.33.33,0,0,1,.08.19.53.53,0,0,1,0,.25C64.58,127,64.48,127.15,64.29,127.18Zm28,3.12-.1-.35.19-.11q.66-.41.87.24Zm17.15-11.87-.06.07a.42.42,0,0,1-.27.12,2.08,2.08,0,0,1-.43,0h-.29l-.07,0a.27.27,0,0,1-.12,0l-.21,0a.66.66,0,0,1-.25,0h-.31l-.59.07a1.12,1.12,0,0,1-.36,0l-.28,0H106a2.39,2.39,0,0,1-.48.12.36.36,0,0,1-.23,0h0a.31.31,0,0,1-.19,0l-.1,0a.27.27,0,0,1-.15,0h-.36a.24.24,0,0,1-.16,0,.27.27,0,0,1-.12,0h0a4.36,4.36,0,0,1-1.31.22h-.09l-.22,0-.28,0a.37.37,0,0,1-.25-.07h0a.46.46,0,0,1-.24.09l-.26,0h-.08a.25.25,0,0,1-.12,0H101l-.22,0h-.41l0,0a.27.27,0,0,1-.12,0,.84.84,0,0,1-.23,0l-.09,0h-.49a.84.84,0,0,1-.22.09h0l-.72,1.4c-.81,1.38-1.58,2.85-2.3,4.39a5.59,5.59,0,0,1-.86,1.4.33.33,0,0,1-.22.11.39.39,0,0,0-.09.13.32.32,0,0,1-.2.18l-.2.07h-.11a.35.35,0,0,1-.3-.17l-.06-.09a.39.39,0,0,1,0-.3,43.75,43.75,0,0,1,3.16-6.57c.08-.17.17-.33.25-.5H97.1l-.16,0h-.07l-1.21,0,.1,0,.45.38a.39.39,0,0,1,.12.25.45.45,0,0,1-.06.28,5.84,5.84,0,0,1-.82.91v0a.34.34,0,0,1-.29.37.35.35,0,0,1-.25.21l0,0,0,0a.65.65,0,0,1-.33.53.36.36,0,0,1-.32,0,2.73,2.73,0,0,1-.25.2,6,6,0,0,1-.53.61.34.34,0,0,1-.19.31c-.08,0-.08.06-.07.1l.07.23a.35.35,0,0,1-.14.39.36.36,0,0,1-.4,0h0a2.44,2.44,0,0,0-.34.55.36.36,0,0,1-.07.1l-.17.16a.13.13,0,0,1,0,.06.31.31,0,0,1-.09.26,2.31,2.31,0,0,0-.4.82.29.29,0,0,1-.13.18.88.88,0,0,1-.07.12l0,.25a.65.65,0,0,1,.22.41.3.3,0,0,1,0,.13c0,.14-.15.49-.47.51H91.1a.44.44,0,0,1-.17,0,.92.92,0,0,1-.68-.81l0-.19a3.65,3.65,0,0,1,.89-2.12,5,5,0,0,1,.27-.48h0a.26.26,0,0,1-.15,0,9.36,9.36,0,0,1-1.39,1.38l-.06.07-.05,0c-1.7,1.48-2.34,1.69-2.67,1.71l-.19,0c-1.22-.14-1.5-.73-1.54-1.21-.08-1,1-2.54,3.37-4.68,1.64-1.29,2.24-1.47,2.55-1.49h.12a5.84,5.84,0,0,1,1.94.34.33.33,0,0,1,.25.34v0a9.41,9.41,0,0,1,1.64-1.38,4.86,4.86,0,0,1-.56,0,1.35,1.35,0,0,1-.37.06,3.54,3.54,0,0,1-.58,0l-.45.09h-.09l-.61,0h-.16l-.26,0a5.12,5.12,0,0,0-.59.08h-.09c-.18,0-.45,0-.8,0h0a.29.29,0,0,1-.2.05h-.23l-.67.09a.4.4,0,0,1-.15,0l0,0-.11,0a.78.78,0,0,1-.3-.07l0,0a.33.33,0,0,1-.14,0h-.31l-.89.07a.31.31,0,0,1-.19,0l0,0a.47.47,0,0,1,.1.25.26.26,0,0,1,0,.15,27.53,27.53,0,0,1-2.64,4.45,11.76,11.76,0,0,1-1,1.48.27.27,0,0,1,0,.12,1.47,1.47,0,0,1-.39.62h0a.86.86,0,0,1-.21.35.31.31,0,0,1-.16.24l-.1.06a.32.32,0,0,1-.23,0,.79.79,0,0,1-.41.14h0a.41.41,0,0,1-.4-.32v-.1c0-.19,0-.52,1.89-3.54a27.36,27.36,0,0,0,1.58-2.58.37.37,0,0,1,.08-.18,8.68,8.68,0,0,0,.54-1l-.48,0a.63.63,0,0,1-.2,0,.3.3,0,0,1-.22.1l-.16,0a1.13,1.13,0,0,0-.31,0l0,.06a6.19,6.19,0,0,1-.61.83,2.92,2.92,0,0,1-.44.58,1.69,1.69,0,0,1-.45.65,7.81,7.81,0,0,1-.76,1.09,1.85,1.85,0,0,1-.46.65,1.29,1.29,0,0,1-.28.45.33.33,0,0,1-.11.21l-.13.13a.36.36,0,0,1-.16.22s-.07.11-.46.7a2.44,2.44,0,0,1-.46.62.34.34,0,0,1-.19.27.47.47,0,0,1-.06.09.33.33,0,0,1,0,.14.65.65,0,0,1-.44.35h0a1.92,1.92,0,0,0-.28.48.35.35,0,0,1-.21.22l-.41.15a.27.27,0,0,1-.12,0,.32.32,0,0,1-.23-.09l-.07-.06a.35.35,0,0,1-.12-.23.4.4,0,0,1,.09-.3.23.23,0,0,1,.07-.07s0,0,0,0A11.38,11.38,0,0,1,78.9,126a13,13,0,0,1,1.13-1.8,1.65,1.65,0,0,1,.29-.39.37.37,0,0,1,.15-.21.89.89,0,0,0,.32-.49.4.4,0,0,1,.12-.16.43.43,0,0,0,0,0,.38.38,0,0,1,.08-.17A9.77,9.77,0,0,0,82.19,121a.35.35,0,0,1,.19-.17s.11-.1.3-.31l.12-.19h-.25l-.21,0c-.35,0-.62,0-.81.08h-.46a.37.37,0,0,1,.16.27v.15a.38.38,0,0,1-.18.34.15.15,0,0,0,0,.06.37.37,0,0,1-.29.19.83.83,0,0,1-.25.16.52.52,0,0,1-.18.18.38.38,0,0,1-.13.09,3.06,3.06,0,0,0-1,.75.37.37,0,0,1-.22.1.83.83,0,0,0-.51.37v.11a.34.34,0,0,1-.08.26.42.42,0,0,1-.18.11l-.1.07a.76.76,0,0,1-.35.39.29.29,0,0,1-.18.21l-.15.08a.45.45,0,0,1-.25.31.31.31,0,0,1-.09.18,3.1,3.1,0,0,1-.47.42.47.47,0,0,1-.06.15,14.13,14.13,0,0,0-1.46,2.26c-.07.27-.19.72-.57.75h-.12a.33.33,0,0,1-.17,0c-.51-.28-.69-.45-.71-.69a.34.34,0,0,1,0-.1,8.07,8.07,0,0,1,.86-1.76l1-2c1-2.13,1.11-2.15,1.31-2.21l.16,0a.35.35,0,0,1,.32.16.68.68,0,0,0,.24.25.33.33,0,0,1,.19.29,10.68,10.68,0,0,1,2.9-1.79c-.91.08-1.55.15-1.88.2h-.16l-.43.06h-.22l-.15,0-.42,0H77a.54.54,0,0,1-.19.05h-.38l-.67,0c-.21,0-.4,0-.57,0l.1,0,.45.39a.35.35,0,0,1,.12.23.6.6,0,0,1,0,.3,7.31,7.31,0,0,1-.83.9v0a.34.34,0,0,1-.28.37.09.09,0,0,1,0,.06.34.34,0,0,1-.22.15s0,0,0,0l0,0a.63.63,0,0,1-.33.53.33.33,0,0,1-.32,0,1.81,1.81,0,0,1-.25.19,5.68,5.68,0,0,1-.52.61.37.37,0,0,1-.2.31c-.07,0-.07.06-.07.1l.07.24a.35.35,0,0,1-.13.38.35.35,0,0,1-.41,0h0a3.15,3.15,0,0,0-.34.56l-.07.09-.16.16a.17.17,0,0,0,0,.07.41.41,0,0,1-.09.26,2.1,2.1,0,0,0-.4.81A.35.35,0,0,1,71,128l-.08.12,0,.25a.67.67,0,0,1,.22.41.34.34,0,0,1,0,.14c-.05.13-.16.48-.48.51h0l-.16,0a.93.93,0,0,1-.69-.82l0-.18a3.65,3.65,0,0,1,.89-2.12c0-.1.14-.27.27-.49h-.18a10.19,10.19,0,0,1-1.38,1.38.23.23,0,0,1-.07.07l-.06,0c-1.68,1.47-2.33,1.68-2.66,1.71H66.4c-1.22-.13-1.5-.73-1.54-1.21-.08-1,1-2.53,3.38-4.68,1.64-1.28,2.23-1.46,2.54-1.49h.12a5.89,5.89,0,0,1,1.95.34.37.37,0,0,1,.25.35v0a7.82,7.82,0,0,1,1.71-1.41c-.4,0-1-.07-1.24-.49a.71.71,0,0,1-.16-.39.35.35,0,0,1,.22-.37c1-.39,2.16-.78,3.47-1.17a16.85,16.85,0,0,0,1.67-.49.27.27,0,0,1,.12,0H79a39,39,0,0,1,3.87-1l.16,0a.41.41,0,0,1,.16,0c.38.16.58.39.6.67a.35.35,0,0,1-.27.38c-1.59.35-3.57.88-5.89,1.57h.1a.76.76,0,0,1,.21,0h.17l.17,0,1.5-.11.55-.08a.33.33,0,0,1,.17,0l.23,0,.52,0h.17a.22.22,0,0,1,.14,0h.27l.81-.1H83a3,3,0,0,0,.56-.09.28.28,0,0,1,.09-.1,10.21,10.21,0,0,0,1-1.33,1.17,1.17,0,0,0,.29-.45.35.35,0,0,1,.23-.23,1.5,1.5,0,0,0,.17-.31.19.19,0,0,1,0-.09,4.75,4.75,0,0,0,.62-.92.36.36,0,0,1,.21-.19h0s.08-.12.31-.57.54-.77.73-1.08a.31.31,0,0,1,.09-.11,4.2,4.2,0,0,0,.28-.48.29.29,0,0,1,.1-.12s.2-.29,1.37-2.16c.26-.42.47-.6.69-.64H90c.48.14.79.25.81.56a.3.3,0,0,1-.06.22l-3.09,4.66s0,0,.06,0L88,116l.23-.16a.34.34,0,0,1,.17-.05h.1a.52.52,0,0,1,.54.51,1.32,1.32,0,0,1-1,1.36l-.1,0-.35,0h0a.36.36,0,0,1-.2-.06,1.61,1.61,0,0,1-.57-.62l-.06,0h0s-.13.18-.8,1.16c-.18.27-.36.53-.54.77h0l0,0a.43.43,0,0,1,.25,0l.06.36h0l0-.35.63-.12h.21a.35.35,0,0,1,.14,0h.48l.06,0a.36.36,0,0,1,.23,0l.36,0h.46l.55-.08a.75.75,0,0,1,.22,0,5.22,5.22,0,0,1,.53-.07l.59,0,.12,0a.45.45,0,0,1,.16,0h.63a4.65,4.65,0,0,1,.61-.08h.56a.23.23,0,0,1,.16,0c.17,0,.3,0,.38,0l.5-.07h.1l.08,0h.49l.18,0h.37l1-.07h.28a.34.34,0,0,1,.16,0h.55l.42-.07a.38.38,0,0,1,.21,0h.32l.42-.06h.1c.28-.54.56-1.06.83-1.56l.82-1.6c.69-1.39.88-1.81.92-1.9a.36.36,0,0,1,0-.07c.3-.56.69-1.45,1.17-2.64.26-.43.52-.63.81-.66h.1s0,0,0,0l.08-.06a.45.45,0,0,1,.18-.07h.1a.46.46,0,0,1,.49.41c0,.15,0,.36-1,2.45l-1.81,3.72-1,1.85c.58,0,.91,0,1,0l.22,0a11.4,11.4,0,0,1,1.36-.05h0a.34.34,0,0,1,.2,0l.19,0H103l.37,0a.42.42,0,0,1,.16,0h.09a3.22,3.22,0,0,1,.7,0h.38a.52.52,0,0,1,.22-.07.53.53,0,0,1,.22,0l.2,0a.73.73,0,0,1,.21-.06.3.3,0,0,1,.19,0l.2,0H106l.58,0a.85.85,0,0,1,.23,0h.09a.33.33,0,0,1,.15,0l.71,0a.11.11,0,0,1,.08,0l.13,0,.26,0a.33.33,0,0,1,.29,0,3.91,3.91,0,0,0,.7,0,.36.36,0,0,1,.35.33v.19A.34.34,0,0,1,109.48,118.43Zm26.74-9.59c-.24.15-.46,0-.65-.42l-.09-.29.66-.4.09.29Zm.86.24-.23.14a3.84,3.84,0,0,0-.19-1.45l.43-.27.22.69A.79.79,0,0,1,137.08,109.08Zm12.31-.5-.2.12a2.34,2.34,0,0,0-.88-1l-.1-.29.46-.28a1.26,1.26,0,0,0,1.07.12C149.72,108,149.61,108.44,149.39,108.58Z"
          transform="translate(0 -56.04)"/>
    <path class="cls-7"
          d="M88.21,123.86a9.48,9.48,0,0,0-1.4,2.08,10.57,10.57,0,0,0,2-1.18l4.39-3.6.06-.06a10.5,10.5,0,0,0-4,1.78A9.54,9.54,0,0,1,88.21,123.86Z"
          transform="translate(0 -56.04)"/>
    <path class="cls-8"
          d="M67.76,125.42a9.19,9.19,0,0,0-1.4,2.09,11.51,11.51,0,0,0,2-1.19l4.39-3.6.06-.06a10.35,10.35,0,0,0-4,1.79A7.89,7.89,0,0,1,67.76,125.42Z"
          transform="translate(0 -56.04)"/>
    <path class="cls-9"
          d="M34.39,93.51H11.56v9.82H8.18V90.27H35.69c1.69,0,2.53.94,2.53,2.74V103.3H34.84V95A2.2,2.2,0,0,0,34.39,93.51Z"
          transform="translate(0 -56.04)"/>
    <path class="cls-10"
          d="M111.41,93.51H88.58v9.82H85.19V90.27H112.7c1.69,0,2.54.94,2.54,2.74V103.3h-3.38V95A2.2,2.2,0,0,0,111.41,93.51Z"
          transform="translate(0 -56.04)"/>
    <path class="cls-11"
          d="M45.35,98.25v5.08H42V93.05c0-1.83.86-2.75,2.59-2.75H72v3.21H46a2.35,2.35,0,0,0-.64,1V95H72v3.24Z"
          transform="translate(0 -56.04)"/>
    <path class="cls-12" d="M126.63,90h30.05v3.22H143.25V103h-3.38V93.21H126.63Z" transform="translate(0 -56.04)"/>
    <path class="cls-13"
          d="M165.31,97.94v.88l.5.62H192V103H164.52c-1.73,0-2.59-1.06-2.59-3.18V92.74c0-1.83.86-2.75,2.59-2.75H192v3.22H166a2.34,2.34,0,0,0-.65,1v.5H192v3.24Z"
          transform="translate(0 -56.04)"/>
    <rect class="cls-14" y="34.28" width="3.38" height="13.02"/>
    <rect class="cls-15" x="77.01" y="34.28" width="3.39" height="13.02"/>
    <rect class="cls-16" x="119.48" y="34.28" width="3.38" height="13.02"/>
    <path class="cls-17"
          d="M129.62,80.77c0-.14.12-.24.09-.32a3.27,3.27,0,0,0-.24-.5l-.44.3a.35.35,0,0,0-.08.1.6.6,0,0,1-.72.18l-1-.4a3,3,0,0,1-.48.23,4.63,4.63,0,0,1-.55.06,2,2,0,0,0-1.27.92l-.41-.06s.1-.07.09-.09c-.4-.61-1.12-.41-1.79-.37.29.48,1,.23,1.5.41l-.77,0v0l.63,0c-.48,0-1,0-1.44.05-.1,0-.18.07-.28.08a.83.83,0,0,1-.34,0c-.12,0-.2-.16-.31-.18l-2.15-.4-.07.07.82.49-.08.07-.86-.08.27.44-.14.07a2.41,2.41,0,0,1-.44-.33,2.14,2.14,0,0,1-.2-.4c-.08-.18-.17-.35-.27-.58,0,0-.19,0-.33-.07-1.14-.3-2.3-.57-3.41-.93a8.94,8.94,0,0,1-1.47-.77,1.05,1.05,0,0,0-.32-.09c-.17.18-.25,0-.33,0a5.3,5.3,0,0,0-.52-.42c-.51-.3-1.12-.52-1.22-1.06l.94.45a1.91,1.91,0,0,0-1.33-.92l.15.17L110,77l-.09.11-2.14-1.62.2.25-.06.07c-.08,0-.19,0-.24-.1-.31-.28-.62-.55-.89-.84s-.75-.87-1.17-1.27a1.84,1.84,0,0,0-.78-.32c-.06,0-.23.23-.36.35s0,0-.08,0c-.54-.35-1.07-.71-1.63-1s-.79-.8-1.42-1a3.09,3.09,0,0,0-.58-.08c.23.38.89.32.86.77l-.74-.43,0,0c.08.1.16.21.25.31h0c-.12.06-.27.18-.33.16a1.11,1.11,0,0,1-.47-.29,1.25,1.25,0,0,1-.16-.46c.22-.13.23-.2,0-.39s-.84-.44-1-.82c0,0-.09-.07-.15-.09a3.26,3.26,0,0,1-1.31-.8c-.46-.39-1-.74-1.42-1.12a6.4,6.4,0,0,1-.41-.5.72.72,0,0,0-.31-.2c-.69-.14-1-.34-1-.75l.55.29c0-.13,0-.25,0-.3-.7-.65-1.43-1.29-2.14-1.93a1.16,1.16,0,0,1-.11-.16l.49-.09c.37.42.4.43.71.4l-.73-1c.43,0,.56.22.6.45a.6.6,0,0,0,.48.58c0-.13,0-.27,0-.31-.4-.26-.34-.71-.91-.93a.74.74,0,0,1-.35-1,.79.79,0,0,1,.11.29c.06.19.09.4.46.4a.31.31,0,0,1,.18.09l.83.56c.22.15.43.32.65.48,0,0,0,.05,0,.11l-.24-.12c-.18.26.14.2.28.26l.25.1c-.24.18,0,.31.12.4.48.39,1,.76,1.5,1.14l.06,0c.4-.11.43.15.52.31a3.52,3.52,0,0,0,1.27,1.37c.07,0,.11.11.18.16.71.58,1.42,1.15,2.15,1.71.08.06.27,0,.41.08l.12-.16c-.19-.1-.39-.2-.58-.32a5,5,0,0,1-1.84-1.73,1.34,1.34,0,0,0-.27-.26l-2.69-2.28c-.06,0-.17-.12-.16-.16.11-.29-.21-.38-.41-.5A7.62,7.62,0,0,1,94,63.12c-.23-.27-.3-.63-.78-.76-.15,0-.37-.15-.38-.23,0-.26-.27-.35-.51-.44l-.65-.25.4-.23c-.48-.06-.51-.09-.63-.38a1.7,1.7,0,0,0-.19-.35c-.2-.3-.37-.6-.06-.95l-.65,0c-.33.47,0,.9.13,1.36a1.86,1.86,0,0,1-.35-.51c-.1-.23-.15-.48-.25-.71a4.1,4.1,0,0,0-.35-.5l-.17,0,.67,2.68c-.07,0-.11-.06-.12-.09a2.05,2.05,0,0,0-.92-.87s-.07-.11,0-.13a.32.32,0,0,1,.18-.06l.31.05,0-.08-.49-.17c-.16-.05-.36-.09-.21-.27l.58.23c-.07-.43-.13-.81-.2-1.19a.46.46,0,0,0-.59-.31.77.77,0,0,1-.9-.21,1.28,1.28,0,0,0,.43,0,1.08,1.08,0,0,1,1,.1,1,1,0,0,0-.43-.35,3.21,3.21,0,0,0-.63-.06l-.37-.06.38-.21a.58.58,0,0,1,.14,0s0-.06,0-.09-.22,0-.32,0a2.68,2.68,0,0,1-.72.09c-.46-.09-.89-.26-1.33-.39a2.52,2.52,0,0,0-.48-.06s0,.09,0,.1l.43.19h.08l1.21.34c.07,0,.1.11.15.16a10.68,10.68,0,0,1-1.56-.43c-.38-.14-.72-.34-1.11-.46s-.25-.16-.09-.3L84,57.26c0,.1,0,.18,0,.36-.67-.19-1.29-.33-1.87-.53a12.12,12.12,0,0,0-2.56-.43c-.18,0-.31,0-.33-.2s-.62-.37-.86-.25a2.13,2.13,0,0,1-1.57,0l-.35-.12a.86.86,0,0,1-1,.52c-.21,0-.43,0-.64,0a5.24,5.24,0,0,1-.79,0,8.51,8.51,0,0,1-1-.23c-.16.09-.33.24-.42.22-.36-.09-.83,0-1-.37L71.45,56l-.11.07c.1.14.19.28.29.44l-2.22-.12a4.38,4.38,0,0,1-.82-.12c-.41-.11-.8-.35-1.18,0,0,0-.17,0-.26,0,.17.06.35.06.5.11a2,2,0,0,1,.57.22c.19.12.3.32.65.24.08,0,.22.1.44.21a2.75,2.75,0,0,1-.52.14,9,9,0,0,1-1.06-.13c-.28-.06-.47-.07-.51.08l-1.66-.09c0,.21.1.38.14.54l-.14,0-.26-.41-.1.24-.52.09-.22-.14c0,.12,0,.22,0,.32a7.84,7.84,0,0,0-1-.27,1,1,0,0,0-.61.19c-.07,0,0,.26.12.38s.38.39.57.59l-.08.09a31,31,0,0,0-5.94-.22l.1.07,1.12.5-.06.14c-.17,0-.35,0-.52,0-.86-.11-1.71-.23-2.57-.33A3,3,0,0,0,55,59s0,.05,0,.08a27.06,27.06,0,0,1,3.62.6c0,.24,0,.4,0,.55a.43.43,0,0,1-.15.29,4,4,0,0,1-1.9.22h-.86s0,.07,0,.1a1.51,1.51,0,0,0,.41.09l1.76,0H59.4a.29.29,0,0,0,0,.09,4.56,4.56,0,0,1-2.57.67l.22-.19-.07-.1-1,.29a2.47,2.47,0,0,0,1.4.19,2.92,2.92,0,0,1,.86.06c-.06.13-.12.19-.1.23.24.44-.25.47-.59.54-.73.15-1.48.26-2.22.4-.28,0-.56.13-.84.2l0,.08a2,2,0,0,0,1.27-.18.73.73,0,0,1,.37,0s.12.12.12.13a1,1,0,0,1-.31.15c-.63.09-1.27.15-1.9.24a6.22,6.22,0,0,0-.71.19.5.5,0,0,1,0,.12,5.27,5.27,0,0,0,.52.1c.63,0,1.26,0,1.89.07.27,0,.53.07.88.12a2.14,2.14,0,0,1-1.54.38.6.6,0,0,0-.27,0,.91.91,0,0,0-.21.18.75.75,0,0,0,.25.09c.28,0,.55,0,.58.27s-.19.41-.52.43c-.5,0-1,0-1.52.06a2.12,2.12,0,0,0-.44.06.28.28,0,0,0,0,.09H55.8a4.56,4.56,0,0,0-.86.38c-.24.22-.39.48-.92.38a.41.41,0,0,0,.18.13l.63.26c.48.2.51.33.1.6.26.26.26.25.16.64,0,.05,0,.1,0,.15,0,.42-.09.83-.17,1.24,0,.1-.15.19-.23.28-.06-.09-.17-.19-.17-.28,0-.29.05-.57.07-.86,0-.1,0-.28,0-.3-.37-.12-.33-.35-.35-.58a1.38,1.38,0,0,0-.15-.36.92.92,0,0,0-.07.81,3.07,3.07,0,0,1,0,1.28,2.15,2.15,0,0,0,0,.43c0,.51.12,1,.16,1.51a2.09,2.09,0,0,1-.08.49h-.11l-.13-.17-.16-.18c-.21.44-.16.51.29.81.1.07.23.28.18.31-.26.2-.07.4,0,.58s.26.65.38,1a2.15,2.15,0,0,0,.75,1.19.3.3,0,0,1,.09.13c.12.28.23.57.33.86a.75.75,0,0,1,0,.26h-.37c0,.09.09.21,0,.3-.13.28.11.48.59.44.06.17.11.34.18.55l-.37-.25a6.21,6.21,0,0,0,.81,1.06,1.51,1.51,0,0,0,.42.15v.25H57a1.09,1.09,0,0,0,.05-.17,5,5,0,0,1,.67.18,1.72,1.72,0,0,1,.49.39c.12.12.28.35.22.42s-.39,0-.58-.07c0,0,0,0-.12,0l.83.64a.25.25,0,0,0,0,.08,3.13,3.13,0,0,1-.53,0c-.27-.06-.54-.16-.8-.24a.22.22,0,0,0-.05.08,1.35,1.35,0,0,0,.8.4,4.1,4.1,0,0,1,1.3.66c.13.07.23.18.37.25.49.21,1,.41,1.49.64a2.29,2.29,0,0,1,.41.28l-.06.06h-.61a.77.77,0,0,0,.87.26,1,1,0,0,1,.52,0c.15,0,.24.19.39.24a12.46,12.46,0,0,0,1.37.34c.46.09.94.11,1.41.16a1.86,1.86,0,0,1,.34.06l.62.16.52.1a.17.17,0,0,0,0,.07l-.44.19c.13.08.48,0,.19.32l.11,0,1.06-.3c.52.15.69.14,1-.13H67.54v-.07l1-.11s0-.08,0-.12l-1,.09a2.78,2.78,0,0,1,1.48-.39c.48-.07,1,0,1.49-.08,1-.13,1.9-.3,2.91-.47a2,2,0,0,1-1.28.48,3.39,3.39,0,0,0-1.46.27,3.09,3.09,0,0,1-.77.14c-.34,0-.68,0-1,0v.06h.65v.33l-1.8.15a.34.34,0,0,0,0,.1c.6,0,1.22,0,1.82-.08.25,0,.42-.36.75,0,0-.11,0-.2,0-.22a5.3,5.3,0,0,1,.77-.34c.4-.12.82-.2,1.23-.28.21,0,.42,0,.63-.07A.75.75,0,0,1,73,84L72,84.49a24.54,24.54,0,0,0,2.63-.59c.45-.14.89-.32,1.37-.44a24.07,24.07,0,0,0,2.43-.86c.61-.24,1.18-.54,1.76-.81L86.26,79l.3-.17-.06-.08-2.14.87-.07-.09A19.18,19.18,0,0,0,89,77.08l-.52.12a48.51,48.51,0,0,0,6.14-3l-.07-.09L91.46,75.6l0,0,1.17-.75c-1.41.48-2.37,1.47-3.94,1.76a11.27,11.27,0,0,0,3.49-2,1.18,1.18,0,0,0-.33.12c-1.16.63-2.3,1.28-3.49,1.89-.65.34-1.36.61-2,.91s-1.55.66-2.31,1c-.3.13-.54.33-.83.45-1.58.68-3.13,1.4-4.75,2-1.35.51-2.79.87-4.16,1.34A9.78,9.78,0,0,0,72,83s-.05,0-.08,0l.06-.08c-.77,0-1.54,0-2.3,0-.24,0-.47.07-.71.1a2,2,0,0,1-.59.06c-.75-.08-1.5-.18-2.24-.31a10.12,10.12,0,0,1-1.08-.29c.21-.09.45-.08.61-.15a1.1,1.1,0,0,1,.87,0,9.87,9.87,0,0,0,3.71.33,25.22,25.22,0,0,0,6-1.31A76.65,76.65,0,0,0,84.44,78c2-.91,3.86-1.92,5.79-2.89a1.76,1.76,0,0,0,.3-.24l-.07-.08a10.72,10.72,0,0,0-1.09.4c-.46.22-.85.5-1.3.73a69.12,69.12,0,0,1-7.56,3.43c-1.87.71-3.8,1.35-5.73,2a12.25,12.25,0,0,1-3.25.76c-1,0-2,.17-3,.25,0,0-.07,0-.1,0l.16-.21L67,82l.75-.19a.36.36,0,0,0,0-.1c-.24,0-.49,0-.72,0-.54.06-.76,0-.9-.27,1.31.07,1.31.07,1.65-.18-.28,0-.52,0-.75,0a7.82,7.82,0,0,1-1.47-.12c-.45-.12-1-.08-1.35-.4,0,0-.14,0-.22,0a1,1,0,0,1-.3,0c-.87-.32-1.75-.63-2.58-1a3,3,0,0,1-.81-.65c-.62-.6-1.23-1.21-1.84-1.82-.11-.12-.22-.25-.31-.37s-.12-.3-.23-.33a.72.72,0,0,1-.54-.51c-.3-.69-.65-1.39-.89-2.09a4.59,4.59,0,0,1-.09-1.17c0-.16,0-.32,0-.56l-.16.18c-.16-.31.2-.27.41-.37a2.21,2.21,0,0,0,.07.4,18.11,18.11,0,0,0,1.53,3.91A8.27,8.27,0,0,0,60.71,79a12.33,12.33,0,0,0,4.6,1.82,9.81,9.81,0,0,0,1.73.11.9.9,0,0,0,.23-.08.9.9,0,0,0-.14-.2c-.25-.21-.59-.06-.88-.1a8.64,8.64,0,0,1-4.63-1.72c-.09-.07-.17-.18-.28-.21a3.67,3.67,0,0,1-1.4-.83,1.9,1.9,0,0,1-.38-.29c-.23-.31-.43-.64-.66-1a9,9,0,0,1-.81-1.12,23.56,23.56,0,0,1-.84-2.4,2,2,0,0,1,0-1.71,1.57,1.57,0,0,0,.16-.52c0-.29,0-.59.08-.88s.32-.5.2-.8c0,0,0-.06.1-.14.06.2.1.35.15.54.28-.13.35-.29.15-.41s-.1-.2-.07-.33c.07-.3.38-.62-.11-.9,0,0,0-.13,0-.18s.15,0,.23,0a1.4,1.4,0,0,1,.3.09,6.67,6.67,0,0,0,.08-.69,1.19,1.19,0,0,1,.34-.87c.35-.41.68-.83,1-1.25a1.84,1.84,0,0,0,.17-.44l-.57.13-.06,0L61,63.34l-.79.24c-.27-.11-.54-.2-.77-.32s-.09-.19-.13-.28a1.48,1.48,0,0,1,.41,0c.09,0,.16.1.23.15.37.27.49.27.87,0a4.05,4.05,0,0,1,.35-.21c.34.18,0,.65.61.64l-.19.33,1.67-1.33a.28.28,0,0,0,0-.16l-.2,0c.17-.37.21-.39.53-.32s.54,0,.65-.26l.45-.13.39-.11c-.27.23-.27.23,0,.29l.43-.06-.75.37,0,0,.48-.06-.27.24c.87-.12,1.93-.73,1.94-1l-1-.07-.43.12.46-.29c.09-.06.15-.14.22-.19a6.71,6.71,0,0,0,3.32-.42c0-.19.42-.45.73-.37a5.1,5.1,0,0,0,1.7,0c.58,0,1.16-.31,1.73,0a.67.67,0,0,1,.69-.22l2.8.59a.55.55,0,0,1,.18.06,5.36,5.36,0,0,0,.53.28c.59.2,1.19.37,1.77.56s1.14.42,1.71.62l0,.08-2-.68a.43.43,0,0,0,0,.07c.44.16.9.3,1.33.47s.81.36,1.23.54l1.44.6h0l.21.21-.34.08a14.2,14.2,0,0,1,1.47.67,13.16,13.16,0,0,1,1.11.86c.4.29.86.55,1.24.87a2.2,2.2,0,0,1,.73.84.79.79,0,0,0,.34.52,1.53,1.53,0,0,1,.63.69.35.35,0,0,0,.44.2.41.41,0,0,1,.28.11c.29.31.57.62.84.94a.68.68,0,0,1-.17,1l.49.44a4.1,4.1,0,0,1,.63-.28c.35-.09.29.19.41.3a27.2,27.2,0,0,0,2.58,2.31c.91.62,1.84,1.21,2.79,1.8l.15.14,0,0h0l0,0,0,0,3.16,2c1.21.74,2.52,1.4,3.75,2.13.78.46,1.54,1,2.35,1.4a41.82,41.82,0,0,0,5.51,2,.31.31,0,0,0,.13,0l-.3-.18a26.3,26.3,0,0,0,4.5.82l-1.94-.4c1,0,1.94.49,3,.27a2.73,2.73,0,0,0,1.28.16c1,.06,2.08.14,3.13.18s2.13,0,3.2,0c.6,0,1.2,0,1.79,0V83h-1.15v-.09a2.3,2.3,0,0,1,.26,0,13.69,13.69,0,0,0,3.8-.65,4.23,4.23,0,0,0,.58-.25c.52-.23,1.11-.41,1.3-.9a3.87,3.87,0,0,1,.28-.47A9.77,9.77,0,0,0,129.62,80.77ZM72.91,56.83l-.75-.06Zm.43.25c.16,0,.21-.06.14-.2h0C73.55,57,73.5,57.08,73.34,57.08Zm.14-.2.24.14Zm9.31,5.88h0ZM96.87,74.49l0,.06Z"
          transform="translate(0 -56.04)"/>
    <path class="cls-18"
          d="M139.09,68.43c-.28-.24-.13-.53-.19-.8a2.48,2.48,0,0,0-.5-1.43.85.85,0,0,1-.25-.67.79.79,0,0,0-.22-.63l-.39-.58-1.11-1.61-.16.06c.09.16.19.32.27.48s.17.44-.12.55a.83.83,0,0,1-.56-.24c-.48-.49-.92-1-1.37-1.53,0,0,0,0,0-.05l.33.12-.4-.71.09,0,.39.16.07-.09a2.05,2.05,0,0,0-.41-.16,3.69,3.69,0,0,0-.56-.06l.35-.37-2.78-1.67-.14.11,2.39,1.66c-.32,0-.71-.24-.8.23l-1.2-.65-.1.09.4.28a8.24,8.24,0,0,1,.93.51,2.13,2.13,0,0,1,.72.71,1.75,1.75,0,0,0,.7.81,8.32,8.32,0,0,1,.86.54c.36.27.39.6.13.87l-.07,0-.43-.39a16.4,16.4,0,0,0-3.37-2.62,3.88,3.88,0,0,0-.63-.21l.13-.06a6,6,0,0,1-1-.56,1.44,1.44,0,0,1-.35-.61.68.68,0,0,1,.21-.1,1.14,1.14,0,0,1,.37.29.91.91,0,0,0,1,.32l-1.25-.81.07-.09a2.34,2.34,0,0,1,.4.11c.33.18.63.37,1,.55s.58.32.77.1-.2-.37-.46-.46-.72-.19-1.13-.3l.27-.1c-.21-.39-.36-.79-1-.91l-.16.3-.84-.2c0,.09,0,.12,0,.13.24.09.26.25.13.37a.69.69,0,0,1-.46.08,3.49,3.49,0,0,1-.88-.28,2,2,0,0,0-1.07-.17,1.71,1.71,0,0,1-.65-.15,7,7,0,0,0-1.16-.43,11.59,11.59,0,0,0-3.72-.16s0,0-.07,0a2.59,2.59,0,0,0-1.3.08.43.43,0,0,0-.26.17.78.78,0,0,1-.83.16l.79-.42-.08-.06-.75.42c-.24-.09-.47-.26-.67-.24a2.54,2.54,0,0,0-1.45.63l.94,0,0,.11a6.12,6.12,0,0,1-.91.49c-1.36.54-2.74,1-4.1,1.57a8.74,8.74,0,0,0-1.08.6c-.14.08-.26.17-.41.27a.84.84,0,0,0-.08-.15l-2.5,1.43c0-.14-.06-.2-.1-.33l-1.54.93a2.62,2.62,0,0,0,1.71-.45l.5.38.44-.26,2.23-1.21a3.23,3.23,0,0,1,.56-.14,1.34,1.34,0,0,1-.72.82c-.55.33-1.14.63-1.69,1-.73.44-1.45.9-2.16,1.36a.34.34,0,0,0-.15.31c.16.34,0,.58-.5.67,0-.1.05-.19.08-.27l-.08,0-1.21.64.15,0c0,.09.06.22,0,.28a.64.64,0,0,1-.7.17s-.09-.07-.13-.06a.72.72,0,0,0-.63.62c0,.07-.08.15-.12.22l-.09,0,.1-.38-1.18.54.18.22-.54.16c0,.11.07.24.13.43.28-.18.52-.31.71-.46a.65.65,0,0,1,.72-.06.91.91,0,0,0,.49,0c.71-.38,1.41-.75,2.08-1.16s1.42-.94,2.12-1.42a7.72,7.72,0,0,1,2.22-1c.64-.17,1.36-.32,1.58-.91,0,0,.1-.07.19-.13v.29l.44-.27c-.26-.22.09-.28.2-.34.65-.33,1.31-.65,2-.93a9.88,9.88,0,0,1,1-.18c.55-.17,1.08-.38,1.63-.57.12,0,.25-.06.37-.09l0,0-.6.24.06.1c.45-.15.9-.3,1.34-.47a5.88,5.88,0,0,1,3-.57,12.66,12.66,0,0,1,2,.16c.32.1.7.11,1,.19.52.13,1,.28,1.53.42.3.09.61.15.9.25s.51.25.52.52c0,.06.1.15.19.18s.4.1.59.16c.52.16,1.07.3,1.56.5s.95.47,1.43.71l.2-.27c.05.07.12.13.11.15-.23.34.16.52.35.75.34.42.72.83,1,1.26a7.27,7.27,0,0,1,1.52,3,21.52,21.52,0,0,1,.14,2.89c0,.38.06.78-.34,1.1,0,0,0,.14,0,.2-.13.36.17.71-.06,1.08a5.77,5.77,0,0,0-.41,1.07c-.17.49-.31,1-.5,1.47a2.86,2.86,0,0,1-.37.51l-1.15,1.73c-.22.31-.45.61-.68.92l.11,0a12.91,12.91,0,0,0,1.38-1.39,9.55,9.55,0,0,0,.85-1.61,1.24,1.24,0,0,1-.25,1.15c-.25.35-.55.68-.82,1s-.53.65-.79,1l.07,0L134,79l.15.12-2,1.54a5.13,5.13,0,0,0,1.78-1,1.93,1.93,0,0,0,.33-.57c0-.06,0-.13.06-.18.34-.55.69-1.09,1-1.64l.17-.19.86-.94c.12-.13.18-.31.33-.4a1,1,0,0,0,.48-.69c.13-.47.27-1,.41-1.42a.91.91,0,0,1,.13-.26c.08.07.08.12.07.16-.11.45-.24.89-.34,1.34a1.79,1.79,0,0,0,0,.4h.12a19.07,19.07,0,0,0,1.24-4.18c.06-.37.09-.74.13-1.11s.09-1,.14-1.46A.13.13,0,0,0,139.09,68.43Z"
          transform="translate(0 -56.04)"/>
    <path class="cls-19"
          d="M103.93,69.39a2.81,2.81,0,0,0-.56.46l.11.08,1.49-.49.16.26c.75-.44,1.46-.84,2.15-1.27a12.14,12.14,0,0,0,1.54-1,9.48,9.48,0,0,1,2.4-1.6c.84-.4,1.73-.75,2.57-1.15a29.19,29.19,0,0,1,5.27-2.13,3.94,3.94,0,0,1,1.12-.2c1.43,0,2.86.11,4.27.24a6.28,6.28,0,0,1,2.45.46c.27.14.56.24.83.36.72.35,1.43.7,2.16,1,.19.08.43.09.64.16a1.09,1.09,0,0,1,.4.22c.14.14.21.31.33.45l1.41,1.65c.05.07.14.16.11.22-.16.36.19.59.38.85a3.83,3.83,0,0,1,.63.89,13.73,13.73,0,0,1,.51,2.42,9.48,9.48,0,0,1-1,4.83c-.23.52-.64,1-.9,1.52a3.65,3.65,0,0,0-.19.87l.22.11c.06-.09.1-.18.16-.27a8.76,8.76,0,0,0,.59-.81,12.18,12.18,0,0,0,1.7-4.56,12.34,12.34,0,0,0-.12-3.93,8,8,0,0,0-3.82-5A11.39,11.39,0,0,0,129,63c-.67-.26-1.42-.4-2.11-.63a6.42,6.42,0,0,0-2.1-.34c-.72,0-1.45-.06-2.17-.09a16.29,16.29,0,0,0-3.35.13,25.65,25.65,0,0,0-4.43,1.38.58.58,0,0,0-.17.14c-.09.09-.14.22-.26.27a7.28,7.28,0,0,1-1.12.45A8.73,8.73,0,0,0,111,65.41c-.63.4-1.25.83-1.86,1.25-.36.25-.68.55-1.07.78s-.61.24-.9.38C106.07,68.34,105,68.85,103.93,69.39Z"
          transform="translate(0 -56.04)"/>
    <path class="cls-20" d="M62.79,63.82c.28-.15.57.11.85-.16a.56.56,0,0,0,.2-.63C63.47,63,63.18,63.24,62.79,63.82Z"
          transform="translate(0 -56.04)"/>
    <path class="cls-21" d="M109.09,66.07a1.77,1.77,0,0,0-1.25.74A1.62,1.62,0,0,0,109.09,66.07Z"
          transform="translate(0 -56.04)"/>
    <path class="cls-22" d="M95,65.08l-.29.26-.2-.23c.11.28,0,.64.72.73C95.15,65.56,95.08,65.35,95,65.08Z"
          transform="translate(0 -56.04)"/>
    <path class="cls-23" d="M119.89,80.63l1.27.27c-.18-.42-.67-.37-1-.46C120.08,80.43,120,80.55,119.89,80.63Z"
          transform="translate(0 -56.04)"/>
    <path class="cls-24" d="M110.16,65.36c-.56.11-.82.37-.74.73A1.27,1.27,0,0,0,110.16,65.36Z"
          transform="translate(0 -56.04)"/>
    <path class="cls-25" d="M94.41,66.42l.8.15A.5.5,0,0,0,94.41,66.42Z" transform="translate(0 -56.04)"/>
    <path class="cls-26" d="M116.2,62.36l-1,.4a.83.83,0,0,0,.08.12l1-.4Z" transform="translate(0 -56.04)"/>
    <path class="cls-27"
          d="M90.38,59.39a.05.05,0,0,0,0,0L90,59l-.17-.14s-.11,0-.11.06,0,.17.06.21A5.26,5.26,0,0,0,90.38,59.39Z"
          transform="translate(0 -56.04)"/>
    <path class="cls-28" d="M117.59,83l-1.12-.1C117.26,83.18,117.32,83.18,117.59,83Z" transform="translate(0 -56.04)"/>
    <path class="cls-29" d="M87,57.51c-.18-.11-.28-.36-.76-.13l.71.21Z" transform="translate(0 -56.04)"/>
    <path class="cls-30" d="M89.34,58a.41.41,0,0,1,0-.11l-.59,0C88.83,58.16,89,58.17,89.34,58Z"
          transform="translate(0 -56.04)"/>
</svg>